<svg width="38" height="30" viewBox="0 0 38 30" fill="none" xmlns="http://www.w3.org/2000/svg">
<path d="M5.625 0C3.55664 0 1.875 1.68164 1.875 3.75V14.5547C2.87109 13.6641 4.18359 13.125 5.625 13.125V3.75H31.875V13.125C33.3164 13.125 34.6289 13.6641 35.625 14.5547V3.75C35.625 1.68164 33.9434 0 31.875 0H5.625ZM9.375 18.75C9.375 17.7554 8.97991 16.8016 8.27665 16.0984C7.57339 15.3951 6.61956 15 5.625 15C4.63044 15 3.67661 15.3951 2.97335 16.0984C2.27009 16.8016 1.875 17.7554 1.875 18.75C1.875 19.7446 2.27009 20.6984 2.97335 21.4016C3.67661 22.1049 4.63044 22.5 5.625 22.5C6.61956 22.5 7.57339 22.1049 8.27665 21.4016C8.97991 20.6984 9.375 19.7446 9.375 18.75ZM0 28.125C0 29.1621 0.837891 30 1.875 30H9.375C10.4121 30 11.25 29.1621 11.25 28.125C11.25 26.0566 9.56836 24.375 7.5 24.375H3.75C1.68164 24.375 0 26.0566 0 28.125ZM22.5 18.75C22.5 17.7554 22.1049 16.8016 21.4016 16.0984C20.6984 15.3951 19.7446 15 18.75 15C17.7554 15 16.8016 15.3951 16.0984 16.0984C15.3951 16.8016 15 17.7554 15 18.75C15 19.7446 15.3951 20.6984 16.0984 21.4016C16.8016 22.1049 17.7554 22.5 18.75 22.5C19.7446 22.5 20.6984 22.1049 21.4016 21.4016C22.1049 20.6984 22.5 19.7446 22.5 18.75ZM13.125 28.125C13.125 29.1621 13.9629 30 15 30H22.5C23.5371 30 24.375 29.1621 24.375 28.125C24.375 26.0566 22.6934 24.375 20.625 24.375H16.875C14.8066 24.375 13.125 26.0566 13.125 28.125ZM31.875 22.5C32.8696 22.5 33.8234 22.1049 34.5266 21.4016C35.2299 20.6984 35.625 19.7446 35.625 18.75C35.625 17.7554 35.2299 16.8016 34.5266 16.0984C33.8234 15.3951 32.8696 15 31.875 15C30.8804 15 29.9266 15.3951 29.2234 16.0984C28.5201 16.8016 28.125 17.7554 28.125 18.75C28.125 19.7446 28.5201 20.6984 29.2234 21.4016C29.9266 22.1049 30.8804 22.5 31.875 22.5ZM30 24.375C27.9316 24.375 26.25 26.0566 26.25 28.125C26.25 29.1621 27.0879 30 28.125 30H35.625C36.6621 30 37.5 29.1621 37.5 28.125C37.5 26.0566 35.8184 24.375 33.75 24.375H30Z" fill="white"/>
</svg>
