<svg xmlns="http://www.w3.org/2000/svg" width="220" height="150" viewBox="0 0 220 150" fill="none">
  <!-- laptop -->
  <rect x="120" y="60" width="86" height="54" rx="6" fill="#e8f0ff"/>
  <rect x="126" y="66" width="74" height="40" rx="3" fill="#ffffff"/>
  <circle cx="150" cy="86" r="10" fill="#cfe0ff"/>
  <path d="M139 100c1-6 5.5-9 11-9s10 3 11 9" fill="#9dbcf7"/>
  <circle cx="176" cy="80" r="9" fill="#38b34a"/>
  <path d="M172 80l3 3 5-5.5" stroke="#fff" stroke-width="2" stroke-linecap="round" stroke-linejoin="round"/>
  <rect x="112" y="114" width="102" height="7" rx="3.5" fill="#c3d6f7"/>
  <!-- clipboard -->
  <rect x="60" y="34" width="58" height="76" rx="7" fill="#ffffff" stroke="#dbe6fb" stroke-width="2"/>
  <rect x="78" y="28" width="22" height="12" rx="4" fill="#2f6fe0"/>
  <g stroke="#38b34a" stroke-width="3" stroke-linecap="round" stroke-linejoin="round">
    <path d="M70 54l4 4 6-7"/><path d="M70 72l4 4 6-7"/><path d="M70 90l4 4 6-7"/>
  </g>
  <rect x="88" y="52" width="22" height="4" rx="2" fill="#ccd8ee"/>
  <rect x="88" y="70" width="22" height="4" rx="2" fill="#ccd8ee"/>
  <rect x="88" y="88" width="22" height="4" rx="2" fill="#ccd8ee"/>
  <!-- graduation cap -->
  <path d="M30 66l24-10 24 10-24 10-24-10Z" fill="#12336f"/>
  <path d="M42 74v12c0 4 24 4 24 0V74l-12 5-12-5Z" fill="#1b52c0"/>
  <path d="M78 66v13" stroke="#12336f" stroke-width="2.5" stroke-linecap="round"/>
  <circle cx="78" cy="82" r="3" fill="#f5a623"/>
  <!-- plant -->
  <path d="M188 112c-6-2-9-8-8-14 6 1 9 7 8 14Z" fill="#5fb85f"/>
  <path d="M190 112c5-3 7-9 5-15-5 2-7 9-5 15Z" fill="#48a048"/>
  <path d="M183 112h12l-1.5 10h-9L183 112Z" fill="#e6863a"/>
</svg>
