<svg xmlns="http://www.w3.org/2000/svg" width="64" height="64" viewBox="0 0 64 64" fill="none">
  <rect x="2" y="2" width="60" height="60" rx="14" fill="#ffffff"/>
  <rect x="2" y="2" width="60" height="60" rx="14" stroke="#1b52c0" stroke-width="2.5"/>
  <path d="M16 20c5-2.4 10-2.4 15 0v22c-5-2.4-10-2.4-15 0V20Z" fill="#1b52c0"/>
  <path d="M48 20c-5-2.4-10-2.4-15 0v22c5-2.4 10-2.4 15 0V20Z" fill="#2f6fe0"/>
  <path d="M32 18l3.2 6.5 7.2 1-5.2 5 1.2 7.1L32 41.3l-6.4 3.3 1.2-7.1-5.2-5 7.2-1L32 18Z" fill="#f5a623"/>
</svg>
