<svg id="Capa_1" enable-background="new 0 0 512 512" height="512" viewBox="0 0 512 512" width="512" xmlns="http://www.w3.org/2000/svg"><g><path d="m512 256c0 46.914-12.619 90.88-34.648 128.689-1.067 1.832-311.038 2.127-411.604.885v-300.866c46.856-52.01 114.736-84.708 190.252-84.708 141.385 0 256 114.615 256 256z" fill="#ffc143"/><path d="m45.17 117.28v267.95c-6.681-.162-10.406-.342-10.522-.54-22.029-37.81-34.648-81.776-34.648-128.69 0-51.125 14.987-98.749 40.806-138.72z" fill="#fa0"/><path d="m73.807 51.218h367.446c2.761 0 5 2.239 5 5v35.902h-365.4c-3.097 0-5.608 2.511-5.608 5.608l-14.836-19.384c-8.496-11.101-.581-27.126 13.398-27.126z" fill="#93d0fd"/><path d="m76.01 94.897c-.487.831-.766 1.798-.766 2.831v320.574c-2.169-2.163-4.3-4.364-6.391-6.604-1.045-1.12-2.081 16.732-3.106 15.594-11.761-13.055-22.198-27.326-31.099-42.603v-328.471c0-2.761 2.239-5 5-5h41.362c-2.762 0-5 2.239-5 5z" fill="#65befc"/><path d="m477.352 87.317v297.372c-9.837 16.884-21.551 32.54-34.855 46.683-.625.665-3.375.097-4.007.755-3.325 3.46-6.747 6.827-10.26 10.097-.557.518 1.005 2.262.444 2.775-45.525 41.615-106.135 67.001-172.674 67.001-48.558 0-93.959-13.52-132.643-37-1.363-.827-2.718-15.318-4.064-16.17-9.338-5.91-18.268-12.407-26.737-19.44v-352.073c0-2.761 2.239-5 5-5h374.795c2.762 0 5.001 2.239 5.001 5z" fill="#e5f2fd"/><path d="m99.915 458.928c-12.328-9.496-23.766-20.09-34.168-31.636v-339.975c0-2.761 2.239-5 5-5h36.478c-2.761 0-5 2.239-5 5v370.466c0 1.189-1.369 1.87-2.31 1.145z" fill="#bde2fd"/><path d="m289.769 345v125c0 2.761-2.239 5-5 5h-161.412c-8.174-4.961-16.048-10.367-23.589-16.184v-113.816c0-2.761 2.239-5 5-5h180c2.762 0 5.001 2.239 5.001 5z" fill="#93d0fd"/><path d="m445.55 377.5c0 4.142-3.358 7.5-7.5 7.5h-115c-4.142 0-7.5-3.358-7.5-7.5s3.358-7.5 7.5-7.5h115c4.142 0 7.5 3.358 7.5 7.5zm-122.5 52.5c-4.142 0-7.5 3.358-7.5 7.5s3.358 7.5 7.5 7.5h105.623c4.76-4.351 9.355-8.88 13.775-13.576-1.236-.896-2.755-1.424-4.398-1.424zm0-75h115c4.142 0 7.5-3.358 7.5-7.5s-3.358-7.5-7.5-7.5h-115c-4.142 0-7.5 3.358-7.5 7.5s3.357 7.5 7.5 7.5zm115 45h-115c-4.142 0-7.5 3.358-7.5 7.5s3.358 7.5 7.5 7.5h115c4.142 0 7.5-3.358 7.5-7.5s-3.358-7.5-7.5-7.5zm-70.667 60h-44.333c-4.142 0-7.5 3.358-7.5 7.5s3.358 7.5 7.5 7.5h44.333c4.142 0 7.5-3.358 7.5-7.5s-3.358-7.5-7.5-7.5z" fill="#93d0fd"/><path d="m435.318 280.5c0 4.142-3.358 7.5-7.5 7.5h-320.55c-4.142 0-7.5-3.358-7.5-7.5s3.358-7.5 7.5-7.5h320.55c4.142 0 7.5 3.358 7.5 7.5zm-88.292 22.5h-239.757c-4.142 0-7.5 3.358-7.5 7.5s3.358 7.5 7.5 7.5h239.757c4.142 0 7.5-3.358 7.5-7.5s-3.358-7.5-7.5-7.5z" fill="#65befc"/><path d="m319.437 168.566c-1.486-4.823 2.12-9.708 7.167-9.708h.001c3.292 0 6.198 2.146 7.167 5.292l4.562 14.807 2.799-14.063c.698-3.509 3.778-6.036 7.355-6.036 4.729 0 8.278 4.325 7.355 8.963l-7.248 36.419c-.063.322-.149.64-.255.951-1.274 3.747-4.79 6.283-8.748 6.309-.059.001-.117-.001-.176.004-3.039.25-6.001-.99-7.449-3.673-.591-1.095-1.026-1.92-1.305-2.823zm92.336 42.934c15.387 0 28.795-10.107 31.188-23.51 1.4-7.841-1.105-17.564-10.943-24.768-1.618-1.185-10.477 10.933-8.993 11.998 3.997 2.867 5.839 6.381 5.169 10.133-.978 5.479-7.388 11.146-16.421 11.146-8.594 0-16.89-3.474-22.221-9.297-2.685-2.933-7.307-3.383-10.384-.864-3.345 2.739-3.682 7.682-.815 10.846 8.126 8.964 20.619 14.316 33.42 14.316zm-208.502 0h33.066c4.106 0 7.688-3.164 7.811-7.269.127-4.247-3.277-7.731-7.497-7.731h-25.88v-24.61l-5.347-4.646c-3.773-3.278-9.653-.598-9.653 4.401v32.355c0 4.142 3.358 7.5 7.5 7.5zm75.212-7.245c.07.357.168.709.289 1.053 1.317 3.71 4.835 6.192 8.768 6.192h.062c3.958-.026 7.473-2.562 8.747-6.309.022-.065.044-.131.064-.197l11.272-36.419c1.494-4.825-2.113-9.717-7.164-9.717h-.001c-3.288 0-6.192 2.141-7.164 5.282l-4.586 14.818-2.781-14.056c-.695-3.513-3.776-6.044-7.357-6.044h-.001c-4.726 0-8.274 4.319-7.357 8.955zm-123.428 2.341c2.305 3.326 6.106 4.753 9.687 3.634 3.677-1.149 6.052-4.652 6.052-8.998l-.338-34.947c-.04-4.114-3.386-7.427-7.5-7.427-4.171 0-7.54 3.402-7.5 7.573l.141 14.552-13.042-18.887c-1.4-2.028-3.708-3.238-6.172-3.238-6.046 0-9.607 6.787-6.171 11.762zm280.776 26.266h-328.562c-4.143 0-7.5 3.358-7.5 7.5s3.357 7.5 7.5 7.5h328.562c4.143 0 7.5-3.358 7.5-7.5s-3.357-7.5-7.5-7.5zm-328.333-21.365c4.105-.123 7.27-3.704 7.27-7.811v-37.328c0-4.142-3.358-7.5-7.5-7.5s-7.5 3.358-7.5 7.5v37.642c.001 4.218 3.483 7.623 7.73 7.497z" fill="#003278"/><path d="m286.637 168.173c.917 4.636-2.631 8.955-7.357 8.955-3.581 0-6.662-2.532-7.357-6.044l-8.955-45.272c-.797-4.029 1.615-8.156 5.619-9.071 4.142-.947 8.216 1.717 9.035 5.854zm-124.089-51.623c-.024 0-.05 0-.074 0-4.143.04-7.468 3.43-7.428 7.572l.441 45.578c.04 4.114 3.386 7.427 7.5 7.427 4.17 0 7.54-3.402 7.5-7.573l-.441-45.578c-.04-4.116-3.39-7.426-7.498-7.426zm275.467 9.977c-.713-.599-17.691-14.598-38.253-8.403-10.098 3.042-17.236 10.961-18.63 20.669-1.299 9.049 2.621 17.752 10.229 22.712.331.216.679.405 1.04.566.459.205 11.396 5.074 23.719 9.619 2.982 1.1 5.459 2.412 7.385 3.885 1.311 1.002 2.906 1.551 4.556 1.551 7.206 0 10.231-9.128 4.502-13.498-3-2.289-6.715-4.338-11.251-6.011-10.227-3.772-19.717-7.89-22.182-8.972-2.42-1.791-3.593-4.64-3.15-7.721.563-3.924 3.595-7.079 8.108-8.438 12.64-3.807 24.099 5.381 24.305 5.547 3.168 2.638 7.88 2.221 10.537-.939 2.665-3.17 2.256-7.901-.915-10.567zm-324.575-6.589c-2.056-2.978-5.98-4.098-9.357-2.531-2.7 1.253-4.314 4.087-4.314 7.063v45.157c0 4.142 3.358 7.5 7.5 7.5 4.142 0 7.5-3.358 7.5-7.5v-21.369l17.7 25.631c1.4 2.028 3.707 3.238 6.171 3.238h.001c6.046 0 9.607-6.787 6.171-11.762zm123.211-2.658h-33.38c-4.142 0-7.5 3.358-7.5 7.5v48.422c0 4.142 3.358 7.5 7.5 7.5s7.5-3.358 7.5-7.5v-1.312h23.105c4.106 0 7.688-3.164 7.811-7.269.127-4.247-3.277-7.731-7.497-7.731h-23.419v-24.61h25.566c4.106 0 7.688-3.164 7.811-7.269.127-4.248-3.277-7.731-7.497-7.731zm84.088 4.562c-1.22-3.958-5.418-6.177-9.376-4.959-2.738.843-4.644 3.111-5.156 5.739l-13.863 44.789c-1.493 4.825 2.113 9.717 7.165 9.717 3.288 0 6.192-2.141 7.165-5.282l6.903-22.301 6.868 22.292c.969 3.146 3.876 5.292 7.167 5.292h.001c5.047 0 8.653-4.885 7.167-9.708zm37.378-5.043c-4.05-.681-7.853 2.214-8.654 6.241l-8.98 45.124c-.923 4.639 2.626 8.964 7.355 8.964 3.578 0 6.657-2.527 7.355-6.036l9.042-45.431c.824-4.138-1.927-8.157-6.118-8.862z" fill="#00429c"/><path d="m185 442.596v-65.574c0-2.761 2.239-5 5-5h65.574c2.761 0 5 2.239 5 5v65.574c0 2.761-2.239 5-5 5h-65.574c-2.761 0-5-2.239-5-5z" fill="#0093fa"/><path d="m201.429 392.804c0 21.668-17.566 39.234-39.234 39.234s-39.234-17.566-39.234-39.234 17.566-39.234 39.234-39.234 39.234 17.566 39.234 39.234z" fill="#ff4343"/><path d="m183.906 388.804 43.711 64.902c1.789 2.657-.114 6.234-3.318 6.234h-87.422c-3.203 0-5.107-3.578-3.318-6.234l43.711-64.902c1.586-2.354 5.051-2.354 6.636 0z" fill="#00429c"/></g></svg>