<?xml version="1.0" encoding="UTF-8"?>
<svg id="Layer_1" xmlns="http://www.w3.org/2000/svg" version="1.1" xmlns:xlink="http://www.w3.org/1999/xlink" viewBox="0 0 28 28">
  <!-- Generator: Adobe Illustrator 29.3.0, SVG Export Plug-In . SVG Version: 2.1.0 Build 146)  -->
  <defs>
    <style>
      .st0 {
        fill: url(#linear-gradient);
      }
    </style>
    <linearGradient id="linear-gradient" x1="4" y1="16" x2="24" y2="16" gradientTransform="translate(0 30) scale(1 -1)" gradientUnits="userSpaceOnUse">
      <stop offset="0" stop-color="#fed51b"/>
      <stop offset=".5" stop-color="#ed683c"/>
      <stop offset="1" stop-color="red"/>
    </linearGradient>
  </defs>
  <path class="st0" d="M14,26c-2.2,0-4-1.8-4-4h-3.6c-1.3,0-2.4-1.1-2.4-2.4s.3-1.3.7-1.7l.9-.9c.3-.3.4-.6.4-1v-4c0-4.1,3.1-7.4,7-7.9v-1.1c0-.6.4-1,1-1s1,.4,1,1v1.1c3.9.5,7,3.9,7,7.9v4c0,.4.1.7.4,1l.9.9c.5.5.7,1.1.7,1.7,0,1.3-1.1,2.4-2.4,2.4h-3.6c0,2.2-1.8,4-4,4ZM12,22c0,1.1.9,2,2,2s2-.9,2-2h-4Z"/>
</svg>