<svg id="Layer_1" enable-background="new 0 0 512 512" viewBox="0 0 512 512" xmlns="http://www.w3.org/2000/svg" xmlns:xlink="http://www.w3.org/1999/xlink"><clipPath id="SVGID_2_"><path id="SVGID_139_" d="m41.3 76.8h429.4c21.3 0 38.6 17.4 38.6 38.6v287.8c0 21.3-17.4 38.6-38.6 38.6h-429.4c-21.3 0-38.6-17.4-38.6-38.6v-287.7c0-21.3 17.3-38.7 38.6-38.7z"/></clipPath><clipPath id="SVGID_4_"><path id="SVGID_141_" d="m58.9 289.1h223.3c-7.1-26.3-6.8-81.7-44.7-81.1-30.4 0-103.6 0-134 0-37.7-.7-37.7 54.8-44.6 81.1z"/></clipPath><clipPath id="SVGID_6_"><path id="SVGID_143_" d="m170.9 158.1c16.2 0 29.4 13.2 29.4 29.4v25.9c0 16.2-13.2 29.4-29.4 29.4-16.2 0-29.4-13.2-29.4-29.4v-25.9c0-16.2 13.2-29.4 29.4-29.4z"/></clipPath><clipPath id="SVGID_8_"><path id="SVGID_145_" d="m167.1 229.6-24.8-23.9c-3.3-3.2-8-3.9-12.1-2-9.3 3.3-19.7 9.6-12.2 20.5 6.2 5.9 25.2 34.5 32.1 32.9 6.6 1.2 12.8-8.1 17.1-11.7 4.5-4.2 4.4-11.8-.1-15.8z"/></clipPath><clipPath id="SVGID_10_"><path id="SVGID_147_" d="m90 88.5c-20.9 5.5-7 57.6 13.9 51.9 20.9-5.5 7-57.6-13.9-51.9z"/></clipPath><clipPath id="SVGID_12_"><path id="SVGID_149_" d="m432.1 196.9c5.7 2.5 12.4 5.8 17.5.3 5.7-5.9 14.2-16.4 22.7-8 5.7 6.8 23.6 17.8 13.3 28 0 0-8 8-8 8-7.1 6.8.2 24.5 10.1 24.3h11.4c14.5 0 9.6 20.3 10.4 29.2-.2 12-13.3 10.5-21.7 10.4-9.8-.2-17.2 17.4-10.1 24.3 5.9 5.7 16.4 14.2 8 22.7-6.8 5.7-17.8 23.6-28 13.3l-8-8c-6.8-7.1-24.5.2-24.3 10.1.1 8.4 1.7 21.5-10.4 21.7-9-.8-29.1 4.2-29.2-10.4-.2-6.9 1.9-18.5-6.8-21.1-5.7-2.5-12.4-5.8-17.5-.3-5.7 5.9-14.2 16.4-22.7 8l-13.3-13.4c-8.3-8.6 2-16.9 8-22.7 5.5-5.1 2.1-11.8-.3-17.5-2.5-8.7-14.3-6.6-21.1-6.8-14.5 0-9.6-20.3-10.4-29.2.2-12 13.3-10.5 21.7-10.4 7.5.3 9.9-6.8 12.1-12.6 4.4-8-5.4-14.8-10.1-19.7-10.2-10.1 7.6-21.2 13.3-28 4-4 10.6-4 14.7 0l8 8c6.8 7.1 24.5-.2 24.3-10.1-.1-8.4-1.7-21.5 10.4-21.7 9 .8 29.1-4.2 29.2 10.4.2 7.1-1.9 18.6 6.8 21.2zm-26.6 28.9c-57.2 1-57.2 86 0 87 57.2-1 57.2-86 0-87z"/></clipPath><clipPath id="SVGID_14_"><path id="SVGID_151_" d="m173.9 229.6 24.8-23.9c3.3-3.2 8-3.9 12.1-2 9.3 3.3 19.7 9.6 12.2 20.5-6.2 5.9-25.2 34.5-32.1 32.9-6.6 1.2-12.8-8.1-17.1-11.7-4.4-4.2-4.3-11.8.1-15.8z"/></clipPath><clipPath id="SVGID_16_"><path id="SVGID_153_" d="m251.9 88.5c20.9 5.5 7 57.6-13.9 51.9-21-5.5-7-57.6 13.9-51.9z"/></clipPath><clipPath id="SVGID_18_"><path id="SVGID_155_" d="m320.3 441.9h-128.6l-18.2 65.3h165z"/></clipPath><g><g><path clip-rule="evenodd" d="m41.3 76.8h429.4c21.3 0 38.6 17.4 38.6 38.6v287.8c0 21.3-17.4 38.6-38.6 38.6h-429.4c-21.3 0-38.6-17.4-38.6-38.6v-287.7c0-21.3 17.3-38.7 38.6-38.7z" fill="#cadcfe" fill-rule="evenodd"/></g><g><g clip-path="url(#SVGID_2_)"><g><path clip-rule="evenodd" d="m23 20.3h295.1c11.2 0 20.3 9.2 20.3 20.3v247.9c0 11.2-9.2 20.3-20.3 20.3h-295.1c-11.2 0-20.3-9.1-20.3-20.3v-247.8c0-11.2 9.1-20.4 20.3-20.4z" fill="#9ebbfb" fill-rule="evenodd"/></g></g></g><g><path clip-rule="evenodd" d="m2.7 403.3h506.7c0 21.3-17.4 38.6-38.6 38.6h-429.5c-21.3 0-38.6-17.4-38.6-38.6z" fill="#01a1ff" fill-rule="evenodd"/></g><g><path clip-rule="evenodd" d="m62.3 328.3c-5.5.1-5.5-8.5 0-8.4h67.3c5.5-.1 5.5 8.5 0 8.4z" fill="#465a65" fill-rule="evenodd"/></g><g><path clip-rule="evenodd" d="m160.1 328.3c-5.5.1-5.5-8.5 0-8.4h51.5c5.5-.1 5.5 8.5 0 8.4z" fill="#465a65" fill-rule="evenodd"/></g><g><path clip-rule="evenodd" d="m182.3 356.3c5.5-.1 5.5 8.5 0 8.5h-67.3c-5.5.1-5.5-8.5 0-8.5z" fill="#465a65" fill-rule="evenodd"/></g><g><path clip-rule="evenodd" d="m88 356.3c5.5-.1 5.5 8.5 0 8.5h-25.7c-2.3 0-4.2-1.9-4.2-4.2s1.9-4.2 4.2-4.2h25.7z" fill="#465a65" fill-rule="evenodd"/></g><g><path clip-rule="evenodd" d="m261.8 356.3c5.5-.1 5.5 8.5 0 8.5h-45.4c-2.3 0-4.2-1.9-4.2-4.2s1.9-4.2 4.2-4.2h45.4z" fill="#465a65" fill-rule="evenodd"/></g><g><path clip-rule="evenodd" d="m234.3 328.3c-5.5.1-5.5-8.5 0-8.4h27.5c5.5-.1 5.5 8.5 0 8.4z" fill="#465a65" fill-rule="evenodd"/></g><g><path clip-rule="evenodd" d="m2.7 107.1c-2.8 0-2.7 4.3 0 4.2 1.2 0 3.4.3 3.9-1.1 1.3-2.8-1.9-3.5-3.9-3.1zm506.6 4.2c2.8 0 2.7-4.3 0-4.2-1.2 0-3.3-.2-3.9 1.1-1.2 2.7 1.9 3.4 3.9 3.1zm-23.1 0c2.8 0 2.7-4.3 0-4.2h-4.2c-2.8 0-2.7 4.3 0 4.2zm-25.3 0c2.8 0 2.7-4.3 0-4.2h-4.2c-2.8 0-2.7 4.3 0 4.2zm-25.4 0c2.8 0 2.7-4.3 0-4.2h-4.2c-2.8 0-2.7 4.3 0 4.2zm-25.3 0c2.8 0 2.7-4.3 0-4.2h-4.2c-2.8 0-2.7 4.3 0 4.2zm-25.4 0c2.8 0 2.7-4.3 0-4.2h-4.2c-2.8 0-2.7 4.3 0 4.2zm-25.3 0c2.8 0 2.7-4.3 0-4.2h-4.2c-2.8 0-2.7 4.3 0 4.2zm-25.3 0c2.8 0 2.7-4.3 0-4.2h-4.2c-2.8 0-2.7 4.3 0 4.2zm-25.4 0c2.8 0 2.7-4.3 0-4.2h-4.2c-2.8 0-2.7 4.3 0 4.2zm-25.3 0c2.8 0 2.7-4.3 0-4.2h-4.2c-2.8 0-2.7 4.3 0 4.2zm-25.4 0c2.8 0 2.7-4.3 0-4.2h-4.2c-2.8 0-2.7 4.3 0 4.2zm-25.3 0c2.8 0 2.7-4.3 0-4.2h-4.2c-2.8 0-2.7 4.3 0 4.2zm-25.3 0c2.8 0 2.7-4.3 0-4.2h-4.2c-2.8 0-2.7 4.3 0 4.2zm-25.4 0c2.8 0 2.7-4.3 0-4.2h-4.2c-2.8 0-2.7 4.3 0 4.2zm-25.3 0c2.8 0 2.7-4.3 0-4.2h-4.2c-2.8 0-2.7 4.3 0 4.2zm-25.3 0c2.8 0 2.7-4.3 0-4.2h-4.2c-2.8 0-2.7 4.3 0 4.2zm-25.4 0c2.8 0 2.7-4.3 0-4.2h-4.2c-2.8 0-2.7 4.3 0 4.2zm-25.3 0c2.8 0 2.7-4.3 0-4.2h-4.2c-2.8 0-2.7 4.3 0 4.2zm-25.4 0c2.8 0 2.7-4.3 0-4.2h-4.2c-2.8 0-2.7 4.3 0 4.2zm-25.3 0c2.8 0 2.7-4.3 0-4.2h-4.2c-2.8 0-2.7 4.3 0 4.2z" fill="#01a1ff" fill-rule="evenodd"/></g><g><path clip-rule="evenodd" d="m23 .6h295.1c11.2 0 20.3 9.1 20.3 20.3v247.9c0 11.2-9.2 20.3-20.3 20.3h-295.1c-11.2 0-20.3-9.1-20.3-20.3v-247.9c0-11.2 9.1-20.3 20.3-20.3z" fill="#daeefe" fill-rule="evenodd"/></g><g><path clip-rule="evenodd" d="m338.4 53.5h-335.7c1.4-18.1-7.7-51.8 20.3-52.9h295.1c11.2 0 20.3 9.1 20.3 20.3z" fill="#ff005c" fill-rule="evenodd"/></g><g><path clip-rule="evenodd" d="m58.9 289.1h223.3c-7.1-26.3-6.8-81.7-44.7-81.1-30.4 0-103.6 0-134 0-37.7-.7-37.7 54.8-44.6 81.1z" fill="#fd8644" fill-rule="evenodd"/></g><g><g clip-path="url(#SVGID_4_)"><g><path clip-rule="evenodd" d="m58.9 267.3h223.3c-7.1-26.3-6.8-81.7-44.7-81.1-30.4 0-103.6 0-134 0-37.7-.6-37.7 54.9-44.6 81.1z" fill="#ffb43f" fill-rule="evenodd"/></g></g></g><g><path clip-rule="evenodd" d="m170.9 158.1c16.2 0 29.4 13.2 29.4 29.4v25.9c0 16.2-13.2 29.4-29.4 29.4-16.2 0-29.4-13.2-29.4-29.4v-25.9c0-16.2 13.2-29.4 29.4-29.4z" fill="#ffa2bd" fill-rule="evenodd"/></g><g><g clip-path="url(#SVGID_6_)"><g><path clip-rule="evenodd" d="m170.9 25.2c-38.8 0-70.5 31.7-70.5 70.5v37.5c2.6 92.9 138.5 92.9 141 0v-37.5c0-38.8-31.7-70.5-70.5-70.5z" fill="#f37ea2" fill-rule="evenodd"/></g></g></g><g><path clip-rule="evenodd" d="m167.1 229.6-24.8-23.9c-3.3-3.2-8-3.9-12.1-2-9.3 3.3-19.7 9.6-12.2 20.5 6.2 5.9 25.2 34.5 32.1 32.9 6.6 1.2 12.8-8.1 17.1-11.7 4.5-4.2 4.4-11.8-.1-15.8z" fill="#c0e1fe" fill-rule="evenodd"/></g><g><g clip-path="url(#SVGID_8_)"><g><path clip-rule="evenodd" d="m159.7 237.9-34.7-33.4c-4.6-4.4-11.1-5.5-16.9-2.8l-11.4 5.2c-8.9 3.7-12.1 16.2-5.7 23.5l33.8 40.2c2.9 3.5 6.6 5.5 11.1 5.8 9.3 1.6 17.9-11.3 23.9-16.4 6.3-5.8 6.1-16.4-.1-22.1z" fill="#daeefe" fill-rule="evenodd"/></g></g></g><g><path clip-rule="evenodd" d="m90 88.5c-20.9 5.5-7 57.6 13.9 51.9 20.9-5.5 7-57.6-13.9-51.9z" fill="#ffa2bd" fill-rule="evenodd"/></g><g><g clip-path="url(#SVGID_10_)"><g><path clip-rule="evenodd" d="m163.3 36.3c-92.9-1.6-96.5 134.5-3.6 137.4 92.9 1.7 96.5-134.4 3.6-137.4z" fill="#f37ea2" fill-rule="evenodd"/></g></g></g><g><path clip-rule="evenodd" d="m432.1 196.9c5.7 2.5 12.4 5.8 17.5.3 5.7-5.9 14.2-16.4 22.7-8 5.7 6.8 23.6 17.8 13.3 28 0 0-8 8-8 8-7.1 6.8.2 24.5 10.1 24.3h11.4c14.5 0 9.6 20.3 10.4 29.2-.2 12-13.3 10.5-21.7 10.4-9.8-.2-17.2 17.4-10.1 24.3 5.9 5.7 16.4 14.2 8 22.7-6.8 5.7-17.8 23.6-28 13.3l-8-8c-6.8-7.1-24.5.2-24.3 10.1.1 8.4 1.7 21.5-10.4 21.7-9-.8-29.1 4.2-29.2-10.4-.2-6.9 1.9-18.5-6.8-21.1-5.7-2.5-12.4-5.8-17.5-.3-5.7 5.9-14.2 16.4-22.7 8l-13.3-13.4c-8.3-8.6 2-16.9 8-22.7 5.5-5.1 2.1-11.8-.3-17.5-2.5-8.7-14.3-6.6-21.1-6.8-14.5 0-9.6-20.3-10.4-29.2.2-12 13.3-10.5 21.7-10.4 7.5.3 9.9-6.8 12.1-12.6 4.4-8-5.4-14.8-10.1-19.7-10.2-10.1 7.6-21.2 13.3-28 4-4 10.6-4 14.7 0l8 8c6.8 7.1 24.5-.2 24.3-10.1-.1-8.4-1.7-21.5 10.4-21.7 9 .8 29.1-4.2 29.2 10.4.2 7.1-1.9 18.6 6.8 21.2zm-26.6 28.9c-57.2 1-57.2 86 0 87 57.2-1 57.2-86 0-87z" fill="#54b76a" fill-rule="evenodd"/></g><g><g clip-path="url(#SVGID_12_)"><g><path clip-rule="evenodd" d="m415.8 196.9c5.7 2.5 12.4 5.8 17.5.3 5.7-5.9 14.2-16.4 22.7-8 5.7 6.8 23.6 17.8 13.3 28 0 0-8 8-8 8-7.1 6.8.2 24.5 10.1 24.3h11.4c14.5 0 9.6 20.3 10.4 29.2-.2 12-13.3 10.5-21.7 10.4-9.8-.2-17.2 17.4-10.1 24.3 5.9 5.7 16.4 14.2 8 22.7-6.8 5.7-17.8 23.6-28 13.3l-8-8c-6.8-7.1-24.5.2-24.3 10.1.1 8.4 1.7 21.5-10.4 21.7-9-.8-29.1 4.2-29.2-10.4-.2-6.9 1.9-18.5-6.8-21.1-5.7-2.5-12.4-5.8-17.5-.3-5.7 5.9-14.2 16.4-22.7 8l-13.3-13.4c-8.3-8.6 2-16.9 8-22.7 5.5-5.1 2.1-11.8-.3-17.5-2.5-8.7-14.3-6.6-21.1-6.8-14.5 0-9.6-20.3-10.4-29.2.2-12 13.3-10.5 21.7-10.4 7.5.3 9.9-6.8 12.1-12.6 4.4-8-5.4-14.8-10.1-19.7-10.2-10.1 7.6-21.2 13.3-28 4-4 10.6-4 14.7 0l8 8c6.8 7.1 24.5-.2 24.3-10.1-.1-8.4-1.7-21.5 10.4-21.7 9 .8 29.1-4.2 29.2 10.4.1 7.1-1.9 18.6 6.8 21.2zm-26.6 28.9c-57.2 1-57.2 86 0 87 57.2-1 57.2-86 0-87z" fill="#59d96c" fill-rule="evenodd"/></g></g></g><g><path clip-rule="evenodd" d="m173.9 229.6 24.8-23.9c3.3-3.2 8-3.9 12.1-2 9.3 3.3 19.7 9.6 12.2 20.5-6.2 5.9-25.2 34.5-32.1 32.9-6.6 1.2-12.8-8.1-17.1-11.7-4.4-4.2-4.3-11.8.1-15.8z" fill="#c0e1fe" fill-rule="evenodd"/></g><g><g clip-path="url(#SVGID_14_)"><g><path clip-rule="evenodd" d="m181.4 237.9 34.6-33.4c4.6-4.4 11.1-5.5 16.9-2.8l11.4 5.2c8.9 3.7 12.1 16.2 5.7 23.5l-33.8 40.2c-2.9 3.5-6.6 5.5-11.1 5.8-9.3 1.6-17.9-11.3-24-16.4-6.1-5.8-6-16.4.3-22.1z" fill="#daeefe" fill-rule="evenodd"/></g></g></g><g><path clip-rule="evenodd" d="m251.9 88.5c20.9 5.5 7 57.6-13.9 51.9-21-5.5-7-57.6 13.9-51.9z" fill="#ffa2bd" fill-rule="evenodd"/></g><g><g clip-path="url(#SVGID_16_)"><g><path clip-rule="evenodd" d="m178.5 36.3c92.9-1.6 96.4 134.5 3.6 137.4-92.9 1.7-96.4-134.4-3.6-137.4z" fill="#f37ea2" fill-rule="evenodd"/></g></g></g><g><path clip-rule="evenodd" d="m170.9 15.8c-38.8 0-70.5 31.7-70.5 70.5v37.5c2.6 92.9 138.5 92.9 141 0v-37.5c0-38.8-31.7-70.5-70.5-70.5z" fill="#ffcebf" fill-rule="evenodd"/></g><g><path clip-rule="evenodd" d="m175.1.7c-58.7-1.9-45.4 22.9-59.2 33.4-30.2 4.9-21 31.9-16 54 6.4-.9 19.6-10.9 27.3-17 3.4-2.8 8.1-3 11.8-.6 13.8 8.8 27.1 12.2 36.6 13.4 6.9.9 13.3-2.9 15.9-9.3 8-19.4 44.8 10.3 51.1 13.6 15.7-31.8-6-85.5-67.5-87.5z" fill="#465a65" fill-rule="evenodd"/></g><g><path clip-rule="evenodd" d="m320.3 441.9h-128.6l-18.2 65.3h165z" fill="#ff005c" fill-rule="evenodd"/></g><g><g clip-path="url(#SVGID_18_)"><g><path clip-rule="evenodd" d="m158.1 382.4h197.9v80.6h-197.9z" fill="#e91861" fill-rule="evenodd"/></g></g></g><g><path clip-rule="evenodd" d="m116.7 511.4c-5.4.1-5.5-8.5 0-8.5h278.1c5.4-.1 5.5 8.5 0 8.5z" fill="#01a1ff" fill-rule="evenodd"/></g></g></svg>