<?xml version="1.0" encoding="UTF-8"?>
<svg id="Layer_1" xmlns="http://www.w3.org/2000/svg" version="1.1" viewBox="0 0 512 512">
  <!-- Generator: Adobe Illustrator 29.3.0, SVG Export Plug-In . SVG Version: 2.1.0 Build 146)  -->
  <defs>
    <style>
      .st0 {
        fill: #88a6af;
      }
    </style>
  </defs>
  <g>
    <path class="st0" d="M428.5,232.9c-1.2,0-2.4-.6-3.1-1.6-1.2-1.7-.8-4.1.9-5.4,3.9-2.7,5.9-4.4,6-4.4,1.7-1.3,4.1-1,5.4.6,1.3,1.7,1,4.1-.6,5.4,0,0-2.2,1.7-6.3,4.7-.7.5-1.5.7-2.2.7Z"/>
    <path class="st0" d="M425.3,231.2c-1.2-1.7-.8-4.1,1-5.3,1.7-1.2,4.1-.8,5.3.9s.8,4.1-.9,5.3c-.7.5-1.4.7-2.2.7-1.2,0-2.4-.6-3.2-1.6Z"/>
    <path class="st0" d="M234,298.2c-2,0-3.8-1.7-3.8-3.7,0-1,.4-2,1.1-2.8.7-.7,1.7-1.1,2.7-1.2,4.7-.1,9.7-.3,14.6-.7,2.2-.2,3.9,1.5,4.1,3.6v.2c0,2-1.5,3.8-3.6,3.9-5,.4-10,.6-15,.7h0ZM219.1,298.2h0c-5.1-.2-10.2-.4-15.1-.8-2-.2-3.6-1.9-3.6-3.9v-.2c.2-2.1,2.1-3.6,4.2-3.5,5,.4,9.9.6,14.6.8,2,0,3.7,1.7,3.7,3.7v.2c0,2.1-1.8,3.8-3.8,3.8h0ZM263.6,296.2c-2,0-3.6-1.5-3.8-3.4v-.4c0-2,1.4-3.6,3.4-3.9,5-.6,9.9-1.3,14.5-2,2.2-.3,4.1,1.1,4.4,3.2,0,.2,0,.4,0,.6,0,1.9-1.3,3.5-3.2,3.8-5.2.9-10.1,1.5-14.8,2.1-.2,0-.3,0-.5,0ZM189.5,296c-.1,0-.4,0-.5,0-5-.6-10-1.4-14.8-2.3-1.9-.3-3.2-2-3.2-3.8,0-.2,0-.4,0-.6.4-2,2.4-3.5,4.5-3.1,4.8.9,9.6,1.6,14.5,2.2,2,.3,3.4,1.9,3.4,3.9,0,.1,0,.3,0,.4-.3,1.9-1.9,3.4-3.8,3.4h0ZM293,291.4c-1.8,0-3.4-1.3-3.8-3,0-.3,0-.6,0-.8,0-1.8,1.3-3.4,3-3.7,4.7-1,9.5-2.1,14.3-3.3,2-.5,4.2.8,4.7,2.8.1.3.1.7.1,1,0,1.7-1.2,3.3-2.9,3.7-4.6,1.2-9.6,2.4-14.6,3.4-.3,0-.5,0-.8,0h0ZM160.3,290.8c-.3,0-.6,0-.8-.1-4.8-1.1-9.7-2.4-14.6-3.7-1.7-.5-2.9-2-2.8-3.8,0-.3,0-.6.1-.9.6-2,2.7-3.2,4.8-2.7,4.7,1.3,9.4,2.5,14.2,3.6,1.7.4,3,1.9,3,3.7,0,.3,0,.6-.1,1-.4,1.7-2,3-3.7,3ZM321.8,284.1h0c-1.7,0-3.2-1.1-3.7-2.7-.1-.4-.2-.8-.2-1.1,0-1.7,1.1-3.2,2.7-3.6,4.5-1.3,8.9-2.8,13.7-4.4h.3c2-.8,4.2.3,4.9,2.3.2.5.3.9.2,1.3,0,1.6-1.1,3.1-2.6,3.6-4.6,1.6-9.4,3.1-14.3,4.6-.4.1-.7.2-1.1.2h0ZM131.7,282.8c-.4,0-.8-.1-1.2-.2-4.8-1.6-9.5-3.3-14.1-5.1-1.5-.6-2.5-2.1-2.5-3.7s.1-.9.3-1.3c.8-1.9,3.1-2.9,5-2.2,4.7,1.8,9.3,3.5,13.8,5,1.6.6,2.7,2,2.6,3.7,0,.4,0,.8-.2,1.1-.5,1.6-2,2.7-3.6,2.7h0ZM349.8,274.4c-1.6,0-3-1-3.6-2.5-.2-.4-.3-.8-.3-1.3,0-1.6,1-3.1,2.5-3.7,4.6-1.7,9.1-3.6,13.6-5.6h0c1.8-.8,4.2.2,5,2s.3,1,.4,1.5c0,1.6-.9,3-2.4,3.6-4.4,1.9-9.1,3.8-13.9,5.7-.5.2-.9.3-1.4.3h0ZM104,272c-.5,0-1-.1-1.5-.3-4.5-2-9-4.1-13.3-6.3,0,0-.2,0-.3-.1l-.4-.2h0c-1.1-.8-1.7-2-1.7-3.3s.2-1.1.4-1.6c.9-1.8,3.3-2.7,5.2-1.7,4.1,2,8.4,4.1,12.9,6.1l.4.2c1.4.6,2.3,2,2.2,3.6,0,.5-.1,1-.3,1.5-.6,1.4-2,2.3-3.5,2.3ZM377.1,262.7c-1.5,0-2.8-.9-3.5-2.2-.3-.5-.4-1.1-.4-1.7,0-1.4.8-2.8,2.2-3.4,4.4-2,8.8-4.3,13.2-6.6,1.8-1,4.2-.2,5.2,1.6.3.6.5,1.2.5,1.8,0,1.4-.8,2.7-2,3.4-4.2,2.2-8.7,4.5-13.4,6.7-.5.3-1.1.4-1.6.4h0ZM77.4,258.7c-.6,0-1.3-.2-1.8-.5,0,0-.2-.1-.2-.1-1.7-1.1-2.3-3.4-1.3-5.2.9-1.6,3-2.4,4.8-1.7.2,0,.3.2.5.2,1.2.7,2,2,1.9,3.4,0,.6-.2,1.3-.5,1.8-.7,1.2-2,1.9-3.4,1.9ZM403.4,248.8c-1.3,0-2.6-.7-3.3-1.9-.3-.6-.5-1.2-.5-1.8,0-1.4.7-2.7,1.9-3.4,4.3-2.5,8.6-5,12.6-7.6,1.7-1.1,4.2-.6,5.3,1.2.6.9.7,1.9.5,2.9-.2,1-.8,1.9-1.7,2.4-4,2.6-8.3,5.2-12.9,7.8-.6.4-1.2.5-1.9.5h0Z"/>
    <path class="st0" d="M77.4,258.7c-.6,0-1.3-.2-1.9-.5-2.2-1.2-4.5-2.5-6.7-3.8-1.8-1.1-2.4-3.4-1.4-5.3,1.1-1.8,3.4-2.4,5.3-1.4,2.2,1.3,4.4,2.5,6.6,3.8,1.9,1,2.5,3.4,1.5,5.2-.7,1.3-2,2-3.4,2Z"/>
  </g>
  <path class="st0" d="M429.2,262.6c-.4,0-.7,0-1.1-.2-2-.6-3.2-2.7-2.6-4.8l9.5-32.5-32.7-3.9c-2.1-.3-3.6-2.2-3.4-4.3s2.1-3.6,4.3-3.4l37.2,4.4c1.1.1,2.1.8,2.7,1.7.6.9.8,2.1.5,3.2l-10.8,36.8c-.5,1.7-2,2.8-3.7,2.8h0Z"/>
</svg>