<svg id="Layer_1" enable-background="new 0 0 512 512" viewBox="0 0 512 512" xmlns="http://www.w3.org/2000/svg"><g><path d="m216.68 57.4c0-4.56 3.71-8.25 8.25-8.25 4.56 0 8.28 3.69 8.28 8.25v45.95c0 4.56-3.71 8.25-8.28 8.25-4.54 0-8.25-3.69-8.25-8.25z" fill="#ffd400"/><g clip-rule="evenodd" fill-rule="evenodd"><path d="m320.82 399.15 82.43-44.99c14.34-7.82 19.67-25.96 11.88-40.34-7.8-14.34-25.91-19.7-40.22-11.91l-89.32 48.76z" fill="#fbc894"/><path d="m307.39 452.7 172.52-94.14c14.34-7.82 19.67-25.97 11.88-40.34-7.8-14.34-25.88-19.7-40.22-11.91l-89.09 48.61c-1.42-11.08-9.04-20.98-20.32-24.6-34.02-10.97-68-21.97-102.02-32.94-27.21-8.79-53.89-6.29-79.03 7.43l-104.67 57.09 60.21 110.78 39-21.29c18.2-9.92 37.5-11.74 57.23-5.39l37.28 12.05c19.73 6.38 39.03 4.57 57.23-5.35z" fill="#fbbd80"/><path d="m17.66 357.34 86.63 150.8c2.13 3.68 6.89 4.96 10.57 2.83l38.49-22.22c3.71-2.15 4.99-6.92 2.86-10.6l-86.62-150.77c-2.13-3.71-6.89-4.99-10.57-2.86l-38.52 22.25c-3.69 2.12-4.97 6.88-2.84 10.57z" fill="#0593fc"/><path d="m377.32 346.82c2.21 8.25 2.15 17.21-.62 25.88-7.74 24.09-33.68 37.42-57.69 29.65l-76.03-24.55c-3.03-.96-5.1-3.49-5.5-6.63-.37-3.17 1.02-6.09 3.71-7.8l.23-.14c2.07-1.28 4.37-1.56 6.66-.82l75.88 24.52c15.51 4.99 32.31-3.63 37.3-19.19 1.36-4.25 1.73-8.62 1.19-12.81z" fill="#e2aa73"/><path d="m196.87 345.89c13.49 4.37 27.01 8.73 40.51 13.07 28.86 9.33 57.74 18.65 86.6 27.98 15.51 4.99 32.31-3.63 37.3-19.19 5.02-15.56-3.6-32.4-19.13-37.42l-79.17-25.57z" fill="#fbbd80"/><path d="m17.66 357.37 86.63 150.75c2.13 3.71 6.89 4.99 10.57 2.86l10.89-6.29c-3.69 2.13-8.45.85-10.57-2.83l-86.64-150.79c-2.1-3.71-.82-8.48 2.86-10.6l27.64-15.96h-.03l-38.52 22.25c-3.68 2.13-4.96 6.89-2.83 10.61z" fill="#0584e3"/><path d="m220.11 47.11 114.21-46.63c1.59-.65 3.2-.65 4.79 0l114.21 46.63c2.44.99 3.94 3.26 3.94 5.9s-1.5 4.88-3.94 5.87l-114.21 46.63c-1.59.65-3.2.65-4.79 0l-114.21-46.63c-2.44-.99-3.97-3.23-3.97-5.87s1.53-4.9 3.97-5.9z" fill="#2f5274"/><path d="m268.78 135.13h135.86v-53.66c0-1.76-.65-3.29-1.9-4.54-17.01-16.7-40.31-27.01-66.05-27.01-25.71 0-49.01 10.32-66.02 27.01-1.25 1.25-1.9 2.78-1.9 4.54v53.66z" fill="#0593fc"/><path d="m336.7 99.9c52.04 0 94.22 42.18 94.22 94.2s-42.18 94.2-94.22 94.2c-52.02 0-94.2-42.18-94.2-94.2s42.18-94.2 94.2-94.2z" fill="#ffd400"/></g><path d="m344.98 247.35c0 4.56-3.71 8.25-8.28 8.25-4.54 0-8.25-3.69-8.25-8.25v-8.56c-2.69-.45-5.27-1.33-7.65-2.52-3.71-1.9-6.94-4.65-9.44-7.97-2.69-3.66-1.93-8.82 1.73-11.51 3.63-2.72 8.79-1.96 11.51 1.7.94 1.28 2.18 2.35 3.63 3.06 1.36.68 2.89 1.08 4.56 1.08h4.25c2.78 0 5.3-1.13 7.14-2.98 1.84-1.84 3-4.39 3-7.17s-1.16-5.3-3-7.14-4.37-3-7.14-3h-.65-1.47c-.65 0-1.25-.06-1.84-.2-6.01-.77-11.42-3.54-15.53-7.63-4.82-4.82-7.82-11.48-7.82-18.82s3-14 7.82-18.82c3.03-3.03 6.75-5.33 10.91-6.63v-9.41c0-4.56 3.69-8.25 8.25-8.25s8.25 3.69 8.25 8.25v8.56c2.72.45 5.27 1.3 7.65 2.52 3.74 1.9 6.97 4.65 9.44 7.97 2.72 3.66 1.96 8.82-1.7 11.51-3.66 2.72-8.82 1.96-11.51-1.7-.96-1.28-2.21-2.35-3.63-3.06-1.36-.68-2.89-1.08-4.56-1.08h-4.25c-2.78 0-5.33 1.13-7.17 2.98-1.84 1.84-2.98 4.39-2.98 7.17s1.13 5.3 2.98 7.14c1.84 1.84 4.39 3 7.17 3h.65 1.47c.62 0 1.25.06 1.84.2 6.01.77 11.42 3.52 15.51 7.63 4.85 4.82 7.82 11.48 7.82 18.82s-2.98 14-7.82 18.82c-3 3.03-6.75 5.33-10.89 6.63z" fill="#fea832"/><path clip-rule="evenodd" d="m224.93 97.51c7.65 0 13.89 6.24 13.89 13.89v17.49h-27.75v-17.49c0-7.65 6.23-13.89 13.86-13.89z" fill="#fea832" fill-rule="evenodd"/><path clip-rule="evenodd" d="m336.7 99.9c2.44 0 4.85.08 7.23.26-48.64 3.69-86.97 44.33-86.97 93.94s38.32 90.23 86.97 93.94c-2.38.17-4.79.25-7.23.25-52.02 0-94.2-42.18-94.2-94.2s42.18-94.19 94.2-94.19z" fill="#e6bf00" fill-rule="evenodd"/><path clip-rule="evenodd" d="m279.35 119.37v-37.9c0-1.76.65-3.29 1.9-4.54 15.82-15.53 37.14-25.54 60.75-26.87-1.76-.08-3.51-.14-5.3-.14-25.71 0-49.01 10.32-66.02 27.01-1.25 1.25-1.9 2.78-1.9 4.54v47.37c3.29-3.43 6.8-6.58 10.57-9.47z" fill="#0584e3" fill-rule="evenodd"/><path clip-rule="evenodd" d="m220.11 47.11 114.21-46.63c1.59-.65 3.2-.65 4.79 0l2.89 1.19-111.32 45.44c-2.44.99-3.97 3.26-3.97 5.9s1.53 4.88 3.97 5.87l41.27 16.84c-.43.43-.85.82-1.28 1.22-.62.62-1.08 1.28-1.39 2.01l-49.18-20.07c-2.44-.99-3.97-3.23-3.97-5.87s1.54-4.9 3.98-5.9z" fill="#2a4a68" fill-rule="evenodd"/></g></svg>