<svg id="Layer_1" viewBox="0 0 512 512" xmlns="http://www.w3.org/2000/svg" data-name="Layer 1"><path d="m89.467 16h272.868l71.265 71.265v405.735c0 1.652-1.348 3-3 3h-341.133c-1.652 0-3-1.348-3-3v-474c0-1.652 1.348-3 3-3z" fill="#e6e6e6" fill-rule="evenodd"/><path d="m365.334 87.265h68.265l-71.265-71.265v68.265c0 1.652 1.348 3 3 3z" fill="#b3b3b3" fill-rule="evenodd"/><g><path d="m263.935 243.044h283.92v44.165h-283.92z" fill="#b06328" transform="matrix(.5 -.866 .866 .5 -26.659 484.078)"/><path d="m267.946 249.989h283.92v34.904h-283.92z" fill="#c97629" transform="matrix(.5 -.866 .866 .5 -26.659 488.709)"/></g><g><path d="m444.379 138.865h43.33v44.165h-43.33z" fill="#9e5924" transform="matrix(.5 -.866 .866 .5 93.637 484.079)"/><path d="m448.389 145.811h43.33v34.904h-43.33z" fill="#b56a25" transform="matrix(.5 -.866 .866 .5 93.636 488.709)"/></g><g fill-rule="evenodd"><path d="m312.139 433.121 17.905-14.535 23.995-19.477-19.124-11.041-19.124-11.042-4.87 30.519-3.635 22.774c-.2 1.252.364 2.437 1.462 3.071s2.406.53 3.391-.269z" fill="#9e5924"/><path d="m316.113 429.895 13.932-11.309 23.994-19.477-11.103-6.411-8.02-4.631-11.104-6.41-4.871 30.518z" fill="#b06328"/><path d="m306.05 432.063c3.314 0 6 2.686 6 6s-2.686 6-6 6h-82.916c-3.314 0-6-2.686-6-6s2.686-6 6-6zm88.084 30.636c3.314 0 6 2.686 6 6s-2.686 6-6 6h-273.093c-3.314 0-6-2.686-6-6s2.686-6 6-6h273.094z" fill="#666"/><g><path d="m156.145 165.891 109.739 190.073c2.986 5.171 2.986 11.091 0 16.263-2.986 5.171-8.113 8.131-14.084 8.131h-219.478c-5.971 0-11.098-2.96-14.084-8.131-2.985-5.172-2.985-11.091 0-16.263l109.739-190.073c2.986-5.171 8.112-8.131 14.083-8.131s11.098 2.96 14.083 8.131z" fill="#cd212d"/><path d="m156.145 165.891 109.739 190.073c2.986 5.171 2.986 11.091 0 16.263-2.986 5.171-8.113 8.131-14.084 8.131h-204.29c-5.971 0-11.098-2.96-14.084-8.131-2.985-5.172-2.985-11.091 0-16.263l109.739-190.073c1.609-2.787 3.84-4.931 6.49-6.316 2.65 1.385 4.881 3.529 6.49 6.316z" fill="#ee2b39"/><g fill="#fff"><path d="m133.491 315.35-8.791-63.42c-6.475-45.732 41.416-47.612 34.675 0l-8.791 63.42c-1.852 9.213-16.095 8.853-17.093 0z"/><path d="m142.062 359.798c6.686 0 12.139-5.453 12.139-12.139s-5.453-12.139-12.139-12.139-12.14 5.453-12.14 12.139 5.453 12.139 12.14 12.139z"/></g></g><path d="m290.062 329.8c-3.314 0-6-2.686-6-6s2.686-6 6-6h27c3.314 0 6 2.686 6 6s-2.686 6-6 6zm-169.021-265.2c-3.314 0-6-2.686-6-6s2.686-6 6-6h208.892c3.314 0 6 2.686 6 6s-2.686 6-6 6zm0 33.15c-3.314 0-6-2.686-6-6s2.686-6 6-6h208.892c3.314 0 6 2.686 6 6s-2.686 6-6 6zm0 33.15c-3.314 0-6-2.686-6-6s2.686-6 6-6h208.892c3.314 0 6 2.686 6 6s-2.686 6-6 6zm76.583 33.15c-3.314 0-6-2.686-6-6s2.686-6 6-6h197.25c3.314 0 6 2.686 6 6s-2.686 6-6 6zm15.375 33.15c-3.314 0-6-2.686-6-6s2.686-6 6-6h181.875c3.314 0 6 2.686 6 6s-2.686 6-6 6zm19.219 33.15c-3.314 0-6-2.686-6-6s2.686-6 6-6h132.095c3.314 0 6 2.686 6 6s-2.686 6-6 6zm17.344 33.15c-3.314 0-6-2.686-6-6s2.686-6 6-6h101.626c3.314 0 6 2.686 6 6s-2.686 6-6 6zm18.751 33.15c-3.314 0-6-2.686-6-6s2.686-6 6-6h65.25c3.314 0 6 2.686 6 6s-2.686 6-6 6z" fill="#666"/></g></svg>