<svg id="Capa_1" enable-background="new 0 0 512 512" height="512" viewBox="0 0 512 512" width="512" xmlns="http://www.w3.org/2000/svg"><g><path d="m467.35 183.712h-20.807l-16.317 21.402v205.441h-348.562c-1.205 3.318-1.874 5.151-1.874 5.151v52.025l6.525 10.645 8.735 3.405h107.657c7.547 0 14.424 4.065 18.337 10.518 7.163 11.809 20.136 19.701 34.956 19.701s27.793-7.892 34.955-19.701c3.914-6.453 10.79-10.518 18.337-10.518h158.058c9.241 0 16.731-7.491 16.731-16.731v-264.606c.001-9.241-7.49-16.732-16.731-16.732z" fill="#ce7bbc"/><g><path d="m83.697 465.05v-54.495h-8.716v-215.238l-9.524-11.604h-20.807c-9.241 0-16.731 7.491-16.731 16.731v264.606c0 9.24 7.491 16.731 16.731 16.731h55.779c-9.241 0-16.732-7.491-16.732-16.731z" fill="#c464b0"/></g><path d="m437.481 151.748c-26.525-8.911-53.508-13.028-80.039-12.706l-19.931 13.164-55.268 80.172-37.449 81.909v116.185l11.206 21.263c54.599-26.705 117.811-32.035 178.6-12.429 5.896 1.902 11.944-2.43 11.944-8.625v-266.379c0-5.699-3.661-10.739-9.063-12.554z" fill="#c9f0fe"/><path d="m229.758 289.265v-41.548l-16.343-22.648v-37.348l-40.501-40.894-18.355-7.784c-13.168-.16-26.446.777-39.724 2.847l-14.406 9.573v274.932l11.903 4.403c49.631-8.285 99.472-.679 143.669 20.938v-132.968z" fill="#9be8fd"/><g><path d="m110.416 425.162v-273.279c0-3.892 1.671-7.478 4.418-9.995-13.477 2.101-26.954 5.37-40.315 9.859-5.402 1.815-9.063 6.855-9.063 12.554v266.379c0 6.195 6.048 10.526 11.944 8.625 11.581-3.735 23.25-6.56 34.931-8.509-1.185-1.542-1.915-3.472-1.915-5.634z" fill="#62ddfc"/></g><g><path d="m222.032 396.993c-.761 0-1.535-.114-2.3-.351-35.631-11.097-73.97-13.294-110.874-6.352-4.195.784-8.233-1.972-9.021-6.165-.789-4.194 1.971-8.233 6.165-9.022 39.376-7.407 80.292-5.06 118.325 6.785 4.074 1.27 6.349 5.601 5.08 9.675-1.032 3.309-4.083 5.43-7.375 5.43z" fill="#62ddfc"/></g><g><path d="m222.032 359.932c-.761 0-1.535-.114-2.3-.351-35.631-11.097-73.97-13.295-110.874-6.352-4.195.791-8.233-1.972-9.021-6.165-.789-4.194 1.971-8.233 6.165-9.022 39.376-7.406 80.292-5.059 118.325 6.785 4.074 1.27 6.349 5.601 5.08 9.675-1.032 3.308-4.083 5.43-7.375 5.43z" fill="#62ddfc"/></g><g><path d="m107.422 316.3c-3.643 0-6.886-2.588-7.585-6.299-.789-4.194 1.971-8.232 6.165-9.022 25.846-4.861 52.059-5.581 77.915-2.137 4.23.563 7.202 4.45 6.639 8.679-.564 4.229-4.447 7.196-8.679 6.639-24.224-3.227-48.791-2.552-73.018 2.006-.483.091-.964.134-1.437.134z" fill="#62ddfc"/></g><g><path d="m107.422 279.239c-3.643 0-6.886-2.588-7.585-6.299-.789-4.194 1.971-8.232 6.165-9.022 15.385-2.893 31.057-4.294 46.599-4.272 4.267.016 7.713 3.489 7.697 7.756-.017 4.258-3.472 7.697-7.726 7.697-.307-.005-.599-.002-.898-.002-14.276 0-28.675 1.348-42.815 4.008-.483.09-.964.134-1.437.134z" fill="#62ddfc"/></g><g><path d="m107.422 242.176c-3.643 0-6.886-2.588-7.585-6.299-.789-4.194 1.971-8.232 6.165-9.022 15.379-2.893 31.041-4.349 46.599-4.272 4.267.016 7.713 3.488 7.697 7.756-.016 4.257-3.472 7.697-7.726 7.697-.296.013-.589-.001-.883-.002-14.286 0-28.69 1.348-42.829 4.008-.484.091-.965.134-1.438.134z" fill="#62ddfc"/></g><g><path d="m107.422 205.114c-3.643 0-6.886-2.588-7.585-6.299-.789-4.194 1.971-8.232 6.165-9.022 15.379-2.893 31.078-4.335 46.598-4.272 4.267.016 7.713 3.488 7.697 7.756-.016 4.267-3.451 7.733-7.756 7.697-14.577-.055-29.262 1.293-43.682 4.006-.483.091-.964.134-1.437.134z" fill="#62ddfc"/></g><g><path d="m289.968 396.993c-3.293 0-6.344-2.122-7.374-5.431-1.269-4.074 1.005-8.405 5.08-9.675 38.032-11.845 78.948-14.189 118.325-6.785 4.194.789 6.954 4.828 6.165 9.022-.788 4.193-4.83 6.957-9.021 6.165-36.905-6.945-75.243-4.746-110.874 6.352-.766.239-1.54.352-2.301.352z" fill="#62ddfc"/></g><g><path d="m289.968 359.932c-3.293 0-6.344-2.122-7.374-5.431-1.269-4.074 1.005-8.406 5.08-9.675 38.032-11.845 78.948-14.189 118.325-6.785 4.194.789 6.954 4.828 6.165 9.022-.788 4.193-4.83 6.955-9.021 6.165-36.905-6.944-75.243-4.747-110.874 6.352-.766.238-1.54.352-2.301.352z" fill="#62ddfc"/></g><g><path d="m404.578 316.3c-.474 0-.954-.043-1.437-.134-24.227-4.558-48.794-5.234-73.018-2.006-4.231.568-8.115-2.408-8.679-6.639-.563-4.229 2.409-8.116 6.639-8.679 25.855-3.444 52.07-2.725 77.915 2.137 4.194.79 6.954 4.828 6.165 9.022-.698 3.712-3.941 6.299-7.585 6.299z" fill="#62ddfc"/></g><g><path d="m404.578 279.239c-.474 0-.954-.043-1.437-.134-14.425-2.713-29.118-4.066-43.682-4.006-.01 0-.021 0-.03 0-4.254 0-7.71-3.44-7.726-7.697-.016-4.267 3.43-7.74 7.697-7.756 15.558-.065 31.215 1.378 46.599 4.272 4.194.79 6.954 4.828 6.165 9.022-.699 3.71-3.942 6.299-7.586 6.299z" fill="#62ddfc"/></g><g><path d="m404.578 242.176c-.474 0-.954-.043-1.437-.134-14.42-2.713-29.148-4.043-43.682-4.006-.01 0-.02 0-.03 0-4.254 0-7.71-3.44-7.726-7.697-.016-4.268 3.43-7.74 7.697-7.756 15.53-.047 31.219 1.379 46.598 4.272 4.194.79 6.954 4.828 6.165 9.022-.698 3.71-3.941 6.299-7.585 6.299z" fill="#62ddfc"/></g><g><path d="m404.578 205.114c-.474 0-.954-.043-1.437-.134-14.42-2.713-29.114-4.067-43.682-4.006-.01 0-.02 0-.03 0-4.254 0-7.71-3.44-7.726-7.697-.016-4.268 3.43-7.74 7.697-7.756 15.535-.05 31.218 1.379 46.598 4.272 4.194.79 6.954 4.828 6.165 9.022-.698 3.711-3.941 6.299-7.585 6.299z" fill="#62ddfc"/></g><path d="m293.384 243.836h-42.196v38.074l3.02 4.686-1.861 2.911v2.404h34.228l8.659-5.315v-38.88z" fill="#00c2fb"/><path d="m254.208 247.716 2.861-3.88h-37.859l-2.861 3.88v38.88l5.264 5.315h37.86l-5.265-5.315z" fill="#00abf2"/><path d="m254.208 286.596-1.861 2.911v13.175l13.135 14.865h9.239c11.867-3.568 20.513-14.572 20.513-27.6v-3.35h-41.026z" fill="#00abf2"/><path d="m254.208 289.946v-3.35h-37.86v3.35c0 15.918 12.904 28.822 28.822 28.822h21.242c2.889 0 5.677-.43 8.309-1.221-11.866-3.568-20.513-14.573-20.513-27.601z" fill="#0092d1"/><path d="m281.712 3.134h-25.712l-30.993 25.564s-31.716 34.683-29.66 35.713c2.057 1.03-4.125 37.43-4.125 37.43l4.574 31.804 24.271 38.593 15.11 20.947v51.841l1.91-.847 7.238 3.641h22.93l7.069-3.641 8.384 3.641h10.891c11.54 0 20.895-9.355 20.895-20.895v-15.782c0-9.187 3.889-18.01 10.867-23.987 22.692-19.437 37.103-48.264 37.203-80.462.153-48.879-33.597-91.86-80.852-103.56z" fill="#ffe02f"/><path d="m237.667 186.734c-22.413-19.431-36.624-48.071-36.723-80.04-.154-49.717 34.376-91.989 80.768-103.56-8.727-2.161-17.915-3.256-27.435-3.123-57.997.807-105.022 48.681-104.843 106.683.1 32.198 14.511 61.025 37.203 80.462 6.977 5.976 10.867 14.799 10.867 23.987v15.782c0 11.54 9.355 20.895 20.895 20.895h10.474l8.214-3.641.579.292v-57.737z" fill="#fbc700"/><path d="m298.168 107.503c-4.267 0-7.726 3.459-7.726 7.726v36.025c0 2.287-.781 4.534-2.198 6.329l-14.335 18.142c-4.29 5.43-6.652 12.23-6.652 19.15v52.944h15.453v-52.944c0-3.458 1.181-6.857 3.324-9.571l14.335-18.142c3.563-4.51 5.526-10.16 5.526-15.909v-36.025c0-4.267-3.46-7.725-7.727-7.725z" fill="#fff1af"/><path d="m244.326 247.82v-52.944c0-6.92-2.363-13.72-6.652-19.15l-14.335-18.142c-1.418-1.795-2.198-4.042-2.198-6.329v-36.025c0-4.268-3.459-7.726-7.726-7.726s-7.726 3.459-7.726 7.726v36.025c0 5.749 1.963 11.398 5.526 15.909l14.335 18.142c2.144 2.713 3.324 6.113 3.324 9.571v52.944c4.445-.001 9.77-.001 15.452-.001z" fill="#fff1af"/><g><path d="m308.926 138.795h-105.852c-4.267 0-7.726-3.459-7.726-7.726 0-4.268 3.459-7.726 7.726-7.726h105.852c4.267 0 7.726 3.459 7.726 7.726s-3.459 7.726-7.726 7.726z" fill="#fff1af"/></g></g></svg>