<svg id="Layer_1" enable-background="new 0 0 468 468" height="512" viewBox="0 0 468 468" width="512" xmlns="http://www.w3.org/2000/svg"><g><g><g><path d="m407.311 150.272 5.928 1.256-6.855 1.944c-3.61 1.024-6.367 3.947-7.177 7.61l-1.271 5.746-1.271-5.746c-.81-3.663-3.567-6.586-7.177-7.61l-6.855-1.944 5.928-1.256c3.838-.813 6.869-3.754 7.797-7.565l1.578-6.479 1.578 6.479c.928 3.811 3.959 6.752 7.797 7.565z" fill="#ff8a80"/></g></g><g><g><ellipse cx="417.994" cy="418.563" fill="#ad9cdb" rx="8.332" ry="8.33"/></g></g><g><g><g><g><path d="m39.106 20.672h261.486c11.269 0 20.404 9.133 20.404 20.399v426.929s-269.173 0-271.355 0c-17.06 0-30.89-13.827-30.89-30.883l-.049-396.043c-.001-11.268 9.134-20.402 20.404-20.402z" fill="#dfe7f4"/></g></g><g><g><path d="m39.156 437.117-.05-396.043c-.001-11.268 9.134-20.402 20.404-20.402h-20.404c-11.27 0-20.406 9.135-20.404 20.402l.049 396.043c0 17.056 13.83 30.883 30.89 30.883h20.404c-17.06 0-30.889-13.827-30.889-30.883z" fill="#c7cfe1"/></g></g><g><g><g><g><path d="m247.155 290.283h56.854v69.759h-56.854z" fill="#f69"/></g><g><path d="m265.519 290.283h-18.364v69.759h56.853v-18.359c-21.257 0-38.49-17.228-38.49-38.481v-12.919z" fill="#f92174"/></g></g><g><g><path d="m304.009 248.465h56.854v111.577h-56.854z" fill="#fedf5b"/></g><g><path d="m322.373 248.464h-18.364v111.577h56.853v-18.359c-21.257 0-38.49-17.228-38.49-38.481v-54.737z" fill="#ffb53b"/></g></g><g><g><g><path d="m361.14 207.666h56.854v152.376h-56.854z" fill="#58ed9b"/></g></g><g><g><path d="m379.504 207.666h-18.364v152.376h56.853v-18.359c-21.257 0-38.49-17.228-38.49-38.481v-95.536z" fill="#24d1af"/></g></g></g></g><g><path d="m444.298 365.042h-222.383c-2.762 0-5-2.238-5-5s2.238-5 5-5h222.383c2.762 0 5 2.238 5 5s-2.238 5-5 5z" fill="#334973"/></g></g><g><g><g><path d="m126.545 134.69 50.325-36.209-50.325-36.209v15.47h-61.001v41.478h61.001z" fill="#9595fc"/></g><g><g><path d="m126.545 62.272v15.469h-61.001v16.319h61.002c4.09 0 7.829-1.504 10.693-3.988l25.659 18.462 13.973-10.053z" fill="#7676ff"/></g></g></g><g><g><path d="m291.618 83.365h-92.284c-2.762 0-5-2.238-5-5s2.238-5 5-5h92.284c2.762 0 5 2.238 5 5s-2.238 5-5 5z" fill="#c7cfe1"/></g><g><path d="m273.688 123.597h-74.354c-2.762 0-5-2.238-5-5s2.238-5 5-5h74.354c2.762 0 5 2.238 5 5s-2.238 5-5 5z" fill="#c7cfe1"/></g></g></g><g><g><g><path d="m126.545 246.886 50.325-36.209-50.325-36.209v15.47h-61.001v41.478h61.001z" fill="#9595fc"/></g><g><g><path d="m126.545 174.468v15.469h-61.001v16.319h61.002c4.09 0 7.829-1.504 10.693-3.988l25.659 18.462 13.973-10.053z" fill="#7676ff"/></g></g></g><g><g><path d="m291.618 195.561h-92.284c-2.762 0-5-2.238-5-5s2.238-5 5-5h92.284c2.762 0 5 2.238 5 5s-2.238 5-5 5z" fill="#c7cfe1"/></g><g><path d="m273.688 235.793h-74.354c-2.762 0-5-2.238-5-5s2.238-5 5-5h74.354c2.762 0 5 2.238 5 5s-2.238 5-5 5z" fill="#c7cfe1"/></g></g></g><g><g><path d="m126.545 359.082 50.325-36.209-50.325-36.209v15.47h-61.001v41.478h61.001z" fill="#9595fc"/></g><g><g><path d="m126.545 286.664v15.469h-61.001v16.319h61.002c4.09 0 7.829-1.504 10.693-3.988l25.659 18.462 13.973-10.053z" fill="#7676ff"/></g></g></g><g><g><path d="m80.531 437.117v-40.434h276.221v40.718c0 16.899-13.703 30.599-30.606 30.599h-276.22v-.007c16.928-.153 30.605-13.915 30.605-30.876z" fill="#334973"/></g><g><g><path d="m333.371 396.683c-8.779 29.444-36.052 50.918-68.356 50.918h-186.312c-4.264 11.809-15.523 20.272-28.778 20.392v.007h276.221c16.903 0 30.606-13.7 30.606-30.599v-40.718z" fill="#1f3259"/></g></g></g></g><g><g><g><ellipse cx="330.046" cy="60.738" fill="#ffb53b" rx="61.212" ry="60.738"/></g></g><path d="m349.791 70.911c0-9.445-7.943-17.129-17.706-17.129h-4.078c-4.249 0-7.706-3.198-7.706-7.129s3.457-7.129 7.706-7.129h13.809c2.762 0 5-2.238 5-5s-2.238-5-5-5h-8.82v-5.449c0-2.762-2.238-5-5-5s-5 2.238-5 5v6.159c-7.328 2.097-12.694 8.659-12.694 16.419 0 9.445 7.943 17.129 17.706 17.129h4.078c4.249 0 7.706 3.198 7.706 7.129s-3.457 7.129-7.706 7.129h-13.809c-2.762 0-5 2.238-5 5s2.238 5 5 5h8.82v5.449c0 2.762 2.238 5 5 5s5-2.238 5-5v-6.159c7.328-2.097 12.694-8.658 12.694-16.419z" fill="#fff"/></g></g></g></svg>