<?xml version="1.0" encoding="UTF-8"?>
<svg id="Layer_1" xmlns="http://www.w3.org/2000/svg" version="1.1" viewBox="0 0 585 201">
  <!-- Generator: Adobe Illustrator 29.3.0, SVG Export Plug-In . SVG Version: 2.1.0 Build 146)  -->
  <defs>
    <style>
      .st0 {
        fill: #aaa;
      }
    </style>
  </defs>
  <path class="st0" d="M566.7,110.9H18.3c-5.8,0-10.5-4.7-10.5-10.5s4.7-10.5,10.5-10.5h523l-63.7-63.7c-4.1-4.1-4.1-10.8,0-14.9s10.8-4.1,14.9,0l81.7,81.7c3,3,3.9,7.5,2.3,11.5-1.6,3.9-5.5,6.5-9.7,6.5h0Z"/>
  <path class="st0" d="M484.9,192.7c-2.7,0-5.4-1-7.4-3.1-4.1-4.1-4.1-10.8,0-14.9l81.8-81.8c4.1-4.1,10.8-4.1,14.9,0s4.1,10.8,0,14.9l-81.8,81.8c-2.1,2.1-4.8,3.1-7.5,3.1h0Z"/>
</svg>