<svg
  id="Layer_1"
  enable-background="new 0 0 66 66"
  viewBox="0 0 66 66"
  xmlns="http://www.w3.org/2000/svg"
>
  <g>
    <path
      d="m33.25 16.88h1.88v4l5.38-4h10.23c1.25 0 2.26-1.01 2.26-2.25v-10.49c0-1.25-1.01-2.26-2.26-2.26h-17.49c-1.24 0-2.25 1.01-2.25 2.26v10.49c0 1.25 1.01 2.25 2.25 2.25zm4.1-8.05c.39-.39 1.02-.39 1.41 0l1.67 1.67 4.34-4.34c.39-.39 1.02-.39 1.41 0s.39 1.02 0 1.41l-5.05 5.05c-.19.19-.44.29-.71.29s-.52-.11-.71-.29l-2.38-2.38c-.37-.38-.37-1.02.02-1.41z"
    />
    <path
      d="m18 56.89v-1.92h-12.61v-.85c0-2.92 1.64-5.46 4.06-6.73 1.01.7 2.23 1.11 3.55 1.11s2.55-.41 3.55-1.11c.52.28 1.01.61 1.45 1v-14.73h-12.61c-1.87 0-3.39 1.51-3.39 3.38v23.7c0 1.86 1.52 3.38 3.39 3.38h15.23c1.07 0 2.03-.5 2.65-1.28-2.97-.35-5.27-2.89-5.27-5.95zm-5-18.85c2.34 0 4.23 1.9 4.23 4.23 0 2.34-1.89 4.23-4.23 4.23-2.33 0-4.23-1.89-4.23-4.23 0-2.33 1.9-4.23 4.23-4.23z"
    />
    <path
      d="m60.62 33.66h-12.62v14.73c.44-.39.93-.72 1.45-1 1.01.7 2.23 1.11 3.55 1.11s2.55-.41 3.55-1.11c2.42 1.27 4.07 3.81 4.07 6.73v.85h-12.62v1.92c0 3.06-2.3 5.6-5.27 5.95.63.78 1.59 1.28 2.66 1.28h15.23c1.87 0 3.38-1.52 3.38-3.38v-23.7c0-1.87-1.51-3.38-3.38-3.38zm-7.62 12.84c-2.33 0-4.23-1.89-4.23-4.23 0-2.33 1.9-4.23 4.23-4.23 2.34 0 4.23 1.9 4.23 4.23 0 2.34-1.89 4.23-4.23 4.23z"
    />
    <path
      d="m46 56.88v-28c0-2.21-1.79-4-4-4h-18c-2.21 0-4 1.79-4 4v28c0 2.21 1.79 4 4 4h18c2.21 0 4-1.79 4-4zm-13-28c2.76 0 5 2.24 5 5s-2.24 5-5 5-5-2.24-5-5 2.24-5 5-5zm-9 19c0-3.6 2.12-6.7 5.18-8.14 1.1.72 2.41 1.14 3.82 1.14s2.72-.42 3.82-1.14c3.06 1.44 5.18 4.54 5.18 8.14v1h-18zm10 10h-10c-.55 0-1-.45-1-1s.45-1 1-1h10c.55 0 1 .45 1 1s-.45 1-1 1zm8-4h-18c-.55 0-1-.45-1-1s.45-1 1-1h18c.55 0 1 .45 1 1s-.45 1-1 1z"
    />
  </g>
</svg>
