<svg width="17" height="17" viewBox="0 0 17 17" fill="none" xmlns="http://www.w3.org/2000/svg">
<path d="M9.36251 5.29156H7.43751C6.73167 5.29156 6.15417 4.71406 6.15417 4.00823V2.08323C6.15417 1.3774 6.73167 0.799896 7.43751 0.799896H9.36251C10.0683 0.799896 10.6458 1.3774 10.6458 2.08323V4.00823C10.6458 4.71406 10.0683 5.29156 9.36251 5.29156Z" fill="white"/>
<path d="M3.90828 5.29153H1.98328C1.27745 5.29153 0.699951 4.71403 0.699951 4.0082V2.0832C0.699951 1.37737 1.27745 0.799866 1.98328 0.799866H3.90828C4.61412 0.799866 5.19162 1.37737 5.19162 2.0832V4.0082C5.19162 4.71403 4.61412 5.29153 3.90828 5.29153Z" fill="white"/>
<path d="M14.8166 5.29156H12.8916C12.1858 5.29156 11.6083 4.71406 11.6083 4.00823V2.08323C11.6083 1.3774 12.1858 0.799896 12.8916 0.799896H14.8166C15.5224 0.799896 16.0999 1.3774 16.0999 2.08323V4.00823C16.0999 4.71406 15.5224 5.29156 14.8166 5.29156Z" fill="white"/>
<path d="M9.36251 16.1999H7.43751C6.73167 16.1999 6.15417 15.6224 6.15417 14.9166V12.9916C6.15417 12.2857 6.73167 11.7082 7.43751 11.7082H9.36251C10.0683 11.7082 10.6458 12.2857 10.6458 12.9916V14.9166C10.6458 15.6224 10.0683 16.1999 9.36251 16.1999Z" fill="white"/>
<path d="M3.90828 16.1999H1.98328C1.27745 16.1999 0.699951 15.6224 0.699951 14.9166V12.9916C0.699951 12.2857 1.27745 11.7082 1.98328 11.7082H3.90828C4.61412 11.7082 5.19162 12.2857 5.19162 12.9916V14.9166C5.19162 15.6224 4.61412 16.1999 3.90828 16.1999Z" fill="white"/>
<path d="M9.36251 10.746H7.43751C6.73167 10.746 6.15417 10.1685 6.15417 9.46267V7.53767C6.15417 6.83183 6.73167 6.25433 7.43751 6.25433H9.36251C10.0683 6.25433 10.6458 6.83183 10.6458 7.53767V9.46267C10.6458 10.1685 10.0683 10.746 9.36251 10.746Z" fill="white"/>
<path d="M3.90828 10.746H1.98328C1.27745 10.746 0.699951 10.1685 0.699951 9.46267V7.53767C0.699951 6.83183 1.27745 6.25433 1.98328 6.25433H3.90828C4.61412 6.25433 5.19162 6.83183 5.19162 7.53767V9.46267C5.19162 10.1685 4.61412 10.746 3.90828 10.746Z" fill="white"/>
<path d="M14.8166 10.746H12.8916C12.1858 10.746 11.6083 10.1685 11.6083 9.46267V7.53767C11.6083 6.83183 12.1858 6.25433 12.8916 6.25433H14.8166C15.5224 6.25433 16.0999 6.83183 16.0999 7.53767V9.46267C16.0999 10.1685 15.5224 10.746 14.8166 10.746Z" fill="white"/>
<path d="M16.0358 13.7616L14.1749 11.8366C14.1108 11.7082 14.0466 11.7082 13.9824 11.7082C13.9183 11.7082 13.8541 11.7082 13.7899 11.7724L13.5974 11.9649C13.5333 12.0291 13.5333 12.0932 13.5333 12.1574C13.5333 12.2216 13.5333 12.2857 13.5974 12.3499L14.6883 13.5049H11.8649C11.7366 13.5049 11.6083 13.6332 11.6083 13.8257V14.0824C11.6083 14.2749 11.7366 14.4032 11.8649 14.4032H14.6883L13.5974 15.5582C13.5333 15.5582 13.5333 15.6224 13.5333 15.7507C13.5333 15.8149 13.5333 15.8791 13.5974 15.9432L13.7899 16.1357C13.8541 16.1999 13.9183 16.1999 13.9824 16.1999C14.0466 16.1999 14.1108 16.1999 14.1749 16.1357L16.0358 14.2107C16.0999 14.1466 16.0999 14.0824 16.0999 14.0182C16.0999 13.8899 16.0999 13.8257 16.0358 13.7616Z" fill="white"/>
</svg>
