<svg xmlns="http://www.w3.org/2000/svg" viewBox="0 0 975.69 683.01"><defs><style>.cls-1{isolation:isolate;}.cls-2{fill:#f5f5f5;}.cls-3{fill:#f1d2b6;}.cls-4{fill:#f7f6f1;}.cls-10,.cls-5{fill:#3380db;}.cls-6{fill:#8cc8fa;}.cls-7{fill:#4d92eb;}.cls-8{fill:#005e9b;}.cls-9{fill:#bce4fa;}.cls-10{opacity:0.55;}.cls-10,.cls-44{mix-blend-mode:screen;}.cls-11{fill:#d4cfcc;}.cls-12{fill:#ec5446;}.cls-13{fill:#ffa32a;}.cls-14{fill:#62bbf5;}.cls-15{fill:#97c4de;}.cls-16{fill:#bddbe6;}.cls-17{fill:#a0c8e3;}.cls-18{fill:#d6e6f0;}.cls-19{fill:#89b9dc;}.cls-20{fill:#f79a45;}.cls-21{fill:#d6efff;}.cls-22{fill:#bddcf0;}.cls-23{fill:#3e9bde;}.cls-24{fill:#a2d2fa;}.cls-25{fill:#f7a26d;}.cls-26{fill:#f5f0ee;}.cls-27{fill:#f7b690;}.cls-28{fill:#2e6c9e;}.cls-29{fill:#222b54;}.cls-30{fill:#181e3d;}.cls-31{fill:#f3a088;}.cls-32{fill:#232b59;}.cls-33{fill:#bdddf2;}.cls-34{fill:#0e1748;}.cls-35{fill:#253160;}.cls-36{fill:#fdb98c;}.cls-37{fill:#172755;}.cls-38{fill:#fd9d82;}.cls-39{fill:#245880;}.cls-40{fill:#f6a087;}.cls-41{fill:#2463b3;}.cls-42{fill:#53b1fb;}.cls-43{fill:#ed947b;}.cls-44{fill:#14130d;}.cls-45{fill:#fff;}</style></defs><g class="cls-1"><g id="Layer_2" data-name="Layer 2"><g id="peoples"><ellipse id="_Path_" data-name="&lt;Path&gt;" class="cls-2" cx="531.23" cy="658.68" rx="416.69" ry="24.34"/><g id="tree"><path class="cls-3" d="M165.78,397.79c-23.55,2.8-45.65,28-44,59s8.59,33.18,8.32,45.71c-.38,17.76-17.83,31.48-15.81,58.41,1.5,20,19.14,41.77,50.76,44.64s60.65-17.64,64.09-37.82c6.24-36.63-25.8-51.81-25.8-67.55s11.74-31.77,8.32-64.85C209.44,413.76,192,394.67,165.78,397.79Z"/><path class="cls-4" d="M177.79,643.76h-.14a1,1,0,0,1-.86-1.13,211.2,211.2,0,0,0,1.44-34.34c-.92-21.08-3.37-42.3-5.73-62.81-1.74-15.09-3.53-30.68-4.73-46.19-2-23.19-4.06-47.18,3.32-69.95a1,1,0,0,1,1.26-.65A1,1,0,0,1,173,430c-7.25,22.38-5.2,46.17-3.22,69.17,1.19,15.47,3,31,4.72,46.12,2.37,20.55,4.81,41.8,5.74,63a211.93,211.93,0,0,1-1.46,34.68A1,1,0,0,1,177.79,643.76Z"/><path class="cls-4" d="M167.06,472.49a1,1,0,0,1-.68-1.75l28.69-26.19a1,1,0,1,1,1.35,1.48l-28.68,26.19A1,1,0,0,1,167.06,472.49Z"/><path class="cls-4" d="M176.76,575.77a.91.91,0,0,1-.39-.08l-49.05-20.38a1,1,0,1,1,.77-1.85l49.06,20.38a1,1,0,0,1-.39,1.93Z"/><path class="cls-4" d="M176.76,556.7a1,1,0,0,1-.45-1.9l32.09-16.23a1,1,0,0,1,1.35.44,1,1,0,0,1-.44,1.35l-32.1,16.23A.91.91,0,0,1,176.76,556.7Z"/></g><rect class="cls-5" x="703.96" y="121.16" width="220.34" height="207.93" transform="translate(-1.51 5.53) rotate(-0.39)"/><rect class="cls-4" x="733.23" y="186.66" width="187.12" height="141.04" transform="translate(-1.73 5.62) rotate(-0.39)"/><path class="cls-6" d="M918.49,187.35l.94,138.4L735.09,327l-.94-138.4,184.34-1.25Zm2.76-2.65L731.36,186l1,143.66,189.89-1.29-1-143.66Z"/><path class="cls-7" d="M703.26,121.91l1.39,204.5,26.31-.17-1.38-204.51Z"/><path class="cls-8" d="M749.14,140.35a5.33,5.33,0,1,1,5.29-5.36A5.33,5.33,0,0,1,749.14,140.35Z"/><path class="cls-8" d="M780.15,140.14a5.33,5.33,0,1,1,5.29-5.36A5.33,5.33,0,0,1,780.15,140.14Z"/><path class="cls-9" d="M786.19,121.19c-3.61-9-14.9-8.9-18.39.13l5.73,0c3.2-3.88,8.5-1,8.54,4.58,0,4.31-3.25,7.39-6.49,6.15a5.3,5.3,0,0,0-.79,2.84,5.21,5.21,0,0,0,.53,2.29C783.27,138.7,789.53,129.49,786.19,121.19Z"/><path class="cls-9" d="M755.21,121.41c-3.61-9-14.89-8.91-18.38.12l5.72,0c3.19-3.88,8.51-1,8.54,4.58,0,4.3-3.25,7.41-6.51,6.14a5.26,5.26,0,0,0-.8,2.85,5.13,5.13,0,0,0,.53,2.28C752.29,139,758.55,129.7,755.21,121.41Z"/><path class="cls-4" d="M747.73,135.32a.77.77,0,0,1-.13-1.52,6.77,6.77,0,0,0,4-2.38.77.77,0,1,1,1.17,1,8.35,8.35,0,0,1-4.89,2.9Z"/><path class="cls-4" d="M753.67,130.16a.93.93,0,0,1-.29,0,.77.77,0,0,1-.43-1,9.25,9.25,0,0,0,.66-3.55c0-4.56-3.24-8.26-7.14-8.23a.77.77,0,0,1,0-1.54c4.75,0,8.65,4.35,8.68,9.76a10.86,10.86,0,0,1-.76,4.13A.77.77,0,0,1,753.67,130.16Z"/><path class="cls-4" d="M740.58,120.45a.67.67,0,0,1-.46-.15.76.76,0,0,1-.15-1.07,8.64,8.64,0,0,1,2-2,.77.77,0,1,1,.88,1.26,7.26,7.26,0,0,0-1.71,1.66A.74.74,0,0,1,740.58,120.45Z"/><path class="cls-4" d="M778.29,135.38a.77.77,0,0,1-.14-1.52,6.74,6.74,0,0,0,4-2.38.77.77,0,0,1,1.08-.09.75.75,0,0,1,.09,1.08,8.27,8.27,0,0,1-4.89,2.9Z"/><path class="cls-4" d="M784.22,130.22a1,1,0,0,1-.29-.05.77.77,0,0,1-.42-1,9.44,9.44,0,0,0,.65-3.55c0-4.56-3.23-8.26-7.14-8.23a.77.77,0,1,1,0-1.53c4.75,0,8.65,4.34,8.69,9.75a10.86,10.86,0,0,1-.77,4.13A.76.76,0,0,1,784.22,130.22Z"/><path class="cls-4" d="M771.14,120.52a.76.76,0,0,1-.47-.16.76.76,0,0,1-.15-1.07,9,9,0,0,1,2.05-2,.77.77,0,0,1,.88,1.26,7.43,7.43,0,0,0-1.7,1.66A.8.8,0,0,1,771.14,120.52Z"/><path class="cls-8" d="M812.51,139.92a5.33,5.33,0,1,1,5.29-5.36A5.33,5.33,0,0,1,812.51,139.92Z"/><path class="cls-8" d="M843.52,139.71a5.33,5.33,0,1,1,5.29-5.36A5.33,5.33,0,0,1,843.52,139.71Z"/><path class="cls-9" d="M849.56,120.76c-3.61-9-14.89-8.9-18.38.13l5.72,0c3.2-3.88,8.51-1,8.54,4.58,0,4.31-3.25,7.39-6.49,6.15a5.37,5.37,0,0,0-.26,5.13C846.64,138.27,852.9,129.06,849.56,120.76Z"/><path class="cls-9" d="M818.58,121c-3.61-9-14.89-8.91-18.38.12l5.73,0c3.19-3.88,8.5-1,8.53,4.58,0,4.3-3.25,7.41-6.51,6.14a5.32,5.32,0,0,0-.8,2.85,5.13,5.13,0,0,0,.53,2.28C815.66,138.52,821.92,129.27,818.58,121Z"/><path class="cls-4" d="M811.1,134.89a.77.77,0,0,1-.13-1.52,6.74,6.74,0,0,0,4-2.38.77.77,0,1,1,1.17,1,8.35,8.35,0,0,1-4.89,2.9Z"/><path class="cls-4" d="M817,129.73a1,1,0,0,1-.29,0,.78.78,0,0,1-.43-1,9.25,9.25,0,0,0,.66-3.55c0-4.56-3.24-8.26-7.14-8.23a.77.77,0,0,1,0-1.54c4.75,0,8.65,4.35,8.68,9.76a10.86,10.86,0,0,1-.76,4.13A.78.78,0,0,1,817,129.73Z"/><path class="cls-4" d="M804,120a.67.67,0,0,1-.46-.15.76.76,0,0,1-.15-1.07,9,9,0,0,1,2-2,.77.77,0,1,1,.88,1.26,7.46,7.46,0,0,0-1.71,1.66A.74.74,0,0,1,804,120Z"/><path class="cls-4" d="M841.66,135a.77.77,0,0,1-.14-1.52,6.71,6.71,0,0,0,4-2.38.77.77,0,0,1,1.08-.09.75.75,0,0,1,.09,1.08,8.27,8.27,0,0,1-4.89,2.9Z"/><path class="cls-4" d="M847.59,129.79a1,1,0,0,1-.29,0,.77.77,0,0,1-.42-1,9.44,9.44,0,0,0,.65-3.55c0-4.56-3.23-8.26-7.14-8.23a.77.77,0,1,1,0-1.53c4.75,0,8.65,4.34,8.69,9.75a10.86,10.86,0,0,1-.77,4.13A.76.76,0,0,1,847.59,129.79Z"/><path class="cls-4" d="M834.51,120.09a.77.77,0,0,1-.62-1.23,9,9,0,0,1,2.05-2,.77.77,0,0,1,.88,1.26,7.43,7.43,0,0,0-1.7,1.66A.8.8,0,0,1,834.51,120.09Z"/><path class="cls-8" d="M875.16,139.49a5.33,5.33,0,1,1,5.28-5.36A5.33,5.33,0,0,1,875.16,139.49Z"/><path class="cls-8" d="M906.17,139.28a5.33,5.33,0,1,1,5.28-5.36A5.33,5.33,0,0,1,906.17,139.28Z"/><path class="cls-9" d="M912.2,120.34c-3.61-9-14.89-8.91-18.38.12l5.73,0c3.2-3.89,8.5-1,8.54,4.58,0,4.3-3.25,7.39-6.49,6.15a5.24,5.24,0,0,0-.79,2.83,5.17,5.17,0,0,0,.53,2.29C909.29,137.85,915.55,128.64,912.2,120.34Z"/><path class="cls-9" d="M881.22,120.55c-3.61-9-14.89-8.91-18.38.12l5.73,0c3.19-3.88,8.5-1,8.54,4.58,0,4.3-3.25,7.41-6.51,6.14a5.2,5.2,0,0,0-.8,2.84,5.26,5.26,0,0,0,.52,2.28C878.3,138.09,884.57,128.85,881.22,120.55Z"/><path class="cls-4" d="M873.75,134.46a.75.75,0,0,1-.76-.63.77.77,0,0,1,.62-.89,6.7,6.7,0,0,0,4-2.37.76.76,0,0,1,1.08-.1.78.78,0,0,1,.1,1.09,8.33,8.33,0,0,1-4.89,2.89Z"/><path class="cls-4" d="M879.69,129.3a.58.58,0,0,1-.29-.05.76.76,0,0,1-.43-1,9.39,9.39,0,0,0,.65-3.54c0-4.57-3.23-8.26-7.13-8.24a.77.77,0,1,1,0-1.53c4.75,0,8.64,4.34,8.68,9.75a10.86,10.86,0,0,1-.77,4.13A.74.74,0,0,1,879.69,129.3Z"/><path class="cls-4" d="M866.6,119.6a.79.79,0,0,1-.46-.15.78.78,0,0,1-.16-1.08,9,9,0,0,1,2-2,.76.76,0,0,1,1.07.19.75.75,0,0,1-.19,1.06,7.64,7.64,0,0,0-1.7,1.66A.77.77,0,0,1,866.6,119.6Z"/><path class="cls-4" d="M904.3,134.53a.77.77,0,0,1-.13-1.53,6.68,6.68,0,0,0,4-2.37.75.75,0,0,1,1.08-.09.77.77,0,0,1,.09,1.08,8.33,8.33,0,0,1-4.89,2.89Z"/><path class="cls-4" d="M910.24,129.37a.75.75,0,0,1-.29-.06.78.78,0,0,1-.43-1,9.17,9.17,0,0,0,.66-3.54c0-4.57-3.23-8.26-7.14-8.23a.77.77,0,0,1-.77-.77A.76.76,0,0,1,903,115c4.75,0,8.65,4.34,8.68,9.76a10.84,10.84,0,0,1-.76,4.12A.79.79,0,0,1,910.24,129.37Z"/><path class="cls-4" d="M897.16,119.66a.8.8,0,0,1-.47-.15.77.77,0,0,1-.15-1.08,9.2,9.2,0,0,1,2.05-2,.76.76,0,0,1,1.07.19.78.78,0,0,1-.19,1.07,7.62,7.62,0,0,0-1.71,1.65A.75.75,0,0,1,897.16,119.66Z"/><path class="cls-10" d="M916.74,178.7l-.23-34.88-182.59,1.24.24,34.88Z"/><path class="cls-11" d="M897.21,321l-144.42,1a1.54,1.54,0,0,1-1.69-1.34l-.86-127.41a1.54,1.54,0,0,1,1.66-1.37l144.42-1a1.55,1.55,0,0,1,1.69,1.34l.86,127.42A1.53,1.53,0,0,1,897.21,321Zm-142.76-1.73,141.06-1-.85-124.71-141.06,1Z"/><path class="cls-11" d="M892.31,225.42l-135.92.92a1.38,1.38,0,1,1,0-2.7l135.92-.93a1.38,1.38,0,1,1,0,2.71Z"/><path class="cls-11" d="M892.52,257.27l-135.91.93a1.39,1.39,0,1,1,0-2.71l135.91-.92a1.38,1.38,0,1,1,0,2.7Z"/><path class="cls-11" d="M892.74,289.13l-135.92.92a1.38,1.38,0,1,1,0-2.7l135.92-.93a1.39,1.39,0,1,1,0,2.71Z"/><path class="cls-11" d="M860.54,317.76a1.54,1.54,0,0,1-1.69-1.34L858,195.89a1.72,1.72,0,0,1,3.36,0l.81,120.53A1.54,1.54,0,0,1,860.54,317.76Z"/><path class="cls-11" d="M825,318a1.53,1.53,0,0,1-1.68-1.34l-.82-120.53a1.71,1.71,0,0,1,3.35,0l.82,120.53A1.54,1.54,0,0,1,825,318Z"/><path class="cls-11" d="M789.41,318.24a1.54,1.54,0,0,1-1.69-1.34l-.81-120.53a1.71,1.71,0,0,1,3.35,0l.82,120.53A1.53,1.53,0,0,1,789.41,318.24Z"/><rect class="cls-11" x="758.17" y="199.5" width="24.94" height="8.18" rx="3.07" transform="translate(-1.36 5.23) rotate(-0.39)"/><rect class="cls-12" x="830.53" y="198.58" width="24.94" height="8.18" rx="3.07" transform="translate(4.06 -16.19) rotate(1.1)"/><rect class="cls-13" x="755.84" y="229.74" width="7.35" height="5.93" rx="2.22" transform="translate(-1.56 5.16) rotate(-0.39)"/><rect class="cls-13" x="755.89" y="237.93" width="7.35" height="5.93" rx="2.22" transform="translate(-1.62 5.16) rotate(-0.39)"/><rect class="cls-13" x="755.95" y="246.11" width="7.35" height="5.93" rx="2.22" transform="translate(-1.67 5.16) rotate(-0.39)"/><rect class="cls-11" x="764.59" y="229.65" width="17.07" height="5.93" rx="2.22" transform="translate(-1.56 5.25) rotate(-0.39)"/><rect class="cls-11" x="764.64" y="237.84" width="17.07" height="5.93" rx="2.22" transform="translate(-1.62 5.25) rotate(-0.39)"/><rect class="cls-11" x="764.7" y="246.02" width="17.07" height="5.93" rx="2.22" transform="translate(-1.67 5.25) rotate(-0.39)"/><rect class="cls-11" x="758.25" y="211.22" width="17.07" height="8.18" rx="3.07" transform="translate(-1.44 5.21) rotate(-0.39)"/><path class="cls-13" d="M875.27,219.31a2.35,2.35,0,0,1-1.94-1l-7-10.85a1.64,1.64,0,0,1,.95-2.43,2.53,2.53,0,0,1,3,.79l5.06,7.86,9.08-13.2a2.52,2.52,0,0,1,3-.68,1.63,1.63,0,0,1,.87,2.45l-11.09,16.12a2.35,2.35,0,0,1-2,.92Z"/><path class="cls-11" d="M833,280.3a2.57,2.57,0,0,1-1.63-.55,1.57,1.57,0,0,1,.07-2.55L848.51,264a2.64,2.64,0,0,1,3.16,0,1.58,1.58,0,0,1-.07,2.56l-17.07,13.24A2.57,2.57,0,0,1,833,280.3Z"/><path class="cls-11" d="M850.15,280.18a2.49,2.49,0,0,1-1.54-.48l-17.25-13a1.57,1.57,0,0,1-.1-2.55,2.63,2.63,0,0,1,3.16-.09l17.25,13a1.57,1.57,0,0,1,.1,2.55A2.5,2.5,0,0,1,850.15,280.18Z"/><rect class="cls-13" x="740.23" y="152.24" width="73.21" height="9.84" rx="3.69" transform="translate(-1.05 5.28) rotate(-0.39)"/><rect class="cls-14" x="740.32" y="167.39" width="101.74" height="5.89" rx="2.21" transform="translate(-1.14 5.37) rotate(-0.39)"/><rect class="cls-4" x="127.6" y="506.76" width="141.33" height="138.15"/><path class="cls-15" d="M232.45,506.76c0-.29-.06-.58-.1-.87H168.14l-.06.87h-1.86l-.06.87h96.27l.16-.23.25-.36c.06-.09.13-.18.19-.28Zm35.62,58.8v5.69h.87v-5.69Zm0,0v5.69h.87v-5.69Zm-35.62-58.8c0-.29-.06-.58-.1-.87H168.14l-.06.87h-1.86l-.06.87h96.27l.16-.23.25-.36c.06-.09.13-.18.19-.28Zm-105.71-.87V645.77H269.8V505.89ZM268.07,644H128.47V507.63h139.6Z"/><rect class="cls-16" x="145.3" y="521.03" width="20.31" height="25.23"/><rect class="cls-16" x="176.52" y="521.03" width="20.31" height="25.23"/><rect class="cls-16" x="207.73" y="521.03" width="20.3" height="25.23"/><rect class="cls-16" x="145.3" y="560.15" width="20.31" height="25.23"/><rect class="cls-16" x="176.52" y="560.15" width="20.31" height="25.23"/><rect class="cls-16" x="207.73" y="560.15" width="20.3" height="25.23"/><rect class="cls-16" x="145.3" y="599.26" width="37.92" height="28.55"/><rect class="cls-16" x="192.22" y="599.26" width="35.81" height="28.55"/><rect class="cls-16" x="243.29" y="521.03" width="11.88" height="106.78"/><polygon class="cls-17" points="153.27 521.03 145.3 528.99 145.3 521.03 153.27 521.03"/><polygon class="cls-17" points="145.3 599.26 151.2 599.26 145.3 605.16 145.3 599.26"/><polygon class="cls-17" points="154.66 585.38 165.61 574.43 165.61 584.86 165.09 585.38 154.66 585.38"/><polygon class="cls-17" points="179.9 560.15 190.32 560.15 176.52 573.95 176.52 563.52 179.9 560.15"/><polygon class="cls-17" points="193.78 546.26 196.82 543.22 196.82 546.26 193.78 546.26"/><polygon class="cls-17" points="228.03 521.03 228.03 522.43 207.73 542.74 207.73 532.31 219.01 521.03 228.03 521.03"/><polygon class="cls-17" points="225.74 599.26 228.03 599.26 228.03 607.39 207.61 627.81 197.19 627.81 225.74 599.26"/><polygon class="cls-17" points="255.17 569.83 255.17 580.26 243.29 592.13 243.29 581.71 255.17 569.83"/><polygon class="cls-17" points="158.98 560.15 165.26 560.15 145.3 580.11 145.3 573.82 158.98 560.15"/><polygon class="cls-17" points="196.82 522.31 196.82 528.59 179.16 546.26 176.52 546.26 176.52 542.61 196.82 522.31"/><polygon class="cls-17" points="145.3 560.15 149.38 560.15 145.3 564.22 145.3 560.15"/><polygon class="cls-17" points="161.7 521.03 165.61 521.03 165.61 543.91 163.26 546.26 145.3 546.26 145.3 537.43 161.7 521.03"/><polygon class="cls-17" points="188.49 521.03 176.52 533 176.52 521.03 188.49 521.03"/><polygon class="cls-17" points="222.63 546.26 228.03 540.86 228.03 546.26 222.63 546.26"/><polygon class="cls-17" points="169.63 599.26 183.22 599.26 183.22 612.46 167.87 627.81 145.3 627.81 145.3 623.59 169.63 599.26"/><polygon class="cls-17" points="192.22 599.26 196.42 599.26 192.22 603.46 192.22 599.26"/><polygon class="cls-17" points="183.51 585.38 196.82 572.07 196.82 585.38 183.51 585.38"/><polygon class="cls-17" points="228.03 560.15 228.03 567.65 210.3 585.38 207.73 585.38 207.73 561.16 208.74 560.15 228.03 560.15"/><polygon class="cls-17" points="255.17 521.03 255.17 540.51 243.29 552.39 243.29 525.6 247.86 521.03 255.17 521.03"/><polygon class="cls-17" points="221.16 627.81 228.03 620.93 228.03 627.81 221.16 627.81"/><polygon class="cls-17" points="255.17 593.8 255.17 620.59 247.95 627.81 243.29 627.81 243.29 605.68 255.17 593.8"/><path class="cls-18" d="M142.7,518.42v30.45h25.52V518.42Zm2.61,27.84V521h20.3v25.23Z"/><path class="cls-18" d="M173.91,518.42v30.45h25.52V518.42Zm2.61,27.84V521h20.3v25.23Z"/><path class="cls-18" d="M205.12,518.42v30.45h25.52V518.42ZM228,546.26h-20.3V521H228Z"/><path class="cls-18" d="M142.7,557.54V588h25.52V557.54Zm2.61,2.61h20.3v25.23h-20.3Z"/><path class="cls-18" d="M173.91,557.54V588h25.52V557.54Zm22.91,2.61v25.23h-20.3V560.15Z"/><path class="cls-18" d="M205.12,557.54V588h25.52V557.54ZM228,585.38h-20.3V560.15H228Z"/><path class="cls-18" d="M142.7,596.66v33.76h43.13V596.66Zm40.52,31.15H145.31V599.26h37.91Z"/><path class="cls-18" d="M189.61,596.66v33.76h41V596.66ZM228,627.81H192.22V599.26H228Z"/><path class="cls-18" d="M240.68,518.42v112h17.1v-112Zm14.49,109.39H243.29V521h11.88Z"/><polygon class="cls-4" points="127.39 504.78 123.86 498.53 268.69 498.53 268.69 504.78 127.39 504.78"/><path class="cls-19" d="M232.35,505.87l-4.09-1.09h4c0-.3-.07-.6-.11-.9l0-.22H166.42c0,.37,0,.74-.07,1.12h1.86c0,.37-.05.74-.07,1.11h22.47a2.45,2.45,0,0,0,0-.27,1.49,1.49,0,0,0,0-.21l0-.23c0-.14,0-.27,0-.4h7.46l.26.34a1.09,1.09,0,0,0,.13.17l.17.24.27.34,0,0h33.31Zm0,0-4.09-1.09h4c0-.3-.07-.6-.11-.9l0-.22H166.42c0,.37,0,.74-.07,1.12h1.86c0,.37-.05.74-.07,1.11h22.47a2.45,2.45,0,0,0,0-.27,1.49,1.49,0,0,0,0-.21l0-.23c0-.14,0-.27,0-.4h7.46l.26.34a1.09,1.09,0,0,0,.13.17l.17.24.27.34,0,0h33.31Zm-110.41-8.46,0,.06,4.77,8.42H269.8v-8.48Zm6.1,6.25-2.26-4H267.57v4Z"/><polygon class="cls-19" points="269.81 493.74 112.06 493.74 115.46 497.47 269.81 497.47 269.81 493.74"/><polygon class="cls-4" points="270.44 375.77 266.98 369.99 442.68 369.99 439.22 375.77 270.44 375.77"/><path class="cls-15" d="M265,368.87l4.79,8H439.85l4.8-8Zm6.06,5.78L269,371.11H440.71l-2.13,3.54Z"/><polygon class="cls-15" points="453.14 364.3 256.92 364.3 260.32 368.87 449.75 368.87 453.14 364.3"/><rect class="cls-4" x="270.67" y="377.76" width="168.32" height="267.15"/><path class="cls-15" d="M438.12,512.4v57.73H439V513Zm0,81.72v16.74l.28,0h.06a.76.76,0,0,1,.28,0h0l0,0,0,0,0,0a.36.36,0,0,1,0,.09l0,.05a.56.56,0,0,0,0,.12l0,.11V594.17Zm0,16.74.28,0h.06a.76.76,0,0,1,.28,0h0l0,0,0,0,0,0a.36.36,0,0,1,0,.09l0,.05a.56.56,0,0,0,0,.12l0,.11V594.17l-.87,0Zm0-98.46v57.73H439V513ZM269.8,376.89V645.77H439.85V376.89ZM438.12,644H271.54V378.62H438.12Z"/><rect class="cls-15" x="294.8" y="581.9" width="51.63" height="63.87"/><rect class="cls-15" x="363.64" y="581.9" width="51.63" height="63.87"/><rect class="cls-15" x="282.94" y="524.71" width="140.74" height="30.5"/><path class="cls-4" d="M304.92,533.24v5.37H300v-5.37h-4v14.55h4V542.1h4.88v5.69h4V533.24Z"/><path class="cls-4" d="M326.91,537.85a7.57,7.57,0,0,0-1.48-2.37,7.28,7.28,0,0,0-2.32-1.68,6.88,6.88,0,0,0-3-.64,7.16,7.16,0,0,0-3,.61,7.52,7.52,0,0,0-2.36,1.62,7.27,7.27,0,0,0-1.54,2.34,7.14,7.14,0,0,0-.56,2.77,7.23,7.23,0,0,0,.54,2.74,7.49,7.49,0,0,0,1.49,2.37,7.41,7.41,0,0,0,2.32,1.67,7,7,0,0,0,3,.63,7.16,7.16,0,0,0,3-.61,7.39,7.39,0,0,0,3.88-4,7,7,0,0,0,.56-2.75A7.41,7.41,0,0,0,326.91,537.85Zm-3.72,4.06a4,4,0,0,1-.6,1.24,3,3,0,0,1-1,.88,3.13,3.13,0,0,1-1.5.34,3.18,3.18,0,0,1-1.49-.33,3.08,3.08,0,0,1-1-.86,3.59,3.59,0,0,1-.61-1.22,4.83,4.83,0,0,1-.21-1.42,5.57,5.57,0,0,1,.19-1.41,3.93,3.93,0,0,1,.61-1.23,3.11,3.11,0,0,1,1-.87,3.31,3.31,0,0,1,1.49-.32,3.17,3.17,0,0,1,1.46.31,3.36,3.36,0,0,1,1.05.84,3.47,3.47,0,0,1,.62,1.21,4.9,4.9,0,0,1,.21,1.43A5.63,5.63,0,0,1,323.19,541.91Z"/><path class="cls-4" d="M341.76,541.6a3.57,3.57,0,0,0-.88-1.22,6.1,6.1,0,0,0-1.39-.87,15,15,0,0,0-1.81-.67c-.42-.14-.8-.26-1.14-.35a8.09,8.09,0,0,1-.85-.3,1.56,1.56,0,0,1-.53-.34.64.64,0,0,1-.18-.47.57.57,0,0,1,.31-.55,1.87,1.87,0,0,1,.85-.16,4.51,4.51,0,0,1,1.34.21,10.88,10.88,0,0,1,1.24.46A10.32,10.32,0,0,1,340,538l1.72-3.3c-.33-.17-.7-.34-1.11-.52a13.45,13.45,0,0,0-1.32-.52q-.71-.23-1.47-.39a7.91,7.91,0,0,0-1.55-.15,6.58,6.58,0,0,0-2.06.32,5.25,5.25,0,0,0-1.73.93,4.25,4.25,0,0,0-1.2,1.54,4.77,4.77,0,0,0-.44,2.13,4.36,4.36,0,0,0,.21,1.41,3.19,3.19,0,0,0,.67,1.1,4.48,4.48,0,0,0,1.14.86,10.5,10.5,0,0,0,1.66.7c.44.16.86.29,1.24.39s.74.22,1,.33a2.6,2.6,0,0,1,.71.38.67.67,0,0,1,.25.52.52.52,0,0,1-.25.46,1.72,1.72,0,0,1-.92.18,5.77,5.77,0,0,1-1.69-.25,10.47,10.47,0,0,1-1.48-.55,12,12,0,0,1-1.5-.8l-1.72,3.5a9.5,9.5,0,0,0,1.43.7,13.47,13.47,0,0,0,1.59.53,14.18,14.18,0,0,0,1.67.35,11.67,11.67,0,0,0,1.64.13,8.48,8.48,0,0,0,2-.24,5.29,5.29,0,0,0,1.78-.77,3.88,3.88,0,0,0,1.27-1.42,4.63,4.63,0,0,0,.48-2.21A4.52,4.52,0,0,0,341.76,541.6Z"/><path class="cls-4" d="M356.67,536.45a5.21,5.21,0,0,0-1-1.62,5.26,5.26,0,0,0-1.55-1.15,4.48,4.48,0,0,0-2-.44h-6.27v14.55h4v-4.47h2.38a4.49,4.49,0,0,0,1.95-.42,4.62,4.62,0,0,0,1.52-1.12,5.1,5.1,0,0,0,1-1.62,5.27,5.27,0,0,0,.35-1.88A4.79,4.79,0,0,0,356.67,536.45Zm-4,3a.92.92,0,0,1-.69.34h-2.11v-3.11h2a1.1,1.1,0,0,1,.73.33,1.56,1.56,0,0,1,.37,1.22A1.79,1.79,0,0,1,352.67,539.5Z"/><path class="cls-4" d="M360.69,533.24v14.55h4V533.24Z"/><path class="cls-4" d="M368.19,533.24v3.49h4.2v11.06h4V536.73h4.18v-3.49Z"/><path class="cls-4" d="M391.48,533.24h-3.65l-5.06,14.55h4.08l.86-2.85h3.87l.88,2.85h4.06Zm-3.18,9,1.36-4.51,1.29,4.51Z"/><path class="cls-4" d="M403.77,544.31V533.24h-4v14.55h10.59v-3.48Z"/><rect class="cls-19" x="294.8" y="395.09" width="32.25" height="40.08"/><rect class="cls-19" x="383.01" y="395.09" width="32.25" height="40.08"/><rect class="cls-19" x="338.9" y="395.09" width="32.26" height="40.08"/><rect class="cls-19" x="294.8" y="473.35" width="32.25" height="40.08"/><rect class="cls-19" x="383.01" y="473.35" width="32.25" height="40.08"/><rect class="cls-19" x="338.9" y="473.35" width="32.26" height="40.08"/><polygon class="cls-17" points="318.8 395.09 294.8 419.08 294.8 408.17 307.88 395.09 318.8 395.09"/><polygon class="cls-17" points="309.4 473.35 320.32 473.35 294.8 498.87 294.8 487.95 309.4 473.35"/><polygon class="cls-17" points="347.59 435.17 371.16 411.59 371.16 422.51 358.5 435.17 347.59 435.17"/><polygon class="cls-17" points="398.11 395.56 383.01 410.66 383.01 399.74 387.67 395.09 397.64 395.09 398.11 395.56"/><polygon class="cls-17" points="358.31 513.43 371.16 500.59 371.16 511.5 369.23 513.43 358.31 513.43"/><polygon class="cls-17" points="409.31 473.35 383.01 499.65 383.01 488.73 398.39 473.35 409.31 473.35"/><polygon class="cls-17" points="325.68 435.17 327.05 433.79 327.05 435.17 325.68 435.17"/><polygon class="cls-17" points="371.16 395.09 371.16 396.26 338.9 428.52 338.9 421.94 365.76 395.09 371.16 395.09"/><polygon class="cls-17" points="294.8 427.92 327.05 395.67 327.05 423.73 315.62 435.17 294.8 435.17 294.8 427.92"/><polygon class="cls-17" points="355.69 395.09 338.9 411.88 338.9 395.09 355.69 395.09"/><polygon class="cls-17" points="299.54 513.43 327.05 485.92 327.05 513.43 299.54 513.43"/><polygon class="cls-17" points="339.62 473.35 367.68 473.35 338.9 502.13 338.9 474.07 339.62 473.35"/><polygon class="cls-17" points="415.27 397.7 415.27 425.77 405.87 435.17 383.01 435.17 383.01 429.96 415.27 397.7"/><polygon class="cls-17" points="415.27 481.59 415.27 509.65 411.48 513.43 383.42 513.43 415.27 481.59"/><path class="cls-18" d="M294.8,395.09v40.08h32.25V395.09Zm29.64,37.47h-27V397.7h27Z"/><path class="cls-18" d="M383,395.09v40.08h32.26V395.09Zm2.61,2.61h27v34.86h-27Z"/><path class="cls-18" d="M338.91,395.09v40.08h32.25V395.09Zm29.64,37.47h-27V397.7h27Z"/><path class="cls-18" d="M294.8,473.35v40.08h32.25V473.35Zm29.64,37.47h-27V476h27Z"/><path class="cls-18" d="M383,473.35v40.08h32.26V473.35Zm2.61,2.61h27v34.86h-27Z"/><path class="cls-18" d="M338.91,473.35v40.08h32.25V473.35Zm29.64,37.47h-27V476h27Z"/><rect class="cls-4" x="383.81" y="586.31" width="1.38" height="56.21"/><rect class="cls-4" x="312.6" y="586.31" width="1.38" height="56.21"/><polygon class="cls-4" points="270.44 577.03 266.98 571.25 442.68 571.25 439.22 577.03 270.44 577.03"/><path class="cls-15" d="M426.91,571.25l-.25.31-.2.25-.14.16c-.11.13-.22.27-.34.4h1.81c.07-.39.16-.76.24-1.12Zm0,0-.25.31-.2.25-.14.16c-.11.13-.22.27-.34.4h1.81c.07-.39.16-.76.24-1.12ZM265,570.13l3.06,5.12.87,1.45.86,1.45H439.85l4.8-8Zm6.06,5.78-.4-.67-.87-1.45-.85-1.42H440.71l-.86,1.42-.86,1.45-.41.67Z"/><polygon class="cls-15" points="453.14 565.56 256.92 565.56 260.32 570.13 449.75 570.13 453.14 565.56"/><path class="cls-4" d="M266.35,456.88a2.8,2.8,0,1,1,0-5.59H443.19a2.8,2.8,0,1,1,0,5.59Z"/><path class="cls-15" d="M446,451.32a3.89,3.89,0,0,0-2.77-1.15H266.35a3.92,3.92,0,0,0,0,7.83H443.19a3.91,3.91,0,0,0,2.77-6.68Zm-2.77,4.44H266.35a1.68,1.68,0,1,1,0-3.35H443.19a1.68,1.68,0,1,1,0,3.35Z"/><rect class="cls-4" x="267.8" y="448.3" width="173.93" height="1"/><polygon class="cls-15" points="442.6 447.44 266.94 447.44 266.94 450.17 442.6 450.17 442.6 447.44 442.6 447.44"/><rect class="cls-4" x="267.8" y="458.86" width="173.93" height="1"/><polygon class="cls-15" points="442.6 458 266.94 458 266.94 460.73 442.6 460.73 442.6 458 442.6 458"/><path class="cls-20" d="M752.27,514.67a2.08,2.08,0,0,1,.28-.85c6.6-11.27,10.1-19.89,5.74-25.32a2.13,2.13,0,1,1,3.32-2.67c6.54,8.15.65,19.83-5.39,30.15a2.13,2.13,0,0,1-4-1.31Z"/><path class="cls-20" d="M737,545.76c.7-6.34,4.44-13.36,8.24-19.84a2.13,2.13,0,1,1,3.68,2.16c-6.67,11.37-10.22,20.06-5.85,25.5,5.53,6.87,19.35,2.15,32.73-2.41,14.76-5,30-10.25,37.42-1,6.53,8.13.68,19.75-5.31,30a2.13,2.13,0,1,1-3.68-2.15c6.55-11.2,10-19.77,5.67-25.19-5.52-6.87-19.35-2.15-32.73,2.42-14.76,5-30,10.25-37.42,1A13.72,13.72,0,0,1,737,545.76Z"/><path class="cls-20" d="M788.69,610c.69-6.34,4.44-13.35,8.24-19.83a2.13,2.13,0,0,1,3.68,2.15c-6.67,11.37-10.22,20.06-5.85,25.5a2.13,2.13,0,1,1-3.32,2.67A13.72,13.72,0,0,1,788.69,610Z"/><path class="cls-20" d="M713.51,522.54a2.17,2.17,0,0,1,.78-1.43,2.13,2.13,0,0,1,3,.33c5.52,6.87,19.35,2.15,32.72-2.42,14.76-5,30-10.25,37.42-1,6.53,8.12.71,19.71-5.25,29.92a2.13,2.13,0,1,1-3.68-2.15c5.64-9.65,10.21-19.37,5.61-25.1-5.52-6.87-19.35-2.15-32.72,2.41-14.76,5.05-30,10.25-37.42,1.05A2.1,2.1,0,0,1,713.51,522.54Z"/><path class="cls-20" d="M762.89,578c.65-5.91,3.94-12.52,7.72-19a2.13,2.13,0,0,1,3.69,2.14c-5.49,9.46-9.93,19-5.36,24.67,5.52,6.87,19.35,2.15,32.72-2.41,14.76-5,30-10.25,37.42-1a2.13,2.13,0,1,1-3.32,2.66c-5.52-6.87-19.35-2.15-32.72,2.42-14.77,5-30,10.25-37.42,1A13.61,13.61,0,0,1,762.89,578Z"/><path class="cls-20" d="M796.88,615.19a1.08,1.08,0,0,1,.39-.73l35.32-28.37a1.08,1.08,0,0,1,1.35,1.68l-35.32,28.37a1.07,1.07,0,0,1-1.74-.95Z"/><path class="cls-20" d="M798.68,602.06a1.06,1.06,0,0,1,.39-.72L819.39,585a1.07,1.07,0,1,1,1.34,1.68L800.42,603a1.07,1.07,0,0,1-1.51-.17A1.06,1.06,0,0,1,798.68,602.06Z"/><path class="cls-20" d="M785,584.45a1.08,1.08,0,0,1,.39-.73l19.51-15.67a1.08,1.08,0,0,1,1.35,1.68L786.71,585.4a1.07,1.07,0,0,1-1.74-.95Z"/><path class="cls-20" d="M770.82,582.31a1.08,1.08,0,0,1,.39-.72l34.63-27.82a1.07,1.07,0,0,1,1.34,1.68l-34.62,27.82a1.07,1.07,0,0,1-1.51-.17A1,1,0,0,1,770.82,582.31Z"/><path class="cls-20" d="M771.78,568a1.1,1.1,0,0,1,.4-.73l19.5-15.67a1.08,1.08,0,1,1,1.35,1.68L773.53,569a1.09,1.09,0,0,1-1.52-.16A1.11,1.11,0,0,1,771.78,568Z"/><path class="cls-20" d="M759.83,552.88a1,1,0,0,1,.39-.73l19.51-15.67a1.08,1.08,0,0,1,1.35,1.68l-19.51,15.67a1.08,1.08,0,0,1-1.51-.16A1.06,1.06,0,0,1,759.83,552.88Z"/><path class="cls-20" d="M745.67,550.74a1.1,1.1,0,0,1,.4-.72l34.62-27.82a1.08,1.08,0,1,1,1.35,1.68L747.42,551.7a1.09,1.09,0,0,1-1.52-.16A1.12,1.12,0,0,1,745.67,550.74Z"/><path class="cls-20" d="M746.64,536.47a1.06,1.06,0,0,1,.4-.73l19.5-15.67a1.08,1.08,0,0,1,1.35,1.68l-19.51,15.67a1.08,1.08,0,0,1-1.51-.16A1.1,1.1,0,0,1,746.64,536.47Z"/><path class="cls-20" d="M733.9,520.61a1.1,1.1,0,0,1,.4-.72l19.5-15.67a1.08,1.08,0,1,1,1.35,1.68l-19.5,15.67a1.09,1.09,0,0,1-1.52-.16A1.12,1.12,0,0,1,733.9,520.61Z"/><path class="cls-20" d="M719.75,518.48a1.1,1.1,0,0,1,.4-.72l34.62-27.82a1.08,1.08,0,0,1,1.35,1.68L721.5,519.44a1.08,1.08,0,0,1-1.75-1Z"/><path class="cls-20" d="M896.84,97.57,837.79,81.05A16.33,16.33,0,0,1,826.49,61l8.71-31.14a16.33,16.33,0,0,1,20.09-11.3l59.05,16.53a16.32,16.32,0,0,1,11.3,20.09l-8.71,31.13A16.33,16.33,0,0,1,896.84,97.57ZM854.36,21.84a12.87,12.87,0,0,0-15.84,8.91l-8.71,31.14a12.85,12.85,0,0,0,8.91,15.84l59,16.53a12.87,12.87,0,0,0,15.84-8.92l8.72-31.13a12.87,12.87,0,0,0-8.92-15.85Z"/><path class="cls-20" d="M870.75,77A19.71,19.71,0,1,1,895,63.36,19.74,19.74,0,0,1,870.75,77Zm9.85-35.2a16.84,16.84,0,1,0,11.68,20.76A16.86,16.86,0,0,0,880.6,41.83Z"/><rect class="cls-20" x="872.5" y="48.23" width="7.13" height="19.63" transform="translate(48.07 -233.98) rotate(15.64)"/><rect class="cls-20" x="872.5" y="48.23" width="7.13" height="19.63" transform="translate(1168.1 -769.95) rotate(105.64)"/><path class="cls-20" d="M906,24.54h0a3.57,3.57,0,0,1-4.4,2.47l-31.21-8.74a3.55,3.55,0,0,1-2.47-4.39h0a3.56,3.56,0,0,1,4.39-2.47l31.22,8.74A3.57,3.57,0,0,1,906,24.54Z"/><path class="cls-21" d="M394.14.32,327.61,0a11.18,11.18,0,0,0-11.23,11.13l-.08,16.62A11.18,11.18,0,0,0,327.42,39h2.68L330,58.75,330,65l17.85-25.9,46.12.22a11.19,11.19,0,0,0,11.24-11.13l.08-16.62A11.19,11.19,0,0,0,394.14.32Z"/><g id="baby"><path class="cls-22" d="M476.17,43.09,332.66,134.68S310.59,264.82,422,298.33c124.44,37.42,225.32-53.83,231.77-90.4l-71-164.84C552.79,65.89,500.94,72.66,476.17,43.09Z"/><path class="cls-6" d="M534.31,192.36c-2-3.31-26.92-12.88-30.64-16.3C491.59,165,479.93,149.4,482,146.47a60.1,60.1,0,0,0,5.51-10.92c1.15-2.88,2.84-4.32,1.59-5.46-1.52-1.38-7.36,6.6-9,5.45-1.9-1.33.22-14.14-2.25-14.68s-2.92,6.14-5.19,8.34-5.19-8.89-7.84-7.95c-3.84,1.36,1.49,9-.65,11.29-1.34,1.47-7.32-5.21-8.48-3s4.56,7.54,2.77,9.27-4.67-.76-5.3.55c-1.45,3,11.72,10.61,12.93,13.1s4.65,29.18,12.95,37.77C501.68,213.65,543.1,206.54,534.31,192.36Z"/><path class="cls-6" d="M536.19,73.61c-16.53,4.49-29.59,19.22-31.9,27.93-2.93,11.08.11,16.58-2,21.22-2.25,5-13.1,8.56-12.53,12.73.5,3.65,4.36,5.27,4,6.7-.18.62-3.16,2.43-3.14,4.64,0,.91,1.88,2.14,1.65,2.56s-1.59,1.18-1.74,2c-.45,2.64,2.44,4,2.77,5.12.57,2-.52,4.38,2.27,8.26,6.94,9.69,38,15.07,63,2.52,37.55-18.79,49.25-56,32.32-77.52C578.75,74.4,556.66,68,536.19,73.61Z"/><path class="cls-6" d="M525.33,172.72c-56.61.21-62.08,29.91-64.92,29.09-1.93-.56-6.77-25.13-27.74-25.25-26.84-.16-39.61,46.59-49.63,48.64-10.33,2.12-19.27-2.79-21.88,2-2.81,5.17,22.66,24.64,31.45,21,3.62-1.49,2.91-3.71,4.61-4.91,6.51-4.59,22.92-5.22,32.66-8.18,2.42,19.55,24.53,34.52,33.83,37.77,26,9.11,65.85-6.85,88.93-51.85,10.55-20.56,8.47-39.08,10-46.09,2.92-13.34,11.91-16.13,18.5-23.94C586.11,145.13,557,172.6,525.33,172.72Z"/><path class="cls-6" d="M477.41,199.28c-2-14.34-16.22-45.23-26.84-49.44-22.19-8.79-53.42,7.53-58.95,2-7.43-7.47-6.08-17.21-13.68-17.19-5.89,0-8.18,32.47-.33,37.83,3.24,2.21,4.7.39,6.64,1.16,12.37,4.89,25.4,19.61,44.09,24.66C469.28,209.34,477.41,199.28,477.41,199.28Z"/><path class="cls-6" d="M539.32,188.29c-8-7.6-38.64-3.13-43.41-4.81-15.46-5.46-32.29-15.22-31.53-18.72a60.14,60.14,0,0,0,.78-12.21c-.08-3.09.92-5.08-.68-5.64-1.94-.68-4.18,9-6.16,8.54-2.27-.47-5.35-13.09-7.83-12.61s-.28,6.79-1.5,9.71-8.27-6.15-10.33-4.24c-3,2.76,4.88,7.67,3.83,10.64-.66,1.88-8.78-1.92-9,.52s7.15,5.14,6.19,7.44-4.6,1.14-4.66,2.58c-.14,3.36,14.94,5.16,17,7s17.7,29.95,37.47,36.9C520.3,224.19,551.41,199.79,539.32,188.29Z"/><path class="cls-23" d="M505.46,216.92a48.92,48.92,0,0,1-16.23-2.74C473,208.47,459.66,188.91,454,180.56a35.44,35.44,0,0,0-2.48-3.44c-.64-.56-3.55-1.31-6.11-2-6.84-1.76-11.32-3.11-11.21-5.7.06-1.34,1.42-1.56,2.41-1.73,1.19-.19,2-.38,2.32-1.15.24-.57-1.62-1.95-2.73-2.78-1.89-1.41-3.68-2.74-3.52-4.4a1.58,1.58,0,0,1,.64-1.17c1-.77,2.89-.41,5.05,0a11.4,11.4,0,0,0,3.38.37c.22-.91-1-2.49-2.07-3.9-1.69-2.2-3.8-4.95-1.56-7,1.54-1.42,3.91.4,6.42,2.32,1.08.83,3.1,2.38,3.67,2.27l0-.06a4.24,4.24,0,0,0,.24-.91.86.86,0,1,1,1.69.27,5.21,5.21,0,0,1-.35,1.31,1.72,1.72,0,0,1-1.15,1.05c-1.36.36-3.13-1-5.18-2.57-1.12-.85-3.73-2.86-4.21-2.42-1,.93,0,2.47,1.76,4.71,1.44,1.88,2.93,3.82,2.3,5.59-.56,1.58-2.86,1.14-5.29.67-1.15-.22-3.29-.64-3.7-.32,0,.66,1.72,2,2.88,2.83,2,1.48,4,3,3.28,4.82s-2.46,2-3.62,2.17a7.63,7.63,0,0,0-1,.21c.24,1.37,6.75,3,9.91,3.87,3.64.94,5.92,1.55,6.82,2.33a28.7,28.7,0,0,1,2.77,3.78c5.6,8.21,18.71,27.43,34.42,33a48.17,48.17,0,0,0,31.26.08.85.85,0,0,1,1.09.53.86.86,0,0,1-.54,1.09A50.53,50.53,0,0,1,505.46,216.92Z"/><path class="cls-23" d="M525.07,184.85H525a174.21,174.21,0,0,0-17.91-.2c-5.67.14-9.77.23-11.46-.36a129.65,129.65,0,0,1-24.13-11.46.86.86,0,0,1-.27-1.18.87.87,0,0,1,1.19-.27,127.46,127.46,0,0,0,23.78,11.29c1.4.49,5.78.39,10.84.27a178,178,0,0,1,18.1.2.86.86,0,0,1-.07,1.71Z"/><path class="cls-23" d="M526.38,175.52a71.24,71.24,0,0,1-11-.82.86.86,0,0,1-.72-1,.85.85,0,0,1,1-.71,73.47,73.47,0,0,0,19.57.27.86.86,0,0,1,1,.75.85.85,0,0,1-.75.95A76.69,76.69,0,0,1,526.38,175.52Z"/><path class="cls-23" d="M459.88,201.84a2.26,2.26,0,0,1-1.64-.75.88.88,0,0,1-.2-.3c-5.55-14.8-17.79-27.53-32.65-22.6a44.35,44.35,0,0,0-14.47,10.41.86.86,0,1,1-1.25-1.17,46,46,0,0,1,15.06-10.83l.08,0c15.89-5.29,28.89,7.92,34.77,23.42a.43.43,0,0,0,.32.13c.53,0,1.36-1,2-1.69a9.09,9.09,0,0,1,1.33-1.36.85.85,0,0,1,1.2.19.84.84,0,0,1-.19,1.19,8.16,8.16,0,0,0-1,1.1c-.9,1-1.92,2.24-3.21,2.29Z"/><path class="cls-23" d="M489.13,179.23a.86.86,0,0,1-.3-1.67,80.22,80.22,0,0,1,10.4-3,.86.86,0,1,1,.38,1.67,78.39,78.39,0,0,0-10.18,3A.8.8,0,0,1,489.13,179.23Z"/><path class="cls-6" d="M448.12,137.19a2.57,2.57,0,0,1-2.48-1.89,86.72,86.72,0,0,1-2.79-30.14,96.8,96.8,0,0,1-11.24,4.72c-23.56,8.13-45.13,4.93-60.75-9A2.57,2.57,0,0,1,374.29,97c19.11,17.07,43.06,12.34,55.64,8a91.8,91.8,0,0,0,13.66-6,78.94,78.94,0,0,1,1.82-8.46c3.36-12.33,9.3-22.25,15.89-26.54,4.39-2.85,8.87-2.89,12.29-.09a9,9,0,0,1,3,8.9c-1.65,9.21-13.31,20.89-28.23,29.44a81.69,81.69,0,0,0,2.28,31.7,2.58,2.58,0,0,1-1.8,3.16A2.71,2.71,0,0,1,448.12,137.19ZM467.87,67a7,7,0,0,0-3.76,1.36c-5.4,3.51-10.79,12.76-13.74,23.57-.33,1.21-.63,2.42-.89,3.65,12.2-7.78,20.86-17.24,22-23.63.42-2.4-.46-3.44-1.16-4A3.66,3.66,0,0,0,467.87,67Z"/></g><g id="plant"><path class="cls-6" d="M882.43,535.18c-3.35-9.95-22.08-2.4-29.7-23.19-1.57-4.26,14.68-11.64,14.36-16.7-.16-2.37-17.16-2.22-17.24-4.69-.93-29,13-48.91,7.53-66-1.92-6,10.58-6.23,9.13-10.9-.49-1.6-13,1.64-14.13.36-6.52-7.48-20.54-21.64-23-30.15-1.8-6.23-.68-16.2.67-25.62.29-2.06,13.07-1.59,13.36-3.55,1-6.48-12.87-1.93-13.28-5.24-1.14-9.12-14.13-43,.71-48.77,11.07-4.31,39.71,39.06,43.21,50.61.41,1.33-10.35,13-9,14.06,1.22.91,15.2-9.3,16.61-8.31,10.89,7.71,26.32,18,29.7,28.25,4.31,13.15-4.9,38.07-3.48,46.34,2.21,12.92,20.6,36.69,24,60.84.2,1.49-17.63-2-17.54-.55.16,2.59,18.1,10.19,17.82,12.76-.2,1.87-32.79-13.6-33.25-11.75-.61,2.45,30.81,22.21,29.68,24.6-8.62,18.24-24.37,11.53-31.79,11.24S882.43,535.18,882.43,535.18Z"/><path class="cls-6" d="M880.65,504.41c1-.24,2-.46,3-.65,1.42,33.69.28,64.27-2.1,83.79a1.9,1.9,0,1,1-3.77-.47C880.38,565.61,881.63,536.07,880.65,504.41Z"/><path class="cls-4" d="M840.48,335.34c.63-.55,1,.19,2.79,2.29,26,33.18,37,100.38,40.07,159.67-1,.18-2,.38-2.93.6-2.39-58.77-12.56-123.35-36-156.69-1.76-2.39-2.63-3.4-3.93-4.95A.64.64,0,0,1,840.48,335.34Z"/><path class="cls-4" d="M864.69,551.61c-6.81-8.66-21.5,4.46-37.59-12.29-1.14-1.2,17.31-11.75,16.38-13.17-1.47-2.25-22.17,4.49-23.19,1.78-6.79-18-5-44.93-11.57-63.28-.59-1.64,11.78-10.2,11-11.69-.91-1.84-14.94,3.46-16,1.88-9.52-13.78-25.48-18.45-36.78-26.43-1.84-1.3,14-20.07,12.5-21.6-1.07-1.06-19.66,15.2-20.55,14-7.82-10.63-8.13-26.14-9.83-36.93-.42-2.71,9.68-6.85,8.94-8.81-.59-1.55-11.93-1.1-12.86-2-6.86-6.76-23.89-24.72-14.08-35.18,1.24-1.33,9.51,10.67,10.93,10.15,1.85-.68-3.11-13.6-1-13.13,11.92,2.69,27.52,21.77,42.87,32.77,1.24.89-4.07,15.67-2.83,16.44s9.3-12.31,10.67-11.63c11.25,5.58,39.26,9.48,49,20.26.7.78-26,21.52-25.41,22.46.75,1.2,28.75-17.37,29.33-16,5.32,12.73,4.63,33,8.94,40.66,6.73,12,33.32,28.94,45.18,51.65.73,1.4-18.18,4.32-17.57,5.76,1.07,2.51,21.52,3.59,22.15,6.24.46,1.92-37.28-1.68-37.08.31.25,2.65,38.33,10.93,38.06,13.7-2.12,21.17-20.09,20.19-27.54,22.57S864.69,551.61,864.69,551.61Z"/><path class="cls-6" d="M864.69,552.27a.65.65,0,0,1-.51-.25c-2.64-3.35-6.61-3.18-11.64-3-7.27.31-16.33.7-25.9-9.27a.84.84,0,0,1-.23-.69c.1-1,2-2.41,8.31-6.73,2.87-2,7.09-4.83,8-5.93a10.1,10.1,0,0,0-3.25.08c-2,.25-4.57.75-7.06,1.24-8.35,1.62-12.08,2.15-12.73.41-3.47-9.18-4.72-20.82-5.94-32.08-1.18-10.92-2.4-22.22-5.63-31.21-.41-1.14,1.26-2.73,5.79-6.64,1.89-1.64,4.68-4.05,5.18-5a7.71,7.71,0,0,0-2.42.16c-1.44.24-3.25.68-5,1.09-5.45,1.31-7.75,1.73-8.46.7-6.42-9.28-15.75-14.34-24.77-19.24a119.29,119.29,0,0,1-11.86-7,1,1,0,0,1-.4-.67c-.24-1.36,1.91-4.6,6.52-11.15,1.59-2.26,3.23-4.59,4.41-6.45a19.29,19.29,0,0,0,1.69-3.06,112.37,112.37,0,0,0-9.26,6.74c-7.21,5.58-9.62,7.3-10.61,7.16a.82.82,0,0,1-.54-.32c-6.4-8.7-7.87-20.76-9-30.46-.29-2.4-.57-4.67-.9-6.77-.29-1.84,2.38-3.65,5.21-5.57,1-.71,2-1.37,2.75-2s1-1,1-1.11c-.7-.53-4.92-.79-7-.92-3.73-.22-5.19-.36-5.72-.87-6-5.91-10.51-11.41-13.39-16.34-4.91-8.38-5.14-15-.7-19.76a1,1,0,0,1,.74-.31c1.11,0,2.7,1.73,6.07,5.62a37.06,37.06,0,0,0,4.34,4.57c.2-.95-.56-4.29-1-6.14-1-4.17-1.27-5.94-.57-6.65a1,1,0,0,1,.94-.26c7.61,1.71,16.52,9.82,26,18.39a201.38,201.38,0,0,0,17.14,14.48c.87.62.53,2.49-1.18,9a57.31,57.31,0,0,0-1.57,7.11,45.79,45.79,0,0,0,4.5-5.49c3.67-4.89,4.94-6.43,6-5.9,3.89,1.92,9.94,3.69,16.35,5.56,12.36,3.61,26.38,7.7,32.81,14.85a.68.68,0,0,1,.18.53c0,.39-.05.71-4.13,4.23-2.33,2-5.49,4.64-8.56,7.18-3.8,3.15-8.64,7.16-11.14,9.44,2.84-1.49,7.85-4.51,11.8-6.89,3.44-2.08,7-4.22,9.76-5.78,4.48-2.54,5.19-2.62,5.66-2.46a.72.72,0,0,1,.47.43c2.76,6.6,3.93,15.27,5,22.92,1,7.22,1.9,14,4,17.68,2.72,4.85,8.82,10.59,15.88,17.24,9.93,9.34,22.28,21,29.31,34.43a.84.84,0,0,1,0,.74c-.38.86-2.4,1.45-9.15,3.06a64.36,64.36,0,0,0-8.12,2.24,11.17,11.17,0,0,0,3,1c2,.47,4.58.92,7.1,1.35,7.9,1.36,11.4,2.12,11.78,3.72a.82.82,0,0,1-.16.71c-.34.42-1.07.76-6.51.68-3.35,0-7.81-.24-12.13-.43s-8.74-.38-12.18-.44a43.1,43.1,0,0,0-5.62.15,31.57,31.57,0,0,0,5.38,2.11c3.38,1.11,7.85,2.4,12.17,3.65,4.83,1.39,9.83,2.83,13.53,4.09,5.6,1.89,6.61,2.77,6.51,3.72-1.79,17.93-14.73,20.42-23.28,22.06a44.48,44.48,0,0,0-4.7,1.07c-7.09,2.27-11.61,11.07-11.65,11.16a.64.64,0,0,1-.51.35Zm-8.79-4.63c3.41,0,6.38.47,8.67,2.83,1.35-2.35,5.61-8.94,12-11a42.13,42.13,0,0,1,4.84-1.11c8.65-1.66,20.49-3.94,22.23-20.79-.21-.25-1.22-1-6.23-2.66-3.6-1.19-8.31-2.55-12.87-3.87s-9.23-2.66-12.69-3.82c-5.67-1.89-6.19-2.63-6.26-3.33a.83.83,0,0,1,.23-.65c.84-.91,5.35-.86,19.39-.24,6.23.27,14.51.63,17,.31a12.68,12.68,0,0,0-2.92-1c-2-.5-4.74-1-7.34-1.41-7.46-1.28-10.79-2-11.39-3.4a.9.9,0,0,1,0-.72c.43-.86,2.48-1.46,9.29-3.08,2.83-.68,7-1.67,8.09-2.26-7-13.11-19.09-24.53-28.86-33.73-7.14-6.72-13.3-12.52-16.12-17.55-2.17-3.87-3.11-10.81-4.1-18.15s-2.14-15.81-4.72-22.2c-1.76.56-8.89,4.85-14.19,8-3.45,2.08-7,4.24-9.7,5.75-1.45.81-2.54,1.39-3.32,1.75s-1.8.83-2.23.14.16-1.17,1.07-2.05c.66-.65,1.63-1.52,3-2.67,2.46-2.13,5.82-4.92,9.08-7.62,4.86-4,10.83-9,12.06-10.38C833.53,386.16,820,382.2,808,378.7c-6.38-1.86-12.41-3.62-16.4-5.57-.77.42-3,3.43-4.54,5.44-3.27,4.36-4.78,6.24-5.84,6.24a.86.86,0,0,1-.49-.15c-.91-.56-.6-2.29,1.11-8.83.71-2.74,1.78-6.83,1.59-7.71a203.17,203.17,0,0,1-17.17-14.5c-9.2-8.36-17.89-16.26-25.11-18a28.62,28.62,0,0,0,.92,5.27c1.06,4.63,1.59,7.27.19,7.78-1,.37-2.3-1-5.79-5-1.56-1.81-4.14-4.79-5-5.14-3.86,4.25-3.53,10.32,1,18.05,2.82,4.83,7.25,10.22,13.16,16a25.92,25.92,0,0,0,4.91.53c5.31.32,7.69.59,8.12,1.74.54,1.43-1.47,2.79-4.24,4.67-1.92,1.3-4.81,3.27-4.65,4.27.33,2.12.61,4.41.9,6.82,1.21,9.94,2.58,21.19,8.62,29.58,1.29-.49,6-4.14,9.5-6.84,8.8-6.8,10.36-7.78,11.17-7,1,1-.4,3.36-6.16,11.55-1.61,2.29-3.27,4.65-4.47,6.55-1.53,2.4-1.8,3.25-1.83,3.52A118.51,118.51,0,0,0,779,434.81c9.15,5,18.6,10.09,25.2,19.61.72.34,4.72-.61,7.12-1.19,5.9-1.4,8.36-1.85,9-.57.55,1.11-1,2.6-5.6,6.57-2.07,1.78-5.16,4.45-5.39,5.27,3.26,9.13,4.49,20.47,5.67,31.44,1.21,11.17,2.46,22.72,5.86,31.74.06.07.58.46,3.69.09,2.16-.26,4.92-.8,7.59-1.31,7.58-1.48,11-2,11.85-.68.75,1.14-1.07,2.56-8.57,7.67-2.92,2-6.86,4.67-7.64,5.66,9.08,9.29,17.72,8.92,24.68,8.63C853.66,547.69,854.8,547.64,855.9,547.64Z"/><path class="cls-4" d="M895,552.59c3.84-7.86,18.52.45,27.07-15.91,1.75-3.35-10.9-11.24-10.08-15.4.38-1.94,14.43.06,14.76-2,3.9-23.89-5.5-41.88.89-55.42,2.23-4.74-8.09-6.32-6.39-10,.58-1.26,10.6,2.79,11.66,1.86,6.19-5.48,19.32-15.64,22.26-22.41,2.16-4.95,2.32-13.33,2.22-21.27,0-1.73-10.65-2.75-10.67-4.4-.1-5.47,10.85-.18,11.54-2.87,1.93-7.42,16.32-34,4.67-40.42-8.7-4.79-37,27.93-41.2,37.1-.47,1.06,7.17,11.92,5.91,12.62s-11.58-9.37-12.85-8.7c-9.84,5.18-23.7,12-27.61,20.1-5,10.4,0,32-2.11,38.71-3.22,10.44-21,28.08-26.4,47.68-.33,1.21,14.8.26,14.57,1.48-.41,2.12-16.07,6.43-16.12,8.59,0,1.57,28.59-7.64,28.77-6.06.24,2.1-27.87,15-27.19,17.08,5.16,16,18.91,12.22,25.07,12.8S895,552.59,895,552.59Z"/><path class="cls-6" d="M895,553.25a.67.67,0,0,1-.5-.24c-.05-.06-5-6.07-10.79-6.61a33.18,33.18,0,0,0-3.79,0c-7,.18-17.44.45-21.84-13.22-.26-.81.36-1.68,4.48-4.16,2.67-1.6,6.29-3.56,9.81-5.46,3.1-1.68,6.31-3.42,8.73-4.85a34.5,34.5,0,0,0,3.55-2.3c-2.4.31-8.58,2-13.29,3.21-11.41,3-13.87,3.53-14.59,2.94a.76.76,0,0,1-.3-.62c0-1.4,2.51-2.54,8.59-5,1.83-.75,3.73-1.52,5.16-2.2a12.41,12.41,0,0,0,2-1.16c-1.26-.21-4.27-.26-6.37-.3-5.63-.1-7.22-.22-7.7-.87a.78.78,0,0,1-.13-.69c3.2-11.64,10.84-22.76,17-31.69,4.36-6.34,8.12-11.81,9.42-16,.78-2.55.5-7.5.17-13.22-.51-9-1.1-19.18,2-25.59,3.72-7.76,15.94-14.15,25.76-19.28l2.13-1.11c.9-.47,2.4.55,7.45,4.6A60.48,60.48,0,0,0,927,413.2a54.25,54.25,0,0,0-3.13-5.92c-2.47-4.25-3.06-5.4-2.74-6.11,3.53-7.81,25.06-33.44,36.92-37.43,2.11-.72,3.86-.71,5.18,0a9,9,0,0,1,4.47,6.27,23,23,0,0,1-.14,9c-1.15,6.45-4,13.73-6.17,19.05-1.13,2.85-2.11,5.31-2.51,6.84s-2.72,1.39-5.37,1.05c-2.09-.26-4.7-.59-5.69.31a1.61,1.61,0,0,0-.46,1.27c.42.49,3.12,1.18,4.74,1.59,3.78,1,5.91,1.57,5.93,2.88.1,8.25-.1,16.57-2.27,21.55-2.46,5.65-11.68,13.47-18.41,19.18-1.49,1.26-2.89,2.45-4,3.45-.71.62-2.29.27-6.3-.83-1.71-.46-4.51-1.23-5.25-1.1-.37,1.08.83,2,2.83,3.39,2.24,1.55,5,3.47,3.6,6.5-3.25,6.89-2.29,15.14-1.17,24.68,1,8.93,2.22,19.06.34,30.57-.25,1.51-3,1.58-8.13,1.58-2.11,0-6,0-6.64.49-.26,1.73,2.62,4.67,5.16,7.27,3.2,3.29,6,6.12,4.86,8.24-5.19,9.94-12.58,11-18.52,11.92-4,.59-7.11,1.06-8.53,4a.64.64,0,0,1-.51.36ZM882,545a17.12,17.12,0,0,1,1.81.07c5.17.48,9.5,4.68,11.06,6.38,1.87-2.8,5.21-3.29,9-3.86,5.65-.84,12.68-1.88,17.56-11.23.66-1.27-2.28-4.28-4.64-6.7-3.07-3.15-6-6.12-5.5-8.52.28-1.43,2.9-1.5,7.92-1.49,1.62,0,3.3,0,4.61-.09a5,5,0,0,0,2.24-.44c1.83-11.31.67-21.32-.36-30.14-1.14-9.75-2.12-18.17,1.29-25.41.88-1.87-.68-3.13-3.17-4.84-2-1.38-4.24-2.93-3.22-5.17.49-1.06,2.23-.7,6.72.53,1.81.49,4.54,1.23,5.14,1.07,1.14-1,2.53-2.19,4-3.44,6.63-5.62,15.72-13.33,18.06-18.7,2.06-4.74,2.26-12.86,2.16-20.94-.4-.53-3.24-1.25-4.94-1.68-3.75-1-5.71-1.52-5.73-2.78a2.92,2.92,0,0,1,.89-2.34c1.44-1.3,4.12-1,6.72-.63,1.52.19,3.81.48,4-.08a71,71,0,0,1,2.56-7c4.15-10.44,11.09-27.9,2.42-32.67-1-.55-2.39-.53-4.15.06-4.9,1.65-12.54,7.8-21,16.86-6.94,7.46-13.28,15.75-15.14,19.78a35.14,35.14,0,0,0,2.63,5c2.56,4.42,3.65,6.46,3.38,7.45a.9.9,0,0,1-.43.57c-.83.46-2.11-.45-6.82-4.23-2.12-1.7-5.3-4.24-6.13-4.41l-2,1.06c-9.65,5-21.66,11.31-25.19,18.69-2.93,6.1-2.33,16.54-1.85,24.94.34,5.85.62,10.9-.23,13.68-1.36,4.39-5.17,9.94-9.59,16.37-6,8.74-13.46,19.59-16.68,30.86a55.86,55.86,0,0,0,6.48.33c5.68.1,7.29.21,7.81.86a.78.78,0,0,1,.16.66c-.24,1.26-2.72,2.39-8.33,4.67-1.89.77-3.84,1.56-5.32,2.28a14,14,0,0,0-1.79,1c2.38-.35,8.17-1.89,12.6-3.07,11-2.92,14.31-3.68,15.17-3.09a.83.83,0,0,1,.34.57c.08.73-.57,1.52-4.36,3.78-2.49,1.48-5.9,3.33-9.2,5.12s-6.65,3.6-9.23,5.12c-3.43,2-4.21,2.81-4.39,3.07,4.13,12.6,13.6,12.35,20.52,12.17Z"/><path class="cls-6" d="M890,596l0-2.43c0-.8,0-1.78.09-2.94s.09-2.48.17-4c.15-3,.37-6.57.69-10.69s.76-8.77,1.31-13.82,1.22-10.52,2-16.29S896,534,897.11,527.76c.53-3.13,1.11-6.31,1.71-9.52s1.24-6.46,1.92-9.72c1.35-6.53,2.84-13.14,4.45-19.71s3.38-13.11,5.26-19.51,3.88-12.64,6-18.63c.54-1.49,1.06-3,1.61-4.43.28-.73.55-1.46.82-2.18s.55-1.44.83-2.15c.14-.36.28-.71.41-1.07l.43-1,.84-2.09c.29-.69.57-1.38.86-2.06s.56-1.35.86-2c2.31-5.34,4.69-10.31,7.09-14.78A132.3,132.3,0,0,1,937.36,407a89.82,89.82,0,0,1,6.49-8.5l.71-.81.34-.39.35-.37,1.27-1.35c.19-.21.39-.4.58-.59l.55-.54c.35-.34.66-.66,1-.93l1.81-1.63a.56.56,0,0,1,.79,0,.57.57,0,0,1,0,.79l0,0-1.76,1.62-.92.92-.53.54c-.19.18-.38.37-.57.58l-1.24,1.34-.33.37-.34.39-.69.81a89.69,89.69,0,0,0-6.31,8.44,133.75,133.75,0,0,0-7,11.83c-2.34,4.45-4.64,9.41-6.88,14.73-.29.67-.56,1.34-.84,2s-.55,1.36-.83,2l-.81,2.08c-.14.35-.28.7-.41,1.06s-.27.7-.4,1.06l-.81,2.14-.78,2.18c-.54,1.45-1,2.93-1.56,4.42-2,6-4,12.21-5.78,18.59s-3.49,12.91-5,19.47-3,13.16-4.23,19.67c-.64,3.26-1.24,6.5-1.81,9.7s-1.11,6.37-1.61,9.49c-1,6.24-1.87,12.29-2.62,18s-1.36,11.18-1.85,16.21-.88,9.65-1.16,13.74-.46,7.67-.57,10.61c-.06,1.47-.1,2.78-.13,3.92s0,2.1-.06,2.89c0,1.58,0,2.43,0,2.43a1.67,1.67,0,1,1-3.34,0Z"/><path class="cls-6" d="M871.69,599.34s-.09-.87-.27-2.51c-.1-.83-.22-1.82-.36-3-.07-.59-.16-1.23-.25-1.91s-.18-1.39-.29-2.15c-.41-3-1-6.73-1.69-10.94s-1.61-9-2.68-14.12-2.35-10.71-3.81-16.57-3.13-12-5-18.32-3.91-12.8-6.16-19.34-4.69-13.12-7.28-19.64-5.36-13-8.27-19.24c-.72-1.57-1.47-3.12-2.2-4.66-.38-.77-.75-1.54-1.12-2.3-.19-.39-.38-.77-.56-1.15l-.57-1.13-1.14-2.26-1.15-2.24c-.19-.37-.38-.74-.58-1.11l-.58-1.09c-.39-.73-.78-1.46-1.16-2.19-.8-1.44-1.56-2.87-2.36-4.28L823,447.1l-1.2-2.06-.59-1-.6-1c-.41-.67-.8-1.34-1.2-2l-1.21-2-.6-1-.61-1c-3.22-5.08-6.44-9.77-9.58-14s-6.18-7.93-9-11.12-5.38-5.87-7.56-8c-.54-.54-1.07-1-1.56-1.5s-1-.91-1.39-1.3l-1.22-1.11-.53-.48-.49-.43-1.9-1.63h0a.66.66,0,0,1-.07-.93.65.65,0,0,1,.91-.08l1.93,1.64.5.42.54.49,1.24,1.1c.45.39.92.84,1.42,1.31s1,1,1.59,1.5c2.22,2.13,4.84,4.81,7.71,8s6,6.93,9.17,11.14,6.49,8.9,9.78,14c.21.32.42.64.62,1l.62,1c.4.65.82,1.3,1.23,2l1.23,2,.61,1,.61,1c.41.69.81,1.38,1.23,2.07l1.21,2.1c.82,1.4,1.6,2.84,2.41,4.28l1.19,2.19.6,1.1.59,1.11,1.18,2.23,1.16,2.27.59,1.14.57,1.14,1.15,2.31c.75,1.55,1.52,3.1,2.25,4.67,3,6.27,5.82,12.74,8.5,19.27s5.19,13.13,7.5,19.69S858,522.7,859.94,529s3.66,12.51,5.18,18.39,2.85,11.47,4,16.65,2.07,10,2.84,14.2,1.36,8,1.81,11c.11.76.21,1.49.31,2.17s.19,1.33.26,1.93c.16,1.19.3,2.22.39,3,.2,1.64.31,2.51.31,2.51a1.69,1.69,0,0,1-1.46,1.88,1.66,1.66,0,0,1-1.86-1.47Z"/><path class="cls-24" d="M912.23,585l-1.9,3.61s-1.28,38.1-10.77,38.1H865c-9.37,0-10.77-37.62-10.77-37.62l-1.9-4.09a1.52,1.52,0,0,1,1.52-1.54h56.83A1.52,1.52,0,0,1,912.23,585Z"/><path class="cls-6" d="M895.13,585l-1.91,3.61s-1.28,38.1-10.76,38.1H865c-9.37,0-10.77-37.62-10.77-37.62l-1.9-4.09a1.52,1.52,0,0,1,1.52-1.54H893.6A1.53,1.53,0,0,1,895.13,585Z"/></g><path class="cls-5" d="M256.17,65l6.09-17L244.73,51.3,249,54.22l-5.79,4.41A16.9,16.9,0,1,0,247.36,64l6-4.59Zm-24,16.56a10.2,10.2,0,1,1,10.2-10.2A10.21,10.21,0,0,1,232.16,81.6Z"/><path class="cls-25" d="M745.72,68.75l-5.32-5.42,3.92-3.85-4.72-4.81-3.92,3.85-3.2-3.26a16.93,16.93,0,0,0-2-21.34A16.93,16.93,0,1,0,718.29,62.7h.16A16.85,16.85,0,0,0,727.67,60l3.21,3.26-4,3.94L731.57,72l4-3.95,5.33,5.43ZM718.36,56a10.2,10.2,0,0,1,.09-20.39h.09A10.2,10.2,0,0,1,718.36,56Z"/><path class="cls-26" d="M117.77,343H297c12.54-4.9,17.73-27.17,3.9-30.41-7-1.64-38.43,13.89-44.82,10.54-5.29-2.78,1.14-23.05-14-23.05-21.36,0-52.95,31.49-67,31.49s-17.69-7.12-29.54-7.48S117.77,343,117.77,343Z"/><path class="cls-26" d="M93.92,271.05H206.84c7.91-3.09,11.18-17.12,2.46-19.16-4.4-1-24.21,8.75-28.24,6.64-3.33-1.75.72-14.52-8.81-14.52-13.46,0-33.37,19.84-42.23,19.84s-11.15-4.49-18.62-4.72S93.92,271.05,93.92,271.05Z"/><path class="cls-26" d="M0,310.3H96.39c3.88-4.89-4.38-18.79-15.86-19.28s-36.44,13.51-44,13.51-15.22-4.21-21.6-4.4S0,310.3,0,310.3Z"/><path class="cls-27" d="M422.5,321.38a34.18,34.18,0,0,1,4.22-2.3c1.71-.59,10.53,9,18.44,8.61,3.15-.15,17.16-4.15,19.65-7.06s-10.32-3.3-12.61-4-15.28-6-13-7.83,10.84,2.84,12.34-2.31c.23-.76-2.73-1.68-5.84-3.23-1.85-.92-3.6-2.61-5.88-3.17-4.9-1.21-14.12,4.55-15.25,6.62a6.42,6.42,0,0,1-2.3,1.12Z"/><path class="cls-27" d="M406.25,339.19c1,1.41,13-.86,18.8,3.89,2.3,1.9,10.64,12.83,10.87,16.43s-9.66-3.33-11.8-4.08-14.94-4.08-14.28-1.43,9.81,4,8,8.71c-.26.7-3-.27-6.24-.85-1.92-.35-4.19-.07-6.23-.93-4.39-1.85-8.11-11.41-7.79-13.61s-6.56-10.29-4.84-17.07S404.32,336.36,406.25,339.19Z"/><path class="cls-4" d="M389.45,363c-7.13,0-14.77-13.18-19.19-17.46A172.43,172.43,0,0,1,349.57,322c-13.27-18.39-33.65-45.35-32.88-68.63.55-16.75,0-33.6,0-50.37,6.14,3.29,15.95,10.24,20.58,15.88,4.88,6,17.35,65,21.75,72.07,5.76,9.25,51.69,44.2,51.69,44.2S398.21,363,389.45,363Z"/><path class="cls-5" d="M410.7,336.23a1.11,1.11,0,0,0,.7-2c-.42-.34-42.24-34.29-54.63-48.14-12.21-13.64-16.62-59.6-16.66-60.06a1.11,1.11,0,0,0-2.22.21c.18,1.92,4.53,47.15,17.22,61.33,12.51,14,54.47,48.05,54.89,48.39A1.17,1.17,0,0,0,410.7,336.23Z"/><path class="cls-27" d="M346.7,437.16c-.5,8.79,1.27,46.32,1.85,73.16,1.28,58.48-5.22,126.48-2.36,135.33,4.16,12.91-7.38,9.24-7.64-.17-.46-17.08-37.47-89.34-33.91-112.29,1.87-12,5.83-19.72,6.43-27s-19.28-69.73-19.28-69.73Z"/><path class="cls-27" d="M297.35,439.72c-2.47,8.43-7.26,43.81-13.55,69.88-1.95,8.07-8.73,28.65-13.14,43-13.21,43-27.8,82.07-27.21,89,1.14,13.53-12.69,7.12-8.6-1.34s-7.76-91.5-.86-113.66,13.58-24.12,15.8-31.07S244,426.39,244,426.39Z"/><path class="cls-28" d="M346.7,643.52c17.25,8.79,26.63,12.5,26.64,16s-35.54,3.67-38.67,2.43,4.47-17.36,4.47-17.36Z"/><path class="cls-28" d="M243.45,641.6c6.3,8.6,19.55,19.78,17.23,24.42s-31.81-8.33-33.7-13.58c-1-2.83,7.87-12.18,7.87-12.18Z"/><path class="cls-4" d="M344.06,438.85q1.79,3.47,3.66,6.89-4.23.56-8.65,1a55.92,55.92,0,0,0,.67-6.4A15.1,15.1,0,0,0,344.06,438.85Z"/><path class="cls-4" d="M364.89,344.07a29,29,0,0,0-2.89-2.35,15.55,15.55,0,0,0,0-4.31C362.72,339,363.69,341.3,364.89,344.07Z"/><path class="cls-4" d="M385.8,448c-13.78,8-28.07,15.8-43.81,17.86-.87-23.14-1.94-45.76-4.62-68.78-4.34-37.27-9-74.51-12.78-111.84-1.23-12.07-3.49-24.89-2.66-37.06.5-7.35,5.58-30.42,14.34-27.78,2.06.62,4.31,2.65,6.75,6.61,3.47,5.63,3.54,12.63,3.67,19.24a400.94,400.94,0,0,0,18.87,113.53c4.76,14.93,10.91,29.72,15.35,44.67,2.68,9,5.43,15.89,10.37,23.5s6.18,13.25-2.73,18.45Z"/><path class="cls-29" d="M355,439.26c1.58,17.18,2.27,35.47-2.71,50.81-.86,2.65-26.4,6.9-55.65,8.38s-54-8.15-55.76-10.33c-2.23-2.81-.71-12-.7-15.27,0-9.1.06-18.28.63-27.36,1.36-21.46,2.83-44.61,8.05-65.66,4.57-18.47,13.19-36.43,27.39-49.1,12.08-10.79,30.73-17.1,44.45-8.49,8.85,5.55,13.41,15.81,16.9,25.66,8.3,23.4,13,48,15.49,72.66C353.63,426.49,354.35,432.8,355,439.26Z"/><path class="cls-5" d="M355.52,336.89a.92.92,0,0,1-.85-.57l-1.69-4a.93.93,0,0,1,.51-1.21.92.92,0,0,1,1.2.5c.55,1.32,1.11,2.67,1.68,4a.92.92,0,0,1-.85,1.29Z"/><path class="cls-5" d="M338.15,284.9a.92.92,0,0,1-.91-.75c-1-5.33-1.28-9.47-.83-12.31,1-6.29,1.69-11.79,2.1-16.82a.93.93,0,0,1,1.85.16c-.42,5.07-1.12,10.61-2.12,16.95-.42,2.63-.14,6.56.82,11.68a.94.94,0,0,1-.74,1.08Z"/><path class="cls-30" d="M320.87,166.46c8.27-.6,13.42-11,5.33-18.29,3.71-.85,7.2-5.4,7.17-9.85,0-8.92-6.62-11.63-10.43-10.13,3.77-3.12,4.1-10.88.28-13.24-2.39-1.48-7.81,2.35-10.08,1.22a5.27,5.27,0,1,0-8.32-5.59c-1.38-13.5-14.6-9.48-18.75-1-1.64-6.06-7.42-7.64-11.69-4.72-3.23,2.21-4.61,7.42-4.19,11.31-5.48-11.65-19-4.9-14.45,7-1.4-1.35-8,0-9.45,1.2-3.19,2.74-2.58,9.23,1.56,10a19.22,19.22,0,0,0-8.23,2.06c-2.46,1.44-4.38,4.14-4.12,7s3.3,5.33,6,4.38c-9,9.36-.52,16.47,9,12.36-2.42,2.57-3.32,8.84.35,10.6,4,1.94,9.19-1.1,11.07-3.84-2,5-2.89,11.61.71,15.6,3.84,4.26,11.95,1.92,15.4-2.66,0,4.16,5.65,6.33,9.39,4.51s5.72-5.91,7.2-9.79C298.1,191.33,328.44,177.86,320.87,166.46Z"/><path class="cls-29" d="M275.67,199.36c-6,2.69-13.61,12.72-16.27,19.38-1.77,4.4,21.2,48.27,12.91,85.13-3.57,15.88,57.21,11.21,57.13,8.63-.84-26.28,1.3-62.69,0-75.76-.84-8.46-17.22-33.78-22.33-40.26C302.37,190.47,291.57,192.2,275.67,199.36Z"/><path class="cls-31" d="M284.17,154.71c-.89,14-6.14,40.23-8.5,44.65-3.33,6.21,14.67,12.14,22.22,10.14s9.77-6,10-8.66-6.34-23-7.93-41.71C298.68,144.21,284.53,149,284.17,154.71Z"/><path class="cls-27" d="M316.07,140.85c2.72,14.25-.12,35.85-11.45,38.52-7.17,1.69-26.52-9.62-25.37-25.93-5.92-.07-8.31-6.62-6.77-9.62,1-1.87,2.68-3,4.72-2,1.45.68,4.2,4.31,4.82,1,.55-2.93,0-5.84-1.67-9.64,1.95,3.75,16.85,4.69,16.62-3.62,4.95,6.29,13.06.93,11.87-5C311.23,128.72,313.84,129.22,316.07,140.85Z"/><path class="cls-4" d="M275.67,199.36c-6.64,2.44-18.88,15.29-20.13,25.14-2.56,20.13,21.87,52.17,12.53,78.4C264.83,312,229.85,400.59,215.21,432c-9.05,19.42,84,45.7,99.38,42.48s3.77-201.42,1.44-222.46S275.67,199.36,275.67,199.36Z"/><path class="cls-5" d="M321,347.29a.94.94,0,0,1-.93-.9c-.2-7.41-.45-15.09-.74-22.82a.92.92,0,0,1,.88-1,.93.93,0,0,1,1,.89c.3,7.73.55,15.42.75,22.84a.93.93,0,0,1-.9,1Z"/><path class="cls-5" d="M331.1,286.93h-.05a.93.93,0,0,1-.87-1c.22-3.85,1.35-23.14,1.68-24.48.13-.52.84-1.72,3-5.31,2.52-4.2,7.77-12.93,7.63-14.49-.29-.9-3.65-4.23-6.12-6.67-4.94-4.89-7.28-7.35-7.42-8.75a1.45,1.45,0,0,1,.49-1.3c.85-.71,2.32-.35,4.65.3a15.75,15.75,0,0,0,3,.66h0c-.43-2.31-6.11-11.43-9.23-15.45a.93.93,0,1,1,1.47-1.13c2.4,3.1,9.64,14,9.64,16.83a1.48,1.48,0,0,1-.59,1.22c-.91.7-2.42.32-4.82-.35a20.4,20.4,0,0,0-2.65-.62c.78,1.38,4.32,4.88,6.73,7.28,3.86,3.82,6.25,6.22,6.61,7.49.47,1.67-2.15,6.47-7.84,15.93-1.3,2.17-2.64,4.4-2.79,4.83-.23,1-1.1,15-1.63,24.12A.91.91,0,0,1,331.1,286.93Z"/><path class="cls-4" d="M270.68,265.81c19.17,29.24,51.16,60.81,66.28,63,25.69,3.72,93.78-4.62,93.78-4.62l-6.29-18.8s-57.68-3.44-74.58-9.6c-13.93-5.09-56.19-62.32-79-75.52C266,217.46,265.43,256.38,270.68,265.81Z"/><path class="cls-5" d="M354.43,330.67a130.82,130.82,0,0,1-17.6-.95c-14.58-2.11-42.22-29.21-60.52-54.18a.94.94,0,0,1,.2-1.3.93.93,0,0,1,1.29.2,253.19,253.19,0,0,0,32,35.91C321.2,320.76,330.9,327,337.1,327.89c23.47,3.39,83.44-3.43,92.4-4.49l-5.73-17.13c-6.61-.41-58.13-3.76-74.21-9.63-6.93-2.52-19.87-16.7-34.86-33.11l-.46-.51a.92.92,0,1,1,1.36-1.24l.46.5c14.21,15.56,27.63,30.26,34.13,32.63,16.58,6,73.74,9.52,74.31,9.55a.91.91,0,0,1,.82.63l6.3,18.8a.93.93,0,0,1-.77,1.21C430.3,325.17,384.93,330.67,354.43,330.67Z"/><path class="cls-5" d="M315,261.62a.92.92,0,0,1-.84-.53c-2.63-5.7-9.89-9.12-13.79-11a16.27,16.27,0,0,1-2.77-1.47c-1.23-1-.35-3.57,1.45-8.36.82-2.18,2.16-5.76,2-6.76-.93-.08-3.78,1.36-5.53,2.25-3.52,1.77-5.74,2.83-7.15,2.24-1-.41-2.23-2.29-5.89-8-4.45-6.95-11.18-17.46-16.79-21.61a.93.93,0,0,1-.2-1.29.94.94,0,0,1,1.3-.2c5.88,4.36,12.45,14.62,17.25,22.11,2.16,3.37,4.39,6.85,5.07,7.29.72.25,3.76-1.28,5.57-2.2,3.54-1.78,5.78-2.84,7.21-2.27,2,.81.69,4.28-1.11,9.09-.82,2.2-2.06,5.48-1.91,6.35a22.92,22.92,0,0,0,2.29,1.16c4.11,1.94,11.77,5.54,14.68,11.85a.93.93,0,0,1-.45,1.23A.91.91,0,0,1,315,261.62Z"/><path class="cls-5" d="M261.13,464.81a1.11,1.11,0,0,0,.35-2.17C216,447.47,215,435.74,215,434.55,218.05,428,266.73,324,270,298.29c2-15.8-3.79-31.67-8.45-44.42-3.15-8.6-5.86-16-5.43-21.19A39.93,39.93,0,0,1,275.71,201a1.11,1.11,0,1,0-1.14-1.9,42.08,42.08,0,0,0-20.66,33.43c-.47,5.65,2.33,13.29,5.56,22.14,4.58,12.52,10.28,28.11,8.34,43.37-3.28,25.63-54.39,134.67-54.91,135.77l-.08.24c-.3,1.4-1.56,14.23,48,30.73A1.07,1.07,0,0,0,261.13,464.81Z"/><path class="cls-5" d="M358.16,462.77a1,1,0,0,0,.42-.08l1.13-.44a180.38,180.38,0,0,0,20.91-9.34c10.73-5.86,15.11-10.88,13.39-15.35-.62-1.62-2.21-5.57-4.41-11-8-19.88-31.54-78.35-33-88.08,3.69,2.28,12.45,9.45,19.64,15.34,5.19,4.26,10.09,8.28,12.59,10.07a1.11,1.11,0,0,0,1.3-1.81c-2.45-1.75-7.32-5.74-12.48-10-9-7.41-18.37-15.06-21.31-16.29a1.38,1.38,0,0,0-1.53.26c-1.57,1.55-.18,9.48,32.76,91.31,2.2,5.45,3.79,9.4,4.4,11,1.2,3.11-3.2,7.58-12.38,12.6a179.27,179.27,0,0,1-20.65,9.22l-1.16.45a1.11,1.11,0,0,0,.41,2.14Z"/><path class="cls-32" d="M304.13,238.68c-19.15-14-29.59-28.88-27.91-39.73a12.84,12.84,0,0,1,1.74-4.77.89.89,0,0,1,.06-.31c.16-.47.29-1,.42-1.43,0,0,0,0,0-.06,0-.57.11-1.12.2-1.68a14.43,14.43,0,0,0-4.11,8c-1.76,11.39,8.9,26.78,28.52,41.16a1,1,0,0,0,.77.14.87.87,0,0,0,.44-.26A.74.74,0,0,0,304.13,238.68Z"/><ellipse class="cls-5" cx="307.2" cy="240.77" rx="7.09" ry="6.42" transform="matrix(1, -0.02, 0.02, 1, -4.19, 5.44)"/><path class="cls-32" d="M303.81,240a.87.87,0,0,0,.44-.26.74.74,0,0,0-.12-1.1c-21.28-15.59-31.82-32.56-26.86-43.23a.74.74,0,0,0-.45-1,.89.89,0,0,0-1.13.42c-5.35,11.49,5.13,28.75,27.35,45A1,1,0,0,0,303.81,240Z"/><path class="cls-32" d="M303.1,241.8a4.38,4.38,0,0,1,3.4-5.41,4.93,4.93,0,0,1,6,3.05,4.39,4.39,0,0,1-3.4,5.41A4.93,4.93,0,0,1,303.1,241.8Zm1.25-.32a3.62,3.62,0,0,0,4.38,2.25,3.22,3.22,0,0,0,2.49-4,3.61,3.61,0,0,0-4.38-2.24A3.22,3.22,0,0,0,304.35,241.48Z"/><path class="cls-32" d="M327.77,242.32a.8.8,0,0,0,.65-.76c-.33-25.55-9.58-41.05-18.12-47a.9.9,0,0,0-1.2.13.74.74,0,0,0,.15,1.1c7.85,5.49,17.13,20.79,17.45,45.81a.83.83,0,0,0,.87.78Z"/><path class="cls-5" d="M335.84,253.17h.06a.65.65,0,0,0,.46-.84c-1.08-2.89-4.48-5-8.26-5.23a10.39,10.39,0,0,0-9.94,6,.64.64,0,0,0,.36.88.77.77,0,0,0,1-.33,8.87,8.87,0,0,1,8.54-5.2c3.19.16,6.05,1.94,6.94,4.33A.75.75,0,0,0,335.84,253.17Z"/><path class="cls-32" d="M332.11,269.17a.63.63,0,0,0,.4-.26c2.75-4.11,5.62-16.81,2.31-23.38a7,7,0,0,0-5.32-4.05c-3.35-.53-6.15.21-8.11,2.14-3.77,3.72-4.25,11.6-1.31,21.61a.66.66,0,0,0,.78.41.57.57,0,0,0,.46-.71c-2.82-9.62-2.45-17.09,1-20.52,1.68-1.65,4-2.24,6.94-1.78a5.77,5.77,0,0,1,4.37,3.38c3.14,6.25.38,18.37-2.25,22.29a.57.57,0,0,0,.22.81A.7.7,0,0,0,332.11,269.17Z"/><path class="cls-32" d="M311.9,195.75a20.19,20.19,0,0,0-5.63-3.4c.15.63.29,1.26.42,1.9a19.78,19.78,0,0,1,4,2.64c7.52,6.27,15.67,21.3,16,44.68a.83.83,0,0,0,.87.78l.2,0a.8.8,0,0,0,.65-.76C328.11,217.68,319.68,202.24,311.9,195.75Z"/><path class="cls-5" d="M320.55,264.51c-2.13.17-.76,4.64.92,4.2S322.2,264.38,320.55,264.51Z"/><path class="cls-5" d="M332.9,266.9c-1.85-1-3.58,3.39-1.92,3.91S334.34,267.66,332.9,266.9Z"/><path class="cls-33" d="M321.12,268.32c-.12-.23.57-.43.7-.16S321.23,268.54,321.12,268.32Z"/><path class="cls-28" d="M330.82,270.34c0-.24.72-.14.71.15S330.81,270.59,330.82,270.34Z"/><path class="cls-5" d="M327.62,238.38c-1.42.08-.85,1.39-1.65,2.23-.57.6-3.58.73-2.71,2.26.69,1.2,2.31-.16,4.3-.14s3.75,1.27,4.19.41c.77-1.5-1.89-1.67-2.65-2.45S329.08,238.3,327.62,238.38Z"/><path class="cls-16" d="M89.26,452.52c-26.55-3.09-60.16,39-42.78,97.6,10.23,34.51,41.92,40.75,59.77,30.44,20.66-11.94,30.83-57,16.9-77.33-6.77-9.91-15-9.91-18-20.42C103.34,476.57,106.52,454.53,89.26,452.52Z"/><path class="cls-4" d="M85.63,652a.92.92,0,0,1-.39-.09.9.9,0,0,1-.42-1.2c10.47-21.82,6.39-55.26,2.07-90.66-3.21-26.34-6.53-53.57-3.82-77.12a.91.91,0,0,1,1-.79.89.89,0,0,1,.79,1c-2.69,23.34.62,50.46,3.82,76.69,4.35,35.67,8.46,69.37-2.24,91.66A.89.89,0,0,1,85.63,652Z"/><path class="cls-4" d="M83.69,521.89a.94.94,0,0,1-.57-.2L56.49,499.62a.9.9,0,0,1,1.15-1.39L84.27,520.3a.91.91,0,0,1,.12,1.27A.92.92,0,0,1,83.69,521.89Z"/><path class="cls-4" d="M87.12,551.64a.9.9,0,0,1-.7-.33.91.91,0,0,1,.13-1.27l32.2-26.28a.9.9,0,0,1,1.27.12.91.91,0,0,1-.13,1.27l-32.2,26.29A.94.94,0,0,1,87.12,551.64Z"/><path class="cls-4" d="M88.76,568.78l-.24,0-19.63-5.24a.91.91,0,0,1-.64-1.11.89.89,0,0,1,1.1-.63L89,567a.89.89,0,0,1,.63,1.1A.88.88,0,0,1,88.76,568.78Z"/><path class="cls-4" d="M109.7,533.2a.89.89,0,0,1-.89-.82L107,510.55a.9.9,0,1,1,1.79-.14l1.77,21.82a.9.9,0,0,1-.82,1Z"/><path class="cls-3" d="M455.32,462.1c-17.63,7.06-12.91,26.76-17.1,35.15-3.06,6.11-18.68,16.06-18.68,31,0,13.26,13.14,24.89,14.34,31.5S421.3,573,421.3,590.31c0,15.33,36.88,23.13,36.88,23.13s30.71-18.25,31.51-31.23-8.08-21.3-10.35-25.52,10.13-16.67,10.35-28.47c.19-10.65-13.93-20.06-15.21-24.94-.94-3.58,2.24-13.74,2-24C476.19,467,468.19,457,455.32,462.1Z"/><path class="cls-4" d="M460.49,648.13a.64.64,0,0,1-.65-.59c-.53-6.64-1.87-26-2.3-34.06-.09-1.68-.3-4.36-.55-7.75-1.74-23-5.81-76.69.8-119.5a.64.64,0,0,1,1.27.2c-6.58,42.67-2.52,96.3-.79,119.2.26,3.4.47,6.09.56,7.78.43,8.08,1.77,27.39,2.3,34a.65.65,0,0,1-.59.69Z"/><path class="cls-4" d="M454.93,531.22a.64.64,0,0,1-.58-.36.66.66,0,0,1,.3-.87l21-10.16a.65.65,0,0,1,.86.3.64.64,0,0,1-.3.86l-21,10.17A.67.67,0,0,1,454.93,531.22Z"/><path class="cls-4" d="M454.93,549.46a.62.62,0,0,1-.38-.13L426.4,528.74a.64.64,0,1,1,.76-1l28.15,20.59a.65.65,0,0,1-.38,1.17Z"/><path class="cls-4" d="M438.43,537.39a.65.65,0,0,1-.65-.65v-14.2a.65.65,0,0,1,1.3,0v14.2A.65.65,0,0,1,438.43,537.39Z"/><path class="cls-4" d="M480.48,588.79a.66.66,0,0,1-.38-.12l-11.49-8.56a.64.64,0,0,1,.77-1l11.49,8.55a.64.64,0,0,1-.39,1.16Z"/><path class="cls-4" d="M457.22,600.83a.66.66,0,0,1-.27-.06L431,589.11a.65.65,0,0,1,.53-1.18l25.91,11.66a.65.65,0,0,1-.26,1.24Z"/><path class="cls-4" d="M442.45,594.18a.65.65,0,0,1-.64-.54L439,576.88a.64.64,0,1,1,1.27-.22l2.86,16.77a.64.64,0,0,1-.53.74Z"/><path class="cls-4" d="M432.5,597a.65.65,0,0,1-.33-1.2l5.93-3.55a.65.65,0,0,1,.88.22.64.64,0,0,1-.22.89l-5.93,3.55A.66.66,0,0,1,432.5,597Z"/><path class="cls-4" d="M456.89,498.79a.66.66,0,0,1-.51-.25.64.64,0,0,1,.12-.91l8.55-6.61a.65.65,0,1,1,.79,1l-8.55,6.62A.66.66,0,0,1,456.89,498.79Z"/><path class="cls-4" d="M456.21,585.8a.66.66,0,0,1-.58-.35.65.65,0,0,1,.28-.87L480.19,572a.65.65,0,0,1,.59,1.15L456.5,585.72A.6.6,0,0,1,456.21,585.8Z"/><g id="character5"><path class="cls-34" d="M720.5,633.61c-.45,3.17,0,8.31-.53,10.36s-48.91,3-50.91,1.43,33.6-14.61,33.6-14.61Z"/><path class="cls-34" d="M649,633.61c-.44,3.17,0,8.31-.53,10.36s-48.9,3-50.91,1.43,33.6-14.61,33.6-14.61Z"/><path class="cls-35" d="M653.11,361.14c-8.56,52.91-6.56,116.69-8.56,136.24-2.53,24.72-6.94,100.71-17.69,135-.94,3,17.65,4.89,22.12,1.24,2-1.67,22.13-45.68,41.73-93.68,7.14-17.49,2.89-47.57,3.95-53.19,2.07-11,18-74.19,18-74.19L689.5,342.7S654.74,351.07,653.11,361.14Z"/><path class="cls-35" d="M753.88,342c9.67,30.12,4.65,91.22-2,148.75-.83,7.21,5.75,21.83,4.72,38.2-2.88,45.91-26.92,89.56-36.15,104.67-8.86,3.72-21.39,2.22-22.92-.94s18.34-130.7-12.14-245c-9.12-34.21-26.39-54.17-16.83-60.38C690.71,312.91,753.88,342,753.88,342Z"/><path class="cls-36" d="M644.44,235.81c-8.26,9.39-22.19,60.28-27.71,63.6-5.06,3-52.22,12-63.85,7.52-8.74-3.35-5.78,16.7-4.61,17.56,19.7,14.51,75.21,17.08,90.93,5.65,17.12-12.45,24.54-35,24.22-46.29S647.93,231.83,644.44,235.81Z"/><path class="cls-20" d="M658.16,268.7c-.48-3.21-12.6-56.42-9.89-60.43,4.13-6.1,27.54-22.42,40.68-27.19,9.61-3.48,19.75-11.17,19.75-11.17,3.8,2.45,60.08,17.73,64.46,30.81,3.61,10.8-11.75,63.13-13.89,73.5s.22,80.08,0,88.64c-.33,13-110.95,19.95-108,1.07C652.12,358.45,659.52,277.9,658.16,268.7Z"/><path class="cls-37" d="M664.94,130.13c-8.45,2.84-11.64-16.61-4.83-17.13,4.48-.35,24.36-6.82,29.84-7,4.56-.16,10,2.85,8.31,8.74,5.91-4.51,10.63,36.93,6.21,37C691.91,152,665.25,130,664.94,130.13Z"/><path class="cls-38" d="M702.67,138.5c2,11.49,6.82,28.19,10.52,34.83s-12.28,15.59-24.57,14.16c-1.43-.16-2.85-.33-3.65-1.21-3.13-3.4-4.37-20.69-4.37-20.69L700,149.38l.66-10.41Z"/><path class="cls-36" d="M661.58,129.73c0,23.73,12.9,47,16.47,48s31.39-5.83,23.8-36.3c-.35-1.41,2.65,2.77,2.62-2.27,0-6.33-.88-12.76-2.79-12.2-4.54,1.34.73,14.79-2.25,15.9-1.89.7-5.26-19.16-9.25-19.7-7.66-1-14.72,6.1-18,6.74S661.58,128.79,661.58,129.73Z"/><path class="cls-36" d="M728.64,380.66c1.61-5.51,11.17-14.24,11.17-14.24s24.32-42.1,24.32-54.3c0-4.83-5-22.85-9.37-37.15s26.23-53,30.57-43.18c9.83,22.27,17.68,69.81,17.35,79.11-.74,20.7-29,57-51.32,69.94-4.48,4.84-10.05,21.48-15.22,19.59S727,386.16,728.64,380.66Z"/><path class="cls-34" d="M699.27,467.39a1.3,1.3,0,0,1-1.3-1.3c0-16.86-5-39.44-8.7-55.93-1.22-5.49-2.28-10.23-3-14.22a1.29,1.29,0,1,1,2.54-.49c.76,4,1.82,8.68,3,14.15,3.7,16.61,8.76,39.35,8.76,56.49A1.3,1.3,0,0,1,699.27,467.39Z"/><path class="cls-20" d="M653.74,204.1c-14.18,5.84-19.26,43-23.93,57.26s38.65,22.49,38.65,22.49l4.93-69.44Z"/><path class="cls-20" d="M769.49,195.92c14,10.63,29.61,68.55,27.53,72.19-3,5.25-42.2,15.69-50.49,10.44S764.67,192.27,769.49,195.92Z"/></g><path class="cls-39" d="M559.86,646.91c-9.38,3.09-27.4,9.91-26.05,13.3.93,2.35,53.91.29,56.14-1.9,1.59-1.55,1-18.67-1.76-17.91C586.28,639.45,559.86,646.91,559.86,646.91Z"/><path class="cls-40" d="M568.6,467.94c3.5,30.19,10.87,162.77,7.63,170.76-.66,1.62-24.57,10.47-24.57,12.09,0,2.75,16.36,1.47,26.65-1.53,8-2.32,8.92-5.54,9.5-7.43,1.41-4.61,30.84-99.12,30.19-132.49s-25.39-66-25.39-66S566.88,453.12,568.6,467.94Z"/><path class="cls-39" d="M647.22,634.55,636,655.91a3.64,3.64,0,0,0,3.22,5.34h23a3.64,3.64,0,0,0,3.62-4l-2.42-24.35Z"/><path class="cls-40" d="M623.67,521.7c0,13.5,27.12,79.71,25.49,107.32-9.56,20-9.2,27.88-1.22,29.31,16.28,2.92,14.77-13.34,15.28-22.77,1.73-32.51,1.73-88,1.73-104.06C665,519.56,623.67,513.55,623.67,521.7Z"/><path class="cls-39" d="M638,661.25a2.79,2.79,0,0,1-2.21-4.49c3.78-5,9.63-8.84,15-8.27,8,.85,11.94,5.23,13.82,8.63a2.78,2.78,0,0,1-2.44,4.13Z"/><path class="cls-5" d="M563.3,308.54c-11.64,24-16.62,65.39-16.62,76.24,0,22.19,21,131.48,28.78,221,1.5,17.27,89.23,10.56,94.49,4.94,2.79-3,8.19-66.9-14.62-134.13,4.53-62,1.78-108.22-2.93-120.89-14.94-40.1-31.24-51.13-31.24-51.13s-10.82,4.93-36.33,5.25C561.45,310.15,563.3,308.54,563.3,308.54Z"/><path class="cls-29" d="M640,210.93c14.55-5.84,12.32-58.22-5.45-59.94-7.31-15.47-32.4-12.17-41.8,0-6.73,8.71-3.62,39.32-15.72,45C586,215.1,627.28,216.06,640,210.93Z"/><path class="cls-27" d="M668.66,322.57c4.28-13.89.62-93.57-16.09-96.23-5.76-.92-18.51.86-24.07-3.48s-4.65-37.85-1.73-42.36l-22.28,7.12s7.93,23.52.67,34.2c-.45.66-2.31.71-5,.6-.32.71-6.56,4.88-8.5,9.38-3.35,7.78-3.06,17.47-3.33,18.71,15.64,4.3,55.15,22.67,57.22,10.2.51-3.08,4.27,40.14,1.52,53.91C645.06,324.51,667.87,325.14,668.66,322.57Z"/><path class="cls-27" d="M602.19,222.4c-2.6.42-12.59-6.58-20.4-2.41-19.94,10.64-3.59,88.67-23.7,81.22-12.38-4.59-.72,11.3,19,23.22,27.39,16.56,11.23-23.22,5.32-68.76,0-.22,3.76-12.66,8.81-18S601.67,223,602.19,222.4Z"/><path class="cls-41" d="M654.25,355.46c-12.41-38.09-6.92-95.87-8.73-94.75-4.32,2.68-13.51,1.22-16.69-9.1a.38.38,0,0,0,0-.1c-1.85-3.94,2.9-20.91,13-25.63,1.9-.89-5.46-3.1-10.41-1.55s-23.86,30.75-36.07,25.27c-7-3.14,6-26.22,7.6-27.07s-2.59-3.23-7.45-1.31-6,17.65-14.73,21.3l-.07,0a15.94,15.94,0,0,0-6.53,4c-7.59,7.78-7.23,20.06,1.9,27.91a1.65,1.65,0,0,1,.33.48c1.29,2.45-.64,4.52-3.12,5.74-47.8,23.61-45.08,95.38-12.55,103.13,37.55,8.94,71.65-2.15,94-25.34C655.51,357.53,654.63,356.65,654.25,355.46Z"/><path class="cls-42" d="M605.69,281.72a17.47,17.47,0,0,1-12.78-5.34,15.69,15.69,0,0,1-4.38-13.71.91.91,0,0,1,1.78.36,13.87,13.87,0,0,0,3.92,12.09,16,16,0,0,0,14.4,4.54.91.91,0,0,1,.29,1.8A21,21,0,0,1,605.69,281.72Z"/><path class="cls-42" d="M582.39,277c-1.75,0-7.06,0-11.41-7a.91.91,0,1,1,1.54-1c3.42,5.47,7.27,6.11,9.87,6.11a.91.91,0,1,1,0,1.81Z"/><path class="cls-43" d="M648.84,262.05a.92.92,0,0,1-.83-.52,5.66,5.66,0,0,0-4.38-2.66,3.11,3.11,0,0,0-2.86,1,.91.91,0,1,1-1.46-1.08,4.84,4.84,0,0,1,4.5-1.7,7.42,7.42,0,0,1,5.85,3.7.93.93,0,0,1-.43,1.22A1.09,1.09,0,0,1,648.84,262.05Z"/><path class="cls-44" d="M581.74,288c-17.35,2.84-39.67,27.59-36.54,46,3.43,20.24,66.89-2.25,73.35-19.62C624.63,298,610.56,283.28,581.74,288Z"/><path class="cls-27" d="M594.52,158.2c-5.06,12-10.46,39.54-3.69,44.12,10.86,7.33,29.4-1.51,33-12.27,4.17,2.08,10.43-12.85,1.62-10-2-7.26-3.71-14.54-5.79-16.37C612.05,159.15,595.85,155,594.52,158.2Z"/><path class="cls-43" d="M608,204.63a.91.91,0,0,1-.28-1.77A27.37,27.37,0,0,0,619,195.33a.91.91,0,0,1,1.29-.05.9.9,0,0,1,.05,1.28,29.23,29.23,0,0,1-12,8A.92.92,0,0,1,608,204.63Z"/><path class="cls-43" d="M624.39,191.22a2.81,2.81,0,0,1-1.82-.62,2.1,2.1,0,0,1-.79-1.59.91.91,0,1,1,1.82,0,.34.34,0,0,0,.14.19,1.17,1.17,0,0,0,1,.18.91.91,0,1,1,.33,1.78A3.36,3.36,0,0,1,624.39,191.22Z"/><path class="cls-43" d="M624.86,187.14h0a.92.92,0,0,1-.9-.92.93.93,0,0,1,.92-.9,2.71,2.71,0,0,0,1.48-1.54c.07-.23,0-.26,0-.29A.91.91,0,0,1,627.4,182a2,2,0,0,1,.65,2.38C627.62,185.68,626.14,187.14,624.86,187.14Z"/><path class="cls-27" d="M668.66,322.57c-4.43,12-50.35,24.77-65.17,27.09s-9.81-9.88-3.17-9.33c7.8.65,38.82-26.55,53.17-27.25S670.63,317.25,668.66,322.57Z"/><path class="cls-27" d="M600.32,340.33c-5.75-.67-5.24-6.17-8.38-6.72s-9.37,2.48-12.47,2.61c-2.39.1-6.23-1.24-6.34.6-.13,2.08,3.15,3.88,5.61,4.1,3.35.31,6.31-1.36,6.66,0,.42,1.6-6.53,3.2-10.47,4.24-8.49,2.26-17.24,2.22-17.92,4.89-.84,3.28,11.18,6.28,20.14,5.44,5.8-.55,20.91-5,24.94-5.5S601.86,340.51,600.32,340.33Z"/><path class="cls-43" d="M561.87,352a17.25,17.25,0,0,1-4.85-.44.46.46,0,1,1,.35-.84c1.51.61,9.61.41,12.35-.16,2.5-.52,5.35-1.23,6.34-1.49a.47.47,0,0,1,.56.33.45.45,0,0,1-.33.55c-1,.26-3.87,1-6.38,1.5A51.73,51.73,0,0,1,561.87,352Z"/><path class="cls-43" d="M564.51,355a19,19,0,0,1-2.25-.11.91.91,0,0,1,.22-1.81c4.07.5,12.68-.86,15.08-1.6a.91.91,0,1,1,.53,1.74A61.48,61.48,0,0,1,564.51,355Z"/><path class="cls-43" d="M570.24,355.91a.45.45,0,0,1-.45-.45.46.46,0,0,1,.45-.46,49.75,49.75,0,0,0,9.61-1.26.46.46,0,0,1,.56.32.45.45,0,0,1-.32.56,51,51,0,0,1-9.84,1.29Z"/><path class="cls-43" d="M647,315.53a.91.91,0,0,1-.29-1.77,33.81,33.81,0,0,1,10.58-1.64.91.91,0,0,1-.13,1.82,32,32,0,0,0-9.87,1.54A1,1,0,0,1,647,315.53Z"/><path class="cls-27" d="M541.48,298.12c-3.43,5.31-12.22,22.35-9.85,24.19,3.52,2.73,11.67,4.13,13.81,2.81,2.64-1.63,6.27-5.49,7.32-8,1.52-3.67-8.59-12.35-7.51-13s11.28,5.29,12.43,1.5C558,304.59,545.13,292.45,541.48,298.12Z"/><path class="cls-43" d="M550.58,319a.62.62,0,0,1-.43-.28c-.84-1.36-7.22-6.44-12.88-10.25a.59.59,0,0,1-.16-.82.6.6,0,0,1,.83-.17c5.39,3.63,12.19,8.94,13.23,10.62a.6.6,0,0,1-.19.82A.64.64,0,0,1,550.58,319Z"/><path class="cls-43" d="M547.78,322.6h0c-2.24-.38-10.44-4-14.28-6.47a.6.6,0,0,1-.17-.82.59.59,0,0,1,.82-.18c3.88,2.52,11.89,6,13.83,6.3a.59.59,0,0,1-.18,1.17Z"/><path class="cls-43" d="M540,326l-.22,0a.6.6,0,1,1,.18-1.18c2.37.38,4.38.3,5.16-.18,2.67-1.65,6.12-5.42,7.08-7.76.81-2-2.9-6.35-5.13-9-2-2.34-2.6-3.15-2.5-3.8a.78.78,0,0,1,.35-.53c.59-.37,1.6,0,4,.89s6.16,2.32,7.63,1.59a1,1,0,0,0,.49-.5,9,9,0,0,0-1.22-1.45.59.59,0,0,1,0-.84.6.6,0,0,1,.84,0c1.76,1.81,1.64,2.21,1.56,2.48a2.19,2.19,0,0,1-1.15,1.37c-1.94.95-5.62-.43-8.58-1.54-.85-.32-1.84-.69-2.47-.87.42.62,1.25,1.59,1.94,2.42,2.86,3.37,6.41,7.57,5.32,10.19-1.16,2.81-4.95,6.72-7.56,8.33C544.35,326.5,541.43,326.21,540,326Z"/><circle class="cls-45" cx="928.01" cy="632.32" r="46.19" transform="translate(-171.34 403.26) rotate(-22.5)"/><path class="cls-20" d="M928,587.62a44.7,44.7,0,1,1-44.7,44.7,44.75,44.75,0,0,1,44.7-44.7Zm0-3a47.69,47.69,0,1,0,47.68,47.69A47.69,47.69,0,0,0,928,584.63Z"/><path class="cls-20" d="M954.25,603.7a8.85,8.85,0,0,0-12.31.76l-32,34.4a8.62,8.62,0,0,0-2.29,6.55,6.19,6.19,0,0,1-1.71,4.65l-5.83,6.25a4.07,4.07,0,0,0,0,5.63,4,4,0,0,0,5.68-.11l5.94-6.38a6.16,6.16,0,0,1,4.51-2,8.62,8.62,0,0,0,6.37-2.75L954.81,616A8.65,8.65,0,0,0,954.25,603.7Z"/><path class="cls-4" d="M902.82,655.76c-2.43,2.61-3,4-1.65,5.19,1.14,1.06,2.32.93,5.16-2.11l3.91-4.2a.66.66,0,0,0,0-.93l-2.45-2.28a.65.65,0,0,0-.93,0Z"/><path class="cls-4" d="M946.64,607.51a3.14,3.14,0,1,1,.16,4.44A3.14,3.14,0,0,1,946.64,607.51Z"/><rect class="cls-4" x="895.42" y="631.92" width="63.65" height="2.04" transform="translate(-167.83 880.34) rotate(-47.05)"/><path class="cls-4" d="M945.74,618.64a1,1,0,0,1-.64-.27l-4.59-4.28a1,1,0,0,1,1.38-1.49l4.6,4.28a1,1,0,0,1,0,1.44A1,1,0,0,1,945.74,618.64Z"/><path class="cls-4" d="M941.11,623.61a1,1,0,0,1-.63-.27l-4.6-4.28a1,1,0,0,1,1.39-1.49l4.6,4.28a1,1,0,0,1-.76,1.76Z"/><path class="cls-4" d="M936.49,628.58a1,1,0,0,1-.64-.27l-4.6-4.28a1,1,0,0,1,1.39-1.49l4.6,4.28a1,1,0,0,1,0,1.44A1,1,0,0,1,936.49,628.58Z"/><path class="cls-4" d="M931.86,633.55a1,1,0,0,1-.64-.27L926.63,629a1,1,0,0,1,1.39-1.49l4.59,4.28a1,1,0,0,1,0,1.44A1,1,0,0,1,931.86,633.55Z"/><path class="cls-4" d="M927.23,638.52a1,1,0,0,1-.63-.27L922,634a1,1,0,0,1,1.39-1.49l4.6,4.28a1,1,0,0,1-.76,1.76Z"/><path class="cls-4" d="M922.61,643.49a1,1,0,0,1-.64-.27l-4.59-4.28a1,1,0,1,1,1.38-1.49l4.6,4.28a1,1,0,0,1,0,1.44A1,1,0,0,1,922.61,643.49Z"/><path class="cls-4" d="M918,648.46a1,1,0,0,1-.63-.27l-4.6-4.28a1,1,0,0,1,1.39-1.49l4.59,4.28a1,1,0,0,1,0,1.44A1,1,0,0,1,918,648.46Z"/><path class="cls-20" d="M157.44,360.05,98.49,389.83a17.59,17.59,0,0,1-23.59-7.76L59.2,351A17.58,17.58,0,0,1,67,327.4l59-29.78a17.59,17.59,0,0,1,23.59,7.76l15.7,31.08A17.59,17.59,0,0,1,157.44,360.05ZM68.62,330.71a13.86,13.86,0,0,0-6.11,18.6l15.7,31.09a13.87,13.87,0,0,0,18.61,6.12l59-29.78a13.86,13.86,0,0,0,6.12-18.61L146.19,307a13.86,13.86,0,0,0-18.61-6.11Z"/><path class="cls-20" d="M112.77,392.1a3.84,3.84,0,0,1,1.7-5.15l31.17-15.75a3.84,3.84,0,1,1,3.46,6.85L117.93,393.8A3.84,3.84,0,0,1,112.77,392.1Z"/><path class="cls-4" d="M141,374.12a4.55,4.55,0,0,1-5.49-1.09l-19.36-22.49,1.32,6.36a4.54,4.54,0,0,1-2.4,5L84.76,377.19a4.55,4.55,0,0,1-4.1-8.12l27.18-13.73-4.2-20.17a4.54,4.54,0,0,1,2.4-5l0,0a4.54,4.54,0,0,1,5.45,1.11l13.93,16.18-20.52-53.92a4.54,4.54,0,0,1,2.16-5.65l0,0a4.55,4.55,0,0,1,5.82,1.52l31.82,47.3,8.39-4.24a4.55,4.55,0,1,1,4.1,8.12l-12,6.05a4.55,4.55,0,0,1-5.82-1.52l-11.94-17.75,15.65,41.1a4.57,4.57,0,0,1-1.92,5.53Z"/><path class="cls-20" d="M139.81,371.8a2,2,0,0,1-2.35-.47l-25.93-30.11,3.38,16.21a2,2,0,0,1-1,2.14l-30.3,15.3a1.95,1.95,0,0,1-1.75-3.48l29-14.63-4.61-22.12a2,2,0,0,1,1-2.15,1.93,1.93,0,0,1,2.33.48l23.6,27.4-25.79-67.76a1.94,1.94,0,0,1,3.43-1.78L143.9,340l10.44-5.28a1.95,1.95,0,1,1,1.76,3.48l-12,6.05a2,2,0,0,1-2.49-.65L117.05,307.1l23.7,62.27a2,2,0,0,1-.82,2.37Z"/></g></g></g></svg>