<?xml version="1.0" encoding="UTF-8"?>
<svg xmlns="http://www.w3.org/2000/svg" xmlns:xlink="http://www.w3.org/1999/xlink" viewBox="0 0 270.82 290.88">
  <defs>
    <style>
      .cls-1, .cls-2, .cls-3, .cls-4 {
        fill: #fff;
      }

      .cls-1, .cls-5 {
        opacity: .2;
      }

      .cls-6 {
        fill: #713e23;
      }

      .cls-7, .cls-8 {
        fill: #75bcfc;
      }

      .cls-7, .cls-9 {
        opacity: .45;
      }

      .cls-10 {
        fill: url(#linear-gradient-15);
      }

      .cls-11 {
        fill: url(#linear-gradient-13);
      }

      .cls-12 {
        fill: url(#linear-gradient-28);
      }

      .cls-13, .cls-14, .cls-15 {
        opacity: .25;
      }

      .cls-13, .cls-16, .cls-17, .cls-9, .cls-18, .cls-19, .cls-20 {
        fill: #b4bbe1;
      }

      .cls-21, .cls-15, .cls-17, .cls-22, .cls-23, .cls-24, .cls-25 {
        mix-blend-mode: multiply;
      }

      .cls-21, .cls-22, .cls-26, .cls-23 {
        opacity: .35;
      }

      .cls-21, .cls-27 {
        fill: #4588ff;
      }

      .cls-28, .cls-29 {
        opacity: .75;
      }

      .cls-30 {
        fill: url(#linear-gradient-53);
      }

      .cls-31 {
        fill: #d39867;
      }

      .cls-32 {
        fill: url(#linear-gradient-42);
      }

      .cls-33 {
        fill: url(#linear-gradient-46);
      }

      .cls-34 {
        fill: #328eea;
      }

      .cls-35 {
        fill: url(#linear-gradient-2);
      }

      .cls-36 {
        fill: #7f391b;
      }

      .cls-37 {
        fill: url(#linear-gradient-43);
      }

      .cls-38 {
        fill: url(#linear-gradient-25);
      }

      .cls-39 {
        fill: #165bd6;
      }

      .cls-40 {
        fill: url(#linear-gradient-10);
      }

      .cls-41 {
        fill: url(#linear-gradient-12);
      }

      .cls-42 {
        stroke: #b4bbe1;
      }

      .cls-42, .cls-43, .cls-44, .cls-45, .cls-46 {
        fill: none;
      }

      .cls-42, .cls-43, .cls-45, .cls-46 {
        stroke-linecap: round;
      }

      .cls-42, .cls-44, .cls-45 {
        stroke-miterlimit: 10;
      }

      .cls-47 {
        fill: url(#linear-gradient-40);
      }

      .cls-48 {
        fill: url(#linear-gradient-27);
      }

      .cls-49 {
        fill: #2875df;
      }

      .cls-50 {
        fill: url(#linear-gradient-37);
      }

      .cls-51 {
        fill: #2d2d2d;
      }

      .cls-52 {
        fill: url(#linear-gradient-39);
      }

      .cls-53 {
        fill: #ced2ef;
      }

      .cls-54 {
        fill: url(#linear-gradient-47);
      }

      .cls-55 {
        fill: url(#linear-gradient-26);
      }

      .cls-56 {
        fill: url(#linear-gradient-4);
      }

      .cls-57 {
        fill: #442312;
      }

      .cls-58 {
        fill: url(#linear-gradient-35);
      }

      .cls-59 {
        fill: url(#linear-gradient-30);
      }

      .cls-60 {
        fill: #4b4c4c;
      }

      .cls-17, .cls-4 {
        opacity: .55;
      }

      .cls-61 {
        fill: url(#linear-gradient-44);
      }

      .cls-62 {
        fill: url(#linear-gradient-49);
      }

      .cls-63 {
        fill: url(#linear-gradient-3);
      }

      .cls-64 {
        fill: url(#linear-gradient-34);
      }

      .cls-65 {
        fill: url(#linear-gradient-5);
      }

      .cls-66 {
        fill: url(#linear-gradient-38);
      }

      .cls-67 {
        fill: url(#linear-gradient-22);
      }

      .cls-68 {
        fill: url(#linear-gradient-24);
      }

      .cls-69 {
        fill: #ebf6f7;
      }

      .cls-70 {
        fill: url(#linear-gradient-54);
      }

      .cls-5 {
        fill: url(#linear-gradient-52);
        mix-blend-mode: screen;
      }

      .cls-71 {
        isolation: isolate;
      }

      .cls-29, .cls-72 {
        fill: #205ce2;
      }

      .cls-73 {
        fill: #3a3a3a;
      }

      .cls-74 {
        fill: url(#linear-gradient-33);
      }

      .cls-75 {
        fill: url(#linear-gradient-51);
      }

      .cls-76 {
        fill: #134dce;
      }

      .cls-77 {
        fill: url(#linear-gradient-14);
      }

      .cls-43 {
        stroke-width: 2.76px;
      }

      .cls-43, .cls-45 {
        stroke: #fff;
      }

      .cls-43, .cls-46 {
        stroke-linejoin: round;
      }

      .cls-3 {
        opacity: .4;
      }

      .cls-78 {
        fill: url(#linear-gradient-29);
      }

      .cls-79 {
        fill: url(#linear-gradient-20);
      }

      .cls-80 {
        fill: #474747;
      }

      .cls-81 {
        fill: url(#linear-gradient-17);
      }

      .cls-44, .cls-46 {
        stroke: #dae3f2;
      }

      .cls-82 {
        fill: url(#linear-gradient-50);
      }

      .cls-83, .cls-84 {
        fill: #efefef;
      }

      .cls-84 {
        opacity: .39;
      }

      .cls-85 {
        fill: url(#linear-gradient-9);
      }

      .cls-86 {
        fill: #ff9906;
      }

      .cls-87 {
        fill: #ef770a;
      }

      .cls-88 {
        fill: url(#linear-gradient-11);
      }

      .cls-89 {
        fill: #f2ba88;
      }

      .cls-90 {
        fill: #81c5e8;
      }

      .cls-91 {
        fill: url(#linear-gradient-19);
      }

      .cls-92 {
        fill: url(#linear-gradient-6);
      }

      .cls-93 {
        fill: #cdd5f7;
      }

      .cls-94 {
        fill: #fcc106;
      }

      .cls-95 {
        fill: #347ee8;
      }

      .cls-96 {
        fill: #845424;
      }

      .cls-45 {
        stroke-width: .85px;
      }

      .cls-97 {
        fill: #e8ecf7;
      }

      .cls-98 {
        fill: #063444;
      }

      .cls-99 {
        fill: url(#linear-gradient-36);
      }

      .cls-100 {
        fill: url(#linear-gradient-21);
      }

      .cls-101 {
        fill: #f7f5fa;
      }

      .cls-102 {
        fill: url(#linear-gradient-45);
      }

      .cls-103 {
        fill: #934b32;
      }

      .cls-104 {
        fill: #ffd1a4;
      }

      .cls-105 {
        fill: #dae3f2;
      }

      .cls-106 {
        fill: #190b05;
      }

      .cls-107 {
        fill: #c5c8e8;
      }

      .cls-108 {
        fill: url(#linear-gradient-48);
      }

      .cls-109 {
        fill: #4594f4;
      }

      .cls-110 {
        fill: url(#linear-gradient-32);
      }

      .cls-111 {
        fill: url(#linear-gradient-41);
      }

      .cls-112 {
        fill: url(#linear-gradient-16);
      }

      .cls-18 {
        opacity: .11;
      }

      .cls-19 {
        font-family: OpenSans-Bold, 'Open Sans';
        font-size: 6.75px;
        font-weight: 700;
        letter-spacing: -.04em;
      }

      .cls-113 {
        fill: #595959;
        opacity: .5;
      }

      .cls-114 {
        fill: #682c17;
      }

      .cls-115 {
        fill: url(#linear-gradient);
      }

      .cls-116 {
        fill: url(#linear-gradient-23);
      }

      .cls-117 {
        fill: url(#linear-gradient-31);
      }

      .cls-23 {
        fill: url(#linear-gradient-8);
      }

      .cls-24 {
        opacity: .19;
      }

      .cls-118 {
        fill: #1d68d6;
      }

      .cls-119 {
        fill: url(#linear-gradient-18);
      }

      .cls-25 {
        fill: url(#linear-gradient-7);
      }

      .cls-20 {
        opacity: .15;
      }
    </style>
    <linearGradient id="linear-gradient" x1="65.4" y1="106.03" x2="28.22" y2="127.5" gradientUnits="userSpaceOnUse">
      <stop offset="0" stop-color="#b4bbe1" stop-opacity=".1"/>
      <stop offset=".63" stop-color="#b4bbe1" stop-opacity=".24"/>
      <stop offset="1" stop-color="#b4bbe1" stop-opacity=".3"/>
    </linearGradient>
    <linearGradient id="linear-gradient-2" x1="88.52" y1="111.83" x2="51.33" y2="133.3" xlink:href="#linear-gradient"/>
    <linearGradient id="linear-gradient-3" x1="26.82" y1="147.88" x2="6.95" y2="159.35" xlink:href="#linear-gradient"/>
    <linearGradient id="linear-gradient-4" x1="975.89" y1="156.99" x2="1106.69" y2="232.51" gradientTransform="translate(1159.37) rotate(-180) scale(1 -1)" xlink:href="#linear-gradient"/>
    <linearGradient id="linear-gradient-5" x1="147.99" y1="161.54" x2="70.01" y2="206.56" gradientUnits="userSpaceOnUse">
      <stop offset="0" stop-color="#ced5ef"/>
      <stop offset=".37" stop-color="#d5ddf0"/>
      <stop offset=".87" stop-color="#dae3f2"/>
    </linearGradient>
    <linearGradient id="linear-gradient-6" x1="168.05" y1="149.27" x2="89.49" y2="194.63" xlink:href="#linear-gradient-5"/>
    <linearGradient id="linear-gradient-7" x1="150.15" y1="209.17" x2="150.15" y2="95.95" xlink:href="#linear-gradient"/>
    <linearGradient id="linear-gradient-8" x1="106.29" y1="204.57" x2="170.28" y2="93.74" gradientUnits="userSpaceOnUse">
      <stop offset="0" stop-color="#b4bbe1" stop-opacity=".1"/>
      <stop offset=".41" stop-color="#b4bbe1" stop-opacity=".4"/>
      <stop offset=".83" stop-color="#b4bbe1" stop-opacity=".8"/>
      <stop offset=".84" stop-color="#c5cae7" stop-opacity=".68"/>
      <stop offset=".87" stop-color="#daddf0" stop-opacity=".55"/>
      <stop offset=".89" stop-color="#eaecf6" stop-opacity=".44"/>
      <stop offset=".92" stop-color="#f6f6fb" stop-opacity=".36"/>
      <stop offset=".96" stop-color="#fcfdfe" stop-opacity=".31"/>
      <stop offset="1" stop-color="#fff" stop-opacity=".3"/>
    </linearGradient>
    <linearGradient id="linear-gradient-9" x1="124.56" y1="110.14" x2="154.61" y2="110.14" xlink:href="#linear-gradient-5"/>
    <linearGradient id="linear-gradient-10" x1="124.56" y1="107.03" x2="154.61" y2="107.03" xlink:href="#linear-gradient-5"/>
    <linearGradient id="linear-gradient-11" x1="124.56" y1="113.25" x2="154.61" y2="113.25" xlink:href="#linear-gradient-5"/>
    <linearGradient id="linear-gradient-12" x1="124.56" y1="116.36" x2="154.61" y2="116.36" xlink:href="#linear-gradient-5"/>
    <linearGradient id="linear-gradient-13" x1="124.56" y1="119.47" x2="154.61" y2="119.47" xlink:href="#linear-gradient-5"/>
    <linearGradient id="linear-gradient-14" x1="145.3" y1="146.42" x2="154.61" y2="146.42" xlink:href="#linear-gradient-5"/>
    <linearGradient id="linear-gradient-15" x1="124.56" y1="137.34" x2="144.06" y2="137.34" xlink:href="#linear-gradient-5"/>
    <linearGradient id="linear-gradient-16" x1="124.56" y1="137.87" x2="156.62" y2="137.87" xlink:href="#linear-gradient-5"/>
    <linearGradient id="linear-gradient-17" x1="124.56" y1="134.18" x2="154.61" y2="134.18" xlink:href="#linear-gradient-5"/>
    <linearGradient id="linear-gradient-18" x1="124.56" y1="131.07" x2="154.61" y2="131.07" xlink:href="#linear-gradient-5"/>
    <linearGradient id="linear-gradient-19" x1="124.56" y1="152.38" x2="154.61" y2="152.38" xlink:href="#linear-gradient-5"/>
    <linearGradient id="linear-gradient-20" x1="124.3" y1="156.61" x2="159.32" y2="156.61" xlink:href="#linear-gradient-5"/>
    <linearGradient id="linear-gradient-21" x1="123.6" y1="159.08" x2="159.07" y2="159.08" xlink:href="#linear-gradient-5"/>
    <linearGradient id="linear-gradient-22" x1="124.56" y1="149.27" x2="154.61" y2="149.27" xlink:href="#linear-gradient-5"/>
    <linearGradient id="linear-gradient-23" x1="124.56" y1="146.16" x2="154.61" y2="146.16" xlink:href="#linear-gradient-5"/>
    <linearGradient id="linear-gradient-24" x1="142.08" y1="148.13" x2="154.61" y2="148.13" xlink:href="#linear-gradient-5"/>
    <linearGradient id="linear-gradient-25" x1="124.56" y1="139.07" x2="140.84" y2="139.07" xlink:href="#linear-gradient-5"/>
    <linearGradient id="linear-gradient-26" x1="157.56" y1="155.07" x2="172.29" y2="155.07" xlink:href="#linear-gradient-5"/>
    <linearGradient id="linear-gradient-27" x1="157.56" y1="151.96" x2="172.29" y2="151.96" xlink:href="#linear-gradient-5"/>
    <linearGradient id="linear-gradient-28" x1="157.56" y1="147.24" x2="172.29" y2="147.24" xlink:href="#linear-gradient-5"/>
    <linearGradient id="linear-gradient-29" x1="157.56" y1="166.49" x2="170.33" y2="166.49" xlink:href="#linear-gradient-5"/>
    <linearGradient id="linear-gradient-30" x1="157.56" y1="163.95" x2="172.29" y2="163.95" xlink:href="#linear-gradient-5"/>
    <linearGradient id="linear-gradient-31" x1="157.56" y1="160.84" x2="172.29" y2="160.84" xlink:href="#linear-gradient-5"/>
    <linearGradient id="linear-gradient-32" x1="157.56" y1="157.72" x2="172.29" y2="157.72" xlink:href="#linear-gradient-5"/>
    <linearGradient id="linear-gradient-33" x1="124.56" y1="123.58" x2="151.47" y2="123.58" xlink:href="#linear-gradient-5"/>
    <linearGradient id="linear-gradient-34" x1="124.56" y1="133.14" x2="172.61" y2="133.14" xlink:href="#linear-gradient-5"/>
    <linearGradient id="linear-gradient-35" x1="159.7" y1="175.19" x2="172.29" y2="175.19" xlink:href="#linear-gradient-5"/>
    <linearGradient id="linear-gradient-36" x1="162.08" y1="182.52" x2="167.38" y2="182.52" xlink:href="#linear-gradient-5"/>
    <linearGradient id="linear-gradient-37" x1="121.53" y1="169.53" x2="153.16" y2="169.53" xlink:href="#linear-gradient-5"/>
    <linearGradient id="linear-gradient-38" x1="103.82" y1="149.84" x2="129.56" y2="149.84" xlink:href="#linear-gradient-5"/>
    <linearGradient id="linear-gradient-39" x1="101.62" y1="151.57" x2="126.87" y2="151.57" xlink:href="#linear-gradient-5"/>
    <linearGradient id="linear-gradient-40" x1="99.7" y1="153.52" x2="124.89" y2="153.52" xlink:href="#linear-gradient-5"/>
    <linearGradient id="linear-gradient-41" x1="97.95" y1="155.65" x2="123.15" y2="155.65" xlink:href="#linear-gradient-5"/>
    <linearGradient id="linear-gradient-42" x1="96.52" y1="157.92" x2="121.76" y2="157.92" xlink:href="#linear-gradient-5"/>
    <linearGradient id="linear-gradient-43" x1="95.42" y1="160.46" x2="120.65" y2="160.46" xlink:href="#linear-gradient-5"/>
    <linearGradient id="linear-gradient-44" x1="94.36" y1="171.64" x2="141.66" y2="171.64" xlink:href="#linear-gradient-5"/>
    <linearGradient id="linear-gradient-45" x1="94.19" y1="175.33" x2="141.66" y2="175.33" xlink:href="#linear-gradient-5"/>
    <linearGradient id="linear-gradient-46" x1="93.65" y1="178.76" x2="141.1" y2="178.76" xlink:href="#linear-gradient-5"/>
    <linearGradient id="linear-gradient-47" x1="92.6" y1="181.93" x2="140.05" y2="181.93" xlink:href="#linear-gradient-5"/>
    <linearGradient id="linear-gradient-48" x1="91.03" y1="184.81" x2="138.54" y2="184.81" xlink:href="#linear-gradient-5"/>
    <linearGradient id="linear-gradient-49" x1="89.03" y1="187.43" x2="136.56" y2="187.43" xlink:href="#linear-gradient-5"/>
    <linearGradient id="linear-gradient-50" x1="111.23" y1="196.94" x2="134.11" y2="196.94" xlink:href="#linear-gradient-5"/>
    <linearGradient id="linear-gradient-51" x1="253.38" y1="225.93" x2="188.07" y2="263.64" xlink:href="#linear-gradient"/>
    <linearGradient id="linear-gradient-52" x1="193.07" y1="230.2" x2="212.22" y2="230.2" xlink:href="#linear-gradient"/>
    <linearGradient id="linear-gradient-53" x1="94.29" y1="236.24" x2="70.47" y2="249.99" xlink:href="#linear-gradient"/>
    <linearGradient id="linear-gradient-54" x1="54.28" y1="263.36" x2="20.51" y2="282.86" gradientTransform="translate(-26.13 6.08) rotate(-5.77)" xlink:href="#linear-gradient"/>
  </defs>
  <g class="cls-71">
    <g id="Layer_2" data-name="Layer 2">
      <g id="dinh-muc">
        <g>
          <g class="cls-24">
            <path class="cls-27" d="M181.33,47.32c-.17-.03-.34-.09-.5-.18l-29.92-17.22c-.72-.42-1.19-1.19-1.19-1.96V1.16c0-.46.23-.85.61-1.04.38-.19.86-.16,1.29.09l29.88,17.19c.72.42,1.19,1.19,1.19,1.96v26.85c0,.45-.22.83-.59,1.01-.23.11-.49.15-.76.1Z"/>
          </g>
          <g class="cls-22">
            <path class="cls-27" d="M193.11,68.28c-.12-.02-.24-.07-.36-.13l-21.56-12.4c-.52-.3-.86-.85-.86-1.41v-19.31c0-.33.16-.61.44-.75.27-.14.62-.11.93.06l21.53,12.39c.52.3.86.85.86,1.41v19.34c0,.32-.16.6-.43.73-.16.08-.35.11-.54.07Z"/>
          </g>
          <g class="cls-24">
            <path class="cls-27" d="M92.1,52.58c-.08-.01-.17-.05-.25-.09l-14.79-8.51c-.36-.21-.59-.59-.59-.97v-13.24c0-.23.11-.42.3-.51.19-.09.43-.08.64.04l14.76,8.49c.36.21.59.59.59.97v13.27c0,.22-.11.41-.29.5-.11.06-.24.07-.37.05Z"/>
          </g>
          <g>
            <g class="cls-15">
              <path class="cls-27" d="M241.92,129.24c-.18-.03-.36-.1-.54-.2l-32.08-18.46c-.77-.44-1.27-1.27-1.27-2.11v-28.73c0-.49.24-.91.65-1.11.41-.2.92-.17,1.38.09l32.03,18.43c.77.45,1.28,1.27,1.28,2.11v28.78c0,.48-.24.89-.64,1.09-.24.12-.53.16-.81.11Z"/>
            </g>
            <g>
              <path class="cls-2" d="M225.83,115.55c-2.64-.1-6.19-3.76-7.95-8.15-2.02-5.05-1.96-10.5.15-13.74,2.07-3.18,5.71-3.55,9.02-.84-.08.28-.15.56-.23.84-.76,2.81-1.55,5.6-2.26,8.44-.17.66-.2,1.51-.11,2.3.39,3.37.84,6.74,1.27,10.12.04.35.07.69.11,1.03Z"/>
              <path class="cls-2" d="M226.9,115.82c-.47-3.7-.92-7.25-1.39-10.92,2.37,2.12,4.66,4.16,7.01,6.26-1.11,3.1-2.97,4.6-5.62,4.67Z"/>
              <path class="cls-2" d="M228.07,93.76c3.72,3.37,6,10.95,4.8,15.99-2.44-2.18-4.88-4.35-7.35-6.56.85-3.15,1.7-6.29,2.55-9.43Z"/>
            </g>
          </g>
          <g>
            <polygon class="cls-115" points="24.98 121.9 37.89 129.33 68.64 111.63 55.83 104.15 24.98 121.9"/>
            <path class="cls-49" d="M56.87,51.39l-28.73,16.55,9.74,5.61,20.6-16.78v-4.44c0-.83-.9-1.35-1.62-.93Z"/>
            <polygon class="cls-8" points="28.14 69.47 56.71 53.02 66.99 58.95 38.43 75.4 28.14 69.47"/>
            <path class="cls-109" d="M67.77,57.17c-.37-.23-.82-.36-1.24-.12l-28.64,16.49-9.74-5.61,28.73-16.55c.31-.18.64-.18.93-.06h0s-1-.5-1.4-.73c-.36-.21-.79-.32-1.2-.09l-30.22,17.41v50.78l11.32-6.52v13.06l30.91-17.8c.58-.33.93-.95.93-1.62l.96-47.9s-.9-.48-1.34-.75Z"/>
            <polygon class="cls-95" points="37.89 75.37 24.98 67.93 24.98 118.71 37.89 126.15 37.89 75.37"/>
            <polygon class="cls-94" points="36.14 78.11 26.18 72.38 26.18 76.26 36.14 82 36.14 78.11"/>
            <polygon class="cls-94" points="36.14 83.24 26.18 77.51 26.18 78.85 36.14 84.58 36.14 83.24"/>
            <polygon class="cls-94" points="36.14 85.74 26.18 80.01 26.18 81.35 36.14 87.08 36.14 85.74"/>
            <polygon class="cls-94" points="36.14 119.54 26.18 113.81 26.18 115.16 36.14 120.89 36.14 119.54"/>
            <path class="cls-72" d="M68.11,57.96l-30.22,17.41v50.78l30.91-17.8c.58-.33.93-.95.93-1.62v-47.84c0-.83-.9-1.35-1.62-.93Z"/>
          </g>
          <g>
            <polygon class="cls-35" points="48.1 127.7 61.01 135.14 91.75 117.44 78.94 109.96 48.1 127.7"/>
            <path class="cls-16" d="M79.99,55.12l-28.73,16.55,9.74,5.61,20.6-16.78v-4.44c0-.83-.9-1.35-1.62-.93Z"/>
            <polygon class="cls-105" points="51.26 73.21 79.82 56.75 90.11 62.68 61.55 79.13 51.26 73.21"/>
            <path class="cls-53" d="M90.89,60.9c-.37-.23-.82-.36-1.24-.12l-28.64,16.49-9.74-5.61,28.73-16.55c.31-.18.64-.18.93-.06h0s-1-.5-1.4-.73c-.36-.21-.79-.32-1.2-.09l-30.22,17.41v50.78l11.32-6.52v13.06l30.91-17.8c.58-.33.93-.95.93-1.62l.96-47.9s-.9-.48-1.34-.75Z"/>
            <polygon class="cls-107" points="61.01 79.1 48.1 71.66 48.1 122.44 61.01 129.88 61.01 79.1"/>
            <polygon class="cls-2" points="59.25 81.84 49.3 76.11 49.3 79.99 59.25 85.73 59.25 81.84"/>
            <polygon class="cls-2" points="59.25 86.97 49.3 81.24 49.3 82.58 59.25 88.31 59.25 86.97"/>
            <polygon class="cls-2" points="59.25 89.47 49.3 83.74 49.3 85.08 59.25 90.82 59.25 89.47"/>
            <polygon class="cls-2" points="59.25 123.27 49.3 117.54 49.3 118.89 59.25 124.62 59.25 123.27"/>
            <path class="cls-16" d="M91.23,61.69l-30.22,17.41v50.78l30.91-17.8c.58-.33.93-.95.93-1.62v-47.84c0-.83-.9-1.35-1.62-.93Z"/>
          </g>
          <g>
            <polygon class="cls-63" points="0 147.3 27.89 163.63 33.77 159.93 5.87 143.6 0 147.3"/>
            <polygon class="cls-107" points="33.77 133.46 33.77 156.69 27.89 160.38 27.89 137.16 33.77 133.46"/>
            <polygon class="cls-53" points="0 120.84 27.89 137.16 33.77 133.46 5.87 117.14 0 120.84"/>
            <polygon class="cls-16" points="27.9 160.38 0 144.06 0 120.84 27.9 137.16 27.9 160.38"/>
            <polygon class="cls-107" points="0 120.84 13.95 140.61 27.89 137.16 0 120.84"/>
            <path class="cls-49" d="M22.58,125.35v4.57c0,.34-.21.62-.5.72-.08.03-.17.06-.26.06-.43.01-.76-.32-.76-.74v-4.57c0-.44-.23-.84-.6-1.05l-6.98-4.09c-.16-.1-.35-.09-.51,0-.04.02-.07.04-.1.07,0,0-.01.01-.03.02-.08.09-.12.22-.12.35v3.46c0,.32-.2.59-.48.71-.09.04-.18.07-.28.07-.43.01-.76-.33-.76-.74v-3.46c0-.75.39-1.42,1.04-1.8.16-.1.33-.17.5-.21.52-.16,1.07-.09,1.54.19l6.98,4.09c.82.48,1.33,1.37,1.33,2.33Z"/>
            <polygon class="cls-87" points="15.53 139.75 15.53 142.12 15 142.45 15 140.08 15.53 139.75"/>
            <polygon class="cls-86" points="12.16 138.41 15 140.08 15.53 139.75 12.68 138.08 12.16 138.41"/>
            <polygon class="cls-94" points="15 142.45 12.16 140.78 12.16 138.41 15 140.08 15 142.45"/>
            <path class="cls-34" d="M22.58,125.35v4.57c0,.34-.21.62-.5.72v-4.58c0-1.67-.68-2.27-.68-2.27l-8.68-5.06c.52-.16,1.07-.09,1.54.19l6.98,4.09c.82.48,1.33,1.37,1.33,2.33Z"/>
            <path class="cls-34" d="M12.84,120.35c-.08.09-.12.22-.12.35v3.46c0,.32-.2.59-.48.71v-3.52c0-.6.48-.93.6-1Z"/>
          </g>
          <g>
            <path class="cls-56" d="M102.22,141.58l108.55,62.67-75.85,43.07c-1.74.99-3.88.98-5.62-.02l-101.46-58.58c-1.9-1.09-1.89-3.84.02-4.92l74.36-42.23Z"/>
            <path class="cls-16" d="M213.32,105.77v81.13l-2.55,1.41-106-64.08-1.4-81.21s1.74-.95,2.38-1.32c.63-.37,1.44-.46,2.17-.04l102.57,59.22c1.75,1.01,2.83,2.88,2.83,4.9Z"/>
            <path class="cls-105" d="M210.77,107.18v81.13l-108.55-62.67V44.88c0-1.61,1.75-2.62,3.15-1.82l102.57,59.22c1.75,1.01,2.83,2.88,2.83,4.9Z"/>
            <polygon class="cls-72" points="205.5 105.86 205.5 179.97 105.37 122.3 105.37 48.18 205.5 105.86"/>
            <polygon class="cls-8" points="190.43 101.84 190.43 109.63 133.72 76.97 133.72 69.18 190.43 101.84"/>
            <polygon class="cls-49" points="135.28 75.65 135.28 72.19 188.86 103.06 188.86 106.51 135.28 75.65"/>
            <g>
              <path class="cls-7" d="M172.75,139.62l19.51,11.32c.88.51,1.84.03,1.84-.92v-22.79c0-.55-.33-1.1-.84-1.39l-19.51-11.32c-.88-.51-1.84-.03-1.84.92v22.79c0,.55.33,1.1.84,1.39Z"/>
              <g class="cls-14">
                <line class="cls-45" x1="192.63" y1="129.91" x2="173.38" y2="118.79"/>
                <line class="cls-45" x1="192.63" y1="132.31" x2="173.38" y2="121.19"/>
                <line class="cls-45" x1="192.63" y1="134.71" x2="173.38" y2="123.59"/>
                <line class="cls-45" x1="192.63" y1="137.12" x2="173.38" y2="125.99"/>
                <line class="cls-45" x1="192.63" y1="139.52" x2="173.38" y2="128.4"/>
                <line class="cls-45" x1="192.63" y1="141.92" x2="173.38" y2="130.8"/>
                <line class="cls-45" x1="192.63" y1="144.33" x2="173.38" y2="133.2"/>
                <line class="cls-45" x1="192.63" y1="146.73" x2="178.31" y2="138.46"/>
              </g>
            </g>
            <path class="cls-16" d="M102.22,128.75l108.55,59.56v3.11l-75.85,43.07c-1.74.99-3.88.98-5.62-.02l-101.46-58.58c-.94-.54-1.41-1.49-1.42-2.44,0-.97,0-3.14,0-3.14l75.8-41.57Z"/>
            <path class="cls-65" d="M102.22,125.64l108.55,62.67-75.85,43.07c-1.74.99-3.88.98-5.62-.02l-101.46-58.58c-1.9-1.09-1.89-3.84.02-4.92l74.36-42.23Z"/>
            <polygon class="cls-9" points="63.43 158.48 104.43 135.2 194.1 186.97 153.11 210.25 63.43 158.48"/>
            <path class="cls-92" d="M157.87,173.28l-3.73-2.15,4.48-2.55,3.73,2.15-4.48,2.55ZM175.91,185.78l-78.21-45.15-4.48,2.55,78.21,45.15,4.48-2.55ZM157.54,167.95l-3.73-2.15-4.48,2.55,3.73,2.15,4.48-2.55ZM152.73,165.18l-3.73-2.15-4.48,2.55,3.73,2.15,4.48-2.55ZM109.4,140.16l-5.41-3.12-4.48,2.55,5.41,3.12,4.48-2.55ZM171.98,176.29l-3.73-2.15-4.48,2.55,3.73,2.15,4.48-2.55ZM176.79,179.07l-3.73-2.15-4.48,2.55,3.73,2.15,4.48-2.55ZM167.17,173.51l-3.73-2.15-4.48,2.55,3.73,2.15,4.48-2.55ZM119.03,145.72l-3.73-2.15-4.48,2.55,3.73,2.15,4.48-2.55ZM123.84,148.5l-3.73-2.15-4.48,2.55,3.73,2.15,4.48-2.55ZM147.91,162.4l-3.73-2.15-4.48,2.55,3.73,2.15,4.48-2.55ZM110.49,140.79l-4.48,2.55,3.73,2.15,4.48-2.55-3.73-2.15ZM128.66,151.28l-3.73-2.15-4.48,2.55,3.73,2.15,4.48-2.55ZM133.47,154.06l-3.73-2.15-4.48,2.55,3.73,2.15,4.48-2.55ZM143.1,159.62l-3.73-2.15-4.48,2.55,3.73,2.15,4.48-2.55ZM138.28,156.84l-3.73-2.15-4.48,2.55,3.73,2.15,4.48-2.55ZM182.21,182.2l-4.33-2.5-4.48,2.55,4.33,2.5,4.48-2.55ZM150.64,200.16l-4.39,2.49,7.29,4.21,4.48-2.55-7.48-4.32.09.17ZM149.62,197.38l10.21,5.9,4.48-2.55-10.21-5.9-4.48,2.55ZM76.03,156.97l-3.49-2.02-4.48,2.55,3.49,2.02,4.48-2.55ZM152.99,192.11l13.14,7.58,4.48-2.55-13.14-7.58-4.48,2.55ZM149.65,199.48l-4.22-2.44-4.48,2.55,4.22,2.44,4.48-2.55ZM183.3,182.83l-4.48,2.55,6.18,3.57,4.48-2.55-6.18-3.57ZM172.51,188.95l6.19,3.57,4.48-2.55-6.19-3.57-4.48,2.55ZM162.68,190.49l9.73,5.62,4.48-2.55-9.73-5.62-4.48,2.55ZM86.32,168.05l4.48-2.55-13.69-7.9-4.48,2.55,13.69,7.9ZM96.06,168.54l-4.16-2.4-4.48,2.55,4.17,2.4,4.48-2.55ZM166.08,187.32l-74.67-43.11-4.48,2.55,74.67,43.11,4.48-2.55ZM153.01,194.21l-74.18-42.83-4.48,2.55,74.18,42.83,4.48-2.55ZM156.38,188.94l-71.26-41.14-4.48,2.55,71.26,41.14,4.48-2.55ZM138.97,193.31l-31.33-18.09-4.48,2.55,31.33,18.09,4.48-2.55ZM101.31,171.57l-4.16-2.4-4.48,2.55,4.16,2.4,4.48-2.55ZM144.34,196.42l-4.29-2.47-4.48,2.55,4.29,2.47,4.48-2.55ZM106.56,174.6l-4.17-2.4-4.48,2.55,4.17,2.4,4.48-2.55Z"/>
            <g>
              <path class="cls-101" d="M84.06,173.51l23.2,13.4c.42.24.42.85,0,1.09l-12.87,7.31c-.58.33-1.3.33-1.88,0l-23.2-13.4c-.42-.24-.42-.85,0-1.09l12.87-7.31c.58-.33,1.3-.33,1.88,0Z"/>
              <path class="cls-16" d="M107.26,187.35l-23.2-13.4c-.58-.34-1.3-.34-1.88,0l-12.87,7.31c-.14.08-.22.19-.27.32-.1-.27-.02-.61.27-.77l12.87-7.31c.58-.33,1.3-.33,1.88,0l23.2,13.4c.29.16.37.5.27.77-.05-.13-.13-.24-.27-.32Z"/>
            </g>
            <line class="cls-42" x1="155.43" y1="74.13" x2="162.08" y2="77.97"/>
            <path class="cls-16" d="M165.23,79.42c.16.35,0,.63-.35.63s-.76-.28-.91-.63c-.16-.35,0-.63.35-.63s.76.28.91.63Z"/>
          </g>
          <g>
            <polygon class="cls-25" points="168.99 95.95 187.33 103.89 187.33 108.82 187.33 174.93 129.24 209.17 112.98 189.42 168.99 95.95"/>
            <path class="cls-16" d="M143.61,173.25l20.3,11.9.03-.26c-1.11-.8-1.86-2.1-1.86-3.69v-2.97c0-2.12-1.02-5.72-2.51-6.75-.26-.18-.53-.34-.81-.47h-.02c-1.8-.88-4.06-.86-6.04.43-1.31.85-8.01.72-9.09,1.81Z"/>
            <path class="cls-2" d="M187.33,103.59l-51.09-29.46-9.78,5.6h0c-1.81,1-3.14,2.92-3.14,5.27v59.51c0,1.79-.47,3.54-1.31,5.08l-13.26-7.71c-.28-.19-.57-.37-.88-.5l-.02-.02c-.86-.4-1.8-.6-2.78-.57-1.08.04-2.18.36-3.21,1.03-5.99,3.89-9.64,10.54-9.64,17.57v.16c0,6.42-3.18,12.54-8.5,16.33l-11.97,8.53,50.84,29.57,11.97-8.53c5.31-3.79,8.7-10.09,8.5-16.33v-.15c0-3.37.84-6.66,2.37-9.6,1.67-3.18,4.15-5.96,7.27-7.98,1.99-1.29,4.24-1.31,6.04-.44h.02c.28.14.61.36.84.57,2.19,1.96,2.47,4.54,2.48,6.66v2.97c0,3.71,4.08,5.82,7.22,3.74h0c4.15-2.59,4.84-7.25,4.84-10.81v-59.51c0-2.45,1.45-4.44,3.39-5.4h0s9.78-5.59,9.78-5.59Z"/>
            <path class="cls-23" d="M187.33,103.59l-51.09-29.46-9.78,5.6h0c-1.81,1-3.14,2.92-3.14,5.27v59.51c0,1.79-.47,3.54-1.31,5.08l-13.26-7.71c-.28-.19-.57-.37-.88-.5l-.02-.02c-.86-.4-1.8-.6-2.78-.57-1.08.04-2.18.36-3.21,1.03-5.99,3.89-9.64,10.54-9.64,17.57v.16c0,6.42-3.18,12.54-8.5,16.33l-11.97,8.53,50.84,29.57,11.97-8.53c5.31-3.79,8.7-10.09,8.5-16.33v-.15c0-3.37.84-6.66,2.37-9.6,1.67-3.18,4.15-5.96,7.27-7.98,1.99-1.29,4.24-1.31,6.04-.44h.02c.28.14.61.36.84.57,2.19,1.96,2.47,4.54,2.48,6.66v2.97c0,3.71,4.08,5.82,7.22,3.74h0c4.15-2.59,4.84-7.25,4.84-10.81v-59.51c0-2.45,1.45-4.44,3.39-5.4h0s9.78-5.59,9.78-5.59Z"/>
            <path class="cls-2" d="M125.73,160.59l-2.33-1.35c.62.67,1.43,1.14,2.33,1.35Z"/>
            <polygon class="cls-107" points="71.75 184.4 71.75 184.9 122.59 214.44 122.59 213.97 71.75 184.4"/>
            <path class="cls-69" d="M161.16,166.91s0,0,.01,0c0,0,0,0-.01,0Z"/>
            <g>
              <path class="cls-94" d="M156.22,129.93l15.86,9.2c.23.14.53-.04.53-.32v-19.07c0-.34-.18-.65-.46-.81l-16.04-9.3c-.19-.11-.43.03-.43.25v19.11c0,.39.2.75.54.95Z"/>
              <path class="cls-85" d="M124.72,102.25l29.65,17.23c.1.06.24-.02.24-.14v-1.06c0-.1-.05-.19-.14-.24l-29.67-17.24c-.11-.06-.25.02-.25.15v1.03c0,.12.06.22.16.28Z"/>
              <path class="cls-40" d="M124.72,99.14l29.65,17.23c.1.06.24-.02.24-.14v-1.06c0-.1-.05-.19-.14-.24l-29.67-17.24c-.11-.06-.25.02-.25.15v1.03c0,.12.06.22.16.28Z"/>
              <path class="cls-88" d="M124.72,105.36l29.65,17.23c.1.06.24-.02.24-.14v-1.06c0-.1-.05-.19-.14-.24l-29.67-17.24c-.11-.06-.25.02-.25.15v1.03c0,.12.06.22.16.28Z"/>
              <path class="cls-41" d="M124.72,108.47l29.65,17.23c.1.06.24-.02.24-.14v-1.06c0-.1-.05-.19-.14-.24l-29.67-17.24c-.11-.06-.25.02-.25.15v1.03c0,.12.06.22.16.28Z"/>
              <path class="cls-11" d="M124.72,111.58l29.65,17.23c.1.06.24-.02.24-.14v-1.06c0-.1-.05-.19-.14-.24l-29.67-17.24c-.11-.06-.25.02-.25.15v1.03c0,.12.06.22.16.28Z"/>
              <path class="cls-77" d="M154.47,148.29l-8.97-5.2c-.09-.05-.2.02-.2.12v1.07c0,.13.07.24.17.3l8.89,5.15c.11.06.24-.02.24-.15v-1.06c0-.1-.05-.19-.13-.24Z"/>
              <path class="cls-10" d="M124.56,131.21v1.03c0,.12.06.22.16.28l19.1,11.11c.11.06.25-.02.25-.15v-1.02c0-.12-.06-.23-.17-.29l-19.09-11.1c-.11-.07-.25.02-.25.15Z"/>
              <path class="cls-112" d="M124.72,129.4l31.66,18.4c.1.06.24-.02.24-.14v-1.06c0-.1-.05-.19-.14-.24l-31.68-18.41c-.11-.06-.25.02-.25.15v1.03c0,.12.06.22.16.28Z"/>
              <path class="cls-81" d="M124.72,126.29l29.65,17.23c.1.06.24-.02.24-.14v-1.06c0-.1-.05-.19-.14-.24l-29.67-17.24c-.11-.06-.25.02-.25.15v1.03c0,.12.06.22.16.28Z"/>
              <path class="cls-119" d="M124.72,123.18l29.65,17.23c.1.06.24-.02.24-.14v-1.06c0-.1-.05-.19-.14-.24l-29.67-17.24c-.11-.06-.25.02-.25.15v1.03c0,.12.06.22.16.28Z"/>
              <path class="cls-91" d="M124.72,144.49l29.65,17.23c.1.06.24-.02.24-.14v-1.06c0-.1-.05-.19-.14-.24l-29.67-17.24c-.11-.06-.25.02-.25.15v1.03c0,.12.06.22.16.28Z"/>
              <path class="cls-79" d="M124.53,147.31l34.59,20.02c.13.08.17,0,.18-.06h0c.02-.24.03-.49.03-.73v-.41c0-.14-.07-.22-.1-.25-.02,0-.02-.01-.02-.01l-34.56-20.01c-.1-.06-.22.01-.23.13-.03.28-.06.56-.11.83-.03.19.06.38.22.48Z"/>
              <path class="cls-100" d="M123.77,149.67l34.71,20.1c.14.08.33,0,.38-.15.08-.25.15-.51.2-.76.03-.14-.03-.27-.15-.34l-34.76-20.11c-.1-.06-.22,0-.26.11-.08.24-.17.48-.27.72-.07.17-.01.36.14.45Z"/>
              <path class="cls-67" d="M124.72,141.38l29.65,17.23c.1.06.24-.02.24-.14v-1.06c0-.1-.05-.19-.14-.24l-29.67-17.24c-.11-.06-.25.02-.25.15v1.03c0,.12.06.22.16.28Z"/>
              <path class="cls-116" d="M124.72,138.27l29.65,17.23c.1.06.24-.02.24-.14v-1.06c0-.1-.05-.19-.14-.24l-29.67-17.24c-.11-.06-.25.02-.25.15v1.03c0,.12.06.22.16.28Z"/>
              <path class="cls-68" d="M154.47,150.95l-12.23-7.08c-.07-.04-.16.01-.16.1v1.18c0,.08.04.15.11.19l12.18,7.06c.11.06.24-.02.24-.14v-1.06c0-.1-.05-.19-.13-.24Z"/>
              <path class="cls-38" d="M124.56,133.85v1.03c0,.11.06.22.16.27l15.92,9.27c.09.05.2-.02.2-.12v-1.13c0-.08-.04-.16-.11-.2l-15.92-9.27c-.11-.06-.25.02-.25.15Z"/>
              <path class="cls-55" d="M157.71,151.63l14.34,8.33c.1.06.24-.02.24-.14v-1.06c0-.1-.05-.19-.14-.24l-14.36-8.34c-.11-.06-.25.02-.25.15v1.03c0,.12.06.22.16.28Z"/>
              <path class="cls-48" d="M157.71,148.52l14.34,8.33c.1.06.24-.02.24-.14v-1.06c0-.1-.05-.19-.14-.24l-14.36-8.34c-.11-.06-.25.02-.25.15v1.03c0,.12.06.22.16.28Z"/>
              <path class="cls-12" d="M157.71,145.78l14.34,8.33c.1.06.24-.02.24-.14v-5.02c0-.1-.05-.19-.14-.24l-14.36-8.34c-.11-.06-.25.02-.25.15v4.99c0,.12.06.22.16.28Z"/>
              <path class="cls-78" d="M157.71,163.62l12.38,7.2c.1.06.24-.02.24-.14v-1.06c0-.1-.05-.19-.14-.24l-12.39-7.21c-.11-.06-.25.02-.25.15v1.03c0,.12.06.22.16.28Z"/>
              <path class="cls-59" d="M157.71,160.51l14.34,8.33c.1.06.24-.02.24-.14v-1.06c0-.1-.05-.19-.14-.24l-14.36-8.34c-.11-.06-.25.02-.25.15v1.03c0,.12.06.22.16.28Z"/>
              <path class="cls-117" d="M157.71,157.4l14.34,8.33c.1.06.24-.02.24-.14v-1.06c0-.1-.05-.19-.14-.24l-14.36-8.34c-.11-.06-.25.02-.25.15v1.03c0,.12.06.22.16.28Z"/>
              <path class="cls-110" d="M157.71,154.28l14.34,8.33c.1.06.24-.02.24-.14v-1.06c0-.1-.05-.19-.14-.24l-14.36-8.34c-.11-.06-.25.02-.25.15v1.03c0,.12.06.22.16.28Z"/>
              <path class="cls-74" d="M124.56,115.29v1.03c0,.11.06.22.16.27l26.44,15.4c.14.08.32-.03.32-.19v-.91c0-.14-.07-.26-.19-.33l-26.48-15.42c-.11-.06-.25.02-.25.15Z"/>
              <path class="cls-64" d="M124.72,120l47.65,27.74c.1.06.24-.02.24-.14v-1.06c0-.1-.05-.19-.14-.24l-47.67-27.75c-.11-.06-.25.02-.25.15v1.03c0,.12.06.22.16.28Z"/>
              <path class="cls-58" d="M159.7,171.62c1.39,1.05,2.37,4.53,2.38,6.57v1.76c0,.08.04.14.1.18.71.41,4.97,2.86,5.74,3.31.07.04.16.03.23-.01.87-.61,1.63-1.32,2.27-2.13.24-.3.47-.61.67-.93,0,0,0-.01.01-.02,1.28-2.17,1.32-7,1.03-7.17l-10.65-6.18s-.18-.11-.3-.1c-.13.01-.26.05-.29.4,0,.02,0,.04,0,.05h0c-.09,1.48-.53,2.96-1.19,4.26Z"/>
              <path class="cls-99" d="M162.08,180.89v.26c0,.24.02.48.05.71l3.71,2.1c.39.22.87.24,1.3.05.08-.03.15-.07.23-.11l-5.29-3.01Z"/>
              <path class="cls-50" d="M122,170.67l19.48,11.36c.37.22.86.02.99-.4.39-1.32.9-2.6,1.54-3.82,1.67-3.18,4.15-5.95,7.27-7.98.53-.34,1.08-.6,1.63-.76.29-.09.34-.49.08-.64l-3.09-1.81-10.66-6.23-5.43-3.17c-.41-.24-.91-.34-1.38-.23-.71.16-1.41.45-2.08.89-3.11,2.02-5.6,4.8-7.27,7.98-.62,1.18-1.13,2.43-1.51,3.71-.13.43.06.88.44,1.1Z"/>
              <path class="cls-66" d="M103.82,143.07l18.4,10.72,5.98,3.48c.11.06.25.05.36-.02.11-.08.23-.15.34-.23.2-.13.39-.25.6-.34,0,0,.02-.02.03-.02.08-.05.03-.1,0-.12-.01,0-.02,0-.02,0l-7.36-4.28-16.93-9.87c-.46.16-.9.38-1.34.66-.02.01-.04.02-.05.03Z"/>
              <path class="cls-52" d="M101.68,144.67c-.1.08-.08.24.02.3l20.58,11.99,3.59,2.09c.13.08.3.06.42-.05.14-.13.29-.25.43-.38.2-.17.18-.47-.03-.59l-4.48-2.61-19.45-11.34c-.13-.07-.29-.06-.41.03-.23.18-.46.36-.68.55Z"/>
              <path class="cls-47" d="M99.89,147.05l24,13.98c.17.1.39.06.52-.1.13-.15.27-.31.41-.46.13-.14.1-.36-.06-.45l-1.36-.79-22.7-13.23c-.17-.1-.39-.07-.54.08-.12.12-.24.25-.36.38-.17.18-.12.46.08.58Z"/>
              <path class="cls-111" d="M98.08,149.13l24.14,14.07c.19.11.43.05.56-.14.1-.15.2-.3.3-.44.11-.16.07-.38-.09-.48l-24.09-14.04c-.18-.1-.42-.06-.55.12-.12.16-.24.33-.36.5-.1.14-.05.33.09.41Z"/>
              <path class="cls-32" d="M96.61,151.41s0,0,.01,0l24.29,14.14c.18.11.43.03.53-.17.06-.13.13-.26.2-.39.03-.06.06-.11.09-.17.1-.19-.02-.3-.06-.33-.02,0-.02-.01-.02-.01l-24.42-14.22c-.08-.05-.18-.02-.23.06-.16.26-.31.54-.45.81,0,0,0,0,0,.02-.02.05-.05.18.07.26Z"/>
              <path class="cls-37" d="M95.49,153.9l24.61,14.34c.07.04.17,0,.2-.08.1-.32.22-.64.34-.95.03-.08,0-.16-.07-.2l-24.55-14.31c-.08-.05-.19,0-.23.08-.13.31-.25.62-.36.94-.03.07,0,.15.07.19Z"/>
              <path class="cls-61" d="M94.37,158.29c-.02.17.06.34.21.42l46.84,27.24c.1.06.24-.02.24-.14v-1.06c0-.1-.05-.19-.14-.24l-46.74-27.18c-.12-.07-.28,0-.3.15-.04.27-.08.54-.11.82Z"/>
              <path class="cls-102" d="M94.19,162.04c0,.13.05.25.16.32l47.06,27.37s.06.02.09.02c.08,0,.15-.07.15-.16v-1.06c0-.05-.02-.1-.04-.14-.02-.04-.06-.07-.1-.1l-47.01-27.34c-.12-.07-.28.02-.28.17,0,.31-.02.62-.04.92Z"/>
              <path class="cls-33" d="M93.67,165.42c-.04.16.03.32.17.41l46.74,27.18c.12.07.27,0,.3-.12.08-.28.16-.57.22-.85.03-.12-.03-.24-.13-.3l-46.81-27.22c-.13-.07-.29,0-.32.15-.05.25-.11.51-.17.76Z"/>
              <path class="cls-54" d="M92.63,168.51c-.08.18-.01.39.15.48l46.61,27.11c.1.06.23.02.28-.09.13-.25.24-.5.35-.76.06-.13,0-.28-.12-.36l-46.67-27.14c-.13-.08-.3-.01-.35.13-.08.21-.17.42-.25.62Z"/>
              <path class="cls-108" d="M91.07,171.47c-.08.12-.04.28.08.35l46.6,27.1c.1.05.22.02.28-.07.16-.23.32-.47.48-.71.07-.11.04-.25-.07-.32l-46.6-27.1c-.13-.07-.3-.03-.37.11-.13.22-.26.43-.4.65Z"/>
              <path class="cls-62" d="M89.09,174.08c-.1.11-.08.28.05.35l46.48,27.03c.09.05.2.03.28-.04.2-.21.41-.42.6-.64.1-.11.07-.28-.05-.35l-46.45-27.01c-.14-.08-.31-.04-.42.08-.16.19-.33.39-.49.58Z"/>
              <path class="cls-82" d="M111.33,190.71c-.14.11-.13.32.02.41l21.66,12.59c.08.05.18.04.26-.01.26-.19.51-.38.76-.58.11-.08.1-.25-.02-.32l-21.69-12.61c-.13-.08-.3-.06-.42.05-.19.16-.38.32-.57.48Z"/>
            </g>
            <path class="cls-16" d="M177.54,109.19c-1.94.96-3.39,2.93-3.39,5.38v59.51c0,5.56-1.83,8.81-4.85,10.81-3.14,2.08-7.22-.03-7.22-3.74v-2.97c0-2-.25-4.14-1.62-5.71-1.18-1.35-2.98-2.2-4.79-2.03-1.57.15-3,.95-4.27,1.88-3.88,2.86-6.67,7.16-7.69,11.87-.84,3.86-.54,7.95-1.82,11.68-1.47,4.27-4.85,7.61-8.46,10.34-2.22,1.68-10.85,7.76-10.85,7.76l.03.39s7.06-4.91,10.53-7.45c3.47-2.54,7.01-5.84,8.71-9.79,2.13-4.96,1.27-10.46,3.01-15.57,1.3-3.85,4.11-7.17,7.51-9.38,1.54-1,3.23-1.83,5-1.36,1.49.4,2.64,1.65,3.3,3.05.97,2.06,1.05,4.24,1.09,6.46.03,1.72.24,3.45,1.71,4.55,2.68,2,4.58,1.11,5.92.42.43-.22,1.79-.92,3.41-3.49,1.92-3.05,1.67-8.37,1.67-8.37,0,0,.09-58.17.09-58.91,0-.65.23-3.56,2.99-4.97l9.78-5.65v-.31l-9.78,5.6Z"/>
            <text class="cls-19" transform="translate(126.33 95.53) rotate(30) scale(1.15 .87) skewX(23.41)"><tspan x="0" y="0">PROFILE</tspan></text>
            <g>
              <path class="cls-2" d="M161.18,119.4c0,1.45,1.18,3.31,2.63,4.14,1.45.84,2.63.34,2.63-1.12s-1.18-3.31-2.63-4.14c-1.45-.84-2.63-.34-2.63,1.12Z"/>
              <path class="cls-2" d="M157.86,126.71l11.91,6.85c-.01-3.28-2.66-7.46-5.95-9.35-1.64-.94-3.13-1.13-4.21-.68-1.08.46-1.74,1.54-1.74,3.18Z"/>
            </g>
            <polygon class="cls-94" points="158 132.38 158.57 133.84 159.83 134.76 158.92 135.12 159.13 136.5 158 135.25 156.88 135.2 157.09 134.06 156.18 132.65 157.44 133.19 158 132.38"/>
            <polygon class="cls-94" points="162.9 135.22 163.47 136.69 164.73 137.6 163.82 137.96 164.03 139.34 162.9 138.1 161.77 138.04 161.99 136.91 161.08 135.49 162.34 136.04 162.9 135.22"/>
            <polygon class="cls-94" points="167.8 138.06 168.37 139.53 169.63 140.44 168.72 140.8 168.93 142.18 167.8 140.94 166.67 140.88 166.89 139.75 165.98 138.33 167.24 138.88 167.8 138.06"/>
          </g>
          <g>
            <g class="cls-28">
              <path class="cls-21" d="M143.75,51.92c-.12-.02-.24-.07-.36-.13l-21.56-12.4c-.52-.3-.86-.85-.86-1.41v-19.31c0-.33.16-.61.44-.75.27-.14.62-.11.93.06l21.53,12.39c.52.3.86.85.86,1.41v19.34c0,.32-.16.6-.43.73-.16.08-.35.11-.54.07Z"/>
            </g>
            <polygon class="cls-94" points="132.46 28.86 134.1 33.15 137.79 35.81 135.12 36.87 135.75 40.9 132.46 37.26 129.16 37.09 129.79 33.79 127.13 29.66 130.81 31.25 132.46 28.86"/>
          </g>
          <path class="cls-44" d="M199.94,81.04c.55,1.25,0,2.26-1.25,2.26s-2.71-1.01-3.26-2.26,0-2.26,1.25-2.26,2.71,1.01,3.26,2.26Z"/>
          <path class="cls-44" d="M241.04,180.99c.55,1.25,0,2.26-1.25,2.26s-2.71-1.01-3.26-2.26,0-2.26,1.25-2.26,2.71,1.01,3.26,2.26Z"/>
          <path class="cls-44" d="M94.91,45.09c.55,1.25,0,2.26-1.25,2.26s-2.71-1.01-3.26-2.26,0-2.26,1.25-2.26,2.71,1.01,3.26,2.26Z"/>
          <g>
            <line class="cls-46" x1="154.14" y1="43.03" x2="154.14" y2="47.15"/>
            <line class="cls-46" x1="156.07" y1="46.07" x2="152.21" y2="43.85"/>
          </g>
          <g>
            <line class="cls-46" x1="217.26" y1="64.06" x2="217.26" y2="68.19"/>
            <line class="cls-46" x1="219.19" y1="67.11" x2="215.32" y2="64.89"/>
          </g>
          <g>
            <line class="cls-46" x1="107.57" y1="27.14" x2="107.57" y2="31.26"/>
            <line class="cls-46" x1="109.51" y1="30.19" x2="105.64" y2="27.96"/>
          </g>
          <g>
            <line class="cls-46" x1="254.31" y1="172.21" x2="254.31" y2="176.33"/>
            <line class="cls-46" x1="256.25" y1="175.25" x2="252.38" y2="173.03"/>
          </g>
          <g>
            <line class="cls-46" x1="235.97" y1="139.52" x2="235.97" y2="143.64"/>
            <line class="cls-46" x1="237.9" y1="142.57" x2="234.04" y2="140.34"/>
          </g>
          <g>
            <path class="cls-75" d="M230.3,216.52l39.35,22.72c1.55.89,1.55,3.13,0,4.02l-58.21,33.61c-2.12,1.23-4.74,1.24-6.87.02l-39.7-22.55c-1.56-.89-1.57-3.13-.01-4.03l58.53-33.79c2.14-1.23,4.77-1.23,6.91,0Z"/>
            <path class="cls-16" d="M230.31,205.98l40.51,23.14s0,.81,0,1.59c0,.78-.39,1.56-1.16,2.01l-58.21,33.61c-2.12,1.23-4.74,1.24-6.87.02l-39.7-22.55c-.76-.43-1.16-1.19-1.17-1.96-.02-.8,0-1.63,0-1.63l59.69-34.23c2.14-1.23,4.77-1.23,6.91,0Z"/>
            <path class="cls-105" d="M230.3,204.39l39.35,22.72c1.55.89,1.55,3.13,0,4.02l-58.21,33.61c-2.12,1.23-4.74,1.24-6.87.02l-39.7-22.55c-1.56-.89-1.57-3.13-.01-4.03l58.53-33.79c2.14-1.23,4.77-1.23,6.91,0Z"/>
            <polygon class="cls-72" points="225.59 207.68 263.54 229.59 210.15 260.41 171.88 238.68 225.59 207.68"/>
            <g>
              <g>
                <path class="cls-18" d="M199.93,225.57c10.47-2.8,24.33.3,30.97,6.94,6.64,6.64,3.53,14.29-6.94,17.09-10.47,2.8-24.33-.3-30.97-6.94-6.64-6.64-3.53-14.29,6.94-17.09Z"/>
                <path class="cls-20" d="M203.87,229.51c7.03-1.88,16.35.2,20.81,4.66,4.46,4.46,2.37,9.6-4.66,11.49-7.03,1.88-16.35-.2-20.81-4.66s-2.37-9.6,4.66-11.49Z"/>
                <path class="cls-13" d="M206.89,232.53c4.41-1.18,10.25.13,13.04,2.92,2.79,2.79,1.49,6.02-2.92,7.2-4.41,1.18-10.25-.13-13.04-2.92s-1.49-6.02,2.92-7.2Z"/>
              </g>
              <polygon class="cls-94" points="207.76 233.42 211.74 235.28 215.42 234.36 215.01 237.21 218.33 239.68 214.09 239.58 212.46 242.03 210.25 239.11 205.92 238.16 208.8 236.46 207.76 233.42"/>
            </g>
            <g>
              <path class="cls-17" d="M184.43,254.91v-1.59s8.74-5.37,8.74-5.37c.1-.05.18-.1.25-.16.22-.16.38-.39.48-.66.1-.27.14-.59.11-.91l2.94-1.83s.1-.06.14-.09c.04-.03.08-.08.11-.12,1.8.75,4.03,1.18,6.45,1.11,5.63-.17,10.15-2.9,10.31-6.18h0s0-.28,0-.28h0s-.06-1.83-.06-1.83v-.1.02c-.17-3.37-4.92-5.94-10.67-5.77-5.79.17-10.4,3.06-10.31,6.46l.06,1.84c.04,1.29.75,2.46,1.92,3.42l-2.21,1.38c-.28-.14-.59-.2-.87-.17-.15.02-.3.06-.45.12-.02.02-.05.02-.07.04l-.09.06s-.02.02-.03.02c-.02,0-.02.02-.03.02l-10.82,6.65v1.59l4.11,2.33Z"/>
              <path class="cls-16" d="M191.76,232.44c0,.32.06.64.15.95.88,3.06,5.48,5.29,10.96,5.13,5.48-.16,9.95-2.66,10.64-5.77.07-.31.09-2.92.09-2.92,0,0-2.87-5.71-11.11-5.6-4.99.07-10.74,6.24-10.74,6.24,0,0-.02,1.34,0,1.96ZM193.49,232.39c-.02-.78.23-1.52.72-2.2,1.37-1.93,4.56-3.35,8.31-3.46s7.02,1.11,8.5,2.96c.52.65.82,1.38.85,2.16.09,2.98-3.96,4.13-9.03,4.28-5.08.15-9.26-.76-9.35-3.74Z"/>
              <g>
                <path class="cls-5" d="M193.07,230.48c.09,3.04,4.45,5.37,9.73,5.22,5.29-.16,9.5-2.74,9.41-5.78s-4.45-5.37-9.73-5.22-9.5,2.74-9.41,5.78Z"/>
                <path class="cls-1" d="M197.14,225.76c9.53.21,12.4,4.9,13.2,7.56,1.22-.96,1.92-2.14,1.88-3.4-.09-3.04-4.42-5.27-9.71-5.11-1.94.06-3.88.35-5.37.96Z"/>
                <path class="cls-3" d="M194.02,230.6c.08,2.69,3.94,4.76,8.62,4.62,4.68-.14,8.41-2.43,8.33-5.12,0-.08,0-.15-.02-.23-.26,2.52-3.85,4.6-8.31,4.74-4.54.14-8.3-1.81-8.6-4.38-.02.12-.02.25-.02.37Z"/>
              </g>
              <path class="cls-16" d="M192.73,228.59l2.48-2.58,7.15-1.77,7.24,1.35,2.63,2.43.68,1.51-1.04.36s-1.22-4.92-9.49-4.68c-8.27.24-9.2,5.23-9.2,5.23l-1.06-.3.59-1.55Z"/>
              <path class="cls-90" d="M191.76,230.48c0,.32.06.64.15.95.88,3.06,5.48,5.29,10.96,5.13,5.48-.16,9.95-2.66,10.64-5.77.07-.31.1-.64.09-.96-.1-3.54-5.08-6.26-11.11-6.09s-10.84,3.19-10.74,6.73ZM193.49,230.43c-.02-.77.23-1.52.72-2.2,1.37-1.93,4.56-3.35,8.31-3.46,3.75-.11,7.02,1.11,8.5,2.96.52.65.82,1.38.85,2.16.09,2.98-3.96,5.51-9.03,5.66-5.08.15-9.26-2.14-9.35-5.12Z"/>
              <path class="cls-2" d="M191.76,230.48c0,.32.06.64.15.95.88,3.06,5.48,5.29,10.96,5.13,5.48-.16,9.95-2.66,10.64-5.77.07-.31.1-.64.09-.96-.1-3.54-5.08-6.26-11.11-6.09s-10.84,3.19-10.74,6.73ZM193.49,230.43c-.02-.77.23-1.52.72-2.2,1.37-1.93,4.56-3.35,8.31-3.46,3.75-.11,7.02,1.11,8.5,2.96.52.65.82,1.38.85,2.16.09,2.98-3.96,5.51-9.03,5.66-5.08.15-9.26-2.14-9.35-5.12Z"/>
              <path class="cls-93" d="M190.45,238.06l.21.31s0,0,0,0l.94,1.39.24.36,4.1-2.56h0c.05-.03.1-.06.15-.09.13-.1.22-.24.28-.39.03-.08.05-.16.06-.25h0c.04-.26,0-.54-.14-.81-.16-.33-.42-.58-.7-.7-.15-.06-.31-.09-.47-.07-.09,0-.18.03-.27.07-.02,0-.03.01-.04.02l-.06.04s-.01,0-.02.01l-4.3,2.68Z"/>
              <path class="cls-2" d="M190.45,238.06l.21.31s0,0,0,0l4.94-3.07c-.15-.06-.31-.09-.47-.07-.09,0-.18.03-.27.07-.02,0-.03.01-.04.02l-.06.04s-.01,0-.02.01l-4.3,2.68Z"/>
              <path class="cls-16" d="M191.6,239.75l.24.36,4.1-2.56h0c.05-.03.1-.06.15-.09.13-.1.22-.24.28-.39.03-.08.05-.16.06-.25l-4.84,2.94Z"/>
              <path class="cls-51" d="M177.38,245.23l.6,1.05,1.53,2.7,12.5-7.72s0,0,0,0h0c.1-.05.18-.1.26-.16.22-.17.39-.41.5-.68.2-.54.18-1.22-.13-1.86-.11-.24-.26-.45-.42-.63,0,0,0,0,0,0-.45-.5-1.05-.76-1.61-.7-.16.02-.32.06-.46.13-.03.01-.05.02-.08.04l-.1.06s-.02.01-.03.02c0,0-.02.01-.03.02l-12.53,7.74Z"/>
              <path class="cls-73" d="M177.38,245.23l.6,1.05,1.5-.45,12.74-7.91s0,0,0,0c0,0,0,0,0,0-.45-.5-1.05-.76-1.61-.7-.16.02-.32.06-.46.13-.03.01-.05.02-.08.04l-.1.06s-.02.01-.03.02c0,0-.02.01-.03.02l-12.53,7.74Z"/>
              <path class="cls-60" d="M176.75,247.94c.52,1.08,1.63,1.62,2.5,1.21h0c.09-.05.18-.1.26-.16.22-.17.39-.41.5-.69.21-.54.18-1.22-.12-1.86-.43-.9-1.27-1.42-2.04-1.34-.16.02-.32.06-.46.13-.03.01-.05.03-.08.04l-.1.06s-.02.01-.03.02c-.7.5-.9,1.59-.42,2.58Z"/>
            </g>
            <path class="cls-2" d="M213.61,220.13l12.45,7.16c3.96-3.03,3.29-5.4.61-7.25-4.23-2.9-9.09-2.21-13.05.09Z"/>
            <g class="cls-26">
              <path class="cls-16" d="M239.75,235.34c-.06,0-.13-.02-.19-.05l-12.22-7.13c-.18-.11-.25-.34-.14-.52.1-.18.34-.25.52-.14l12.22,7.13c.18.11.25.34.14.52-.07.12-.2.19-.33.19Z"/>
              <path class="cls-16" d="M241.15,234.53c-.06,0-.13-.02-.19-.05l-12.22-7.13c-.18-.11-.25-.34-.14-.52.1-.18.34-.25.52-.14l12.22,7.13c.18.11.25.34.14.52-.07.12-.2.19-.33.19Z"/>
              <path class="cls-16" d="M242.55,233.73c-.06,0-.13-.02-.19-.05l-12.22-7.13c-.18-.11-.25-.34-.14-.52.1-.18.34-.25.52-.14l12.22,7.13c.18.11.25.34.14.52-.07.12-.2.19-.33.19Z"/>
              <path class="cls-16" d="M243.95,232.93c-.06,0-.13-.02-.19-.05l-12.22-7.13c-.18-.11-.25-.34-.14-.52.1-.18.34-.25.52-.14l12.22,7.13c.18.11.25.34.14.52-.07.12-.2.19-.33.19Z"/>
              <path class="cls-16" d="M245.34,232.13c-.06,0-.13-.02-.19-.05l-12.22-7.13c-.18-.11-.25-.34-.14-.52.1-.18.34-.25.52-.14l12.22,7.13c.18.11.25.34.14.52-.07.12-.2.19-.33.19Z"/>
            </g>
            <path class="cls-2" d="M231.33,214.94c-1.56-.75-3.77-.4-4.93.79-1.16,1.19-.84,2.76.71,3.51,1.56.75,3.77.4,4.93-.79,1.16-1.19.84-2.76-.71-3.51Z"/>
          </g>
          <g>
            <polygon class="cls-86" points="227.09 160.7 227.09 185.55 225.41 186.47 202.25 169.05 198.63 146.19 200.32 145.27 227.09 160.7"/>
            <polygon class="cls-87" points="227.09 160.7 227.09 185.55 225.41 186.47 202.25 169.05 225.41 161.61 227.09 160.7"/>
            <polygon class="cls-94" points="225.41 161.61 225.41 186.47 198.63 171.04 198.63 146.19 225.41 161.61"/>
            <g>
              <polygon class="cls-2" points="201.96 154.37 201.96 156.45 211.64 167.29 221.33 167.52 221.33 165.46 201.96 154.37"/>
              <polygon class="cls-2" points="211.64 168.5 201.96 157.65 201.96 168.25 221.33 179.34 221.33 168.73 211.64 168.5"/>
            </g>
          </g>
          <g>
            <polygon class="cls-86" points="108.33 80.13 108.33 97.63 106.46 98.67 90.15 86.4 87.61 70.3 89.47 69.27 108.33 80.13"/>
            <polygon class="cls-87" points="108.33 80.13 108.33 97.63 106.46 98.67 90.15 86.4 106.46 81.16 108.33 80.13"/>
            <polygon class="cls-94" points="106.46 81.16 106.46 98.67 87.61 87.81 87.61 70.3 106.46 81.16"/>
            <polyline class="cls-43" points="92.35 82.61 94.9 87.66 102.25 82.28"/>
          </g>
          <g>
            <g>
              <path class="cls-89" d="M54.84,190.93s2.26.41,2.76.03c.49-.38,2.67-2.47,2.97-2.77.3-.3,4.59-1.35,4.94-1.35s1.9.16,1.87.38c-.03.22-2.71,2.74-3.02,2.99-.31.25-1.28,1.05-1.43,1.54-.16.49-1.56,2.16-2.58,2.22-.5.03-1.24-.07-1.24-.07l-5.01.71"/>
              <path class="cls-104" d="M69.55,183.17s-1.04,1.08-1.51,1.22c-.24.1-.54.11-.8.14-.46.07-2.56.44-3.5,1.01-.59.36-1.88,1.97-2.06,2.39-.02.05-.04.1-.03.15,0,.06.04.1.09.14.49.45,1.14-.03,1.5-.4.2-.2.89-.77.99-.61.12.88-.61,2.63-1.13,3.22-.7.79-2.67,1.66-2.32,2.05.13.15.53.27,1.27.1.89,0,2.09-.02,2.85-.5.93-.58,1.5-1.4,2.17-2.15.47-.52.84-1.21,1.5-1.87.41-.41,2.42-1.59,2.42-1.59l-1.45-3.29Z"/>
              <path class="cls-2" d="M73.96,141.21c-4.32.39-5.54,2.54-6.29,4.11-1.5,3.13-.76,7.57-.71,9.37.19,6.43.83,12.83,1.46,19.23.41,4.09.81,8.17,1.22,12.26.03.26.05.53.18.77.37.71,1.47.73,2.1.23s.91-1.31,1.15-2.08c1.02-3.32,1.83-6.78,1.61-10.25-.23-3.61-1.56-7.05-2.17-10.61-.81-4.69-.38-9.59-1.79-14.14"/>
              <path class="cls-97" d="M72.73,153.23c.23,1.08-4.1-1.09-3.9,0,.17.95.97,13.43,1.14,14.95.28,2.53-.62,5.87-.41,8.41.12,1.43.3,2.86.74,4.22.17.52.43,1.08.95,1.27.25.09.53.08.78,0,1.09-.29,1.71-1.39,2.22-2.39"/>
              <path class="cls-30" d="M99.14,244.73c-2.89-6-9.66-9.61-15.5-12.14-2.81-1.22-5.89-1.91-8.92-2.3-3-.38-6.28-.41-8.79,1.29-2.51,1.7-3.59,5.69-1.42,7.8.99.96,2.39,1.33,3.6,2,2.39,1.33,3.9,3.75,5.53,5.95,2.27,3.08,4.97,5.9,8.28,7.83,3.3,1.93,7.25,2.91,11.01,2.2,2.4-.45,4.74-1.66,6.08-3.7,1.72-2.6,1.49-6.13.14-8.94Z"/>
              <path class="cls-106" d="M94.44,240.55s-.31,1.22-.48,2.25c-.18,1.03-.23,2.35-.35,3.44-.12,1.09-1.13,3.69-1.6,4.34-.47.65-1.27,1.37-2.28,1.62-1.45.36-3.09.09-3.51-.07-.64-.24-.9-.9-.9-.9"/>
              <path class="cls-106" d="M67.57,236.57c0,.68,1.01,1.15,2.05,1.24.97.08,2.13-.14,3.36-.47,1.22-.33,1.74-.62,2.61-.99.97-.41,1.91-.17,1.91-.17,0,0,0,.11,0,.24,0,0,2.4.35,4.67-.78,0,0,0,0,.01,0,0,0,.02-.54-.01-1-.02-.4-.09-.97-.09-.97l-14.52,2.42v.49Z"/>
              <path class="cls-36" d="M84.91,250.08c.01.13.04.25.06.37.14.69.52,1.22,1.25,1.47,1.36.47,3.89.22,5.13-1.13,1.24-1.35,2.13-4.83,2.13-6.9s1.09-4,1.09-4h-5.65s-.09.11-.13.18c-.97,1.36-3.51,6.55-3.76,8.22-.1.66-.15,1.26-.11,1.78Z"/>
              <path class="cls-103" d="M84.91,250.08s.05-.08.06-.14c.25-1.35,1.54-3.95,2.23-5.32.69-1.37,1.96-3.86,1.96-3.86,0,0-.17-.3-.38-.68-.97,1.36-3.51,6.55-3.76,8.22-.1.66-.15,1.26-.11,1.78Z"/>
              <path class="cls-114" d="M84.96,250.45c.14.69.52,1.22,1.25,1.47,1.36.47,3.89.22,5.13-1.13,1.24-1.35,2.13-4.83,2.13-6.9s1.09-4,1.09-4h-2.3l-.18,1.19s-.06,4.83-1.21,7.21c-1.15,2.38-3.24,2.88-4.15,2.83-.91-.06-1.49-.18-1.74-.66,0,0,0,0,0,0Z"/>
              <path class="cls-36" d="M67.56,236.35c.04.34.23.59.51.73.95.43,2.93.29,4.14,0,1.21-.3,3.45-1.36,4.64-1.48,1.19-.12,3.5-.33,4.08-.49.59-.17,1.19-.48,1.31-1.6.12-1.12-.44-2.04-.44-2.04l-.93.06-5.5.35h-.13s-1.91.69-2.8,1.01c-.9.31-2.77.6-4,1.74-.2.19-.37.37-.49.55h0c-.32.45-.42.85-.38,1.18Z"/>
              <path class="cls-103" d="M67.95,235.17c.9-.77,2.78-1.34,4.31-1.74,1.55-.4,3.05-.88,3.05-.88,0,0,.04-.3.06-.69h-.13s-1.91.69-2.8,1.01c-.9.31-2.77.6-4,1.74-.2.19-.37.37-.49.55Z"/>
              <path class="cls-114" d="M67.56,236.34c.04.34.23.59.51.73.95.43,2.93.29,4.14,0,1.21-.3,3.45-1.36,4.64-1.48,1.19-.12,3.5-.33,4.08-.49.59-.17,1.19-.48,1.31-1.6.12-1.12-.44-2.04-.44-2.04l-.93.06.03.3s.86,1.19.29,2.1c-.57.9-2.71.77-4.02.93-1.3.16-3.18,1.22-4.99,1.53-1.81.31-3.98.57-4.61,0h0Z"/>
              <path class="cls-73" d="M71.79,201.86c.23.92.41,1.82.57,2.68,0,.03,0,.05,0,.05.15.85.27,1.66.38,2.42,0,.03,0,.05.01.08.01.08.04.22.06.42.03.2.06.39.08.57.24,1.56.68,4.78,1.06,9.16,0,.04,0,.06,0,.1.16,1.46.29,3.43.4,5.52.03.48.06.97.08,1.46.13,2.73.24,5.52.3,7.57.01.51.3.97.76,1.22.36.2.74.3,1.19.32,1.21.04,2.18-.14,2.94-.39.73-.25,1.28-.57,1.65-.84.42-.31.65-.81.63-1.32-.05-1.73-.16-6.32.03-10.9.23-5.81.68-16.76.68-16.76l-2.05-18.35-3.81-.85c.2-1.07.41-2.29.56-3.15.11-.66.19-1.12.19-1.12h-7.45s0,.11-.01.31c-.09,1.96-.48,12.93,1.73,21.8Z"/>
              <path class="cls-113" d="M71.79,201.86c.23.92.41,1.82.57,2.68-.07-.63-.76-6.69-1.07-9.78-.32-3.27.2-13.49.2-13.49,0,0-.65-.55-1.43-1.21-.09,1.96-.48,12.93,1.73,21.8Z"/>
              <path class="cls-51" d="M75.04,182.59s.17,10.55,2.73,21.44c1.55,6.57,1.86,19.67,1.88,29.01.73-.25,1.28-.57,1.65-.84.42-.31.65-.81.63-1.32-.05-1.73-.16-6.32.03-10.9.23-5.81.68-16.76.68-16.76l-2.05-18.35-3.81-.85c.2-1.07.41-2.29.56-3.15l-2.3,1.72Z"/>
              <path class="cls-73" d="M78.27,183.5s-.63,13.3,4.37,27.88h0c.93,2.35,1.65,4.23,1.85,5.03.42,1.65,2.3,18.17,2.76,22.16.07.65.28,1.28.63,1.83.69,1.09,1.67,2.03,3.46,1.86.53-.05,1.04-.16,1.5-.3.77-.23,1.44-.53,1.92-.78.5-.25.81-.77.79-1.34-.13-4.27-.69-23.02-1.04-25.36-.4-2.64-2.02-8.41-2.78-18.98-.11-1.53-.03-3.08.47-4.53,1.35-3.92.12-7.36.12-7.36,0,0-.47.18-1.11.42.02-1,.06-1.46.06-1.46h-.36s-13.05.28-13.05.28l.4.64Z"/>
              <path class="cls-51" d="M86.72,191.42c-.39,3.72,3.85,20.23,4.3,24.46.45,4.24,1.82,26.09,1.82,26.09h0c.77-.23,1.44-.53,1.92-.78.5-.25.81-.77.79-1.34-.13-4.27-.69-23.02-1.04-25.36-.4-2.64-2.02-8.41-2.78-18.98-.11-1.53-.03-3.08.47-4.53,1.35-3.92.12-7.36.12-7.36,0,0-.47.18-1.11.42.02-1,.06-1.46.06-1.46h-.36c-2.37,1.31-4.37,2.56-4.37,2.56,0,0,.55,2.56.17,6.27Z"/>
              <path class="cls-96" d="M92.4,183.29s.12.42.21,1.02c.03.19-.05.38-.21.49-.37.25-1.2.73-2.81,1.34-1.82.69-4.25.8-6,.64-.74-.07-7.94-1.66-12.25-4.38-1.09-.69-1.65-1.98-1.44-3.26v-.03c.15-.85,22.5,4.19,22.5,4.19Z"/>
              <path class="cls-2" d="M70.94,164.17c.02.8.05,1.6.07,2.4.05,1.79-.08,3.58-.39,5.35-.26,1.5-.58,3.33-.79,4.66-.41,2.64.3,4.55,1.62,5.34,0,0,.02,0,.03.01,4.22,2.61,9.11,3.81,11.73,4.3.42.08.84.13,1.26.17.91.07,1.82.04,2.72-.11.37-.06.73-.13,1.1-.24l.34-.11c.4-.12.79-.3,1.14-.53,1.72-1.1,1.86-1.93,1.98-2.91.19-1.63-.65-3.64-.97-5.23-1.07-5.21,1.61-9.87,3.09-14.67.69-2.23,1.35-4.46,1.9-6.73.34-1.38.83-2.97.69-4.42,0-.03,0-.06-.01-.09-.08-.46-.16-.81-.24-1.02-.29-.81-1.16-1.77-2.15-2.66-1.01-.9-2.14-1.72-2.9-2.2-.04-.02-.06-.04-.1-.06-.67-.43-1.29-.82-2.22-1.29-.75-.37-1.7-.81-3.05-1.34-.48-.19-.97-.36-1.48-.52-.93-.28-1.87-.52-2.83-.71-1.48-.31-2.97-.55-4.41-.83-.25,0-.49,0-.74.02-1.77.12-5.17,1.06-5.17,1.06,0,0-1.56,2.91-2.42,4.62-1.36,2.71,1.43,12.75,2.19,17.71Z"/>
              <path class="cls-97" d="M94.56,150.48c-2.2-3.76-7.69-5.61-8.65-5.92-2.95,4.34-6.36,4.44-6.36,4.44l-.15-1.86-.94.69-.64,10.05-1.09-2.52.83-8.55,3.2-4.09,3.53-.42c.5.16,1,.33,1.48.52,2.15.84,3.29,1.42,4.22,1.97.03.02.06.04.09.05.12.07.23.14.34.21.13.08.26.16.38.24.08.05.16.1.24.15.04.02.06.04.1.06.76.49,1.89,1.3,2.9,2.2h0c.99.88,1.86,1.84,2.15,2.66.02.05.04.11.06.18.06.21.12.5.18.85,0,0,0,0,0,0,.52,3.04-1.24,2.96-1.88-.9Z"/>
              <path class="cls-97" d="M77.86,145.6c-.49.43-.93.91-1.32,1.43-.39.51-.66,1.09-1.02,1.62-.12-.5-.07-1.12-.07-1.64,0-.58.03-1.17.12-1.75.18-1.1.58-2.16,1.17-3.09.18.15.19.42.27.64.13.35.46.61.58.96.12.37,0,.8.11,1.17"/>
              <path class="cls-89" d="M85.06,137.5v3.97s-4.06,2.93-6.22,2.51c-.93-.18-1.42-1.37-1.22-3.05l1.96-.4,5.48-3.03Z"/>
              <path class="cls-2" d="M78.36,143.75l-2.31,2.71s-.09-3.26,1.46-4.92c1.5-1.62,1.57-.22,1.57-.22,0,0-1.42,1.64-.71,2.43Z"/>
              <path class="cls-104" d="M73.84,132.21s-.33,3.33.36,6.37.89,3.73,2.12,4.27c1.23.54,2.33.6,4.39-.73,2.06-1.32,3.19-3.48,3.19-3.48,0,0,.29.19,1.03-.64,1.15-1.3,1.37-1.95,1.37-3.72s-.44-3.98-1.81-6.29-5.59-1.57-7.5-.59c-1.91.98-2.77,2.83-3.14,4.81Z"/>
              <path class="cls-6" d="M72.18,132.36c2.11,3.72,7.35,1.27,7.35,1.27.39,1.62,1.52,1.77,2.06,2.06.54.3.66,1.86.66,1.86h.49s.02-1.57.27-2.36c.25-.78,1.72-1.39,2.45-.24.66,1.03-.1,2.18-.54,3.04-.14,1.36.13,1.92.13,1.92,0,0,.8-.79,1.34-2.41.54-1.62.93-5,0-8.63-.1-.38-.24-.73-.43-1.05-1.61-2.72-6.2-3.25-8-2.63-1.55.53-5.4,2.28-6.12,4.77-.21.73-.14,1.54.34,2.39Z"/>
              <path class="cls-73" d="M72.02,206.59c.03.2.06.39.08.57-.03-.23-.06-.42-.08-.57Z"/>
              <path class="cls-73" d="M71.94,206.09s0,.05.01.08c0-.05-.01-.08-.01-.08Z"/>
              <path class="cls-84" d="M88.27,159.81s.81-3.39.69-5.63c-.12-2.24-1.35-.24-1.47,1.59-.12,1.82-1.19,5.77-1.19,5.77"/>
              <path class="cls-2" d="M85.06,141.06s.25.33.44.82c.16.41.28.92.28.92,0,0-1.66,3.42-6.23,4.89l-.52-3.69s4-.54,6.02-2.94Z"/>
              <path class="cls-97" d="M87.55,172.55c-.09-.44-.15-.7-.15-.7l2.79-3.03s.46,4.77.62,6.36c.16,1.59,2.1,6.62,2.02,8.39s-5.65,2.73-5.65,2.73c0,0,1.5-3.68,1.42-6.54-.04-1.55-.3-3.1-.56-4.63-.15-.89-.18-3.59-1.36-3.64-.3-.01-.59.09-.88.18-1.51.52-3.6,2.86-5.08,3.45-1.36.54-3.39,2.4-4.55,1.06,1.19-1.58,4.77-5.69,5.06-6.17.37-.62,5.49-12.35,6.38-13.85.58,3.46,1.05,7.74,1.62,11.2"/>
              <path class="cls-73" d="M79.04,144.01l.37,2.64-1.31,1.06-1.36-.43-.07-1.54,1.68-1.98s.15.18.68.26Z"/>
              <path class="cls-73" d="M78.08,148.29c0-.2.01-.39.02-.59l-1.36-.44s-.94,5.18-1,5.57c-.78,4.83-1.47,9.68-2.12,14.53-.3,2.25-.54,3.98-.62,4.66-.03.22,0,.43.07.64l1.38,3.61c.07.2,3.4-3.24,3.38-3.57-.04-.7.05-17.82.26-24.42ZM75.08,157.4s.01,0,.02,0c-.02.05-.03.07-.02,0Z"/>
              <path class="cls-57" d="M72.18,132.36c2.11,3.72,7.35,1.27,7.35,1.27.39,1.62,1.52,1.77,2.06,2.06.54.3.66,1.86.66,1.86h.49s.02-1.57.27-2.36c.25-.78,1.72-1.39,2.45-.24.66,1.03-.1,2.18-.54,3.04-.14,1.36.13,1.92.13,1.92,0,0,.8-.79,1.34-2.41.54-1.62.93-5,0-8.63-.1-.38-.24-.73-.43-1.05-.88.76-3.42,2.81-6.08,3.93-3.3,1.38-5.86,1.09-6.68.38-.83-.71-1.26-1.28-1.36-2.17h0c-.21.73-.14,1.53.34,2.39Z"/>
              <path class="cls-2" d="M87.49,155.77c-1.71,5.14-3.06,10.45-5.9,15.52-5.22,4.22-9.07,8.81-13.21,12.72.79,1.49.77,2.36,1.56,3.85,1.2-.29,11.53-7.57,15.84-10.36,4.31-2.79,5.58-5.29,7.56-10.03,1.82-4.34,3.35-11.38,3.09-16.08"/>
              <path class="cls-97" d="M96.44,151.38l-1.56.2c-.02,4.64-2.26,11.89-3.93,15.88-1.98,4.74-3.25,7.24-7.56,10.03-3.38,2.19-10.44,7.13-13.92,9.3.12.33.27.67.48,1.06,1.2-.29,11.53-7.57,15.84-10.36,4.31-2.79,5.58-5.29,7.56-10.03,1.82-4.34,3.35-11.38,3.09-16.08Z"/>
              <path class="cls-89" d="M61.27,188.77c.2.02,1.4-.63,1.68-.74.28-.1,2-.61,2.09-.51.2.23.16.91-.5,1.23-.66.32-1.3.74-1.3.74,0,0-1.21,2.09-3.26,2.81"/>
              <path class="cls-31" d="M64.54,188.76c-.41.29-.83.56-1.25.82l.04-.04c-.38.64-.85,1.22-1.41,1.7-.55.49-1.22.87-1.93,1.05,1.32-.63,2.36-1.68,3.17-2.86l.02-.03h.02c.44-.24.89-.46,1.35-.66Z"/>
              <path class="cls-31" d="M61.39,188.56s.04.03.12.01c.08,0,.18-.06.3-.11.12-.05.25-.13.41-.21.16-.06.33-.13.49-.2.34-.12.69-.23.96-.29.27-.06.45-.09.45-.09,0,0-.16.1-.4.22-.24.12-.58.26-.92.39-.35.1-.68.24-.96.31-.14.03-.26.03-.34.01-.09-.01-.12-.06-.12-.06Z"/>
            </g>
            <g>
              <path class="cls-83" d="M55.31,191.11l1.13-.19s.75.49.89.94c.34,1.11-.07,2.46-.07,2.46l-3.61,1.07"/>
              <path class="cls-118" d="M24.45,176.92s8.96,10.79,10.91,11.16c1.95.38,20.38,2.84,20.38,2.84,0,0,1.04.37,1.15,1.39.12,1.03-.54,2.66-.54,2.66,0,0-19.35,2.28-21.08,1.83s-17.97-14.41-17.97-14.41"/>
              <path class="cls-72" d="M35.83,194.28c-1.43-.38-12.8-10-16.67-13.3l-1.85,1.42s16.24,13.95,17.97,14.41c1.73.46,21.08-1.83,21.08-1.83,0,0,.18-.45.34-1.03-1.93.08-19.23.76-20.86.33Z"/>
              <path class="cls-70" d="M56.28,276.63c.42-2.06.62-4.18.67-6.27.09-3.6-.81-7.45-4.83-8.09-6.29-1-12.96-.18-19.21.8-5.17.81-11.91.81-16.12,4.32-6.47,5.4,1.9,12.27,6.41,15.37,8.63,5.92,21.13,13.46,29.35,2.58,1.93-2.55,3.09-5.57,3.73-8.72Z"/>
              <path class="cls-106" d="M21.37,278.09v.06s0,.03,0,.07c0,.03.02.05.02.08.1.36.52,1.31,2.12,1.59.09.02.2.03.3.04.04,0,.08.02.12.02.35.03.75.04,1.19.02.13,0,.26-.02.39-.04,1.74-.35,3.35-1.69,3.77-2.05.07-.07.11-.1.11-.1v-.33s1.15-.77,1.57-1.02c1.28-.76,3.12-1.4,4.87-2.27.54-.27.94-.56,1.23-.83.06-.06.11-.12.17-.17.04-.03.07-.07.1-.1.04-.05.07-.1.1-.15.07-.1.14-.2.2-.28.03-.06.06-.1.07-.14.03-.06.05-.09.07-.13.02-.05.04-.09.05-.14h0c.07-.22.1-.45.1-.67v-1.15l-10.68,4.38-5.84,2.18-.04,1.14Z"/>
              <path class="cls-36" d="M27.73,270.12s1.79-.08,4.71-.58c2.92-.5,4.93-.64,5.3.27.37.88.45,1.83-2.16,3.61-2.6,1.78-4.62,1.97-6.71,3.65-1.55,1.24-2.94,1.54-4.49,1.65-1.55.11-2.6-.49-2.94-1.12-.79-1.47.03-4.26.03-4.26"/>
              <path class="cls-106" d="M31.88,279.79v1.45c-.01.52.25,1.03.73,1.25.19.09.4.15.63.18,1.81.2,4.59-.22,4.59-.22v-.53s.99-.11,3.91-.47c3.02-.37,5.05-1.27,6.04-1.8.43-.23.7-.67.7-1.16v-1.06s-11.48,2.02-11.48,2.02l-5.12.35Z"/>
              <path class="cls-36" d="M39.93,274.7s1.28,1.2,2.78,1.2,4.43-.04,5.18.49c.38.26.56.58.59.94.02.36-.12.75-.4,1.16-.56.83-4.36,2.07-7.21,2.29-2.85.23-3.01.19-4.36.41-1.35.23-2.76.33-3.61-.09-1.47-.73-1.57-2.95-.67-4.42s7.7-1.99,7.7-1.99Z"/>
              <path class="cls-104" d="M24.35,168.43l-.23.54.35,1.79,5.71,2.87.34-.05.91-.11,1.44-.19v-1.98c0-1.02.55-2.01,1.48-2.41.04-.02.07-.03.07-.03.32-.12.64-.33.97-.65l.08-.08c1.1-1.17,2.08-3.79,1.8-9.53-.06-1-.28-2.73-.74-3.62-.83-1.6-2.59-2.65-6.23-1.65-6.06,1.68-8.71,4.43-9.02,6.81-.31,2.37,3.07,8.28,3.07,8.28Z"/>
              <path class="cls-89" d="M32.87,173.29v-1.98c0-1.02.55-2.01,1.48-2.41-.3.13-1.22.57-2.44,1.23-.49.26-.48,1.84-.48,3.34l1.44-.19Z"/>
              <g>
                <g>
                  <path class="cls-98" d="M42.07,183.51l12.1,6.22,5.52-17.67c.19-.62-.09-1.29-.64-1.57l-10.12-5.2c-.53-.28-1.18.01-1.36.61l-5.5,17.61Z"/>
                  <path class="cls-94" d="M42.86,183.13l10.79,5.57,5.14-16.41c.2-.75.17-1.08-.59-1.45l-9.44-4.88c-.24-.12-.52,0-.6.27l-5.29,16.9Z"/>
                  <path class="cls-4" d="M52.5,173.9l3.34,1.72c.09.05.2,0,.23-.1l.92-3.05c.02-.08-.01-.17-.08-.2l-3.34-1.72c-.09-.05-.2,0-.23.1l-.92,3.05c-.02.08.01.17.08.2ZM50.04,181.63l2.59,1.34c.07.04.15,0,.18-.08l2.03-6.49c.02-.06,0-.13-.06-.16l-2.59-1.34c-.07-.04-.15,0-.18.08l-2.03,6.49c-.02.06,0,.13.06.16ZM48.53,175.81l1.98,1.02c.05.03.12,0,.13-.06l.03-.13s0-.1-.05-.12l-1.98-1.02c-.05-.03-.12,0-.14.06l-.03.13s0,.1.05.12ZM50.17,177.49c.09.05.21,0,.24-.11l.05-.23c.03-.08-.01-.18-.09-.22l-3.51-1.81c-.09-.05-.21,0-.24.11l-.05.23c-.03.08.01.18.09.22M46.46,176.33l3.51,1.81c.09.05.21,0,.24-.11l.05-.23c.03-.08-.01-.18-.09-.22l-3.51-1.81c-.09-.05-.21,0-.24.11l-.05.23c-.03.08.01.18.09.22ZM46.26,176.99l3.51,1.81c.09.05.21,0,.24-.11l.05-.23c.03-.08-.01-.18-.09-.22l-3.51-1.81c-.09-.05-.21,0-.24.11l-.05.23c-.03.08.01.18.09.22ZM46.06,177.65l3.51,1.81c.09.05.21,0,.24-.11l.05-.23c.03-.08-.01-.18-.09-.22l-3.51-1.81c-.09-.05-.21,0-.24.11l-.05.23c-.03.08.01.18.09.22ZM45.86,178.3l3.51,1.81c.09.05.21,0,.24-.11l.05-.23c.03-.08-.01-.18-.09-.22l-3.51-1.81c-.09-.05-.21,0-.24.11l-.05.23c-.03.08.01.18.09.22ZM47.83,171.88l3.67,1.89c.1.05.22,0,.25-.11l1.01-3.35c.03-.09-.01-.18-.09-.22l-3.67-1.89c-.1-.05-.22,0-.25.11l-1.01,3.35c-.03.09.01.18.09.22Z"/>
                </g>
                <path class="cls-104" d="M51.59,186.15l1.95,1.63.37.31s.45-1.87,1.24-2.58c.27-.24,1.06-.56,1.51-.68.26-.07.49-.22.65-.43.38-.52.94-1.67.65-3.65-.05-.38-.15-.64-.25-.82,0,0,0-.01,0-.01-.24-.41-.54-.4-.54-.4,0,0-1.32.94-1.7,1.22-.31.23-.72.69-1.02.35-.17-.17.8-1.39,1.06-1.95.26-.56-.25-1.16-.47-.94-.22.22-1.57,1.92-2.12,3.36-.55,1.43-1.31,4.62-1.31,4.62Z"/>
                <path class="cls-89" d="M53.09,186.39l.45,1.39.37.31s.45-1.87,1.24-2.58c.27-.24,1.06-.56,1.51-.68.26-.07.49-.22.65-.43.38-.52.94-1.67.65-3.65-.05-.38-.15-.64-.25-.82,0,0,0-.01,0-.01,0,0-.01.34-.56.82-.54.47-1.34.92-1.72,1.16-.37.24-.96,1.12-1.32,1.99-.37.88-1,2.51-1,2.51Z"/>
                <path class="cls-83" d="M54.27,188.04l.34-1.09c.07-.21.05-.43-.04-.63-.19-.39-.54-1.05-.89-1.38-.52-.48-1.22-.56-1.63-.26-.17.12-.31.54-.42.82-.1.24-.11.9-.08.97.03.07.72,1.07.8,1.16.08.09,1.93.41,1.93.41Z"/>
              </g>
              <path class="cls-73" d="M18.5,222.69c1.35,7.39,2.32,16.55,2.32,16.55,0,0-2.26,18.35.28,34.33.11.76.37,2.35,1.34,2.98.55.34,2.01.58,3.13-.02.05-.03.09-.05.14-.07,3.79-2.07,3.39-4.76,3.94-6.52,0-7.11-.76-24.6.76-28.45l1.35-15.51-.49-11.08h-13.57v.04l-.07-.04s-1.16,2.98.86,7.79Z"/>
              <path class="cls-51" d="M22.64,222.99c1.28,4.2,2.92,15.16,3.27,17.84,0,0-1.26,21.11-.19,35.63,3.79-2.07,3.39-4.76,3.94-6.52,0-7.11-.76-24.6.76-28.45l1.35-15.51-.49-11.08h-9.33s-.58,3.89.7,8.09Z"/>
              <path class="cls-73" d="M23.51,218.56c.43,1.9,1.27,4.56,2.93,7.09.26.39.49.79.72,1.19.05.19.71,2.67,1.53,6,.83,3.33,1.82,7.51,2.53,11.06-.39,4.46-1.49,20.08.61,33.61.15.96.84,1.75,1.78,2.02.44.12.94.2,1.49.16.4-.03.82-.11,1.25-.3,2.22-.93,3.83-4.49,3.83-4.49,0,0,.06-22.47,1.22-28.36.22-1.13.34-2.27.41-3.41.21-3.61.61-10.2.73-12.95.23-5.36.27-9.85.08-11.86l-11.11.14-8,.09Z"/>
              <path class="cls-51" d="M31.5,218.47c.06.66.09,1.1.09,1.1,0,0,.11,2.8,1.52,7,1.42,4.2,2.82,14.15,2.97,17.88.15,3.43-1.68,19.8-1,35.24.4-.03.82-.11,1.25-.3,2.22-.93,3.83-4.49,3.83-4.49,0,0,.06-22.47,1.22-28.36.22-1.13.34-2.27.41-3.41.21-3.61.61-10.2.73-12.95.23-5.36.27-9.85.08-11.86l-11.11.14Z"/>
              <path class="cls-95" d="M16.33,187.22c1.79,5.44,2.8,14.38,1.72,18.11-1.09,3.73-1.72,9.02-1.72,9.02,1.02,2.8,10.5,8.86,15.79,9.33.64.06,1.3.03,1.94-.07,4.66-.69,9.02-4.82,9.02-4.82,0,0-1.01-15.32-1.63-25.12-.42-6.51-1.38-10.57-1.99-12.56-.3-1-.5-1.47-.5-1.47-.56-.74-2.23-1.99-4.36-3.39,0,0-.03,0-.05-.02-1.43-.95-3.05-1.96-4.68-2.92h0c-2.17-1.29-4.37-2.49-6.12-3.37-.21-.1-.4-.2-.59-.28-1.24-.61-2.2-1.01-2.7-1.1-2.49-.47-5.83.85-6.84,5.36-1.02,4.51.93,7.85,2.71,13.29Z"/>
              <path class="cls-29" d="M34.61,205.27c.32,4.18-.32,14.61-.56,18.34,4.66-.69,9.02-4.82,9.02-4.82,0,0-1.01-15.32-1.63-25.12-.42-6.51-1.38-10.57-1.99-12.56-.5-.58-.83-.94-.83-.94h-6.14s-3.19.65-2.03,7.92c1.18,7.27,3.78,12.04,4.16,17.18Z"/>
              <path class="cls-39" d="M23.11,171.96c.93,1.28,4.28,3.13,5.82,3.45,1.55.32,2.78.16,3.51.15,1.03-.01,1.82.55,2.11.67.02,0,.04.02.05.02,0,0,.02,0,.02,0l-.91-1.39-1.06-.68s-1.56-.57-1.9-.73c-.11-.06-.45-.1-.87-.15h0c-.92-.11-2.25-.21-2.45-.23-.29-.04-2.7-1.69-2.8-1.75-.06-.04-.53-.82-.87-1.38-.21-.1-.4-.2-.59-.28-.34.42-.77,1.28-.04,2.3Z"/>
              <path class="cls-6" d="M19.68,160.37c.52,3.12,3.16,8.01,4.5,8.46.81.28,1.57.39,2.2.42,1.04.06,1.98-.69,2.16-1.72.17-.88.44-1.97.9-2.82.93-1.73,2.16-2.63,2.77-2.3.62.32.55,1.43.55,1.43h.4s.04-.36.09-.84c.05-.47.09-1.06.12-1.52,0-1.17.36-2.3,1.07-3.23.43-.57.94-1.44,1.49-2.75.36-.88.45-1.71.37-2.46h0c-.25-2.41-1.23-3.39-2.16-4.07-3.02-2.21-9.33,1.89-11.66,3.85-1.28,1.07-2.16,2.3-2.61,3.71h0c-.37,1.17-.45,2.44-.21,3.83Z"/>
              <path class="cls-2" d="M23.54,169.51l.58-.54c3.77,4.16,8.75,4.31,8.75,4.31,0,0,1.36,1.38,1.75,2.97l-.79-.51c-.42-.27-.88-.46-1.38-.54-.31-.05-1-.08-1-.08-3.12-.04-6.22-2.22-7.84-3.56-.64-.53-.67-1.49-.06-2.06Z"/>
              <path class="cls-80" d="M37.64,272.91c-.05.1-.13.19-.2.28.08-.1.14-.2.2-.28Z"/>
              <path class="cls-80" d="M37.34,273.34s.07-.1.1-.15c-.06.08-.12.16-.2.25.04-.03.07-.07.1-.1Z"/>
              <path class="cls-95" d="M31.81,185.25c.59,3.43,7.14,13.43,7.41,13.83,1.18,1.88,2.32,3.51,3.27,4.67h0c.87,1.08,1.59,1.78,2.03,1.91.08.03.17.05.26.07,2.03.49,3.57-.83,4.13-2.3.53-1.17,2.12-3.92,3.41-7.46.87-2.36,1.39-5.24,1.95-7.59.13-.57.07-1.17-.23-1.68-.03-.04-.05-.08-.07-.12-.36-.61-.87-1.29-1.32-1.36-.82-.12-.98.09-.98.09,0,0-1.5,2.42-2.7,4.28-.92,1.45-1.96,3.97-2.38,5.04-.11.32-.19.5-.19.5-2.16-5.03-4.99-11.2-6.14-13.79-1.39-3.13-5.62-3.8-7.81-1.17-.03.04-.06.07-.09.11-.14.17-.23.39-.31.63h0s0,0-.02,0c-.11.14-.79,1.13-.24,4.34Z"/>
              <path class="cls-57" d="M19.68,160.37c.52,3.12,3.16,8.01,4.5,8.46.81.28,1.57.39,2.2.42,1.04.06,1.98-.69,2.16-1.72.17-.88.44-1.97.9-2.82.93-1.73,2.16-2.63,2.77-2.3.62.32.55,1.43.55,1.43h.4s.04-.36.09-.84c.05-.47.09-1.06.12-1.52,0-1.17.36-2.3,1.07-3.23.43-.57.94-1.44,1.49-2.75.36-.88.45-1.71.37-2.46-.3.76-2.81,6.61-9.83,8.09-7.33,1.54-6.64-4.28-6.6-4.58-.37,1.16-.45,2.43-.21,3.83Z"/>
              <path class="cls-76" d="M46.62,194.62c-.11.32-.19.5-.19.5,0,0,.7,1.46.59,3.03,0,0,.8-1.71-.4-3.54Z"/>
              <path class="cls-72" d="M32.05,180.92h.03s-.22,2.85,2.49,7.63c2.72,4.78,8.5,16.21,11.35,15.9,1.5-.17,4.82-7.23,6.06-10.53.99-2.64,1.74-6.07,2-7.34.03.04.05.08.07.12.3.51.36,1.11.23,1.68-.56,2.35-1.08,5.23-1.95,7.59-1.3,3.55-2.88,6.3-3.41,7.46-.56,1.48-2.1,2.77-4.13,2.29h0c-.09,0-.18-.02-.26-.05-.45-.13-1.17-.83-2.03-1.91h0c-.95-1.17-2.1-2.8-3.27-4.67-.27-.4-6.82-10.39-7.41-13.83-.55-3.21.13-4.2.24-4.34Z"/>
            </g>
          </g>
        </g>
      </g>
    </g>
  </g>
</svg>