<svg xmlns="http://www.w3.org/2000/svg" xmlns:xlink="http://www.w3.org/1999/xlink" viewBox="0 0 660 656.72"><defs><style>.cls-1{opacity:0.3;fill:url(#linear-gradient);}.cls-2{fill:url(#linear-gradient-2);}.cls-3{fill:url(#linear-gradient-3);}.cls-10,.cls-15,.cls-26,.cls-4,.cls-8,.cls-9{fill:#fff;}.cls-5{fill:url(#linear-gradient-4);}.cls-6{fill:url(#linear-gradient-5);}.cls-7{fill:url(#linear-gradient-6);}.cls-8{opacity:0.39;}.cls-9{opacity:0.55;}.cls-10{opacity:0.42;}.cls-11{fill:url(#linear-gradient-7);}.cls-12{opacity:0.2;}.cls-13{fill:url(#linear-gradient-8);}.cls-14{fill:url(#linear-gradient-9);}.cls-15,.cls-21{opacity:0.8;}.cls-16{fill:url(#linear-gradient-10);}.cls-17{fill:url(#linear-gradient-11);}.cls-18{fill:url(#linear-gradient-12);}.cls-19{fill:url(#linear-gradient-13);}.cls-20{fill:url(#linear-gradient-14);}.cls-22{fill:url(#linear-gradient-15);}.cls-23{fill:url(#linear-gradient-16);}.cls-24{fill:url(#linear-gradient-17);}.cls-25{fill:url(#linear-gradient-18);}.cls-26{opacity:0.78;}.cls-27{fill:url(#linear-gradient-19);}.cls-28{fill:url(#linear-gradient-20);}.cls-29{fill:url(#linear-gradient-21);}.cls-30{fill:url(#linear-gradient-22);}.cls-31{fill:url(#linear-gradient-23);}.cls-32{fill:url(#linear-gradient-24);}.cls-33{fill:url(#linear-gradient-25);}.cls-34{fill:url(#linear-gradient-26);}.cls-35{fill:url(#linear-gradient-27);}.cls-36{fill:url(#linear-gradient-28);}.cls-37{fill:url(#linear-gradient-29);}.cls-38{fill:url(#linear-gradient-30);}.cls-39{fill:url(#linear-gradient-31);}.cls-40{fill:url(#linear-gradient-32);}.cls-41{fill:url(#linear-gradient-33);}.cls-42{fill:url(#linear-gradient-34);}.cls-43{fill:url(#linear-gradient-35);}.cls-44{fill:url(#linear-gradient-36);}.cls-45{fill:url(#linear-gradient-37);}.cls-46{fill:url(#linear-gradient-38);}.cls-47{fill:url(#linear-gradient-39);}.cls-48{fill:url(#linear-gradient-40);}.cls-49{fill:url(#linear-gradient-41);}.cls-50{fill:url(#linear-gradient-42);}.cls-51{fill:url(#linear-gradient-43);}.cls-52{fill:url(#linear-gradient-44);}.cls-53{fill:url(#linear-gradient-45);}.cls-54{fill:url(#linear-gradient-46);}.cls-55{fill:url(#linear-gradient-47);}.cls-56{fill:url(#linear-gradient-48);}.cls-57{fill:url(#linear-gradient-49);}.cls-58{fill:url(#linear-gradient-50);}.cls-59{fill:url(#linear-gradient-51);}.cls-60{fill:url(#linear-gradient-52);}.cls-61{fill:url(#linear-gradient-53);}.cls-62{fill:url(#linear-gradient-54);}.cls-63{fill:url(#linear-gradient-55);}.cls-64{fill:url(#linear-gradient-56);}.cls-65{fill:url(#linear-gradient-57);}.cls-66{fill:url(#linear-gradient-58);}.cls-67{fill:url(#linear-gradient-59);}.cls-68{fill:url(#linear-gradient-60);}.cls-69{fill:url(#linear-gradient-61);}.cls-70{fill:url(#linear-gradient-62);}.cls-71{fill:url(#linear-gradient-63);}.cls-72{fill:url(#linear-gradient-64);}.cls-73{fill:url(#linear-gradient-65);}.cls-74{fill:url(#linear-gradient-66);}.cls-75{fill:url(#linear-gradient-67);}.cls-76{fill:url(#linear-gradient-68);}.cls-77{fill:url(#linear-gradient-69);}.cls-78{fill:url(#linear-gradient-70);}</style><linearGradient id="linear-gradient" x1="739.21" y1="850.55" x2="154.86" y2="124.81" gradientUnits="userSpaceOnUse"><stop offset="0" stop-color="#b37cff"/><stop offset="1" stop-color="#f895e7"/></linearGradient><linearGradient id="linear-gradient-2" x1="-2281.18" y1="563.58" x2="-2149.03" y2="167.15" gradientTransform="matrix(-1, 0, 0, 1, -1894.22, 0)" gradientUnits="userSpaceOnUse"><stop offset="0" stop-color="#2b3582"/><stop offset="1" stop-color="#150e42"/></linearGradient><linearGradient id="linear-gradient-3" x1="556.48" y1="211.73" x2="74.51" y2="634.88" gradientUnits="userSpaceOnUse"><stop offset="0" stop-color="#a737d5"/><stop offset="1" stop-color="#ef497a"/></linearGradient><linearGradient id="linear-gradient-4" x1="-1974.3" y1="540.03" x2="-2561.33" y2="682.82" gradientTransform="matrix(1, 0, 0, -1, 2554.58, 1201.73)" xlink:href="#linear-gradient-2"/><linearGradient id="linear-gradient-5" x1="384.67" y1="-107.05" x2="209.6" y2="1167.24" gradientUnits="userSpaceOnUse"><stop offset="0" stop-color="#53d8ff"/><stop offset="0.21" stop-color="#4db9fd"/><stop offset="1" stop-color="#3840f7"/></linearGradient><linearGradient id="linear-gradient-6" x1="577.39" y1="-0.24" x2="728.06" y2="-209.75" xlink:href="#linear-gradient-5"/><linearGradient id="linear-gradient-7" x1="-898.85" y1="621.08" x2="-864.78" y2="518.85" gradientTransform="translate(1226.09 -361.44) rotate(-2.02)" gradientUnits="userSpaceOnUse"><stop offset="0" stop-color="#2c759e"/><stop offset="1" stop-color="#051042"/></linearGradient><linearGradient id="linear-gradient-8" x1="-898.05" y1="619.32" x2="-866.03" y2="523.25" gradientTransform="translate(1226.09 -361.44) rotate(-2.02)" gradientUnits="userSpaceOnUse"><stop offset="0" stop-color="#9cfffb"/><stop offset="1" stop-color="#9bfffa"/></linearGradient><linearGradient id="linear-gradient-9" x1="-882.91" y1="558.99" x2="-942.14" y2="581.53" gradientTransform="matrix(1, 0, 0, 1, 1247.09, -328.82)" gradientUnits="userSpaceOnUse"><stop offset="0" stop-color="#e92556"/><stop offset="1" stop-color="#f9c342"/></linearGradient><linearGradient id="linear-gradient-10" x1="-937.59" y1="553.04" x2="-989.27" y2="598.76" gradientTransform="matrix(1, 0, 0, 1, 1246.14, -328.75)" gradientUnits="userSpaceOnUse"><stop offset="0" stop-color="#53d8ff"/><stop offset="1" stop-color="#3840f7"/></linearGradient><linearGradient id="linear-gradient-11" x1="-951.38" y1="612.35" x2="-974.53" y2="630.59" gradientTransform="translate(1247.83 -328.81)" xlink:href="#linear-gradient-10"/><linearGradient id="linear-gradient-12" x1="-919.69" y1="612.35" x2="-942.84" y2="630.59" gradientTransform="translate(1247.81 -329.93)" xlink:href="#linear-gradient-10"/><linearGradient id="linear-gradient-13" x1="-888" y1="612.35" x2="-911.15" y2="630.59" gradientTransform="translate(1247.79 -331.05)" xlink:href="#linear-gradient-10"/><linearGradient id="linear-gradient-14" x1="-855.7" y1="612.35" x2="-878.85" y2="630.59" gradientTransform="translate(1247.77 -332.19)" xlink:href="#linear-gradient-10"/><linearGradient id="linear-gradient-15" x1="-948.83" y1="633.11" x2="-985.49" y2="662" gradientTransform="translate(1248.29 -329.24)" xlink:href="#linear-gradient-8"/><linearGradient id="linear-gradient-16" x1="-853.49" y1="622.08" x2="-872.12" y2="636.76" gradientTransform="translate(1248.2 -332.16)" xlink:href="#linear-gradient-8"/><linearGradient id="linear-gradient-17" x1="271.44" y1="191.64" x2="305.23" y2="152.42" gradientTransform="translate(285.03 -189.16) rotate(60.13)" gradientUnits="userSpaceOnUse"><stop offset="0" stop-color="#fdf53f"/><stop offset="1" stop-color="#d93c65"/></linearGradient><linearGradient id="linear-gradient-18" x1="324.33" y1="123.81" x2="224.4" y2="274.77" gradientTransform="translate(67.43 -92.71) rotate(19.33)" xlink:href="#linear-gradient-17"/><linearGradient id="linear-gradient-19" x1="321.35" y1="128.14" x2="268.14" y2="217.46" gradientTransform="matrix(1, 0, 0, 1, 0, 0)" xlink:href="#linear-gradient-17"/><linearGradient id="linear-gradient-20" x1="317.61" y1="191.41" x2="376.44" y2="123.13" gradientTransform="translate(196.69 -231.36) rotate(45)" xlink:href="#linear-gradient-17"/><linearGradient id="linear-gradient-21" x1="409.68" y1="73.33" x2="235.73" y2="336.12" gradientTransform="translate(409.36 -273.75) rotate(76.72)" xlink:href="#linear-gradient-17"/><linearGradient id="linear-gradient-22" x1="404.49" y1="80.86" x2="311.87" y2="236.36" gradientTransform="matrix(1, 0, 0, 1, 0, 0)" xlink:href="#linear-gradient-17"/><linearGradient id="linear-gradient-23" x1="346.12" y1="291.38" x2="406.65" y2="221.13" gradientTransform="translate(499.96 -234.33) rotate(73.15)" xlink:href="#linear-gradient-17"/><linearGradient id="linear-gradient-24" x1="440.85" y1="169.88" x2="261.86" y2="440.28" gradientTransform="translate(274.82 -224.06) rotate(45)" xlink:href="#linear-gradient-17"/><linearGradient id="linear-gradient-25" x1="435.51" y1="177.63" x2="340.2" y2="337.64" gradientTransform="matrix(1, 0, 0, 1, 0, 0)" xlink:href="#linear-gradient-17"/><linearGradient id="linear-gradient-26" x1="420.52" y1="210.75" x2="464.87" y2="159.27" gradientTransform="translate(608.41 -312.54) rotate(88.09)" xlink:href="#linear-gradient-17"/><linearGradient id="linear-gradient-27" x1="489.93" y1="121.73" x2="358.79" y2="319.85" gradientTransform="translate(385.5 -327.08) rotate(61.85)" xlink:href="#linear-gradient-17"/><linearGradient id="linear-gradient-28" x1="486.02" y1="127.4" x2="416.19" y2="244.64" gradientTransform="matrix(1, 0, 0, 1, 0, 0)" xlink:href="#linear-gradient-17"/><linearGradient id="linear-gradient-29" x1="141.7" y1="501.33" x2="151.79" y2="709.69" gradientTransform="matrix(1, 0, 0, 1, 0, 0)" xlink:href="#linear-gradient-17"/><linearGradient id="linear-gradient-30" x1="305.01" y1="432.51" x2="-298.32" y2="795.84" gradientTransform="matrix(1, 0, 0, 1, 0, 0)" xlink:href="#linear-gradient-17"/><linearGradient id="linear-gradient-31" x1="429.34" y1="317.92" x2="39.51" y2="438.51" gradientTransform="matrix(1, 0, 0, 1, 0, 0)" xlink:href="#linear-gradient-10"/><linearGradient id="linear-gradient-32" x1="431.28" y1="324.2" x2="41.46" y2="444.78" gradientTransform="matrix(1, 0, 0, 1, 0, 0)" xlink:href="#linear-gradient-10"/><linearGradient id="linear-gradient-33" x1="433" y1="329.74" x2="43.17" y2="450.32" gradientTransform="matrix(1, 0, 0, 1, 0, 0)" xlink:href="#linear-gradient-10"/><linearGradient id="linear-gradient-34" x1="434.94" y1="336.02" x2="45.11" y2="456.6" gradientTransform="matrix(1, 0, 0, 1, 0, 0)" xlink:href="#linear-gradient-10"/><linearGradient id="linear-gradient-35" x1="436.65" y1="341.56" x2="46.83" y2="462.14" gradientTransform="matrix(1, 0, 0, 1, 0, 0)" xlink:href="#linear-gradient-10"/><linearGradient id="linear-gradient-36" x1="438.6" y1="347.83" x2="48.77" y2="468.42" gradientTransform="matrix(1, 0, 0, 1, 0, 0)" xlink:href="#linear-gradient-10"/><linearGradient id="linear-gradient-37" x1="440.31" y1="353.38" x2="50.48" y2="473.96" gradientTransform="matrix(1, 0, 0, 1, 0, 0)" xlink:href="#linear-gradient-10"/><linearGradient id="linear-gradient-38" x1="442.25" y1="359.65" x2="52.42" y2="480.24" gradientTransform="matrix(1, 0, 0, 1, 0, 0)" xlink:href="#linear-gradient-10"/><linearGradient id="linear-gradient-39" x1="443.97" y1="365.2" x2="54.14" y2="485.78" gradientTransform="matrix(1, 0, 0, 1, 0, 0)" xlink:href="#linear-gradient-10"/><linearGradient id="linear-gradient-40" x1="445.91" y1="371.47" x2="56.08" y2="492.05" gradientTransform="matrix(1, 0, 0, 1, 0, 0)" xlink:href="#linear-gradient-10"/><linearGradient id="linear-gradient-41" x1="447.62" y1="377.01" x2="57.79" y2="497.6" gradientTransform="matrix(1, 0, 0, 1, 0, 0)" xlink:href="#linear-gradient-10"/><linearGradient id="linear-gradient-42" x1="449.56" y1="383.29" x2="59.73" y2="503.87" gradientTransform="matrix(1, 0, 0, 1, 0, 0)" xlink:href="#linear-gradient-10"/><linearGradient id="linear-gradient-43" x1="-256.99" y1="280.18" x2="109.71" y2="551.08" gradientUnits="userSpaceOnUse"><stop offset="0" stop-color="#fdf53f"/><stop offset="0.66" stop-color="#e57a58"/><stop offset="1" stop-color="#d93c65"/></linearGradient><linearGradient id="linear-gradient-44" x1="322.74" y1="406.86" x2="-172.8" y2="446.5" xlink:href="#linear-gradient-43"/><linearGradient id="linear-gradient-45" x1="322.9" y1="408.82" x2="-172.65" y2="448.46" xlink:href="#linear-gradient-43"/><linearGradient id="linear-gradient-46" x1="323.03" y1="410.45" x2="-172.52" y2="450.09" xlink:href="#linear-gradient-43"/><linearGradient id="linear-gradient-47" x1="323.16" y1="412.12" x2="-172.38" y2="451.77" xlink:href="#linear-gradient-43"/><linearGradient id="linear-gradient-48" x1="323.29" y1="413.67" x2="-172.26" y2="453.32" xlink:href="#linear-gradient-43"/><linearGradient id="linear-gradient-49" x1="323.42" y1="415.35" x2="-172.12" y2="455" xlink:href="#linear-gradient-43"/><linearGradient id="linear-gradient-50" x1="323.55" y1="416.98" x2="-171.99" y2="456.62" xlink:href="#linear-gradient-43"/><linearGradient id="linear-gradient-51" x1="323.7" y1="418.8" x2="-171.85" y2="458.44" xlink:href="#linear-gradient-43"/><linearGradient id="linear-gradient-52" x1="323.81" y1="420.18" x2="-171.74" y2="459.82" xlink:href="#linear-gradient-43"/><linearGradient id="linear-gradient-53" x1="323.94" y1="421.81" x2="-171.61" y2="461.45" xlink:href="#linear-gradient-43"/><linearGradient id="linear-gradient-54" x1="324.23" y1="425.51" x2="-171.31" y2="465.15" xlink:href="#linear-gradient-43"/><linearGradient id="linear-gradient-55" x1="324.08" y1="423.62" x2="-171.46" y2="463.27" xlink:href="#linear-gradient-43"/><linearGradient id="linear-gradient-56" x1="20047.5" y1="415.26" x2="19935.82" y2="479" gradientTransform="translate(-19663.66)" gradientUnits="userSpaceOnUse"><stop offset="0" stop-color="#f9b776"/><stop offset="1" stop-color="#f47960"/></linearGradient><linearGradient id="linear-gradient-57" x1="-12769.88" y1="-7148.37" x2="-12778.45" y2="-7016.92" gradientTransform="matrix(-0.9, -0.44, -0.44, 0.9, -14244.31, 1259.86)" gradientUnits="userSpaceOnUse"><stop offset="0" stop-color="#cb236d"/><stop offset="1" stop-color="#4c246d"/></linearGradient><linearGradient id="linear-gradient-58" x1="20036.69" y1="431.15" x2="20418.78" y2="191.96" xlink:href="#linear-gradient-56"/><linearGradient id="linear-gradient-59" x1="-10926.96" y1="-10109.72" x2="-10935.54" y2="-9978.29" gradientTransform="matrix(-0.79, -0.61, -0.61, 0.79, -14481.45, 1786.5)" xlink:href="#linear-gradient-57"/><linearGradient id="linear-gradient-60" x1="12111.19" y1="335.22" x2="12019.35" y2="435.88" gradientTransform="translate(-11831.96)" xlink:href="#linear-gradient-57"/><linearGradient id="linear-gradient-61" x1="-16398.44" y1="-3029.58" x2="-16370.97" y2="-2960.7" gradientTransform="matrix(-0.94, -0.33, -0.33, 0.94, -16224.64, -2323.19)" xlink:href="#linear-gradient-2"/><linearGradient id="linear-gradient-62" x1="19919.9" y1="293.53" x2="19656.65" y2="547.47" gradientTransform="translate(-19663.66)" xlink:href="#linear-gradient-17"/><linearGradient id="linear-gradient-63" x1="-14505.44" y1="378.52" x2="-14394.2" y2="378.52" gradientTransform="matrix(-1, 0, 0, 1, -14317.2, 0)" xlink:href="#linear-gradient-56"/><linearGradient id="linear-gradient-64" x1="-16354.62" y1="-839.34" x2="-16349.18" y2="-879.12" gradientTransform="matrix(-1, -0.07, -0.07, 1, -16138.75, -10.12)" xlink:href="#linear-gradient-56"/><linearGradient id="linear-gradient-65" x1="-13951.92" y1="-8774.21" x2="-13900.72" y2="-8865.33" gradientTransform="matrix(-0.55, -0.84, -0.84, 0.55, -14737.13, -6609.91)" xlink:href="#linear-gradient-56"/><linearGradient id="linear-gradient-66" x1="-13940.91" y1="-8853.56" x2="-13915.31" y2="-8789.34" gradientTransform="matrix(-0.55, -0.84, -0.84, 0.55, -14737.13, -6609.91)" xlink:href="#linear-gradient-2"/><linearGradient id="linear-gradient-67" x1="-13941.02" y1="-8768.08" x2="-13889.82" y2="-8859.2" gradientTransform="matrix(-0.55, -0.84, -0.84, 0.55, -14737.13, -6609.91)" xlink:href="#linear-gradient-56"/><linearGradient id="linear-gradient-68" x1="-14584.35" y1="-210.45" x2="-14642.54" y2="-194.5" gradientTransform="matrix(-1, -0.05, -0.05, 1, -14383.89, -133.04)" xlink:href="#linear-gradient-2"/><linearGradient id="linear-gradient-69" x1="-3110.47" y1="367.86" x2="-2587.08" y2="323.83" gradientTransform="matrix(-1, 0, 0, 1, -2766.09, 0)" xlink:href="#linear-gradient-2"/><linearGradient id="linear-gradient-70" x1="-14614.27" y1="350.5" x2="-14633" y2="378.72" gradientTransform="matrix(-1, 0, 0, 1, -14317.2, 0)" xlink:href="#linear-gradient-10"/></defs><g id="Layer_2" data-name="Layer 2"><g id="Layer_1-2" data-name="Layer 1"><path class="cls-1" d="M578.45,564.34c-13.42,14.13-26.12,23.25-36.15,30.45-117.95,84.63-257.52,60-287.18,53.93-43.8-8.89-128.47-26.09-189.68-98.07C-27.17,441.74-12.75,270.16,59.09,156.9,72.23,136.18,141.63,21.2,282.7,2.76c85.37-11.16,184.89,11.34,257,71.72C690.94,201.22,680.17,457.26,578.45,564.34Z"/><path class="cls-2" d="M45.75,578A10.37,10.37,0,0,0,56.1,588.3H615.61A10.37,10.37,0,0,0,626,578l4.66-321.53c0-5.69-6.7-16.78-19-16L64.82,226.33A26.06,26.06,0,0,0,38.07,253Z"/><path class="cls-3" d="M56,568.05a9.82,9.82,0,0,0,9.79,9.79H602.11a9.82,9.82,0,0,0,9.79-9.79l4.4-291.89c-.52-17.57-15.92-23.88-25.26-23.51L67,238.59a18.32,18.32,0,0,0-18.8,18.75Z"/><path class="cls-4" d="M606.11,429.38h0a1.43,1.43,0,0,1-1.42-1.46l.35-23.67a1.43,1.43,0,0,1,1.43-1.41h0a1.43,1.43,0,0,1,1.42,1.45L607.54,428A1.43,1.43,0,0,1,606.11,429.38Z"/><path class="cls-4" d="M607,371.37h0a1.43,1.43,0,0,1-1.42-1.46l1.33-90.66c0-5.39-1.65-9.69-4.85-12.75-6-5.72-15.46-5.43-15.86-5.41l-167.5-4.49a1.43,1.43,0,0,1-1.4-1.48,1.37,1.37,0,0,1,1.47-1.39l167.41,4.49c1-.06,11.14-.24,17.86,6.21,3.78,3.62,5.71,8.61,5.74,14.83L608.39,370A1.43,1.43,0,0,1,607,371.37Z"/><rect class="cls-5" x="0.36" y="586.74" width="659.64" height="28.25" rx="5.65" transform="translate(660.36 1201.73) rotate(180)"/><path class="cls-6" d="M510.07,3.81,121.81,1.44A22.23,22.23,0,0,0,99.47,24.76l26.72,551.62H558.25l24-492.84Z"/><path class="cls-7" d="M526.21,81.17a22.21,22.21,0,0,1-21.37-24L509,4.54l73.31,78.67Z"/><path class="cls-8" d="M511.88,283.83H175.07c-10.16,0-18.48-4.65-18.79-10.49l-7-132.85c-.32-6.1,8.19-11.14,18.8-11.14H511.88c10.38,0,18.8,4.84,18.8,10.81V273C530.68,279,522.26,283.83,511.88,283.83Z"/><path class="cls-4" d="M511.34,285H174.53c-10.86,0-19.63-5.09-20-11.61l-7-132.84a8.59,8.59,0,0,1,2.59-6.38c3.52-3.71,10.18-6,17.39-6H511.34c11.21,0,20,5.27,20,12V273C531.33,279.74,522.55,285,511.34,285ZM167.5,130.54c-6.58,0-12.58,2-15.66,5.27a6.18,6.18,0,0,0-2,4.62l7,132.85c.27,5.16,8.17,9.36,17.6,9.36H511.34c9.55,0,17.61-4.41,17.61-9.63V140.16c0-5.21-8.06-9.62-17.61-9.62Z"/><rect class="cls-4" x="170.1" y="204.87" width="155.54" height="2.38" transform="translate(40.6 452.92) rotate(-89.72)"/><rect class="cls-4" x="368.14" y="204.87" width="155.54" height="2.38" transform="translate(237.67 650.95) rotate(-89.72)"/><rect class="cls-4" x="388.01" y="31.44" width="2.38" height="281.89" transform="translate(214.91 560.73) rotate(-89.72)"/><rect class="cls-4" x="247.48" y="231.6" width="282.63" height="2.38"/><path class="cls-8" d="M512.46,542.07H175.65c-10.16,0-18.48-4.64-18.79-10.49l-7-132.85c-.32-6.09,8.18-11.14,18.79-11.14H512.46c10.38,0,18.8,4.84,18.8,10.82V531.25C531.26,537.23,522.84,542.07,512.46,542.07Z"/><path class="cls-4" d="M511.91,543.26H175.11c-10.86,0-19.64-5.1-20-11.61l-7-132.85a8.56,8.56,0,0,1,2.6-6.38c3.52-3.71,10.18-6,17.38-6H511.91c11.21,0,20,5.28,20,12V531.25C531.91,538,523.12,543.26,511.91,543.26ZM168.07,388.78c-6.57,0-12.57,2-15.65,5.27a6.18,6.18,0,0,0-1.95,4.62l7,132.85c.28,5.16,8.17,9.36,17.61,9.36h336.8c9.55,0,17.62-4.41,17.62-9.63V398.41c0-5.22-8.07-9.63-17.62-9.63Z"/><rect class="cls-4" x="170.68" y="463.11" width="155.54" height="2.38" transform="translate(-217.06 710.47) rotate(-89.72)"/><rect class="cls-4" x="368.72" y="463.11" width="155.54" height="2.38" transform="translate(-19.99 908.51) rotate(-89.72)"/><rect class="cls-4" x="388.59" y="289.68" width="2.38" height="281.89" transform="translate(-42.75 818.29) rotate(-89.72)"/><rect class="cls-4" x="248.06" y="489.85" width="282.64" height="2.38"/><rect class="cls-9" x="176.68" y="75.73" width="318.45" height="27.34" rx="7.76"/><rect class="cls-10" x="157.27" y="309.58" width="368.66" height="20.6" rx="6.9"/><rect class="cls-10" x="156.2" y="341.27" width="368.66" height="20.6" rx="6.9"/><path class="cls-11" d="M436.78,207.78l.85,72.57.13,11.24a2.68,2.68,0,0,1-2.57,2.76L291,299.44a2.67,2.67,0,0,1-2.76-2.57l-.56-11.22-3.57-71.6a4.66,4.66,0,0,1,4.75-4.28l140.79-8.62a6.72,6.72,0,0,1,7.13,6.63Z"/><g class="cls-12"><path class="cls-13" d="M434.15,289.45A2.52,2.52,0,0,1,431.7,292l-137.35,4.84a2.52,2.52,0,0,1-2.63-2.39l-3.87-77.29a4.39,4.39,0,0,1,4.52-4l134.12-8.14a6.49,6.49,0,0,1,4.75,1.66,6.18,6.18,0,0,1,2,4.52Z"/></g><path class="cls-4" d="M416.26,293.65a.73.73,0,0,1,0-1.46l15.38-.54a3.65,3.65,0,0,0,3.26-3.52l-1.66-47a.73.73,0,1,1,1.46,0l1.66,47a5.11,5.11,0,0,1-4.67,5l-15.38.54Z"/><path class="cls-4" d="M289,246.92a.74.74,0,0,1-.73-.7l-1-28.19a6.37,6.37,0,0,1,1.43-4.22,5.29,5.29,0,0,1,3.92-2l12.22-.43a.72.72,0,0,1,.76.7.74.74,0,0,1-.71.76l-12.21.43a3.89,3.89,0,0,0-2.85,1.49,4.89,4.89,0,0,0-1.1,3.23l1,28.19a.72.72,0,0,1-.7.76Z"/><rect class="cls-14" x="300.71" y="240.49" width="23.16" height="18.89" rx="2.67" transform="translate(-8.62 11.17) rotate(-2.02)"/><path class="cls-15" d="M308.92,254.14a1.54,1.54,0,0,1-1.54-1.48l-.15-4.47a1.54,1.54,0,0,1,1.48-1.6l5.08-.18a1.54,1.54,0,0,1,1.6,1.49h0l.16,4.47a1.54,1.54,0,0,1-1.49,1.59l-5.08.18Zm4.93-6.27h0l-5.08.18a.08.08,0,0,0-.07.08l.16,4.47c0,.05,0,.08.08.08l5.08-.18a.08.08,0,0,0,.07-.08l-.15-4.47S313.88,247.87,313.85,247.87Z"/><path class="cls-4" d="M300.68,250.17a.74.74,0,0,1,0-1.47l7.31-.25a.71.71,0,0,1,.75.7.73.73,0,0,1-.7.76l-7.31.26Z"/><path class="cls-4" d="M300.75,252a.73.73,0,0,1,0-1.46l7.31-.26a.73.73,0,0,1,.76.71.74.74,0,0,1-.71.76l-7.31.25Z"/><path class="cls-4" d="M315.91,249.63a.73.73,0,0,1,0-1.46l7.92-.28a.72.72,0,0,1,.76.7.73.73,0,0,1-.71.76l-7.91.28Z"/><path class="cls-4" d="M316,251.46a.74.74,0,0,1-.73-.71A.75.75,0,0,1,316,250l7.92-.28a.72.72,0,0,1,.75.71.73.73,0,0,1-.7.76l-7.92.28Z"/><path class="cls-4" d="M309.59,248.05a.72.72,0,0,1-.7-.54l-1.81-6.57a.75.75,0,0,1,.51-.9.72.72,0,0,1,.9.51l1.81,6.58a.73.73,0,0,1-.51.9Z"/><path class="cls-4" d="M313.84,247.9h-.15a.74.74,0,0,1-.57-.87l1.39-6.69a.74.74,0,0,1,.87-.56.73.73,0,0,1,.57.86l-1.4,6.69A.73.73,0,0,1,313.84,247.9Z"/><path class="cls-4" d="M308.46,260.49h-.14a.73.73,0,0,1-.58-.86l1.34-6.69a.73.73,0,0,1,.86-.57.72.72,0,0,1,.57.86l-1.33,6.68A.74.74,0,0,1,308.46,260.49Z"/><path class="cls-4" d="M315.9,260.23a.73.73,0,0,1-.7-.53l-1.86-6.57a.73.73,0,1,1,1.4-.4l1.87,6.57a.73.73,0,0,1-.51.9A.69.69,0,0,1,315.9,260.23Z"/><rect class="cls-16" x="296.72" y="219.84" width="26.21" height="6.7" rx="3.17" transform="translate(-7.68 11.07) rotate(-2.02)"/><rect class="cls-17" x="298.4" y="267.93" width="28.03" height="6.09" rx="3.02" transform="translate(-9.37 11.19) rotate(-2.02)"/><rect class="cls-18" x="330.08" y="266.81" width="28.03" height="6.09" rx="3.02" transform="translate(-9.31 12.31) rotate(-2.02)"/><path class="cls-19" d="M364.77,265.69h22a3,3,0,0,1,3,3v0a3,3,0,0,1-3,3h-22a3,3,0,0,1-3-3v0a3,3,0,0,1,3-3Z" transform="translate(-9.25 13.42) rotate(-2.02)"/><rect class="cls-20" x="394.03" y="264.55" width="28.03" height="6.09" rx="3.02" transform="translate(-9.19 14.56) rotate(-2.02)"/><g class="cls-21"><path class="cls-22" d="M304.32,281.52h40.9a2.4,2.4,0,0,1,2.4,2.4V284a2.4,2.4,0,0,1-2.4,2.4h-40.9a2.41,2.41,0,0,1-2.41-2.41v-.07A2.4,2.4,0,0,1,304.32,281.52Z" transform="translate(-9.82 11.63) rotate(-2.02)"/><path class="cls-23" d="M398.69,277.37h17.74a2.41,2.41,0,0,1,2.41,2.41v.07a2.4,2.4,0,0,1-2.4,2.4H398.69a2.4,2.4,0,0,1-2.4-2.4v-.07a2.4,2.4,0,0,1,2.4-2.4Z" transform="translate(-9.62 14.55) rotate(-2.02)"/></g><circle class="cls-24" cx="305.91" cy="151.63" r="25.19" transform="translate(22.07 341.38) rotate(-60.13)"/><circle class="cls-25" cx="305.91" cy="151.63" r="24.36" transform="translate(-32.94 109.81) rotate(-19.33)"/><path class="cls-4" d="M285.83,142.46a1,1,0,0,1-.43-.11.94.94,0,0,1-.41-1.27,23.33,23.33,0,0,1,20.92-12.88,23.77,23.77,0,0,1,4.23.38.95.95,0,1,1-.34,1.86,21.9,21.9,0,0,0-3.89-.35,21.42,21.42,0,0,0-19.23,11.85A1,1,0,0,1,285.83,142.46Z"/><circle class="cls-26" cx="306.44" cy="152.16" r="20.61" transform="translate(-27.01 228.77) rotate(-39.35)"/><path class="cls-27" d="M304.42,167.48v-2.24a18.14,18.14,0,0,1-6.29-1.37,1.29,1.29,0,0,1-.72-1.53l.57-2.09a1.31,1.31,0,0,1,1.78-.85,15.24,15.24,0,0,0,5.81,1.22c2.25,0,3.93-.76,3.93-2.33,0-1.41-1.3-2.25-4.43-3.09-4.46-1.22-7.67-3.17-7.67-7.1,0-3.55,2.59-6.26,7.1-7v-2.25a1.3,1.3,0,0,1,1.3-1.3h1.32a1.31,1.31,0,0,1,1.31,1.3v2a17.15,17.15,0,0,1,5,.89,1.3,1.3,0,0,1,.81,1.57l-.52,1.94a1.31,1.31,0,0,1-1.72.88,13.56,13.56,0,0,0-4.9-.89c-2.67,0-3.43,1.1-3.43,2.1,0,1.22,1.6,2.06,5.07,3.13,5,1.49,7,3.55,7,7.25,0,3.4-2.52,6.45-7.41,7.21v2.51a1.31,1.31,0,0,1-1.3,1.31h-1.32A1.31,1.31,0,0,1,304.42,167.48Z"/><circle class="cls-28" cx="377.63" cy="121.75" r="43.86" transform="translate(24.51 302.68) rotate(-45)"/><circle class="cls-29" cx="377.63" cy="121.75" r="42.4" transform="translate(172.37 461.3) rotate(-76.72)"/><path class="cls-4" d="M342.66,105.08a.92.92,0,0,1-.42-.1.94.94,0,0,1-.42-1.27,39.9,39.9,0,0,1,35.81-22,40.67,40.67,0,0,1,7.23.65,1,1,0,0,1,.76,1.1,1,1,0,0,1-1.1.76,38.72,38.72,0,0,0-6.89-.62,38,38,0,0,0-34.12,21A1,1,0,0,1,342.66,105.08Z"/><circle class="cls-26" cx="378.55" cy="122.67" r="35.88" transform="matrix(0.08, -1, 1, 0.08, 225.07, 489.82)"/><path class="cls-30" d="M375,149.35v-3.9a32.07,32.07,0,0,1-11-2.38,2.24,2.24,0,0,1-1.24-2.67l1-3.63a2.27,2.27,0,0,1,3.09-1.49A26.39,26.39,0,0,0,377,137.41c3.92,0,6.85-1.33,6.85-4,0-2.46-2.26-3.92-7.71-5.39-7.78-2.12-13.36-5.51-13.36-12.35,0-6.18,4.52-10.9,12.36-12.16V99.55a2.28,2.28,0,0,1,2.28-2.27h2.29A2.27,2.27,0,0,1,382,99.55v3.51a28.88,28.88,0,0,1,8.69,1.56,2.26,2.26,0,0,1,1.41,2.73l-.91,3.36a2.26,2.26,0,0,1-3,1.53,23.93,23.93,0,0,0-8.52-1.54c-4.65,0-6,1.93-6,3.65,0,2.13,2.79,3.59,8.84,5.45,8.63,2.59,12.22,6.18,12.22,12.63,0,5.91-4.38,11.22-12.89,12.55v4.37a2.28,2.28,0,0,1-2.27,2.28h-2.3A2.28,2.28,0,0,1,375,149.35Z"/><circle class="cls-31" cx="407.87" cy="219.71" r="45.13" transform="translate(79.4 546.41) rotate(-73.15)"/><circle class="cls-32" cx="407.87" cy="219.71" r="43.63" transform="translate(-35.89 352.76) rotate(-45)"/><path class="cls-4" d="M371.9,202.53a.94.94,0,0,1-.43-.1,1,1,0,0,1-.42-1.27,41.29,41.29,0,0,1,44.26-22A.95.95,0,1,1,415,181a39.39,39.39,0,0,0-42.23,21A.94.94,0,0,1,371.9,202.53Z"/><circle class="cls-26" cx="408.82" cy="220.66" r="36.93" transform="translate(100.14 567.85) rotate(-76.72)"/><path class="cls-33" d="M405.2,248.11v-4a33,33,0,0,1-11.27-2.44,2.33,2.33,0,0,1-1.29-2.75l1-3.74a2.35,2.35,0,0,1,3.18-1.53,27.27,27.27,0,0,0,10.41,2.19c4,0,7-1.37,7-4.17,0-2.53-2.32-4-7.93-5.54-8-2.19-13.74-5.67-13.74-12.72,0-6.36,4.65-11.21,12.72-12.51v-4a2.34,2.34,0,0,1,2.34-2.34H410a2.34,2.34,0,0,1,2.34,2.34v3.61a29.9,29.9,0,0,1,8.93,1.61,2.32,2.32,0,0,1,1.46,2.81l-.94,3.46a2.34,2.34,0,0,1-3.08,1.58,24.35,24.35,0,0,0-8.76-1.6c-4.79,0-6.16,2-6.16,3.76,0,2.19,2.87,3.7,9.09,5.61,8.89,2.67,12.58,6.36,12.58,13,0,6.08-4.51,11.55-13.26,12.92v4.5a2.34,2.34,0,0,1-2.34,2.34h-2.36A2.34,2.34,0,0,1,405.2,248.11Z"/><circle class="cls-34" cx="465.76" cy="158.23" r="33.06" transform="translate(292.12 618.47) rotate(-88.09)"/><circle class="cls-35" cx="465.76" cy="158.23" r="31.97" transform="translate(106.48 494.22) rotate(-61.85)"/><path class="cls-4" d="M439.41,145.9a.94.94,0,0,1-.43-.1,1,1,0,0,1-.42-1.27,30.34,30.34,0,0,1,27.21-16.75,31.48,31.48,0,0,1,5.49.49,1,1,0,0,1,.76,1.1,1,1,0,0,1-1.1.77,28.57,28.57,0,0,0-30.67,15.24A.94.94,0,0,1,439.41,145.9Z"/><circle class="cls-26" cx="466.46" cy="158.93" r="27.05" transform="translate(-25.74 134.75) rotate(-16)"/><path class="cls-36" d="M463.81,179V176.1a24,24,0,0,1-8.26-1.79,1.7,1.7,0,0,1-.94-2l.74-2.74a1.72,1.72,0,0,1,2.33-1.13,19.88,19.88,0,0,0,7.63,1.61c2.95,0,5.16-1,5.16-3.06,0-1.85-1.7-2.95-5.81-4-5.86-1.61-10.07-4.16-10.07-9.32,0-4.66,3.41-8.22,9.32-9.17V141.5a1.71,1.71,0,0,1,1.71-1.72h1.73a1.72,1.72,0,0,1,1.72,1.72v2.64a21.59,21.59,0,0,1,6.54,1.18,1.71,1.71,0,0,1,1.07,2.06l-.69,2.53a1.71,1.71,0,0,1-2.26,1.16,17.84,17.84,0,0,0-6.42-1.17c-3.5,0-4.51,1.45-4.51,2.76,0,1.6,2.11,2.7,6.67,4.1,6.51,2,9.21,4.66,9.21,9.52,0,4.46-3.3,8.47-9.71,9.47V179a1.72,1.72,0,0,1-1.72,1.72h-1.73A1.71,1.71,0,0,1,463.81,179Z"/><path class="cls-37" d="M0,435.69H286.95a0,0,0,0,1,0,0v204a16.76,16.76,0,0,1-16.76,16.76H16.76A16.76,16.76,0,0,1,0,639.65v-204A0,0,0,0,1,0,435.69Z"/><path class="cls-38" d="M0,426.33H286.95a0,0,0,0,1,0,0V623.78a16.76,16.76,0,0,1-16.76,16.76H16.76A16.76,16.76,0,0,1,0,623.79V426.33A0,0,0,0,1,0,426.33Z"/><rect class="cls-39" x="16.52" y="435.69" width="9.88" height="16.79"/><rect class="cls-40" x="38.75" y="435.69" width="9.88" height="16.79"/><rect class="cls-41" x="58.38" y="435.69" width="9.88" height="16.79"/><rect class="cls-42" x="80.61" y="435.69" width="9.88" height="16.79"/><rect class="cls-43" x="100.24" y="435.69" width="9.88" height="16.79"/><rect class="cls-44" x="122.47" y="435.69" width="9.88" height="16.79"/><rect class="cls-45" x="142.11" y="435.69" width="9.88" height="16.79"/><rect class="cls-46" x="164.34" y="435.69" width="9.88" height="16.79"/><rect class="cls-47" x="183.97" y="435.69" width="9.88" height="16.79"/><rect class="cls-48" x="206.2" y="435.69" width="9.88" height="16.79"/><rect class="cls-49" x="225.83" y="435.69" width="9.88" height="16.79"/><rect class="cls-50" x="248.06" y="435.69" width="9.88" height="16.79"/><rect class="cls-4" x="127.71" y="461.18" width="29.82" height="29.82"/><rect class="cls-4" x="163.95" y="461.18" width="29.82" height="29.82"/><rect class="cls-4" x="199.82" y="461.18" width="29.82" height="29.82"/><rect class="cls-4" x="235.39" y="461.18" width="29.82" height="29.82"/><rect class="cls-4" x="20.06" y="498.67" width="29.82" height="29.82"/><rect class="cls-4" x="55.93" y="498.67" width="29.82" height="29.82"/><rect class="cls-4" x="91.51" y="498.67" width="29.82" height="29.82"/><rect class="cls-4" x="127.67" y="498.67" width="29.82" height="29.82"/><rect class="cls-4" x="163.91" y="498.67" width="29.82" height="29.82"/><rect class="cls-4" x="199.78" y="498.67" width="29.82" height="29.82"/><rect class="cls-4" x="235.36" y="498.67" width="29.82" height="29.82"/><rect class="cls-4" x="20.95" y="534.39" width="29.82" height="29.82"/><rect class="cls-4" x="56.82" y="534.39" width="29.82" height="29.82"/><rect class="cls-51" x="92.39" y="534.39" width="29.82" height="29.82"/><rect class="cls-4" x="128.56" y="534.39" width="29.82" height="29.82"/><rect class="cls-4" x="164.8" y="534.39" width="29.82" height="29.82"/><rect class="cls-4" x="200.67" y="534.39" width="29.82" height="29.82"/><rect class="cls-4" x="236.24" y="534.39" width="29.82" height="29.82"/><rect class="cls-4" x="21.83" y="569.67" width="29.82" height="29.82"/><rect class="cls-4" x="57.7" y="569.67" width="29.82" height="29.82"/><rect class="cls-4" x="93.28" y="569.67" width="29.82" height="29.82"/><rect class="cls-4" x="129.44" y="569.67" width="29.82" height="29.82"/><rect class="cls-4" x="165.68" y="569.67" width="29.82" height="29.82"/><rect class="cls-4" x="201.55" y="569.67" width="29.82" height="29.82"/><rect class="cls-4" x="237.13" y="569.67" width="29.82" height="29.82"/><rect class="cls-4" x="21.83" y="604.87" width="29.82" height="29.82"/><rect class="cls-4" x="57.7" y="604.87" width="29.82" height="29.82"/><rect class="cls-4" x="93.28" y="604.87" width="29.82" height="29.82"/><path class="cls-52" d="M36,422.33H23.34a5.32,5.32,0,0,0-5.31,5.3v11.8h3.84v-7.67a5.32,5.32,0,0,1,5.3-5.31H39.86a5.22,5.22,0,0,1,1.38.19A5.32,5.32,0,0,0,36,422.33Z"/><path class="cls-53" d="M60.67,422.33H48a5.32,5.32,0,0,0-5.31,5.3v11.8h3.84v-7.67a5.33,5.33,0,0,1,5.31-5.31H64.5a5.22,5.22,0,0,1,1.38.19A5.32,5.32,0,0,0,60.67,422.33Z"/><path class="cls-54" d="M81.15,422.33H68.46a5.32,5.32,0,0,0-5.31,5.3v11.8H67v-7.67a5.33,5.33,0,0,1,5.31-5.31H85a5.22,5.22,0,0,1,1.38.19A5.32,5.32,0,0,0,81.15,422.33Z"/><path class="cls-55" d="M102.25,422.33H89.56a5.32,5.32,0,0,0-5.31,5.3v11.8h3.84v-7.67a5.33,5.33,0,0,1,5.31-5.31h12.68a5.22,5.22,0,0,1,1.38.19A5.32,5.32,0,0,0,102.25,422.33Z"/><path class="cls-56" d="M121.75,422.33H109.07a5.32,5.32,0,0,0-5.31,5.3v11.8h3.83v-7.67a5.33,5.33,0,0,1,5.31-5.31h12.69a5.34,5.34,0,0,1,1.38.19A5.33,5.33,0,0,0,121.75,422.33Z"/><path class="cls-57" d="M142.85,422.33H130.17a5.32,5.32,0,0,0-5.31,5.3v11.8h3.83v-7.67a5.33,5.33,0,0,1,5.31-5.31h12.69a5.21,5.21,0,0,1,1.37.19A5.31,5.31,0,0,0,142.85,422.33Z"/><path class="cls-58" d="M163.33,422.33H150.65a5.32,5.32,0,0,0-5.31,5.3v11.8h3.83v-7.67a5.33,5.33,0,0,1,5.31-5.31h12.69a5.28,5.28,0,0,1,1.38.19A5.33,5.33,0,0,0,163.33,422.33Z"/><path class="cls-59" d="M186.2,422.33H173.52a5.32,5.32,0,0,0-5.31,5.3v11.8H172v-7.67a5.33,5.33,0,0,1,5.31-5.31H190a5.22,5.22,0,0,1,1.38.19A5.32,5.32,0,0,0,186.2,422.33Z"/><path class="cls-60" d="M205.92,422.14H193.24a5.33,5.33,0,0,0-5.31,5.31v11.8h3.84v-7.67a5.32,5.32,0,0,1,5.31-5.31h12.68a5.67,5.67,0,0,1,1.38.18A5.32,5.32,0,0,0,205.92,422.14Z"/><path class="cls-61" d="M226.41,422.14H213.72a5.33,5.33,0,0,0-5.31,5.31v11.8h3.84v-7.67a5.33,5.33,0,0,1,5.31-5.31h12.68a5.67,5.67,0,0,1,1.38.18A5.32,5.32,0,0,0,226.41,422.14Z"/><path class="cls-62" d="M267,422.62H254.28a5.32,5.32,0,0,0-5.31,5.31v11.79h3.84v-7.66a5.32,5.32,0,0,1,5.31-5.31H270.8a5.67,5.67,0,0,1,1.38.18A5.32,5.32,0,0,0,267,422.62Z"/><path class="cls-63" d="M249.28,422.14H236.59a5.33,5.33,0,0,0-5.31,5.31v11.8h3.84v-7.67a5.33,5.33,0,0,1,5.31-5.31h12.68a5.67,5.67,0,0,1,1.38.18A5.32,5.32,0,0,0,249.28,422.14Z"/><path class="cls-64" d="M366.86,519.17c-.13,0-71-124.1-80.54-135.77a7.42,7.42,0,0,0-6.62-2.66l-19.77,2.35L236.7,433.34l38.7-22.53c-3.83,26.48,45.87,65.83,62.92,80.19a3.91,3.91,0,0,1,.31,5.7l-6.8,7.13a78.21,78.21,0,0,0,38.62,22Z"/><path class="cls-65" d="M335.76,500s-4.34,1.4-5.81,5.27a4.41,4.41,0,0,0,1.66,5.1c7.16,5.13,30.75,21.67,41.64,24.91a1.23,1.23,0,0,0,1.54-1.45c-.56-2.53-2.37-7.58-8.19-15l.52,1a1.51,1.51,0,0,1-2.09,2C357.74,517.78,342.91,508.78,335.76,500Z"/><path class="cls-66" d="M339.27,549.61c-.12-.07-10.75-25.68-10.87-25.75-9.74-59.33-33.51-110.13-40.52-123.5a7.41,7.41,0,0,0-5.95-3.95l-19.84-1.7-32.92,44.51L271.63,425c-9.11,25.16,31.61,73.76,45.39,91.27a3.92,3.92,0,0,1-.85,5.65l-8.1,5.6a78.17,78.17,0,0,0,33.37,29.32Z"/><path class="cls-67" d="M312.7,524.53s-4.54.49-6.76,4a4.42,4.42,0,0,0,.6,5.33c6,6.46,25.72,27.44,35.73,32.82a1.23,1.23,0,0,0,1.8-1.11c0-2.59-.78-7.91-5-16.32l.3,1.14a1.52,1.52,0,0,1-2.46,1.53C330.62,546.41,317.92,534.59,312.7,524.53Z"/><path class="cls-68" d="M169.23,385.34S151.28,412,149.81,424.21s5,16.39,23.75,17.94C229.45,446.77,257,430,257,430c3.82-24.38,6.54-30.58,38.48-43.84,0,0-40.39,3.21-48.52.05S169.23,385.34,169.23,385.34Z"/><path class="cls-69" d="M240.79,235.79S228.29,221,215,239.15c-2.4,3.28-11.65.57-15,7.45a8.74,8.74,0,0,1-9.43,4.85c-9.69-1.79-25.54-1.94-33.37,13.26-6,11.6-1.36,18.39,4.61,22.26a9.78,9.78,0,0,1,3.3,13.11c-2.54,4.32-3,10.17,3.55,17.21,14.71,15.77,43.85-10,43.85-10l23.13-54.67Z"/><path class="cls-70" d="M217.76,381.81s20.9-19.9,31.19-33.08a28,28,0,0,0,4.73-25.17c-4.69-15.82-13-32.21-13.8-34.76-1.17-3.91-24.6-3.75-24.6-3.75S169.17,315,151.05,365.67L171.4,372s12-20.19,23.93-33c0,0-20.58,27.2-21.3,38.33Z"/><path class="cls-71" d="M257.58,389.66l-15.7-17.08-18.14,4.88s-21.14,3.27-33.24,0l-12.1-3.28-27.35-8.51-4.29,12.14a7.29,7.29,0,0,0,2.67,8.39,49.2,49.2,0,0,0,6.9,4.31c3.61,1.57,83,.49,83,.49Z"/><path class="cls-72" d="M231.38,256.88l-15.74,29.28c1,6.39,17.14,6.58,19.62,2.76a3.77,3.77,0,0,0,.5-1.29l9.42-19.57c.4-1.91-4.83-8.34-6.55-9.26l-6.26-3.33C230,254.19,240,254.09,231.38,256.88Z"/><path class="cls-73" d="M263.26,250s1.78,9.9-6,22.48-15.52,12-19.46,7.52-8.64-12-6.5-24.5S260.57,237.39,263.26,250Z"/><path class="cls-74" d="M240.72,256.86s12.59-16.54,22.26-2.12l-.17,5s12.57-.59,11.21-12.17S262.39,228,248.17,232s-22.55,8.47-24.16,18.35,6.46,8.26,6.46,8.26,3.09-6.81,6.81-7.28,2.37,4.93,2.37,4.93Z"/><path class="cls-75" d="M237.83,256.42s6.52-8.46.58-10.22-5.71,8.29-5.33,12Z"/><path class="cls-76" d="M205.6,396.42h.17l72.23-.08a3.24,3.24,0,0,0,0-6.47l-72.23.08a3.23,3.23,0,0,0-.16,6.46Z"/><path class="cls-77" d="M342.92,330.84H282.77a11.48,11.48,0,0,0-10.37,6.58l-27.8,59h74.75a7,7,0,0,0,6.48-4.4l21.56-54.57A4.8,4.8,0,0,0,342.92,330.84Z"/><path class="cls-78" d="M300.55,361.08c-1.31,4.05-.34,8,2.15,8.78s5.57-1.83,6.87-5.88.34-8-2.15-8.78S301.85,357,300.55,361.08Z"/></g></g></svg>