<svg xmlns="http://www.w3.org/2000/svg" xmlns:xlink="http://www.w3.org/1999/xlink" viewBox="0 0 633.1 680"><defs><style>.cls-1{isolation:isolate;}.cls-2{opacity:0.19;}.cls-2,.cls-32,.cls-33,.cls-4,.cls-5,.cls-81,.cls-88{mix-blend-mode:multiply;}.cls-3,.cls-81{fill:#4588ff;}.cls-33,.cls-4,.cls-81,.cls-97{opacity:0.35;}.cls-25,.cls-5,.cls-87{opacity:0.25;}.cls-117,.cls-6,.cls-90,.cls-91{fill:#fff;}.cls-7{fill:url(#linear-gradient);}.cls-8{fill:#2875df;}.cls-24,.cls-9{fill:#75bcfc;}.cls-10{fill:#4594f4;}.cls-11{fill:#347ee8;}.cls-12{fill:#fcc106;}.cls-118,.cls-13{fill:#205ce2;}.cls-14{fill:url(#linear-gradient-2);}.cls-15,.cls-28,.cls-77,.cls-85,.cls-86,.cls-87,.cls-88{fill:#b4bbe1;}.cls-16{fill:#dae3f2;}.cls-17{fill:#ced2ef;}.cls-18{fill:#c5c8e8;}.cls-19{fill:url(#linear-gradient-3);}.cls-20{fill:#ef770a;}.cls-21{fill:#ff9906;}.cls-22{fill:#328eea;}.cls-23{fill:url(#linear-gradient-4);}.cls-24,.cls-28{opacity:0.45;}.cls-26,.cls-31,.cls-82,.cls-83,.cls-98{fill:none;}.cls-26,.cls-98{stroke:#fff;}.cls-26,.cls-31,.cls-83,.cls-98{stroke-linecap:round;}.cls-26,.cls-31,.cls-82{stroke-miterlimit:10;}.cls-26{stroke-width:1.98px;}.cls-27{fill:url(#linear-gradient-5);}.cls-29{fill:url(#linear-gradient-6);}.cls-30{fill:#f7f5fa;}.cls-31{stroke:#b4bbe1;}.cls-31,.cls-82,.cls-83{stroke-width:2.34px;}.cls-32{fill:url(#linear-gradient-7);}.cls-33{fill:url(#linear-gradient-8);}.cls-34{fill:#ebf6f7;}.cls-35{fill:url(#linear-gradient-9);}.cls-36{fill:url(#linear-gradient-10);}.cls-37{fill:url(#linear-gradient-11);}.cls-38{fill:url(#linear-gradient-12);}.cls-39{fill:url(#linear-gradient-13);}.cls-40{fill:url(#linear-gradient-14);}.cls-41{fill:url(#linear-gradient-15);}.cls-42{fill:url(#linear-gradient-16);}.cls-43{fill:url(#linear-gradient-17);}.cls-44{fill:url(#linear-gradient-18);}.cls-45{fill:url(#linear-gradient-19);}.cls-46{fill:url(#linear-gradient-20);}.cls-47{fill:url(#linear-gradient-21);}.cls-48{fill:url(#linear-gradient-22);}.cls-49{fill:url(#linear-gradient-23);}.cls-50{fill:url(#linear-gradient-24);}.cls-51{fill:url(#linear-gradient-25);}.cls-52{fill:url(#linear-gradient-26);}.cls-53{fill:url(#linear-gradient-27);}.cls-54{fill:url(#linear-gradient-28);}.cls-55{fill:url(#linear-gradient-29);}.cls-56{fill:url(#linear-gradient-30);}.cls-57{fill:url(#linear-gradient-31);}.cls-58{fill:url(#linear-gradient-32);}.cls-59{fill:url(#linear-gradient-33);}.cls-60{fill:url(#linear-gradient-34);}.cls-61{fill:url(#linear-gradient-35);}.cls-62{fill:url(#linear-gradient-36);}.cls-63{fill:url(#linear-gradient-37);}.cls-64{fill:url(#linear-gradient-38);}.cls-65{fill:url(#linear-gradient-39);}.cls-66{fill:url(#linear-gradient-40);}.cls-67{fill:url(#linear-gradient-41);}.cls-68{fill:url(#linear-gradient-42);}.cls-69{fill:url(#linear-gradient-43);}.cls-70{fill:url(#linear-gradient-44);}.cls-71{fill:url(#linear-gradient-45);}.cls-72{fill:url(#linear-gradient-46);}.cls-73{fill:url(#linear-gradient-47);}.cls-74{fill:url(#linear-gradient-48);}.cls-75{fill:url(#linear-gradient-49);}.cls-76{fill:url(#linear-gradient-50);}.cls-77{font-size:15.78px;font-family:OpenSans-Bold, OpenSans Bold;font-weight:700;letter-spacing:-0.04em;}.cls-78{letter-spacing:-0.04em;}.cls-79{letter-spacing:-0.04em;}.cls-118,.cls-80{opacity:0.75;}.cls-82,.cls-83{stroke:#dae3f2;}.cls-83,.cls-98{stroke-linejoin:round;}.cls-84{fill:url(#linear-gradient-51);}.cls-85{opacity:0.11;}.cls-86{opacity:0.15;}.cls-117,.cls-88{opacity:0.55;}.cls-89,.cls-90{opacity:0.2;}.cls-89{mix-blend-mode:screen;fill:url(#linear-gradient-52);}.cls-91{opacity:0.4;}.cls-92{fill:#81c5e8;}.cls-93{fill:#cdd5f7;}.cls-94{fill:#2d2d2d;}.cls-95{fill:#3a3a3a;}.cls-96{fill:#4b4c4c;}.cls-98{stroke-width:6.44px;}.cls-99{fill:#f2ba88;}.cls-100{fill:#ffd1a4;}.cls-101{fill:#e8ecf7;}.cls-102{fill:url(#linear-gradient-53);}.cls-103{fill:#190b05;}.cls-104{fill:#7f391b;}.cls-105{fill:#934b32;}.cls-106{fill:#682c17;}.cls-107{fill:#595959;opacity:0.5;}.cls-108{fill:#845424;}.cls-109{fill:#713e23;}.cls-110,.cls-113{fill:#efefef;}.cls-110{opacity:0.39;}.cls-111{fill:#442312;}.cls-112{fill:#d39867;}.cls-114{fill:#1d68d6;}.cls-115{fill:url(#linear-gradient-54);}.cls-116{fill:#063444;}.cls-119{fill:#165bd6;}.cls-120{fill:#474747;}.cls-121{fill:#134dce;}</style><linearGradient id="linear-gradient" x1="152.89" y1="247.87" x2="65.96" y2="298.06" gradientUnits="userSpaceOnUse"><stop offset="0" stop-color="#b4bbe1" stop-opacity="0.1"/><stop offset="0.63" stop-color="#b4bbe1" stop-opacity="0.24"/><stop offset="1" stop-color="#b4bbe1" stop-opacity="0.3"/></linearGradient><linearGradient id="linear-gradient-2" x1="206.93" y1="261.44" x2="120" y2="311.63" xlink:href="#linear-gradient"/><linearGradient id="linear-gradient-3" x1="62.69" y1="345.71" x2="16.26" y2="372.52" xlink:href="#linear-gradient"/><linearGradient id="linear-gradient-4" x1="-75.39" y1="366.99" x2="230.41" y2="543.54" gradientTransform="matrix(-1, 0, 0, 1, 353.55, 0)" xlink:href="#linear-gradient"/><linearGradient id="linear-gradient-5" x1="345.96" y1="377.63" x2="163.67" y2="482.88" gradientUnits="userSpaceOnUse"><stop offset="0" stop-color="#ced5ef"/><stop offset="0.37" stop-color="#d5ddf1"/><stop offset="0.87" stop-color="#dae3f2"/></linearGradient><linearGradient id="linear-gradient-6" x1="392.85" y1="348.96" x2="209.2" y2="454.99" xlink:href="#linear-gradient-5"/><linearGradient id="linear-gradient-7" x1="351.02" y1="488.98" x2="351.02" y2="224.3" xlink:href="#linear-gradient"/><linearGradient id="linear-gradient-8" x1="248.49" y1="478.22" x2="398.06" y2="219.15" gradientUnits="userSpaceOnUse"><stop offset="0" stop-color="#b4bbe1" stop-opacity="0.1"/><stop offset="0.41" stop-color="#b4bbe1" stop-opacity="0.4"/><stop offset="0.83" stop-color="#b4bbe1" stop-opacity="0.8"/><stop offset="0.84" stop-color="#c5cbe8" stop-opacity="0.68"/><stop offset="0.87" stop-color="#dadef0" stop-opacity="0.55"/><stop offset="0.89" stop-color="#eaecf7" stop-opacity="0.44"/><stop offset="0.92" stop-color="#f6f7fb" stop-opacity="0.36"/><stop offset="0.96" stop-color="#fdfdfe" stop-opacity="0.31"/><stop offset="1" stop-color="#fff" stop-opacity="0.3"/></linearGradient><linearGradient id="linear-gradient-9" x1="291.19" y1="257.47" x2="361.44" y2="257.47" xlink:href="#linear-gradient-5"/><linearGradient id="linear-gradient-10" x1="291.19" y1="250.2" x2="361.44" y2="250.2" xlink:href="#linear-gradient-5"/><linearGradient id="linear-gradient-11" x1="291.19" y1="264.74" x2="361.44" y2="264.74" xlink:href="#linear-gradient-5"/><linearGradient id="linear-gradient-12" x1="291.19" y1="272.01" x2="361.44" y2="272.01" xlink:href="#linear-gradient-5"/><linearGradient id="linear-gradient-13" x1="291.19" y1="279.29" x2="361.44" y2="279.29" xlink:href="#linear-gradient-5"/><linearGradient id="linear-gradient-14" x1="339.68" y1="342.29" x2="361.43" y2="342.29" xlink:href="#linear-gradient-5"/><linearGradient id="linear-gradient-15" x1="291.19" y1="321.07" x2="336.78" y2="321.07" xlink:href="#linear-gradient-5"/><linearGradient id="linear-gradient-16" x1="291.19" y1="322.32" x2="366.13" y2="322.32" xlink:href="#linear-gradient-5"/><linearGradient id="linear-gradient-17" x1="291.19" y1="313.67" x2="361.44" y2="313.67" xlink:href="#linear-gradient-5"/><linearGradient id="linear-gradient-18" x1="291.19" y1="306.4" x2="361.44" y2="306.4" xlink:href="#linear-gradient-5"/><linearGradient id="linear-gradient-19" x1="291.19" y1="356.23" x2="361.44" y2="356.23" xlink:href="#linear-gradient-5"/><linearGradient id="linear-gradient-20" x1="290.59" y1="366.11" x2="372.45" y2="366.11" xlink:href="#linear-gradient-5"/><linearGradient id="linear-gradient-21" x1="288.95" y1="371.89" x2="371.87" y2="371.89" xlink:href="#linear-gradient-5"/><linearGradient id="linear-gradient-22" x1="291.19" y1="348.96" x2="361.44" y2="348.96" xlink:href="#linear-gradient-5"/><linearGradient id="linear-gradient-23" x1="291.19" y1="341.68" x2="361.44" y2="341.68" xlink:href="#linear-gradient-5"/><linearGradient id="linear-gradient-24" x1="332.15" y1="346.29" x2="361.43" y2="346.29" xlink:href="#linear-gradient-5"/><linearGradient id="linear-gradient-25" x1="291.19" y1="325.1" x2="329.24" y2="325.1" xlink:href="#linear-gradient-5"/><linearGradient id="linear-gradient-26" x1="368.32" y1="362.52" x2="402.77" y2="362.52" xlink:href="#linear-gradient-5"/><linearGradient id="linear-gradient-27" x1="368.32" y1="355.25" x2="402.77" y2="355.25" xlink:href="#linear-gradient-5"/><linearGradient id="linear-gradient-28" x1="368.32" y1="344.21" x2="402.77" y2="344.21" xlink:href="#linear-gradient-5"/><linearGradient id="linear-gradient-29" x1="368.32" y1="389.21" x2="398.18" y2="389.21" xlink:href="#linear-gradient-5"/><linearGradient id="linear-gradient-30" x1="368.32" y1="383.26" x2="402.77" y2="383.26" xlink:href="#linear-gradient-5"/><linearGradient id="linear-gradient-31" x1="368.32" y1="375.99" x2="402.77" y2="375.99" xlink:href="#linear-gradient-5"/><linearGradient id="linear-gradient-32" x1="368.32" y1="368.72" x2="402.77" y2="368.72" xlink:href="#linear-gradient-5"/><linearGradient id="linear-gradient-33" x1="291.19" y1="288.9" x2="354.1" y2="288.9" xlink:href="#linear-gradient-5"/><linearGradient id="linear-gradient-34" x1="291.19" y1="311.25" x2="403.51" y2="311.25" xlink:href="#linear-gradient-5"/><linearGradient id="linear-gradient-35" x1="373.35" y1="409.55" x2="402.77" y2="409.55" xlink:href="#linear-gradient-5"/><linearGradient id="linear-gradient-36" x1="378.91" y1="426.68" x2="391.28" y2="426.68" xlink:href="#linear-gradient-5"/><linearGradient id="linear-gradient-37" x1="284.1" y1="396.33" x2="358.04" y2="396.33" xlink:href="#linear-gradient-5"/><linearGradient id="linear-gradient-38" x1="242.71" y1="350.29" x2="302.88" y2="350.29" xlink:href="#linear-gradient-5"/><linearGradient id="linear-gradient-39" x1="237.55" y1="354.33" x2="296.6" y2="354.33" xlink:href="#linear-gradient-5"/><linearGradient id="linear-gradient-40" x1="233.08" y1="358.89" x2="291.96" y2="358.89" xlink:href="#linear-gradient-5"/><linearGradient id="linear-gradient-41" x1="228.97" y1="363.88" x2="287.89" y2="363.88" xlink:href="#linear-gradient-5"/><linearGradient id="linear-gradient-42" x1="225.65" y1="369.19" x2="284.64" y2="369.19" xlink:href="#linear-gradient-5"/><linearGradient id="linear-gradient-43" x1="223.06" y1="375.11" x2="282.04" y2="375.11" xlink:href="#linear-gradient-5"/><linearGradient id="linear-gradient-44" x1="220.6" y1="401.24" x2="331.16" y2="401.24" xlink:href="#linear-gradient-5"/><linearGradient id="linear-gradient-45" x1="220.19" y1="409.89" x2="331.16" y2="409.89" xlink:href="#linear-gradient-5"/><linearGradient id="linear-gradient-46" x1="218.94" y1="417.89" x2="329.86" y2="417.89" xlink:href="#linear-gradient-5"/><linearGradient id="linear-gradient-47" x1="216.48" y1="425.3" x2="327.4" y2="425.3" xlink:href="#linear-gradient-5"/><linearGradient id="linear-gradient-48" x1="212.8" y1="432.04" x2="323.88" y2="432.04" xlink:href="#linear-gradient-5"/><linearGradient id="linear-gradient-49" x1="208.14" y1="438.17" x2="319.24" y2="438.17" xlink:href="#linear-gradient-5"/><linearGradient id="linear-gradient-50" x1="260.03" y1="460.4" x2="313.51" y2="460.4" xlink:href="#linear-gradient-5"/><linearGradient id="linear-gradient-51" x1="592.33" y1="528.17" x2="439.66" y2="616.31" xlink:href="#linear-gradient"/><linearGradient id="linear-gradient-52" x1="451.35" y1="538.15" x2="496.12" y2="538.15" xlink:href="#linear-gradient"/><linearGradient id="linear-gradient-53" x1="220.42" y1="552.27" x2="164.74" y2="584.42" xlink:href="#linear-gradient"/><linearGradient id="linear-gradient-54" x1="39.72" y1="658.26" x2="-39.23" y2="703.85" gradientTransform="translate(21.37 -36.93) rotate(-5.77)" xlink:href="#linear-gradient"/></defs><g class="cls-1"><g id="Layer_2" data-name="Layer 2"><g id="Layer_1-2" data-name="Layer 1"><g class="cls-2"><path class="cls-3" d="M423.91,110.63a3.62,3.62,0,0,1-1.17-.43L352.78,70A5.45,5.45,0,0,1,350,65.36V2.71A2.62,2.62,0,0,1,351.43.29a3.19,3.19,0,0,1,3,.2l69.84,40.19a5.44,5.44,0,0,1,2.78,4.59V108a2.58,2.58,0,0,1-1.38,2.37A2.88,2.88,0,0,1,423.91,110.63Z" transform="translate(0 0)"/></g><g class="cls-4"><path class="cls-3" d="M451.45,159.63a2.52,2.52,0,0,1-.84-.31l-50.4-29a3.93,3.93,0,0,1-2-3.3V81.88a1.9,1.9,0,0,1,1-1.75,2.31,2.31,0,0,1,2.17.15l50.32,29a3.92,3.92,0,0,1,2,3.31v45.22a1.84,1.84,0,0,1-1,1.7A2,2,0,0,1,451.45,159.63Z" transform="translate(0 0)"/></g><g class="cls-2"><path class="cls-3" d="M215.3,122.93a2.26,2.26,0,0,1-.58-.21l-34.56-19.89a2.68,2.68,0,0,1-1.37-2.27v-31a1.3,1.3,0,0,1,.7-1.2,1.57,1.57,0,0,1,1.48.1l34.52,19.86a2.7,2.7,0,0,1,1.37,2.27v31a1.26,1.26,0,0,1-.68,1.17A1.45,1.45,0,0,1,215.3,122.93Z" transform="translate(0 0)"/></g><g class="cls-5"><path class="cls-3" d="M565.54,302.13a3.93,3.93,0,0,1-1.26-.46l-75-43.15a5.84,5.84,0,0,1-3-4.92V186.44a2.82,2.82,0,0,1,1.52-2.6,3.4,3.4,0,0,1,3.23.22l74.88,43.08a5.84,5.84,0,0,1,3,4.92v67.29a2.73,2.73,0,0,1-1.48,2.53A3,3,0,0,1,565.54,302.13Z" transform="translate(0 0)"/></g><path class="cls-6" d="M527.93,270.12c-6.17-.22-14.48-8.77-18.58-19-4.72-11.8-4.58-24.56.34-32.12s13.35-8.3,21.09-2c-.18.66-.36,1.31-.53,2-1.78,6.57-3.62,13.08-5.29,19.74a15.72,15.72,0,0,0-.27,5.36c.91,7.87,2,15.77,3,23.65C527.77,268.53,527.85,269.33,527.93,270.12Z" transform="translate(0 0)"/><path class="cls-6" d="M530.43,270.75c-1.1-8.65-2.16-16.95-3.26-25.53l16.39,14.62C541,267.09,536.62,270.59,530.43,270.75Z" transform="translate(0 0)"/><path class="cls-6" d="M533.17,219.18c8.71,7.88,14,25.61,11.23,37.38l-17.2-15.34C529.2,233.85,531.18,226.52,533.17,219.18Z" transform="translate(0 0)"/><polygon class="cls-7" points="58.4 284.96 88.58 302.35 160.46 260.97 130.51 243.49 58.4 284.96"/><path class="cls-8" d="M133,120.14,65.8,158.82l22.78,13.11,48.15-39.23V122.32A2.52,2.52,0,0,0,133,120.14Z" transform="translate(0 0)"/><polygon class="cls-9" points="65.79 162.41 132.56 123.95 156.6 137.82 89.84 176.27 65.79 162.41"/><path class="cls-10" d="M158.43,133.65a2.76,2.76,0,0,0-2.91-.28L88.58,171.93,65.8,158.82,133,120.14a2.45,2.45,0,0,1,2.18-.15h0s-2.34-1.15-3.26-1.69a2.72,2.72,0,0,0-2.82-.21L58.4,158.78V277.49l26.47-15.25v30.54l72.24-41.62a4.32,4.32,0,0,0,2.19-3.77l2.25-112S159.45,134.3,158.43,133.65Z" transform="translate(0 0)"/><polygon class="cls-11" points="88.58 176.19 58.4 158.81 58.4 277.52 88.58 294.9 88.58 176.19"/><polygon class="cls-12" points="84.48 182.61 61.21 169.2 61.21 178.28 84.48 191.69 84.48 182.61"/><polygon class="cls-12" points="84.48 194.59 61.21 181.19 61.21 184.33 84.48 197.74 84.48 194.59"/><polygon class="cls-12" points="84.48 200.44 61.21 187.04 61.21 190.18 84.48 203.58 84.48 200.44"/><polygon class="cls-12" points="84.48 279.46 61.21 266.06 61.21 269.2 84.48 282.61 84.48 279.46"/><path class="cls-13" d="M159.23,135.5,88.58,176.19V294.9l72.25-41.61a4.36,4.36,0,0,0,2.18-3.78V137.68A2.52,2.52,0,0,0,159.23,135.5Z" transform="translate(0 0)"/><polygon class="cls-14" points="112.44 298.53 142.62 315.91 214.5 274.54 184.55 257.05 112.44 298.53"/><path class="cls-15" d="M187,128.86l-67.15,38.68,22.78,13.11,48.15-39.23V131A2.52,2.52,0,0,0,187,128.86Z" transform="translate(0 0)"/><polygon class="cls-16" points="119.83 171.14 186.6 132.67 210.64 146.54 143.88 184.99 119.83 171.14"/><path class="cls-17" d="M212.47,142.37a2.75,2.75,0,0,0-2.91-.27l-66.94,38.55-22.78-13.11L187,128.86a2.45,2.45,0,0,1,2.18-.14v0s-2.33-1.15-3.26-1.69a2.7,2.7,0,0,0-2.82-.2L112.44,167.5V286.21L138.91,271V301.5l72.25-41.61a4.36,4.36,0,0,0,2.18-3.78l2.26-112S213.49,143,212.47,142.37Z" transform="translate(0 0)"/><polygon class="cls-18" points="142.62 184.91 112.44 167.53 112.44 286.24 142.62 303.62 142.62 184.91"/><polygon class="cls-6" points="138.52 191.33 115.25 177.93 115.25 187 138.52 200.41 138.52 191.33"/><polygon class="cls-6" points="138.52 203.31 115.25 189.91 115.25 193.05 138.52 206.46 138.52 203.31"/><polygon class="cls-6" points="138.52 209.16 115.25 195.76 115.25 198.9 138.52 212.3 138.52 209.16"/><polygon class="cls-6" points="138.52 288.18 115.25 274.78 115.25 277.92 138.52 291.33 138.52 288.18"/><path class="cls-15" d="M213.27,144.22l-70.65,40.69V303.62L214.87,262a4.36,4.36,0,0,0,2.18-3.78V146.4A2.52,2.52,0,0,0,213.27,144.22Z" transform="translate(0 0)"/><polygon class="cls-19" points="0 344.36 65.21 382.52 78.94 373.87 13.73 335.71 0 344.36"/><polygon class="cls-18" points="78.94 311.99 78.94 366.31 65.21 374.93 65.21 320.64 78.94 311.99"/><polygon class="cls-17" points="0 282.49 65.21 320.64 78.94 311.99 13.73 273.83 0 282.49"/><polygon class="cls-15" points="65.22 374.93 0.01 336.78 0.01 282.49 65.22 320.64 65.22 374.93"/><polygon class="cls-18" points="0 282.49 32.61 328.71 65.21 320.64 0 282.49"/><path class="cls-8" d="M52.8,293v10.69a1.82,1.82,0,0,1-1.17,1.7,1.8,1.8,0,0,1-.62.13,1.71,1.71,0,0,1-1.78-1.73V293.13a2.83,2.83,0,0,0-1.4-2.46l-16.32-9.55a1.13,1.13,0,0,0-1.19,0,.84.84,0,0,0-.24.18l-.07.05a1.19,1.19,0,0,0-.28.81v8.08a1.86,1.86,0,0,1-1.12,1.67,1.69,1.69,0,0,1-.67.16,1.73,1.73,0,0,1-1.78-1.74v-8.08a4.76,4.76,0,0,1,2.43-4.19,3.89,3.89,0,0,1,1.16-.49,4.51,4.51,0,0,1,3.61.46l16.32,9.55A6.29,6.29,0,0,1,52.8,293Z" transform="translate(0 0)"/><polygon class="cls-20" points="36.3 326.69 36.3 332.24 35.07 333.01 35.07 327.47 36.3 326.69"/><polygon class="cls-21" points="28.41 323.58 35.07 327.47 36.3 326.69 29.65 322.81 28.41 323.58"/><polygon class="cls-12" points="35.07 333.01 28.41 329.12 28.41 323.58 35.07 327.47 35.07 333.01"/><path class="cls-22" d="M52.8,293v10.69a1.82,1.82,0,0,1-1.17,1.7V294.7c0-3.89-1.59-5.3-1.59-5.3L29.75,277.57a4.51,4.51,0,0,1,3.61.46l16.32,9.55A6.29,6.29,0,0,1,52.8,293Z" transform="translate(0 0)"/><path class="cls-22" d="M30,281.35a1.19,1.19,0,0,0-.28.81v8.08a1.86,1.86,0,0,1-1.12,1.67v-8.22A2.83,2.83,0,0,1,30,281.35Z" transform="translate(0 0)"/><path class="cls-23" d="M239,331,492.73,477.49,315.41,578.19a13.23,13.23,0,0,1-13.13-.05L65.09,441.2a6.62,6.62,0,0,1,0-11.49Z" transform="translate(0 0)"/><path class="cls-15" d="M498.68,247.26V436.92l-5.95,3.3L244.92,290.41l-3.28-189.86s4.08-2.22,5.57-3.09a5,5,0,0,1,5.07-.1L492.07,235.81A13.21,13.21,0,0,1,498.68,247.26Z" transform="translate(0 0)"/><path class="cls-16" d="M492.73,250.56V440.22L239,293.72V104.91a4.9,4.9,0,0,1,7.35-4.24l239.8,138.44A13.22,13.22,0,0,1,492.73,250.56Z" transform="translate(0 0)"/><polygon class="cls-13" points="480.39 247.47 480.39 420.73 246.32 285.9 246.32 112.64 480.39 247.47"/><polygon class="cls-9" points="445.17 238.07 445.17 256.29 312.6 179.93 312.6 161.71 445.17 238.07"/><polygon class="cls-8" points="316.25 176.85 316.25 168.77 441.51 240.92 441.51 249 316.25 176.85"/><path class="cls-24" d="M403.84,326.39l45.61,26.47c2.06,1.19,4.31.07,4.31-2.15V297.43a3.91,3.91,0,0,0-2-3.26l-45.61-26.46c-2.07-1.19-4.31-.07-4.31,2.15v53.28A3.86,3.86,0,0,0,403.84,326.39Z" transform="translate(0 0)"/><g class="cls-25"><line class="cls-26" x1="450.31" y1="303.69" x2="405.33" y2="277.69"/><line class="cls-26" x1="450.31" y1="309.31" x2="405.33" y2="283.31"/><line class="cls-26" x1="450.31" y1="314.93" x2="405.33" y2="288.92"/><line class="cls-26" x1="450.31" y1="320.54" x2="405.33" y2="294.54"/><line class="cls-26" x1="450.31" y1="326.16" x2="405.33" y2="300.16"/><line class="cls-26" x1="450.31" y1="331.78" x2="405.33" y2="305.78"/><line class="cls-26" x1="450.31" y1="337.4" x2="405.33" y2="311.39"/><line class="cls-26" x1="450.31" y1="343.01" x2="416.85" y2="323.67"/></g><path class="cls-15" d="M239,301,492.73,440.22v7.27L315.41,548.19a13.18,13.18,0,0,1-13.13-.05L65.09,411.2a6.55,6.55,0,0,1-3.31-5.7c0-2.25,0-7.33,0-7.33Z" transform="translate(0 0)"/><path class="cls-27" d="M239,293.72l253.76,146.5L315.41,540.92a13.21,13.21,0,0,1-13.13,0L65.09,403.93a6.62,6.62,0,0,1,0-11.49Z" transform="translate(0 0)"/><polygon class="cls-28" points="148.29 370.48 244.12 316.06 453.76 437.1 357.93 491.52 148.29 370.48"/><path class="cls-29" d="M369.05,405.08l-8.71-5,10.49-5.95,8.71,5Zm42.18,29.22L228.41,328.74l-10.49,6L400.75,440.25Zm-42.94-41.67-8.72-5-10.48,6,8.71,5ZM357,386.14l-8.71-5-10.48,5.95,8.71,5ZM255.76,327.67l-12.65-7.3-10.48,5.95,12.64,7.3ZM402,412.12l-8.71-5-10.48,6,8.71,5Zm11.26,6.5-8.72-5-10.48,6,8.71,5Zm-22.51-13-8.71-5-10.49,5.95,8.72,5Zm-112.53-65-8.71-5-10.48,5.95,8.71,5Zm11.26,6.5-8.72-5-10.48,5.95,8.71,5Zm56.26,32.48-8.71-5-10.49,5.95,8.72,5ZM258.3,329.13l-10.49,5.95,8.72,5,10.48-6Zm42.47,24.52-8.72-5-10.48,6,8.72,5Zm11.25,6.5-8.71-5-10.49,5.95,8.72,5Zm22.51,13-8.72-5-10.48,6,8.71,5Zm-11.26-6.49-8.71-5-10.48,5.95,8.71,5ZM426,425.93l-10.12-5.84-10.49,6,10.13,5.85Zm-73.8,42-10.26,5.82,17,9.84,10.49-6-17.48-10.09Zm-2.4-6.51,23.88,13.79,10.49-6-23.88-13.78ZM177.74,367l-8.16-4.72-10.49,6,8.17,4.71Zm179.9,82.13,30.71,17.73,10.48-5.95-30.71-17.73Zm-7.79,17.23-9.87-5.7-10.49,6,9.87,5.7ZM428.5,427.4l-10.48,6,14.45,8.35,10.48-6Zm-25.21,14.32,14.47,8.35,10.49-5.95-14.48-8.36Zm-23,3.6,22.75,13.13,10.48-5.95-22.75-13.13ZM201.8,392.86l10.48-5.95-32-18.48-10.48,6ZM224.56,394l-9.74-5.62-10.48,5.95,9.73,5.62Zm163.69,43.9L213.7,337.12l-10.48,5.95L377.77,443.85ZM357.71,454,184.28,353.88l-10.48,5.95L347.22,460Zm7.88-12.32L199,345.5l-10.48,5.95L355.1,447.64Zm-40.71,10.24-73.24-42.28-10.48,5.95,73.24,42.28Zm-88-50.84-9.74-5.62-10.48,6,9.74,5.62Zm100.61,58.09-10-5.79-10.48,6,10,5.78Zm-88.33-51-9.74-5.62-10.49,5.95,9.74,5.62Z" transform="translate(0 0)"/><path class="cls-30" d="M196.51,405.61l54.24,31.32a1.47,1.47,0,0,1,0,2.55l-30.07,17.08a4.45,4.45,0,0,1-4.41,0L162,425.23a1.47,1.47,0,0,1,0-2.55L192.1,405.6A4.45,4.45,0,0,1,196.51,405.61Z" transform="translate(0 0)"/><path class="cls-15" d="M250.75,438l-54.24-31.32a4.45,4.45,0,0,0-4.41,0L162,423.73a1.41,1.41,0,0,0-.64.75,1.45,1.45,0,0,1,.64-1.8L192.1,405.6a4.45,4.45,0,0,1,4.41,0l54.24,31.32a1.46,1.46,0,0,1,.63,1.8A1.39,1.39,0,0,0,250.75,438Z" transform="translate(0 0)"/><line class="cls-31" x1="363.36" y1="173.29" x2="378.9" y2="182.27"/><path class="cls-15" d="M386.27,185.66c.37.81,0,1.48-.82,1.48a2.6,2.6,0,0,1-2.13-1.48c-.37-.82,0-1.48.82-1.48A2.58,2.58,0,0,1,386.27,185.66Z" transform="translate(0 0)"/><polygon class="cls-32" points="395.05 224.3 437.92 242.86 437.92 254.4 437.92 408.95 302.14 488.98 264.12 442.82 395.05 224.3"/><path class="cls-15" d="M335.72,405l47.46,27.82.07-.6a10.49,10.49,0,0,1-4.34-8.64v-6.94c0-5-2.39-13.36-5.87-15.78a14.49,14.49,0,0,0-1.9-1.11l-.05,0a14.29,14.29,0,0,0-14.12,1C353.9,402.76,338.23,402.45,335.72,405Z" transform="translate(0 0)"/><path class="cls-6" d="M437.92,242.16,318.48,173.29l-22.88,13.1h0a14,14,0,0,0-7.33,12.32V337.82a24.79,24.79,0,0,1-3.06,11.87l-31-18a13.08,13.08,0,0,0-2.06-1.18l0,0a14.08,14.08,0,0,0-6.5-1.34,14.7,14.7,0,0,0-7.51,2.42,49.28,49.28,0,0,0-22.54,41.07V373a47.1,47.1,0,0,1-19.87,38.17l-28,19.94,118.85,69.13,28-19.94c12.42-8.86,20.33-23.58,19.87-38.17v-.36A48.44,48.44,0,0,1,340,419.32a49.71,49.71,0,0,1,17-18.65,14.26,14.26,0,0,1,14.12-1l.05,0a8.71,8.71,0,0,1,2,1.32c5.11,4.58,5.78,10.62,5.8,15.57v6.94a10.71,10.71,0,0,0,16.88,8.74h0c9.71-6.06,11.33-16.95,11.33-25.27V267.84a14.05,14.05,0,0,1,7.92-12.62v0Z" transform="translate(0 0)"/><path class="cls-33" d="M437.92,242.16,318.48,173.29l-22.88,13.1h0a14,14,0,0,0-7.33,12.32V337.82a24.79,24.79,0,0,1-3.06,11.87l-31-18a13.08,13.08,0,0,0-2.06-1.18l0,0a14.08,14.08,0,0,0-6.5-1.34,14.7,14.7,0,0,0-7.51,2.42,49.28,49.28,0,0,0-22.54,41.07V373a47.1,47.1,0,0,1-19.87,38.17l-28,19.94,118.85,69.13,28-19.94c12.42-8.86,20.33-23.58,19.87-38.17v-.36A48.44,48.44,0,0,1,340,419.32a49.71,49.71,0,0,1,17-18.65,14.26,14.26,0,0,1,14.12-1l.05,0a8.71,8.71,0,0,1,2,1.32c5.11,4.58,5.78,10.62,5.8,15.57v6.94a10.71,10.71,0,0,0,16.88,8.74h0c9.71-6.06,11.33-16.95,11.33-25.27V267.84a14.05,14.05,0,0,1,7.92-12.62v0Z" transform="translate(0 0)"/><path class="cls-6" d="M293.91,375.43l-5.44-3.16A10.7,10.7,0,0,0,293.91,375.43Z" transform="translate(0 0)"/><polygon class="cls-18" points="167.73 431.08 167.73 432.24 286.58 501.31 286.58 500.21 167.73 431.08"/><path class="cls-34" d="M376.74,390.19h0Z" transform="translate(0 0)"/><path class="cls-12" d="M365.2,303.74l37.06,21.5a.84.84,0,0,0,1.25-.74V279.93a2.22,2.22,0,0,0-1.08-1.91l-37.49-21.74a.67.67,0,0,0-1,.59v44.66A2.54,2.54,0,0,0,365.2,303.74Z" transform="translate(0 0)"/><path class="cls-35" d="M291.56,239l69.32,40.27a.38.38,0,0,0,.56-.33v-2.48a.67.67,0,0,0-.32-.56l-69.36-40.29a.38.38,0,0,0-.57.34v2.4A.74.74,0,0,0,291.56,239Z" transform="translate(0 0)"/><path class="cls-36" d="M291.56,231.76,360.88,272a.38.38,0,0,0,.56-.33v-2.48a.65.65,0,0,0-.32-.56l-69.36-40.3a.39.39,0,0,0-.57.34v2.41A.74.74,0,0,0,291.56,231.76Z" transform="translate(0 0)"/><path class="cls-37" d="M291.56,246.3l69.32,40.28a.38.38,0,0,0,.56-.33v-2.49a.67.67,0,0,0-.32-.56l-69.36-40.29a.38.38,0,0,0-.57.34v2.41A.73.73,0,0,0,291.56,246.3Z" transform="translate(0 0)"/><path class="cls-38" d="M291.56,253.58l69.32,40.27a.38.38,0,0,0,.56-.33V291a.67.67,0,0,0-.32-.56l-69.36-40.29a.39.39,0,0,0-.57.34v2.41A.76.76,0,0,0,291.56,253.58Z" transform="translate(0 0)"/><path class="cls-39" d="M291.56,260.85l69.32,40.27a.38.38,0,0,0,.56-.33V298.3a.64.64,0,0,0-.32-.55l-69.36-40.3a.39.39,0,0,0-.57.34v2.41A.76.76,0,0,0,291.56,260.85Z" transform="translate(0 0)"/><path class="cls-40" d="M361.12,346.67l-21-12.15a.32.32,0,0,0-.47.28v2.5a.81.81,0,0,0,.41.7l20.78,12.05a.38.38,0,0,0,.56-.34v-2.48A.66.66,0,0,0,361.12,346.67Z" transform="translate(0 0)"/><path class="cls-41" d="M291.19,306.72v2.41a.77.77,0,0,0,.36.65l44.65,26a.39.39,0,0,0,.58-.34V333a.79.79,0,0,0-.39-.69l-44.62-26A.39.39,0,0,0,291.19,306.72Z" transform="translate(0 0)"/><path class="cls-42" d="M291.56,302.5l74,43a.38.38,0,0,0,.56-.33v-2.49a.65.65,0,0,0-.32-.56l-74.05-43a.38.38,0,0,0-.57.34v2.41A.74.74,0,0,0,291.56,302.5Z" transform="translate(0 0)"/><path class="cls-43" d="M291.56,295.23l69.32,40.27a.38.38,0,0,0,.56-.33v-2.48a.66.66,0,0,0-.32-.56l-69.36-40.29a.38.38,0,0,0-.57.34v2.4A.74.74,0,0,0,291.56,295.23Z" transform="translate(0 0)"/><path class="cls-44" d="M291.56,288l69.32,40.27a.38.38,0,0,0,.56-.33v-2.49a.64.64,0,0,0-.32-.55l-69.36-40.3a.39.39,0,0,0-.57.34v2.41A.74.74,0,0,0,291.56,288Z" transform="translate(0 0)"/><path class="cls-45" d="M291.56,337.79l69.32,40.27a.38.38,0,0,0,.56-.33v-2.48a.65.65,0,0,0-.32-.56l-69.36-40.3a.39.39,0,0,0-.57.34v2.41A.74.74,0,0,0,291.56,337.79Z" transform="translate(0 0)"/><path class="cls-46" d="M291.11,344.38,372,391.18c.3.18.39,0,.43-.14h0c0-.55.06-1.12.06-1.69v-.95a.73.73,0,0,0-.24-.58l0,0L291.38,341a.36.36,0,0,0-.53.3c-.06.65-.14,1.31-.25,1.95A1.1,1.1,0,0,0,291.11,344.38Z" transform="translate(0 0)"/><path class="cls-47" d="M289.35,349.88l81.14,47a.61.61,0,0,0,.88-.36c.18-.58.34-1.18.48-1.78a.73.73,0,0,0-.35-.8l-81.25-47a.41.41,0,0,0-.6.24c-.19.57-.4,1.14-.63,1.69A.82.82,0,0,0,289.35,349.88Z" transform="translate(0 0)"/><path class="cls-48" d="M291.56,330.52l69.32,40.27a.38.38,0,0,0,.56-.33V368a.64.64,0,0,0-.32-.55l-69.36-40.3a.39.39,0,0,0-.57.34v2.41A.76.76,0,0,0,291.56,330.52Z" transform="translate(0 0)"/><path class="cls-49" d="M291.56,323.25l69.32,40.27a.38.38,0,0,0,.56-.33V360.7a.67.67,0,0,0-.32-.56l-69.36-40.29a.39.39,0,0,0-.57.34v2.41A.76.76,0,0,0,291.56,323.25Z" transform="translate(0 0)"/><path class="cls-50" d="M361.12,352.87l-28.59-16.56a.26.26,0,0,0-.38.22v2.77a.51.51,0,0,0,.25.44l28.47,16.5a.37.37,0,0,0,.56-.32v-2.49A.64.64,0,0,0,361.12,352.87Z" transform="translate(0 0)"/><path class="cls-51" d="M291.19,312.92v2.41a.75.75,0,0,0,.36.64l37.22,21.67a.32.32,0,0,0,.47-.28v-2.65a.55.55,0,0,0-.26-.47l-37.21-21.66A.39.39,0,0,0,291.19,312.92Z" transform="translate(0 0)"/><path class="cls-52" d="M368.69,354.48,402.22,374a.37.37,0,0,0,.55-.33v-2.49a.63.63,0,0,0-.31-.55L368.9,351.08a.4.4,0,0,0-.58.34v2.41A.74.74,0,0,0,368.69,354.48Z" transform="translate(0 0)"/><path class="cls-53" d="M368.69,347.21l33.53,19.48a.37.37,0,0,0,.55-.33v-2.49a.63.63,0,0,0-.31-.55L368.9,343.81a.4.4,0,0,0-.58.34v2.41A.76.76,0,0,0,368.69,347.21Z" transform="translate(0 0)"/><path class="cls-54" d="M368.69,340.79l33.53,19.49a.38.38,0,0,0,.55-.34V348.21a.66.66,0,0,0-.31-.56l-33.56-19.5a.39.39,0,0,0-.58.34v11.66A.74.74,0,0,0,368.69,340.79Z" transform="translate(0 0)"/><path class="cls-55" d="M368.69,382.49l28.93,16.84a.38.38,0,0,0,.56-.33v-2.49a.63.63,0,0,0-.31-.55l-29-16.86a.39.39,0,0,0-.58.34v2.41A.73.73,0,0,0,368.69,382.49Z" transform="translate(0 0)"/><path class="cls-56" d="M368.69,375.22l33.53,19.48a.37.37,0,0,0,.55-.33v-2.48a.65.65,0,0,0-.31-.56l-33.56-19.5a.39.39,0,0,0-.58.34v2.4A.74.74,0,0,0,368.69,375.22Z" transform="translate(0 0)"/><path class="cls-57" d="M368.69,368l33.53,19.48a.37.37,0,0,0,.55-.33v-2.48a.64.64,0,0,0-.31-.56L368.9,364.55a.4.4,0,0,0-.58.34v2.41A.74.74,0,0,0,368.69,368Z" transform="translate(0 0)"/><path class="cls-58" d="M368.69,360.68l33.53,19.48a.37.37,0,0,0,.55-.33v-2.49a.63.63,0,0,0-.31-.55L368.9,357.28a.4.4,0,0,0-.58.34V360A.76.76,0,0,0,368.69,360.68Z" transform="translate(0 0)"/><path class="cls-59" d="M291.19,269.53v2.41a.75.75,0,0,0,.36.64l61.81,36a.5.5,0,0,0,.74-.44V306a.87.87,0,0,0-.44-.77l-61.89-36.06A.39.39,0,0,0,291.19,269.53Z" transform="translate(0 0)"/><path class="cls-60" d="M291.56,280.53,403,345.37a.38.38,0,0,0,.56-.33v-2.49a.62.62,0,0,0-.32-.55L291.76,277.13a.39.39,0,0,0-.57.34v2.41A.76.76,0,0,0,291.56,280.53Z" transform="translate(0 0)"/><path class="cls-61" d="M373.35,401.21c3.25,2.44,5.54,10.58,5.56,15.35v4.12a.46.46,0,0,0,.24.42l13.41,7.75a.54.54,0,0,0,.55,0,25.44,25.44,0,0,0,5.31-5,23.79,23.79,0,0,0,1.58-2.19l0,0c3-5.08,3.09-16.37,2.41-16.76l-24.89-14.43a1.42,1.42,0,0,0-.71-.24c-.3,0-.61.12-.68.94,0,0,0,.08,0,.11v0A25.33,25.33,0,0,1,373.35,401.21Z" transform="translate(0 0)"/><path class="cls-62" d="M378.91,422.89v.6a11,11,0,0,0,.12,1.65l8.67,4.91a3.39,3.39,0,0,0,3,.12c.18-.07.36-.16.54-.25Z" transform="translate(0 0)"/><path class="cls-63" d="M285.21,399l45.55,26.57a1.6,1.6,0,0,0,2.3-.94A49.34,49.34,0,0,1,353.65,397a14.63,14.63,0,0,1,3.81-1.79.84.84,0,0,0,.19-1.51l-7.23-4.23L325.5,375l-12.7-7.41a4.49,4.49,0,0,0-3.23-.54,14.89,14.89,0,0,0-4.86,2.07,49.91,49.91,0,0,0-17,18.66,48.63,48.63,0,0,0-3.52,8.67A2.24,2.24,0,0,0,285.21,399Z" transform="translate(0 0)"/><path class="cls-64" d="M242.71,334.45l43,25.07,14,8.13a.82.82,0,0,0,.84,0c.26-.19.54-.36.81-.54a11.45,11.45,0,0,1,1.39-.79l.06,0c.19-.11.06-.24,0-.28l0,0-17.2-10L246,332.83a14.17,14.17,0,0,0-3.12,1.55Z" transform="translate(0 0)"/><path class="cls-65" d="M237.71,338.2a.43.43,0,0,0,0,.7l48.1,28,8.4,4.88a.86.86,0,0,0,1-.11c.33-.3.67-.59,1-.88a.85.85,0,0,0-.08-1.39l-10.48-6.1-45.46-26.5a.86.86,0,0,0-1,.07C238.75,337.32,238.22,337.75,237.71,338.2Z" transform="translate(0 0)"/><path class="cls-66" d="M233.51,343.77l56.1,32.68a1,1,0,0,0,1.21-.23c.31-.36.63-.71.95-1.07a.68.68,0,0,0-.13-1l-3.17-1.83-53.06-30.92a1.05,1.05,0,0,0-1.26.18c-.28.28-.55.58-.83.87A.89.89,0,0,0,233.51,343.77Z" transform="translate(0 0)"/><path class="cls-67" d="M229.3,348.63l56.42,32.89a1,1,0,0,0,1.31-.33c.23-.35.47-.69.71-1a.77.77,0,0,0-.21-1.12L231.2,346.23a1,1,0,0,0-1.27.28q-.44.57-.84,1.17A.66.66,0,0,0,229.3,348.63Z" transform="translate(0 0)"/><path class="cls-68" d="M225.85,354s0,0,0,0L282.64,387a.89.89,0,0,0,1.23-.4l.47-.91.21-.4a.59.59,0,0,0-.14-.78l-.05,0-57.09-33.24a.38.38,0,0,0-.53.13c-.37.62-.73,1.26-1.05,1.9,0,0,0,0,0,.05A.5.5,0,0,0,225.85,354Z" transform="translate(0 0)"/><path class="cls-69" d="M223.24,359.77l57.53,33.51a.32.32,0,0,0,.46-.18q.36-1.12.78-2.22a.38.38,0,0,0-.16-.48L224.46,357a.38.38,0,0,0-.53.19q-.45,1.08-.84,2.19A.36.36,0,0,0,223.24,359.77Z" transform="translate(0 0)"/><path class="cls-70" d="M220.6,370.05a1,1,0,0,0,.49,1L330.6,434.71a.38.38,0,0,0,.56-.33v-2.49a.62.62,0,0,0-.32-.55L221.57,367.79a.49.49,0,0,0-.71.35C220.76,368.77,220.67,369.41,220.6,370.05Z" transform="translate(0 0)"/><path class="cls-71" d="M220.19,378.8a.78.78,0,0,0,.39.74l110,64a.35.35,0,0,0,.2.05.39.39,0,0,0,.36-.38v-2.49a.6.6,0,0,0-.1-.32.54.54,0,0,0-.22-.23L221,376.25a.44.44,0,0,0-.66.39C220.28,377.36,220.24,378.08,220.19,378.8Z" transform="translate(0 0)"/><path class="cls-72" d="M219,386.72a.85.85,0,0,0,.38.95L328.61,451.2a.49.49,0,0,0,.71-.29c.19-.66.37-1.32.52-2a.64.64,0,0,0-.29-.7L220.11,384.59a.51.51,0,0,0-.74.36C219.25,385.54,219.11,386.13,219,386.72Z" transform="translate(0 0)"/><path class="cls-73" d="M216.56,393.93a.87.87,0,0,0,.35,1.13l109,63.37a.48.48,0,0,0,.67-.21c.29-.58.55-1.18.81-1.77a.66.66,0,0,0-.27-.83L218,392.17a.58.58,0,0,0-.82.31C217,393,216.76,393.45,216.56,393.93Z" transform="translate(0 0)"/><path class="cls-74" d="M212.9,400.85a.56.56,0,0,0,.18.8L322,465a.51.51,0,0,0,.66-.17c.38-.54.76-1.1,1.12-1.66a.52.52,0,0,0-.16-.74L214.7,399.09a.63.63,0,0,0-.87.24C213.53,399.84,213.22,400.35,212.9,400.85Z" transform="translate(0 0)"/><path class="cls-75" d="M208.28,406.94a.54.54,0,0,0,.11.83L317.05,471a.55.55,0,0,0,.65-.1l1.41-1.5a.53.53,0,0,0-.12-.81L210.41,405.41a.78.78,0,0,0-1,.19C209.06,406.05,208.67,406.5,208.28,406.94Z" transform="translate(0 0)"/><path class="cls-76" d="M260.26,445.83a.58.58,0,0,0,.05,1l50.63,29.43a.56.56,0,0,0,.61,0c.61-.45,1.2-.89,1.79-1.36a.45.45,0,0,0,0-.75l-50.71-29.47a.83.83,0,0,0-1,.11C261.16,445.1,260.71,445.47,260.26,445.83Z" transform="translate(0 0)"/><path class="cls-15" d="M415.05,255.26a14,14,0,0,0-7.92,12.58V407c0,13-4.28,20.6-11.34,25.27a10.71,10.71,0,0,1-16.88-8.74v-6.93c0-4.69-.59-9.68-3.78-13.36a13.5,13.5,0,0,0-11.21-4.74c-3.66.35-7,2.22-10,4.41a47.28,47.28,0,0,0-18,27.74c-2,9-1.25,18.57-4.24,27.3-3.43,10-11.35,17.79-19.77,24.17-5.19,3.93-25.37,18.14-25.37,18.14l.08.91s16.49-11.47,24.6-17.41,16.39-13.66,20.36-22.9c5-11.59,3-24.44,7-36.39a43.42,43.42,0,0,1,17.56-21.93c3.59-2.33,7.55-4.29,11.68-3.18,3.5.94,6.18,3.86,7.71,7.13,2.26,4.83,2.45,9.92,2.54,15.11.07,4,.55,8.07,4,10.65,6.25,4.67,10.71,2.6,13.83,1,1-.52,4.19-2.15,8-8.17,4.48-7.12,3.9-19.57,3.9-19.57s.21-136,.21-137.72c0-1.53.54-8.33,7-11.63l22.87-13.21v-.72Z" transform="translate(0 0)"/><text class="cls-77" transform="matrix(1, 0.58, 0, 1, 295.33, 223.34)">P<tspan class="cls-78" x="7.76" y="0">R</tspan><tspan class="cls-79" x="15.67" y="0">OFILE</tspan></text><path class="cls-6" d="M376.81,279.13c0,3.4,2.75,7.73,6.15,9.69s6.15.78,6.15-2.61-2.76-7.74-6.15-9.69S376.81,275.74,376.81,279.13Z" transform="translate(0 0)"/><path class="cls-6" d="M369,296.21l27.83,16c0-7.67-6.23-17.43-13.92-21.86-3.83-2.2-7.31-2.65-9.84-1.58S369,292.38,369,296.21Z" transform="translate(0 0)"/><polygon class="cls-12" points="369.37 309.46 370.69 312.89 373.64 315.02 371.5 315.87 372.01 319.1 369.37 316.19 366.73 316.05 367.24 313.41 365.1 310.1 368.05 311.37 369.37 309.46"/><polygon class="cls-12" points="380.83 316.11 382.14 319.54 385.09 321.67 382.96 322.52 383.46 325.75 380.83 322.84 378.19 322.7 378.69 320.05 376.56 316.74 379.51 318.01 380.83 316.11"/><polygon class="cls-12" points="392.28 322.75 393.6 326.18 396.55 328.31 394.41 329.16 394.92 332.39 392.28 329.48 389.64 329.35 390.15 326.7 388.01 323.39 390.96 324.66 392.28 322.75"/><g class="cls-80"><path class="cls-81" d="M336.05,121.38a2.52,2.52,0,0,1-.85-.32l-50.4-29a3.92,3.92,0,0,1-2-3.31V43.62a1.9,1.9,0,0,1,1-1.75A2.31,2.31,0,0,1,286,42l50.32,29a3.9,3.9,0,0,1,2,3.3V119.5a1.87,1.87,0,0,1-1,1.71A2.11,2.11,0,0,1,336.05,121.38Z" transform="translate(0 0)"/></g><polygon class="cls-12" points="309.65 67.47 313.5 77.49 322.11 83.71 315.88 86.19 317.35 95.61 309.65 87.11 301.95 86.72 303.42 78.99 297.19 69.33 305.8 73.05 309.65 67.47"/><path class="cls-82" d="M467.41,189.46c1.29,2.92,0,5.28-2.93,5.28s-6.33-2.36-7.62-5.28,0-5.27,2.92-5.27S466.11,186.55,467.41,189.46Z" transform="translate(0 0)"/><path class="cls-82" d="M563.48,423.12c1.3,2.91,0,5.27-2.92,5.27s-6.33-2.36-7.63-5.27,0-5.27,2.93-5.27S562.19,420.21,563.48,423.12Z" transform="translate(0 0)"/><path class="cls-82" d="M221.89,105.4c1.29,2.92,0,5.28-2.93,5.28s-6.33-2.36-7.62-5.28,0-5.27,2.92-5.27S220.59,102.49,221.89,105.4Z" transform="translate(0 0)"/><line class="cls-83" x1="360.34" y1="100.59" x2="360.34" y2="110.22"/><line class="cls-83" x1="364.86" y1="107.71" x2="355.82" y2="102.51"/><line class="cls-83" x1="507.89" y1="149.76" x2="507.89" y2="159.4"/><line class="cls-83" x1="512.41" y1="156.89" x2="503.37" y2="151.69"/><line class="cls-83" x1="251.48" y1="63.44" x2="251.48" y2="73.08"/><line class="cls-83" x1="256" y1="70.57" x2="246.96" y2="65.37"/><line class="cls-83" x1="594.52" y1="402.57" x2="594.52" y2="412.21"/><line class="cls-83" x1="599.04" y1="409.7" x2="590" y2="404.5"/><line class="cls-83" x1="551.64" y1="326.16" x2="551.64" y2="335.8"/><line class="cls-83" x1="556.16" y1="333.29" x2="547.12" y2="328.09"/><path class="cls-84" d="M538.39,506.17l92,53.1a5.44,5.44,0,0,1,0,9.41L494.3,647.24a16.16,16.16,0,0,1-16.05,0l-92.81-52.7a5.42,5.42,0,0,1,0-9.42l136.83-79A16.13,16.13,0,0,1,538.39,506.17Z" transform="translate(0 0)"/><path class="cls-15" d="M538.4,481.54l94.7,54.09v3.71a5.41,5.41,0,0,1-2.71,4.71L494.31,622.61a16.16,16.16,0,0,1-16.05,0L385.45,570a5.39,5.39,0,0,1-2.75-4.58c0-1.88,0-3.82,0-3.82l139.55-80A16.13,16.13,0,0,1,538.4,481.54Z" transform="translate(0 0)"/><path class="cls-16" d="M538.39,477.82l92,53.11a5.43,5.43,0,0,1,0,9.4L494.3,618.89a16.13,16.13,0,0,1-16.05.06l-92.81-52.71a5.42,5.42,0,0,1,0-9.42l136.83-79A16.17,16.17,0,0,1,538.39,477.82Z" transform="translate(0 0)"/><polygon class="cls-13" points="527.37 485.49 616.09 536.72 491.27 608.78 401.81 557.98 527.37 485.49"/><ellipse class="cls-85" cx="495.48" cy="555.42" rx="29.88" ry="52.81" transform="translate(-123.86 968.22) rotate(-81.95)"/><path class="cls-86" d="M476.6,536.54c16.45-4.41,38.23.47,48.66,10.9s5.54,22.45-10.9,26.85-38.23-.47-48.66-10.89S460.16,541,476.6,536.54Z" transform="translate(0 0)"/><path class="cls-87" d="M483.65,543.59c10.3-2.76,24,.3,30.49,6.83s3.47,14.06-6.83,16.83-24-.3-30.49-6.83S473.35,546.35,483.65,543.59Z" transform="translate(0 0)"/><polygon class="cls-12" points="485.68 545.68 494.99 550.03 503.61 547.88 502.63 554.54 510.4 560.3 500.48 560.08 496.67 565.79 491.52 558.99 481.39 556.76 488.13 552.77 485.68 545.68"/><path class="cls-88" d="M431.16,595.92v-3.71l20.42-12.56a2.61,2.61,0,0,0,.58-.37,3.52,3.52,0,0,0,1.13-1.54,5.15,5.15,0,0,0,.26-2.14l6.86-4.27.34-.21a1.76,1.76,0,0,0,.26-.28,36.62,36.62,0,0,0,15.07,2.59c13.17-.39,23.72-6.79,24.1-14.44v-.67l-.14-4.26v-.18c-.38-7.88-11.48-13.9-24.92-13.5s-24.32,7.16-24.09,15.09l.13,4.29c.09,3,1.74,5.76,4.5,8L450.47,571a3.7,3.7,0,0,0-2-.39,3.55,3.55,0,0,0-1.05.28l-.17.09-.21.14a.18.18,0,0,0-.07,0s0,0-.08.06l-25.3,15.55v3.72Z" transform="translate(0 0)"/><path class="cls-15" d="M448.28,543.38a9.79,9.79,0,0,0,.35,2.23c2.06,7.16,12.82,12.37,25.64,12s23.25-6.22,24.88-13.48c.16-.74.22-6.83.22-6.83s-6.71-13.35-26-13.08c-11.66.16-25.1,14.59-25.1,14.59S448.24,541.94,448.28,543.38Zm4.06-.12a8.41,8.41,0,0,1,1.68-5.14c3.2-4.52,10.66-7.83,19.43-8.09s16.42,2.61,19.88,6.93a8.4,8.4,0,0,1,2,5c.2,7-9.25,9.66-21.11,10S452.55,550.22,452.34,543.26Z" transform="translate(0 0)"/><path class="cls-89" d="M451.36,538.81c.21,7.1,10.39,12.56,22.75,12.2s22.21-6.42,22-13.52-10.39-12.56-22.75-12.2S451.15,531.71,451.36,538.81Z" transform="translate(0 0)"/><path class="cls-90" d="M460.87,527.78c22.28.49,29,11.46,30.85,17.66,2.84-2.25,4.48-5,4.4-8-.22-7.1-10.34-12.31-22.7-12A36.9,36.9,0,0,0,460.87,527.78Z" transform="translate(0 0)"/><path class="cls-91" d="M453.57,539.08c.18,6.29,9.2,11.12,20.14,10.8s19.66-5.68,19.47-12a4.9,4.9,0,0,0,0-.54c-.61,5.9-9,10.76-19.43,11.07-10.61.32-19.41-4.22-20.1-10.22A4.91,4.91,0,0,0,453.57,539.08Z" transform="translate(0 0)"/><path class="cls-15" d="M450.54,534.38l5.8-6,16.72-4.14L490,527.36l6.14,5.68,1.59,3.53-2.42.85s-2.86-11.5-22.18-10.93-21.5,12.22-21.5,12.22l-2.47-.71Z" transform="translate(0 0)"/><path class="cls-92" d="M448.28,538.81a9.87,9.87,0,0,0,.35,2.23c2.06,7.15,12.82,12.37,25.64,12s23.25-6.21,24.88-13.48a9.44,9.44,0,0,0,.22-2.25c-.25-8.27-11.88-14.64-26-14.23S448,530.53,448.28,538.81Zm4.06-.12a8.44,8.44,0,0,1,1.68-5.15c3.2-4.52,10.66-7.83,19.43-8.09s16.42,2.61,19.88,6.94a8.37,8.37,0,0,1,2,5c.2,7-9.25,12.88-21.11,13.23S452.55,545.64,452.34,538.69Z" transform="translate(0 0)"/><path class="cls-6" d="M448.28,538.81a9.87,9.87,0,0,0,.35,2.23c2.06,7.15,12.82,12.37,25.64,12s23.25-6.21,24.88-13.48a9.44,9.44,0,0,0,.22-2.25c-.25-8.27-11.88-14.64-26-14.23S448,530.53,448.28,538.81Zm4.06-.12a8.44,8.44,0,0,1,1.68-5.15c3.2-4.52,10.66-7.83,19.43-8.09s16.42,2.61,19.88,6.94a8.37,8.37,0,0,1,2,5c.2,7-9.25,12.88-21.11,13.23S452.55,545.64,452.34,538.69Z" transform="translate(0 0)"/><path class="cls-93" d="M445.22,556.52l.49.72h0l2.19,3.24.57.84,9.59-6h0a1.52,1.52,0,0,0,.34-.22,2.08,2.08,0,0,0,.67-.92,2.68,2.68,0,0,0,.15-.59h0a3.43,3.43,0,0,0-.32-1.9,3.25,3.25,0,0,0-1.64-1.63,2.3,2.3,0,0,0-1.09-.16,1.63,1.63,0,0,0-.62.17l-.11,0-.13.08,0,0Z" transform="translate(0 0)"/><path class="cls-6" d="M445.22,556.52l.49.72h0l11.56-7.17a2.3,2.3,0,0,0-1.09-.16,1.63,1.63,0,0,0-.62.17l-.11,0-.13.08,0,0Z" transform="translate(0 0)"/><path class="cls-15" d="M447.9,560.48l.57.84,9.59-6h0a1.52,1.52,0,0,0,.34-.22,2.08,2.08,0,0,0,.67-.92,2.68,2.68,0,0,0,.15-.59Z" transform="translate(0 0)"/><path class="cls-94" d="M414.67,573.28l1.39,2.46,3.59,6.31,29.21-18h0a3.47,3.47,0,0,0,.61-.38,3.75,3.75,0,0,0,1.16-1.6,5.62,5.62,0,0,0-.3-4.35,6,6,0,0,0-1-1.48h0a4.54,4.54,0,0,0-3.77-1.63,3,3,0,0,0-1.08.3.51.51,0,0,0-.18.09l-.23.14-.08,0-.06,0Z" transform="translate(0 0)"/><path class="cls-95" d="M414.67,573.28l1.39,2.46,3.52-1.06,29.78-18.48h0a4.54,4.54,0,0,0-3.77-1.63,3,3,0,0,0-1.08.3.51.51,0,0,0-.18.09l-.23.14-.08,0-.06,0Z" transform="translate(0 0)"/><path class="cls-96" d="M413.19,579.61c1.21,2.52,3.82,3.79,5.84,2.83h0a4.17,4.17,0,0,0,.61-.38,3.72,3.72,0,0,0,1.16-1.61,5.59,5.59,0,0,0-.29-4.34,5,5,0,0,0-4.77-3.13,3.41,3.41,0,0,0-1.08.3,1,1,0,0,0-.18.1l-.23.14-.08.05C412.55,574.73,412.09,577.3,413.19,579.61Z" transform="translate(0 0)"/><path class="cls-6" d="M499.37,514.6l29.1,16.74c9.25-7.08,7.69-12.64,1.42-16.94C520,507.62,508.64,509.22,499.37,514.6Z" transform="translate(0 0)"/><g class="cls-97"><path class="cls-15" d="M560.47,550.16A.92.92,0,0,1,560,550l-28.57-16.66a.89.89,0,0,1,.89-1.55l28.57,16.66a.89.89,0,0,1-.44,1.67Z" transform="translate(0 0)"/><path class="cls-15" d="M563.74,548.28a.92.92,0,0,1-.45-.12L534.72,531.5a.89.89,0,0,1,.89-1.54l28.58,16.66a.89.89,0,0,1-.45,1.66Z" transform="translate(0 0)"/><path class="cls-15" d="M567,546.41a.92.92,0,0,1-.45-.12L538,529.63a.9.9,0,0,1,.9-1.55l28.57,16.66a.89.89,0,0,1,.32,1.22A.87.87,0,0,1,567,546.41Z" transform="translate(0 0)"/><path class="cls-15" d="M570.28,544.53a1,1,0,0,1-.45-.12l-28.57-16.66a.89.89,0,1,1,.9-1.54l28.57,16.66a.89.89,0,0,1-.45,1.66Z" transform="translate(0 0)"/><path class="cls-15" d="M573.55,542.66a.88.88,0,0,1-.44-.12l-28.57-16.66a.89.89,0,1,1,.89-1.55L574,541a.89.89,0,0,1-.45,1.67Z" transform="translate(0 0)"/></g><path class="cls-6" d="M540.78,502.48a10.69,10.69,0,0,0-11.53,1.84c-2.72,2.77-2,6.45,1.67,8.21a10.68,10.68,0,0,0,11.53-1.84C545.17,507.92,544.43,504.24,540.78,502.48Z" transform="translate(0 0)"/><polygon class="cls-21" points="530.88 375.67 530.88 433.77 526.94 435.91 472.81 395.2 464.36 341.75 468.29 339.62 530.88 375.67"/><polygon class="cls-20" points="530.88 375.67 530.88 433.77 526.94 435.91 472.81 395.2 526.94 377.8 530.88 375.67"/><polygon class="cls-12" points="526.94 377.8 526.94 435.91 464.36 399.86 464.36 341.75 526.94 377.8"/><polygon class="cls-6" points="472.13 360.89 472.13 365.73 494.75 391.09 517.42 391.63 517.42 386.81 472.13 360.89"/><polygon class="cls-6" points="494.75 393.9 472.13 368.55 472.13 393.32 517.42 419.24 517.42 394.44 494.75 393.9"/><polygon class="cls-21" points="253.24 187.32 253.24 228.24 248.88 230.66 210.76 201.99 204.81 164.35 209.16 161.93 253.24 187.32"/><polygon class="cls-20" points="253.24 187.32 253.24 228.24 248.88 230.66 210.76 201.99 248.88 189.74 253.24 187.32"/><polygon class="cls-12" points="248.88 189.74 248.88 230.66 204.81 205.27 204.81 164.35 248.88 189.74"/><polyline class="cls-98" points="215.88 193.12 221.85 204.93 239.03 192.35"/><path class="cls-99" d="M128.21,446.34s5.28,1,6.44.06,6.23-5.77,6.93-6.48,10.72-3.15,11.56-3.15,4.43.39,4.36.9-6.34,6.41-7.05,7-3,2.46-3.35,3.61-3.64,5.05-6,5.19a18,18,0,0,1-2.91-.16L126.45,455" transform="translate(0 0)"/><path class="cls-100" d="M162.59,428.19s-2.43,2.52-3.52,2.85a8.24,8.24,0,0,1-1.86.33c-1.07.16-6,1-8.18,2.36a21.76,21.76,0,0,0-4.81,5.58.59.59,0,0,0-.08.34.53.53,0,0,0,.2.33c1.14,1,2.67-.08,3.52-.93.47-.48,2.09-1.81,2.32-1.44.28,2.05-1.43,6.16-2.64,7.52-1.64,1.85-6.23,3.89-5.43,4.79.31.36,1.23.63,3,.23,2.08,0,4.88,0,6.67-1.16,2.16-1.35,3.51-3.28,5.08-5,1.09-1.22,2-2.83,3.51-4.37a57,57,0,0,1,5.65-3.71Z" transform="translate(0 0)"/><path class="cls-6" d="M172.9,330.12c-10.11.92-12.94,5.95-14.69,9.61-3.51,7.31-1.79,17.69-1.66,21.91.44,15,1.93,30,3.41,44.95l2.85,28.66a5,5,0,0,0,.41,1.79c.88,1.67,3.44,1.71,4.92.54s2.13-3.07,2.69-4.87c2.38-7.77,4.28-15.84,3.76-23.95-.53-8.44-3.64-16.48-5.08-24.81-1.89-11-.9-22.43-4.19-33.06" transform="translate(0 0)"/><path class="cls-101" d="M170,358.2c.54,2.53-9.58-2.54-9.12,0,.4,2.21,2.28,31.39,2.67,34.95.66,5.91-1.46,13.73-1,19.66a43.84,43.84,0,0,0,1.74,9.86c.4,1.22,1,2.53,2.21,3a3.2,3.2,0,0,0,1.84,0c2.54-.67,4-3.25,5.19-5.6" transform="translate(0 0)"/><path class="cls-102" d="M231.76,572.11c-6.75-14-22.58-22.46-36.23-28.39a76.74,76.74,0,0,0-20.86-5.37c-7-.89-14.68-1-20.54,3s-8.4,13.31-3.32,18.24c2.31,2.25,5.59,3.12,8.4,4.68,5.58,3.11,9.13,8.78,12.92,13.92,5.31,7.19,11.63,13.79,19.35,18.3s17,6.8,25.74,5.13c5.6-1.06,11.08-3.88,14.22-8.64C235.45,586.92,234.92,578.67,231.76,572.11Z" transform="translate(0 0)"/><path class="cls-103" d="M220.78,562.35s-.72,2.86-1.13,5.27-.54,5.5-.82,8a34.33,34.33,0,0,1-3.74,10.14,9.9,9.9,0,0,1-5.33,3.8,17.15,17.15,0,0,1-8.21-.17,4,4,0,0,1-2.1-2.1" transform="translate(0 0)"/><path class="cls-103" d="M158,553.05c0,1.58,2.36,2.69,4.79,2.89a24.53,24.53,0,0,0,7.86-1.1,39.08,39.08,0,0,0,6.09-2.31,7.91,7.91,0,0,1,4.48-.39s0,.26,0,.56a20.61,20.61,0,0,0,10.92-1.83s0,0,0,0,.05-1.26,0-2.33c-.05-.92-.22-2.28-.22-2.28L158,551.91Z" transform="translate(0 0)"/><path class="cls-104" d="M198.49,584.62c0,.3.09.6.14.88a4.24,4.24,0,0,0,2.92,3.43c3.19,1.09,9.08.52,12-2.64s5-11.28,5-16.13a21.63,21.63,0,0,1,2.54-9.35H207.84a2.66,2.66,0,0,0-.31.43c-2.28,3.19-8.21,15.31-8.79,19.22A18.65,18.65,0,0,0,198.49,584.62Z" transform="translate(0 0)"/><path class="cls-105" d="M198.49,584.62a.66.66,0,0,0,.14-.33c.57-3.15,3.6-9.23,5.2-12.43s4.59-9,4.59-9-.4-.69-.89-1.58c-2.28,3.19-8.21,15.31-8.79,19.22A18.65,18.65,0,0,0,198.49,584.62Z" transform="translate(0 0)"/><path class="cls-106" d="M198.62,585.49a4.28,4.28,0,0,0,2.93,3.44c3.18,1.09,9.08.51,12-2.65s5-11.28,5-16.13a21.63,21.63,0,0,1,2.54-9.35h-5.37l-.43,2.79s-.14,11.28-2.82,16.86-7.58,6.74-9.71,6.61-3.49-.43-4.08-1.55A0,0,0,0,0,198.62,585.49Z" transform="translate(0 0)"/><path class="cls-104" d="M158,552.52a2.07,2.07,0,0,0,1.19,1.7c2.21,1,6.85.68,9.68,0s8.07-3.17,10.85-3.47,8.17-.78,9.53-1.16a3.83,3.83,0,0,0,3.07-3.74,8.41,8.41,0,0,0-1-4.78l-2.18.14-12.84.82-.3,0-6.56,2.34c-2.1.73-6.47,1.41-9.35,4.08a9.91,9.91,0,0,0-1.15,1.29l0,0A4,4,0,0,0,158,552.52Z" transform="translate(0 0)"/><path class="cls-105" d="M158.86,549.76c2.1-1.8,6.49-3.14,10.07-4.06s7.14-2.07,7.14-2.07.08-.69.15-1.6l-.3,0-6.56,2.34c-2.1.73-6.47,1.41-9.35,4.08A9.91,9.91,0,0,0,158.86,549.76Z" transform="translate(0 0)"/><path class="cls-106" d="M158,552.51a2.07,2.07,0,0,0,1.19,1.7c2.21,1,6.85.68,9.67,0s8.08-3.17,10.85-3.47,8.18-.77,9.53-1.15a3.86,3.86,0,0,0,3.08-3.75,8.36,8.36,0,0,0-1-4.77l-2.18.13.07.69s2,2.79.67,4.91-6.34,1.8-9.39,2.16-7.43,2.84-11.66,3.57-9.3,1.34-10.79,0Z" transform="translate(0 0)"/><path class="cls-95" d="M167.83,471.91c.52,2.15.95,4.24,1.32,6.26a.75.75,0,0,1,0,.11c.35,2,.63,3.88.89,5.67,0,.06,0,.11,0,.18l.15,1c.06.47.13.91.19,1.34.57,3.65,1.59,11.18,2.48,21.42a.9.9,0,0,1,0,.23c.36,3.4.68,8,.94,12.9q.1,1.68.18,3.42c.32,6.39.56,12.91.71,17.69a3.32,3.32,0,0,0,1.77,2.84,6,6,0,0,0,2.79.74,20.18,20.18,0,0,0,6.87-.91,14.69,14.69,0,0,0,3.86-2,3.66,3.66,0,0,0,1.47-3.09c-.11-4.05-.36-14.77.07-25.48.53-13.6,1.59-39.18,1.59-39.18l-4.79-42.89-8.91-2c.47-2.49,1-5.35,1.31-7.36.26-1.56.45-2.61.45-2.61H163.81l0,.72C163.56,425.52,162.66,451.18,167.83,471.91Z" transform="translate(0 0)"/><path class="cls-107" d="M167.83,471.91c.52,2.15.95,4.24,1.32,6.26-.17-1.47-1.77-15.64-2.5-22.88-.76-7.64.48-31.52.48-31.52l-3.35-2.83C163.56,425.52,162.66,451.18,167.83,471.91Z" transform="translate(0 0)"/><path class="cls-94" d="M175.43,426.84A267.53,267.53,0,0,0,181.8,477c3.62,15.36,4.36,46,4.4,67.81a14.86,14.86,0,0,0,3.86-2,3.66,3.66,0,0,0,1.47-3.09c-.11-4.05-.36-14.77.07-25.48.53-13.6,1.58-39.18,1.58-39.18l-4.79-42.89-8.9-2c.46-2.49,1-5.35,1.31-7.36Z" transform="translate(0 0)"/><path class="cls-95" d="M183,429a195.46,195.46,0,0,0,10.22,65.18v0c2.18,5.45,3.86,9.86,4.33,11.73,1,3.85,5.38,42.47,6.44,51.81a10,10,0,0,0,1.47,4.27c1.6,2.56,3.91,4.74,8.09,4.35a19.08,19.08,0,0,0,3.52-.7,26.63,26.63,0,0,0,4.49-1.81,3.4,3.4,0,0,0,1.85-3.13c-.3-10-1.6-53.82-2.43-59.28-.92-6.18-4.72-19.66-6.51-44.38a26.86,26.86,0,0,1,1.11-10.59,28.26,28.26,0,0,0,.28-17.2l-2.59,1c.05-2.34.15-3.4.15-3.4h-.84l-30.51.65Z" transform="translate(0 0)"/><path class="cls-94" d="M202.73,447.48c-.91,8.69,9,47.28,10,57.19s4.26,61,4.26,61h0a26.63,26.63,0,0,0,4.49-1.81,3.4,3.4,0,0,0,1.85-3.13c-.3-10-1.6-53.82-2.43-59.28-.92-6.18-4.72-19.66-6.51-44.38a26.86,26.86,0,0,1,1.11-10.59,28.26,28.26,0,0,0,.28-17.2l-2.59,1c.05-2.34.15-3.4.15-3.4h-.84c-5.54,3.06-10.23,6-10.23,6A51.53,51.53,0,0,1,202.73,447.48Z" transform="translate(0 0)"/><path class="cls-108" d="M216,428.49a18.11,18.11,0,0,1,.48,2.37A1.15,1.15,0,0,1,216,432a33,33,0,0,1-6.58,3.13c-4.27,1.62-9.93,1.87-14,1.49-1.73-.16-18.57-3.88-28.64-10.25a7.56,7.56,0,0,1-3.36-7.62v-.06C163.77,416.71,216,428.49,216,428.49Z" transform="translate(0 0)"/><path class="cls-6" d="M165.84,383.78c0,1.87.11,3.74.16,5.62a61.61,61.61,0,0,1-.91,12.5c-.62,3.5-1.36,7.79-1.84,10.9-1,6.16.71,10.64,3.78,12.49a.11.11,0,0,1,.07,0c9.87,6.11,21.3,8.9,27.41,10.06a29.22,29.22,0,0,0,3,.39,25.45,25.45,0,0,0,6.35-.26,21.63,21.63,0,0,0,2.58-.56l.79-.25a11.35,11.35,0,0,0,2.67-1.23c4-2.56,4.34-4.52,4.62-6.8.43-3.82-1.51-8.5-2.27-12.22-2.5-12.18,3.77-23.07,7.23-34.29,1.6-5.21,3.15-10.44,4.44-15.73.79-3.24,2-6.95,1.61-10.33l0-.21a15.31,15.31,0,0,0-.56-2.39c-.68-1.9-2.71-4.15-5-6.21a57.66,57.66,0,0,0-6.77-5.16c-.09,0-.15-.09-.24-.14a51.3,51.3,0,0,0-5.18-3c-1.75-.87-4-1.88-7.14-3.12-1.12-.45-2.27-.84-3.45-1.21-2.16-.66-4.37-1.2-6.62-1.66-3.45-.73-6.95-1.29-10.3-1.94-.58,0-1.16,0-1.74.05-4.14.27-12.08,2.49-12.08,2.49s-3.64,6.8-5.65,10.8C157.52,348.73,164.05,372.2,165.84,383.78Z" transform="translate(0 0)"/><path class="cls-101" d="M221.06,351.79c-5.13-8.8-18-13.11-20.21-13.83C194,348.1,186,348.34,186,348.34l-.35-4.36-2.19,1.6L182,369.09l-2.54-5.9,1.94-20,7.49-9.57,8.25-1c1.18.37,2.33.76,3.45,1.21a66,66,0,0,1,9.86,4.6l.22.13.79.48.9.56.55.36c.09.05.15.1.24.14a57.66,57.66,0,0,1,6.77,5.16h0c2.31,2.05,4.34,4.3,5,6.2,0,.12.09.26.13.41a19.89,19.89,0,0,1,.43,2h0C226.66,361,222.55,360.82,221.06,351.79Z" transform="translate(0 0)"/><path class="cls-101" d="M182,340.37a23.19,23.19,0,0,0-3.09,3.33c-.91,1.2-1.54,2.56-2.38,3.78a17.43,17.43,0,0,1-.15-3.83,26.56,26.56,0,0,1,.28-4.08,19.07,19.07,0,0,1,2.75-7.23c.41.36.44,1,.64,1.49.31.82,1.08,1.41,1.35,2.25s0,1.86.26,2.74" transform="translate(0 0)"/><path class="cls-99" d="M198.86,321.43v9.29s-9.5,6.86-14.55,5.86c-2.17-.43-3.31-3.2-2.86-7.12l4.6-.93Z" transform="translate(0 0)"/><path class="cls-6" d="M183.18,336l-5.41,6.35s-.2-7.62,3.41-11.51,3.67-.51,3.67-.51S181.52,334.21,183.18,336Z" transform="translate(0 0)"/><path class="cls-100" d="M172.63,309.08a53.41,53.41,0,0,0,.83,14.88c1.6,7.11,2.09,8.72,5,10s5.44,1.4,10.26-1.7a24.31,24.31,0,0,0,7.45-8.14s.69.45,2.41-1.49c2.69-3,3.21-4.56,3.21-8.69a28.8,28.8,0,0,0-4.25-14.7c-3.21-5.39-13.07-3.67-17.54-1.38S173.48,304.47,172.63,309.08Z" transform="translate(0 0)"/><path class="cls-109" d="M168.73,309.43c4.92,8.7,17.19,3,17.19,3,.91,3.78,3.55,4.13,4.83,4.82s1.53,4.36,1.53,4.36h1.16a26.23,26.23,0,0,1,.63-5.51c.57-1.84,4-3.26,5.73-.56,1.55,2.41-.23,5.1-1.26,7.1-.33,3.17.31,4.49.31,4.49a15.11,15.11,0,0,0,3.13-5.63c1.25-3.78,2.18-11.7,0-20.18a9.56,9.56,0,0,0-1-2.45c-3.77-6.36-14.5-7.59-18.71-6.16-3.64,1.24-12.64,5.34-14.32,11.15A7.08,7.08,0,0,0,168.73,309.43Z" transform="translate(0 0)"/><path class="cls-95" d="M168.37,483c.06.46.13.9.2,1.33C168.5,483.76,168.43,483.31,168.37,483Z" transform="translate(0 0)"/><path class="cls-95" d="M168.19,481.79a1,1,0,0,0,0,.18C168.2,481.86,168.19,481.79,168.19,481.79Z" transform="translate(0 0)"/><path class="cls-110" d="M206.35,373.6s1.9-7.93,1.63-13.16-3.17-.55-3.45,3.72-2.78,13.49-2.78,13.49" transform="translate(0 0)"/><path class="cls-6" d="M198.86,329.77a8.82,8.82,0,0,1,1,1.93,19.93,19.93,0,0,1,.66,2.15s-3.89,8-14.56,11.44l-1.22-8.64S194.13,335.38,198.86,329.77Z" transform="translate(0 0)"/><path class="cls-101" d="M204.68,403.38l-.35-1.65,6.52-7.09s1.08,11.15,1.46,14.86S217.23,425,217,429.12s-13.2,6.39-13.2,6.39,3.52-8.61,3.33-15.29a75.9,75.9,0,0,0-1.32-10.83c-.36-2.08-.43-8.4-3.18-8.51a5.66,5.66,0,0,0-2.05.43c-3.52,1.21-8.41,6.69-11.87,8.06-3.19,1.26-7.93,5.61-10.65,2.47,2.79-3.7,11.16-13.3,11.84-14.43.85-1.44,12.83-28.87,14.91-32.39,1.35,8.09,2.45,18.09,3.8,26.18" transform="translate(0 0)"/><path class="cls-95" d="M184.77,336.65l.87,6.17-3.06,2.47-3.17-1-.17-3.6,3.94-4.63A2.61,2.61,0,0,0,184.77,336.65Z" transform="translate(0 0)"/><path class="cls-95" d="M182.54,346.67c0-.46,0-.92.05-1.38l-3.17-1c.08,0-2.2,12.12-2.34,13-1.82,11.3-3.43,22.64-5,34-.71,5.27-1.26,9.3-1.46,10.91a3.1,3.1,0,0,0,.17,1.48l3.22,8.44c.16.46,7.94-7.56,7.89-8.34C181.84,402.12,182.05,362.1,182.54,346.67Zm-7,21.29h0C175.53,368.09,175.51,368.13,175.53,368Z" transform="translate(0 0)"/><path class="cls-111" d="M168.73,309.43c4.92,8.7,17.19,3,17.19,3,.91,3.78,3.55,4.13,4.83,4.82s1.53,4.36,1.53,4.36h1.16a26.23,26.23,0,0,1,.63-5.51c.57-1.84,4-3.26,5.73-.56,1.55,2.41-.23,5.1-1.26,7.1-.33,3.17.31,4.49.31,4.49a15.11,15.11,0,0,0,3.13-5.63c1.25-3.78,2.18-11.7,0-20.18a9.56,9.56,0,0,0-1-2.45c-2.07,1.77-8,6.57-14.2,9.18-7.72,3.24-13.69,2.55-15.63.9s-2.94-3-3.18-5.07l0,0A7.08,7.08,0,0,0,168.73,309.43Z" transform="translate(0 0)"/><path class="cls-6" d="M204.53,364.16c-4,12-7.15,24.44-13.79,36.27-12.21,9.87-21.2,20.6-30.87,29.73,1.85,3.48,1.8,5.51,3.65,9,2.82-.68,26.95-17.71,37-24.23s13-12.37,17.68-23.44c4.24-10.15,7.83-26.61,7.23-37.59" transform="translate(0 0)"/><path class="cls-101" d="M225.46,353.89l-3.65.46c0,10.84-5.28,27.79-9.19,37.13-4.64,11.07-7.6,16.91-17.68,23.44-7.9,5.12-24.41,16.67-32.54,21.75a22.1,22.1,0,0,0,1.12,2.48c2.82-.68,26.95-17.71,37-24.23s13-12.37,17.68-23.44C222.47,381.33,226.06,364.87,225.46,353.89Z" transform="translate(0 0)"/><path class="cls-99" d="M143.23,441.3c.46.05,3.28-1.47,3.93-1.72s4.68-1.42,4.88-1.2a2.07,2.07,0,0,1-1.17,2.88,29.93,29.93,0,0,0-3,1.73s-2.83,4.88-7.61,6.57" transform="translate(0 0)"/><path class="cls-112" d="M150.87,441.26c-1,.62-2,1.26-2.91,1.92l.07-.07a14.21,14.21,0,0,1-1.48,2.13,15.9,15.9,0,0,1-1.81,1.86,11.91,11.91,0,0,1-2.12,1.49,10.08,10.08,0,0,1-2.39,1,19,19,0,0,0,2.19-1.28,17.56,17.56,0,0,0,2-1.59,22.4,22.4,0,0,0,3.27-3.81l0-.06,0,0A21,21,0,0,1,150.87,441.26Z" transform="translate(0 0)"/><path class="cls-112" d="M143.52,440.81a1.13,1.13,0,0,0,.78-.14,6.41,6.41,0,0,0,.75-.35,10.78,10.78,0,0,1,1.55-.66c.54-.19,1.07-.38,1.63-.52a13.43,13.43,0,0,1,1.67-.37,13.46,13.46,0,0,1-1.5.79c-.51.24-1,.43-1.56.63s-1.06.33-1.61.55a8.11,8.11,0,0,1-.85.21C144.1,441,143.75,441,143.52,440.81Z" transform="translate(0 0)"/><path class="cls-113" d="M129.31,446.77l2.65-.43s1.74,1.14,2.07,2.2a11.55,11.55,0,0,1-.16,5.75l-8.43,2.5" transform="translate(0 0)"/><path class="cls-114" d="M57.16,413.6s21,25.22,25.51,26.1,47.65,6.64,47.65,6.64a4.25,4.25,0,0,1,2.7,3.25c.27,2.4-1.27,6.22-1.27,6.22s-45.23,5.34-49.28,4.27-42-33.68-42-33.68" transform="translate(0 0)"/><path class="cls-13" d="M83.76,454.18c-3.35-.88-29.91-23.37-39-31.09l-4.32,3.31s38,32.62,42,33.68,49.28-4.27,49.28-4.27a22.71,22.71,0,0,0,.79-2.41C128,453.58,87.59,455.18,83.76,454.18Z" transform="translate(0 0)"/><path class="cls-115" d="M131.57,646.69a83.94,83.94,0,0,0,1.57-14.64c.21-8.43-1.89-17.41-11.28-18.91-14.7-2.34-30.3-.42-44.91,1.88-12.08,1.89-27.84,1.88-37.68,10.1-15.12,12.63,4.44,28.7,15,35.93,20.17,13.85,49.4,31.46,68.61,6A49.89,49.89,0,0,0,131.57,646.69Z" transform="translate(0 0)"/><path class="cls-103" d="M50,650.1v.13a.47.47,0,0,0,0,.15.59.59,0,0,1,0,.2c.24.85,1.22,3,4.95,3.71.22,0,.46.06.7.09a1.35,1.35,0,0,0,.28,0,22.92,22.92,0,0,0,2.79,0c.31,0,.61,0,.92-.08,4.06-.83,7.83-4,8.81-4.8l.26-.24v-.77s2.68-1.78,3.67-2.37c3-1.77,7.28-3.27,11.38-5.3A12.43,12.43,0,0,0,86.67,639c.13-.13.26-.29.39-.4a1.36,1.36,0,0,0,.24-.24c.09-.11.16-.24.24-.35s.33-.45.46-.65l.18-.33c.06-.13.1-.21.15-.3a2.13,2.13,0,0,0,.11-.33v0a5.45,5.45,0,0,0,.24-1.55v-2.68l-25,10.23-13.65,5.1Z" transform="translate(0 0)"/><path class="cls-104" d="M64.83,631.47a98.73,98.73,0,0,0,11-1.36c6.82-1.17,11.52-1.5,12.4.63s1,4.27-5,8.43-10.8,4.6-15.67,8.53A17.08,17.08,0,0,1,57,651.55c-3.64.25-6.09-1.14-6.88-2.62-1.84-3.44.06-10,.06-10" transform="translate(0 0)"/><path class="cls-103" d="M74.53,654.07l0,3.38a3.18,3.18,0,0,0,1.72,2.93,4.75,4.75,0,0,0,1.47.41,51.66,51.66,0,0,0,10.74-.52V659s2.31-.26,9.14-1.11a40.4,40.4,0,0,0,14.12-4.21,3.06,3.06,0,0,0,1.64-2.71l0-2.48L86.5,653.25Z" transform="translate(0 0)"/><path class="cls-104" d="M93.35,642.19s3,2.81,6.5,2.81,10.37-.09,12.12,1.14a2.85,2.85,0,0,1,1.37,2.19,4.42,4.42,0,0,1-.93,2.73c-1.32,1.93-10.19,4.83-16.86,5.35s-7,.44-10.19,1-6.45.77-8.44-.21c-3.44-1.71-3.68-6.91-1.57-10.33S93.35,642.19,93.35,642.19Z" transform="translate(0 0)"/><path class="cls-100" d="M56.92,393.75,56.38,395l.82,4.18,13.35,6.72.79-.11,2.14-.26,3.35-.44v-4.62a6.07,6.07,0,0,1,3.47-5.63l.15-.06a6.54,6.54,0,0,0,2.27-1.53l.2-.19c2.57-2.73,4.86-8.86,4.21-22.27-.13-2.34-.66-6.39-1.72-8.47-2-3.72-6.07-6.19-14.57-3.86-14.18,3.93-20.37,10.36-21.09,15.93S56.92,393.75,56.92,393.75Z" transform="translate(0 0)"/><path class="cls-99" d="M76.83,405.11v-4.62a6.07,6.07,0,0,1,3.47-5.63c-.7.31-2.85,1.34-5.71,2.88-1.15.61-1.11,4.3-1.11,7.81Z" transform="translate(0 0)"/><path class="cls-116" d="M98.35,429l28.29,14.53,12.91-41.31a3.13,3.13,0,0,0-1.5-3.67L114.38,386.4a2.24,2.24,0,0,0-3.17,1.42Z" transform="translate(0 0)"/><path class="cls-12" d="M100.19,428.11l25.21,13,12-38.37c.47-1.75.39-2.51-1.39-3.39L114,388a1,1,0,0,0-1.41.63Z" transform="translate(0 0)"/><path class="cls-117" d="M122.73,406.54l7.81,4a.37.37,0,0,0,.53-.23l2.16-7.14a.42.42,0,0,0-.2-.48l-7.81-4a.38.38,0,0,0-.54.23l-2.15,7.14A.4.4,0,0,0,122.73,406.54ZM117,424.6l6.05,3.13a.3.3,0,0,0,.41-.19l4.74-15.17A.31.31,0,0,0,128,412l-6-3.12a.28.28,0,0,0-.41.18l-4.75,15.17A.31.31,0,0,0,117,424.6ZM113.46,411l4.63,2.4a.23.23,0,0,0,.32-.14l.07-.3a.24.24,0,0,0-.11-.29l-4.64-2.39a.23.23,0,0,0-.32.14l-.07.3A.24.24,0,0,0,113.46,411Zm3.83,3.93a.39.39,0,0,0,.56-.25l.13-.52a.43.43,0,0,0-.21-.51l-8.21-4.24a.4.4,0,0,0-.56.25l-.13.53a.43.43,0,0,0,.2.5m-.46,1.54,8.22,4.24a.4.4,0,0,0,.56-.25l.12-.53a.43.43,0,0,0-.2-.51l-8.22-4.24a.4.4,0,0,0-.56.25l-.13.53A.44.44,0,0,0,108.61,412.23Zm-.46,1.53,8.21,4.24a.4.4,0,0,0,.56-.25l.13-.53a.42.42,0,0,0-.21-.5l-8.21-4.24a.39.39,0,0,0-.56.25l-.13.52A.43.43,0,0,0,108.15,413.76Zm-.47,1.53,8.22,4.24a.4.4,0,0,0,.56-.25l.12-.53a.42.42,0,0,0-.2-.5L108.16,414a.39.39,0,0,0-.56.25l-.12.53A.42.42,0,0,0,107.68,415.29Zm-.46,1.53,8.21,4.24a.39.39,0,0,0,.56-.25l.13-.53a.43.43,0,0,0-.2-.5l-8.22-4.24a.4.4,0,0,0-.56.25l-.13.53A.42.42,0,0,0,107.22,416.82Zm4.59-15,8.57,4.42A.41.41,0,0,0,121,406l2.36-7.83a.46.46,0,0,0-.21-.53l-8.57-4.42a.42.42,0,0,0-.59.26l-2.36,7.83A.45.45,0,0,0,111.81,401.81Z" transform="translate(0 0)"/><path class="cls-100" d="M120.59,435.18l4.57,3.8.86.72s1-4.38,2.89-6a12,12,0,0,1,3.53-1.59,2.82,2.82,0,0,0,1.52-1c.89-1.22,2.21-3.89,1.52-8.54a5.22,5.22,0,0,0-.6-1.92,0,0,0,0,1,0,0c-.56-1-1.27-.94-1.27-.94s-3.08,2.19-4,2.85c-.73.54-1.67,1.61-2.39.81-.39-.41,1.86-3.25,2.48-4.55s-.57-2.7-1.11-2.2a31.31,31.31,0,0,0-5,7.85C122.38,427.72,120.59,435.18,120.59,435.18Z" transform="translate(0 0)"/><path class="cls-99" d="M124.11,435.73l1,3.25.86.72s1-4.38,2.89-6a12,12,0,0,1,3.53-1.59,2.82,2.82,0,0,0,1.52-1c.89-1.22,2.21-3.89,1.52-8.54a5.22,5.22,0,0,0-.6-1.92,0,0,0,0,1,0,0s0,.8-1.3,1.92a31.91,31.91,0,0,1-4,2.71,12.12,12.12,0,0,0-3.09,4.66C125.6,431.91,124.11,435.73,124.11,435.73Z" transform="translate(0 0)"/><path class="cls-113" d="M126.87,439.59l.8-2.54a2,2,0,0,0-.1-1.47,12.14,12.14,0,0,0-2.09-3.23,3.16,3.16,0,0,0-3.82-.62,5.88,5.88,0,0,0-1,1.93,6.42,6.42,0,0,0-.19,2.27c.06.18,1.69,2.5,1.88,2.71A44.62,44.62,0,0,0,126.87,439.59Z" transform="translate(0 0)"/><path class="cls-95" d="M43.25,520.6c3.16,17.27,5.43,38.69,5.43,38.69s-5.28,42.9.65,80.26c.26,1.77.87,5.5,3.14,7a8.51,8.51,0,0,0,7.33,0l.33-.18c8.85-4.84,7.91-11.12,9.2-15.24,0-16.62-1.77-57.52,1.77-66.5l3.16-36.25L73.1,502.39H41.39v.09l-.15-.09S38.54,509.35,43.25,520.6Z" transform="translate(0 0)"/><path class="cls-94" d="M52.93,521.3c3,9.81,6.83,35.44,7.63,41.7,0,0-2.94,49.36-.43,83.29,8.85-4.84,7.91-11.12,9.2-15.24,0-16.62-1.77-57.52,1.77-66.5l3.16-36.25L73.1,502.39H51.29A48,48,0,0,0,52.93,521.3Z" transform="translate(0 0)"/><path class="cls-95" d="M55,510.94a50.59,50.59,0,0,0,6.85,16.57c.61.92,1.15,1.86,1.68,2.8.11.43,1.65,6.23,3.57,14S71.32,561.89,73,570.2c-.91,10.42-3.49,46.93,1.42,78.56a5.8,5.8,0,0,0,4.17,4.71,10.41,10.41,0,0,0,3.49.37,8.8,8.8,0,0,0,2.92-.7c5.19-2.18,8.94-10.49,8.94-10.49s.13-52.52,2.86-66.3a63.1,63.1,0,0,0,1-8c.5-8.44,1.42-23.84,1.7-30.28.54-12.52.63-23,.2-27.72l-26,.33Z" transform="translate(0 0)"/><path class="cls-94" d="M73.65,510.72c.13,1.55.22,2.57.22,2.57a65.17,65.17,0,0,0,3.55,16.36c3.32,9.82,6.6,33.09,7,41.81.35,8-3.92,46.28-2.32,82.38a8.8,8.8,0,0,0,2.92-.7c5.19-2.18,8.94-10.49,8.94-10.49s.13-52.52,2.86-66.3a63.1,63.1,0,0,0,1-8c.5-8.44,1.42-23.84,1.7-30.28.54-12.52.63-23,.2-27.72Z" transform="translate(0 0)"/><path class="cls-11" d="M38.16,437.68c4.19,12.71,6.55,33.61,4,42.33s-4,21.09-4,21.09c2.38,6.54,24.54,20.72,36.91,21.81a18.6,18.6,0,0,0,4.53-.17c10.89-1.62,21.09-11.28,21.09-11.28s-2.35-35.81-3.81-58.71c-1-15.23-3.23-24.71-4.65-29.36A35.19,35.19,0,0,0,91.05,420c-1.3-1.73-5.21-4.65-10.18-7.92a.25.25,0,0,1-.11,0c-3.34-2.22-7.13-4.58-11-6.82h0c-5.08-3-10.21-5.83-14.31-7.88-.48-.24-.94-.45-1.37-.65a32.35,32.35,0,0,0-6.31-2.57c-5.82-1.09-13.63,2-16,12.54S34,424.94,38.16,437.68Z" transform="translate(0 0)"/><path class="cls-118" d="M80.91,479.86c.74,9.77-.74,34.15-1.31,42.88,10.89-1.62,21.09-11.28,21.09-11.28s-2.35-35.81-3.81-58.71c-1-15.23-3.23-24.71-4.65-29.36-1.18-1.35-1.94-2.2-1.94-2.2H75.94s-7.46,1.53-4.76,18.52S80,467.86,80.91,479.86Z" transform="translate(0 0)"/><path class="cls-119" d="M54,402c2.18,3,10,7.3,13.6,8.07a31.72,31.72,0,0,0,8.21.34A10.54,10.54,0,0,1,80.76,412a.25.25,0,0,0,.11,0,.06.06,0,0,0,0,0l-2.14-3.25-2.48-1.59s-3.64-1.33-4.45-1.7a9.33,9.33,0,0,0-2-.35h0c-2.16-.26-5.26-.48-5.74-.55-.67-.08-6.3-3.94-6.54-4.1s-1.24-1.92-2-3.23c-.48-.24-.94-.45-1.37-.65A4.17,4.17,0,0,0,54,402Z" transform="translate(0 0)"/><path class="cls-109" d="M46,374.91c1.22,7.28,7.39,18.73,10.51,19.78a18.21,18.21,0,0,0,5.15,1,4.91,4.91,0,0,0,5.06-4,23.42,23.42,0,0,1,2.11-6.59c2.18-4,5-6.15,6.48-5.39S76.62,383,76.62,383l.93,0s.09-.83.22-1.94.22-2.49.29-3.56a12.4,12.4,0,0,1,2.5-7.54,29.23,29.23,0,0,0,3.49-6.44,11.86,11.86,0,0,0,.88-5.76v0c-.59-5.6-2.88-7.9-5-9.48-7.06-5.17-21.81,4.42-27.27,9a18.79,18.79,0,0,0-6.1,8.68v0A18.68,18.68,0,0,0,46,374.91Z" transform="translate(0 0)"/><path class="cls-6" d="M55,396.28,56.38,395a31.4,31.4,0,0,0,20.45,10.08,17.42,17.42,0,0,1,4.09,6.95l-1.85-1.2a8.36,8.36,0,0,0-3.22-1.25c-.73-.12-2.35-.2-2.35-.2-7.28-.1-14.53-5.18-18.32-8.32A3.2,3.2,0,0,1,55,396.28Z" transform="translate(0 0)"/><path class="cls-120" d="M88,638a3,3,0,0,1-.46.66A6.71,6.71,0,0,0,88,638Z" transform="translate(0 0)"/><path class="cls-120" d="M87.3,639a3.64,3.64,0,0,0,.24-.35,7.36,7.36,0,0,1-.48.59A2.72,2.72,0,0,0,87.3,639Z" transform="translate(0 0)"/><path class="cls-11" d="M74.37,433.08c1.37,8,16.68,31.38,17.32,32.32a113.19,113.19,0,0,0,7.65,10.93h0c2,2.52,3.71,4.16,4.76,4.47a5,5,0,0,0,.61.15c4.75,1.13,8.35-1.94,9.66-5.39,1.24-2.72,5-9.16,8-17.45,2-5.51,3.25-12.25,4.56-17.75a5.39,5.39,0,0,0-.54-3.93c-.07-.08-.11-.19-.18-.28-.85-1.42-2-3-3.07-3.18-1.92-.29-2.29.21-2.29.21s-3.51,5.65-6.31,10A82.41,82.41,0,0,0,109,455c-.26.74-.43,1.18-.43,1.18-5.06-11.76-11.67-26.19-14.36-32.23C91,416.61,81.06,415,75.94,421.19a2.53,2.53,0,0,1-.22.26,4.43,4.43,0,0,0-.72,1.46l0,0,0,0C74.67,423.26,73.08,425.57,74.37,433.08Z" transform="translate(0 0)"/><path class="cls-111" d="M46,374.91c1.22,7.28,7.39,18.73,10.51,19.78a18.21,18.21,0,0,0,5.15,1,4.91,4.91,0,0,0,5.06-4,23.42,23.42,0,0,1,2.11-6.59c2.18-4,5-6.15,6.48-5.39S76.62,383,76.62,383l.93,0s.09-.83.22-1.94.22-2.49.29-3.56a12.4,12.4,0,0,1,2.5-7.54,29.23,29.23,0,0,0,3.49-6.44,11.86,11.86,0,0,0,.88-5.76,32.22,32.22,0,0,1-23,18.91c-17.15,3.6-15.53-10-15.42-10.7A18.68,18.68,0,0,0,46,374.91Z" transform="translate(0 0)"/><path class="cls-121" d="M109,455c-.26.74-.43,1.18-.43,1.18a15.92,15.92,0,0,1,1.37,7.09A8.91,8.91,0,0,0,109,455Z" transform="translate(0 0)"/><path class="cls-13" d="M74.94,422.93l.06,0s-.52,6.7,5.83,17.86,19.86,37.91,26.54,37.17c3.52-.39,11.27-16.9,14.17-24.62a127.92,127.92,0,0,0,4.67-17.17c.07.09.11.2.18.28a5.39,5.39,0,0,1,.54,3.93c-1.31,5.5-2.53,12.24-4.56,17.75-3,8.29-6.74,14.73-8,17.45a8.24,8.24,0,0,1-9.66,5.36v0a5,5,0,0,1-.61-.15c-1.05-.31-2.73-1.95-4.76-4.47h0a113.19,113.19,0,0,1-7.65-10.93c-.64-.94-16-24.3-17.32-32.32C73.08,425.57,74.67,423.26,74.94,422.93Z" transform="translate(0 0)"/></g></g></g></svg>