<svg xmlns="http://www.w3.org/2000/svg" viewBox="0 0 680 640.2"><defs><style>.cls-1{isolation:isolate;}.cls-2{fill:#e9eef7;}.cls-10,.cls-11,.cls-12,.cls-13,.cls-14,.cls-15,.cls-16,.cls-17,.cls-18,.cls-19,.cls-2,.cls-3,.cls-4,.cls-5,.cls-6,.cls-7,.cls-8,.cls-9{fill-rule:evenodd;}.cls-3{fill:#cbd5eb;}.cls-4{fill:#fff;}.cls-5{fill:#3380db;}.cls-6{fill:#0058b3;}.cls-7{fill:#aabcdd;}.cls-8{fill:#d0e0f0;opacity:0.8;mix-blend-mode:multiply;}.cls-9{fill:#8ca3ca;}.cls-10{fill:#ffb27d;}.cls-11{fill:#233862;}.cls-12{fill:#2b478b;}.cls-13{fill:#f9ddbf;}.cls-14{fill:#eac3a2;}.cls-15{fill:#ff4500;}.cls-16{fill:#0050ac;opacity:0.5;}.cls-17{fill:#7a492c;}.cls-18{fill:#dacfeb;}.cls-19{fill:#f08261;}</style></defs><g class="cls-1"><g id="Layer_2" data-name="Layer 2"><g id="Layer_1-2" data-name="Layer 1"><path class="cls-2" d="M269,32.89c-85.32,0-86.46,95.15-148.06,138.32C39.4,228.35,10.23,246.89,18.79,344.66c7.1,81,73.16,234.55,271.43,234.55S657.65,483.73,598.62,312,467.27,32.89,269,32.89Z"/><path class="cls-3" d="M306.23,158.61H254.1v18H233.88V574.69a341.26,341.26,0,0,0,56.34,4.52,568.65,568.65,0,0,0,98.24-8.29V176.6H368.34v-18H316.27V89.47h-10ZM52.68,449.6C82,501.27,132.36,550.79,212.81,570.38V331L52.68,386.9ZM409.52,566.73c70.77-15.7,130.22-46,165.71-89.57V321L409.52,255.81Z"/><path class="cls-4" d="M508.24,337.43v31.05H476.5V337.43ZM52.68,449.6A265.78,265.78,0,0,0,67.9,473.43h34.35v23.29H86.73q6.47,7.09,13.65,13.82h1.87v1.72c4,3.7,8.23,7.32,12.61,10.81V510.54H150.6v23.29H129.44A242.51,242.51,0,0,0,163.23,553v-5.38H199v19q6.76,2,13.84,3.73V331L52.68,386.9Zm181.2,125.09a340.09,340.09,0,0,0,56.34,4.52,568.57,568.57,0,0,0,98.24-8.29V176.6H368.34v-18H316.27V89.47h-10v69.14H254.1v18H233.88Zm175.64-8q9.35-2.09,18.43-4.49V535.32h31.74v17.14c5.72-2,11.34-4.15,16.81-6.41V535.32H500a276.94,276.94,0,0,0,31.34-18.43h-6.24v-31h31.72v10.87a189.15,189.15,0,0,0,18.44-19.56V321L409.52,255.81Zm50.17-229.3v31.05H428V337.43Zm97.1,0v31.05H525.07V337.43ZM508.24,386.9V418H476.5V386.9Zm-48.55,0V418H428V386.9Zm97.1,0V418H525.07V386.9Zm-48.55,49.48v31H476.5v-31Zm-48.55,0v31H428v-31Zm97.1,0v31H525.07v-31Zm-48.55,49.47v31H476.5v-31Zm-48.55,0v31H428v-31ZM150.6,399.23v23.28H114.86V399.23Zm-48.35,0v23.28H66.5V399.23Zm96.72,0v23.28H163.23V399.23Zm-48.37,37.1v23.29H114.86V436.33Zm-48.35,0v23.29H66.5V436.33Zm96.72,0v23.29H163.23V436.33Zm-48.37,37.1v23.29H114.86V473.43Zm48.37,0v23.29H163.23V473.43Zm0,37.11v23.29H163.23V510.54Zm127-319.48H296.4V229h29.53Zm-42.41,0H254V229h29.52Zm42.41,56.83H296.4v37.88h29.53Zm-42.41,0H254v37.88h29.52Zm84.82,0H338.81v37.88h29.53Zm-42.41,56.83H296.4V342.6h29.53Zm-42.41,0H254V342.6h29.52Zm84.82,0H338.81V342.6h29.53Zm-42.41,56.83H296.4v37.88h29.53Zm-42.41,0H254v37.88h29.52Zm84.82,0H338.81v37.88h29.53Zm-42.41,56.82H296.4v37.89h29.53Zm-42.41,0H254v37.89h29.52Zm84.82,0H338.81v37.89h29.53ZM325.93,475.2H296.4v37.88h29.53Zm-42.41,0H254v37.88h29.52Zm84.82,0H338.81v37.88h29.53ZM325.93,532H296.4V569.9h29.53Zm-42.41,0H254V569.9h29.52Zm84.82,0H338.81V569.9h29.53Zm0-341H338.81V229h29.53Z"/><path class="cls-5" d="M317.79,230.53l107.1,40,34.8-80.77L421,173.11l99.94-57.29,27,112-38.7-16.67L450.32,336.5,342.49,289.82c-25.42,59-51.61,117-77.05,176.08L150.37,411.39,69.22,573.75l-17.41-9.26,84-191.3L243.34,415Z"/><path class="cls-6" d="M455.6,188l-34.07-14.67,8.17-4.69,28.87,12.44Zm90.69,30.86,2.21,9.17-38.71-16.68L450.87,336.73,343,290.07c-25.42,59-51.62,117-77.05,176.08L150.92,411.62,69.77,574l-17.41-9.27,2.86-6.51,12.88,6.86L149.25,402.7l115.07,54.53c25.44-59.05,51.63-117.07,77.05-176.08L449.2,327.81l58.92-125.36Z"/><path class="cls-7" d="M245.68,0l216.7,46.88L439.26,153.71l-216.69-46.9Z"/><path class="cls-3" d="M261.76,12.64,442.51,51.75A9.44,9.44,0,0,0,449.74,63L434.4,133.83a9.45,9.45,0,0,0-11.21,7.23L242.44,102a9.45,9.45,0,0,0-7.22-11.22l15.34-70.87a9.41,9.41,0,0,0,11.2-7.22Z"/><path class="cls-7" d="M350.25,40.92a36.76,36.76,0,1,1-43.7,28.16,36.77,36.77,0,0,1,43.7-28.16Z"/><path class="cls-7" d="M277.1,53.25a9.23,9.23,0,1,1-11,7.07,9.25,9.25,0,0,1,11-7.07ZM411.76,82.39a9.23,9.23,0,1,1-11,7.07,9.24,9.24,0,0,1,11-7.07Z"/><path class="cls-2" d="M357.56,60.51a19,19,0,0,0-7.66-3.78l1.28-6-5.52-1.2L344.27,56c-6.25.07-10.72,3.57-11.92,9.08-1.24,5.7,2,9.47,6.92,13.24,4.7,3.37,6.15,5.63,5.53,8.5s-3.06,4.59-7.11,3.71a19,19,0,0,1-8.51-4.5l-3.06,6A22.29,22.29,0,0,0,335,96.48l-1.39,6.42,5.52,1.19,1.49-6.87c6.62.14,11.33-3.67,12.58-9.42s-1.09-9.67-7.09-14.09c-4-3.16-6.05-5.26-5.49-7.85.48-2.18,2.89-4.08,6.66-3.27a17.56,17.56,0,0,1,7.27,3.7Z"/><path class="cls-8" d="M196.78,605.13c103.78,0,187.91,7.84,187.91,17.54S300.56,640.2,196.78,640.2,8.89,632.35,8.89,622.67,93,605.13,196.78,605.13Z"/><path class="cls-8" d="M593.43,542.92c-47.8,0-86.55,9.77-86.55,21.85s38.75,21.84,86.55,21.84S680,576.83,680,564.77s-38.76-21.85-86.57-21.85Z"/><path class="cls-9" d="M566.68,334.77a3,3,0,0,0-1.8-3.47,2.43,2.43,0,0,0-2.85,2.18,166.89,166.89,0,0,0,.15,64.12c4.33,22,13.22,44.8,27.53,68.53a2.12,2.12,0,0,0,3.34.62,3.29,3.29,0,0,0,.51-4c-13.94-23.11-22.56-45.19-26.76-66.44a160.14,160.14,0,0,1-.12-61.51Z"/><path class="cls-3" d="M563.82,338.09Q596.15,248.84,560,169.3q82.35,82.76,3.78,168.79Z"/><path class="cls-7" d="M560,169.3q36.11,79.55,3.78,168.79C514.29,291.9,576.21,241.77,560,169.3Z"/><path class="cls-9" d="M592.86,411.91a2.8,2.8,0,0,0-2.15-3.15,2.55,2.55,0,0,0-2.59,2.6,259.21,259.21,0,0,0-.22,28.69c.41,10,1.26,21,2.65,32a2.51,2.51,0,0,0,2.73,2.42,2.85,2.85,0,0,0,2-3.3c-1.36-10.71-2.19-21.55-2.58-31.38a247.47,247.47,0,0,1,.19-27.86Z"/><path class="cls-7" d="M590,417.38q-34.2-75.53,49.29-142.71Q595.11,352.43,590,417.38Z"/><path class="cls-9" d="M590,417.38q5.16-65,49.29-142.71c-17.46,70.62,20.45,96.71-49.29,142.71Z"/><path class="cls-9" d="M591.18,469.33a2.71,2.71,0,0,0,2.3,3,2.64,2.64,0,0,0,2.46-2.79A91.73,91.73,0,0,1,599.36,448a127.46,127.46,0,0,1,8.84-23.16,3.28,3.28,0,0,0-.77-4,2.15,2.15,0,0,0-3.28.94,133.65,133.65,0,0,0-9.3,24.39,99.39,99.39,0,0,0-3.67,23.2Z"/><path class="cls-9" d="M656.65,430.41c-14.37,40.23-45.18-8.73-56.2-.6,3.3-9.1,7.91-15.58,13.11-18.88,15.19-9.63,27.79,23.95,43.09,19.48Z"/><path class="cls-7" d="M520,457.67v52.42c0,33.06,22.27,60.1,49.51,60.1h39.16c27.23,0,49.51-27,49.51-60.1V457.67Z"/><path class="cls-9" d="M534,551.87c67.59,26.39,100.06-9.88,93.59-94.2h30.59v52.42c0,33.06-22.28,60.1-49.51,60.1H569.47c-13.9,0-26.5-7-35.51-18.32Z"/><path class="cls-10" d="M313.43,219.28c1.48-.5,6.45-1.67,12.24-3.6q9,3.63,23.53-2.16,5.57-8.81,1-17.92c-7.67,3.64-14.41,5.06-20.2,4.21,7.21-4.73,8.31-7.55,3.35-8.44a5.71,5.71,0,0,1-3.1,2.76q-7.51,1.2-10.75,10.17c-2.68.72-5.43,1.38-6.86,1.82,1.46,3.45,1.74,7.58.78,13.16Z"/><path class="cls-11" d="M177,68.86c-18.54-2.4-32.54-1.12-38.53,7.77a157.7,157.7,0,0,0,4.89,21.16,5.42,5.42,0,0,1-4.79,3.24q-3.94-7.73-6.62-9.22-13.24,5.94,5,18.31c.71,2.85,1.4,5.2,2,7.06-10.93-2.44-20.06-12.22-21.35-16.45C104.88,75.6,119.09,65,126.7,61.11c3.36-24.88,39.49-2.87,57.61-14.88,7.19,9.94-1.71,22.41-7.31,22.63Z"/><path class="cls-12" d="M119.77,181.65q17.46,21,29.31,30.32Q138.29,173.6,126,129.36a42.85,42.85,0,0,0-7,7.26q-1,18-.48,27.38,6.39,5.07,10.3,6.35a41.28,41.28,0,0,0-9,11.3Z"/><path class="cls-12" d="M192.73,174.83a215.69,215.69,0,0,1-19.1,34.2q3.13-46.89,3.18-79a30.2,30.2,0,0,1,7.27,5.32c.35.4.66.79,1,1.19q5,17.92,6.5,28.08c-3.12,1.42-5.77,2.66-7.93,3.7,2.93,2,6,4.14,9.11,6.5Z"/><path class="cls-5" d="M119,136.62q-27,15.65-44.08,27.7-11.55,44-12.51,95.13c1,39.16,4.94,67.48,9.57,82.76,6.74.29,13.91-.37,16.57-2.93q2.18-51.66,1.11-83.84,7.39-17,13-25.37c1.63,11.66,3.88,21.76,4.41,32.17-1.9,21.34-2.83,46.81-8.53,76.43q10.67,10.2,47.14,12.18,6.84-84.12,3.43-138.88-11.84-9.34-29.31-30.32a41.28,41.28,0,0,1,9-11.3q-3.9-1.29-10.3-6.35-.51-9.44.48-27.38Z"/><path class="cls-5" d="M173.63,209c7,74.36,9.89,122.69,14,139.46a44.2,44.2,0,0,0,26.07-12.14c-1.47-42.31-6.4-69.33-8.49-94.06,3.76-40.6,11.48-77.93,3.16-95.28q-13.37-9-23.31-10.46,5,17.92,6.5,28.08c-3.12,1.42-5.77,2.66-7.93,3.7,2.93,2,6,4.14,9.11,6.5a215.69,215.69,0,0,1-19.1,34.2Z"/><path class="cls-5" d="M218.91,159.08q-5-6.12-10.55-12.07c5.76,12,3.84,33.64.84,59.3,5.81,7.2,18.31,20.07,29,28.07,22,1.26,45.5-3.83,81.77-14.81,1.46-3.77,1-10-.47-15.27-35.33,2-56.91,1.69-71.08,5.35-9.18-22.87-20.82-36.43-29.52-50.57Z"/><path class="cls-13" d="M148.93,148.36c-6.39-8.4-11.71-16-17.53-20.83a64,64,0,0,1,1.75-6.4c.33-.92,2.3-2,4.94-2.48-.24.42-.76,2.2-.33,2.48.11.07.2.17.3.24a100.9,100.9,0,0,0,20.74,13.12c-3.83,4.47-6.48,9.14-9.87,13.87Z"/><path class="cls-13" d="M174.06,129.77a93.11,93.11,0,0,1-.41,13.43,19.15,19.15,0,0,0-7.28-9.82q-.8-6.91-1.09-12.95,5.76,2.17,8.78,9.34Z"/><path class="cls-14" d="M181.7,300.32c-2.12-23.48-4.57-54.13-8.07-91.29q3.09-46.07,3.18-77.87c-.84-.32-1.76-.6-2.74-.87a88.88,88.88,0,0,1-.42,12.91,19.15,19.15,0,0,0-7.28-9.82c-1.09,2.11-1.42,4.42-3.2,7-1.89-2-3.69-3.86-4.86-5.3-3.57,4.28-6.14,8.77-9.38,13.28-6.32-8.31-11.59-15.89-17.35-20.67-2,1-3.72,2-5.29,2.89q12.13,43.56,22.79,81.39,2.35,37.69-.17,89.32a82.75,82.75,0,0,0,8.76.87v-.3a1.28,1.28,0,0,1,1.26-1.27l12.28-.35a1.23,1.23,0,0,1,1.28,1.2v.23c3-.32,6.07-.78,9.21-1.35Z"/><path class="cls-15" d="M170.74,146.6q-3.27-5.25-7.57-6.22c-2.14.93-4.43,3.11-6.88,6.51q2.88,5,6.08,6.92-6,38-5.58,105.84,4.59,10.11,9,14.6a39.19,39.19,0,0,0,6.57-16.15q-4.19-71.21-5-103.91a15.22,15.22,0,0,0,3.39-7.59Z"/><path class="cls-15" d="M156.29,137.63c-1.39,1.9-2.68,3.82-4,5.77,1.19.78,2.69,1.69,4.54,2.74a21.91,21.91,0,0,1,4.69-4.83c-1.79-1.32-3.55-2.55-5.26-3.68Zm11.62-3a27.15,27.15,0,0,1-2.76,6.48,12.85,12.85,0,0,1,4.51,3.94,18.18,18.18,0,0,0,1.92-6.19,18.62,18.62,0,0,0-3.67-4.23Z"/><path class="cls-12" d="M210.05,480.12q.24-57.08-3.84-134.38c-5.1,3.05-11.67,5.4-20.07,7.21-2-5.34-3.87-18-6.57-41.1a70.67,70.67,0,0,1-7.08,1.5v1.32a1.29,1.29,0,0,1-1.28,1.27l-12.28.35a1.21,1.21,0,0,1-1.26-1.21v-.93q-3.34-.15-6.75-.58c-1.28,19.44-1.77,32.45-2.78,42-20.17-2.53-32.29-4.72-42-8.79a1063.41,1063.41,0,0,0-8.28,124Q85.43,497.35,91,600.57q10.54,2.32,23.93,0,10.53-46.44,18.33-122.21,11-36.27,22.73-102Q158.4,421,168.78,477.2q-3.5,41.54,12.17,122,8.22.78,25.91-2.33-1.81-65.43,3.19-116.75Z"/><path class="cls-11" d="M148.14,355.54c1-9.52,1.5-22.53,2.78-42-.88-.12-1.76-.24-2.64-.38q-1,18-2.63,37.66-26.28-1.43-39.16-7.11c-.12,1-.26,2-.39,3,9.75,4.07,21.87,6.26,42,8.79Zm38-2.59c8.4-1.81,15-4.16,20.07-7.21-.06-1.15-.13-2.29-.19-3.46a44.78,44.78,0,0,1-18.4,6.21c-1.73-7.06-3.25-19.72-4.94-37.56-1,.34-2.06.64-3.11.92,2.7,23.12,4.55,35.76,6.57,41.1Z"/><path class="cls-11" d="M90.28,612.08c1.12,1.09,1.49.78,2.29.24,1.3-7.1,14.7-7.93,18-.67a3.73,3.73,0,0,0,2.09-1.85c2.34,4.6,7.63,9.11,6.23,17.12-3.57,5.13-21.91,7.67-30.6-2.82-2.46-4,.57-9.05,2-12Zm92.5-7.81c-2.24,6.08-2.75,11.07-.1,13,6.75,1.36,20.56,1.19,41.86,4,15-1.07,21.55-5.35,17.74-10.11A53,53,0,0,1,206.9,601q-2.94,11.94-24.12,3.31Z"/><path class="cls-10" d="M91.65,600.69c-.37,4.26-.72,8.14-1.07,11.67.89.75,1.26.45,2,0,1.3-7.1,14.7-7.93,18-.67h0l0,0h0l0,0h0l0,0h.06l0,0H111l0,0H111l0,0h.07l0,0h.06l0,0h0l.06,0v0h.08v0h0v0h0l0,0,0,0h0l0,0,0,0h0l0,0h.07l0,0h0l0,0h0q-.88-4.27-1.5-9.68a58.49,58.49,0,0,1-18.7-.55Zm112.8-3.41a19.73,19.73,0,0,0,2.07,4.94c-.08.21-.16.41-.25.6a8.42,8.42,0,0,1-1.46,2.31h0a4.47,4.47,0,0,1-.63.6h0l-.21.18,0,0a8.09,8.09,0,0,1-2.64,1.38h0l-.27.08-.05,0a1.28,1.28,0,0,1-.28.07h0l-.3.08h0l-.3.06H200l-.29.05h0a15.62,15.62,0,0,1-3.34.15h-.05l-.37,0h0l-.37,0h-.08l-.36,0H195l-.39,0h0l-.42-.05-.09,0a30.71,30.71,0,0,1-3.18-.63l-.12,0-.43-.11-.06,0-.56-.15-.39-.11-.14,0-.39-.12-.16,0-.4-.11-.12,0-.44-.14-.12,0-.44-.15-.1,0-.48-.15-.11,0-.46-.17-.57-.2-1.11-.42-.09,0-.59-.22a43,43,0,0,0-.25-5.26q7.56.21,21.12-2.06Z"/><path class="cls-16" d="M212,165.29c.45,11.35-1,25.44-2.79,41,5.81,7.2,18.31,20.07,29,28.07,22,1.26,45.5-3.83,81.77-14.81a447.67,447.67,0,0,1-80.86,10.6q-8.35-6-25.71-25.39Q214,190,212,165.29Z"/><path class="cls-16" d="M109.9,261.35q-1.92-23.76-3.6-40.86a42,42,0,0,1-3.67,9.58c1.63,11.66,3.88,21.76,4.41,32.17-1.9,21.34-2.83,46.81-8.53,76.43a23.34,23.34,0,0,0,2.16,1.79q7-27.37,9.23-79.11Z"/><path class="cls-17" d="M148.28,313.19a73.68,73.68,0,0,0,34.4-2.26c-.32-3.36-.65-6.89-1-10.61a97.81,97.81,0,0,1-32.79,1c-.2,3.91-.4,7.87-.63,11.9Z"/><path class="cls-18" d="M158.93,300.59l12.28-.35a1.24,1.24,0,0,1,1.28,1.23v13.17a1.31,1.31,0,0,1-1.28,1.3l-12.28.35a1.22,1.22,0,0,1-1.26-1.23V301.89a1.3,1.3,0,0,1,1.26-1.3Z"/><path class="cls-17" d="M160.1,302.93v10.94l9.94-.28V302.65Z"/><path class="cls-10" d="M123.44,130.19c.47,0,1,.05,1.49.05l-.45.4Zm2.75,0,.87-.06c-.27.15-.51.31-.77.44Zm11.26-9.32a24,24,0,0,0,1.53-3.7c-.65-1.86-1.34-4.21-2-7.06q-18.23-12.37-5-18.31,2.67,1.5,6.62,9.22a5.42,5.42,0,0,0,4.79-3.24,158.05,158.05,0,0,1-4.89-21.16c6-8.89,20-10.17,38.53-7.77q1.27,7.41,2.11,15.68c3.28,3,2.86,14.22-.16,27.11q1.92,9.39-9.29,11.51l0,0c-1,.18-1.78.31-2.48.39s-1.18.12-1.79.16c.19,1.17.58,5.46.69,6.67.1,1,.22,2,.33,3-.91,1.75-1.3,3.64-2.42,5.72a10,10,0,0,1-1.49.54c-1.63-1.7-3.12-3.31-4.15-4.56l.49-.59c-.49-.24-1-.46-1.46-.71a101.3,101.3,0,0,1-19.89-12.9Z"/><path class="cls-19" d="M165.35,123.67a53.59,53.59,0,0,1-11.16-.33,42.82,42.82,0,0,0,11.71,5.57c-.07-.77-.14-1.52-.2-2.27-.13-1.25-.26-2.44-.35-3Z"/><path class="cls-5" d="M141.9,371l-5.39,125.13L0,481.79,16.17,371Z"/><path class="cls-11" d="M159.26,480.74a54.87,54.87,0,0,0-22.75,15.42L141.9,371l6.14-.15Z"/><path class="cls-11" d="M141.9,371,126,421.22c-2.29,5.57-4.63,10.44-13.88,9.67l-87.6-5.55c-7.81-.49-8-4.43-8.06-9.79V371Z"/><path class="cls-4" d="M78.66,422l-22.29-1.44a2.51,2.51,0,0,0-2.63,2l-3,19.78a2.09,2.09,0,0,0,1.79,2.48l23.18,2.34a2.44,2.44,0,0,0,2.65-2l2.12-20.7A2.06,2.06,0,0,0,78.66,422Z"/><path class="cls-11" d="M74.54,427.31l-1.44,14-16.33-1.66,2-13.33Z"/><path class="cls-11" d="M115.72,371A22.91,22.91,0,0,0,106.84,359a35.27,35.27,0,0,0-6.16-3.56c-1.31-3.43-9.23-6.31-18.9-6.68-10.24-.38-18.74,2.18-19.57,5.8-.65.28-1.27.58-1.9.9-6.42,3.29-11.24,8.45-12.79,15.61h4.71c1.51-5.25,5.25-9.09,10.15-11.6.66-.32,1.33-.65,2-.94,3.21,2.29,9.52,4,16.84,4.29,7.65.3,14.33-1.06,17.56-3.28a31.28,31.28,0,0,1,5.37,3.11,18.73,18.73,0,0,1,6.7,8.42Z"/><path class="cls-10" d="M93.53,357.21c.06,2.8,1.07,7-.72,9.07-4.7,5.3-16.19,5.65-21.13,2.25-2.13-1.46-2.37-6.24-2.44-9.31a55.13,55.13,0,0,0,4.13-18c5-3.33,12.63-3.65,15.16-1.92Z"/><path class="cls-3" d="M446.16,535.92c-37.6,0-68.09,6.87-68.09,15.34s30.49,15.35,68.09,15.35,68.08-6.88,68.08-15.35-30.49-15.34-68.08-15.34Z"/><path class="cls-3" d="M455.69,488.06c-37.61,0-68.09,6.86-68.09,15.34s30.48,15.35,68.09,15.35,68.07-6.87,68.07-15.35-30.48-15.34-68.07-15.34Z"/><path class="cls-3" d="M459.41,515.28c-37.6,0-68.07,6.87-68.07,15.34S421.81,546,459.41,546s68.08-6.88,68.08-15.35S497,515.28,459.41,515.28Z"/><path class="cls-3" d="M468.94,467.42c-37.6,0-68.07,6.87-68.07,15.34s30.47,15.35,68.07,15.35S537,491.24,537,482.76s-30.49-15.34-68.08-15.34Z"/><path class="cls-9" d="M446.16,583.93c-37.6,0-68.09-6.88-68.09-15.36V551.26c0,8.47,30.49,15.34,68.09,15.34s68.08-6.87,68.08-15.34v17.31c0,8.48-30.49,15.36-68.08,15.36Z"/><path class="cls-9" d="M455.69,536.06c-37.6,0-68.09-6.86-68.09-15.35V503.4c0,8.47,30.49,15.35,68.09,15.35s68.07-6.88,68.07-15.35v17.31c0,8.49-30.48,15.35-68.07,15.35Z"/><path class="cls-9" d="M459.41,563.29c-37.6,0-68.07-6.88-68.07-15.35V530.62c0,8.47,30.47,15.35,68.07,15.35s68.08-6.88,68.08-15.35v17.32c0,8.47-30.48,15.35-68.08,15.35Z"/><path class="cls-9" d="M468.94,515.42c-37.6,0-68.07-6.86-68.07-15.34V482.77c0,8.47,30.47,15.34,68.07,15.34S537,491.24,537,482.77v17.31c0,8.48-30.49,15.34-68.08,15.34Z"/><path class="cls-3" d="M333,578.65c-37.6,0-68.07,6.87-68.07,15.34s30.47,15.35,68.07,15.35,68.08-6.88,68.08-15.35S370.65,578.65,333,578.65Z"/><path class="cls-3" d="M334.49,534.41c37.6,0,68.08,6.86,68.08,15.33s-30.48,15.36-68.08,15.36-68.08-6.87-68.08-15.36,30.48-15.33,68.08-15.33Z"/><path class="cls-3" d="M330.68,493c37.61,0,68.08,6.88,68.08,15.36s-30.47,15.33-68.08,15.33-68.07-6.86-68.07-15.33S293.08,493,330.68,493Z"/><path class="cls-3" d="M346.3,558c-37.6,0-68.08,6.87-68.08,15.36S308.7,588.7,346.3,588.7s68.08-6.86,68.08-15.33S383.9,558,346.3,558Z"/><path class="cls-3" d="M321.24,513.77c37.6,0,68.07,6.88,68.07,15.35s-30.47,15.34-68.07,15.34-68.08-6.87-68.08-15.34,30.47-15.35,68.08-15.35Z"/><path class="cls-3" d="M317.43,472.39c37.6,0,68.08,6.86,68.08,15.34S355,503.08,317.43,503.08s-68.08-6.88-68.08-15.35,30.49-15.34,68.08-15.34Z"/><path class="cls-9" d="M333.05,626.66c-37.61,0-68.08-6.87-68.08-15.35V594c0,8.47,30.47,15.35,68.08,15.35s68.07-6.88,68.07-15.35v17.32c0,8.48-30.47,15.35-68.07,15.35Z"/><path class="cls-9" d="M334.49,582.41c37.6,0,68.08-6.87,68.08-15.34V549.74c0,8.49-30.48,15.36-68.08,15.36s-68.07-6.87-68.07-15.36v17.33c0,8.47,30.47,15.34,68.07,15.34Z"/><path class="cls-9" d="M330.68,541c37.61,0,68.08-6.88,68.08-15.35V508.37c0,8.47-30.47,15.33-68.08,15.33s-68.07-6.86-68.07-15.33v17.31c0,8.47,30.47,15.35,68.07,15.35Z"/><path class="cls-9" d="M346.3,606c-37.6,0-68.08-6.87-68.08-15.34V573.35c0,8.49,30.48,15.35,68.08,15.35s68.08-6.86,68.08-15.35v17.33c0,8.47-30.48,15.34-68.08,15.34Z"/><path class="cls-9" d="M321.24,561.77c37.6,0,68.07-6.86,68.07-15.34V529.12c0,8.47-30.47,15.34-68.07,15.34s-68.08-6.87-68.08-15.34v17.31c0,8.48,30.47,15.34,68.08,15.34Z"/><path class="cls-9" d="M317.43,520.39c37.6,0,68.08-6.86,68.08-15.35V487.73c0,8.47-30.48,15.35-68.08,15.35s-68.08-6.88-68.08-15.35V505c0,8.49,30.49,15.35,68.08,15.35Z"/><path class="cls-4" d="M437.71,475a10.92,10.92,0,0,0-3.95,6l-9.31.19-.54,4,10-.22c1.52,4.35,7.86,6.81,16.47,6.63,8.88-.18,13.82-3.12,18.4-7.21,4-3.87,7.09-5.29,11.58-5.38s7.63,1.28,7.23,4.26c-.34,2.6-2.6,5.07-4.84,6.72l9.69,1a12.84,12.84,0,0,0,4.77-7l10-.21.55-4.05-10.72.22c-1.32-4.63-8.16-7.2-17.13-7-9.13.19-14.34,2.52-19.65,7.49-3.86,3.32-6.55,5.16-10.6,5.24-3.43.07-6.84-1.27-6.48-4,.33-2.4,2.44-4.46,3.91-5.72Z"/><path class="cls-4" d="M289.3,480.36a10.79,10.79,0,0,0-4,6l-9.31.19-.54,4,10-.21c1.53,4.33,7.87,6.81,16.48,6.63,8.88-.18,13.82-3.12,18.39-7.21,4-3.88,7.1-5.29,11.58-5.38s7.64,1.27,7.24,4.25c-.34,2.6-2.6,5.08-4.84,6.73l9.68,1a12.73,12.73,0,0,0,4.78-7l10-.2.53-4-10.73.22c-1.31-4.63-8.15-7.2-17.12-7-9.13.19-14.34,2.52-19.66,7.49-3.86,3.32-6.54,5.16-10.58,5.23-3.43.08-6.86-1.26-6.49-4,.32-2.4,2.44-4.46,3.91-5.72Z"/></g></g></g></svg>