<svg xmlns="http://www.w3.org/2000/svg" viewBox="0 0 670 593.25"><defs><style>.cls-1{fill:#ececec;}.cls-2{fill:#e1e1e1;}.cls-3{fill:#fafafa;}.cls-13,.cls-14,.cls-15,.cls-17,.cls-19,.cls-23,.cls-3,.cls-7,.cls-8,.cls-9{isolation:isolate;}.cls-4{fill:#f5f5f5;}.cls-5{fill:#e7e7e7;}.cls-6{fill:#3380db;}.cls-11,.cls-13,.cls-15,.cls-21,.cls-22,.cls-23,.cls-7{fill:#fff;}.cls-22,.cls-7{opacity:0.7;}.cls-23,.cls-8{opacity:0.1;}.cls-14,.cls-9{opacity:0.3;}.cls-10,.cls-15{opacity:0.4;}.cls-12{fill:#007cff;}.cls-13,.cls-17,.cls-19{opacity:0.2;}.cls-16{fill:#e4897b;}.cls-18{fill:#1a2e35;}.cls-20{fill:#eec1bb;}.cls-21{opacity:0.6;}.cls-24{fill:#d4827d;}.cls-25,.cls-26{fill:none;stroke:#1a2e35;stroke-linecap:round;stroke-linejoin:round;}.cls-25{stroke-width:0.69px;}.cls-26{stroke-width:0.5px;}</style></defs><g id="Layer_2" data-name="Layer 2"><g id="Layer_1-2" data-name="Layer 1"><rect class="cls-1" x="602.75" y="546.97" width="52.74" height="0.4"/><rect class="cls-1" x="452.68" y="551.29" width="13.84" height="0.4"/><rect class="cls-1" x="570.6" y="532.19" width="30.56" height="0.4"/><rect class="cls-1" x="22.69" y="534.86" width="68.77" height="0.4"/><rect class="cls-1" x="105.64" y="534.86" width="10.08" height="0.4"/><rect class="cls-1" x="148.49" y="541.59" width="149.15" height="0.4"/><path class="cls-1" d="M316.53,450.34H9.09A9.1,9.1,0,0,1,0,441.25V9.09A9.1,9.1,0,0,1,9.09,0H316.53a9.1,9.1,0,0,1,9.09,9.09V441.25A9.1,9.1,0,0,1,316.53,450.34ZM9.09.4A8.7,8.7,0,0,0,.4,9.09V441.25a8.7,8.7,0,0,0,8.69,8.69H316.53a8.7,8.7,0,0,0,8.69-8.69V9.09A8.7,8.7,0,0,0,316.53.4Z"/><path class="cls-1" d="M660.91,450.34H353.47a9.1,9.1,0,0,1-9.09-9.09V9.09A9.1,9.1,0,0,1,353.47,0H660.91A9.1,9.1,0,0,1,670,9.09V441.25A9.1,9.1,0,0,1,660.91,450.34ZM353.47.4a8.7,8.7,0,0,0-8.69,8.69V441.25a8.7,8.7,0,0,0,8.69,8.69H660.91a8.7,8.7,0,0,0,8.69-8.69V9.09A8.7,8.7,0,0,0,660.91.4Z"/><rect class="cls-2" x="430.7" y="491.31" width="223.29" height="30.25" rx="2.38"/><path class="cls-3" d="M458.67,499.46H438a2.08,2.08,0,0,1-2.08-2.08h0A2.08,2.08,0,0,1,438,495.3h20.69a2.08,2.08,0,0,1,2.08,2.08h0A2.08,2.08,0,0,1,458.67,499.46Z"/><path class="cls-3" d="M522.36,507.66H438a2.08,2.08,0,0,1-2.08-2.08h0a2.08,2.08,0,0,1,2.08-2.07h84.38a2.08,2.08,0,0,1,2.08,2.07h0A2.08,2.08,0,0,1,522.36,507.66Z"/><path class="cls-3" d="M511.21,515.62H438a2.08,2.08,0,0,1-2.08-2.07h0a2.08,2.08,0,0,1,2.08-2.08h73.23a2.08,2.08,0,0,1,2.08,2.08h0A2.08,2.08,0,0,1,511.21,515.62Z"/><rect class="cls-2" x="410.17" y="423.93" width="223.29" height="30.25" rx="2.38"/><path class="cls-3" d="M438.14,432.08H417.45a2.08,2.08,0,0,1-2.08-2.08h0a2.08,2.08,0,0,1,2.08-2.08h20.69a2.08,2.08,0,0,1,2.08,2.08h0A2.08,2.08,0,0,1,438.14,432.08Z"/><path class="cls-3" d="M501.83,440.28H417.45a2.08,2.08,0,0,1-2.08-2.07h0a2.08,2.08,0,0,1,2.08-2.08h84.38a2.08,2.08,0,0,1,2.08,2.08h0A2.08,2.08,0,0,1,501.83,440.28Z"/><path class="cls-3" d="M490.69,448.25H417.45a2.08,2.08,0,0,1-2.08-2.08h0a2.08,2.08,0,0,1,2.08-2.08h73.24a2.08,2.08,0,0,1,2.07,2.08h0A2.08,2.08,0,0,1,490.69,448.25Z"/><rect class="cls-1" x="395.54" y="457.9" width="223.29" height="30.25" rx="2.38"/><path class="cls-3" d="M423.52,466.05h-20.7a2.08,2.08,0,0,1-2.08-2.07h0a2.08,2.08,0,0,1,2.08-2.08h20.7a2.08,2.08,0,0,1,2.07,2.08h0A2.07,2.07,0,0,1,423.52,466.05Z"/><path class="cls-3" d="M487.2,474.26H402.82a2.08,2.08,0,0,1-2.08-2.08h0a2.08,2.08,0,0,1,2.08-2.08H487.2a2.08,2.08,0,0,1,2.08,2.08h0A2.08,2.08,0,0,1,487.2,474.26Z"/><path class="cls-3" d="M476.06,482.22H402.82a2.08,2.08,0,0,1-2.08-2.08h0a2.08,2.08,0,0,1,2.08-2.08h73.24a2.08,2.08,0,0,1,2.07,2.08h0A2.08,2.08,0,0,1,476.06,482.22Z"/><polygon class="cls-2" points="40.63 346.81 4.83 521.75 173.53 521.75 40.63 346.81"/><polygon class="cls-4" points="285.8 521.75 69.71 521.75 40.63 346.81 256.73 346.81 285.8 521.75"/><polygon class="cls-1" points="94.88 409.76 60.67 409.76 56.19 383.04 90.39 383.04 94.88 409.76"/><polygon class="cls-1" points="135.58 409.22 101.38 409.22 96.89 382.5 131.1 382.5 135.58 409.22"/><polygon class="cls-1" points="176.29 408.68 142.08 408.68 137.6 381.96 171.8 381.96 176.29 408.68"/><polygon class="cls-1" points="216.99 408.14 182.79 408.14 178.31 381.41 212.51 381.41 216.99 408.14"/><polygon class="cls-1" points="257.7 407.6 223.49 407.6 219.01 380.87 253.21 380.87 257.7 407.6"/><polygon class="cls-1" points="100.41 442.71 66.2 442.71 61.72 415.99 95.92 415.99 100.41 442.71"/><polygon class="cls-1" points="141.11 442.17 106.91 442.17 102.42 415.44 136.63 415.44 141.11 442.17"/><polygon class="cls-1" points="181.81 441.63 147.61 441.63 143.13 414.9 177.33 414.9 181.81 441.63"/><polygon class="cls-1" points="222.52 441.08 188.32 441.08 183.83 414.36 218.03 414.36 222.52 441.08"/><polygon class="cls-1" points="263.22 440.54 229.02 440.54 224.54 413.82 258.74 413.82 263.22 440.54"/><polygon class="cls-1" points="105.93 475.65 71.73 475.65 67.25 448.93 101.45 448.93 105.93 475.65"/><polygon class="cls-1" points="146.64 475.11 112.43 475.11 107.95 448.39 142.15 448.39 146.64 475.11"/><polygon class="cls-1" points="187.34 474.57 153.14 474.57 148.66 447.85 182.86 447.85 187.34 474.57"/><polygon class="cls-1" points="228.05 474.03 193.84 474.03 189.36 447.3 223.56 447.3 228.05 474.03"/><polygon class="cls-1" points="268.75 473.49 234.55 473.49 230.06 446.76 264.27 446.76 268.75 473.49"/><polygon class="cls-1" points="111.46 508.6 77.26 508.6 72.77 481.88 106.98 481.88 111.46 508.6"/><polygon class="cls-1" points="152.16 508.06 117.96 508.06 113.48 481.33 147.68 481.33 152.16 508.06"/><polygon class="cls-1" points="192.87 507.52 158.67 507.52 154.18 480.79 188.39 480.79 192.87 507.52"/><polygon class="cls-1" points="233.57 506.97 199.37 506.97 194.89 480.25 229.09 480.25 233.57 506.97"/><polygon class="cls-1" points="274.28 506.43 240.08 506.43 235.59 479.71 269.8 479.71 274.28 506.43"/><polygon class="cls-5" points="260.53 369.49 44.44 369.49 40.63 346.81 256.73 346.81 260.53 369.49"/><path class="cls-1" d="M393,337.22l-2.79-2.59a4.26,4.26,0,0,0-3.74-1.09l-15.34,3.07a3.78,3.78,0,0,0-2.83,2.41l-1.22,3.4a3.76,3.76,0,0,1-2.83,2.41l-9.15,1.84a3.78,3.78,0,0,0-2.92,4.73L365.45,402a4.34,4.34,0,0,0,5,3.14L443,390.63a3.79,3.79,0,0,0,2.93-4.73l-13.24-50.63a4.34,4.34,0,0,0-5-3.15l-30.89,6.2A4.31,4.31,0,0,1,393,337.22Z"/><path class="cls-4" d="M435.91,335.55l-66.46,13.33A5.69,5.69,0,0,0,365,355l4.9,45.16a4.6,4.6,0,0,0,5.57,4.06l66.46-13.33a5.69,5.69,0,0,0,4.47-6.07l-4.9-45.16A4.58,4.58,0,0,0,435.91,335.55Z"/><path class="cls-1" d="M623.57,220.59,622,217.14a4.31,4.31,0,0,0-3.06-2.42l-15.38-2.9A3.76,3.76,0,0,0,600,213l-2.41,2.69a3.74,3.74,0,0,1-3.52,1.18l-9.18-1.73a3.78,3.78,0,0,0-4.48,3.29l-6.72,51.9a4.34,4.34,0,0,0,3.44,4.78l72.7,13.72a3.77,3.77,0,0,0,4.48-3.29l6.72-51.9a4.34,4.34,0,0,0-3.44-4.78l-31-5.84A4.31,4.31,0,0,1,623.57,220.59Z"/><path class="cls-4" d="M663.94,235.11l-66.61-12.57a5.7,5.7,0,0,0-6.42,4l-12.39,43.7a4.58,4.58,0,0,0,3.64,5.85l66.6,12.57a5.7,5.7,0,0,0,6.42-4l12.4-43.7A4.59,4.59,0,0,0,663.94,235.11Z"/><path class="cls-1" d="M60.45,109.75l-1.61-3.45a4.29,4.29,0,0,0-3.06-2.41L40.41,101a3.77,3.77,0,0,0-3.53,1.18l-2.4,2.69A3.78,3.78,0,0,1,31,106l-9.18-1.74a3.78,3.78,0,0,0-4.48,3.29l-6.72,51.9A4.35,4.35,0,0,0,14,164.27L86.71,178a3.79,3.79,0,0,0,4.49-3.29l6.71-51.9A4.35,4.35,0,0,0,94.48,118l-31-5.84A4.31,4.31,0,0,1,60.45,109.75Z"/><path class="cls-4" d="M100.82,124.28,34.21,111.71a5.69,5.69,0,0,0-6.42,4L15.4,159.36A4.58,4.58,0,0,0,19,165.21l66.61,12.57a5.67,5.67,0,0,0,6.41-3.95l12.4-43.7A4.58,4.58,0,0,0,100.82,124.28Z"/><path class="cls-1" d="M292.38,167.07l-3.71-4.6a6.65,6.65,0,0,0-5.52-2.51l-24.26,1.34a5.85,5.85,0,0,0-4.89,3.09l-2.62,5a5.84,5.84,0,0,1-4.88,3.08l-14.48.8a5.87,5.87,0,0,0-5.54,6.63l9.17,80.77a6.76,6.76,0,0,0,7,5.94l114.75-6.36a5.86,5.86,0,0,0,5.53-6.63l-9.17-80.76a6.74,6.74,0,0,0-7-5.94l-48.87,2.71A6.69,6.69,0,0,1,292.38,167.07Z"/><path class="cls-4" d="M358.66,174l-105.13,5.82a8.83,8.83,0,0,0-8.2,8.35l-2.44,70.51a7.12,7.12,0,0,0,7.66,7.48l105.13-5.82a8.86,8.86,0,0,0,8.21-8.36l2.44-70.51A7.11,7.11,0,0,0,358.66,174Z"/><path class="cls-1" d="M332.66,23.12l-2.89-2.48a4.27,4.27,0,0,0-3.78-.95l-15.21,3.68a3.78,3.78,0,0,0-2.73,2.53L307,29.34a3.76,3.76,0,0,1-2.73,2.52l-9.08,2.2a3.78,3.78,0,0,0-2.73,4.84L307.67,89a4.34,4.34,0,0,0,5.1,3l71.91-17.42a3.78,3.78,0,0,0,2.73-4.84L372.17,19.59a4.35,4.35,0,0,0-5.1-2.95l-30.62,7.42A4.32,4.32,0,0,1,332.66,23.12Z"/><path class="cls-4" d="M375.43,19.74l-65.88,16a5.68,5.68,0,0,0-4.22,6.24L312,86.87a4.58,4.58,0,0,0,5.72,3.84l65.88-16a5.68,5.68,0,0,0,4.22-6.24l-6.69-44.93A4.58,4.58,0,0,0,375.43,19.74Z"/><ellipse id="_Path_" data-name="&lt;Path&gt;" class="cls-4" cx="337.21" cy="575.22" rx="308.7" ry="18.03"/><path class="cls-6" d="M609.12,51.5V325.18a8.07,8.07,0,0,1-8.06,8.06H65.65a8.07,8.07,0,0,1-8.06-8.06V51.5a8.05,8.05,0,0,1,8.06-8H601.06A8.05,8.05,0,0,1,609.12,51.5Z"/><path class="cls-7" d="M609.12,83.43V325.18a8.07,8.07,0,0,1-8.06,8.06H65.65a8.07,8.07,0,0,1-8.06-8.06V83.43Z"/><path class="cls-8" d="M114.9,83.43V333.24H65.65a8.07,8.07,0,0,1-8.06-8.06V83.43Z"/><rect class="cls-8" x="166.56" y="83.43" width="57.3" height="249.81"/><rect class="cls-8" x="275.53" y="83.43" width="57.3" height="249.81"/><rect class="cls-8" x="384.5" y="83.43" width="57.3" height="249.81"/><rect class="cls-8" x="493.46" y="83.43" width="57.3" height="249.81"/><rect class="cls-7" x="57.59" y="83.43" width="551.52" height="22.94"/><g class="cls-9"><path d="M79,91H80.1L79,98H78l-.61-3.9L76.79,98h-1L74.58,91H75.7l.56,3.79L76.78,91H77.9l.56,3.79Z"/><path d="M81,98V91h3V92h-2V94h1.45V95H82.06V97h2V98Z"/><path d="M84.77,98V91h3V92h-2V94h1.44V95H85.84V97h2V98Z"/><path d="M89.62,95.79V98H88.55V91h1.07v2.53L90.92,91h1.14L90.6,93.84,92.32,98H91.06l-1.12-2.88Z"/><path d="M94.69,98V92.58h-.91v-.74a1.66,1.66,0,0,0,.74-.29A1.58,1.58,0,0,0,95,91h.74V98Z"/><path d="M133.22,91h1.12L133.23,98h-1l-.61-3.9L131,98h-1L128.83,91h1.11l.56,3.79L131,91h1.12l.56,3.79Z"/><path d="M135.24,98V91h3V92h-2V94h1.45V95H136.3V97h2V98Z"/><path d="M139,98V91h3V92h-2V94h1.44V95h-1.44V97h2V98Z"/><path d="M143.86,95.79V98h-1.07V91h1.07v2.53l1.3-2.53h1.14l-1.46,2.89,1.72,4.2H145.3l-1.12-2.88Z"/><path d="M148,93a2,2,0,0,1,.55-1.54,1.66,1.66,0,0,1,1.23-.46,1.56,1.56,0,0,1,1.19.52,1.74,1.74,0,0,1,.5,1.23,3.21,3.21,0,0,1-.32,1.39,10.78,10.78,0,0,1-.82,1.29c-.12.16-.29.42-.52.77l-.2.29-.28.45a.27.27,0,0,0,0,.1h2.09V98H148v-1a2.1,2.1,0,0,1,.23-.39l.24-.36.28-.4.77-1.07a7.12,7.12,0,0,0,.73-1.25,2.14,2.14,0,0,0,.2-.85.87.87,0,0,0-.18-.55.66.66,0,0,0-1.14.28,1.21,1.21,0,0,0-.07.41v.27H148Z"/><path d="M188.22,91h1.12L188.23,98h-1l-.61-3.9L186,98h-1L183.82,91h1.12l.56,3.79L186,91h1.12l.56,3.79Z"/><path d="M190.24,98V91h3V92h-2V94h1.45V95H191.3V97h2V98Z"/><path d="M194,98V91h3V92h-2V94h1.44V95h-1.44V97h2V98Z"/><path d="M198.86,95.79V98h-1.07V91h1.07v2.53l1.3-2.53h1.14l-1.46,2.89,1.72,4.2H200.3l-1.12-2.88Z"/><path d="M204.69,97c.49,0,.73-.22.73-.68v-.42c0-.72-.38-1.09-1.14-1.09v-.91a1.14,1.14,0,0,0,.91-.35,1.26,1.26,0,0,0,.27-.87v-.16c0-.46-.2-.7-.61-.7a.56.56,0,0,0-.5.26,1,1,0,0,0-.11.51v.19h-1.05v-.16a2,2,0,0,1,.38-1.24,1.49,1.49,0,0,1,1.23-.54,1.52,1.52,0,0,1,1.2.51,1.61,1.61,0,0,1,.41,1.14v.3A1.75,1.75,0,0,1,206,94a1.9,1.9,0,0,1-.4.35,1.73,1.73,0,0,1,.74.81,1.51,1.51,0,0,1,.13.67v.56a1.7,1.7,0,0,1-.54,1.29,1.73,1.73,0,0,1-1.23.48,1.6,1.6,0,0,1-1.2-.49,1.63,1.63,0,0,1-.49-1.2v-.17l1-.08,0,.25a.6.6,0,0,0,.19.43A.54.54,0,0,0,204.69,97Z"/><path d="M243.12,91h1.12L243.13,98h-1l-.61-3.9-.57,3.9h-1L238.73,91h1.12l.56,3.79.51-3.79H242l.56,3.79Z"/><path d="M245.14,98V91h3V92h-2V94h1.44V95h-1.44V97h2V98Z"/><path d="M248.92,98V91h3V92h-2V94h1.44V95H250V97h2V98Z"/><path d="M253.76,95.79V98h-1.07V91h1.07v2.53L255.07,91h1.14l-1.46,2.89,1.71,4.2h-1.25l-1.13-2.88Z"/><path d="M257.93,95.43,259.82,91h1.07v4.48h.68v1.08h-.68V98h-1.07V96.51h-1.89Zm1.89,0V93.22l-.88,2.21Z"/><path d="M298.28,91h1.12L298.29,98h-1l-.61-3.9L296.1,98h-1L293.89,91H295l.56,3.79.51-3.79h1.12l.56,3.79Z"/><path d="M300.3,98V91h3V92h-2V94h1.44V95h-1.44V97h2V98Z"/><path d="M304.08,98V91h3V92h-2V94h1.44V95h-1.44V97h2V98Z"/><path d="M308.92,95.79V98h-1.07V91h1.07v2.53L310.23,91h1.14l-1.47,2.89,1.72,4.2h-1.26l-1.12-2.88Z"/><path d="M314.27,92v1.52a1,1,0,0,1,.44-.35,1,1,0,0,1,.36-.06,1.16,1.16,0,0,1,1,.49,2.13,2.13,0,0,1,.29,1.2v1.52a1.75,1.75,0,0,1-.5,1.29,1.6,1.6,0,0,1-1.2.49,1.5,1.5,0,0,1-1.16-.51,1.68,1.68,0,0,1-.45-1.19v-.17l1-.08,0,.25a.61.61,0,0,0,.34.56.45.45,0,0,0,.19,0q.66,0,.66-.69V94.61a.68.68,0,0,0-.23-.52.52.52,0,0,0-.72.13.74.74,0,0,0-.11.41v.19H313.2V91h3.12V92Z"/><path d="M353.31,91h1.13L353.33,98h-1l-.61-3.9-.57,3.9h-1L348.92,91H350l.56,3.79.52-3.79h1.12l.56,3.79Z"/><path d="M355.34,98V91h3V92h-2V94h1.45V95H356.4V97h2V98Z"/><path d="M359.11,98V91h3V92h-2V94h1.44V95h-1.44V97h2V98Z"/><path d="M364,95.79V98h-1.07V91H364v2.53l1.3-2.53h1.14l-1.46,2.89,1.72,4.2H365.4l-1.12-2.88Z"/><path d="M370.23,92.71v-.18a.62.62,0,0,0-.14-.43.51.51,0,0,0-.78,0,.67.67,0,0,0-.14.43V94a1.17,1.17,0,0,1,.81-.33,1.22,1.22,0,0,1,1.06.49,2.07,2.07,0,0,1,.31,1.19v1.22h0a1.66,1.66,0,0,1-.49,1.14,1.51,1.51,0,0,1-1.11.45,1.49,1.49,0,0,1-1.17-.5,1.68,1.68,0,0,1-.45-1.19V92.56a1.77,1.77,0,0,1,.26-.94,1.44,1.44,0,0,1,.71-.62,1.55,1.55,0,0,1,.65-.14,1.51,1.51,0,0,1,1.16.51,1.68,1.68,0,0,1,.45,1.19v.15Zm-1.06,3.7a.69.69,0,0,0,.13.43.53.53,0,0,0,.8,0,.69.69,0,0,0,.13-.43V95.1a.64.64,0,0,0-.22-.51.45.45,0,0,0-.31-.1.47.47,0,0,0-.42.22.8.8,0,0,0-.11.4Z"/><path d="M408.31,91h1.12L408.33,98h-1l-.61-3.9-.57,3.9h-1L403.92,91H405l.56,3.79.52-3.79h1.11l.56,3.79Z"/><path d="M410.33,98V91h3V92h-2V94h1.44V95H411.4V97h2V98Z"/><path d="M414.11,98V91h3V92h-2V94h1.44V95h-1.44V97h2V98Z"/><path d="M419,95.79V98h-1.06V91H419v2.53L420.26,91h1.14l-1.46,2.89,1.71,4.2H420.4l-1.13-2.88Z"/><path d="M426.33,91V92l-1.49,6h-1l1.5-6h-2.17V91Z"/><path d="M463.18,91h1.12L463.19,98h-1l-.61-3.9L461,98h-1L458.78,91h1.12l.56,3.79L461,91h1.12l.56,3.79Z"/><path d="M465.2,98V91h3V92h-2V94h1.45V95h-1.45V97h2V98Z"/><path d="M469,98V91h3V92h-2V94h1.44V95H470V97h2V98Z"/><path d="M473.82,95.79V98h-1.07V91h1.07v2.53l1.3-2.53h1.14l-1.46,2.89,1.72,4.2h-1.26l-1.12-2.88Z"/><path d="M481.46,96.42a1.69,1.69,0,0,1-1.7,1.69h-.08a1.6,1.6,0,0,1-1.2-.49,1.65,1.65,0,0,1-.49-1.2v-.64a1.65,1.65,0,0,1,.43-1.14,1.48,1.48,0,0,1,.44-.34,1.52,1.52,0,0,1-.67-.74,1.62,1.62,0,0,1-.12-.66v-.39a1.64,1.64,0,0,1,.41-1.14,1.52,1.52,0,0,1,1.2-.51h.08a1.52,1.52,0,0,1,1.2.51,1.6,1.6,0,0,1,.41,1.14v.39A1.57,1.57,0,0,1,481,94a1.61,1.61,0,0,1-.39.31,1.71,1.71,0,0,1,.73.81,1.51,1.51,0,0,1,.14.67Zm-1-3.62c0-.48-.16-.79-.46-.91a.54.54,0,0,0-.24,0,.64.64,0,0,0-.45.16.6.6,0,0,0-.2.31,1.45,1.45,0,0,0-.05.49,1.35,1.35,0,0,0,.15.67.59.59,0,0,0,.55.27.61.61,0,0,0,.56-.29A1.14,1.14,0,0,0,480.42,92.8Zm0,3.12a1,1,0,0,0-.29-.85.61.61,0,0,0-.38-.1.58.58,0,0,0-.58.36,1.63,1.63,0,0,0-.09.59v.34a.73.73,0,0,0,.22.56.63.63,0,0,0,.45.2.67.67,0,0,0,.61-.43.81.81,0,0,0,.06-.33Z"/><path d="M518.29,91h1.12L518.3,98h-1l-.61-3.9-.57,3.9h-1L513.9,91H515l.56,3.79.51-3.79h1.12l.56,3.79Z"/><path d="M520.31,98V91h3V92h-2V94h1.44V95h-1.44V97h2V98Z"/><path d="M524.09,98V91h3V92h-2V94h1.44V95h-1.44V97h2V98Z"/><path d="M528.93,95.79V98h-1.06V91h1.06v2.53L530.24,91h1.14l-1.46,2.89,1.71,4.2h-1.25l-1.13-2.88Z"/><path d="M534.71,90.86a1.52,1.52,0,0,1,1.17.51,1.67,1.67,0,0,1,.44,1.19v3.86a1.68,1.68,0,0,1-.46,1.2,1.49,1.49,0,0,1-1.15.49,1.47,1.47,0,0,1-1.16-.5,1.68,1.68,0,0,1-.45-1.19v-.15h1.11v.18a.69.69,0,0,0,.14.43.51.51,0,0,0,.78,0,.64.64,0,0,0,.14-.43V95a1.27,1.27,0,0,1-1.86-.16,2,2,0,0,1-.31-1.2V92.45h0a1.61,1.61,0,0,1,.28-.88,1.59,1.59,0,0,1,.69-.59A1.68,1.68,0,0,1,534.71,90.86Zm.56,1.71a.65.65,0,0,0-.14-.44.51.51,0,0,0-.78,0,.7.7,0,0,0-.14.44v1.31a.62.62,0,0,0,.23.51.38.38,0,0,0,.3.1.47.47,0,0,0,.5-.43,1,1,0,0,0,0-.2Z"/><path d="M571.74,91h1.13L571.76,98h-1l-.61-3.9-.57,3.9h-1L567.35,91h1.12l.56,3.79.52-3.79h1.12l.56,3.79Z"/><path d="M573.76,98V91h3V92h-2V94h1.44V95h-1.44V97h2V98Z"/><path d="M577.54,98V91h3V92h-2V94h1.44V95h-1.44V97h2V98Z"/><path d="M582.39,95.79V98h-1.07V91h1.07v2.53l1.3-2.53h1.14l-1.46,2.89,1.71,4.2h-1.25l-1.12-2.88Z"/><path d="M587.46,98V92.58h-.91v-.74a1.66,1.66,0,0,0,.74-.29,1.58,1.58,0,0,0,.5-.6h.74V98Z"/><path d="M592.86,96.42a1.69,1.69,0,0,1-1.69,1.69,1.61,1.61,0,0,1-1.2-.49,1.64,1.64,0,0,1-.5-1.2V92.56a1.71,1.71,0,0,1,1.7-1.7,1.6,1.6,0,0,1,1.19.5,1.64,1.64,0,0,1,.5,1.2Zm-1.11-3.89a.58.58,0,0,0-.18-.43.6.6,0,0,0-.44-.18.61.61,0,0,0-.61.61v3.88a.61.61,0,0,0,.61.61.6.6,0,0,0,.44-.18.58.58,0,0,0,.18-.43Z"/></g><g class="cls-10"><path class="cls-11" d="M75.45,66,72,56.12h2.82l1.9,6.11,1.88-6.11h2.84L78,66v7.12H75.45Z"/><path class="cls-11" d="M83.51,73.14v-17h7.3V58.7H86.07v4.64h3.46v2.58H86.07v4.64h4.74v2.58Z"/><path class="cls-11" d="M95.87,69.23l-.63,3.91H92.57l2.89-17H99l2.85,17h-2.7l-.6-3.91ZM97.21,60l-.95,6.7h1.9Z"/><path class="cls-11" d="M108,56.14a3.9,3.9,0,0,1,3.15,1.18,4.26,4.26,0,0,1,.88,2.87v2.47a4,4,0,0,1-1.37,3.06l1.9,7.42h-2.77l-1.56-6.41h-1.71v6.41H104v-17Zm1.54,4.1a1.3,1.3,0,0,0-1.47-1.48h-1.55V64.2h1.55a1.41,1.41,0,0,0,1-.44,1.44,1.44,0,0,0,.43-1Z"/></g><rect class="cls-12" x="118.54" y="173.12" width="223.29" height="30.25" rx="2.38"/><rect class="cls-13" x="118.54" y="173.12" width="223.29" height="30.25" rx="2.38"/><path class="cls-7" d="M146.51,181.27h-20.7a2.07,2.07,0,0,1-2.07-2.07h0a2.08,2.08,0,0,1,2.07-2.08h20.7a2.08,2.08,0,0,1,2.08,2.08h0A2.08,2.08,0,0,1,146.51,181.27Z"/><path class="cls-7" d="M210.2,189.48H125.81a2.08,2.08,0,0,1-2.07-2.08h0a2.08,2.08,0,0,1,2.07-2.08H210.2a2.08,2.08,0,0,1,2.07,2.08h0A2.08,2.08,0,0,1,210.2,189.48Z"/><path class="cls-7" d="M199.05,197.44H125.81a2.08,2.08,0,0,1-2.07-2.08h0a2.07,2.07,0,0,1,2.07-2.07h73.24a2.08,2.08,0,0,1,2.08,2.07h0A2.08,2.08,0,0,1,199.05,197.44Z"/><rect class="cls-11" x="258.89" y="208.59" width="223.29" height="30.25" rx="2.38"/><path class="cls-14" d="M286.86,216.74h-20.7a2.08,2.08,0,0,1-2.07-2.08h0a2.08,2.08,0,0,1,2.07-2.08h20.7a2.08,2.08,0,0,1,2.08,2.08h0A2.08,2.08,0,0,1,286.86,216.74Z"/><path class="cls-14" d="M350.55,225H266.16a2.08,2.08,0,0,1-2.07-2.08h0a2.08,2.08,0,0,1,2.07-2.08h84.39a2.08,2.08,0,0,1,2.08,2.08h0A2.08,2.08,0,0,1,350.55,225Z"/><path class="cls-14" d="M339.4,232.91H266.16a2.08,2.08,0,0,1-2.07-2.08h0a2.08,2.08,0,0,1,2.07-2.08H339.4a2.08,2.08,0,0,1,2.08,2.08h0A2.08,2.08,0,0,1,339.4,232.91Z"/><path class="cls-12" d="M347.61,534.84c-11.33-8.73-11.75-22.34,0-29.9s18.06-36.53,18.06-36.53H293.43s6.3,29,18.06,36.53,11.33,21.17,0,29.9-18.06,37.88-18.06,37.88h72.24S359,543.57,347.61,534.84Z"/><path class="cls-7" d="M347.61,534.84c-11.33-8.73-11.75-22.34,0-29.9s18.06-36.53,18.06-36.53H293.43s6.3,29,18.06,36.53,11.33,21.17,0,29.9-18.06,37.88-18.06,37.88h72.24S359,543.57,347.61,534.84Z"/><path class="cls-12" d="M365.73,473H293.37a4.62,4.62,0,0,1-4.62-4.62h0a4.62,4.62,0,0,1,4.62-4.62h72.36a4.62,4.62,0,0,1,4.62,4.62h0A4.62,4.62,0,0,1,365.73,473Z"/><path class="cls-12" d="M365.73,578.11H293.37a4.62,4.62,0,0,1-4.62-4.62h0a4.62,4.62,0,0,1,4.62-4.62h72.36a4.62,4.62,0,0,1,4.62,4.62h0A4.62,4.62,0,0,1,365.73,578.11Z"/><path class="cls-12" d="M298.7,567.3h59.21s-16.33-9.07-26-12.11V532.43a40.77,40.77,0,0,1,11.53-28.21,50.22,50.22,0,0,0,6.53-8.52l-42.83-2.1a66.4,66.4,0,0,0,7.48,9.49,40,40,0,0,1,11,27.65v23.63C315.86,555.68,298.7,567.3,298.7,567.3Z"/><path class="cls-15" d="M298.7,567.3h59.21s-16.33-9.07-26-12.11V532.43a40.77,40.77,0,0,1,11.53-28.21,50.22,50.22,0,0,0,6.53-8.52l-42.83-2.1a66.4,66.4,0,0,0,7.48,9.49,40,40,0,0,1,11,27.65v23.63C315.86,555.68,298.7,567.3,298.7,567.3Z"/><rect class="cls-12" x="344.78" y="139.12" width="223.29" height="30.25" rx="2.38" transform="translate(26.68 -63.55) rotate(8.2)"/><rect class="cls-8" x="344.78" y="139.12" width="223.29" height="30.25" rx="2.38" transform="translate(26.68 -63.55) rotate(8.2)"/><path class="cls-7" d="M374.6,135.4l-20.48-3a2.08,2.08,0,0,1-1.76-2.36h0a2.08,2.08,0,0,1,2.35-1.76l20.48,3a2.08,2.08,0,0,1,1.77,2.35h0A2.09,2.09,0,0,1,374.6,135.4Z"/><path class="cls-7" d="M436.47,152.61l-83.52-12a2.07,2.07,0,0,1-1.76-2.35h0a2.06,2.06,0,0,1,2.35-1.76l83.52,12a2.08,2.08,0,0,1,1.76,2.35h0A2.08,2.08,0,0,1,436.47,152.61Z"/><path class="cls-7" d="M424.3,158.9l-72.49-10.45a2.08,2.08,0,0,1-1.76-2.35h0a2.07,2.07,0,0,1,2.35-1.76l72.49,10.45a2.06,2.06,0,0,1,1.76,2.35h0A2.08,2.08,0,0,1,424.3,158.9Z"/><g id="_Group_" data-name="&lt;Group&gt;"><polygon class="cls-16" points="512.87 565.43 499.07 566.88 498.37 558.88 496.48 537.11 510.29 535.65 512.38 559.7 512.87 565.43"/><polygon class="cls-16" points="581.77 563.68 568.39 563.68 568.27 560.65 568.26 560.28 567.58 540.88 567.56 540.48 567.29 533.04 580.68 533.04 581.77 563.68"/><polygon class="cls-17" points="510.29 535.65 512.38 559.7 498.37 558.88 496.48 537.11 510.29 535.65"/><polygon class="cls-17" points="581.69 561.98 581.67 561.98 568.27 560.28 568.26 560.28 567.56 541.56 567.58 541.56 580.99 542.63 581.67 561.39 581.69 561.98"/><path class="cls-18" d="M566.54,562.88h16.25a1.17,1.17,0,0,1,1.14.92l2.64,11.91a2,2,0,0,1-1.52,2.34,1.6,1.6,0,0,1-.44,0c-5.26-.08-9.08-.41-15.69-.41-4.07,0-16.34.43-22,.43s-6.34-5.55-4.05-6.06c10.32-2.25,18.08-5.36,21.38-8.32A3.22,3.22,0,0,1,566.54,562.88Z"/><path class="cls-18" d="M497.61,562.45h16.25a1.18,1.18,0,0,1,1.14.92l2.64,11.91a2,2,0,0,1-1.52,2.35,2.18,2.18,0,0,1-.44,0c-5.26-.09-9.09-.41-15.69-.41-4.07,0-16.34.42-22,.42s-6.35-5.54-4-6c10.32-2.25,18.08-5.37,21.38-8.33A3.27,3.27,0,0,1,497.61,562.45Z"/><path class="cls-18" d="M495.21,556.87h19.63s-1.6-146.11,19.62-203.17c1.5,18.86,3.19,38.43,4.84,54.74,1,10.09,2.06,14,3,20.59,6.18,42.55,21.77,129.55,21.77,129.55h19.38s-2.3-82.61-4.59-124.43c-2.54-45.4-3.63-140.4-3.73-148.91h-71C497.39,321,480.07,441.13,495.21,556.87Z"/><path class="cls-13" d="M495.21,556.87h19.63s-1.6-146.11,19.62-203.17c1.5,18.86,3.19,38.43,4.84,54.74,1,10.09,2.06,14,3,20.59,6.18,42.55,21.77,129.55,21.77,129.55h19.38s-2.3-82.61-4.59-124.43c-2.54-45.4-3.63-140.4-3.73-148.91h-71C497.39,321,480.07,441.13,495.21,556.87Z"/><path class="cls-12" d="M583.48,172.57c9.83,6.3,32.48,54,23.29,63.56-16,16.65-33.37-29.69-33.37-29.69Z"/><path class="cls-14" d="M606.78,236.14c-3.73,3.88-7.54,4.34-11.18,2.76-12-5.21-22.19-32.46-22.19-32.46L579.18,187l4.3-14.46C593.3,178.86,616,226.57,606.78,236.14Z"/><path class="cls-17" d="M595.6,238.9c-12-5.21-22.19-32.46-22.19-32.46L579.18,187S598.26,209.81,595.6,238.9Z"/><path class="cls-16" d="M529.94,140a19.66,19.66,0,0,0,.57,1.89,18.56,18.56,0,0,0,6.62,8.82,18.89,18.89,0,0,0,2.43,1.5,16.9,16.9,0,0,0,14.49.64,17.14,17.14,0,0,0,5.53-3.83c6.71-6.77,6.53-14.59,7.28-27.82a18.14,18.14,0,0,0-25-18.1C528.85,108.41,527.07,128.1,529.94,140Z"/><path class="cls-17" d="M537.13,150.73a18.89,18.89,0,0,0,2.43,1.5,16.9,16.9,0,0,0,14.49.64,19.91,19.91,0,0,0-2.36-4.5S543.78,147.16,537.13,150.73Z"/><path class="cls-16" d="M563.76,167.89c-6.51,5.93-22.49,3.74-22.49,3.74s-10-2.73-7.87-5.85c5.87-1,8.71-3.71,9.89-7.22a17,17,0,0,0,.59-6.7,34.69,34.69,0,0,0-.49-3.75l19.74-14.62C560.55,143.14,557.38,160.9,563.76,167.89Z"/><path class="cls-18" d="M537.13,128l-2.85,1.08,1.43-5.84s-4.19-6.28,0-11.9c0,0-11.54-3.5-5-9.59,2.42-2.26,5.43,0,13.38-3.46,4.32-1.89,17.82-2,18.49,3.46,0,0,9.72-.06,10.77,16.55A33.12,33.12,0,0,1,563,144.44s-11.74,2.79-17.44-1.93S537.13,128,537.13,128Z"/><path class="cls-16" d="M544.65,128.91c-.79,2.88-2.37,5-4.4,5.88-2.7,1.15-4.47-2.65-4.08-6.63.37-3.53,2.2-8.49,5.08-7.83S545.59,125.35,544.65,128.91Z"/><path class="cls-17" d="M534.46,353.63c1.5,18.86,3.19,38.46,4.84,54.77,2.41-23.54,5.38-40.32,5.38-40.32s2.77-2.28,10.4-14.45,0-34.9,0-34.9C555.31,339.84,534.46,353.63,534.46,353.63Z"/><polygon class="cls-12" points="493.01 551.34 493.97 556.87 517.16 556.87 517.16 551.77 493.01 551.34"/><polygon class="cls-12" points="561.87 553.47 564.1 558.58 583.54 558.58 584.82 553.47 561.87 553.47"/><polygon class="cls-12" points="575.8 296.88 575.8 307.32 501.4 302.1 501.4 292.85 575.8 296.88"/><polygon class="cls-13" points="575.8 296.88 575.8 307.32 501.4 302.1 501.4 292.85 575.8 296.88"/><path class="cls-12" d="M536.12,164.41s8.15-7.15,22.34-3.64,12.4,13.47,12.4,13.47Z"/><path class="cls-16" d="M433.73,172l-12.35-8.54s-3.36-4-6.06-5.59-19.3-4.26-20.2-3.14-.9,9.52.9,11.49,15.94,4,16.61,4a27.78,27.78,0,0,0,3-.49l12.26,9.9Z"/><polygon class="cls-12" points="432.16 170.57 424.52 164.27 416.89 172.02 424.52 180.43 432.16 170.57"/><path class="cls-13" d="M536.12,164.41s8.15-7.15,22.34-3.64,12.4,13.47,12.4,13.47Z"/><polygon class="cls-13" points="432.16 170.57 424.52 164.27 416.89 172.02 424.52 180.43 432.16 170.57"/><path class="cls-12" d="M497.77,288.26a7,7,0,0,0,6.69,7.54l69.81,3.41a4,4,0,0,0,4.16-3.92c.44-42.5,15-115,5.05-122.72-10.28-7.95-60.71-12.12-60.71-12.12a168.36,168.36,0,0,0-6.18,17c-.22.73-.46,1.46-.66,2.21-2.9,9.56-5.33,19.88-7.42,30.33-.16.7-.29,1.41-.43,2.11A668.66,668.66,0,0,0,497.77,288.26Z"/><path class="cls-14" d="M578.43,295.29a4,4,0,0,1-4.16,3.92l-69.81-3.41a7,7,0,0,1-6.69-7.54,668.66,668.66,0,0,1,10.31-76.12c.14-.7.27-1.41.43-2.11.68-3.42,1.41-6.83,2.17-10.2,1.55-6.92,3.31-13.7,5.25-20.13.2-.75.44-1.48.66-2.21s.48-1.54.72-2.28c1.68-5.23,3.5-10.2,5.46-14.76,0,0,50.43,4.17,60.71,12.12C593.42,180.26,578.87,252.79,578.43,295.29Z"/><path class="cls-17" d="M510.68,199.83c1.55-6.92,3.31-13.7,5.25-20.13.2-.75.44-1.48.66-2.21s.48-1.54.72-2.28l4-1S522.56,189.69,510.68,199.83Z"/><path class="cls-12" d="M522.77,160.45c8.45-.71-9.39,28.28-9.39,28.28s-39.93,18.41-52.05,18.75c-9.51.27-30.08-18.2-38.49-26.16a4.89,4.89,0,0,1,0-7.1l4.73-4.52a4.89,4.89,0,0,1,6-.58c7.06,4.52,23.54,14.79,27.74,14.85C466.72,184,509.69,161.55,522.77,160.45Z"/><path class="cls-14" d="M522.77,160.45c8.45-.71-9.39,28.28-9.39,28.28s-39.93,18.41-52.05,18.75c-9.51.27-30.08-18.2-38.49-26.16a4.89,4.89,0,0,1,0-7.1l4.73-4.52a4.89,4.89,0,0,1,6-.58c7.06,4.52,23.54,14.79,27.74,14.85C466.72,184,509.69,161.55,522.77,160.45Z"/></g><path class="cls-18" d="M69.59,163.29s4.62-9,20.33-5.81,21.93,13.36,20.73,25.61-5.05,19.24-2.55,25.06c1.25,2.91,8.58.8,8.58.8s-3.43,4.21-15.73,5.9c-13.06,1.8-30.92,5.32-38.47-4.9S69.59,163.29,69.59,163.29Z"/><polygon class="cls-16" points="160.78 563.86 151.21 565.55 147.28 552.49 143.69 540.5 154.74 536.64 157.94 551.05 160.78 563.86"/><polygon class="cls-17" points="158 551.35 147.32 552.75 143.72 540.63 154.75 536.71 158 551.35"/><polygon class="cls-16" points="96.83 568.27 87.1 568.27 85.5 554.57 84.06 542.07 95.61 540.15 96.26 555.03 96.83 568.27"/><polygon class="cls-17" points="96.26 555.16 85.5 554.68 84.06 542.12 95.61 540.18 96.26 555.16"/><path class="cls-18" d="M158.9,543.74l-15.75,2.78C127.26,506.93,116,458,108,430.53c-4.3-14.8-7.89-28-10.46-39.64L98,434V547H82.47C43.57,361.72,71.14,303.57,71.14,303.57l46.54-7.74c1.77,6.94,3.11,18.3,3.9,26.14l2.1,15.44,18.19,94Z"/><g class="cls-19"><path d="M158.9,543.74l-15.75,2.78C127.26,506.93,116,458,108,430.53c-4.3-14.8-7.89-28-10.46-39.64L98,434V547H82.47C43.57,361.72,71.14,303.57,71.14,303.57l46.54-7.74c1.77,6.94,3.11,18.3,3.9,26.14l2.1,15.44,18.19,94Z"/></g><path class="cls-20" d="M208.27,211.64l20.15-9s2-3.7,3.8-4.25,13.29-.44,14.22.84-.4,10.07-2.69,10.92-12.18-.68-13.06-1.19l-23,12.94Z"/><path class="cls-17" d="M108,430.53c-4.3-14.8-7.65-28-10.22-39.64,0,0,.26-22.69,3-41.33C100.75,349.56,107.57,402.87,108,430.53Z"/><path class="cls-12" d="M58.09,375l-38,7.84a1.56,1.56,0,0,0-1.18,2l7.6,24.47a1.56,1.56,0,0,0,1.79,1.08l37.77-7.26a1.55,1.55,0,0,0,1.21-2l-7.38-25.06A1.56,1.56,0,0,0,58.09,375Z"/><path class="cls-21" d="M58.09,375l-38,7.84a1.56,1.56,0,0,0-1.18,2l7.6,24.47a1.56,1.56,0,0,0,1.79,1.08l37.77-7.26a1.55,1.55,0,0,0,1.21-2l-7.38-25.06A1.56,1.56,0,0,0,58.09,375Z"/><path class="cls-12" d="M57.39,375.92l-38,7.85a1.57,1.57,0,0,0-1.18,2l7.6,24.47a1.56,1.56,0,0,0,1.8,1.07l37.77-7.25a1.58,1.58,0,0,0,1.21-2L59.21,377A1.57,1.57,0,0,0,57.39,375.92Z"/><path class="cls-22" d="M57.39,375.92l-38,7.85a1.57,1.57,0,0,0-1.18,2l7.6,24.47a1.56,1.56,0,0,0,1.8,1.07l37.77-7.25a1.58,1.58,0,0,0,1.21-2L59.21,377A1.57,1.57,0,0,0,57.39,375.92Z"/><path class="cls-17" d="M43.23,397.17a3.8,3.8,0,1,1,2.87-4.53.59.59,0,0,1,0,.14,3.79,3.79,0,0,0-2.3,4.21A4,4,0,0,1,43.23,397.17Z"/><path class="cls-20" d="M38.66,349.42l5.44,21.41s3.32,2.57,3.55,4.47-1.85,13.17-3.27,13.87-9.86-2.13-10.3-4.53,2.76-11.88,3.41-12.66l-8.8-24.87Z"/><path class="cls-18" d="M118.8,293c1.9-33.44,1-51.82.19-61-.95-9.79-2.46-10.15-2.46-10.15s-10.61-1-19.85-1a150.83,150.83,0,0,0-21.31,2.24,140.6,140.6,0,0,0-19.7,4.76c1.07,3.08,2,6,3,8.74,1.21,3.63,2.28,7,3.26,10.13,1.83,5.87,3.25,10.94,4.39,15.49,3.55,14.06,4.3,23.07,5,34.86,0,0-11.69,30.53-14,52.93,0,0,31.26,6.57,43.58,5.15,13.75-1.58,27.42-7.81,27.42-7.81Z"/><path class="cls-23" d="M118.8,293c1.9-33.44,1-51.82.19-61-.95-9.79-2.46-10.15-2.46-10.15s-10.61-1-19.85-1a150.83,150.83,0,0,0-21.31,2.24,140.6,140.6,0,0,0-19.7,4.76c1.07,3.08,2,6,3,8.74,1.21,3.63,2.28,7,3.26,10.13,1.83,5.87,3.25,10.94,4.39,15.49,3.55,14.06,4.3,23.07,5,34.86,0,0-11.69,30.53-14,52.93,0,0,31.26,6.57,43.58,5.15,13.75-1.58,27.42-7.81,27.42-7.81Z"/><path class="cls-20" d="M96.14,222.86a9.73,9.73,0,0,0-1.44-.62c-1.1-.86-2.43-2.94-2.36-8a41.1,41.1,0,0,1,.55-5.93l-14.08-2.63s4.8,9.48.79,16.52c-1.38.61-2.2,1.48-2,2.62,1,8.14,18.54,16,18.54,16S104.64,227.53,96.14,222.86Z"/><path class="cls-17" d="M92.89,208.3a41.1,41.1,0,0,0-.55,5.93c-9.51,0-13.53-8.56-13.53-8.56Z"/><path class="cls-20" d="M85.1,168.93c12.24-.67,16.54,5.67,18.13,18.23,2,15.71-.9,27.1-16.39,24.57C65.81,208.29,64.77,170,85.1,168.93Z"/><path class="cls-24" d="M95.28,186.91a25.62,25.62,0,0,0,3.84,4.88A3.36,3.36,0,0,1,96,193.35Z"/><path class="cls-18" d="M87.73,186.32c.08,1-.4,1.86-1.07,1.91s-1.27-.72-1.35-1.72.4-1.86,1.07-1.91S87.65,185.32,87.73,186.32Z"/><path class="cls-18" d="M86.1,184.67l2.12-1S87.28,185.56,86.1,184.67Z"/><path class="cls-18" d="M100.2,185.13c.08,1-.4,1.87-1.07,1.92s-1.27-.72-1.35-1.73.4-1.86,1.07-1.91S100.12,184.13,100.2,185.13Z"/><path class="cls-18" d="M98.57,183.48l2.12-1S99.74,184.38,98.57,183.48Z"/><path class="cls-25" d="M87.15,177.87s-3.47-.25-5.21,2.15"/><path class="cls-25" d="M96,176.87a5.71,5.71,0,0,1,4.93.74"/><path class="cls-18" d="M72.85,190.29s5.18-10.37,3.89-18.08c0,0,23.71-11.24,26.26,13.31,0,0,1.17-22-19.9-21.32s-19.29,31.44-7.92,40C75.18,204.22,69.66,196.78,72.85,190.29Z"/><path class="cls-20" d="M75,192.77a5.38,5.38,0,0,0-6-4.59c-3.77.62-5.16,8.51,4.38,9.86C74.7,198.24,75.39,196.87,75,192.77Z"/><path class="cls-25" d="M86.41,197.72a9.86,9.86,0,0,0,7,2.85"/><path class="cls-18" d="M81,168.88s2.28,8.76-9.88,19.41-5.44,26.85,1,28.58c0,0-11.21-1.46-16.43-8.12-7.56-9.63,1.91-15.27,3.11-24.16s-2.81-14.89,3.6-21.3S82.93,159.21,81,168.88Z"/><path class="cls-26" d="M81.19,167.5S87.27,182.82,65,191.38"/><path class="cls-6" d="M68.54,224.39s18.15,29.4,18.06,53.7-24.94,44.22-24.94,44.22L66.87,294l-11.2-66.14Z"/><path class="cls-6" d="M110.28,220.82s-3.94,42.88-1.23,57.27,16.22,42.37,16.22,42.37l-4.81-30.23s3.47-42.73-3.1-68.44Z"/><path class="cls-6" d="M117.36,221.79s43.06,5.59,49.32,5.59S221,205.13,221,205.13l6.22,7s-41.07,30.75-56.69,33.24-53.17,2.09-53.17,2.09Z"/><path class="cls-6" d="M55.67,227.83c-8.51,1.95-34.54,69-34.54,78.93s10.41,59.61,10.41,59.61l13-3s-6.81-52.1-4.41-56.57S64.39,255,64.39,255a118.53,118.53,0,0,0-2.73-17.63C59.58,229,55.67,227.83,55.67,227.83Z"/><path class="cls-18" d="M148.16,559.19c.05-1.13,14,0,14,0s8.43,8.84,16.71,10.92,3.57,7-5.73,6.86l-23-.34C143.5,576.49,147.71,570.92,148.16,559.19Z"/><path class="cls-12" d="M168.36,562.71a21.4,21.4,0,0,1-4.73-1.74l-.1-.07h0a.83.83,0,0,1-.08-.12h0a.3.3,0,0,1,0-.1h0a.44.44,0,0,1,0-.16c.06-.15,1.27-3.37,3.17-4.13a2.14,2.14,0,0,1,1.8.08c.63.31.93.71.9,1.18-.06.73-1.06,1.45-2.2,2a5.65,5.65,0,0,1,3.12.39,1.53,1.53,0,0,1,.73.95,1.36,1.36,0,0,1-.36,1.48A2.91,2.91,0,0,1,168.36,562.71Zm-3.45-2c2,.9,4.57,1.71,5.24,1.17.06,0,.23-.18.1-.73a.77.77,0,0,0-.39-.49C168.87,560.12,166.47,560.44,164.91,560.76Zm2.78-3.77a1.4,1.4,0,0,0-.8.09c-1,.41-1.93,1.91-2.43,2.95,2.07-.75,4.08-1.8,4.12-2.43,0-.2-.3-.38-.49-.47A1.19,1.19,0,0,0,167.69,557Z"/><path class="cls-18" d="M84.06,560.75c0-1.14,13.94-.25,13.94-.25s8.56,8.71,16.88,10.66,3.67,7-5.63,7h-23C79.66,578.11,83.78,572.49,84.06,560.75Z"/><path class="cls-12" d="M105.32,564.06c-1.94,0-5-1.41-5.76-1.76a.32.32,0,0,1-.13-.1h0l-.05-.07a.36.36,0,0,1,0-.29c0-.13,1.22-3.38,3.1-4.17a2.14,2.14,0,0,1,1.8.05c.64.3.94.7.92,1.17,0,.73-1,1.47-2.17,2.07a5.78,5.78,0,0,1,3.12.34,1.5,1.5,0,0,1,.75.94,1.34,1.34,0,0,1-.34,1.49A1.91,1.91,0,0,1,105.32,564.06Zm-4.49-2c2,.86,4.6,1.63,5.25,1.09.06,0,.23-.19.1-.73a.8.8,0,0,0-.4-.49C104.78,561.36,102.39,561.72,100.83,562.07Zm2.49-3.84a1.46,1.46,0,0,0-.57.12c-1,.43-1.9,1.94-2.38,3,2.06-.78,4-1.86,4.08-2.49,0-.19-.3-.37-.49-.46A1.41,1.41,0,0,0,103.32,558.23Z"/></g></g></svg>