<svg xmlns="http://www.w3.org/2000/svg" viewBox="0 0 680 566.46"><defs><style>.cls-1{fill:#e1e1e1;}.cls-2{fill:#ececec;}.cls-3{fill:#f0f0f0;}.cls-4{fill:#e7e7e7;}.cls-10,.cls-15,.cls-19,.cls-22,.cls-5{fill:#fff;}.cls-6{fill:#3380db;}.cls-15,.cls-7{opacity:0.3;}.cls-8{fill:#1a2e35;}.cls-9{fill:#007cff;}.cls-10{opacity:0.7;}.cls-11{fill:#cd7a63;}.cls-12,.cls-13,.cls-16{opacity:0.2;}.cls-12,.cls-19{isolation:isolate;}.cls-14{fill:#b94d3c;}.cls-17{opacity:0.5;}.cls-18{opacity:0.6;}.cls-19{opacity:0.1;}.cls-20{fill:#cbd5eb;}.cls-20,.cls-21,.cls-22{fill-rule:evenodd;}.cls-21{fill:#8ca3ca;}</style></defs><g id="Layer_2" data-name="Layer 2"><g id="Layer_1-2" data-name="Layer 1"><path class="cls-1" d="M674.1,387.53H492.21c-3.26,0-5.9-3.38-5.9-7.54V41.28c0-4.16,2.64-7.54,5.9-7.54H674.1c3.25,0,5.9,3.38,5.9,7.54V380C680,384.15,677.35,387.53,674.1,387.53ZM492.21,34.06c-3.12,0-5.65,3.24-5.65,7.22V380c0,4,2.53,7.22,5.65,7.22H674.1c3.11,0,5.65-3.24,5.65-7.22V41.28c0-4-2.54-7.22-5.65-7.22Z"/><path class="cls-1" d="M464.35,387.53H282.46c-3.26,0-5.9-3.38-5.9-7.54V41.28c0-4.16,2.64-7.54,5.9-7.54H464.35c3.25,0,5.9,3.38,5.9,7.54V380C470.25,384.15,467.6,387.53,464.35,387.53ZM282.46,34.06c-3.12,0-5.65,3.24-5.65,7.22V380c0,4,2.53,7.22,5.65,7.22H464.35c3.11,0,5.65-3.24,5.65-7.22V41.28c0-4-2.54-7.22-5.65-7.22Z"/><path class="cls-1" d="M254.73,387.53H72.84c-3.25,0-5.9-3.38-5.9-7.54V41.28c0-4.16,2.65-7.54,5.9-7.54H254.73c3.26,0,5.9,3.38,5.9,7.54V380C260.63,384.15,258,387.53,254.73,387.53ZM72.84,34.06c-3.11,0-5.65,3.24-5.65,7.22V380c0,4,2.54,7.22,5.65,7.22H254.73c3.12,0,5.65-3.24,5.65-7.22V41.28c0-4-2.53-7.22-5.65-7.22Z"/><rect class="cls-2" x="494.28" y="457.4" width="14.72" height="0.54"/><rect class="cls-2" x="36.99" y="435.06" width="73.14" height="0.54"/><rect class="cls-2" x="125.21" y="435.06" width="10.72" height="0.54"/><rect class="cls-2" x="170.78" y="444.2" width="158.61" height="0.54"/><path class="cls-1" d="M586.51,399.59c0-.66-2.23-65.82-12.83-76.13-10.31-10-22.14-.37-22.64,0L550,322.23c.13-.11,13.49-11,24.86,0,11.07,10.77,13.24,74.55,13.33,77.26Z"/><path class="cls-1" d="M587.42,412.39c-.08-.78-7.25-78.22,21-110.68l1.25,1.08C581.89,334.72,589,411.46,589.07,412.23Z"/><path class="cls-1" d="M586.37,404.2l-1.65-.11c.06-.88,5.53-88-15.21-107.13l1.12-1.22C592,315.36,586.61,400.58,586.37,404.2Z"/><path class="cls-1" d="M589.07,404.15h-1.66c0-2.4.69-58.88,16.73-68.07,3.57-2.05,7.06-2.39,10.38-1,9.7,4,14.51,21.28,14.71,22l-1.6.44c0-.17-4.79-17.21-13.74-20.91-2.83-1.17-5.83-.86-8.92.91C589.74,346.23,589.08,403.57,589.07,404.15Z"/><path class="cls-1" d="M582.83,404.19l-1.66-.09c0-.45,2.42-44.63-9.5-60.2-2.89-3.77-6-5.57-9.34-5.34-7.82.55-14.37,12-14.43,12.1l-1.45-.82c.29-.5,7-12.32,15.76-12.93,3.89-.28,7.52,1.74,10.77,6C585.28,359,582.93,402.35,582.83,404.19Z"/><path class="cls-1" d="M585.44,410.2c-.32-4.29-7.8-105.18,5.35-122.95l1.33,1c-12.78,17.29-5.1,120.8-5,121.85Z"/><path class="cls-2" d="M618.1,345.28s-7.89,2.9-5.54,9.77,27.27,18.16,27.27,18.16,10.45-9.58.86-25.14S618.31,340.37,618.1,345.28Z"/><path class="cls-2" d="M583.82,332.21s8.39-.35,8.87,6.89-18.19,27.26-18.19,27.26-13.32-4.82-10.46-22.88S581.73,327.76,583.82,332.21Z"/><path class="cls-2" d="M576.71,297.57s5.59-.6,5.14-4-21.76-12.19-34.33,2c0,0,8.05,13.83,19.69,14S576.71,297.57,576.71,297.57Z"/><path class="cls-2" d="M587.14,289.29s-5.07,2.45-6.49-.68,12-21.85,30.2-16.46c0,0,.48,16-9.3,22.31S587.14,289.29,587.14,289.29Z"/><path class="cls-2" d="M560.63,342.52s3.87-3.12-.3-4.64-24.63-1.09-24.85,19.17c0,0,23.83,4,26.78-3.76S560.63,342.52,560.63,342.52Z"/><path class="cls-2" d="M609.22,297.06s-3.86-3.12.31-4.64,24.63-1.09,24.84,19.18c0,0-23.83,4-26.78-3.76S609.22,297.06,609.22,297.06Z"/><path class="cls-2" d="M596.63,313.39s-.34-3.79,2.72-2.31,13.73,13,2.67,23.92c0,0-14.88-11-12.2-16.77S596.63,313.39,596.63,313.39Z"/><path class="cls-2" d="M557.18,318.79s2.31-3-1.07-3.4-18.55,3.67-15,18.81c0,0,18.47-1.39,19.26-7.68S557.18,318.79,557.18,318.79Z"/><polygon class="cls-3" points="604.6 433.38 567.35 433.38 557.44 387.68 613.57 387.68 604.6 433.38"/><rect class="cls-4" x="554.06" y="387.02" width="62.74" height="13.14"/><path class="cls-2" d="M171.25,307.65l-9.65.9v18.7l9.65.91a49.87,49.87,0,0,0,7.14,17.29l-6.17,7.45,13.22,13.22,7.45-6.17a49.84,49.84,0,0,0,17.29,7.13l.91,9.66h18.69l.91-9.65A50.06,50.06,0,0,0,248,360l7.45,6.17,13.22-13.22-6.16-7.45a50,50,0,0,0,7.13-17.29l9.65-.91v-18.7l-9.65-.91a50.12,50.12,0,0,0-7.13-17.29l6.16-7.44-13.22-13.22L248,275.85a50,50,0,0,0-17.29-7.13l-.91-9.66H211.09l-.91,9.66a50,50,0,0,0-17.29,7.13l-7.45-6.16-13.22,13.22,6.17,7.45A49.79,49.79,0,0,0,171.25,307.65ZM238.33,300a25.31,25.31,0,1,1-35.79,0A25.31,25.31,0,0,1,238.33,300Z"/><path class="cls-2" d="M557.06,164.29l-5.78.55v11.21l5.78.54A30.17,30.17,0,0,0,561.34,187l-3.7,4.46,7.93,7.93,4.47-3.7a29.81,29.81,0,0,0,10.36,4.28l.55,5.79h11.21l.54-5.79a29.78,29.78,0,0,0,10.37-4.28l4.47,3.7,7.92-7.93-3.7-4.46A29.78,29.78,0,0,0,616,176.59l5.79-.54V164.84l-5.79-.55a29.74,29.74,0,0,0-4.28-10.36l3.7-4.47-7.93-7.93-4.46,3.7A30.17,30.17,0,0,0,592.7,141l-.54-5.79H581L580.4,141A30,30,0,0,0,570,145.23l-4.47-3.7-7.93,7.93,3.7,4.47A30.12,30.12,0,0,0,557.06,164.29Zm40.22-4.58a15.17,15.17,0,1,1-21.46,0A15.17,15.17,0,0,1,597.28,159.71Z"/><path class="cls-2" d="M194.64,427.23l-5.79.55V439l5.79.54a29.78,29.78,0,0,0,4.28,10.37l-3.7,4.46,7.93,7.93,4.46-3.7A29.78,29.78,0,0,0,218,462.87l.54,5.79h11.21l.55-5.79a29.74,29.74,0,0,0,10.36-4.28l4.47,3.7,7.93-7.93-3.7-4.46a30,30,0,0,0,4.28-10.37l5.79-.54V427.78l-5.79-.55a30,30,0,0,0-4.28-10.36l3.7-4.47-7.93-7.92-4.47,3.69a30.12,30.12,0,0,0-10.36-4.28l-.55-5.78H218.52l-.54,5.78a30.17,30.17,0,0,0-10.37,4.28l-4.46-3.69-7.93,7.92,3.7,4.47A29.81,29.81,0,0,0,194.64,427.23Zm40.22-4.58a15.17,15.17,0,1,1-21.46,0A15.19,15.19,0,0,1,234.86,422.65Z"/><path class="cls-2" d="M516.51,32.92A52.51,52.51,0,0,0,509,51.1l-10.16,1V71.73l10.16,1a52.56,52.56,0,0,0,7.5,18.19L510,98.7l13.9,13.91,7.84-6.49A52.42,52.42,0,0,0,550,113.63l1,10.16h19.67l.95-10.15a52.39,52.39,0,0,0,18.19-7.51l7.84,6.49,13.9-13.91L605,90.87a52.56,52.56,0,0,0,7.5-18.19l10.16-1V52.06l-10.16-1A52.59,52.59,0,0,0,605,32.92l6.48-7.84-13.9-13.9-7.84,6.48a52.59,52.59,0,0,0-18.18-7.5L570.58,0H550.91l-1,10.16a52.59,52.59,0,0,0-18.18,7.5l-7.84-6.49L510,25.08Zm63.06,10.15a26.62,26.62,0,1,1-37.65,0A26.62,26.62,0,0,1,579.57,43.07Z"/><rect class="cls-4" x="139.17" y="44.39" width="57.79" height="108.95"/><rect class="cls-3" x="126.24" y="44.39" width="67.89" height="108.95"/><rect class="cls-5" x="136.55" y="54.07" width="47.22" height="89.59"/><path class="cls-3" d="M680,554.83c0,6.42-140.94,11.63-314.81,11.63s-314.8-5.21-314.8-11.63,140.94-11.63,314.8-11.63S680,548.4,680,554.83Z"/><rect class="cls-6" x="226.47" y="49.53" width="346.27" height="482.59" rx="7.43"/><rect class="cls-7" x="239.05" y="97.65" width="321.11" height="416.42"/><rect class="cls-5" x="239.63" y="67.25" width="321.12" height="434.1"/><rect class="cls-1" x="275.98" y="155.35" width="247.24" height="13.36"/><rect class="cls-1" x="275.98" y="462.28" width="247.24" height="13.36"/><rect class="cls-8" x="275.98" y="186.74" width="247.24" height="1.29"/><rect class="cls-8" x="275.98" y="207.41" width="247.24" height="1.29"/><rect class="cls-8" x="275.98" y="228.08" width="247.24" height="1.29"/><rect class="cls-8" x="275.98" y="246.2" width="247.24" height="1.29"/><rect class="cls-8" x="275.98" y="291.04" width="179.32" height="1.29"/><rect class="cls-8" x="275.98" y="309.87" width="179.32" height="1.29"/><path class="cls-8" d="M512.12,318.55H478.2V284.63h33.92Zm-32.63-1.29h31.35V285.91H479.49Z"/><polygon class="cls-6" points="499.36 314.54 481.5 301.24 486.14 295.01 498.12 303.93 514.57 284.3 520.52 289.29 499.36 314.54"/><rect class="cls-8" x="275.98" y="349.62" width="179.32" height="1.29"/><rect class="cls-8" x="275.98" y="368.46" width="179.32" height="1.29"/><path class="cls-8" d="M512.12,377.13H478.2V343.21h33.92Zm-32.63-1.29h31.35V344.5H479.49Z"/><polygon class="cls-6" points="499.36 373.12 481.5 359.82 486.14 353.59 498.12 362.51 514.57 342.88 520.52 347.87 499.36 373.12"/><rect class="cls-8" x="275.98" y="408.2" width="179.32" height="1.29"/><rect class="cls-8" x="275.98" y="427.04" width="179.32" height="1.29"/><path class="cls-8" d="M512.12,435.71H478.2V401.79h33.92Zm-32.63-1.29h31.35V403.08H479.49Z"/><polygon class="cls-6" points="499.36 431.7 481.5 418.4 486.14 412.17 498.12 421.09 514.57 401.46 520.52 406.45 499.36 431.7"/><path class="cls-8" d="M329,108.61v15.81H324.9V108.61Z"/><path class="cls-8" d="M344.57,116.73v7.69h-4v-6.54a2,2,0,0,0-2.07-2.23,2.39,2.39,0,0,0-2.39,2.32v6.45h-4v-12.2h4v2a4.48,4.48,0,0,1,4-2.15C342.81,112.06,344.57,113.87,344.57,116.73Z"/><path class="cls-8" d="M351.56,114.84c-.68,0-1.15.25-1.15.77,0,1.6,6.41.83,6.38,5.07,0,2.5-2.18,3.92-5.16,3.92a9,9,0,0,1-5.51-1.73l1.27-2.6a7.93,7.93,0,0,0,4.33,1.52c.74,0,1.28-.25,1.28-.75,0-1.67-6.29-.83-6.29-5.05,0-2.55,2.14-3.95,5-3.95a9.93,9.93,0,0,1,5.07,1.42l-1.35,2.62A9.25,9.25,0,0,0,351.56,114.84Z"/><path class="cls-8" d="M370.87,112.22v12.2h-4v-2a4.29,4.29,0,0,1-3.9,2.16c-2.64,0-4.35-1.82-4.35-4.66v-7.72h4v6.56a2,2,0,0,0,2,2.22c1.42,0,2.27-1.15,2.27-2.76v-6Z"/><path class="cls-8" d="M381.88,112.06v3.68c-2.24-.23-3.72.77-3.93,2.46v6.22h-4v-12.2h4v2A4.39,4.39,0,0,1,381.88,112.06Z"/><path class="cls-8" d="M394.15,116.48v7.94H390.2v-1.37a4.42,4.42,0,0,1-3.68,1.55c-2.61,0-4.17-1.57-4.17-3.81s1.65-3.65,4.67-3.7h3.18V117c0-1.15-.79-1.83-2.32-1.83a9,9,0,0,0-3.66,1l-1.1-2.71a13.57,13.57,0,0,1,5.68-1.33C392.16,112.06,394.13,113.69,394.15,116.48Zm-3.95,3.82v-1.06h-2.39c-1.13,0-1.69.4-1.69,1.26s.61,1.38,1.65,1.38A2.41,2.41,0,0,0,390.2,120.3Z"/><path class="cls-8" d="M409.33,116.73v7.69h-4v-6.54a2,2,0,0,0-2.08-2.23,2.39,2.39,0,0,0-2.39,2.32v6.45h-4v-12.2h4v2a4.5,4.5,0,0,1,4-2.15C407.57,112.06,409.33,113.87,409.33,116.73Z"/><path class="cls-8" d="M417.54,115.4c-1.44,0-2.44,1.2-2.44,3s1,3,2.44,3a2.51,2.51,0,0,0,2.39-1.37l3,1.69c-1,1.87-3,2.93-5.55,2.93a5.87,5.87,0,0,1-6.27-6.18,5.94,5.94,0,0,1,6.31-6.29,6,6,0,0,1,5.46,2.88l-2.91,1.69A2.81,2.81,0,0,0,417.54,115.4Z"/><path class="cls-8" d="M435.93,119.39h-8.49a2.74,2.74,0,0,0,2.78,2.15,4,4,0,0,0,2.86-1.24l2.1,2.09a6.86,6.86,0,0,1-5.32,2.17c-4,0-6.45-2.46-6.45-6.18a6,6,0,0,1,6.36-6.29C434,112.09,436.2,115,435.93,119.39Zm-3.88-2.14a2.18,2.18,0,0,0-2.26-2.34,2.52,2.52,0,0,0-2.44,2.34Z"/><path class="cls-8" d="M458.08,114.16c0,3.72-2.33,5.89-6.36,5.89H448.9v4.37h-4.13V108.61h7C455.75,108.61,458.08,110.64,458.08,114.16Zm-3.93.14c0-1.56-1-2.39-2.64-2.39H448.9v4.85h2.61C453.18,116.76,454.15,115.9,454.15,114.3Z"/><path class="cls-8" d="M472.45,118.31c0,3.77-2.67,6.25-6.68,6.25s-6.65-2.48-6.65-6.25,2.63-6.22,6.65-6.22S472.45,114.57,472.45,118.31Zm-9.3,0c0,1.82,1.06,3,2.62,3s2.64-1.22,2.64-3-1.06-3-2.64-3S463.15,116.55,463.15,118.36Z"/><path class="cls-8" d="M478.63,107.69v16.73h-4V107.69Z"/><path class="cls-8" d="M485.8,112.22v12.2h-4v-12.2Zm-.16-3.43a1.83,1.83,0,1,1-1.82-1.85A1.76,1.76,0,0,1,485.64,108.79Z"/><path class="cls-8" d="M494.35,115.4c-1.44,0-2.44,1.2-2.44,3s1,3,2.44,3a2.52,2.52,0,0,0,2.39-1.37l3,1.69c-1,1.87-3,2.93-5.55,2.93a5.87,5.87,0,0,1-6.27-6.18,5.94,5.94,0,0,1,6.31-6.29,6,6,0,0,1,5.46,2.88l-2.91,1.69A2.81,2.81,0,0,0,494.35,115.4Z"/><path class="cls-8" d="M503.35,129a5.63,5.63,0,0,1-3.61-1.26l1.67-2.78a2.36,2.36,0,0,0,1.62.68,1.56,1.56,0,0,0,1.47-.93l.29-.56-5.05-11.91h4.13l2.91,7.94,2.59-7.94h4l-5.23,13.4A4.78,4.78,0,0,1,503.35,129Z"/><rect class="cls-6" x="275.98" y="101.66" width="34.83" height="34.83" rx="4.44"/><circle class="cls-5" cx="293.4" cy="113.33" r="5.12"/><path class="cls-5" d="M293.4,119.55A10.4,10.4,0,0,0,283,130h20.79A10.39,10.39,0,0,0,293.4,119.55Z"/><rect class="cls-8" x="344.68" y="41.18" width="109.84" height="41.43"/><polygon class="cls-8" points="434.38 45.36 370.15 45.36 362.99 13.81 443.17 13.81 434.38 45.36"/><path class="cls-7" d="M436.62,13.81c-.07.2-8.56,27-8.35,27h7.29l7.72-27Z"/><path class="cls-7" d="M447.44,41.18s-.53,41.43,0,41.43h7.09V41.18Z"/><path class="cls-9" d="M24.27,113.83A33.5,33.5,0,0,0,85.19,139l9.94-1.55-5.42-9.15c0-.19.1-.36.14-.54a33.52,33.52,0,1,0-65.58-13.89Z"/><path class="cls-10" d="M24.27,113.83A33.5,33.5,0,0,0,85.19,139l9.94-1.55-5.42-9.15c0-.19.1-.36.14-.54a33.52,33.52,0,1,0-65.58-13.89Z"/><path class="cls-9" d="M20.8,111.77h-.05a.32.32,0,0,1-.27-.37A33.71,33.71,0,0,1,40.19,86.62a.32.32,0,0,1,.42.17.32.32,0,0,1-.17.43A33,33,0,0,0,21.12,111.5.32.32,0,0,1,20.8,111.77Z"/><path class="cls-9" d="M45,85.47a.3.3,0,0,1-.28-.18.32.32,0,0,1,.14-.43,12.52,12.52,0,0,1,4.9-1.33.32.32,0,1,1,0,.64,11.93,11.93,0,0,0-4.65,1.26A.28.28,0,0,1,45,85.47Z"/><rect class="cls-6" x="52.67" y="106.46" width="10.59" height="30.73"/><rect class="cls-6" x="52.67" y="106.46" width="10.59" height="30.73" transform="translate(-63.85 179.79) rotate(-90)"/><polygon class="cls-11" points="243.75 207.7 260.39 200.68 269.3 209.82 254.86 220.53 243.75 207.7"/><path class="cls-11" d="M257.34,205.45s-1.55-4.74.36-8.4,2.45-7.08,4.06-9.7,2.27,1.47,2.19,3.72-.15,4.8,1.55,4.59,13.47-9,15.86-9.08.93,2,.93,2,2.92-2.08,4.06-1.14c.29.24.59,1.28-.6,2.43-2.66,2.6-8.52,7.75-8.52,7.75.33-.3,8-6.15,9.29-6.87,1.65-.95,2.92-.55,3.43.42.74,1.39-8.54,9-8.71,9.56,0,0,5.2-4.54,7.1-3.84s-1.21,3.74-4.47,5.89c-3,2-8.32,6.63-11.55,8.34-4,2.11-7.13,2.63-10.47.05A14.33,14.33,0,0,1,257.34,205.45Z"/><path class="cls-7" d="M275.21,194.41a.16.16,0,0,1-.12-.06.17.17,0,0,1,0-.23c2.13-1.91,4.37-3.75,6.66-5.47a.16.16,0,0,1,.23,0,.15.15,0,0,1,0,.22c-2.28,1.71-4.51,3.55-6.63,5.45A.16.16,0,0,1,275.21,194.41Z"/><path class="cls-7" d="M279.28,202.73a.15.15,0,0,1-.15-.1,19,19,0,0,0-6.75-8.52.16.16,0,0,1,0-.22.15.15,0,0,1,.22,0,19.29,19.29,0,0,1,6.87,8.66.17.17,0,0,1-.09.21Z"/><path class="cls-7" d="M263.87,205.86a.16.16,0,0,1-.13-.06.16.16,0,0,1,0-.22,6.41,6.41,0,0,0,1.61-8,.15.15,0,0,1,.06-.22.16.16,0,0,1,.22.07,6.81,6.81,0,0,1,.67,4.5,6.91,6.91,0,0,1-2.36,3.89A.19.19,0,0,1,263.87,205.86Z"/><path class="cls-8" d="M38.9,333s5.38-12.64,15.22-12S67.4,336.79,67.4,336.79L61.86,336s-.39-11.41-7.37-11.74S42.91,334,42.91,334l-3.29-1"/><polygon class="cls-9" points="0 395.52 1.46 387.58 12.03 330.15 96.1 339.2 91.67 406.62 0 395.52"/><polygon class="cls-12" points="0 395.52 1.46 387.58 12.03 330.15 96.1 339.2 91.67 406.62 0 395.52"/><path class="cls-11" d="M52.46,305.12c-1.13.63-6.41,10.1-7.34,12.69s-.8,4.14.39,4.75a10.1,10.1,0,0,0,2.88,1.12c.32-.06-.67,2.62,1.4,3.48s3,.43,3,.43.18,3.62,2.77,4.13,3.43-.81,3.86-.72,1.83-4.42,1.83-4.42l3.62,3.8a17.24,17.24,0,0,0,1.88-4.17c.83-2.65-.54-9.46-.54-9.46l-2.43-5.86.52-9.16s-10.87.55-10.9.81S52.46,305.12,52.46,305.12Z"/><path class="cls-12" d="M12,330.15S23.3,363.51,47,361.61,96.1,339.2,96.1,339.2"/><path class="cls-11" d="M129.17,159.15s1.19-8.53-3.81-23.32c0,0,.78-.4.78-.41-.69-2.07-1.41-4-2.09-5.63a.45.45,0,0,1,0-.06l21,11.76c-.27,4.81,1.85,14,3.05,17.86,0,0,2.74,5-6.66,5.68C134.59,165.55,129.17,159.15,129.17,159.15Z"/><path class="cls-13" d="M145.72,148.21l-11.91-2.14c1.23,3.62,4.67,7.82,12.89,7.82A36.2,36.2,0,0,1,145.72,148.21Z"/><path class="cls-11" d="M123.45,119.78c1.94,12.93,2.78,20.26,9.94,26.29,10.77,9.07,26,1.87,27.91-11.41,1.77-12-1.71-31.09-14.91-35A18,18,0,0,0,123.45,119.78Z"/><path class="cls-8" d="M120.42,104.3c1.15-7.32,19.09-9,24.43-5.77.8.48-9.36,6.76-8.74,6.47l-4.85,2.17c-.79-.1-2.22.94-2.8,3.4,0,0,2.33,19.88-2.8,26.14-4.74-1.81-5.7-9.68-7.55-14.26C115.36,115.63,111.89,105.6,120.42,104.3Z"/><path class="cls-11" d="M119.27,131.07A12.3,12.3,0,0,0,126,137.7c4,1.58,5.13-2.79,4.4-6.85-.66-3.66-2.13-8-6.39-7.9S117.74,127.35,119.27,131.07Z"/><path class="cls-8" d="M142.38,121.89c.12,1.33.92,2.34,1.79,2.25s1.48-1.23,1.36-2.56-.92-2.34-1.79-2.25S142.26,120.56,142.38,121.89Z"/><path class="cls-8" d="M155.45,121c.12,1.33.92,2.34,1.79,2.25s1.48-1.23,1.36-2.56-.92-2.34-1.79-2.26S155.33,119.67,155.45,121Z"/><path class="cls-14" d="M151.14,120.63s4.79,6.24,6.38,8.81c-1.7,1.84-5,1.35-5,1.35Z"/><path class="cls-8" d="M138.58,115.91a.63.63,0,0,0,.61-.14,5.08,5.08,0,0,1,4.32-1.4.63.63,0,0,0,.76-.46.63.63,0,0,0-.46-.75,6.26,6.26,0,0,0-5.47,1.7.62.62,0,0,0,0,.88A.59.59,0,0,0,138.58,115.91Z"/><path class="cls-8" d="M148,135.92a8.68,8.68,0,0,1-5.44-2.31.49.49,0,0,1-.08-.68.48.48,0,0,1,.68-.07c2,1.62,3.63,2.24,5.39,2.07a.49.49,0,0,1,.53.44.48.48,0,0,1-.44.52C148.41,135.91,148.19,135.92,148,135.92Z"/><path class="cls-13" d="M128.2,130.9a.33.33,0,0,1-.32-.25,6.13,6.13,0,0,0-1.41-2.85,3.78,3.78,0,0,0-2.17-1.33,2.08,2.08,0,0,0-2.1.9.31.31,0,0,1-.43.12.31.31,0,0,1-.13-.43,2.67,2.67,0,0,1,2.76-1.22,4.39,4.39,0,0,1,2.55,1.53,6.81,6.81,0,0,1,1.57,3.15.33.33,0,0,1-.26.38Z"/><path class="cls-8" d="M160.71,114.87a.59.59,0,0,0,.3-.2.62.62,0,0,0-.09-.88,6.17,6.17,0,0,0-5.52-1.3.63.63,0,0,0-.41.79.62.62,0,0,0,.78.4,4.8,4.8,0,0,1,4.36,1.08A.62.62,0,0,0,160.71,114.87Z"/><path class="cls-8" d="M117.25,98.88c.76-3,4.5-3.9,7.41-3.51-.39-3.55,4.1-5.94,7-6.05s4.23,1,4.23,1c-.23.07.8-1.83,1.46-2.6a9.26,9.26,0,0,1,10-2.68,10.07,10.07,0,0,1,6.25,8.67,5,5,0,0,1,7.06-.34,5.66,5.66,0,0,1,.21,7.45,4.44,4.44,0,0,1,4.17,4.56,4.39,4.39,0,0,1-4.55,4.14c.05,2.65,0,6,.05,8.6l-4.2-9.44c-1.85-.52-2.26-1.32-2.76-3.27-1.16,2.58-3.26,2.52-6,2.61a7.5,7.5,0,0,1-6.71-4c-1.21,2.7-3.73,4.85-6.56,5a5.81,5.81,0,0,1-5.93-5.15,6.16,6.16,0,0,1-7.65,2.67A6.78,6.78,0,0,1,117.25,98.88Z"/><path class="cls-15" d="M116,116.41l12.63-4.49c.18,1.66.28,3.33.32,5l-11.44,3.92A44.8,44.8,0,0,1,116,116.41Z"/><polygon class="cls-5" points="250.41 203.62 255.31 201.33 261.48 217.61 255.94 219.51 250.41 203.62"/><polygon class="cls-11" points="196.61 507.16 207.82 537.43 217.99 534.14 214.48 502.2 196.61 507.16"/><path class="cls-8" d="M206.73,550.16l9.21-.07a6.9,6.9,0,0,1,2.95-.88c1.09.12,4.89.82,4.89.82l24.47-.19a20.38,20.38,0,0,0-.73-2.74,12.08,12.08,0,0,0-1.18-2.52,6.87,6.87,0,0,0-5.86-3.45c-3.42-.19-14.26-7.31-14.26-7.31a6.45,6.45,0,0,1-4.17-5.5c-.09-1.56-2.41-3.45-3.51-3.6-2.24-.3-3.47,1.12-3.78,3.36l-.36,2.6-5.17-.76s-5.28-2.61-5,0c.15,1.47,1.09,8,1.68,13.17.14,1.21.27,2.35.38,3.35h0C206.55,548.63,206.73,550.16,206.73,550.16Z"/><g class="cls-16"><path class="cls-5" d="M248.25,549.84l-24.47.19s-3.8-.7-4.89-.82a6.9,6.9,0,0,0-2.95.88l-9.21.07s-.18-1.53-.43-3.76l41.22.7A20.38,20.38,0,0,1,248.25,549.84Z"/></g><path class="cls-9" d="M231.61,536.45a.33.33,0,0,0-.42,0,4.2,4.2,0,0,0-1.45,1.69c-.18.38.37.74.55.36a3.68,3.68,0,0,1,1.27-1.5.32.32,0,0,0,.05-.51Z"/><path class="cls-9" d="M229.65,535.32a.33.33,0,0,0-.42,0,4.21,4.21,0,0,0-1.45,1.69c-.18.38.37.74.55.36a3.78,3.78,0,0,1,1.28-1.5.34.34,0,0,0,0-.52Z"/><path class="cls-9" d="M227.64,534.26a.33.33,0,0,0-.42,0,4.17,4.17,0,0,0-1.45,1.7c-.18.37.37.73.55.35a3.74,3.74,0,0,1,1.27-1.5.33.33,0,0,0,0-.51Z"/><polygon class="cls-11" points="123.44 503.18 118.95 536.11 108.22 536.65 104.74 504.9 123.44 503.18"/><path class="cls-8" d="M99.08,551.4h24s.52-1-.08-3.69c-.09-.42-.21-.88-.37-1.38a.24.24,0,0,0,0-.08c-.22-.74-.48-1.65-.75-2.64-1.1-4-2.4-9.27-2.4-9.27s-4-8.55-8.66-6.42c-4.1,1.88-3.13,7.24-3.13,7.24a10.54,10.54,0,0,1-3.51,5.92c-1.92,1.71-3.83,3-4.75,5.17a6.48,6.48,0,0,0-.41,1.29l0,.17A9.92,9.92,0,0,0,99.08,551.4Z"/><g class="cls-16"><path class="cls-5" d="M123,547.71c.6,2.68.08,3.69.08,3.69h-24a9.92,9.92,0,0,1-.1-3.69Z"/></g><path class="cls-9" d="M108.65,536.5a3.23,3.23,0,0,1,4.33.27c.33.32.83-.18.5-.5a4,4,0,0,0-5.34-.27c-.35.28.15.78.51.5Z"/><path class="cls-9" d="M108,538.75a3.22,3.22,0,0,1,4.33.26c.33.32.83-.18.51-.5a4,4,0,0,0-5.34-.27c-.36.28.14.78.5.51Z"/><path class="cls-9" d="M107.29,540.81a3.21,3.21,0,0,1,4.33.27c.33.31.83-.19.5-.51a3.94,3.94,0,0,0-5.33-.26c-.36.28.14.77.5.5Z"/><path class="cls-6" d="M98.63,294.28l51.82.44,30.15-5.27s23.56,99.81,25.43,117.8,18,112.68,18,112.68l-24.53,5.39s-27.89-101.26-29.9-111c-1.75-8.48-21.13-62.85-26.08-76.67-.5,2.83-1,5.67-1.53,8.5-1.25,12.74-5.26,53.38-7,68.5,0,0-3.8,86.39-8.2,111.48l-23.09,0c-3-35.61-5-160.71-5-160.71h0C97,338.3,98.63,294.28,98.63,294.28Z"/><g class="cls-17"><path d="M169.06,308.05a30.48,30.48,0,0,0,20.44,20.18.43.43,0,0,1-.23.82,31.35,31.35,0,0,1-21-20.78c-.16-.52.65-.74.81-.22Z"/><path d="M142.74,308c.57,8.43,1.12,16.88,1.7,25.3,0,.55.87.55.84,0-.3-4.32-.59-8.66-.87-13,2.08,1.6,4.51-.34,5.19-2.49,1.12-3.48.69-7.61-.18-11.09a.42.42,0,0,0-.81.21,23.8,23.8,0,0,1,.69,7.47,10.09,10.09,0,0,1-.8,3.91c-.67,1.31-2.35,2.41-3.7,1.23a.39.39,0,0,0-.45-.07c-.25-3.82-.51-7.66-.77-11.48C143.55,307.5,142.71,307.5,142.74,308Z"/><path d="M118,309.48a21.29,21.29,0,0,1-19.6,21.41c-.54,0-.53-.79,0-.83a20.45,20.45,0,0,0,18.77-20.58.42.42,0,0,1,.83,0Z"/></g><rect class="cls-18" x="158.77" y="296.63" width="17.85" height="7.75" transform="translate(-26.79 16.6) rotate(-5.25)"/><rect class="cls-18" x="119.96" y="299.91" width="17.85" height="7.75" transform="translate(-11.92 5.34) rotate(-2.27)"/><rect class="cls-18" x="139.14" y="298.6" width="17.85" height="7.75" transform="translate(-27.06 14.82) rotate(-5.25)"/><path class="cls-5" d="M161.73,161.64c-7-.44-36.13-.95-64.91,4.83l6.69,96.64a165.32,165.32,0,0,1-1.34,25.74c30.1,11.64,61.6,9.23,80.78-2.72,0-.15.41-.1-1.46-17.75-3.3-31.12-6.89-75.56-12-103.54C169.33,164.15,162.43,161.68,161.73,161.64Z"/><polygon class="cls-5" points="50.08 301.39 49.51 306.76 67.64 307.79 68.84 302.87 50.08 301.39"/><path class="cls-8" d="M132.21,220.89c-1.66-28.95-10.63-63-10.63-63-23.35,7-29,8.9-29,8.9s2.52,26.05,2.74,48.51c0,7.22,6.85,41.52,6.85,46.67L91.74,322.62c.24,4.85,31.54,3.1,43.23,1.83C138.91,323.94,133.87,249.84,132.21,220.89Z"/><path class="cls-8" d="M149.93,158.19s13.54,31,14.54,78.82,2.11,82.7,2.11,82.7S188.7,322,191,317.57c1.27-2.4-6.85-50-6.85-50s-6-96.78-7.94-102.19C176.2,165.37,149.46,158.08,149.93,158.19Z"/><path class="cls-8" d="M130,149.45l-10.86,8.44-.67,15.34a21.23,21.23,0,0,0,4.48,14l2.26,2.9-4,3.46A4,4,0,0,0,120,198l12.6,35.51h0c-.25-9.33.47-26.14-3.08-50.77C128.16,173.05,128.89,159.16,130,149.45Z"/><path class="cls-8" d="M147.34,157.89s4.7,4.31,7.44,14.54,9.43,55.23,9.58,60.91l.56-.46,4.55-39.06a6.79,6.79,0,0,0-3-4.69l-4.37-2.85h0A16.25,16.25,0,0,0,164,171.43c-1.77-4.79-4-10.21-5.3-11.62-3-2.91-8.61-5.88-12.39-7.87Z"/><polygon class="cls-8" points="83.65 240.92 83.65 241.01 83.8 240.63 83.79 240.65 83.65 240.92"/><polygon class="cls-9" points="138.65 172.02 142.14 177.26 146.72 177.02 147.97 170.98 142.46 165.09 138.65 172.02"/><polygon class="cls-13" points="142.14 177.26 137.86 274.55 151.18 288.85 157.99 273.59 145.36 177.82 142.14 177.26"/><polygon class="cls-6" points="142.14 177.26 141.46 274.41 151.18 288.85 159.49 273.59 146.74 176.9 142.14 177.26"/><path class="cls-19" d="M130,149.45l-10.86,8.44-.67,15.34a21.23,21.23,0,0,0,4.48,14l2.26,2.9-4,3.46A4,4,0,0,0,120,198l12.6,35.51h0c-.25-9.33.47-26.14-3.08-50.77C128.16,173.05,128.89,159.16,130,149.45Z"/><path class="cls-19" d="M147.34,157.89s4.7,4.31,7.44,14.54,9.43,55.23,9.58,60.91l.56-.46,4.55-39.06a6.79,6.79,0,0,0-3-4.69l-4.37-2.85h0A16.25,16.25,0,0,0,164,171.43c-1.77-4.79-4-10.21-5.3-11.62-3-2.91-8.61-5.88-12.39-7.87Z"/><path class="cls-8" d="M102.17,204.87c-2.45,5.95-16.34,40.29-17.44,42.4L70.62,303.13l-21.11-1.67,11.23-63.32,21-55.48s5.86-15,12.06-16.31Z"/><path class="cls-8" d="M176.2,165.37a19.47,19.47,0,0,1,8.6,10.87c2.73,7.93,27,36.81,27,36.81l38.72-11.88c0,.73,7.21,19,7.21,19s-34.32,22-46.31,21.72S179,214.52,179,214.52Z"/><path class="cls-13" d="M128.78,172.13l8.26,5.13,5.7-10.25,6.34,7.43,1.1-10.81s-3.14,6-3.23,5.76-4.16-4-4.16-4l-7.62,4.9s-6.36-3.73-6.36-3.66S128.78,172.13,128.78,172.13Z"/><path class="cls-5" d="M129.08,152.4l13.4,11.83,3.78-12.29L150.48,162l-1.94,10.49-6.08-7.43s-5.57,10-6,10.21-7.65-7.53-7.65-7.53Z"/><path class="cls-12" d="M211.85,213.05a27.28,27.28,0,0,1-1.16,9.17A20.51,20.51,0,0,0,215.42,212Z"/><path class="cls-20" d="M607,496.23c-26.62,0-48.2,4.86-48.2,10.86S580.39,518,607,518s48.2-4.87,48.2-10.87-21.58-10.86-48.2-10.86Z"/><path class="cls-20" d="M613.76,462.34c-26.63,0-48.21,4.86-48.21,10.86s21.58,10.87,48.21,10.87S662,479.21,662,473.2s-21.58-10.86-48.19-10.86Z"/><path class="cls-20" d="M616.39,481.62c-26.62,0-48.19,4.86-48.19,10.86s21.57,10.86,48.19,10.86,48.2-4.87,48.2-10.86-21.58-10.86-48.2-10.86Z"/><path class="cls-20" d="M623.14,447.73c-26.62,0-48.2,4.86-48.2,10.86s21.58,10.87,48.2,10.87,48.2-4.86,48.2-10.87-21.59-10.86-48.2-10.86Z"/><path class="cls-21" d="M607,530.21c-26.62,0-48.2-4.87-48.2-10.86V507.09c0,6,21.58,10.86,48.2,10.86s48.2-4.86,48.2-10.86v12.26c0,6-21.58,10.86-48.2,10.86Z"/><path class="cls-21" d="M613.76,496.33c-26.62,0-48.21-4.86-48.21-10.87V473.2c0,6,21.59,10.87,48.21,10.87S662,479.2,662,473.2v12.26c0,6-21.58,10.87-48.19,10.87Z"/><path class="cls-21" d="M616.39,515.6c-26.62,0-48.19-4.87-48.19-10.87V492.48c0,6,21.57,10.86,48.19,10.86s48.2-4.87,48.2-10.86v12.25c0,6-21.58,10.87-48.2,10.87Z"/><path class="cls-21" d="M623.14,481.72c-26.62,0-48.2-4.87-48.2-10.86V458.6c0,6,21.58,10.86,48.2,10.86s48.2-4.86,48.2-10.86v12.26c0,6-21.59,10.86-48.2,10.86Z"/><path class="cls-20" d="M526.92,526.48c-26.61,0-48.19,4.86-48.19,10.86s21.58,10.87,48.19,10.87,48.2-4.87,48.2-10.87-21.57-10.86-48.2-10.86Z"/><path class="cls-20" d="M528,495.15c26.62,0,48.2,4.87,48.2,10.86s-21.58,10.87-48.2,10.87S479.75,512,479.75,506s21.58-10.86,48.2-10.86Z"/><path class="cls-20" d="M525.25,465.85c26.63,0,48.21,4.87,48.21,10.87s-21.58,10.86-48.21,10.86-48.19-4.86-48.19-10.86,21.58-10.87,48.19-10.87Z"/><path class="cls-20" d="M536.31,511.87c-26.61,0-48.2,4.86-48.2,10.87s21.59,10.86,48.2,10.86,48.2-4.86,48.2-10.86-21.58-10.87-48.2-10.87Z"/><path class="cls-20" d="M518.57,480.54c26.62,0,48.19,4.87,48.19,10.87s-21.57,10.86-48.19,10.86-48.2-4.86-48.2-10.86,21.57-10.87,48.2-10.87Z"/><path class="cls-20" d="M515.87,451.25c26.62,0,48.2,4.86,48.2,10.86S542.49,473,515.87,473s-48.2-4.87-48.2-10.87,21.59-10.86,48.2-10.86Z"/><path class="cls-21" d="M526.93,560.47c-26.62,0-48.2-4.87-48.2-10.87V537.34c0,6,21.58,10.87,48.2,10.87s48.19-4.87,48.19-10.87V549.6c0,6-21.57,10.87-48.19,10.87Z"/><path class="cls-21" d="M528,529.14c26.62,0,48.2-4.86,48.2-10.86V506c0,6-21.58,10.87-48.2,10.87S479.76,512,479.76,506v12.27c0,6,21.57,10.86,48.19,10.86Z"/><path class="cls-21" d="M525.25,499.84c26.63,0,48.21-4.87,48.21-10.86V476.72c0,6-21.58,10.86-48.21,10.86s-48.19-4.86-48.19-10.86V489c0,6,21.58,10.86,48.19,10.86Z"/><path class="cls-21" d="M536.31,545.85c-26.61,0-48.2-4.86-48.2-10.86V522.73c0,6,21.59,10.87,48.2,10.87s48.2-4.86,48.2-10.87V535c0,6-21.58,10.86-48.2,10.86Z"/><path class="cls-21" d="M518.57,514.53c26.62,0,48.19-4.86,48.19-10.86V491.41c0,6-21.57,10.86-48.19,10.86s-48.2-4.86-48.2-10.86v12.26c0,6,21.57,10.86,48.2,10.86Z"/><path class="cls-21" d="M515.87,485.23c26.62,0,48.2-4.86,48.2-10.87V462.11c0,6-21.58,10.87-48.2,10.87s-48.2-4.87-48.2-10.87v12.25c0,6,21.59,10.87,48.2,10.87Z"/><path class="cls-22" d="M601,453.11a7.76,7.76,0,0,0-2.8,4.26l-6.59.14-.38,2.87,7.09-.16c1.08,3.08,5.56,4.82,11.66,4.69a18.22,18.22,0,0,0,13-5.1c2.85-2.74,5-3.75,8.2-3.81s5.4.9,5.12,3c-.25,1.84-1.84,3.59-3.43,4.77l6.86.73a9.08,9.08,0,0,0,3.38-4.94l7.09-.14.39-2.87-7.6.15c-.93-3.27-5.77-5.09-12.12-5s-10.16,1.79-13.92,5.31c-2.73,2.35-4.63,3.65-7.5,3.7-2.43.06-4.84-.89-4.59-2.85.23-1.69,1.73-3.15,2.77-4Z"/><path class="cls-22" d="M496,456.89a7.68,7.68,0,0,0-2.81,4.26l-6.59.14-.38,2.86,7.09-.15c1.08,3.07,5.57,4.82,11.66,4.69a18.26,18.26,0,0,0,13-5.1c2.85-2.75,5-3.75,8.2-3.81s5.4.9,5.12,3c-.24,1.84-1.84,3.59-3.43,4.76l6.86.74a9.08,9.08,0,0,0,3.38-4.94l7.1-.14.38-2.87-7.6.15c-.93-3.27-5.77-5.09-12.12-5s-10.16,1.79-13.92,5.31c-2.73,2.35-4.63,3.65-7.49,3.7-2.43.06-4.86-.89-4.59-2.85.22-1.69,1.72-3.15,2.76-4.05Z"/></g></g></svg>