<svg xmlns="http://www.w3.org/2000/svg" xmlns:xlink="http://www.w3.org/1999/xlink" viewBox="0 0 650.24 525.95"><defs><style>.cls-1{isolation:isolate;}.cls-2{fill:url(#linear-gradient);}.cls-3{fill:url(#linear-gradient-2);}.cls-4{fill:url(#linear-gradient-3);}.cls-5{fill:url(#linear-gradient-4);}.cls-6{fill:url(#linear-gradient-5);}.cls-7{fill:#d0e0f0;}.cls-47,.cls-7{opacity:0.8;}.cls-42,.cls-45,.cls-47,.cls-7{mix-blend-mode:multiply;}.cls-8{fill:#0050ac;}.cls-9{fill:#3380db;}.cls-10{fill:#0058b3;}.cls-11{fill:#006ecb;}.cls-12{fill:#257cda;}.cls-13{fill:#549dff;}.cls-14{fill:#9bb4ff;}.cls-15{fill:#407dde;}.cls-16{fill:#91cdfb;}.cls-17{fill:#a4dcff;}.cls-18{fill:#f2b139;}.cls-19,.cls-20{fill:#ffc635;}.cls-20,.cls-42{opacity:0.5;}.cls-20{mix-blend-mode:screen;}.cls-21{fill:url(#linear-gradient-6);}.cls-22{fill:url(#linear-gradient-7);}.cls-23{fill:url(#linear-gradient-8);}.cls-24{fill:url(#linear-gradient-9);}.cls-25{fill:url(#linear-gradient-10);}.cls-26{fill:url(#linear-gradient-11);}.cls-27{fill:url(#linear-gradient-12);}.cls-28{fill:url(#linear-gradient-13);}.cls-29{fill:url(#linear-gradient-14);}.cls-30{fill:url(#linear-gradient-15);}.cls-31{fill:url(#linear-gradient-16);}.cls-32{fill:url(#linear-gradient-17);}.cls-33{fill:url(#linear-gradient-18);}.cls-34{fill:url(#linear-gradient-19);}.cls-35{fill:url(#linear-gradient-20);}.cls-36{fill:url(#linear-gradient-21);}.cls-37{fill:url(#linear-gradient-22);}.cls-38{fill:url(#linear-gradient-23);}.cls-39{fill:url(#linear-gradient-24);}.cls-40{fill:url(#linear-gradient-25);}.cls-41{fill:url(#linear-gradient-26);}.cls-42{fill:#5393c2;}.cls-43{fill:#00325c;}.cls-44,.cls-45{fill:#363f73;}.cls-45{opacity:0.2;}.cls-46,.cls-47{fill:#f4e5cb;}.cls-48{fill:#92d3ff;}.cls-49{fill:#2e4987;}.cls-50{fill:#fdfdfd;}.cls-51{fill:#7fb3fb;}.cls-52{fill:#7ea6bc;}.cls-53{fill:#a5cbe8;}.cls-54{fill:#003f67;}.cls-55{fill:#f3bc87;}</style><linearGradient id="linear-gradient" x1="211.51" y1="331.91" x2="252.11" y2="66.19" gradientUnits="userSpaceOnUse"><stop offset="0" stop-color="#72b2ff" stop-opacity="0.1"/><stop offset="0.13" stop-color="#72b2ff" stop-opacity="0.19"/><stop offset="0.42" stop-color="#72b2ff" stop-opacity="0.44"/><stop offset="0.82" stop-color="#72b2ff" stop-opacity="0.82"/><stop offset="1" stop-color="#72b2ff"/></linearGradient><linearGradient id="linear-gradient-2" x1="1948.2" y1="170.52" x2="1948.2" y2="96.91" gradientTransform="matrix(-1, 0, 0, 1, 2471.26, 0)" gradientUnits="userSpaceOnUse"><stop offset="0" stop-color="#72d6ff" stop-opacity="0.1"/><stop offset="0.13" stop-color="#72d6ff" stop-opacity="0.19"/><stop offset="0.42" stop-color="#72d6ff" stop-opacity="0.44"/><stop offset="0.82" stop-color="#72d6ff" stop-opacity="0.82"/><stop offset="1" stop-color="#72d6ff"/></linearGradient><linearGradient id="linear-gradient-3" x1="1980.93" y1="101.93" x2="1980.93" y2="54.64" xlink:href="#linear-gradient-2"/><linearGradient id="linear-gradient-4" x1="2320.05" y1="358.98" x2="2320.05" y2="266.8" xlink:href="#linear-gradient-2"/><linearGradient id="linear-gradient-5" x1="2276.73" y1="273.09" x2="2276.73" y2="213.87" xlink:href="#linear-gradient-2"/><linearGradient id="linear-gradient-6" x1="18.09" y1="384.49" x2="52.93" y2="311.37" gradientUnits="userSpaceOnUse"><stop offset="0" stop-color="#ffe485" stop-opacity="0.1"/><stop offset="0.13" stop-color="#ffe485" stop-opacity="0.19"/><stop offset="0.42" stop-color="#ffe485" stop-opacity="0.44"/><stop offset="0.82" stop-color="#ffe485" stop-opacity="0.82"/><stop offset="1" stop-color="#ffe485"/></linearGradient><linearGradient id="linear-gradient-7" x1="18.09" y1="384.49" x2="52.93" y2="311.37" xlink:href="#linear-gradient-6"/><linearGradient id="linear-gradient-8" x1="18.31" y1="384.6" x2="53.16" y2="311.47" xlink:href="#linear-gradient-6"/><linearGradient id="linear-gradient-9" x1="82.33" y1="275.75" x2="102.82" y2="232.75" xlink:href="#linear-gradient-6"/><linearGradient id="linear-gradient-10" x1="82.33" y1="275.75" x2="102.82" y2="232.75" xlink:href="#linear-gradient-6"/><linearGradient id="linear-gradient-11" x1="82.46" y1="275.82" x2="102.96" y2="232.81" xlink:href="#linear-gradient-6"/><linearGradient id="linear-gradient-12" x1="551.14" y1="240.13" x2="571.63" y2="197.12" xlink:href="#linear-gradient-6"/><linearGradient id="linear-gradient-13" x1="551.14" y1="240.13" x2="571.63" y2="197.12" xlink:href="#linear-gradient-6"/><linearGradient id="linear-gradient-14" x1="551.27" y1="240.19" x2="571.77" y2="197.19" xlink:href="#linear-gradient-6"/><linearGradient id="linear-gradient-15" x1="543.69" y1="371.39" x2="574.04" y2="307.7" xlink:href="#linear-gradient-6"/><linearGradient id="linear-gradient-16" x1="543.69" y1="371.39" x2="574.04" y2="307.7" xlink:href="#linear-gradient-6"/><linearGradient id="linear-gradient-17" x1="543.89" y1="371.48" x2="574.24" y2="307.79" xlink:href="#linear-gradient-6"/><linearGradient id="linear-gradient-18" x1="39.61" y1="221.43" x2="66.69" y2="164.6" xlink:href="#linear-gradient-6"/><linearGradient id="linear-gradient-19" x1="39.61" y1="221.43" x2="66.69" y2="164.6" xlink:href="#linear-gradient-6"/><linearGradient id="linear-gradient-20" x1="39.79" y1="221.52" x2="66.87" y2="164.69" xlink:href="#linear-gradient-6"/><linearGradient id="linear-gradient-21" x1="612.08" y1="293.67" x2="636.26" y2="242.93" xlink:href="#linear-gradient-6"/><linearGradient id="linear-gradient-22" x1="612.08" y1="293.67" x2="636.26" y2="242.93" xlink:href="#linear-gradient-6"/><linearGradient id="linear-gradient-23" x1="612.24" y1="293.74" x2="636.42" y2="243.01" xlink:href="#linear-gradient-6"/><linearGradient id="linear-gradient-24" x1="207.24" y1="69.29" x2="226.93" y2="27.96" xlink:href="#linear-gradient-6"/><linearGradient id="linear-gradient-25" x1="207.24" y1="69.29" x2="226.93" y2="27.96" xlink:href="#linear-gradient-6"/><linearGradient id="linear-gradient-26" x1="207.37" y1="69.35" x2="227.06" y2="28.03" xlink:href="#linear-gradient-6"/></defs><g class="cls-1"><g id="Layer_2" data-name="Layer 2"><g id="Layer_1-2" data-name="Layer 1"><path class="cls-2" d="M127.9,299.62H92.22V195.8H127.9ZM180.25,161.3H144.57V299.62h35.68ZM232.6,173H196.92V299.62H232.6Zm52.34-43.19H249.27V299.62h35.67Zm52.35-61.86H301.61V299.62h35.68ZM327.67,0,299.12,16.16l11.47,6.75L214.42,140.44,161.8,105.61,107.67,171l4.78,4L163,113.86l52.07,34.47L315.94,26.05,327.4,32.8Zm37.52,309.21H64.32v2.94H365.19Z"/><path class="cls-3" d="M486.26,130.61v6.2a4,4,0,0,0,3.16,3.95l1.23.27a4,4,0,0,1,2.94,2.63,31.77,31.77,0,0,0,1.59,3.85,4,4,0,0,1-.21,4l-.68,1.06a4,4,0,0,0,.55,5l4.39,4.39a4,4,0,0,0,5,.55l1-.63a4,4,0,0,1,4-.21,30.33,30.33,0,0,0,3.94,1.65,4,4,0,0,1,2.61,2.94l.26,1.12a4,4,0,0,0,3.94,3.17h6.2a4,4,0,0,0,4-3.17l.23-1a4,4,0,0,1,2.64-3,30.35,30.35,0,0,0,4.08-1.67,4,4,0,0,1,3.94.22l.87.55a4,4,0,0,0,5-.55l4.39-4.39a4,4,0,0,0,.55-5l-.51-.81a4.06,4.06,0,0,1-.19-4,31.59,31.59,0,0,0,1.71-4.1,4,4,0,0,1,2.95-2.66l.91-.2a4,4,0,0,0,3.17-3.95v-6.2a4,4,0,0,0-3.17-3.94l-.91-.21a4,4,0,0,1-2.95-2.66,32.8,32.8,0,0,0-1.71-4.1,4.06,4.06,0,0,1,.19-4l.51-.8a4,4,0,0,0-.55-5l-4.39-4.39a4,4,0,0,0-5-.55l-.87.56a4,4,0,0,1-3.94.21A30.35,30.35,0,0,0,533,104a4,4,0,0,1-2.64-3l-.23-1a4,4,0,0,0-4-3.16H520a4,4,0,0,0-3.94,3.16l-.26,1.13a4,4,0,0,1-2.61,2.93,31.78,31.78,0,0,0-3.94,1.65,4,4,0,0,1-4-.21l-1-.63a4,4,0,0,0-5,.55l-4.39,4.39a4,4,0,0,0-.55,5L495,116a4,4,0,0,1,.21,3.94,32.45,32.45,0,0,0-1.59,3.85,4,4,0,0,1-2.94,2.63l-1.23.28A4,4,0,0,0,486.26,130.61Zm18.72,3.1a18.23,18.23,0,1,1,18.23,18.22A18.23,18.23,0,0,1,505,133.71Z"/><path class="cls-4" d="M466.68,76.29v4a2.59,2.59,0,0,0,2,2.53l.79.18a2.57,2.57,0,0,1,1.89,1.69,19.13,19.13,0,0,0,1,2.47,2.59,2.59,0,0,1-.14,2.54l-.43.68a2.59,2.59,0,0,0,.35,3.23L475,96.42a2.6,2.6,0,0,0,3.23.35l.64-.41a2.61,2.61,0,0,1,2.55-.13A20,20,0,0,0,484,97.29a2.55,2.55,0,0,1,1.68,1.89l.17.72a2.58,2.58,0,0,0,2.53,2h4a2.59,2.59,0,0,0,2.53-2l.15-.66a2.56,2.56,0,0,1,1.7-1.89,20,20,0,0,0,2.62-1.08,2.57,2.57,0,0,1,2.53.15l.56.35a2.6,2.6,0,0,0,3.23-.35l2.81-2.82a2.6,2.6,0,0,0,.36-3.23l-.33-.52a2.57,2.57,0,0,1-.12-2.56,20.35,20.35,0,0,0,1.09-2.64,2.61,2.61,0,0,1,1.9-1.71l.59-.13a2.59,2.59,0,0,0,2-2.53v-4a2.59,2.59,0,0,0-2-2.53l-.59-.13a2.61,2.61,0,0,1-1.9-1.71,20.35,20.35,0,0,0-1.09-2.64,2.57,2.57,0,0,1,.12-2.56l.33-.52a2.6,2.6,0,0,0-.36-3.23l-2.81-2.82a2.6,2.6,0,0,0-3.23-.35l-.56.36a2.6,2.6,0,0,1-2.53.14,20,20,0,0,0-2.62-1.08,2.56,2.56,0,0,1-1.7-1.89l-.15-.66a2.59,2.59,0,0,0-2.53-2h-4a2.58,2.58,0,0,0-2.53,2l-.17.72A2.55,2.55,0,0,1,484,59.28a20,20,0,0,0-2.52,1.06,2.61,2.61,0,0,1-2.55-.13l-.64-.41a2.6,2.6,0,0,0-3.23.35L472.19,63a2.59,2.59,0,0,0-.35,3.23l.43.68a2.59,2.59,0,0,1,.14,2.54,19.13,19.13,0,0,0-1,2.47,2.57,2.57,0,0,1-1.89,1.69l-.79.18A2.59,2.59,0,0,0,466.68,76.29Zm12,2A11.71,11.71,0,1,1,490.42,90,11.71,11.71,0,0,1,478.71,78.29Z"/><path class="cls-5" d="M105.12,309v7.77a5.05,5.05,0,0,0,4,4.93l1.54.35a5,5,0,0,1,3.68,3.29,39.26,39.26,0,0,0,2,4.83,5,5,0,0,1-.27,4.93l-.85,1.33a5.07,5.07,0,0,0,.69,6.29l5.5,5.5a5.07,5.07,0,0,0,6.29.69l1.25-.79a5,5,0,0,1,5-.26,39.69,39.69,0,0,0,4.93,2.06,5,5,0,0,1,3.27,3.68l.32,1.41a5.05,5.05,0,0,0,4.94,4h7.77a5.05,5.05,0,0,0,4.93-4l.29-1.28a5,5,0,0,1,3.32-3.69,39.29,39.29,0,0,0,5.1-2.1,5,5,0,0,1,4.93.28l1.09.69a5.07,5.07,0,0,0,6.29-.69l5.5-5.5a5.07,5.07,0,0,0,.69-6.29l-.64-1a5,5,0,0,1-.24-5,40,40,0,0,0,2.14-5.14,5.06,5.06,0,0,1,3.69-3.33l1.15-.26a5.05,5.05,0,0,0,4-4.93V309a5.05,5.05,0,0,0-4-4.94l-1.15-.26a5,5,0,0,1-3.69-3.33,40,40,0,0,0-2.14-5.14,5,5,0,0,1,.24-5l.64-1a5.07,5.07,0,0,0-.69-6.29l-5.5-5.5a5.07,5.07,0,0,0-6.29-.69l-1.09.69a5,5,0,0,1-4.93.28,39.29,39.29,0,0,0-5.1-2.1,5,5,0,0,1-3.32-3.69l-.29-1.28a5.05,5.05,0,0,0-4.93-4h-7.77a5.05,5.05,0,0,0-4.94,4l-.32,1.41a5,5,0,0,1-3.27,3.68,39.69,39.69,0,0,0-4.93,2.06,5,5,0,0,1-5-.26l-1.25-.79a5.07,5.07,0,0,0-6.29.69l-5.5,5.5a5.07,5.07,0,0,0-.69,6.29l.85,1.33a5.06,5.06,0,0,1,.27,4.94,38.49,38.49,0,0,0-2,4.82,5,5,0,0,1-3.68,3.29l-1.54.35A5.05,5.05,0,0,0,105.12,309Zm23.45,3.88a22.82,22.82,0,1,1,22.82,22.82A22.82,22.82,0,0,1,128.57,312.89Z"/><path class="cls-6" d="M164.91,241v5a3.25,3.25,0,0,0,2.54,3.17l1,.22a3.24,3.24,0,0,1,2.37,2.12,26.24,26.24,0,0,0,1.28,3.1,3.26,3.26,0,0,1-.17,3.17l-.55.85a3.27,3.27,0,0,0,.45,4.05l3.53,3.53a3.25,3.25,0,0,0,4,.44l.8-.51a3.24,3.24,0,0,1,3.19-.17,25.25,25.25,0,0,0,3.17,1.33,3.22,3.22,0,0,1,2.1,2.36l.2.91a3.24,3.24,0,0,0,3.18,2.54h5a3.24,3.24,0,0,0,3.17-2.54l.19-.82a3.23,3.23,0,0,1,2.13-2.38,24.64,24.64,0,0,0,3.27-1.34,3.23,3.23,0,0,1,3.17.17l.7.45a3.27,3.27,0,0,0,4-.44l3.53-3.53a3.27,3.27,0,0,0,.44-4.05l-.41-.65a3.24,3.24,0,0,1-.16-3.2,24.05,24.05,0,0,0,1.38-3.31,3.25,3.25,0,0,1,2.37-2.14l.74-.16a3.25,3.25,0,0,0,2.55-3.17v-5a3.25,3.25,0,0,0-2.55-3.17l-.74-.16a3.25,3.25,0,0,1-2.37-2.14,23.93,23.93,0,0,0-1.38-3.3,3.25,3.25,0,0,1,.16-3.21l.41-.65a3.25,3.25,0,0,0-.44-4l-3.53-3.53a3.25,3.25,0,0,0-4-.45l-.7.45a3.23,3.23,0,0,1-3.17.17,24.64,24.64,0,0,0-3.27-1.34,3.23,3.23,0,0,1-2.13-2.37l-.19-.83a3.24,3.24,0,0,0-3.17-2.54h-5a3.24,3.24,0,0,0-3.18,2.54l-.2.91a3.22,3.22,0,0,1-2.1,2.36,25.25,25.25,0,0,0-3.17,1.33,3.24,3.24,0,0,1-3.19-.17l-.8-.51a3.24,3.24,0,0,0-4,.45l-3.53,3.53a3.25,3.25,0,0,0-.45,4l.55.85a3.26,3.26,0,0,1,.17,3.17,26.24,26.24,0,0,0-1.28,3.1,3.22,3.22,0,0,1-2.37,2.12l-1,.22A3.25,3.25,0,0,0,164.91,241Zm15.07,2.5a14.66,14.66,0,1,1,14.66,14.66A14.66,14.66,0,0,1,180,243.48Z"/><ellipse class="cls-7" cx="301.13" cy="416.6" rx="181.41" ry="109.35"/><ellipse class="cls-7" cx="429.37" cy="459.52" rx="151.06" ry="44.77"/><g class="cls-1"><polygon class="cls-8" points="294.37 215.95 294.37 415.49 342.66 459.37 342.66 259.82 294.37 215.95"/><path class="cls-9" d="M294.37,216l48.29,43.88L425,297.31c31.1-8.65,51-21.84,51-36.61,0-26-61.76-47.19-137.93-47.19A385.28,385.28,0,0,0,294.37,216Z"/><polygon class="cls-10" points="342.66 259.82 342.66 459.37 424.99 496.85 424.99 297.31 342.66 259.82"/><path class="cls-11" d="M428.09,296.4c1-.3,2-.6,3-.91s1.72-.56,2.58-.84,1.93-.63,2.86-1c1.34-.47,2.64-.94,3.93-1.43.27-.11.56-.21.84-.31,1.55-.6,3.05-1.22,4.52-1.84l1.26-.57c1-.45,2-.9,3-1.36l1.5-.74c.85-.42,1.68-.84,2.49-1.27l1.48-.81c.77-.43,1.51-.86,2.23-1.29l1.37-.83q1.08-.69,2.1-1.38c.39-.26.79-.53,1.17-.8.74-.53,1.45-1.07,2.14-1.61.26-.21.54-.41.79-.62.92-.75,1.78-1.51,2.59-2.28.16-.16.3-.33.47-.49.62-.61,1.21-1.23,1.76-1.86.24-.28.46-.56.68-.84.42-.52.83-1,1.2-1.56.23-.31.43-.63.63-.95.32-.5.63-1,.9-1.52.18-.32.35-.65.5-1a16.18,16.18,0,0,0,.66-1.56c.12-.32.25-.64.35-1,.18-.57.32-1.15.44-1.72.06-.28.14-.55.18-.83a17.28,17.28,0,0,0,.22-2.58h0V460.24a17.28,17.28,0,0,1-.22,2.58c0,.28-.12.55-.18.83-.12.57-.26,1.15-.44,1.72-.1.32-.23.64-.35,1a15.18,15.18,0,0,1-.66,1.56c-.15.33-.32.66-.5,1-.27.51-.58,1-.9,1.52-.2.32-.4.64-.63.95-.37.53-.77,1-1.19,1.56-.23.28-.45.57-.69.85-.55.62-1.14,1.23-1.76,1.84-.16.17-.31.34-.48.5q-1.2,1.16-2.58,2.28c-.25.21-.54.42-.8.62-.69.54-1.39,1.08-2.13,1.61-.38.27-.78.54-1.18.8-.68.46-1.37.92-2.09,1.38-.44.28-.91.55-1.37.83-.72.43-1.47.86-2.23,1.29l-1.48.81c-.81.43-1.64.85-2.49,1.27l-1.5.74c-1,.46-2,.91-3,1.36l-1.26.57c-1.47.62-3,1.24-4.52,1.84-.28.1-.57.2-.84.31-1.15.43-2.29.86-3.48,1.28l-.45.15c-.93.33-1.9.64-2.86,1s-1.7.57-2.58.84-2,.6-3,.9c-.77.23-1.52.47-2.31.69l-.82.23V297.31C426.05,297,427.06,296.7,428.09,296.4Z"/><polygon class="cls-12" points="191.83 285.25 191.83 445.32 317.52 454.14 317.52 294.07 191.83 285.25"/><path class="cls-9" d="M191.83,285.25l125.69,8.82L272.29,253C232.49,258.71,202.26,270.65,191.83,285.25Z"/><path class="cls-13" d="M330.85,352,204,343.12a17.93,17.93,0,0,0-1.87,7.71c0,14.76,19.84,27.93,50.87,36.59Z"/><path class="cls-14" d="M202.19,352a16.51,16.51,0,0,0,.29,2.21c.08.38.18.75.28,1.13a18.52,18.52,0,0,0,.61,1.82c.15.38.3.77.48,1.15.27.57.57,1.14.9,1.7.21.37.42.75.66,1.12.38.58.81,1.15,1.24,1.72.26.33.5.68.78,1,.57.68,1.2,1.35,1.86,2,.22.22.4.45.63.67.92.89,1.92,1.77,3,2.64.25.2.53.4.79.6.89.69,1.81,1.38,2.79,2.05l1.29.84c1,.64,2,1.27,3.05,1.89.46.28.93.55,1.41.82,1.66.93,3.39,1.85,5.24,2.74,1.33.64,2.72,1.27,4.14,1.89l1.35.56c1,.41,2,.82,3,1.21s1.94.74,2.93,1.11l2.32.85c1,.36,2.1.71,3.17,1.06l2.35.78q3,1,6.25,1.86v117q-3.21-.9-6.25-1.86l-.49-.14-1.86-.63c-1.07-.35-2.14-.71-3.17-1.07l-2.32-.85c-1-.36-2-.73-2.93-1.1l-.77-.29c-.75-.3-1.47-.62-2.21-.93l-1.33-.55c-1.41-.62-2.79-1.24-4.11-1.88l0,0c-1.85-.89-3.57-1.8-5.24-2.74l-.62-.32c-.28-.16-.52-.33-.8-.5-1-.62-2.07-1.25-3-1.88-.28-.18-.6-.36-.87-.54s-.27-.21-.42-.31c-1-.67-1.91-1.36-2.8-2.05-.21-.17-.46-.33-.66-.49l-.12-.1c-1.07-.87-2.07-1.75-3-2.65l-.09-.07c-.2-.2-.35-.4-.54-.59-.66-.67-1.29-1.34-1.86-2-.06-.07-.15-.15-.21-.23-.21-.25-.37-.52-.57-.78-.43-.57-.86-1.14-1.24-1.72-.08-.12-.19-.25-.27-.38s-.25-.49-.39-.74c-.33-.56-.63-1.13-.9-1.7-.08-.17-.2-.35-.28-.53s-.12-.41-.2-.62a17.67,17.67,0,0,1-.61-1.82c-.06-.23-.17-.45-.22-.68s0-.3-.06-.45a16.51,16.51,0,0,1-.29-2.21c0-.23-.08-.46-.09-.69s0-.31,0-.46V350.83C202.09,351.21,202.16,351.59,202.19,352Z"/><polygon class="cls-15" points="252.96 387.42 252.96 504.37 330.85 468.96 330.85 352.01 252.96 387.42"/><path class="cls-16" d="M263.48,435c3.35.79,6.83,1.53,10.37,2.23L278,438c1.8.33,3.61.66,5.46,1l3.74.58q4.23.63,8.58,1.19l3.7.46c3.67.42,7.39.8,11.19,1.12l1.19.11c4,.33,8.05.58,12.15.79,1.8.09,3.62.15,5.44.22s3.61.15,5.44.19c3.4.08,6.82.14,10.28.14q5.5,0,10.91-.15l2.3-.08c2.66-.08,5.31-.18,7.94-.32,1.15-.05,2.3-.13,3.45-.2,2.21-.13,4.42-.27,6.6-.44l3.6-.29c2.15-.18,4.28-.39,6.39-.61l3.32-.34c2.37-.26,4.69-.56,7-.86.82-.11,1.65-.2,2.46-.32,3.12-.43,6.2-.9,9.21-1.41.8-.13,1.56-.29,2.35-.43,2.27-.4,4.53-.8,6.73-1.25,1.92-.38,3.77-.8,5.64-1.22,1.21-.27,2.47-.52,3.66-.8v77l-.44.1c-1.05.25-2.16.46-3.22.7-1.87.42-3.72.84-5.64,1.22l-.37.08c-2.08.42-4.22.79-6.36,1.17-.79.14-1.55.3-2.35.43l-.13,0q-4.23.72-8.61,1.33l-.47.06c-.81.12-1.64.21-2.46.32-1.86.24-3.72.5-5.62.72l-1.37.14-3.3.34c-1.3.14-2.59.29-3.9.41l-2.52.2-3.59.29c-.87.07-1.72.15-2.6.21-1.32.09-2.67.15-4,.23l-3.45.2c-.49,0-1,.07-1.46.09-2.14.1-4.31.16-6.48.23l-2.3.08-.42,0c-3.17.08-6.38.12-9.61.13h-.88c-3.11,0-6.2,0-9.26-.1l-1,0c-1.82,0-3.61-.12-5.41-.19-1.53-.06-3.07-.09-4.58-.16l-.9-.06c-4.1-.21-8.16-.46-12.14-.79h-.18l-1-.1c-3.8-.32-7.52-.7-11.19-1.12l-3.7-.46q-4.35-.56-8.58-1.19l-2.23-.31c-.51-.08-1-.18-1.51-.27-1.85-.3-3.66-.63-5.46-1-1-.18-2.08-.35-3.09-.54l-1-.22c-3.54-.7-7-1.44-10.37-2.23Z"/><path class="cls-17" d="M426.7,435.07l-81.55-37.15L263.48,435c23.17,5.51,51.31,8.75,81.67,8.75S403.56,440.57,426.7,435.07Z"/></g><ellipse class="cls-7" cx="107.06" cy="443.77" rx="45.98" ry="38.27"/><path class="cls-18" d="M182.29,441.89h-.57c-.13-.56-.27-1.13-.45-1.7-4.51-14.95-23.7-25-43.62-25s-39.11,10-43.63,25c-.17.57-.32,1.14-.45,1.7H93v5.33h0c.19,16.33,18,31.14,44.64,31.14s44.44-14.81,44.63-31.14h0Z"/><path class="cls-19" d="M137.65,410.32c-19.93,0-39.11,10-43.63,25-5.7,18.85,13.16,38.17,43.63,38.17s49.32-19.32,43.62-38.17C176.76,420.35,157.57,410.32,137.65,410.32Z"/><path class="cls-20" d="M137.65,411.94c-18.64,0-36.39,9.45-40.27,23.35-4.81,17.23,12.71,34.53,40.27,34.53s45.07-17.3,40.26-34.53C174,421.39,156.29,411.94,137.65,411.94Zm0,55.34c-25.54,0-42.06-15.92-37.85-32,3.45-13.14,20.16-22.16,37.85-22.16s34.39,9,37.84,22.16C179.7,451.36,163.18,467.28,137.65,467.28Z"/><path class="cls-20" d="M133.24,429.14a6.25,6.25,0,0,1,2.53-.84l-.06,4.31a8.77,8.77,0,0,1-2.51-.84,1.39,1.39,0,0,1-.83-1.26A1.76,1.76,0,0,1,133.24,429.14Zm9.79,10a1.66,1.66,0,0,1,.13,2.94,6.11,6.11,0,0,1-2.64.93l-.09-4.82A9.75,9.75,0,0,1,143,439.16Zm-5.38-23.94c-16,0-30.93,8.25-33.69,20.07-3.3,14.14,11.5,27.8,33.69,27.8s37-13.66,33.68-27.8C168.57,423.47,153.66,415.22,137.65,415.22Zm11.59,30c-1.91,1.46-4.8,2.38-8.63,2.74l.09,4.43h-5.26l.06-4.31a35.42,35.42,0,0,1-7.16-1,19.25,19.25,0,0,1-5.29-2l3.1-4.4a19.41,19.41,0,0,0,4.25,1.67,26.46,26.46,0,0,0,5.17.86l.07-5.81a47.24,47.24,0,0,1-5.65-1.26,9.61,9.61,0,0,1-3.71-2,3.76,3.76,0,0,1-1.24-3.35c.15-1.67,1.17-3.07,3-4.22a17.39,17.39,0,0,1,7.73-2.05l0-3h4.25l.06,3a27.9,27.9,0,0,1,9,1.72l-1.95,3.6a25.35,25.35,0,0,0-6.94-1.55l.1,5.19a49.34,49.34,0,0,1,5.56,1.16,11.33,11.33,0,0,1,4,2,5,5,0,0,1,1.91,3.61A5.5,5.5,0,0,1,149.24,445.21Z"/><path class="cls-18" d="M175.13,425h-.57c-.13-.57-.28-1.13-.45-1.7-4.52-14.95-23.7-25-43.63-25s-39.11,10-43.62,25c-.18.57-.32,1.13-.45,1.7h-.57v5.33h0c.19,16.33,18,31.14,44.63,31.14s44.45-14.81,44.64-31.14h0Z"/><path class="cls-19" d="M130.48,393.44c-19.92,0-39.11,10-43.62,25-5.7,18.85,13.16,38.17,43.62,38.17s49.33-19.32,43.63-38.17C169.59,403.46,150.41,393.44,130.48,393.44Z"/><path class="cls-20" d="M130.48,395.05c-18.64,0-36.38,9.45-40.26,23.36-4.81,17.22,12.71,34.53,40.26,34.53s45.08-17.31,40.27-34.53C166.87,404.5,149.12,395.05,130.48,395.05Zm0,55.35c-25.53,0-42-15.92-37.84-32,3.45-13.15,20.15-22.17,37.84-22.17s34.4,9,37.85,22.17C172.54,434.48,156,450.4,130.48,450.4Z"/><path class="cls-20" d="M126.08,412.26a6.05,6.05,0,0,1,2.53-.84l-.06,4.31a8.66,8.66,0,0,1-2.51-.84,1.39,1.39,0,0,1-.83-1.26A1.76,1.76,0,0,1,126.08,412.26Zm9.78,10a1.71,1.71,0,0,1,.95,1.42,1.73,1.73,0,0,1-.82,1.52,6,6,0,0,1-2.63.93l-.1-4.82A9.61,9.61,0,0,1,135.86,422.28Zm-5.38-23.94c-16,0-30.93,8.25-33.68,20.07-3.3,14.13,11.5,27.8,33.68,27.8s37-13.67,33.69-27.8C161.41,406.59,146.5,398.34,130.48,398.34Zm11.6,30c-1.91,1.46-4.8,2.38-8.63,2.74l.08,4.43h-5.25l.06-4.32a35.33,35.33,0,0,1-7.16-1,19.1,19.1,0,0,1-5.29-2l3.09-4.39a19.22,19.22,0,0,0,4.26,1.66,25.76,25.76,0,0,0,5.16.87l.08-5.81a47.24,47.24,0,0,1-5.65-1.26,9.59,9.59,0,0,1-3.72-2,3.8,3.8,0,0,1-1.23-3.36q.23-2.49,3.05-4.21a17.22,17.22,0,0,1,7.73-2.05l0-3H133l.05,3a28.52,28.52,0,0,1,9,1.72l-1.95,3.6a25.7,25.7,0,0,0-6.94-1.54l.09,5.19a47,47,0,0,1,5.57,1.16,11.15,11.15,0,0,1,4,2,5,5,0,0,1,1.91,3.61A5.54,5.54,0,0,1,142.08,428.33Z"/><path class="cls-18" d="M168.21,407.88h-.57c-.12-.57-.27-1.14-.44-1.71-4.52-14.94-23.7-25-43.63-25s-39.11,10-43.63,25c-.17.57-.32,1.14-.44,1.71h-.57v5.32h0c.19,16.34,18,31.14,44.64,31.14s44.44-14.8,44.64-31.14h0Z"/><path class="cls-19" d="M123.57,376.31c-19.93,0-39.11,10-43.63,25-5.7,18.85,13.16,38.18,43.63,38.18s49.32-19.33,43.63-38.18C162.68,386.33,143.5,376.31,123.57,376.31Z"/><path class="cls-20" d="M123.57,377.92c-18.64,0-36.39,9.45-40.27,23.35C78.5,418.5,96,435.8,123.57,435.8s45.07-17.3,40.27-34.53C160,387.37,142.21,377.92,123.57,377.92Zm0,55.34c-25.53,0-42.06-15.91-37.84-32,3.44-13.14,20.15-22.16,37.84-22.16s34.4,9,37.84,22.16C165.63,417.35,149.1,433.26,123.57,433.26Z"/><path class="cls-20" d="M119.16,395.13a6.09,6.09,0,0,1,2.53-.85l-.06,4.31a8.77,8.77,0,0,1-2.51-.84,1.37,1.37,0,0,1-.82-1.25A1.74,1.74,0,0,1,119.16,395.13Zm9.79,10a1.68,1.68,0,0,1,1,1.42,1.76,1.76,0,0,1-.82,1.51,6.24,6.24,0,0,1-2.64.94l-.09-4.83A9.38,9.38,0,0,1,129,405.15Zm-5.38-23.95c-16,0-30.93,8.25-33.69,20.07-3.3,14.14,11.5,27.8,33.69,27.8s37-13.66,33.69-27.8C154.5,389.45,139.59,381.2,123.57,381.2Zm11.6,30c-1.92,1.47-4.8,2.39-8.64,2.74l.09,4.43h-5.26l.06-4.31a35.22,35.22,0,0,1-7.15-1,19.33,19.33,0,0,1-5.3-2l3.1-4.39a19.72,19.72,0,0,0,4.26,1.66,26.23,26.23,0,0,0,5.16.86l.08-5.81a47.45,47.45,0,0,1-5.66-1.26,9.6,9.6,0,0,1-3.71-2,3.84,3.84,0,0,1-1.24-3.36c.15-1.67,1.18-3.07,3.05-4.22a17.43,17.43,0,0,1,7.73-2l0-3H126l.06,3a28,28,0,0,1,9,1.72l-2,3.6a25.27,25.27,0,0,0-6.94-1.55l.1,5.19a46.6,46.6,0,0,1,5.56,1.17,11.2,11.2,0,0,1,4,2,5,5,0,0,1,1.9,3.61A5.49,5.49,0,0,1,135.17,411.19Z"/><path class="cls-18" d="M175.13,394.47h-.57c-.13-.57-.28-1.14-.45-1.7-4.52-14.95-23.7-25-43.63-25s-39.11,10-43.62,25c-.18.56-.32,1.13-.45,1.7h-.57v5.33h0c.19,16.33,18,31.14,44.63,31.14s44.45-14.81,44.64-31.14h0Z"/><path class="cls-19" d="M130.48,362.9c-19.92,0-39.11,10-43.62,25C81.16,406.72,100,426,130.48,426s49.33-19.32,43.63-38.17C169.59,372.92,150.41,362.9,130.48,362.9Z"/><path class="cls-20" d="M130.48,364.51c-18.64,0-36.38,9.45-40.26,23.36-4.81,17.22,12.71,34.53,40.26,34.53s45.08-17.31,40.27-34.53C166.87,374,149.12,364.51,130.48,364.51Zm0,55.35c-25.53,0-42-15.92-37.84-32,3.45-13.15,20.15-22.17,37.84-22.17s34.4,9,37.85,22.17C172.54,403.94,156,419.86,130.48,419.86Z"/><path class="cls-20" d="M126.08,381.72a5.91,5.91,0,0,1,2.53-.84l-.06,4.31a8.66,8.66,0,0,1-2.51-.84,1.39,1.39,0,0,1-.83-1.26A1.76,1.76,0,0,1,126.08,381.72Zm9.78,10a1.71,1.71,0,0,1,.95,1.42,1.73,1.73,0,0,1-.82,1.52,6,6,0,0,1-2.63.93l-.1-4.82A9.61,9.61,0,0,1,135.86,391.74Zm-5.38-23.94c-16,0-30.93,8.25-33.68,20.07-3.3,14.13,11.5,27.8,33.68,27.8s37-13.67,33.69-27.8C161.41,376.05,146.5,367.8,130.48,367.8Zm11.6,30c-1.91,1.46-4.8,2.38-8.63,2.74l.08,4.43h-5.25l.06-4.32a35.33,35.33,0,0,1-7.16-1,19.1,19.1,0,0,1-5.29-2l3.09-4.39a19.22,19.22,0,0,0,4.26,1.66,25.75,25.75,0,0,0,5.16.86l.08-5.8a47.24,47.24,0,0,1-5.65-1.26,9.59,9.59,0,0,1-3.72-2,3.8,3.8,0,0,1-1.23-3.36q.23-2.49,3.05-4.21a17.22,17.22,0,0,1,7.73-2.05l0-3H133l.05,3a28.52,28.52,0,0,1,9,1.72l-1.95,3.6a25.33,25.33,0,0,0-6.94-1.54l.09,5.18a46.81,46.81,0,0,1,5.57,1.17,11.15,11.15,0,0,1,4,2,5,5,0,0,1,1.91,3.61A5.54,5.54,0,0,1,142.08,397.79Z"/><path class="cls-18" d="M178.71,377.33h-.57c-.13-.56-.28-1.13-.45-1.7-4.51-14.95-23.7-25-43.63-25s-39.11,10-43.62,25c-.17.57-.32,1.14-.45,1.7h-.56v5.33h0c.19,16.34,18,31.14,44.63,31.14s44.45-14.8,44.64-31.14h0Z"/><path class="cls-19" d="M134.06,345.77c-19.92,0-39.11,10-43.62,25-5.7,18.85,13.16,38.17,43.62,38.17s49.33-19.32,43.63-38.17C173.18,355.79,154,345.77,134.06,345.77Z"/><path class="cls-20" d="M134.06,347.38c-18.64,0-36.38,9.45-40.26,23.35C89,388,106.51,405.26,134.06,405.26s45.08-17.3,40.27-34.53C170.45,356.83,152.71,347.38,134.06,347.38Zm0,55.34c-25.53,0-42-15.92-37.84-32,3.45-13.14,20.15-22.16,37.84-22.16s34.4,9,37.85,22.16C176.12,386.8,159.6,402.72,134.06,402.72Z"/><path class="cls-20" d="M129.66,364.59a6.09,6.09,0,0,1,2.53-.85l-.06,4.31a8.77,8.77,0,0,1-2.51-.84,1.39,1.39,0,0,1-.83-1.26A1.73,1.73,0,0,1,129.66,364.59Zm9.78,10a1.66,1.66,0,0,1,.13,2.94,6.14,6.14,0,0,1-2.63.94l-.09-4.83A9.53,9.53,0,0,1,139.44,374.6Zm-5.38-23.94c-16,0-30.92,8.25-33.68,20.07-3.3,14.14,11.5,27.8,33.68,27.8s37-13.66,33.69-27.8C165,358.91,150.08,350.66,134.06,350.66Zm11.6,30c-1.91,1.46-4.8,2.38-8.63,2.74l.08,4.43h-5.25l.06-4.31a35.32,35.32,0,0,1-7.16-1,19.12,19.12,0,0,1-5.29-2l3.09-4.4a19.71,19.71,0,0,0,4.26,1.67,26.48,26.48,0,0,0,5.16.86l.08-5.81a47.24,47.24,0,0,1-5.65-1.26,9.86,9.86,0,0,1-3.72-2,3.81,3.81,0,0,1-1.23-3.36c.15-1.67,1.17-3.07,3.05-4.22a17.39,17.39,0,0,1,7.73-2.05l0-3h4.25l.06,3a27.9,27.9,0,0,1,9,1.72l-2,3.6a25.35,25.35,0,0,0-6.94-1.55l.1,5.19a49.34,49.34,0,0,1,5.56,1.16,11.33,11.33,0,0,1,4,2,5,5,0,0,1,1.91,3.61A5.5,5.5,0,0,1,145.66,380.65Z"/><ellipse class="cls-7" cx="171.54" cy="472.13" rx="43.21" ry="31.25"/><circle class="cls-19" cx="189.54" cy="455.46" r="47.28"/><path class="cls-20" d="M189.54,411.82a43.64,43.64,0,1,0,43.64,43.64A43.64,43.64,0,0,0,189.54,411.82Zm0,84.65a41,41,0,1,1,41-41A41,41,0,0,1,189.54,496.47Z"/><path class="cls-20" d="M184.55,445.4A5.55,5.55,0,0,1,187.4,444v7.23a7.93,7.93,0,0,1-2.8-1.37,2.61,2.61,0,0,1-1-2.09A3.32,3.32,0,0,1,184.55,445.4Zm10.67,16a2.67,2.67,0,0,1,.94,2.09,3,3,0,0,1-.92,2.19,5.5,5.5,0,0,1-2.75,1.33v-7A8.42,8.42,0,0,1,195.22,461.36ZM189.54,419A36.51,36.51,0,1,0,226,455.46,36.52,36.52,0,0,0,189.54,419ZM201.3,470q-3.06,3-8.81,3.69v5.7H187.4v-5.55a28.16,28.16,0,0,1-7.18-1.32,18.2,18.2,0,0,1-5.5-2.75l2.8-6.22a18.21,18.21,0,0,0,4.54,2.4,20.72,20.72,0,0,0,5.34,1.22v-8.5a38.86,38.86,0,0,1-6.11-1.94,10.72,10.72,0,0,1-4.17-3.13,8.35,8.35,0,0,1-1.69-5.48,9.8,9.8,0,0,1,3.09-7.25q3.07-3,8.88-3.69v-5.65h5.09v5.55a22.41,22.41,0,0,1,10.34,3.1l-2.55,6.26a20.25,20.25,0,0,0-7.79-2.64v8.65a38,38,0,0,1,6,1.86,10.53,10.53,0,0,1,4.14,3.11,8.25,8.25,0,0,1,1.69,5.42A9.64,9.64,0,0,1,201.3,470Z"/><path class="cls-21" d="M36.54,309.22a36.55,36.55,0,1,0,36.54,36.55A36.54,36.54,0,0,0,36.54,309.22Zm0,70.27a33.73,33.73,0,1,1,33.73-33.72A33.73,33.73,0,0,1,36.54,379.49Z"/><path class="cls-22" d="M36.54,314.07a31.7,31.7,0,1,0,31.7,31.7A31.69,31.69,0,0,0,36.54,314.07Zm0,59.91a28.22,28.22,0,1,1,28.22-28.21A28.21,28.21,0,0,1,36.54,374Z"/><path class="cls-23" d="M43.49,344.88a28.35,28.35,0,0,0-4.67-1.44v-6.69a15.62,15.62,0,0,1,6,2.05l2-4.84a17.24,17.24,0,0,0-8-2.4v-4.29H34.89v4.37A11.33,11.33,0,0,0,28,334.49a7.58,7.58,0,0,0-2.38,5.61,6.46,6.46,0,0,0,1.3,4.23,8.32,8.32,0,0,0,3.22,2.42,30.19,30.19,0,0,0,4.73,1.5v6.57a15.79,15.79,0,0,1-4.13-.95A14.2,14.2,0,0,1,27.25,352l-2.16,4.8A13.93,13.93,0,0,0,29.34,359a21.05,21.05,0,0,0,5.55,1v4.29h3.93v-4.41A11.44,11.44,0,0,0,45.63,357,7.42,7.42,0,0,0,48,351.47a6.4,6.4,0,0,0-1.3-4.19A8.18,8.18,0,0,0,43.49,344.88Zm-8.6-2.42a6.17,6.17,0,0,1-2.17-1.06,2,2,0,0,1-.75-1.62,2.57,2.57,0,0,1,.71-1.79,4.34,4.34,0,0,1,2.21-1.12ZM41,353.64a4.25,4.25,0,0,1-2.13,1v-5.43a6.36,6.36,0,0,1,2.11,1.1,2.06,2.06,0,0,1,.73,1.61A2.34,2.34,0,0,1,41,353.64Z"/><path class="cls-24" d="M93.18,231.49A21.49,21.49,0,1,0,114.67,253,21.49,21.49,0,0,0,93.18,231.49Zm0,41.32A19.84,19.84,0,1,1,113,253,19.83,19.83,0,0,1,93.18,272.81Z"/><path class="cls-25" d="M93.18,234.34A18.64,18.64,0,1,0,111.82,253,18.64,18.64,0,0,0,93.18,234.34Zm0,35.23A16.6,16.6,0,1,1,109.78,253,16.59,16.59,0,0,1,93.18,269.57Z"/><path class="cls-26" d="M97.27,252.46a16.6,16.6,0,0,0-2.74-.85v-3.93a9.31,9.31,0,0,1,3.54,1.2L99.22,246a10.3,10.3,0,0,0-4.69-1.41V242.1H92.21v2.57a6.66,6.66,0,0,0-4,1.68,4.45,4.45,0,0,0-1.4,3.29,3.8,3.8,0,0,0,.77,2.49,5,5,0,0,0,1.89,1.43,19.16,19.16,0,0,0,2.78.88v3.86a9.32,9.32,0,0,1-2.43-.56,8.35,8.35,0,0,1-2.06-1.08l-1.27,2.82a8.21,8.21,0,0,0,2.5,1.25,12.46,12.46,0,0,0,3.26.6v2.52h2.32v-2.59a6.68,6.68,0,0,0,4-1.68,4.35,4.35,0,0,0,1.39-3.25,3.77,3.77,0,0,0-.77-2.46A4.61,4.61,0,0,0,97.27,252.46ZM92.21,251a3.58,3.58,0,0,1-1.27-.62,1.17,1.17,0,0,1-.44-.95,1.49,1.49,0,0,1,.42-1.05,2.45,2.45,0,0,1,1.29-.66Zm3.56,6.58a2.57,2.57,0,0,1-1.24.6V255a3.79,3.79,0,0,1,1.23.65,1.19,1.19,0,0,1,.43,1A1.36,1.36,0,0,1,95.77,257.61Z"/><path class="cls-27" d="M562,195.86a21.49,21.49,0,1,0,21.49,21.49A21.49,21.49,0,0,0,562,195.86Zm0,41.33a19.84,19.84,0,1,1,19.84-19.84A19.83,19.83,0,0,1,562,237.19Z"/><path class="cls-28" d="M562,198.71a18.64,18.64,0,1,0,18.64,18.64A18.65,18.65,0,0,0,562,198.71Zm0,35.23a16.59,16.59,0,1,1,16.6-16.59A16.59,16.59,0,0,1,562,233.94Z"/><path class="cls-29" d="M566.08,216.83a16,16,0,0,0-2.74-.84v-3.94a9.31,9.31,0,0,1,3.54,1.2l1.15-2.84a10.06,10.06,0,0,0-4.69-1.41v-2.53H561V209a6.66,6.66,0,0,0-4,1.68,4.48,4.48,0,0,0-1.4,3.3,3.84,3.84,0,0,0,.77,2.49,4.85,4.85,0,0,0,1.89,1.42,17.66,17.66,0,0,0,2.78.88v3.86a9.3,9.3,0,0,1-2.43-.55,8.36,8.36,0,0,1-2.06-1.09l-1.27,2.82a8,8,0,0,0,2.5,1.25,12.89,12.89,0,0,0,3.26.61v2.52h2.32v-2.59a6.8,6.8,0,0,0,4-1.68,4.4,4.4,0,0,0,1.39-3.25,3.8,3.8,0,0,0-.77-2.47A4.87,4.87,0,0,0,566.08,216.83ZM561,215.41a3.58,3.58,0,0,1-1.27-.63,1.15,1.15,0,0,1-.44-.95,1.49,1.49,0,0,1,.42-1.05,2.45,2.45,0,0,1,1.29-.66Zm3.56,6.57a2.41,2.41,0,0,1-1.24.6v-3.19a3.61,3.61,0,0,1,1.23.65,1.17,1.17,0,0,1,.43.94A1.36,1.36,0,0,1,564.58,222Z"/><path class="cls-30" d="M559.76,305.83a31.83,31.83,0,1,0,31.83,31.83A31.83,31.83,0,0,0,559.76,305.83Zm0,61.2a29.38,29.38,0,1,1,29.38-29.37A29.37,29.37,0,0,1,559.76,367Z"/><path class="cls-31" d="M559.76,310.05a27.61,27.61,0,1,0,27.61,27.61A27.61,27.61,0,0,0,559.76,310.05Zm0,52.18a24.58,24.58,0,1,1,24.58-24.57A24.57,24.57,0,0,1,559.76,362.23Z"/><path class="cls-32" d="M565.81,336.88a26,26,0,0,0-4.06-1.25v-5.82a13.65,13.65,0,0,1,5.25,1.78l1.71-4.22a15.16,15.16,0,0,0-7-2.09v-3.73h-3.43v3.8a9.87,9.87,0,0,0-6,2.49,6.6,6.6,0,0,0-2.07,4.88,5.6,5.6,0,0,0,1.13,3.68,7.18,7.18,0,0,0,2.81,2.11,26,26,0,0,0,4.11,1.31v5.72a14.46,14.46,0,0,1-3.6-.82,12.74,12.74,0,0,1-3.05-1.61l-1.88,4.18a12.16,12.16,0,0,0,3.7,1.85,18.68,18.68,0,0,0,4.83.89v3.74h3.43v-3.84a10,10,0,0,0,5.93-2.49,6.49,6.49,0,0,0,2.06-4.81A5.55,5.55,0,0,0,568.6,339,7.07,7.07,0,0,0,565.81,336.88Zm-7.49-2.1a5.22,5.22,0,0,1-1.88-.93,1.73,1.73,0,0,1-.66-1.4,2.22,2.22,0,0,1,.62-1.56,3.7,3.7,0,0,1,1.92-1Zm5.28,9.73a3.69,3.69,0,0,1-1.85.89v-4.73a5.73,5.73,0,0,1,1.83,1,1.81,1.81,0,0,1,.64,1.41A2,2,0,0,1,563.6,344.51Z"/><path class="cls-33" d="M54,162.94a28.4,28.4,0,1,0,28.4,28.4A28.4,28.4,0,0,0,54,162.94Zm0,54.61a26.21,26.21,0,1,1,26.21-26.21A26.22,26.22,0,0,1,54,217.55Z"/><path class="cls-34" d="M54,166.71a24.63,24.63,0,1,0,24.63,24.63A24.63,24.63,0,0,0,54,166.71Zm0,46.56a21.93,21.93,0,1,1,21.93-21.93A21.93,21.93,0,0,1,54,213.27Z"/><path class="cls-35" d="M59.35,190.65a22.37,22.37,0,0,0-3.62-1.12v-5.2a12.4,12.4,0,0,1,4.68,1.59l1.52-3.76a13.38,13.38,0,0,0-6.2-1.86V177H52.67v3.4a8.76,8.76,0,0,0-5.34,2.21,5.93,5.93,0,0,0-1.85,4.36,5,5,0,0,0,1,3.29A6.43,6.43,0,0,0,49,192.1a21.9,21.9,0,0,0,3.67,1.16v5.11a12.57,12.57,0,0,1-3.21-.73,11.36,11.36,0,0,1-2.73-1.44l-1.68,3.73a11,11,0,0,0,3.3,1.65,16.6,16.6,0,0,0,4.32.8v3.33h3.06v-3.42A9,9,0,0,0,61,200.07a5.8,5.8,0,0,0,1.83-4.3,4.94,4.94,0,0,0-1-3.25A6.31,6.31,0,0,0,59.35,190.65Zm-6.68-1.88a4.69,4.69,0,0,1-1.68-.83,1.55,1.55,0,0,1-.59-1.25A2,2,0,0,1,51,185.3a3.21,3.21,0,0,1,1.71-.87Zm4.71,8.69a3.35,3.35,0,0,1-1.65.79V194a5,5,0,0,1,1.63.85,1.6,1.6,0,0,1,.57,1.26A1.8,1.8,0,0,1,57.38,197.46Z"/><path class="cls-36" d="M624.89,241.45a25.35,25.35,0,1,0,25.35,25.35A25.35,25.35,0,0,0,624.89,241.45Zm0,48.75a23.4,23.4,0,1,1,23.4-23.4A23.4,23.4,0,0,1,624.89,290.2Z"/><path class="cls-37" d="M624.89,244.81a22,22,0,1,0,22,22A22,22,0,0,0,624.89,244.81Zm0,41.57a19.58,19.58,0,1,1,19.57-19.58A19.58,19.58,0,0,1,624.89,286.38Z"/><path class="cls-38" d="M629.71,266.19a19.28,19.28,0,0,0-3.24-1v-4.64a10.71,10.71,0,0,1,4.18,1.42l1.36-3.36a11.92,11.92,0,0,0-5.54-1.67v-3h-2.73v3a7.74,7.74,0,0,0-4.76,2,5.23,5.23,0,0,0-1.66,3.89,4.43,4.43,0,0,0,.91,2.93,5.71,5.71,0,0,0,2.23,1.68,19.93,19.93,0,0,0,3.28,1v4.56a11.37,11.37,0,0,1-2.87-.65,10.16,10.16,0,0,1-2.43-1.29l-1.5,3.33a9.56,9.56,0,0,0,2.95,1.48,15.16,15.16,0,0,0,3.85.71v3h2.73v-3.05a8,8,0,0,0,4.72-2,5.16,5.16,0,0,0,1.64-3.84,4.48,4.48,0,0,0-.9-2.91A5.61,5.61,0,0,0,629.71,266.19Zm-6-1.68a4.19,4.19,0,0,1-1.5-.74,1.38,1.38,0,0,1-.52-1.12,1.75,1.75,0,0,1,.49-1.24,2.91,2.91,0,0,1,1.53-.78Zm4.2,7.75a2.86,2.86,0,0,1-1.47.71V269.2a4.49,4.49,0,0,1,1.46.77,1.4,1.4,0,0,1,.51,1.12A1.6,1.6,0,0,1,627.94,272.26Z"/><path class="cls-39" d="M217.67,26.75A20.65,20.65,0,1,0,238.32,47.4,20.65,20.65,0,0,0,217.67,26.75Zm0,39.71A19.06,19.06,0,1,1,236.73,47.4,19.06,19.06,0,0,1,217.67,66.46Z"/><path class="cls-40" d="M217.67,29.49A17.91,17.91,0,1,0,235.58,47.4,17.91,17.91,0,0,0,217.67,29.49Zm0,33.86a15.95,15.95,0,1,1,15.94-16A15.95,15.95,0,0,1,217.67,63.35Z"/><path class="cls-41" d="M221.59,46.9a16.92,16.92,0,0,0-2.63-.81V42.31a8.77,8.77,0,0,1,3.4,1.16l1.11-2.74A9.84,9.84,0,0,0,219,39.37V37h-2.23v2.47A6.39,6.39,0,0,0,212.85,41a4.31,4.31,0,0,0-1.34,3.17,3.67,3.67,0,0,0,.73,2.39A4.74,4.74,0,0,0,214.06,48a17,17,0,0,0,2.67.84v3.72A8.87,8.87,0,0,1,214.4,52a8,8,0,0,1-2-1l-1.22,2.71a7.47,7.47,0,0,0,2.4,1.2,12,12,0,0,0,3.13.58v2.43H219v-2.5a6.39,6.39,0,0,0,3.84-1.61,4.22,4.22,0,0,0,1.34-3.12,3.58,3.58,0,0,0-.74-2.37A4.61,4.61,0,0,0,221.59,46.9Zm-4.86-1.37a3.38,3.38,0,0,1-1.22-.6,1.13,1.13,0,0,1-.42-.91,1.44,1.44,0,0,1,.4-1,2.34,2.34,0,0,1,1.24-.63Zm3.43,6.32a2.41,2.41,0,0,1-1.2.58V49.36a3.85,3.85,0,0,1,1.19.62,1.16,1.16,0,0,1,.41.91A1.29,1.29,0,0,1,220.16,51.85Z"/><path class="cls-42" d="M379.12,229.85s-43.81-4.12-48.27,5.53,50.25,22.95,58.61,25.32,56.39,29.41,56.39,29.41-6.48,46-7.88,54.71-4.22,43.5,2.72,60.68S464,430.33,466.44,426s-1.49-104.85,0-108.54,8.47-37.83,8.47-37.83Z"/><path class="cls-43" d="M530.91,405.5s2.89,16.48,11.67,14.17,43.39-22.58,44.48-25.45-7.6-5.8-11.83-3.77-21.58,8.08-23.17,8.57Z"/><path class="cls-43" d="M453.66,361.72s-10.36,2.83-6.87,16.13,28.65,38.3,33.3,36.48-4.34-37.6-10.73-42.12S453.66,361.72,453.66,361.72Z"/><path class="cls-44" d="M492.82,204.92s58.11,37.62,47.3,60.82-72.66,117.18-72.66,117.18S453,366.94,454.69,361s39.9-99.77,33.17-105.31-58.49-39.11-58.49-39.11S472.92,190.07,492.82,204.92Z"/><path class="cls-45" d="M534.3,266.56c-1.87-12.8-9.65-23.84-12.55-36.41a21.77,21.77,0,0,1-.44-2.77,225.8,225.8,0,0,0-28.49-22.46c-19.9-14.85-63.45,11.65-63.45,11.65s51.75,33.57,58.49,39.11S456.35,355,454.69,361c-.39,1.37.1,3.28,1.05,5.39,7.32-7.22,27.95-55.64,47.74-57.09.08,0-2.92,2.92-2.85,2.92,14.09-14.35,27-28.38,34.35-38.31C534.85,271.43,534.65,269,534.3,266.56Z"/><path class="cls-44" d="M397.76,249.3s18.57,24,81.67,38.31C508,333.76,530.91,405.5,530.91,405.5L552.06,399s-15-110.69-33.67-133.1c-10.55-12.7-59.16-53.81-77-58.61S404.12,231.56,397.76,249.3Z"/><path class="cls-46" d="M395.34,70.67s-4.55,26.27-5.81,31,14.52,17.39,23.14,14.87,12.05-13.43,12.05-13.43l-1.87-23.4S397.76,73.53,395.34,70.67Z"/><path class="cls-47" d="M395.34,70.67s-4.55,26.27-5.81,31,14.52,17.39,23.14,14.87,12.05-13.43,12.05-13.43l-1.87-23.4S397.76,73.53,395.34,70.67Z"/><path class="cls-48" d="M387.07,88.41l28.29,31.23,8.47-28.85s43.34,12.28,48.5,18.08-27.29,99.75-31,101.26S319.62,101.34,387.07,88.41Z"/><path class="cls-44" d="M534.17,180.63c-1.55-1.59-56.69-66-61.84-71.76s-48.5-18.08-48.5-18.08L435.6,196.07,387.07,88.41c-67.45,12.93-30.75,89.42-22.62,95.32,5.68,4.13,16.22,41.67,22.05,63.88a18.92,18.92,0,0,1,1.06,1.63c.41.71.86,1.4,1.3,2.1l.68.81c.88.81,1.71,1.66,2.56,2.5a24.86,24.86,0,0,1,2.27,1.67c.14,0,.26.05.43.1.69.17,1.39.38,2.08.59,12.9-14.24,41.61-45.7,44.47-46.88,3.69-1.51,46.06,7.72,46.06,7.72s.26-12.88-6.56-22.21c-.91-1.26-9-17.87-4.48-19.11,5.87-1.61,20.62,20.16,31.09,21.28C523.34,199.52,534.88,181.37,534.17,180.63Z"/><path class="cls-45" d="M441.35,210.13c.86-.35,4.52,0,9.62.81-.12-17.25,22.27-14.08,23.69-29.41.17-1.86,4.1-11.11,4.28-8.95.23-1.45.48-2.91.76-4.35a16,16,0,0,1,12-12.83A18.75,18.75,0,0,1,491,153a41.75,41.75,0,0,1-14.14-8.57,51.8,51.8,0,0,1-8.08-9.72c-1.44,12.65-3.26,25.18-8.26,37.26-4,9.6-12.86,16.2-23.64,13.35,1.12,9.41,1.87,16.8,1.94,20.33-38,54-45.07,19.6-47.94,7.8,21.2-1.77,45.37-14.79,45.37-14.79l-7.6-15.83c-11.88-.13-23.62-9.75-18.61-24.11a78.44,78.44,0,0,0,2.59-9.33l-25.57-61c-6.33,1.21-14.95,5.52-19.49,7.74.79,2.87,7.14,8.44,9.48,24,5.17.24,11.18.62,14.08.14-1.05,4.43-3.69,10.08-3.38,14.25,5.9,8.83,12.2,14,15.44,18.87-2.21,4.8-6.16,8.82-10.14,10.33-2.52.95-5.12-7.29-10.51-23.48-21.78,20.07-24.19,39-18.1,43.43,5.68,4.13,16.22,41.67,22.05,63.88a18.92,18.92,0,0,1,1.06,1.63c.41.71.86,1.4,1.3,2.1l.68.81c.88.81,1.71,1.66,2.56,2.5a24.86,24.86,0,0,1,2.27,1.67c.14,0,.26.05.43.1.69.17,1.39.38,2.08.59C409.78,242.77,438.49,211.31,441.35,210.13Z"/><path class="cls-46" d="M452.44,34s-8,30.35-11.86,38.87C430.47,95,421.48,89.7,415.9,89.09s-19.33-11.55-21.77-16.37c-4.13-8.13-9.08-25-4.72-34.12S435.37,4.65,452.44,34Z"/><path class="cls-49" d="M387.07,88.41S438.53,188.92,438,202.91c0,0-43.66-71-46.78-72.45l2.56-13.18-13.91.4S371,98.3,367.58,96.15,384,88.4,387.07,88.41Z"/><path class="cls-49" d="M423.83,90.79s1.29,83.93,14.2,107.92c0,0,1.44-69.24,1.17-74.49l-7.79-5,8-1.27s3.14-13.09,3.69-22.11C436.64,92.66,427.44,93.74,423.83,90.79Z"/><polygon class="cls-50" points="387.07 88.41 392.93 84.29 411.05 112.58 402.91 124.96 387.07 88.41"/><polygon class="cls-50" points="411.05 112.58 423.79 93.55 425.16 122.68 411.05 112.58"/><polygon class="cls-51" points="405.92 120.38 410.83 126.57 417.98 125.19 420.27 119.19 411.05 112.58 405.92 120.38"/><path class="cls-44" d="M355.65,105.53s-17.61,35.32-4.51,66.54c9.16,21.83,24.59,36.51,53.42,34.34,28.32-2.13,61.88-24.74,61.88-24.74s.23-14.16-5.51-16.35c0,0-28.92,21.58-56,16.08-20.74-4.22-22.52-34.64-22.43-39.89S355.65,105.53,355.65,105.53Z"/><path class="cls-46" d="M459.24,166.5S468.83,153,472.71,151s29.7,2.57,29.7,2.57,4,14.73-3.36,13.58-18.66,7.41-19.72,7.74-13.71,4.69-17.21,4.63S459.24,166.5,459.24,166.5Z"/><polygon class="cls-52" points="513.33 146.93 488.09 215.13 489.74 217.25 533.75 221.16 567.46 158.41 565.51 156.95 513.33 146.93"/><polygon class="cls-53" points="514.92 148.72 489.74 217.25 536.58 224.46 567.46 158.41 514.92 148.72"/><path class="cls-54" d="M539.57,176.74c-.24,2.7-2.92,4.67-6,4.4s-5.35-2.68-5.11-5.38,2.92-4.68,6-4.41S539.81,174,539.57,176.74Z"/><path class="cls-46" d="M553,188.18s-2.18,9.14-6,9.45c-6.8.54-16.19-5-18.89-.3s-6.35,3.69-4.37,11.27,2,11.26,9.79,13.48,18.81,2.92,21.53-3.33S563.36,192.64,553,188.18Z"/><path class="cls-55" d="M400.05,54.16s4.21-3.66,4.87-16,9.45-14.51,20-7.89,23.79,12.37,32.19,6.5,11-24.58-5.12-27-28.65,3.54-38.27-.61-23.94-3-27.88,13.09-3.57,35.93,7.08,48.09c0,0-.37-6.39-.32-9.23C386.74,50,394.44,44.62,400.05,54.16Z"/><path class="cls-51" d="M410.83,126.57c.28,4.55,1.6,35.42-25.16,42.63-18.19,4.9-44.88,28.33-45.24,29.37s-.42,26.24-.42,26.24l21.08-5.27c2.51-4.16,27.76-30.35,43.87-38.14s13-56.21,13-56.21Z"/></g></g></g></svg>