<svg xmlns="http://www.w3.org/2000/svg" viewBox="0 0 314.52 132.72"><defs><style>.cls-1{fill:#cecece;opacity:0.5;}.cls-2{fill:#7c495c;}.cls-3{fill:#513433;}.cls-4{fill:#352020;}.cls-5{fill:#442a2a;}.cls-6{fill:#33211f;}.cls-7{fill:#7a5858;}.cls-8{fill:#fff;}.cls-9{fill:#4f6e04;}.cls-10{fill:#719910;}.cls-11{fill:#d18b46;}.cls-12{fill:#5b3428;}.cls-13{fill:#724338;}.cls-14{fill:#995c52;}.cls-15{fill:#eda958;}.cls-16{fill:#f9b66b;}.cls-17{fill:#c67d34;}.cls-18{fill:#ff8864;}.cls-19{fill:#e04c1e;}.cls-20{fill:#fe733e;}.cls-21{fill:#3bbeff;}.cls-22{fill:#096ab2;}.cls-23{fill:#22a1ef;}.cls-24{fill:#0c88c6;}.cls-25{fill:#e28b69;}.cls-26{fill:#ffc5b3;}.cls-27{fill:#898989;}.cls-28{fill:#472e2c;}.cls-29{fill:#a8a8a8;}.cls-30{fill:#212121;}.cls-31{fill:#94ba1e;}.cls-32{fill:#9d5d3d;}.cls-33{fill:#82462e;}.cls-34{fill:#583221;}.cls-35{fill:#ffa08d;}.cls-36{fill:#147cc9;}.cls-37{fill:#262626;}.cls-38{fill:#c6c6c6;}.cls-39{fill:#e0e0e0;}.cls-40{fill:#afafaf;}.cls-41{fill:#55beff;}.cls-42{fill:#0977c4;}.cls-43{fill:#636363;}.cls-44{fill:#1899f6;}.cls-45{fill:#52a9ff;}.cls-46{fill:#ededed;}.cls-47{fill:#9b9b9b;}</style></defs><g id="Layer_2" data-name="Layer 2"><g id="Layer_1-2" data-name="Layer 1"><polygon class="cls-1" points="237.32 45.89 203.55 65.37 280.76 109.68 314.52 90.21 237.32 45.89"/><polygon class="cls-1" points="201.26 31.77 177.53 45.34 201.71 59.4 225.45 45.83 201.26 31.77"/><polygon class="cls-1" points="132.58 117.04 82.61 88.23 57.75 102.18 73.06 111.01 58.48 119.19 82.03 132.72 96.57 124.56 107.72 130.99 132.58 117.04"/><polygon class="cls-1" points="202.45 93.72 152.48 64.9 127.62 78.86 142.93 87.68 128.35 95.87 151.91 109.39 166.44 101.23 177.59 107.66 202.45 93.72"/><polygon class="cls-1" points="74.83 83.51 24.86 54.7 0 68.65 15.31 77.48 0.73 85.66 24.29 99.19 38.82 91.03 49.97 97.46 74.83 83.51"/><polygon class="cls-1" points="141.65 58.8 91.68 29.99 66.82 43.95 82.13 52.77 67.55 60.95 91.11 74.48 105.64 66.32 116.79 72.75 141.65 58.8"/><path class="cls-1" d="M230.3,105c0,3.78-5.76,6.85-12.87,6.85s-12.88-3.07-12.88-6.85,5.76-6.85,12.88-6.85S230.3,101.19,230.3,105Z"/><path class="cls-2" d="M203.06,54.9c0,.39-.6.71-1.34.71s-1.33-.32-1.33-.71.6-.71,1.33-.71S203.06,54.51,203.06,54.9Z"/><path class="cls-2" d="M203.06,53.38c0,.39-.6.71-1.34.71s-1.33-.32-1.33-.71.6-.71,1.33-.71S203.06,53,203.06,53.38Z"/><rect class="cls-2" x="200.39" y="53.38" width="2.67" height="1.52"/><path class="cls-2" d="M186.3,45.23c0,.39-.6.71-1.33.71s-1.34-.32-1.34-.71.6-.71,1.34-.71S186.3,44.84,186.3,45.23Z"/><path class="cls-2" d="M186.3,43.71c0,.39-.6.71-1.33.71s-1.34-.32-1.34-.71.6-.71,1.34-.71S186.3,43.32,186.3,43.71Z"/><rect class="cls-2" x="183.63" y="43.71" width="2.67" height="1.52"/><path class="cls-2" d="M219.67,45.28c0,.39-.6.71-1.34.71s-1.33-.32-1.33-.71.6-.71,1.33-.71S219.67,44.89,219.67,45.28Z"/><path class="cls-2" d="M219.67,43.76c0,.39-.6.71-1.34.71s-1.33-.32-1.33-.71.6-.71,1.33-.71S219.67,43.37,219.67,43.76Z"/><rect class="cls-2" x="217" y="43.76" width="2.67" height="1.52"/><polygon class="cls-3" points="183.84 20.78 183.84 44.74 200.5 54.36 201.72 28.29 183.84 20.78"/><polygon class="cls-4" points="201.72 55.06 220.72 44.07 220.72 20.78 201.72 31.75 201.72 55.06"/><polygon class="cls-5" points="201.72 55.06 200.5 54.36 200.5 31.14 201.72 31.84 201.72 55.06"/><polygon class="cls-5" points="184.01 44.84 182.79 44.13 182.79 20.92 184.01 21.62 184.01 44.84"/><polygon class="cls-5" points="201.72 32.36 182.79 21.41 182.79 20.17 201.72 31.14 201.72 32.36"/><polygon class="cls-6" points="220.71 20.17 201.72 31.14 201.72 32.36 220.71 21.39 220.71 20.17"/><polygon class="cls-7" points="201.72 9.16 182.79 20.17 201.72 31.14 220.71 20.17 201.72 9.16"/><polygon class="cls-5" points="184.01 37.39 184.01 37.67 200.5 47.19 200.5 46.9 184.01 37.39"/><polygon class="cls-5" points="184.01 29.7 184.01 29.98 200.5 39.5 200.5 39.2 184.01 29.7"/><polygon class="cls-8" points="194.11 45.19 189.08 42.29 189.08 43.14 194.11 46.06 194.11 45.19"/><polygon class="cls-8" points="194.11 37.5 189.08 34.6 189.08 35.45 194.11 38.37 194.11 37.5"/><polygon class="cls-8" points="194.11 29.81 189.08 26.91 189.08 27.76 194.11 30.68 194.11 29.81"/><polygon class="cls-9" points="190.72 20.57 201.37 26.71 212.72 20.12 202.1 13.99 190.72 20.57"/><polygon class="cls-8" points="191.74 20.31 201.41 25.89 211.71 19.9 202.06 14.34 191.74 20.31"/><polygon class="cls-10" points="190.72 19.99 201.37 24.08 212.72 17.48 202.1 13.42 190.72 19.99"/><polygon class="cls-9" points="201.37 24.08 201.37 26.71 212.72 20.12 212.72 17.48 201.37 24.08"/><polygon class="cls-8" points="210.69 19.42 202.37 24.28 202.37 25.37 210.69 20.52 210.69 19.42"/><polygon class="cls-8" points="212.15 17.82 211.49 18.2 211.49 20.83 212.15 20.45 212.15 17.82"/><polygon class="cls-11" points="90.85 3.97 90.85 22.17 132.67 46.32 132.67 28.11 90.85 3.97"/><polygon class="cls-12" points="91.48 3.58 91.48 37.42 92.73 36.7 92.71 5.13 91.48 3.58"/><polygon class="cls-13" points="90.23 3.58 90.23 35.09 91.48 35.82 91.48 3.58 90.23 3.58"/><polygon class="cls-12" points="92.73 36.7 76.22 46.3 76.22 44.69 91.78 35.64 92.73 36.7"/><polygon class="cls-14" points="90.23 35.05 91.48 35.82 76.22 44.69 74.96 43.93 90.23 35.05"/><polygon class="cls-13" points="76.22 44.69 74.96 43.93 74.96 45.58 76.22 46.3 76.22 44.69"/><polygon class="cls-12" points="110.88 41.78 110.88 43.37 133.28 30.37 133.3 28.83 110.88 41.78"/><polygon class="cls-13" points="69.32 17.77 69.32 19.33 110.89 43.37 110.89 41.76 69.32 17.77"/><polygon class="cls-12" points="132.05 27.07 132.05 60.91 133.3 60.18 133.28 28.62 132.05 27.07"/><polygon class="cls-13" points="130.79 27.07 130.79 58.58 132.05 59.31 132.05 27.07 130.79 27.07"/><polygon class="cls-12" points="133.3 60.18 116.78 69.79 116.78 68.18 132.35 59.13 133.3 60.18"/><polygon class="cls-14" points="130.79 58.54 132.05 59.31 116.78 68.18 115.53 67.42 130.79 58.54"/><polygon class="cls-13" points="116.78 68.18 115.53 67.42 115.53 69.06 116.78 69.79 116.78 68.18"/><polygon class="cls-15" points="133.38 26.67 119.16 18.46 78.65 21.18 110.94 39.87 133.38 26.67"/><polygon class="cls-16" points="91.48 2.53 69.27 15.62 79.13 21.31 119.09 18.46 91.48 2.53"/><polygon class="cls-17" points="133.3 26.67 133.3 28.83 110.92 41.81 110.92 39.65 133.3 26.67"/><polygon class="cls-11" points="69.32 15.61 69.32 17.77 110.92 41.81 110.92 39.65 69.32 15.61"/><polygon class="cls-8" points="104.98 18.23 92.16 25.25 100.31 29.96 113.12 22.93 104.98 18.23"/><polygon class="cls-18" points="121.12 20.23 111.32 25.91 118.36 29.95 128.19 24.29 121.12 20.23"/><polygon class="cls-19" points="118.71 22.4 112.71 25.84 118.36 29.08 124.39 25.65 118.71 22.4"/><polygon class="cls-19" points="119.99 21.67 119.45 21.99 125.1 25.23 125.66 24.92 119.99 21.67"/><polygon class="cls-19" points="121.15 20.99 120.61 21.32 126.26 24.55 126.83 24.24 121.15 20.99"/><polygon class="cls-19" points="118.36 29.95 118.36 32.13 128.19 26.46 128.19 24.29 118.36 29.95"/><polygon class="cls-20" points="111.32 25.91 111.32 26.42 117.96 30.22 117.96 31.46 111.32 27.66 111.32 28.09 118.36 32.13 118.36 29.95 111.32 25.91"/><polygon class="cls-8" points="117.96 30.22 111.32 26.42 111.32 27.66 117.96 31.46 117.96 30.22"/><polygon class="cls-21" points="123.85 17.06 115.08 19.37 122.7 27.57 131.47 25.28 123.85 17.06"/><polygon class="cls-22" points="123.83 17.86 116.34 19.78 122.71 26.69 130.21 24.8 123.83 17.86"/><polygon class="cls-23" points="123.03 27.82 131.47 25.62 131.47 25.28 122.7 27.57 122.7 29.52 131.47 27.23 131.47 26.98 123.03 29.18 123.03 27.82"/><polygon class="cls-8" points="123.03 27.82 123.03 29.18 131.47 26.98 131.47 25.62 123.03 27.82"/><polygon class="cls-24" points="115.08 19.37 115.08 21.32 122.7 29.52 122.7 27.57 115.08 19.37"/><path class="cls-25" d="M90.23,20.23s1-1.1,3.45-.86,2.06,2,0,2.91a30,30,0,0,1-2.83,1.17Z"/><path class="cls-23" d="M108.14,20.52l-2.73,5.25a.27.27,0,0,1-.36.11h0a.27.27,0,0,1-.11-.36l2.74-5.25a.25.25,0,0,1,.35-.11h0A.27.27,0,0,1,108.14,20.52Z"/><path class="cls-6" d="M92.37,54.57l.36,3.65a3.11,3.11,0,0,0,4.1.25c1.43-1,3.93-2.44,4.73-4.07s.56-2.6-.13-3S97.22,53,97.22,53Z"/><path class="cls-6" d="M93.59,41a16.85,16.85,0,0,1,.92,3.29c.14.86.33,1.93.5,3,2.16-.56,2.88-.4,4.31-2a38.22,38.22,0,0,1-.3-5.48c-.19-3.13-1.32-3.9-3.26-4.68a11.7,11.7,0,0,0-6.16-.08,11.21,11.21,0,0,0,1.27,7.35Z"/><path class="cls-19" d="M84.68,15.4a4,4,0,0,0-3.81.52c-1.63,1.39-4.71,8.75-5.25,9.74s-2,3.12.06,4.89c1.69,1.45,6.17.28,6.85-.86.85-1.44.82-7.92.82-7.92Z"/><path class="cls-6" d="M98.25,57.38v3.69a3.13,3.13,0,0,0,4.11.25c1.43-1,3.93-2.44,4.73-4.06s.56-2.6-.13-3-4.21,1.59-4.21,1.59Z"/><path class="cls-3" d="M98.25,51.31l-.35,6.46a2.39,2.39,0,0,0,2.72.94c1.62-.66,3.62-3.28,3.62-3.28l.51-11.86Z"/><polygon class="cls-14" points="91.53 70.19 90.06 69.34 104.3 61.12 105.78 61.97 91.53 70.19"/><polygon class="cls-12" points="105.78 61.97 105.78 63.36 91.53 71.58 91.53 70.19 105.78 61.97"/><polygon class="cls-13" points="90.06 69.34 90.06 70.73 91.53 71.58 91.53 70.19 90.06 69.34"/><polygon class="cls-13" points="97.92 66.52 96.51 65.62 96.51 53.9 97.92 53.9 97.92 66.52"/><polygon class="cls-12" points="97.92 66.52 99.32 65.69 99.32 53.9 97.92 53.9 97.92 66.52"/><polygon class="cls-14" points="75.07 60.39 73.59 59.53 87.83 51.31 89.31 52.16 75.07 60.39"/><polygon class="cls-12" points="89.31 52.16 89.31 53.55 75.07 61.77 75.07 60.39 89.31 52.16"/><polygon class="cls-13" points="73.59 59.53 73.59 60.92 75.07 61.77 75.07 60.39 73.59 59.53"/><polygon class="cls-13" points="81.45 56.71 80.05 55.81 80.05 44.09 81.45 44.09 81.45 56.71"/><polygon class="cls-12" points="81.45 56.71 82.86 55.88 82.86 44.09 81.45 44.09 81.45 56.71"/><path class="cls-22" d="M88.61,57l-13.9-8c-1.68-1-1.47-2.68.47-3.8l7.44-4.3a7.36,7.36,0,0,1,6.59-.27l13.89,8c1.68,1,1.47,2.68-.47,3.8l-7.44,4.3A7.34,7.34,0,0,1,88.61,57Z"/><polygon class="cls-22" points="73.59 45.23 73.59 47.42 76.13 47.94 76.28 45.23 73.59 45.23"/><polygon class="cls-22" points="104.24 48.24 104.24 50.44 101.15 50.44 101.05 48.77 104.24 48.24"/><path class="cls-24" d="M88.61,54.78l-13.9-8c-1.68-1-1.47-2.69.47-3.81l7.44-4.29a7.36,7.36,0,0,1,6.59-.27l13.89,8c1.68,1,1.47,2.68-.47,3.8l-7.44,4.3A7.34,7.34,0,0,1,88.61,54.78Z"/><path class="cls-25" d="M93.32,6.2c.38.49,2.45.39,1.73,4.53-.48,2.78-1.53,4.72-2.51,5.18a8.29,8.29,0,0,1-2.29-.11l-.87,3A5.26,5.26,0,0,1,86,17.72L84.5,16.51A6.13,6.13,0,0,0,86,13.61c.62-2.47.84-6.18,1.85-7.27A3.63,3.63,0,0,1,93.32,6.2Z"/><path class="cls-3" d="M104,47.18a26.48,26.48,0,0,0,1-4.68c0-1.89-1.66-3-3.59-3.73-2.79-1.13-14.38,1.86-14.38,1.86L78.41,41s-.45,3.46,2,5.24,10.08,4.14,14.31,1.95c2-1,4-2.17,6-3.23A24.73,24.73,0,0,1,104,47.18Z"/><path class="cls-20" d="M88.38,45.61a10.57,10.57,0,0,0,4.77-3.38c1.27-1.54,1.29-7.2-.33-8.74-.2,0-2.6-2.25-.47-6.76,1.05-2.2-1.28-6.22-1.94-7.66a5.9,5.9,0,0,0-2.75-2.33L84.92,15S79,19,79,24.08c0,2.05-1,5.22-.9,10.38.06,3.49-2,5.64-.5,7.16C79.82,44,85.51,46.36,88.38,45.61Z"/><path class="cls-25" d="M104.14,23.86c-1.22.45-1.2,3.58-2.07,3.71A60.35,60.35,0,0,0,95.42,29c-.46,1.26-1,2.51-1.46,3.74,2.55.29,7.74-2.81,9.11-3a7.71,7.71,0,0,0,4.28-2.49C108.12,26.28,107.73,22.53,104.14,23.86Z"/><path class="cls-8" d="M100.73,27.58s1-.21,1.35-.31c1.07-.35,2.29,1.61,1.86,2.25s-2.3,1.27-2.3,1.27Z"/><path class="cls-19" d="M89.49,18.56c-1.09-.37-3.06,2-2.74,4.62.27,2.3,2.8,6.91,4,8.9.73,1.15,2.51,3.76,5,3.16a15.68,15.68,0,0,0,6.88-4c1.07-.93.93-3.48-1.91-4-1.49-.28-4.84.81-4.84.81S93.47,19.9,89.49,18.56Z"/><path class="cls-6" d="M95.13,8.79a3.16,3.16,0,0,0,.07-3.08c-.67-1.34-4-2.75-5.46-2.42s-4.52.82-4.93,5.38c-.34,3.69.26,4.31,1,5.45a6.27,6.27,0,0,0,2.24,1.67,3.08,3.08,0,0,0,1.67-1.62c.18-.4.52-1.67.52-1.67S90,10.41,90.86,10s1.4.88,1.43,1.37C94.09,11.39,94.82,9.38,95.13,8.79Z"/><path class="cls-19" d="M84.51,14c-1.48-.61-3.64.68-4.84,3.09s-.94,3.39.26,4.71,3.47.59,7.22-2c1.39-1,4.54.32,4.54.32A16.69,16.69,0,0,0,84.51,14Z"/><path class="cls-21" d="M90.79,40.21c0-4.45-2.72-9.66-6.06-11.58l-6.84-3.95c-3.33-1.93-6.06.13-6.06,4.58V40.9l19,11Z"/><polygon class="cls-21" points="72.37 25.39 74.13 24.27 74.95 27.23 72.62 27.85 72.37 25.39"/><polygon class="cls-21" points="90.8 51.88 88.99 53.02 87.61 50.47 89.7 49.23 90.8 51.88"/><path class="cls-22" d="M89,41.35c0-4.44-2.73-9.65-6.06-11.58l-6.84-3.95C72.75,23.9,70,26,70,30.4V42.05L89,53Z"/><path class="cls-12" d="M85.21,56.36a3.34,3.34,0,0,1-1.88-.53c-2-1.36-2-4.93-2-6.64V44c0-2.17,1-1.76,1,0v5.18c0,1.53,0,4.73,1.57,5.78a2.58,2.58,0,0,0,1.83.33c.32.13.85.49,1.31.74A5.79,5.79,0,0,1,85.21,56.36Z"/><path class="cls-12" d="M77.32,51.78a3.34,3.34,0,0,1-1.88-.53c-2-1.37-2-4.93-2-6.64V39.39c0-2.17,1-1.76,1,0v5.18c0,1.53,0,4.72,1.57,5.78a2.58,2.58,0,0,0,1.83.33c.32.13.85.49,1.31.74A6.08,6.08,0,0,1,77.32,51.78Z"/><path class="cls-26" d="M27,81.32c1.3-.65,2.54-1.44,2.14-2.18a1.28,1.28,0,0,0-1-.55c-1.2.39-1.8.66-1.8.66A96.11,96.11,0,0,1,27,69.4c.17-1-4.38-1-4.38-1a70.27,70.27,0,0,0,0,10.08,10,10,0,0,1,0,2.55l1.43.63A3.62,3.62,0,0,0,27,81.32Z"/><path class="cls-6" d="M22.55,82.94c.43,1,1.44.94,3.46.21a17.7,17.7,0,0,0,4.56-2.32c1.28-1,1.29-1.07,1.46-1.71.24-.9-1.07-1.4-3.24-.73-.22.07-.42.13-.6.2a1.28,1.28,0,0,1,1,.55c.4.74-.84,1.53-2.14,2.18a3.62,3.62,0,0,1-3,.36l-1.43-.63C22.47,81.92,22.29,82.32,22.55,82.94Z"/><path class="cls-26" d="M33.82,83.85c1.3-.65,2.53-1.45,2.14-2.19a1.34,1.34,0,0,0-1-.55c-1.2.4-1.8.66-1.8.66s.64-11.24,1.16-14.13c.16-1-4.71.81-4.71.81A99.58,99.58,0,0,0,29.43,81a10.39,10.39,0,0,1-.05,2.55l1.42.63A3.6,3.6,0,0,0,33.82,83.85Z"/><path class="cls-6" d="M29.33,85.47c.43,1,1.43.94,3.46.21a17.41,17.41,0,0,0,4.56-2.33c1.28-.94,1.29-1.07,1.46-1.71.23-.89-1.07-1.4-3.25-.72l-.59.19a1.34,1.34,0,0,1,1,.55c.39.74-.84,1.54-2.14,2.19a3.6,3.6,0,0,1-3,.35l-1.42-.63C29.25,84.44,29.07,84.85,29.33,85.47Z"/><polygon class="cls-11" points="22.81 28.89 22.81 47.09 64.63 71.23 64.63 53.03 22.81 28.89"/><polygon class="cls-12" points="23.43 28.5 23.43 62.34 24.69 61.61 24.66 30.05 23.43 28.5"/><polygon class="cls-13" points="22.18 28.5 22.18 60.01 23.43 60.73 23.43 28.5 22.18 28.5"/><polygon class="cls-12" points="24.69 61.61 8.17 71.22 8.17 69.61 23.73 60.56 24.69 61.61"/><polygon class="cls-14" points="22.18 59.97 23.43 60.73 8.17 69.61 6.91 68.84 22.18 59.97"/><polygon class="cls-13" points="8.17 69.61 6.91 68.84 6.91 70.49 8.17 71.22 8.17 69.61"/><polygon class="cls-12" points="42.84 66.7 42.84 68.29 65.23 55.28 65.26 53.75 42.84 66.7"/><polygon class="cls-13" points="1.27 42.69 1.27 44.25 42.84 68.29 42.84 66.68 1.27 42.69"/><polygon class="cls-12" points="64 51.99 64 85.83 65.26 85.1 65.23 53.53 64 51.99"/><polygon class="cls-13" points="62.75 51.99 62.75 83.5 64 84.22 64 51.99 62.75 51.99"/><polygon class="cls-12" points="65.26 85.1 48.73 94.71 48.73 93.1 64.3 84.05 65.26 85.1"/><polygon class="cls-14" points="62.75 83.46 64 84.22 48.73 93.1 47.48 92.33 62.75 83.46"/><polygon class="cls-13" points="48.73 93.1 47.48 92.33 47.48 93.98 48.73 94.71 48.73 93.1"/><polygon class="cls-15" points="65.33 51.59 51.12 43.38 10.6 46.1 42.89 64.79 65.33 51.59"/><polygon class="cls-16" points="23.44 27.45 1.22 40.53 11.09 46.23 51.04 43.38 23.44 27.45"/><polygon class="cls-17" points="65.26 51.59 65.26 53.75 42.87 66.72 42.87 64.56 65.26 51.59"/><polygon class="cls-11" points="1.27 40.53 1.27 42.69 42.87 66.72 42.87 64.56 1.27 40.53"/><path class="cls-27" d="M34.47,41l12.7,7.33c.29.16.52,0,.52-.39V37.76a1.21,1.21,0,0,0-.52-1l-12.7-7.34c-.28-.16-.51,0-.51.39V40A1.26,1.26,0,0,0,34.47,41Z"/><polygon class="cls-27" points="47.5 48.32 46.82 48.7 46.88 47.93 47.5 48.32"/><polygon class="cls-27" points="33.45 29.81 34.14 29.42 34.38 30.77 33.45 29.81"/><path class="cls-8" d="M33.78,41.35l12.7,7.33c.28.17.51,0,.51-.38V38.15a1.24,1.24,0,0,0-.51-1l-12.7-7.33c-.28-.16-.52,0-.52.39V40.37A1.23,1.23,0,0,0,33.78,41.35Z"/><polygon class="cls-28" points="33.71 40.2 46.55 47.61 46.55 37.79 33.71 30.38 33.71 40.2"/><path class="cls-28" d="M39.31,44.18l1.63,1c.09,0,.16,0,.16-.12h0a.38.38,0,0,0-.16-.3l-1.63-.94c-.08-.05-.15,0-.15.12h0A.38.38,0,0,0,39.31,44.18Z"/><polygon class="cls-21" points="34.38 40.59 45.9 47.23 45.9 38.28 34.38 31.64 34.38 40.59"/><path class="cls-27" d="M23.25,48.79l12.26,7.08a1.44,1.44,0,0,0,1.29-.06l9.37-5.41c.38-.22.42-.55.1-.74L34,42.58a1.42,1.42,0,0,0-1.28.05l-9.38,5.42C23,48.26,22.92,48.6,23.25,48.79Z"/><rect class="cls-27" x="45.64" y="49.16" width="0.84" height="0.84" transform="translate(92.13 99.16) rotate(180)"/><rect class="cls-27" x="23.03" y="47.66" width="0.84" height="0.84" transform="translate(46.9 96.17) rotate(180)"/><path class="cls-8" d="M23.25,48l12.26,7.08A1.44,1.44,0,0,0,36.8,55l9.37-5.42c.38-.21.42-.55.1-.74L34,41.8a1.42,1.42,0,0,0-1.28.06l-9.38,5.41C23,47.49,22.92,47.82,23.25,48Z"/><polygon class="cls-29" points="27.11 45.82 39.27 52.84 45.43 49.28 33.28 42.26 27.11 45.82"/><polygon class="cls-29" points="27.79 49.98 32.09 52.47 34.4 51.14 30.09 48.66 27.79 49.98"/><polygon class="cls-27" points="44.9 49.26 44.05 48.77 43.44 49.13 44.29 49.62 44.9 49.26"/><polygon class="cls-27" points="44.01 49.78 43.17 49.29 42.56 49.64 43.4 50.13 44.01 49.78"/><polygon class="cls-27" points="43.13 50.29 41.98 49.63 41.37 49.98 42.52 50.64 43.13 50.29"/><polygon class="cls-27" points="32.16 43.96 31.61 43.64 30.11 44.5 30.66 44.82 32.16 43.96"/><polygon class="cls-27" points="42.24 50.8 41.1 50.14 40.48 50.49 41.63 51.15 42.24 50.8"/><polygon class="cls-27" points="41.35 51.31 39.84 50.44 39.23 50.79 40.74 51.66 41.35 51.31"/><polygon class="cls-27" points="32.07 45.95 29.81 44.65 29.2 45 31.46 46.31 32.07 45.95"/><polygon class="cls-27" points="40.47 51.82 39.62 51.33 39.01 51.69 39.86 52.18 40.47 51.82"/><polygon class="cls-27" points="43.84 48.65 42.99 48.16 42.38 48.51 43.23 49 43.84 48.65"/><polygon class="cls-27" points="42.95 49.16 42.1 48.67 41.49 49.03 42.34 49.52 42.95 49.16"/><polygon class="cls-27" points="42.77 48.03 41.92 47.54 41.31 47.9 42.16 48.38 42.77 48.03"/><polygon class="cls-27" points="41.88 48.55 41.03 48.05 40.42 48.41 41.27 48.9 41.88 48.55"/><polygon class="cls-27" points="41.71 47.42 40.86 46.93 40.25 47.28 41.1 47.77 41.71 47.42"/><polygon class="cls-27" points="40.82 47.93 39.97 47.44 39.36 47.8 40.21 48.28 40.82 47.93"/><polygon class="cls-27" points="40.64 46.8 39.79 46.31 39.18 46.67 40.03 47.16 40.64 46.8"/><polygon class="cls-27" points="39.75 47.32 38.9 46.83 38.29 47.18 39.14 47.67 39.75 47.32"/><polygon class="cls-27" points="39.58 46.19 38.73 45.7 38.12 46.05 38.97 46.54 39.58 46.19"/><polygon class="cls-27" points="38.69 46.7 37.84 46.21 37.23 46.56 38.08 47.05 38.69 46.7"/><polygon class="cls-27" points="38.51 45.57 37.66 45.08 37.05 45.44 37.9 45.92 38.51 45.57"/><polygon class="cls-27" points="37.62 46.08 36.77 45.59 36.16 45.95 37.01 46.44 37.62 46.08"/><polygon class="cls-27" points="41.74 49.49 40.89 49 40.28 49.35 41.13 49.84 41.74 49.49"/><polygon class="cls-27" points="40.86 50 40.01 49.51 39.4 49.86 40.25 50.35 40.86 50"/><polygon class="cls-27" points="40.67 48.87 39.82 48.38 39.21 48.73 40.06 49.22 40.67 48.87"/><polygon class="cls-27" points="39.78 49.38 38.94 48.89 38.33 49.24 39.17 49.73 39.78 49.38"/><polygon class="cls-27" points="39.61 48.26 38.76 47.77 38.15 48.12 39 48.61 39.61 48.26"/><polygon class="cls-27" points="38.72 48.77 37.88 48.28 37.27 48.63 38.11 49.12 38.72 48.77"/><polygon class="cls-27" points="38.54 47.64 37.69 47.15 37.08 47.5 37.93 47.99 38.54 47.64"/><polygon class="cls-27" points="37.65 48.15 36.81 47.66 36.2 48.02 37.04 48.51 37.65 48.15"/><polygon class="cls-27" points="37.48 47.03 36.63 46.54 36.02 46.89 36.87 47.38 37.48 47.03"/><polygon class="cls-27" points="36.59 47.54 35.74 47.05 35.13 47.4 35.98 47.89 36.59 47.54"/><polygon class="cls-27" points="36.41 46.41 35.56 45.92 34.95 46.27 35.8 46.76 36.41 46.41"/><polygon class="cls-27" points="35.52 46.92 34.67 46.43 34.06 46.78 34.91 47.27 35.52 46.92"/><polygon class="cls-27" points="35.34 45.79 34.5 45.3 33.89 45.66 34.73 46.15 35.34 45.79"/><polygon class="cls-27" points="34.46 46.31 33.61 45.82 33 46.17 33.85 46.66 34.46 46.31"/><polygon class="cls-27" points="39.55 50.27 38.7 49.78 38.09 50.13 38.94 50.62 39.55 50.27"/><polygon class="cls-27" points="38.48 49.65 37.63 49.16 37.02 49.51 37.87 50 38.48 49.65"/><polygon class="cls-27" points="37.41 49.04 36.57 48.55 35.96 48.9 36.8 49.39 37.41 49.04"/><polygon class="cls-27" points="36.35 48.42 35.5 47.93 34.89 48.28 35.73 48.77 36.35 48.42"/><polygon class="cls-27" points="35.28 47.81 34.44 47.32 33.83 47.67 34.67 48.16 35.28 47.81"/><polygon class="cls-27" points="34.21 47.19 33.37 46.7 32.76 47.05 33.6 47.54 34.21 47.19"/><polygon class="cls-27" points="33.15 46.58 32.3 46.09 31.69 46.44 32.54 46.93 33.15 46.58"/><polygon class="cls-27" points="34.27 45.18 33.42 44.69 32.81 45.04 33.66 45.53 34.27 45.18"/><polygon class="cls-27" points="33.38 45.69 32.54 45.2 31.93 45.55 32.77 46.04 33.38 45.69"/><polygon class="cls-27" points="33.21 44.56 32.36 44.07 31.75 44.43 32.6 44.92 33.21 44.56"/><polygon class="cls-27" points="32.32 45.08 31.48 44.59 30.87 44.94 31.71 45.43 32.32 45.08"/><polygon class="cls-27" points="37.45 44.96 36.6 44.47 35.99 44.82 36.84 45.31 37.45 44.96"/><polygon class="cls-27" points="36.56 45.47 35.71 44.98 35.1 45.33 35.95 45.82 36.56 45.47"/><polygon class="cls-27" points="36.36 44.33 35.51 43.84 34.9 44.2 35.75 44.69 36.36 44.33"/><polygon class="cls-27" points="35.47 44.84 34.63 44.35 34.02 44.71 34.86 45.2 35.47 44.84"/><polygon class="cls-27" points="35.3 43.72 34.45 43.23 33.84 43.58 34.69 44.07 35.3 43.72"/><polygon class="cls-27" points="34.41 44.23 33.56 43.74 32.95 44.09 33.8 44.59 34.41 44.23"/><polygon class="cls-27" points="34.23 43.1 33.38 42.61 32.77 42.97 33.62 43.45 34.23 43.1"/><polygon class="cls-27" points="33.34 43.61 32.49 43.12 31.88 43.48 32.73 43.97 33.34 43.61"/><polygon class="cls-27" points="39.41 51.21 38.56 50.72 37.95 51.07 38.8 51.56 39.41 51.21"/><polygon class="cls-27" points="38.34 50.59 37.49 50.1 36.88 50.45 37.72 50.95 38.34 50.59"/><polygon class="cls-27" points="32.77 47.38 31.93 46.89 31.32 47.24 32.16 47.73 32.77 47.38"/><polygon class="cls-27" points="31.71 46.77 30.86 46.28 30.25 46.63 31.1 47.12 31.71 46.77"/><polygon class="cls-27" points="30.64 46.15 29.79 45.66 29.18 46.01 30.03 46.5 30.64 46.15"/><polygon class="cls-27" points="29.59 45.55 28.95 45.17 28.34 45.52 28.98 45.9 29.59 45.55"/><polygon class="cls-27" points="37.26 49.97 32.98 47.5 32.37 47.85 36.65 50.33 37.26 49.97"/><polygon class="cls-28" points="44.46 51.21 45.66 50.52 45.66 50.13 44.46 50.83 44.46 51.21"/><polygon class="cls-30" points="43.06 52.02 44.27 51.32 44.27 50.94 43.06 51.63 43.06 52.02"/><polygon class="cls-8" points="23.08 33.06 10.27 40.07 18.42 44.79 31.23 37.76 23.08 33.06"/><polygon class="cls-14" points="23.49 95.11 22.01 94.26 36.25 86.03 37.73 86.89 23.49 95.11"/><polygon class="cls-12" points="37.73 86.89 37.73 88.27 23.49 96.5 23.49 95.11 37.73 86.89"/><polygon class="cls-13" points="22.01 94.26 22.01 95.64 23.49 96.5 23.49 95.11 22.01 94.26"/><polygon class="cls-13" points="29.87 91.44 28.47 90.54 28.47 78.82 29.87 78.82 29.87 91.44"/><polygon class="cls-12" points="29.87 91.44 31.27 90.61 31.27 78.82 29.87 78.82 29.87 91.44"/><polygon class="cls-14" points="7.02 85.3 5.54 84.45 19.79 76.22 21.27 77.08 7.02 85.3"/><polygon class="cls-12" points="21.27 77.08 21.27 78.46 7.02 86.69 7.02 85.3 21.27 77.08"/><polygon class="cls-13" points="5.54 84.45 5.54 85.84 7.02 86.69 7.02 85.3 5.54 84.45"/><polygon class="cls-13" points="13.4 81.63 12 80.73 12 69.01 13.4 69.01 13.4 81.63"/><polygon class="cls-12" points="13.4 81.63 14.81 80.8 14.81 69.01 13.4 69.01 13.4 81.63"/><path class="cls-22" d="M20.56,81.88l-13.9-8c-1.68-1-1.46-2.68.48-3.8l7.44-4.3a7.34,7.34,0,0,1,6.58-.27l13.89,8c1.68,1,1.47,2.68-.47,3.8l-7.44,4.3A7.34,7.34,0,0,1,20.56,81.88Z"/><polygon class="cls-22" points="5.54 70.15 5.54 72.34 8.08 72.85 8.23 70.15 5.54 70.15"/><polygon class="cls-22" points="36.19 73.16 36.19 75.36 33.1 75.36 33 73.68 36.19 73.16"/><path class="cls-24" d="M20.56,79.7l-13.9-8C5,70.7,5.2,69,7.14,67.87l7.44-4.29a7.34,7.34,0,0,1,6.58-.28l13.89,8c1.68,1,1.47,2.68-.47,3.8l-7.44,4.29A7.34,7.34,0,0,1,20.56,79.7Z"/><path class="cls-9" d="M15.17,42.45c-1.07-.51-2-2.39-4.06-.42-1.74,1.63-2.63,5.94.19,8.41S15.17,42.45,15.17,42.45Z"/><path class="cls-26" d="M19,30.28c.49.34,2.3.77,2.84,4.8.35,2.71-.55,3.92-1.32,4.63a3.91,3.91,0,0,1-1.57.34l.05,3a5.13,5.13,0,0,1-3.47,0l-1.7-.7a5.92,5.92,0,0,0,.56-3.12c-.14-2.46-1-6-.4-7.25A3.52,3.52,0,0,1,19,30.28Z"/><path class="cls-6" d="M23.57,60.18a69,69,0,0,1-7,1.43V71.72l.15,0a34.86,34.86,0,0,0,12-4.74C29.45,63,29.11,58.65,23.57,60.18Z"/><path class="cls-3" d="M13.74,72.92c1.37.76,3.47,2.17,8.33,1.43a34.86,34.86,0,0,0,12-4.74c.78-3.94.44-8.31-5.1-6.78a99.3,99.3,0,0,1-11.15,2s-6.3-3.21-7.23-.46C8.9,69.41,11.26,71.55,13.74,72.92Z"/><path class="cls-10" d="M10.08,64.54c.85,2.37,4.63,3.26,6.83,3.23,2.93,0,7.15-1.23,6.64-6.24-.29-.73-2.05-5.2,0-9.57,1-2.14-1.27-6-1.91-7.42A5.78,5.78,0,0,0,19,42.29l-5.22-.61s-3.14,1-3.14,5.7a67.2,67.2,0,0,0,.92,8.6c.12,1,.48,3.33-1.2,7.62A5.5,5.5,0,0,0,10.08,64.54Z"/><path class="cls-9" d="M13.32,42.05s.26.85,2,1.4a6.28,6.28,0,0,0,5-.4c0-1.12-1.36-1.62-1.36-1.62a5,5,0,0,1-3.29,0l-1.75-.62Z"/><path class="cls-3" d="M15.87,29c-2.31.48-4.73,1.94-3.87,6.84a7.81,7.81,0,0,0,1.93,3.28A3.39,3.39,0,0,1,15,40.74c1.85-.21,3.59-3.13,4.61-4.19s2.15-1.47,2.28-2.86C22.19,30.85,20.19,28.08,15.87,29Z"/><path class="cls-26" d="M21.16,44.54c-1-.09-2,1.73-1.93,4,.13,2.91,6.28,9.71,6.28,9.71,2,1.21,8.08-2.53,9.56-2.7a7.52,7.52,0,0,0,4.14-2.43c.74-.92-2.1-2.2-3.5-1.3-1.06.67-.79,1.52-1.63,1.65a59.26,59.26,0,0,0-7.23,1.59S23.08,44.72,21.16,44.54Z"/><path class="cls-26" d="M20.74,35.68s-1.06-1.82-1.52,0a1.84,1.84,0,0,0,1.05,2.25Z"/><path class="cls-9" d="M20.29,44.07s-1.19.68-1.29,3.5,1.29,4.9,2.88,7.65a29.48,29.48,0,0,0,3.71,3.94s3.17-.68,2.64-3.42-2.31-4-3.55-7.19S22.16,43.36,20.29,44.07Z"/><path class="cls-6" d="M14.51,26.9c-1.61-.39-2.89.43-3.91,2A7.84,7.84,0,0,0,10,34.78c.5,1.8,1,3.62,0,4.09a1.24,1.24,0,0,1-1.93-.94s-.78,2.88,2.51,2.88,5.12-2.34,5.83-7C16.94,30.38,16.57,27.4,14.51,26.9Z"/><path class="cls-21" d="M22.75,65.12c0-4.44-2.73-9.65-6.06-11.57l-6.85-4c-3.33-1.92-6.06.14-6.06,4.58V65.82l19,11Z"/><polygon class="cls-21" points="4.32 50.31 6.08 49.18 6.9 52.15 4.57 52.76 4.32 50.31"/><polygon class="cls-21" points="22.75 76.8 20.94 77.94 19.56 75.39 21.66 74.15 22.75 76.8"/><path class="cls-22" d="M20.94,66.27c0-4.44-2.72-9.65-6.06-11.58L8,50.74C4.7,48.81,2,50.88,2,55.32V67l19,11Z"/><path class="cls-12" d="M17.16,81.28a3.27,3.27,0,0,1-1.88-.54c-2-1.36-2-4.92-2-6.63V68.89c0-2.17,1-1.76,1,0v5.18c0,1.53,0,4.72,1.57,5.78a2.58,2.58,0,0,0,1.83.33c.32.13.85.49,1.32.74A6.2,6.2,0,0,1,17.16,81.28Z"/><path class="cls-12" d="M9.27,76.7a3.27,3.27,0,0,1-1.88-.54c-2-1.36-2-4.92-2-6.64V64.31c0-2.17,1-1.76,1,0v5.17c0,1.54,0,4.73,1.57,5.79a2.63,2.63,0,0,0,1.83.32c.32.14.85.5,1.32.75A6.2,6.2,0,0,1,9.27,76.7Z"/><path class="cls-23" d="M46.4,52.35l-5.11,3a.26.26,0,0,1-.36-.09h0a.26.26,0,0,1,.1-.36l5.11-3a.27.27,0,0,1,.36.09h0A.26.26,0,0,1,46.4,52.35Z"/><polygon class="cls-11" points="151.65 38.8 151.65 57 193.47 81.14 193.47 62.94 151.65 38.8"/><polygon class="cls-12" points="152.28 38.41 152.28 72.25 153.54 71.52 153.51 39.95 152.28 38.41"/><polygon class="cls-13" points="151.03 38.41 151.03 69.92 152.28 70.64 152.28 38.41 151.03 38.41"/><polygon class="cls-12" points="153.54 71.52 137.01 81.13 137.01 79.52 152.58 70.47 153.54 71.52"/><polygon class="cls-14" points="151.03 69.88 152.28 70.64 137.01 79.52 135.76 78.75 151.03 69.88"/><polygon class="cls-13" points="137.01 79.52 135.76 78.75 135.76 80.4 137.01 81.13 137.01 79.52"/><polygon class="cls-12" points="171.68 76.61 171.68 78.2 194.08 65.2 194.1 63.66 171.68 76.61"/><polygon class="cls-13" points="130.12 52.6 130.12 54.16 171.69 78.2 171.69 76.59 130.12 52.6"/><polygon class="cls-12" points="192.85 61.9 192.85 95.74 194.1 95.01 194.08 63.44 192.85 61.9"/><polygon class="cls-13" points="191.6 61.9 191.6 93.41 192.85 94.13 192.85 61.9 191.6 61.9"/><polygon class="cls-12" points="194.1 95.01 177.58 104.62 177.58 103.01 193.15 93.96 194.1 95.01"/><polygon class="cls-14" points="191.6 93.37 192.85 94.13 177.58 103.01 176.33 102.24 191.6 93.37"/><polygon class="cls-13" points="177.58 103.01 176.33 102.24 176.33 103.89 177.58 104.62 177.58 103.01"/><polygon class="cls-15" points="194.18 61.5 179.96 53.29 139.45 56.01 171.74 74.7 194.18 61.5"/><polygon class="cls-16" points="152.28 37.35 130.07 50.44 139.94 56.14 179.89 53.29 152.28 37.35"/><polygon class="cls-17" points="194.1 61.5 194.1 63.66 171.72 76.64 171.72 74.47 194.1 61.5"/><polygon class="cls-11" points="130.12 50.44 130.12 52.6 171.72 76.64 171.72 74.47 130.12 50.44"/><polygon class="cls-8" points="166.06 49.2 153.24 56.21 161.4 60.92 174.2 53.9 166.06 49.2"/><path class="cls-6" d="M153.17,89.4l.36,3.64a3.11,3.11,0,0,0,4.1.25c1.43-1,3.93-2.43,4.73-4.06s.56-2.6-.13-3S158,87.79,158,87.79Z"/><path class="cls-6" d="M154.39,75.87a16.65,16.65,0,0,1,.92,3.29c.14.85.33,1.93.5,3,2.16-.55,2.88-.39,4.31-2a38.42,38.42,0,0,1-.3-5.49c-.19-3.13-1.32-3.89-3.26-4.67A11.6,11.6,0,0,0,150.4,70a11.18,11.18,0,0,0,1.27,7.34Z"/><path class="cls-6" d="M164.21,89.35V93a3.12,3.12,0,0,0,4.11.25c1.42-1,3.93-2.43,4.73-4.06s.55-2.6-.14-3-4.21,1.59-4.21,1.59Z"/><path class="cls-3" d="M162.71,84.26l.73,6s1.47,1.76,3.14,1.28A3.55,3.55,0,0,0,169.22,87l-4-11.75Z"/><polygon class="cls-14" points="152.34 105.02 150.86 104.17 165.1 95.94 166.58 96.8 152.34 105.02"/><polygon class="cls-12" points="166.58 96.8 166.58 98.18 152.34 106.41 152.34 105.02 166.58 96.8"/><polygon class="cls-13" points="150.86 104.17 150.86 105.56 152.34 106.41 152.34 105.02 150.86 104.17"/><polygon class="cls-13" points="158.72 101.35 157.31 100.45 157.31 88.73 158.72 88.73 158.72 101.35"/><polygon class="cls-12" points="158.72 101.35 160.12 100.52 160.12 88.73 158.72 88.73 158.72 101.35"/><polygon class="cls-14" points="135.87 95.21 134.39 94.36 148.63 86.13 150.11 86.99 135.87 95.21"/><polygon class="cls-12" points="150.11 86.99 150.11 88.38 135.87 96.6 135.87 95.21 150.11 86.99"/><polygon class="cls-13" points="134.39 94.36 134.39 95.75 135.87 96.6 135.87 95.21 134.39 94.36"/><polygon class="cls-13" points="142.25 91.54 140.85 90.64 140.85 78.92 142.25 78.92 142.25 91.54"/><polygon class="cls-12" points="142.25 91.54 143.66 90.71 143.66 78.92 142.25 78.92 142.25 91.54"/><path class="cls-22" d="M149.41,91.79l-13.9-8c-1.68-1-1.47-2.68.48-3.8l7.43-4.3A7.36,7.36,0,0,1,150,75.4l13.89,8c1.68,1,1.47,2.68-.47,3.8L156,91.52A7.34,7.34,0,0,1,149.41,91.79Z"/><polygon class="cls-22" points="134.39 80.06 134.39 82.25 136.93 82.76 137.08 80.06 134.39 80.06"/><polygon class="cls-22" points="165.04 83.07 165.04 85.27 161.95 85.27 161.85 83.59 165.04 83.07"/><path class="cls-24" d="M149.41,89.61l-13.9-8c-1.68-1-1.47-2.68.48-3.8l7.43-4.29a7.36,7.36,0,0,1,6.59-.28l13.89,8c1.68,1,1.47,2.68-.47,3.8L156,89.33A7.34,7.34,0,0,1,149.41,89.61Z"/><path class="cls-3" d="M164.76,82a26.24,26.24,0,0,0,1-4.67c-.05-1.89-.67-3.2-3-3.71-3-.66-15,1.84-15,1.84l-8.53.41s-.45,3.46,2,5.24,10.09,4.14,14.31,2c2-1,4-2.17,6-3.23A25.58,25.58,0,0,1,164.76,82Z"/><path class="cls-24" d="M163.53,56.22A12.74,12.74,0,0,1,166.82,60a9.49,9.49,0,0,1,1.78,6s-7.28-3.16-7.6-3.52a47.56,47.56,0,0,1-1.68-4.78S161.88,55.06,163.53,56.22Z"/><path class="cls-24" d="M143,58s-3.36-3.09.71-5.44A14.69,14.69,0,0,1,148.39,51a15.69,15.69,0,0,1,6,1.33c1.29.44,1,3.08.4,3.45S143,58,143,58Z"/><path class="cls-22" d="M161.19,56.22a15.66,15.66,0,0,1,2.47,2.56,18.8,18.8,0,0,1,1.68,3.12l-6.73-4.26Z"/><path class="cls-6" d="M151.92,53.44A7.61,7.61,0,0,1,155,50.18a5,5,0,0,1,3.14-.28,1,1,0,0,1-.21-.76,2.57,2.57,0,0,1,1.75,1.3,3.09,3.09,0,0,1,2.42,1.34,1,1,0,0,1-.78,0,6,6,0,0,1,.78,2.09,4.63,4.63,0,0,1-1.25,3.77c-1.47,1.39-5.28,1-5.28,1Z"/><path class="cls-23" d="M138.58,70.47a29,29,0,0,1,2.73-9.84,19.07,19.07,0,0,1,4-5.3,7.38,7.38,0,0,1,9.52-.8c1.85,1.51,3.75,3,3.52,7s-3,9.67-3.13,11.51-1.29,7.06-6.35,6.67S138.06,78,138.58,70.47Z"/><path class="cls-8" d="M150.26,53.17a3.33,3.33,0,0,1,3.23-.28,9.2,9.2,0,0,1,3.89,3.33,7.45,7.45,0,0,1,.7,2.56A14.36,14.36,0,0,0,150.26,53.17Z"/><path class="cls-24" d="M166.17,62.4c-.89-.65-5.51-4-8.65-5-2.86-.94-5.87,5-2.54,8,1.85,1.67,10.38,3.3,13,1.55C169.35,66.05,168.3,64,166.17,62.4Z"/><path class="cls-21" d="M151.6,75c0-4.44-2.73-9.65-6.06-11.57l-6.85-4c-3.33-1.92-6.06.14-6.06,4.59V75.73l19,11Z"/><polygon class="cls-21" points="133.17 60.22 134.93 59.09 135.75 62.06 133.42 62.67 133.17 60.22"/><polygon class="cls-21" points="151.59 86.71 149.79 87.85 148.41 85.3 150.5 84.06 151.59 86.71"/><path class="cls-22" d="M149.79,76.18c0-4.44-2.73-9.65-6.06-11.58l-6.84-3.95c-3.34-1.92-6.06.14-6.06,4.58V76.88l19,11Z"/><path class="cls-12" d="M146,91.19a3.27,3.27,0,0,1-1.88-.54c-2-1.36-2-4.92-2-6.63V78.8c0-2.17,1-1.76,1,0V84c0,1.53,0,4.72,1.57,5.78a2.58,2.58,0,0,0,1.83.33c.32.13.85.49,1.31.74A6.08,6.08,0,0,1,146,91.19Z"/><path class="cls-12" d="M138.12,86.61a3.27,3.27,0,0,1-1.88-.54c-2-1.36-2-4.92-2-6.63V74.22c0-2.17,1-1.76,1,0v5.18c0,1.53,0,4.72,1.57,5.78a2.63,2.63,0,0,0,1.83.32c.32.14.85.5,1.32.75A6.2,6.2,0,0,1,138.12,86.61Z"/><polygon class="cls-18" points="152.28 39.06 143.29 44.27 149.75 47.97 158.77 42.77 152.28 39.06"/><polygon class="cls-19" points="150.07 41.04 144.56 44.2 149.75 47.17 155.28 44.02 150.07 41.04"/><polygon class="cls-19" points="151.24 40.38 150.75 40.67 155.93 43.64 156.45 43.35 151.24 40.38"/><polygon class="cls-19" points="152.31 39.75 151.81 40.05 157 43.02 157.52 42.73 152.31 39.75"/><polygon class="cls-19" points="149.75 47.97 149.75 49.97 158.77 44.77 158.77 42.77 149.75 47.97"/><polygon class="cls-20" points="143.29 44.27 143.29 44.73 149.38 48.22 149.38 49.36 143.29 45.87 143.29 46.26 149.75 49.97 149.75 47.97 143.29 44.27"/><polygon class="cls-8" points="149.38 48.22 143.29 44.73 143.29 45.87 149.38 49.36 149.38 48.22"/><polygon class="cls-21" points="152.28 36.49 143.29 41.7 149.75 45.41 158.77 40.21 152.28 36.49"/><polygon class="cls-8" points="149.79 38.62 144.74 41.53 149.92 44.5 155 41.6 149.79 38.62"/><polygon class="cls-3" points="151.1 37.87 150.61 38.17 155.79 41.14 156.31 40.85 151.1 37.87"/><polygon class="cls-3" points="152.17 37.25 151.67 37.55 156.86 40.52 157.38 40.23 152.17 37.25"/><polygon class="cls-24" points="149.75 45.41 149.75 47.4 158.77 42.21 158.77 40.21 149.75 45.41"/><polygon class="cls-23" points="143.29 41.7 143.29 42.17 149.38 45.66 149.38 46.79 143.29 43.3 143.29 43.7 149.75 47.4 149.75 45.41 143.29 41.7"/><polygon class="cls-8" points="149.38 45.66 143.29 42.17 143.29 43.3 149.38 46.79 149.38 45.66"/><polygon class="cls-31" points="183.2 56.44 174.2 61.65 180.66 65.36 189.68 60.16 183.2 56.44"/><polygon class="cls-9" points="180.99 58.43 175.48 61.59 180.66 64.56 186.19 61.41 180.99 58.43"/><polygon class="cls-9" points="182.16 57.76 181.66 58.06 186.85 61.03 187.37 60.74 182.16 57.76"/><polygon class="cls-9" points="183.22 57.14 182.73 57.44 187.91 60.41 188.43 60.12 183.22 57.14"/><polygon class="cls-9" points="180.66 65.36 180.66 67.35 189.68 62.16 189.68 60.16 180.66 65.36"/><polygon class="cls-10" points="174.2 61.65 174.2 62.12 180.29 65.61 180.29 66.75 174.2 63.25 174.2 63.65 180.66 67.35 180.66 65.36 174.2 61.65"/><polygon class="cls-8" points="180.29 65.61 174.2 62.12 174.2 63.25 180.29 66.75 180.29 65.61"/><path class="cls-19" d="M174.4,57.38l-5.1,3a.28.28,0,0,1-.37-.1h0a.27.27,0,0,1,.1-.36l5.11-3a.27.27,0,0,1,.36.1h0A.26.26,0,0,1,174.4,57.38Z"/><path class="cls-26" d="M85.25,114.72c1.3-.65,2.53-1.45,2.14-2.19a1.34,1.34,0,0,0-1-.55c-1.19.4-1.79.66-1.79.66a92.92,92.92,0,0,1,.64-9.84c.16-1-4.38-1-4.38-1a68.83,68.83,0,0,0,0,10.08,10.39,10.39,0,0,1,0,2.55l1.42.63A3.6,3.6,0,0,0,85.25,114.72Z"/><path class="cls-6" d="M80.76,116.34c.43,1,1.43.94,3.46.21a17.41,17.41,0,0,0,4.56-2.33c1.27-.94,1.29-1.07,1.46-1.71.23-.89-1.07-1.39-3.25-.72l-.6.19a1.34,1.34,0,0,1,1,.55c.39.74-.84,1.54-2.14,2.19a3.6,3.6,0,0,1-3,.35l-1.42-.63C80.68,115.31,80.49,115.72,80.76,116.34Z"/><path class="cls-26" d="M92,117.24c1.3-.65,2.54-1.44,2.14-2.18a1.26,1.26,0,0,0-1-.55c-1.2.39-1.8.66-1.8.66S92,103.92,92.53,101c.17-1-4.7.8-4.7.8a99.8,99.8,0,0,0-.19,12.58,11,11,0,0,1,0,2.55l1.42.63A3.62,3.62,0,0,0,92,117.24Z"/><path class="cls-6" d="M87.53,118.86c.44,1,1.44.94,3.47.21a17.33,17.33,0,0,0,4.55-2.32c1.28-1,1.29-1.07,1.46-1.71.24-.9-1.07-1.4-3.24-.72l-.6.19a1.26,1.26,0,0,1,1,.55c.4.74-.84,1.53-2.14,2.18a3.62,3.62,0,0,1-3,.36L87.59,117C87.45,117.84,87.27,118.24,87.53,118.86Z"/><polygon class="cls-11" points="81.01 62.28 81.01 80.48 122.83 104.63 122.83 86.43 81.01 62.28"/><polygon class="cls-12" points="81.64 61.9 81.64 95.73 82.89 95.01 82.87 63.44 81.64 61.9"/><polygon class="cls-13" points="80.38 61.9 80.38 93.41 81.64 94.13 81.64 61.9 80.38 61.9"/><polygon class="cls-12" points="82.89 95.01 66.37 104.61 66.37 103.01 81.94 93.95 82.89 95.01"/><polygon class="cls-14" points="80.38 93.37 81.64 94.13 66.37 103.01 65.12 102.24 80.38 93.37"/><polygon class="cls-13" points="66.37 103.01 65.12 102.24 65.12 103.89 66.37 104.61 66.37 103.01"/><polygon class="cls-12" points="101.04 100.09 101.04 101.69 123.44 88.68 123.46 87.15 101.04 100.09"/><polygon class="cls-13" points="59.47 76.08 59.47 77.64 101.05 101.69 101.05 100.08 59.47 76.08"/><polygon class="cls-12" points="122.21 85.38 122.21 119.22 123.46 118.5 123.44 86.93 122.21 85.38"/><polygon class="cls-13" points="120.95 85.38 120.95 116.89 122.21 117.62 122.21 85.38 120.95 85.38"/><polygon class="cls-12" points="123.46 118.5 106.94 128.1 106.94 126.49 122.5 117.44 123.46 118.5"/><polygon class="cls-14" points="120.95 116.85 122.21 117.62 106.94 126.49 105.69 125.73 120.95 116.85"/><polygon class="cls-13" points="106.94 126.49 105.69 125.73 105.69 127.38 106.94 128.1 106.94 126.49"/><polygon class="cls-15" points="123.54 84.98 109.32 76.78 68.81 79.49 101.09 98.19 123.54 84.98"/><polygon class="cls-16" points="81.64 60.84 59.42 73.93 69.29 79.63 109.25 76.78 81.64 60.84"/><polygon class="cls-17" points="123.46 84.98 123.46 87.15 101.07 100.12 101.07 97.96 123.46 84.98"/><polygon class="cls-11" points="59.47 73.92 59.47 76.08 101.07 100.12 101.07 97.96 59.47 73.92"/><path class="cls-27" d="M92.68,74.35l12.7,7.34c.28.16.51,0,.51-.39V71.15a1.24,1.24,0,0,0-.51-1l-12.7-7.33c-.28-.16-.51,0-.51.39V73.37A1.23,1.23,0,0,0,92.68,74.35Z"/><polygon class="cls-27" points="105.7 81.72 105.03 82.1 105.08 81.32 105.7 81.72"/><polygon class="cls-27" points="91.66 63.2 92.35 62.81 92.59 64.16 91.66 63.2"/><path class="cls-8" d="M92,74.75l12.7,7.33c.29.16.52,0,.52-.39V71.55a1.21,1.21,0,0,0-.52-1L92,63.24c-.28-.17-.51,0-.51.38V73.77A1.24,1.24,0,0,0,92,74.75Z"/><polygon class="cls-28" points="91.91 73.59 104.75 81 104.75 71.18 91.91 63.77 91.91 73.59"/><path class="cls-28" d="M97.52,77.58l1.63.94c.08,0,.15,0,.15-.12h0a.38.38,0,0,0-.15-.29l-1.63-.94c-.09,0-.16,0-.16.11h0A.36.36,0,0,0,97.52,77.58Z"/><polygon class="cls-21" points="92.59 73.98 104.1 80.63 104.1 71.68 92.59 65.03 92.59 73.98"/><path class="cls-27" d="M81.45,82.18l12.27,7.08A1.42,1.42,0,0,0,95,89.21l9.38-5.42c.38-.21.42-.55.09-.74L92.21,76a1.42,1.42,0,0,0-1.28.06l-9.38,5.41C81.17,81.66,81.13,82,81.45,82.18Z"/><rect class="cls-27" x="103.85" y="82.56" width="0.84" height="0.84" transform="translate(208.54 165.95) rotate(180)"/><rect class="cls-27" x="81.23" y="81.06" width="0.84" height="0.84" transform="translate(163.31 162.96) rotate(180)"/><path class="cls-8" d="M81.45,81.41l12.27,7.08a1.45,1.45,0,0,0,1.28,0L104.38,83c.38-.22.42-.55.09-.74L92.21,75.2a1.42,1.42,0,0,0-1.28,0l-9.38,5.42C81.17,80.89,81.13,81.22,81.45,81.41Z"/><polygon class="cls-29" points="85.32 79.22 97.47 86.23 103.64 82.67 91.48 75.66 85.32 79.22"/><polygon class="cls-29" points="86 83.38 90.3 85.86 92.6 84.54 88.3 82.05 86 83.38"/><polygon class="cls-27" points="103.11 82.66 102.26 82.17 101.65 82.52 102.5 83.01 103.11 82.66"/><polygon class="cls-27" points="102.22 83.17 101.37 82.68 100.76 83.03 101.61 83.53 102.22 83.17"/><polygon class="cls-27" points="101.33 83.68 100.19 83.02 99.58 83.38 100.72 84.04 101.33 83.68"/><polygon class="cls-27" points="90.36 77.35 89.81 77.03 88.31 77.9 88.87 78.22 90.36 77.35"/><polygon class="cls-27" points="100.45 84.2 99.3 83.53 98.69 83.89 99.84 84.55 100.45 84.2"/><polygon class="cls-27" points="99.56 84.71 98.05 83.83 97.44 84.19 98.95 85.06 99.56 84.71"/><polygon class="cls-27" points="90.28 79.35 88.02 78.05 87.41 78.4 89.67 79.7 90.28 79.35"/><polygon class="cls-27" points="98.67 85.22 97.82 84.73 97.21 85.08 98.06 85.57 98.67 85.22"/><polygon class="cls-27" points="102.05 82.05 101.2 81.56 100.59 81.91 101.44 82.4 102.05 82.05"/><polygon class="cls-27" points="101.16 82.56 100.31 82.07 99.7 82.42 100.55 82.91 101.16 82.56"/><polygon class="cls-27" points="100.97 81.43 100.13 80.94 99.52 81.29 100.36 81.78 100.97 81.43"/><polygon class="cls-27" points="100.09 81.94 99.24 81.45 98.63 81.8 99.48 82.29 100.09 81.94"/><polygon class="cls-27" points="99.91 80.82 99.06 80.33 98.45 80.68 99.3 81.17 99.91 80.82"/><polygon class="cls-27" points="99.03 81.33 98.18 80.84 97.57 81.19 98.42 81.68 99.03 81.33"/><polygon class="cls-27" points="98.84 80.2 98 79.71 97.39 80.06 98.23 80.55 98.84 80.2"/><polygon class="cls-27" points="97.96 80.71 97.11 80.22 96.5 80.57 97.35 81.06 97.96 80.71"/><polygon class="cls-27" points="97.78 79.59 96.94 79.1 96.33 79.45 97.17 79.94 97.78 79.59"/><polygon class="cls-27" points="96.9 80.1 96.05 79.61 95.44 79.96 96.29 80.45 96.9 80.1"/><polygon class="cls-27" points="96.71 78.97 95.86 78.48 95.25 78.83 96.1 79.32 96.71 78.97"/><polygon class="cls-27" points="95.83 79.48 94.98 78.99 94.37 79.34 95.22 79.83 95.83 79.48"/><polygon class="cls-27" points="99.95 82.89 99.1 82.39 98.49 82.75 99.34 83.24 99.95 82.89"/><polygon class="cls-27" points="99.06 83.4 98.21 82.91 97.6 83.26 98.45 83.75 99.06 83.4"/><polygon class="cls-27" points="98.88 82.27 98.03 81.78 97.42 82.13 98.27 82.62 98.88 82.27"/><polygon class="cls-27" points="97.99 82.78 97.14 82.29 96.53 82.64 97.38 83.13 97.99 82.78"/><polygon class="cls-27" points="97.81 81.65 96.97 81.16 96.36 81.52 97.2 82.01 97.81 81.65"/><polygon class="cls-27" points="96.93 82.17 96.08 81.68 95.47 82.03 96.32 82.52 96.93 82.17"/><polygon class="cls-27" points="96.75 81.04 95.9 80.55 95.29 80.9 96.14 81.39 96.75 81.04"/><polygon class="cls-27" points="95.86 81.55 95.01 81.06 94.4 81.41 95.25 81.9 95.86 81.55"/><polygon class="cls-27" points="95.69 80.42 94.84 79.93 94.23 80.29 95.08 80.78 95.69 80.42"/><polygon class="cls-27" points="94.8 80.94 93.95 80.45 93.34 80.8 94.19 81.29 94.8 80.94"/><polygon class="cls-27" points="94.61 79.81 93.77 79.31 93.16 79.67 94 80.16 94.61 79.81"/><polygon class="cls-27" points="93.73 80.32 92.88 79.83 92.27 80.18 93.12 80.67 93.73 80.32"/><polygon class="cls-27" points="93.55 79.19 92.7 78.7 92.09 79.05 92.94 79.54 93.55 79.19"/><polygon class="cls-27" points="92.66 79.7 91.81 79.21 91.2 79.56 92.05 80.06 92.66 79.7"/><polygon class="cls-27" points="97.75 83.67 96.9 83.17 96.29 83.53 97.14 84.02 97.75 83.67"/><polygon class="cls-27" points="96.68 83.05 95.83 82.56 95.22 82.91 96.07 83.4 96.68 83.05"/><polygon class="cls-27" points="95.62 82.43 94.77 81.94 94.16 82.3 95.01 82.79 95.62 82.43"/><polygon class="cls-27" points="94.55 81.82 93.7 81.33 93.09 81.68 93.94 82.17 94.55 81.82"/><polygon class="cls-27" points="93.49 81.2 92.64 80.72 92.03 81.07 92.88 81.56 93.49 81.2"/><polygon class="cls-27" points="92.42 80.59 91.57 80.1 90.96 80.45 91.81 80.94 92.42 80.59"/><polygon class="cls-27" points="91.35 79.97 90.51 79.48 89.9 79.83 90.74 80.32 91.35 79.97"/><polygon class="cls-27" points="92.48 78.57 91.63 78.08 91.02 78.43 91.87 78.92 92.48 78.57"/><polygon class="cls-27" points="91.59 79.08 90.74 78.59 90.13 78.95 90.98 79.44 91.59 79.08"/><polygon class="cls-27" points="91.42 77.96 90.57 77.47 89.96 77.82 90.81 78.31 91.42 77.96"/><polygon class="cls-27" points="90.53 78.47 89.68 77.98 89.07 78.33 89.92 78.82 90.53 78.47"/><polygon class="cls-27" points="95.65 78.36 94.8 77.87 94.19 78.22 95.04 78.71 95.65 78.36"/><polygon class="cls-27" points="94.76 78.87 93.92 78.38 93.31 78.73 94.15 79.22 94.76 78.87"/><polygon class="cls-27" points="94.57 77.73 93.72 77.24 93.11 77.59 93.96 78.08 94.57 77.73"/><polygon class="cls-27" points="93.68 78.24 92.83 77.75 92.22 78.1 93.07 78.59 93.68 78.24"/><polygon class="cls-27" points="93.5 77.12 92.66 76.63 92.05 76.98 92.89 77.47 93.5 77.12"/><polygon class="cls-27" points="92.62 77.63 91.77 77.14 91.16 77.49 92.01 77.98 92.62 77.63"/><polygon class="cls-27" points="92.43 76.5 91.58 76.01 90.97 76.36 91.82 76.85 92.43 76.5"/><polygon class="cls-27" points="91.55 77.01 90.7 76.52 90.09 76.87 90.94 77.36 91.55 77.01"/><polygon class="cls-27" points="97.61 84.61 96.76 84.12 96.15 84.47 97 84.96 97.61 84.61"/><polygon class="cls-27" points="96.54 83.99 95.69 83.5 95.08 83.85 95.93 84.34 96.54 83.99"/><polygon class="cls-27" points="90.98 80.78 90.13 80.29 89.52 80.64 90.37 81.13 90.98 80.78"/><polygon class="cls-27" points="89.92 80.17 89.07 79.68 88.46 80.03 89.31 80.52 89.92 80.17"/><polygon class="cls-27" points="88.85 79.55 88 79.06 87.39 79.41 88.24 79.9 88.85 79.55"/><polygon class="cls-27" points="87.8 78.94 87.15 78.57 86.54 78.92 87.19 79.29 87.8 78.94"/><polygon class="cls-27" points="95.47 83.37 91.19 80.9 90.58 81.25 94.86 83.72 95.47 83.37"/><polygon class="cls-28" points="102.66 84.61 103.87 83.91 103.87 83.53 102.66 84.22 102.66 84.61"/><polygon class="cls-30" points="101.27 85.42 102.47 84.72 102.47 84.33 101.27 85.03 101.27 85.42"/><polygon class="cls-8" points="81.28 66.46 68.47 73.47 76.62 78.19 89.43 71.16 81.28 66.46"/><polygon class="cls-14" points="81.69 128.51 80.21 127.66 94.46 119.43 95.94 120.28 81.69 128.51"/><polygon class="cls-12" points="95.94 120.28 95.94 121.67 81.69 129.9 81.69 128.51 95.94 120.28"/><polygon class="cls-13" points="80.21 127.66 80.21 129.04 81.69 129.9 81.69 128.51 80.21 127.66"/><polygon class="cls-13" points="88.08 124.84 86.67 123.93 86.67 112.22 88.08 112.22 88.08 124.84"/><polygon class="cls-12" points="88.08 124.84 89.48 124.01 89.48 112.22 88.08 112.22 88.08 124.84"/><polygon class="cls-14" points="65.22 118.7 63.74 117.85 77.99 109.62 79.47 110.47 65.22 118.7"/><polygon class="cls-12" points="79.47 110.47 79.47 111.86 65.22 120.09 65.22 118.7 79.47 110.47"/><polygon class="cls-13" points="63.74 117.85 63.74 119.23 65.22 120.09 65.22 118.7 63.74 117.85"/><polygon class="cls-13" points="71.61 115.03 70.2 114.12 70.2 102.41 71.61 102.41 71.61 115.03"/><polygon class="cls-12" points="71.61 115.03 73.01 114.2 73.01 102.41 71.61 102.41 71.61 115.03"/><path class="cls-22" d="M78.77,115.28l-13.9-8c-1.68-1-1.47-2.68.47-3.8l7.44-4.29a7.34,7.34,0,0,1,6.58-.28l13.9,8c1.68,1,1.47,2.68-.47,3.8L85.35,115A7.34,7.34,0,0,1,78.77,115.28Z"/><polygon class="cls-22" points="63.74 103.55 63.74 105.74 66.28 106.25 66.44 103.55 63.74 103.55"/><polygon class="cls-22" points="94.39 106.56 94.39 108.75 91.31 108.75 91.21 107.08 94.39 106.56"/><path class="cls-24" d="M78.77,113.09l-13.9-8c-1.68-1-1.47-2.68.47-3.8L72.78,97a7.34,7.34,0,0,1,6.58-.27l13.9,8c1.68,1,1.47,2.68-.47,3.8l-7.44,4.3A7.34,7.34,0,0,1,78.77,113.09Z"/><path class="cls-19" d="M73.38,75.85c-1.07-.52-2-2.39-4.07-.43-1.74,1.63-2.62,6,.2,8.41S73.38,75.85,73.38,75.85Z"/><path class="cls-26" d="M77.17,63.68c.49.34,2.3.76,2.83,4.8.36,2.71-.54,3.92-1.31,4.62a3.83,3.83,0,0,1-1.58.35l.06,3a5.13,5.13,0,0,1-3.47,0l-1.7-.7a6,6,0,0,0,.55-3.13c-.14-2.45-1-6-.39-7.25A3.51,3.51,0,0,1,77.17,63.68Z"/><path class="cls-3" d="M71.94,106.31c1.37.77,3.48,2.17,8.33,1.44a34.84,34.84,0,0,0,12-4.74c1.46-5.56-6.69-12-12.22-10.46-4.13,1.15-4,5.7-4,5.7s-6.3-3.21-7.22-.46C67.11,102.81,69.47,104.94,71.94,106.31Z"/><path class="cls-20" d="M68.29,97.94c.84,2.37,4.63,3.26,6.82,3.22,2.94,0,7.16-1.22,6.64-6.23-.28-.74-2-5.2,0-9.57,1-2.15-1.27-6-1.91-7.43a5.8,5.8,0,0,0-2.68-2.24l-5.22-.62s-3.13,1-3.13,5.71a68.86,68.86,0,0,0,.91,8.6c.13,1,.48,3.33-1.19,7.61A5.65,5.65,0,0,0,68.29,97.94Z"/><path class="cls-19" d="M71.52,75.44s.26.85,2,1.4a6.25,6.25,0,0,0,5-.39c0-1.12-1.35-1.62-1.35-1.62a5,5,0,0,1-3.3,0l-1.74-.62Z"/><path class="cls-3" d="M74.07,62.39c-2.3.49-4.72,1.94-3.87,6.85a7.73,7.73,0,0,0,1.94,3.28,3.32,3.32,0,0,1,1.1,1.62c1.85-.22,3.6-3.13,4.61-4.19s2.15-1.47,2.28-2.86C80.4,64.25,78.4,61.48,74.07,62.39Z"/><path class="cls-26" d="M79.37,77.94c-1-.1-2,1.72-1.94,4,.13,2.91,6.29,9.72,6.29,9.72,2,1.21,8.08-2.53,9.55-2.7a7.6,7.6,0,0,0,4.14-2.43c.74-.93-2.09-2.2-3.49-1.3-1.06.67-.79,1.52-1.63,1.64a58.73,58.73,0,0,0-7.23,1.59S81.28,78.12,79.37,77.94Z"/><path class="cls-26" d="M78.94,69.07s-1.06-1.81-1.52,0a1.85,1.85,0,0,0,1,2.26Z"/><path class="cls-19" d="M78.49,77.47s-1.18.67-1.29,3.5,1.29,4.89,2.88,7.65a29.91,29.91,0,0,0,3.71,3.93s3.18-.68,2.64-3.42-2.3-4-3.55-7.19S80.37,76.75,78.49,77.47Z"/><path class="cls-3" d="M75.09,62.28a6.57,6.57,0,0,0-5.42,3.38,8.59,8.59,0,0,0-1.2,6.73c.34,3-2,1.53-2,3.69,0,1.1.74,2-.07,3.53-.93,1.79,1.32,2,.45,3.21-1.13,1.54.64,2.92,2,4.33s2,3.56,3.13,4,3.39-3.25,4.84-4.17,3.09-1.23,1.71-3.78c-.95-1.77,1.24-2.41.75-3.83-1.1-3.2.67-3.72-.3-5.73s-.8-2.53.79-5.5C81.15,65.52,75.09,62.28,75.09,62.28Z"/><path class="cls-21" d="M81,98.52c0-4.44-2.72-9.65-6.06-11.58l-6.84-4c-3.34-1.92-6.06.14-6.06,4.58V99.22l19,11Z"/><polygon class="cls-21" points="62.52 83.7 64.29 82.58 65.1 85.55 62.78 86.16 62.52 83.7"/><polygon class="cls-21" points="80.95 110.19 79.15 111.34 77.77 108.79 79.86 107.55 80.95 110.19"/><path class="cls-22" d="M79.15,99.67c0-4.45-2.73-9.66-6.06-11.58l-6.85-4c-3.33-1.92-6.06.14-6.06,4.59v11.64l19,11Z"/><path class="cls-12" d="M75.37,114.68a3.27,3.27,0,0,1-1.88-.54c-2-1.36-2-4.92-2-6.64v-5.21c0-2.17,1-1.76,1,0v5.17c0,1.54,0,4.73,1.58,5.79a2.6,2.6,0,0,0,1.82.32c.32.14.85.5,1.32.74A5.82,5.82,0,0,1,75.37,114.68Z"/><path class="cls-12" d="M67.48,110.1a3.27,3.27,0,0,1-1.88-.54c-2-1.36-2-4.93-2-6.64V97.7c0-2.16,1-1.76,1,0v5.17c0,1.54,0,4.73,1.58,5.78A2.54,2.54,0,0,0,68,109c.33.13.85.49,1.32.74A5.82,5.82,0,0,1,67.48,110.1Z"/><path class="cls-23" d="M104.61,85.75l-5.11,3a.26.26,0,0,1-.36-.1h0a.27.27,0,0,1,.09-.36l5.11-3a.25.25,0,0,1,.36.09h0A.26.26,0,0,1,104.61,85.75Z"/><polygon class="cls-32" points="276.17 38.52 274.93 39.27 292.7 49.66 292.7 48.09 276.17 38.52"/><polygon class="cls-33" points="274.32 40.36 291.96 50.48 291.96 49.06 273.7 38.52 274.32 40.36"/><polygon class="cls-34" points="293.16 40.82 293.16 62.48 294.39 61.76 294.39 40.98 293.16 40.82"/><polygon class="cls-33" points="291.93 40.98 291.93 61.76 293.16 62.48 293.16 40.82 291.93 40.98"/><polygon class="cls-32" points="293.16 41.69 291.93 40.98 293.16 40.26 294.39 40.98 293.16 41.69"/><polygon class="cls-34" points="258.4 41.8 258.4 63.45 259.63 62.74 259.63 41.96 258.4 41.8"/><polygon class="cls-33" points="257.17 41.96 257.17 62.74 258.4 63.45 258.4 41.8 257.17 41.96"/><polygon class="cls-32" points="258.4 42.67 257.17 41.96 258.4 41.24 259.63 41.96 258.4 42.67"/><polygon class="cls-34" points="277.74 7.62 276.5 8.33 276.5 53.3 277.74 52.59 277.74 7.62"/><polygon class="cls-33" points="275.27 7.62 276.5 8.33 276.5 53.3 275.27 52.59 275.27 7.62"/><polygon class="cls-32" points="276.5 8.33 275.27 7.62 276.5 6.89 277.74 7.62 276.5 8.33"/><polygon class="cls-34" points="259.2 50.05 259.2 51.47 275.83 41.93 275.83 40.45 259.2 50.05"/><polygon class="cls-32" points="259.63 49.91 275.58 40.61 274.35 39.86 259.63 48.35 259.63 49.91"/><polygon class="cls-32" points="292.56 18.53 277.76 9.96 276.53 10.71 292.56 20.09 292.56 18.53"/><polygon class="cls-33" points="292.56 19.88 275.91 10.27 275.91 17.05 292.56 26.61 292.56 19.88"/><polygon class="cls-34" points="294.39 17.15 293.16 17.86 293.16 62.84 294.39 62.12 294.39 17.15"/><polygon class="cls-33" points="291.93 17.15 293.16 17.86 293.16 62.84 291.93 62.12 291.93 17.15"/><polygon class="cls-32" points="293.16 17.86 291.93 17.15 293.16 16.43 294.39 17.15 293.16 17.86"/><polygon class="cls-20" points="257.17 41.95 274.93 52.34 293.16 41.57 277.7 31.42 276.5 32.13 275.27 31.44 257.17 41.95"/><polygon class="cls-34" points="293.41 42.91 275.77 53.03 275.77 51.61 293.41 41.42 293.41 42.91"/><polygon class="cls-32" points="258.4 41.2 257.17 41.95 274.93 52.34 274.93 50.77 258.4 41.2"/><polygon class="cls-32" points="277.74 31.38 276.5 32.13 291.93 41.16 291.93 39.53 277.74 31.38"/><polygon class="cls-32" points="291.93 40.76 293.16 41.57 274.93 52.21 274.93 50.64 291.93 40.76"/><polygon class="cls-34" points="293.41 51.12 275.77 61.24 275.77 59.81 293.41 49.63 293.41 51.12"/><polygon class="cls-32" points="291.93 49.04 293.16 49.8 274.93 60.42 274.93 58.85 291.93 49.04"/><polygon class="cls-32" points="275.27 31.44 276.5 32.13 259.25 42.22 258.29 41.26 275.27 31.44"/><polygon class="cls-33" points="257.87 43.79 274.19 53.16 274.19 51.74 257.64 42.22 257.87 43.79"/><polygon class="cls-32" points="259.63 49.91 258.4 50.66 274.93 60.35 274.93 58.77 259.63 49.91"/><polygon class="cls-33" points="258.05 51.9 274.19 61.17 274.19 59.74 258.05 50.42 258.05 51.9"/><path class="cls-20" d="M259.71,42s-.1-.78,2.09-2.09c2.67-1.61,12.58-7.3,13.47-7.85s1.42-.56,2.75.25,10.73,6.25,12.24,7.26a5.25,5.25,0,0,1,1.48,1.53Z"/><path class="cls-19" d="M259.71,42l15.22,8.82,16.81-9.72a3.73,3.73,0,0,0-.41-.56,4.86,4.86,0,0,0-.49-.51s-12.65,7.43-13.94,8.16a3.41,3.41,0,0,1-4,0c-1.8-1-12.64-7.1-12.64-7.1a1.87,1.87,0,0,0-.45.58C259.69,41.86,259.71,42,259.71,42Z"/><polygon class="cls-34" points="274.93 51.43 274.93 72.87 276.17 72.16 276.17 51.48 274.93 51.43"/><polygon class="cls-33" points="273.7 51.48 273.7 72.16 274.93 72.87 274.93 51.43 273.7 51.48"/><polygon class="cls-32" points="274.93 52.19 273.66 51.43 274.93 50.76 276.28 51.43 274.93 52.19"/><path class="cls-19" d="M291.92,20.09v5.48a4,4,0,0,1-1.17-3.22C290.9,20.29,291.92,20.09,291.92,20.09Z"/><path class="cls-20" d="M276.5,11.39l15.42,8.7a9.13,9.13,0,0,0-.48,2.68,9.23,9.23,0,0,0,.48,2.8L276.5,16.63a4.43,4.43,0,0,1-.58-2.55A5.24,5.24,0,0,1,276.5,11.39Z"/><path class="cls-24" d="M272,20.45s-.69-3.7,1.64-5.54,3.19-.5,3.19-.5Z"/><path class="cls-35" d="M264,45.19s-3.67,3.07-3.41,6.32c.15,1.77-.07,2.56.22,4.76s.4,10.35.29,13.08-1.92,5.19-2.59,6.14,1.23,2.59,2.8,1.23,1.75-1.64,2.62-2,1.59-2.32,1-4.5,0-6.41.87-10.1a29.66,29.66,0,0,0,.44-7c0-1.36,5-5.71,5.18-6.14C271.87,45.87,264,45.19,264,45.19Z"/><path class="cls-36" d="M258.46,75.49a27.29,27.29,0,0,0-2.58,2.17c-.65.73,1.21,1.93,3.06,1.38s3.43-2.19,4.94-3.41,1.89-1.63,1.89-3.09a2.84,2.84,0,0,0-.71-1.51s-.59,2.93-2.73,4.06S259.47,76.32,258.46,75.49Z"/><path class="cls-26" d="M267.17,50a5.23,5.23,0,0,0-1.4,4.5,24.09,24.09,0,0,1,.62,4.92c0,2.09.4,10.71.29,13.44S264.76,78,264.09,79s1.23,2.59,2.8,1.23,1.75-1.64,2.62-2,1.59-2.32,1-4.5,0-6.41.86-10.1-.25-8.64.51-9.56c1.54-1.84,4.76-3.44,4.87-5.31.13-2.32-2.18-6.15-4.48-5.11C271.52,43.92,270,47.1,267.17,50Z"/><path class="cls-36" d="M264.09,79a27.29,27.29,0,0,0-2.58,2.17c-.66.73,1.21,1.93,3.06,1.38s3.43-2.19,4.94-3.41,1.88-1.63,1.88-3.09a2.85,2.85,0,0,0-.7-1.51s-.59,2.93-2.73,4.06S265.1,79.8,264.09,79Z"/><path class="cls-37" d="M283.77,36.48s1.69,5.4-.36,9.09c-1.69,3-10.49,7.54-10.49,7.54a9.11,9.11,0,0,0-5.27-5.4,45.11,45.11,0,0,0-4.85-1.38l9.1-11.58A9.15,9.15,0,0,0,283.77,36.48Z"/><path class="cls-21" d="M287.25,21.05c-.29-1.41-4.42-4.55-4.42-4.55l-3.35,2.41c-.84.59-2.1-.12-1.16-2.36a8.53,8.53,0,0,0,0-2.81s-.33-.1-.81-.21c-.76.76-2.29,2.83-3.11,3.68s-3.82,3.34-3.14,6.14a22.71,22.71,0,0,0,.85,2.59,12.46,12.46,0,0,1,.18,4.51,29.74,29.74,0,0,1-1.57,4.86s2.93,3.75,6.27,3.76a11.08,11.08,0,0,0,6.78-2.59,62.54,62.54,0,0,1-.4-8.35S288.18,25.72,287.25,21.05Z"/><polygon class="cls-6" points="215.45 66.78 239.65 52.7 239.65 18.2 215.45 32.28 215.45 66.78"/><polygon class="cls-3" points="215.45 66.78 213.84 65.85 213.84 31.35 215.45 32.28 215.45 66.78"/><polygon class="cls-37" points="238.56 53.31 240.18 52.38 240.18 17.88 238.56 18.81 238.56 53.31"/><polygon class="cls-5" points="215.45 57.63 279.34 94.57 279.34 73.11 215.45 35.92 215.45 57.63"/><polygon class="cls-5" points="280.96 104.82 306.15 90.36 306.15 55.86 280.96 70.32 280.96 104.82"/><polygon class="cls-3" points="280.96 104.82 279.34 103.89 279.34 69.39 280.96 70.32 280.96 104.82"/><polygon class="cls-5" points="305.34 90.83 306.95 89.9 306.95 55.4 305.34 56.33 305.34 90.83"/><polygon class="cls-3" points="281.01 74.86 208.3 32.69 208.3 30.96 281.01 73.14 281.01 74.86"/><polygon class="cls-6" points="281.01 73.14 311.16 55.72 311.16 57.34 281.01 74.75 281.01 73.14"/><polygon class="cls-7" points="208.3 30.96 238.44 13.52 311.16 55.72 281.01 73.14 208.3 30.96"/><polygon class="cls-8" points="274.18 39.24 259.68 30.85 254.31 33.94 268.84 42.33 274.18 39.24"/><polygon class="cls-38" points="268.84 43.09 274.18 39.99 274.18 39.24 268.84 42.33 268.84 43.09"/><polygon class="cls-39" points="268.84 42.33 268.84 43.09 254.31 34.66 254.31 33.94 268.84 42.33"/><polygon class="cls-40" points="266.95 41.25 266.68 41.09 272.03 38 272.31 38.16 266.95 41.25"/><polygon class="cls-40" points="264.84 40.03 264.57 39.87 269.92 36.78 270.19 36.93 264.84 40.03"/><polygon class="cls-40" points="262.73 38.8 262.45 38.65 267.8 35.56 268.08 35.71 262.73 38.8"/><polygon class="cls-40" points="260.63 37.59 260.36 37.43 265.71 34.34 265.98 34.49 260.63 37.59"/><polygon class="cls-40" points="273.15 39.84 273.42 39.68 258.89 31.29 258.62 31.44 273.15 39.84"/><polygon class="cls-40" points="272.09 40.48 272.36 40.33 257.82 31.92 257.54 32.08 272.09 40.48"/><polygon class="cls-40" points="270.99 41.09 271.26 40.94 256.74 32.54 256.46 32.7 270.99 41.09"/><polygon class="cls-40" points="269.9 41.75 270.19 41.61 255.62 33.19 255.34 33.34 269.9 41.75"/><polygon class="cls-40" points="258.57 36.39 258.3 36.23 263.65 33.14 263.92 33.3 258.57 36.39"/><polygon class="cls-40" points="256.53 35.21 256.26 35.06 261.61 31.96 261.88 32.12 256.53 35.21"/><path class="cls-8" d="M280.74,44.4l-3-1.71h0a.71.71,0,0,0-.38-.12c-2.15,0-4.54,3.82-4.54,3.82l3,1.74,5-3.36Z"/><path class="cls-38" d="M275.86,48.13,281.25,45s-.28-.7-.85-.7C278.25,44.31,275.86,48.13,275.86,48.13Z"/><path class="cls-38" d="M274,47.06l.31.18a15.91,15.91,0,0,1,1-1.39l-.32-.18A14.51,14.51,0,0,0,274,47.06Z"/><path class="cls-26" d="M283.82,21.49c-1.42,1.85-2.28,7.4-2.81,8.87a6.18,6.18,0,0,1-2.64,3,32.58,32.58,0,0,1-5,1.82,17.47,17.47,0,0,1-3.75.53,5.92,5.92,0,0,0-5,.39c-1.12.65-1.23,1.76,1.66,1.93s5,.27,6.66.22a32.9,32.9,0,0,0,6.8-1,6.65,6.65,0,0,0,4.54-3.68,30.36,30.36,0,0,0,3.52-10.17C288.15,20.46,287.14,17.15,283.82,21.49Z"/><path class="cls-35" d="M278.06,14.05a14.88,14.88,0,0,1-.58,3.66c-1,2.4,1.49,2.1,2.26,1.43.94-.81,3.39-2.39,3.39-2.39l-1.82-7.12Z"/><path class="cls-26" d="M280.92,5.59a4.26,4.26,0,0,0-6.66,2.27c-1.43,4,2.23,9.09,4.18,8.23a8.22,8.22,0,0,0,4-4.31C283.2,9.38,282.15,6.52,280.92,5.59Z"/><path class="cls-26" d="M272.14,17.38s-4.71,4.51-5.56,5.44a40,40,0,0,0-2.66,3.72,28,28,0,0,0-2.28,4.24c-.34,1.07-1.08,3.09-.6,4s2.48,2.06,3.22,0c.37-1,.08-3.25.24-3.55a47.9,47.9,0,0,1,3.44-4.49c.59-.66,3.32-3.42,3.32-3.42a3.83,3.83,0,0,1,.66-3.27A11.46,11.46,0,0,1,272.14,17.38Z"/><polygon class="cls-41" points="284.07 55.3 273.56 61.38 281.11 65.72 291.65 59.64 284.07 55.3"/><polygon class="cls-42" points="278.88 59.08 275.05 61.31 281.11 64.78 284.97 62.56 278.88 59.08"/><polygon class="cls-43" points="280.41 58.2 279.83 58.55 285.89 62.02 286.5 61.69 280.41 58.2"/><polygon class="cls-43" points="281.66 57.48 281.08 57.83 287.14 61.3 287.74 60.96 281.66 57.48"/><polygon class="cls-42" points="281.11 65.72 281.11 68.05 291.65 61.98 291.65 59.64 281.11 65.72"/><polygon class="cls-44" points="273.56 61.38 273.56 61.93 280.68 66.01 280.68 67.34 273.56 63.26 273.56 63.72 281.11 68.05 281.11 65.72 273.56 61.38"/><polygon class="cls-8" points="280.68 66.01 273.56 61.93 273.56 63.26 280.68 67.34 280.68 66.01"/><polygon class="cls-20" points="287.71 53.65 277.2 59.74 284.75 64.07 295.29 58 287.71 53.65"/><polygon class="cls-19" points="285.13 55.98 278.69 59.67 284.75 63.14 291.21 59.46 285.13 55.98"/><polygon class="cls-19" points="286.5 55.2 285.92 55.54 291.98 59.01 292.58 58.68 286.5 55.2"/><polygon class="cls-19" points="287.74 54.47 287.16 54.82 293.23 58.29 293.83 57.95 287.74 54.47"/><polygon class="cls-19" points="284.75 64.07 284.75 66.41 295.29 60.34 295.29 58 284.75 64.07"/><polygon class="cls-20" points="277.2 59.74 277.2 60.29 284.32 64.37 284.32 65.7 277.2 61.62 277.2 62.08 284.75 66.41 284.75 64.07 277.2 59.74"/><polygon class="cls-8" points="284.32 64.37 277.2 60.29 277.2 61.62 284.32 65.7 284.32 64.37"/><polygon class="cls-10" points="285.16 50 274.64 56.09 282.2 60.42 292.74 54.35 285.16 50"/><polygon class="cls-9" points="279.97 53.78 276.14 56.02 282.2 59.49 286.06 57.27 279.97 53.78"/><polygon class="cls-9" points="281.49 52.91 280.91 53.26 286.98 56.73 287.58 56.39 281.49 52.91"/><polygon class="cls-9" points="282.74 52.18 282.16 52.53 288.22 56 288.83 55.67 282.74 52.18"/><polygon class="cls-9" points="282.2 60.42 282.2 62.76 292.74 56.68 292.74 54.35 282.2 60.42"/><polygon class="cls-10" points="274.64 56.09 274.64 56.63 281.76 60.72 281.76 62.04 274.64 57.96 274.64 58.42 282.2 62.76 282.2 60.42 274.64 56.09"/><polygon class="cls-8" points="281.76 60.72 274.64 56.63 274.64 57.96 281.76 62.04 281.76 60.72"/><polygon class="cls-8" points="230.38 23.86 217.43 31.36 226.17 36.42 239.12 28.9 230.38 23.86"/><polygon class="cls-45" points="225.19 28.06 219.18 31.57 226.02 35.48 232.04 31.97 225.19 28.06"/><polygon class="cls-43" points="226.17 27.49 225.89 27.65 232.73 31.57 233.01 31.41 226.17 27.49"/><polygon class="cls-43" points="226.81 27.12 226.52 27.28 233.37 31.2 233.65 31.04 226.81 27.12"/><polygon class="cls-43" points="227.48 26.73 227.2 26.9 234.04 30.82 234.32 30.65 227.48 26.73"/><polygon class="cls-43" points="228.13 26.36 227.84 26.52 234.69 30.44 234.97 30.28 228.13 26.36"/><polygon class="cls-43" points="228.76 25.99 228.48 26.15 235.33 30.07 235.61 29.91 228.76 25.99"/><polygon class="cls-43" points="229.44 25.6 229.15 25.77 236 29.69 236.28 29.52 229.44 25.6"/><polygon class="cls-45" points="230.82 24.8 229.82 25.37 236.66 29.29 237.66 28.71 230.82 24.8"/><polygon class="cls-40" points="217.43 31.36 217.43 32 226.17 37.06 226.17 36.42 217.43 31.36"/><polygon class="cls-40" points="239.11 28.91 226.17 36.42 226.17 37.06 239.11 29.54 239.11 28.91"/><polygon class="cls-8" points="230.38 22.69 217.43 30.2 226.17 35.26 239.12 27.73 230.38 22.69"/><polygon class="cls-45" points="225.19 26.89 219.18 30.4 226.02 34.32 232.04 30.81 225.19 26.89"/><polygon class="cls-43" points="226.17 26.32 225.89 26.48 232.73 30.4 233.01 30.24 226.17 26.32"/><polygon class="cls-43" points="226.81 25.95 226.52 26.12 233.37 30.04 233.65 29.87 226.81 25.95"/><polygon class="cls-43" points="227.48 25.57 227.2 25.73 234.04 29.65 234.32 29.48 227.48 25.57"/><polygon class="cls-43" points="228.13 25.19 227.84 25.36 234.69 29.27 234.97 29.11 228.13 25.19"/><polygon class="cls-43" points="228.76 24.82 228.48 24.99 235.33 28.91 235.61 28.74 228.76 24.82"/><polygon class="cls-43" points="229.44 24.43 229.15 24.6 236 28.52 236.28 28.35 229.44 24.43"/><polygon class="cls-45" points="230.82 23.63 229.82 24.2 236.66 28.12 237.66 27.55 230.82 23.63"/><polygon class="cls-40" points="217.43 30.2 217.43 30.83 226.17 35.89 226.17 35.26 217.43 30.2"/><polygon class="cls-40" points="239.11 27.74 226.17 35.26 226.17 35.89 239.11 28.37 239.11 27.74"/><polygon class="cls-8" points="230.38 21.53 217.43 29.03 226.17 34.09 239.12 26.57 230.38 21.53"/><polygon class="cls-45" points="225.19 25.72 219.18 29.23 226.02 33.15 232.04 29.64 225.19 25.72"/><polygon class="cls-43" points="226.17 25.16 225.89 25.32 232.73 29.23 233.01 29.07 226.17 25.16"/><polygon class="cls-43" points="226.81 24.79 226.52 24.95 233.37 28.87 233.65 28.7 226.81 24.79"/><polygon class="cls-43" points="227.48 24.4 227.2 24.56 234.04 28.48 234.32 28.32 227.48 24.4"/><polygon class="cls-43" points="228.13 24.03 227.84 24.19 234.69 28.11 234.97 27.94 228.13 24.03"/><polygon class="cls-43" points="228.76 23.66 228.48 23.82 235.33 27.74 235.61 27.57 228.76 23.66"/><polygon class="cls-43" points="229.44 23.27 229.15 23.43 236 27.35 236.28 27.19 229.44 23.27"/><polygon class="cls-45" points="230.82 22.46 229.82 23.04 236.66 26.96 237.66 26.38 230.82 22.46"/><polygon class="cls-40" points="217.43 29.03 217.43 29.66 226.17 34.72 226.17 34.09 217.43 29.03"/><polygon class="cls-40" points="239.11 26.57 226.17 34.09 226.17 34.72 239.11 27.21 239.11 26.57"/><polygon class="cls-8" points="230.38 20.36 217.43 27.86 226.17 32.92 239.12 25.4 230.38 20.36"/><polygon class="cls-45" points="225.19 24.55 219.18 28.07 226.02 31.98 232.04 28.47 225.19 24.55"/><polygon class="cls-43" points="226.17 23.99 225.89 24.15 232.73 28.07 233.01 27.91 226.17 23.99"/><polygon class="cls-43" points="226.81 23.62 226.52 23.78 233.37 27.7 233.65 27.54 226.81 23.62"/><polygon class="cls-43" points="227.48 23.23 227.2 23.4 234.04 27.32 234.32 27.15 227.48 23.23"/><polygon class="cls-43" points="228.13 22.86 227.84 23.02 234.69 26.94 234.97 26.78 228.13 22.86"/><polygon class="cls-43" points="228.76 22.49 228.48 22.65 235.33 26.57 235.61 26.41 228.76 22.49"/><polygon class="cls-43" points="229.44 22.1 229.15 22.27 236 26.19 236.28 26.02 229.44 22.1"/><polygon class="cls-45" points="230.82 21.3 229.82 21.87 236.66 25.79 237.66 25.21 230.82 21.3"/><polygon class="cls-40" points="217.43 27.86 217.43 28.5 226.17 33.55 226.17 32.92 217.43 27.86"/><polygon class="cls-40" points="239.11 25.41 226.17 32.92 226.17 33.55 239.11 26.04 239.11 25.41"/><polygon class="cls-8" points="230.38 19.19 217.43 26.7 226.17 31.75 239.12 24.23 230.38 19.19"/><polygon class="cls-45" points="225.19 23.39 219.18 26.9 226.02 30.82 232.04 27.31 225.19 23.39"/><polygon class="cls-6" points="226.17 22.82 225.89 22.98 232.73 26.9 233.01 26.74 226.17 22.82"/><polygon class="cls-6" points="226.81 22.45 226.52 22.62 233.37 26.54 233.65 26.37 226.81 22.45"/><polygon class="cls-6" points="227.48 22.07 227.2 22.23 234.04 26.15 234.32 25.98 227.48 22.07"/><polygon class="cls-6" points="228.13 21.69 227.84 21.86 234.69 25.77 234.97 25.61 228.13 21.69"/><polygon class="cls-6" points="228.76 21.32 228.48 21.49 235.33 25.41 235.61 25.24 228.76 21.32"/><polygon class="cls-6" points="229.44 20.93 229.15 21.1 236 25.02 236.28 24.85 229.44 20.93"/><polygon class="cls-45" points="230.82 20.13 229.82 20.7 236.66 24.62 237.66 24.05 230.82 20.13"/><polygon class="cls-40" points="217.43 26.7 217.43 27.33 226.17 32.39 226.17 31.75 217.43 26.7"/><polygon class="cls-40" points="239.11 24.24 226.17 31.75 226.17 32.39 239.11 24.87 239.11 24.24"/><polygon class="cls-8" points="251 44.04 246.03 41.17 244.18 44.04 247.09 46.57 251 44.04"/><path class="cls-38" d="M257.14,26.92V41.46A1.41,1.41,0,0,1,255,42.68L237.9,32.8a1.42,1.42,0,0,1-.7-1.22V17a1.41,1.41,0,0,1,2.12-1.22l17.11,9.88A1.41,1.41,0,0,1,257.14,26.92Z"/><polygon class="cls-38" points="256.44 42.68 255.49 43.23 254.39 42.07 256.58 40.73 256.44 42.68"/><polygon class="cls-38" points="237.81 15.87 237 16.34 238.63 16.37 237.81 15.87"/><path class="cls-39" d="M256.22,27.45V42a1.41,1.41,0,0,1-2.11,1.22L237,33.34a1.42,1.42,0,0,1-.71-1.23V17.57a1.41,1.41,0,0,1,2.12-1.22l17.12,9.88A1.42,1.42,0,0,1,256.22,27.45Z"/><polygon class="cls-46" points="242.79 31.95 242.79 44.81 246.71 47.08 246.71 34.23 242.79 31.95"/><polygon class="cls-8" points="242.79 31.95 243.31 31.66 247.22 33.94 246.71 34.23 242.79 31.95"/><polygon class="cls-38" points="247.22 33.94 246.71 34.23 246.71 47.08 247.22 46.79 247.22 33.94"/><polygon class="cls-38" points="247.09 46.87 251 44.59 251 44.04 247.09 46.31 247.09 46.87"/><path class="cls-5" d="M270.26,50.89c-1.19,0-2.15.52-2.15,1.15s1,1.15,2.15,1.15,2.16-.52,2.16-1.15S271.45,50.89,270.26,50.89Z"/><path class="cls-20" d="M269.89,49.57c-.17,0-.31-.08-.31-.17v5.47h.61V49.4C270.19,49.49,270.05,49.57,269.89,49.57Z"/><path class="cls-19" d="M269.58,48.61v.79c0-.09.14-.16.31-.16s.3.07.3.16v-.79Z"/><path class="cls-19" d="M269.89,49.24c-.17,0-.31.07-.31.16s.14.17.31.17.3-.08.3-.17S270.05,49.24,269.89,49.24Z"/><path class="cls-20" d="M270.19,48.61c0,.09-.14.16-.3.16s-.31-.07-.31-.16.14-.16.31-.16S270.19,48.52,270.19,48.61Z"/><path class="cls-8" d="M272.06,50.14c-.17,0-.28-.14-.26-.22l-1.27,5.31.6.14,1.26-5.31C272.37,50.14,272.22,50.18,272.06,50.14Z"/><path class="cls-28" d="M272,49.14l-.18.78c0-.09.17-.13.33-.09s.28.14.26.23l.18-.78Z"/><path class="cls-28" d="M272.13,49.83c-.16,0-.31,0-.33.09s.09.18.26.22.31,0,.33-.08S272.29,49.87,272.13,49.83Z"/><path class="cls-3" d="M272.57,49.28c0,.09-.17.13-.33.09s-.28-.14-.26-.23.17-.12.34-.08S272.59,49.2,272.57,49.28Z"/><path class="cls-8" d="M268.31,50.39c-.16,0-.31,0-.34-.06l1.64,5.21.58-.18-1.64-5.21C268.58,50.23,268.47,50.34,268.31,50.39Z"/><path class="cls-28" d="M267.73,49.57l.24.76c0-.09.08-.2.24-.25s.31,0,.34.07l-.24-.76Z"/><path class="cls-28" d="M268.21,50.08c-.16.05-.27.16-.24.25s.18.11.34.06.27-.16.24-.24S268.37,50,268.21,50.08Z"/><path class="cls-3" d="M268.31,49.39c0,.08-.08.19-.24.24s-.31,0-.34-.06.08-.19.24-.25S268.28,49.3,268.31,49.39Z"/><path class="cls-6" d="M270.26,53.19c-1.19,0-2.15-.52-2.15-1.15v5.67h4.31V52C272.42,52.67,271.45,53.19,270.26,53.19Z"/><path class="cls-6" d="M272.42,57.71c0,.64-1,1.15-2.16,1.15s-2.15-.51-2.15-1.15,1-1.14,2.15-1.14S272.42,57.08,272.42,57.71Z"/><path class="cls-24" d="M281.6,27.48s.17-8.42,4-8.61,2.23,4.47,2.23,4.47.05-2.41-2.53-1.61C283.8,22.19,281.6,27.48,281.6,27.48Z"/><polygon class="cls-3" points="264.34 60.31 249.77 51.9 252.46 50.41 267.03 58.81 264.34 60.31"/><polygon class="cls-6" points="264.41 60.28 249.85 51.87 249.85 47 264.41 55.41 264.41 60.28"/><path class="cls-8" d="M251.65,49.62l-.21-.13c-.06,0-.07,0-.07.08v.17l-.28-.19v-.63l1.45.84v.63l-.28-.14v-.17a.15.15,0,0,0-.08-.16l-.19-.11v1.77l.22.14V52l-.79-.45v-.3l.15.07c.05,0,.08,0,.08-.05Z"/><path class="cls-8" d="M252.68,52.3V52l.09,0s.08,0,.08,0V50.27l-.16-.11v-.31l1.27.73v.62l-.28-.14v-.15a.15.15,0,0,0-.08-.16l-.41-.24v.64l.64.37v.37l-.64-.37v.69l.44.26c.08,0,.08,0,.08-.07v-.19l.28.19v.66Z"/><path class="cls-8" d="M254.74,51.36l-.17-.13v-.3l.63.37.57,2.46h0l.16.1v.32l-.72-.42v-.29l.11.05c.06,0,.08,0,.07-.08l-.06-.26-.65-.37-.08.27.16.11v.31l-.64-.37v-.29l.09,0s.07,0,.09-.06Zm0,1.14.51.3L255,51.6h0Z"/><path class="cls-8" d="M256.93,52.62c-.35-.21-.53,0-.53.59a1.29,1.29,0,0,0,.53,1.23.91.91,0,0,0,.2.08c.05,0,.06,0,.06-.09v-.29l.29.19V55a1,1,0,0,1-.55-.17,1.86,1.86,0,0,1-.87-1.76c0-1,.44-1,.87-.79a2.06,2.06,0,0,1,.52.45v.63l-.29-.14v-.28a.18.18,0,0,0-.05-.16Z"/><path class="cls-8" d="M259,54.88l-.79-.45v.74l.17.11v.31l-.68-.39v-.3l.1.05s.08,0,.08-.06V53.17l-.16-.1v-.32l.67.39v.3l-.09,0c-.05,0-.09,0-.09.07V54l.79.46v-.68l-.16-.1V53.4l.67.39v.3l-.09,0c-.05,0-.08,0-.08.07v1.7l.16.1v.32l-.67-.39v-.3l.09,0c.05,0,.08,0,.08-.07Z"/><path class="cls-8" d="M259.69,56.35v-.3l.09,0s.08,0,.08-.06V54.31l-.16-.1V53.9l1.27.73v.61l-.28-.13V55a.15.15,0,0,0-.08-.16l-.41-.24v.63l.64.37v.38l-.64-.37v.69l.44.26c.07,0,.08,0,.08-.08v-.18l.28.19v.66Z"/><path class="cls-8" d="M261.21,56.93l.09,0s.08,0,.08-.06V55.19l-.16-.1v-.32l.76.44a1.18,1.18,0,0,1,.66,1.07c0,.36-.18.46-.33.45a.87.87,0,0,1,.16.32l.2.7.15.09v.32l-.68-.4v-.3l.08,0c.06,0,.08,0,0-.09l-.13-.44a.39.39,0,0,0-.17-.27l-.26-.15v.64l.18.12v.31l-.68-.39Zm.75-.59c.23.13.34,0,.34-.21a.6.6,0,0,0-.38-.59l-.21-.12v.78Z"/><path class="cls-47" d="M285.05,3.36A3.37,3.37,0,1,1,281.69,0,3.37,3.37,0,0,1,285.05,3.36Z"/><path class="cls-40" d="M273.94,9.63s-1.76-5.53,3.32-6.44c4.91-.87,6.44,2.8,6.16,5.55a9.44,9.44,0,0,1-1.26,4.17s-3.92-2.54-4.9-5A9.88,9.88,0,0,1,273.94,9.63Z"/><path class="cls-26" d="M228.57,47.17a8,8,0,0,0-3.52,1c-.39.26-1,1.2-1.51,1.6a31.28,31.28,0,0,1-3,2.1l.32,3.18,4.72-3.55.79-.74Z"/><path class="cls-6" d="M210.84,111.21c.45,1.08,1.5,1,3.62.22a18.15,18.15,0,0,0,4.76-2.43c1.34-1,1.35-1.12,1.53-1.79.24-.93-1.12-1.46-3.39-.75l-.63.2a1.38,1.38,0,0,1,1,.57c.41.78-.88,1.61-2.24,2.29a3.76,3.76,0,0,1-3.15.37c-.49-.23-1.16-.52-1.48-.66C210.76,110.14,210.57,110.56,210.84,111.21Z"/><path class="cls-26" d="M224.38,111.07a1.39,1.39,0,0,0-1-.58c-1.25.41-1.88.69-1.88.69s.34-5.84.72-10.35c.61-4-4.66-.16-4.63-.46l.5.15c-.12,3.06-.7,7.46-.49,9.88a11.19,11.19,0,0,1-.06,2.66l1.49.66a3.76,3.76,0,0,0,3.15-.37C223.5,112.67,224.79,111.84,224.38,111.07Z"/><path class="cls-26" d="M217.77,107.23a1.38,1.38,0,0,0-1-.57c-1.25.41-1.88.69-1.88.69s.15-4.36.37-7.73c.18-2.8-4.7-5.48-4.52-3.2.15,1.93.08,8.13.25,10.14a10.88,10.88,0,0,1,0,2.67c.32.14,1,.43,1.48.66a3.76,3.76,0,0,0,3.15-.37C216.89,108.84,218.18,108,217.77,107.23Z"/><path class="cls-6" d="M217.45,115c.45,1.08,1.5,1,3.61.22a18.08,18.08,0,0,0,4.77-2.43c1.33-1,1.35-1.12,1.52-1.78.25-.94-1.12-1.46-3.39-.76l-.62.2a1.39,1.39,0,0,1,1,.58c.41.77-.88,1.6-2.24,2.28a3.76,3.76,0,0,1-3.15.37l-1.49-.66C217.37,114,217.17,114.39,217.45,115Z"/><path class="cls-22" d="M210.21,106.82c1.87,1.24,3.82.67,5.53-.87.21-5.64-1-20,0-22.42,2.18,8.66,1.57,23.3,1.21,26.44,1.75,1.61,5,.18,5.39,0,0-3.64,2.28-22.77.37-38.88a26.05,26.05,0,0,0-1.48-5.26l-10-.62A14.6,14.6,0,0,0,208.57,72a26.18,26.18,0,0,0,.3,7.38C209.07,81,210.15,105.43,210.21,106.82Z"/><path class="cls-26" d="M217.17,33.52c.56.39,2.66.87,3.24,5.48.52,4.09-.38,5.16-1.21,5.5a9.69,9.69,0,0,1-2.09.19l.06,3.45a5.87,5.87,0,0,1-4,0l-1.94-.8a6.81,6.81,0,0,0,.63-3.57c-.15-2.81-1.15-6.81-.44-8.3A4,4,0,0,1,217.17,33.52Z"/><path class="cls-15" d="M209.94,66.81c.92,1.1,4.53,2,6,2.21a6,6,0,0,0,5.58-2.33,16,16,0,0,1-.17-8.25s1-4.23-.37-7-2.46-3.71-3.79-4.16-6.41-.36-6.41-.36a8.77,8.77,0,0,0-2,7.37C210.17,60.47,210.36,63.08,209.94,66.81Z"/><path class="cls-11" d="M212,47.64s1.5,1.86,3.49,1.33,3.08-1,3.08-1A1.83,1.83,0,0,0,217,46.88a33.55,33.55,0,0,1-4.6-.94Z"/><path class="cls-19" d="M220.56,37.42c-.15,1.58-1.45,2-2.61,3.26a22,22,0,0,1-4.3,4.17c-.92.66-.69,5.78-2.45,9.41-1.88,3.87-.79,4.57-.79,4.57s-5.36-1.73-3.17-7.71c.8-2.18,3.85-4,4-6.27,0-1.05-1.37-2.12-1.83-4.12-1.42-6.31,1.5-8.1,4.26-8.68C218.58,31,220.86,34.16,220.56,37.42Z"/><polygon class="cls-38" points="232.39 43.01 240.26 47.85 232.4 59.73 224.53 54.88 232.39 43.01"/><polygon class="cls-46" points="231.84 42.29 239.7 47.13 231.84 59.01 223.97 54.17 231.84 42.29"/><polygon class="cls-8" points="231.61 41.45 239.47 46.29 231.61 58.17 223.75 53.33 231.61 41.45"/><polygon class="cls-6" points="230.2 45.33 236.26 49.13 236 49.55 229.94 45.75 230.2 45.33"/><polygon class="cls-6" points="229.52 46.38 235.58 50.17 235.32 50.6 229.26 46.8 229.52 46.38"/><polygon class="cls-6" points="228.79 47.44 234.85 51.24 234.59 51.66 228.53 47.86 228.79 47.44"/><polygon class="cls-6" points="225.55 52.74 231.61 56.53 231.35 56.96 225.29 53.16 225.55 52.74"/><path class="cls-26" d="M219.2,39.69s-1.21-2.08-1.73,0a2.09,2.09,0,0,0,1.19,2.57Z"/><path class="cls-11" d="M210.72,43.64s-.07,1.31.21,1.61a3.16,3.16,0,0,0,2.28.65,2.59,2.59,0,0,0,1.13-1.49A17.46,17.46,0,0,1,210.72,43.64Z"/><path class="cls-26" d="M235.94,54.14a7,7,0,0,1-1.17-.74c-.68-.5-.89-1.28-1.31-1.15s-.46.71-.21,1.89a5.25,5.25,0,0,1,.28,2.12c-.39,1.11-5.73,3.2-6.75,3.9-.89-.21-3.76-10-7.12-10.21a2.49,2.49,0,0,0-3,2.33c-.37,1.94.82,4.34,1.53,5.33,1.21,1.68,2.61,4.4,5,6,2.17,1.42,3.23,1.62,3.91,1.15,2.09-1.46,7.37-4.77,8.55-6.77,2.27-3.83,2-6.43,2-6.43Z"/><path class="cls-26" d="M226.32,49.15s2.3.18,2.25.55c-.08.6-2.15.77-2.88.77C225.16,50.47,226.32,49.15,226.32,49.15Z"/><path class="cls-6" d="M219.66,49.2a5.93,5.93,0,0,0-4.53,4.29,26.06,26.06,0,0,0-.86,8.38l1.68.71s.45-7.7,1.2-9.39c1.41-3.18,4-2.54,4-2.54Z"/><path class="cls-6" d="M216,67.18c.13.27,1.68,2.86,3.25.95s1.18-7.33,1.18-7.33l1.31,1.53s-.17,7.67-3.13,8.37-3.43-1.64-3.43-1.64Z"/><path class="cls-5" d="M206.71,63.5c.88-3.57,3.21-5.42,7.52-3.38s3.32,6.9,3,9.85-2.14,8.46-6.69,7.58C206.36,76.76,204.46,72.74,206.71,63.5Z"/><path class="cls-15" d="M208.57,65.81s-.51,1.58.78,1.92,1.35-1.23,1.35-1.23Z"/><path class="cls-6" d="M207.92,60.8s-1.16,3.85.65,5,4.48,1.36,5.66-.06a19.56,19.56,0,0,0,2.05-3.17A4.87,4.87,0,0,0,214.23,64a4.09,4.09,0,0,1-4.15,1.18C207.73,64.6,207.92,60.8,207.92,60.8Z"/><path class="cls-6" d="M207.06,69.32a8.92,8.92,0,0,0,3.58,1.52,16.61,16.61,0,0,0,3.78.27s-1.54,5.88-5.14,4.42C206,74.19,207.06,69.32,207.06,69.32Z"/></g></g></svg>