<svg xmlns="http://www.w3.org/2000/svg" xmlns:xlink="http://www.w3.org/1999/xlink" viewBox="0 0 1000.96 557.01"><defs><style>.cls-1,.cls-2{fill:none;}.cls-1{clip-rule:evenodd;}.cls-17,.cls-3{fill:#d8e7ff;}.cls-10,.cls-11,.cls-14,.cls-16,.cls-19,.cls-22,.cls-25,.cls-26,.cls-3,.cls-32,.cls-35,.cls-36,.cls-4,.cls-43,.cls-5,.cls-6,.cls-7,.cls-8,.cls-9{fill-rule:evenodd;}.cls-4{fill:#f7cccf;}.cls-15,.cls-5{fill:#1943aa;}.cls-6{fill:#602c2c;}.cls-7{fill:#3380db;}.cls-18,.cls-8{fill:#fff;}.cls-9{fill:#c8c8c9;}.cls-10{fill:#e98385;}.cls-11{fill:#ff89a2;}.cls-12{clip-path:url(#clip-path);}.cls-13{fill:url(#linear-gradient);}.cls-14{fill:#26a0f8;}.cls-16,.cls-27{fill:#76c5fb;}.cls-19{fill:#ffcb73;}.cls-20{clip-path:url(#clip-path-2);}.cls-21{fill:url(#linear-gradient-2);}.cls-22{fill:#ed9c9d;}.cls-23{clip-path:url(#clip-path-3);}.cls-24{fill:url(#linear-gradient-3);}.cls-25{fill:#ffd184;}.cls-26{fill:#ffbc4c;}.cls-28{clip-path:url(#clip-path-4);}.cls-29{fill:url(#linear-gradient-4);}.cls-30{clip-path:url(#clip-path-5);}.cls-31{fill:url(#linear-gradient-5);}.cls-32{fill:#1b42a2;}.cls-33{clip-path:url(#clip-path-6);}.cls-34{fill:url(#linear-gradient-6);}.cls-35{fill:#15378b;}.cls-36{fill:#254fb7;}.cls-37{clip-path:url(#clip-path-7);}.cls-38{fill:url(#linear-gradient-7);}.cls-39{clip-path:url(#clip-path-8);}.cls-40{fill:url(#linear-gradient-8);}.cls-41{clip-path:url(#clip-path-9);}.cls-42{fill:url(#linear-gradient-9);}.cls-43{fill:#1e2187;}.cls-44{clip-path:url(#clip-path-10);}.cls-45{fill:url(#linear-gradient-10);}.cls-46{clip-path:url(#clip-path-11);}.cls-47{fill:url(#linear-gradient-11);}.cls-48{clip-path:url(#clip-path-12);}.cls-49{fill:url(#linear-gradient-12);}.cls-50{clip-path:url(#clip-path-13);}.cls-51{fill:url(#linear-gradient-13);}.cls-52{clip-path:url(#clip-path-14);}.cls-53{fill:url(#linear-gradient-14);}</style><clipPath id="clip-path" transform="translate(0.96 0.51)"><path class="cls-1" d="M369.72,233.76s-39.8,9.15-60.32-3.29c-13.47-9.34-13.95-30.45,5.78-44.39,25.42-18,76.24-13.7,94.95,14.92,6.53,10,13.31,31,21.06,48.68,18,41.14,69.82,44.36,72.95,97.84.19,3.25-6.16-1.93-16.32-4.54,11.81,15.14-8,28.86-10.56,32-23.66-58.82-37.16-50.71-82-57.93-4.92-4.55-4.52-3.77-6.35-5.06-.68-8.4-1.81-17.59-1.85-22.83,0,0,10.54-7.42,10-16s-2.95-8.38-3.93-8.18-6.62,3.49-6.62,3.49c-2-11.18-1.54-33.45-16.79-34.69"/></clipPath><linearGradient id="linear-gradient" x1="400.85" y1="372.33" x2="400.85" y2="196.76" gradientUnits="userSpaceOnUse"><stop offset="0" stop-color="#3b1212"/><stop offset="1" stop-color="#905151"/></linearGradient><clipPath id="clip-path-2" transform="translate(0.96 0.51)"><path class="cls-2" d="M738.45,301.75h87c38.16,0,70.12,28.14,76.43,64.83.66,0,3.54,24.21,3.74,26.33,4.29,45.29,4.62,111.45-8.13,159.11H693l-.88-112.38V320.11c13.5-11.44,27.45-18.36,46.37-18.36"/></clipPath><linearGradient id="linear-gradient-2" x1="803.47" y1="560.54" x2="801.35" y2="353.03" gradientUnits="userSpaceOnUse"><stop offset="0" stop-color="#ea6200"/><stop offset="1" stop-color="#ffc045"/></linearGradient><clipPath id="clip-path-3" transform="translate(0.96 0.51)"><path class="cls-1" d="M792.46,220.22c4.94,9.31,2.79,25.86.44,30.78-3.37,7-.89,9.85,2.05,8.85,6.52-2.23,8.48-5.08,13.36-7.41,1.15-.55,3.49-1,4.28-.11,3.25,3.59-3.87,13.67-8.22,16.37,21.29,2.51,44.81-32.31,31.67-55.91,7.79-24.59-10.54-48.53-32.79-53.14-16.61-3.43-34.32-1.19-48.83,2.79-13.63,3.73-15.67-10.05-28.37-3.71-15,7.5-17.79,24.2-17.11,34.28.77,11.37,9.09,19.22,14.57,23.1,18,12.75,52.12-6,65,.27a8.74,8.74,0,0,1,4,3.84"/></clipPath><linearGradient id="linear-gradient-3" x1="779.68" y1="267.56" x2="779.68" y2="169.25" xlink:href="#linear-gradient"/><clipPath id="clip-path-4" transform="translate(0.96 0.51)"><path class="cls-1" d="M695.64,339.18H473.5c-7.87,0-15.37,6.51-14.31,14.31l18.12,133.39c1.06,7.8,6.44,14.31,14.3,14.31H713.76c7.87,0,15.36-6.51,14.31-14.31L710,353.49c-1.06-7.8-6.44-14.31-14.31-14.31"/></clipPath><linearGradient id="linear-gradient-4" x1="594.59" y1="498.68" x2="594.59" y2="285.4" gradientUnits="userSpaceOnUse"><stop offset="0" stop-color="#3380db"/><stop offset="0.33" stop-color="#3583dd"/><stop offset="0.55" stop-color="#3c8ce2"/><stop offset="0.75" stop-color="#489beb"/><stop offset="0.93" stop-color="#59b1f8"/><stop offset="1" stop-color="#61bcff"/></linearGradient><clipPath id="clip-path-5" transform="translate(0.96 0.51)"><path class="cls-1" d="M482.12,497.18a13.1,13.1,0,0,0,9.49,4H713.76a15.24,15.24,0,0,0,12.53-6.67l-79.75-13.17-93.37-1Z"/></clipPath><linearGradient id="linear-gradient-5" x1="605.16" y1="498.68" x2="605.16" y2="285.39" gradientUnits="userSpaceOnUse"><stop offset="0" stop-color="#3380db"/><stop offset="0.07" stop-color="#3380db"/><stop offset="0.08" stop-color="#3380db"/><stop offset="1" stop-color="#61bcff"/></linearGradient><clipPath id="clip-path-6" transform="translate(0.96 0.51)"><path class="cls-1" d="M743.21,524.58c-19.8,0-35.86,11.82-35.86,26.39,0,.35,0,.7,0,1H779c0-.35,0-.7,0-1,0-14.57-16.06-26.39-35.86-26.39"/></clipPath><linearGradient id="linear-gradient-6" x1="744.17" y1="552.01" x2="744.17" y2="523.47" gradientUnits="userSpaceOnUse"><stop offset="0" stop-color="#3380db"/><stop offset="0.43" stop-color="#4597e9"/><stop offset="1" stop-color="#61bcff"/></linearGradient><clipPath id="clip-path-7" transform="translate(0.96 0.51)"><path class="cls-1" d="M236.55,339.18H14.41C6.54,339.18-1,345.69.1,353.49L18.22,486.88c1.06,7.8,6.44,14.31,14.3,14.31H254.67c7.87,0,15.36-6.51,14.31-14.31L250.86,353.49c-1.06-7.8-6.44-14.31-14.31-14.31"/></clipPath><linearGradient id="linear-gradient-7" x1="135.5" y1="498.68" x2="135.5" y2="285.4" xlink:href="#linear-gradient-4"/><clipPath id="clip-path-8" transform="translate(0.96 0.51)"><path class="cls-1" d="M23,497.18a13.1,13.1,0,0,0,9.49,4H254.67a15.24,15.24,0,0,0,12.53-6.67l-79.74-13.17-93.38-1Z"/></clipPath><linearGradient id="linear-gradient-8" x1="146.08" y1="498.68" x2="146.08" y2="285.39" xlink:href="#linear-gradient-5"/><clipPath id="clip-path-9" transform="translate(0.96 0.51)"><path class="cls-1" d="M499.85,42a78.48,78.48,0,1,0,78.48,78.48A78.47,78.47,0,0,0,499.85,42"/></clipPath><linearGradient id="linear-gradient-9" x1="516.4" y1="197.73" x2="483.69" y2="36.79" gradientUnits="userSpaceOnUse"><stop offset="0" stop-color="#3380db"/><stop offset="0.43" stop-color="#4597e9"/><stop offset="1" stop-color="#61bcff"/></linearGradient><clipPath id="clip-path-10" transform="translate(0.96 0.51)"><path class="cls-1" d="M619.61,146H582.14a55.83,55.83,0,0,0-55.83,55.82v25.26a55.83,55.83,0,0,0,55.83,55.82h7.7l29.77,20v-20a55.82,55.82,0,0,0,55.82-55.82V201.79A55.82,55.82,0,0,0,619.61,146"/></clipPath><linearGradient id="linear-gradient-10" x1="595.77" y1="259.16" x2="627.28" y2="81.13" gradientUnits="userSpaceOnUse"><stop offset="0" stop-color="#2491ff"/><stop offset="1" stop-color="#fdfdfd"/></linearGradient><clipPath id="clip-path-11" transform="translate(0.96 0.51)"><path class="cls-2" d="M291.24,6.81h59.59a45.64,45.64,0,0,1,45.64,45.64V62.77a45.64,45.64,0,0,1-45.64,45.64H315.57l-.41,16.52-23.92-16.52A45.64,45.64,0,0,1,245.6,62.77V52.45A45.64,45.64,0,0,1,291.24,6.81"/></clipPath><linearGradient id="linear-gradient-11" x1="322.42" y1="129.24" x2="321.75" y2="31.28" xlink:href="#linear-gradient-2"/><clipPath id="clip-path-12" transform="translate(0.96 0.51)"><path class="cls-1" d="M240.05,66.71H180.47a45.64,45.64,0,0,0-45.65,45.64v10.32a45.64,45.64,0,0,0,45.65,45.64h35.25l24.33,16.35V168.31a45.64,45.64,0,0,0,45.64-45.64V112.35a45.64,45.64,0,0,0-45.64-45.64"/></clipPath><linearGradient id="linear-gradient-12" x1="211.22" y1="168.81" x2="211.22" y2="16.6" xlink:href="#linear-gradient-10"/><clipPath id="clip-path-13" transform="translate(0.96 0.51)"><path class="cls-1" d="M657.92,109.74l2.76-4.53a4.93,4.93,0,0,0-.6-5.94A51.71,51.71,0,0,1,652.62,89a4.94,4.94,0,0,0-5.49-2.37L642,87.91a5,5,0,0,1-6-3.66l-2.39-9.87a5,5,0,0,1,3.67-6l5.15-1.25a5,5,0,0,0,3.79-4.63A50.68,50.68,0,0,1,648.12,50a4.91,4.91,0,0,0-2.2-5.55l-4.53-2.76a5,5,0,0,1-1.66-6.84L645,26.15a5,5,0,0,1,6.84-1.66l4.53,2.76a4.94,4.94,0,0,0,6-.59,50.51,50.51,0,0,1,10.21-7.46,5,5,0,0,0,2.38-5.5l-1.25-5.15a5,5,0,0,1,3.66-6l9.87-2.4a5,5,0,0,1,6,3.67L694.48,9a4.92,4.92,0,0,0,4.63,3.78,51.65,51.65,0,0,1,12.51,1.95,4.91,4.91,0,0,0,5.55-2.19L719.93,8a5,5,0,0,1,6.84-1.66l8.67,5.28a5,5,0,0,1,1.67,6.84L734.35,23a4.94,4.94,0,0,0,.59,5.95,50.51,50.51,0,0,1,7.46,10.21,4.94,4.94,0,0,0,5.49,2.39L753,40.25a5,5,0,0,1,6,3.67l2.4,9.86a5,5,0,0,1-3.67,6l-5.15,1.25a4.93,4.93,0,0,0-3.79,4.64,51,51,0,0,1-1.94,12.49,4.94,4.94,0,0,0,2.19,5.57l4.53,2.75a5,5,0,0,1,1.66,6.85L750,102a5,5,0,0,1-6.85,1.66l-4.52-2.76a5,5,0,0,0-6,.6,50.79,50.79,0,0,1-10.2,7.45,5,5,0,0,0-2.39,5.49l1.25,5.15a5,5,0,0,1-3.66,6l-9.87,2.4a5,5,0,0,1-6-3.67l-1.26-5.15a4.93,4.93,0,0,0-4.63-3.79,50.6,50.6,0,0,1-12.5-1.94,4.92,4.92,0,0,0-5.55,2.19l-2.77,4.53a5,5,0,0,1-6.84,1.67l-8.67-5.29a5,5,0,0,1-1.66-6.84m39.59-60.47a14.82,14.82,0,1,0,14.81,14.81A14.81,14.81,0,0,0,697.51,49.27ZM687.36,89.72A27.57,27.57,0,1,0,676.74,46,27.53,27.53,0,0,0,687.36,89.72Z"/></clipPath><linearGradient id="linear-gradient-13" x1="716.13" y1="131.32" x2="668.21" y2="-49.73" xlink:href="#linear-gradient-10"/><clipPath id="clip-path-14" transform="translate(0.96 0.51)"><path class="cls-1" d="M784,117.76l.63-3.35a3.18,3.18,0,0,0-1.73-3.45,33,33,0,0,1-6.83-4.45,3.18,3.18,0,0,0-3.85-.18l-2.82,1.93a3.21,3.21,0,0,1-4.47-.82l-3.7-5.4a3.21,3.21,0,0,1,.83-4.46l2.82-1.94A3.18,3.18,0,0,0,766.06,92a32.79,32.79,0,0,1-1.69-8,3.18,3.18,0,0,0-2.6-2.85l-3.36-.62a3.22,3.22,0,0,1-2.57-3.75l1.2-6.43a3.21,3.21,0,0,1,3.74-2.57l3.36.62a3.19,3.19,0,0,0,3.45-1.72A32.58,32.58,0,0,1,772,59.86a3.18,3.18,0,0,0,.18-3.86l-1.93-2.81a3.19,3.19,0,0,1,.83-4.46l5.4-3.71a3.21,3.21,0,0,1,4.46.83l1.93,2.82a3.16,3.16,0,0,0,3.66,1.21,33.84,33.84,0,0,1,8-1.69,3.18,3.18,0,0,0,2.85-2.59l.62-3.36a3.21,3.21,0,0,1,3.74-2.57l6.44,1.2a3.21,3.21,0,0,1,2.57,3.74L810.13,48a3.19,3.19,0,0,0,1.73,3.45,32.84,32.84,0,0,1,6.83,4.44,3.18,3.18,0,0,0,3.85.19l2.82-1.94a3.2,3.2,0,0,1,4.46.83l3.71,5.39a3.21,3.21,0,0,1-.84,4.47l-2.81,1.93a3.18,3.18,0,0,0-1.22,3.66,32.87,32.87,0,0,1,1.69,8,3.16,3.16,0,0,0,2.6,2.84l3.36.63a3.21,3.21,0,0,1,2.57,3.74L837.68,92a3.22,3.22,0,0,1-3.75,2.57L830.58,94a3.19,3.19,0,0,0-3.45,1.73,33.56,33.56,0,0,1-4.45,6.83,3.18,3.18,0,0,0-.18,3.85l1.94,2.81a3.22,3.22,0,0,1-.83,4.47l-5.4,3.71a3.2,3.2,0,0,1-4.46-.84l-1.94-2.81a3.18,3.18,0,0,0-3.66-1.22,32.79,32.79,0,0,1-8,1.69,3.18,3.18,0,0,0-2.85,2.59l-.63,3.37a3.21,3.21,0,0,1-3.74,2.57l-6.43-1.2a3.22,3.22,0,0,1-2.57-3.75m10-45.5a9.55,9.55,0,1,0,12.32,5.53A9.56,9.56,0,0,0,794,72.26ZM797.11,99A17.77,17.77,0,1,0,780.69,75,17.75,17.75,0,0,0,797.11,99Z"/></clipPath><linearGradient id="linear-gradient-14" x1="824.24" y1="117.86" x2="753.89" y2="19.74" xlink:href="#linear-gradient-10"/></defs><g id="Layer_2" data-name="Layer 2"><g id="Layer_1-2" data-name="Layer 1"><path class="cls-3" d="M201.67,413.08H188.19c-40,0-72.72,31.26-72.72,69.47S148.19,552,188.19,552h607.1c64.77,0,107.94-50.62,107.94-112.49S855.19,332.81,795.29,327c-27.38,0-52.15-21.41-52.15-47.57s22.41-47.56,49.79-47.56h28.16c28.47,0,51.76-22.25,51.76-49.45S849.56,133,821.09,133h-72c-11.09,0-20.15-8.66-20.15-19.25S738,94.5,749.08,94.5h5.13c7.65,0,13.91-6,13.91-13.28h0c0-7.31-6.26-13.29-13.91-13.29H671c-18.46,0-20.52,20.83-67.14,20.83H451.63c-10,0-18.15,7.81-18.15,17.34s8.17,17.34,18.15,17.34h-4.07c14.47,0,26.3,11.3,26.3,25.12s-11.83,25.12-26.3,25.12h-10.1c-70.83,0-80.83,17.68-93.23,52.85s-35.74,38-35.74,38H207.87c-21.79,0-39.63,17-39.63,37.86.09,13.53,4.55,29.29,33.79,41.13,13.28,5.38,56,21.48,56,36.15C258,399.71,222.64,413.08,201.67,413.08ZM793.24,94.5c-7.69,0-13.91-5.94-13.91-13.28s6.22-13.29,13.91-13.29,13.91,5.95,13.91,13.29S800.92,94.5,793.24,94.5Z" transform="translate(0.96 0.51)"/><path class="cls-4" d="M230.74,452.34c-8.57,25.8-28.47,55.74-36.16,71.84-5.05-.79-25.19-1.36-30.62,1.59-3.41,1.85-26.21,19.13-21.2,23.29,5.8,4.82,6.57-5.8,16.35-6.25,1.74-.08,6.79-.91,8.56.45a1.12,1.12,0,0,1,.38.63l-.57.3.62.1c.21,3.52,4.06-1,5.53.62,1.72,1.88,11.53,5.41,15.65,3.84,9.7-3.68,24.1,4.57,24.1,4.57l-3.71-11c9.07,1.24,44.77-45.77,45-45.87,4.36-1.75,8.3-6.83,11.8-13.76V458.18Z" transform="translate(0.96 0.51)"/><path class="cls-5" d="M324.41,397.67C306,438,227.17,547.22,221.39,534.88c-5.13-11-24.5-14.56-23.54-21.23s33.76-102.86,38.48-103.17c5.53-.35,24.36-60.26,58.54-80,5.33-3.08,36.16,52.65,29.54,67.17" transform="translate(0.96 0.51)"/><path class="cls-6" d="M316.1,208.25c9.15,66.74-35.7,87.34,8.22,149.07,0,0,26.89-29.61,38.41-31.7s13-38.31,13-40.17-10.25-74.06-10.25-74.06Z" transform="translate(0.96 0.51)"/><path class="cls-5" d="M409.62,314.45c21.71,0,43.52,11,53,25.18,14,20.82-21.56,108.15-14.35,212.39H269.88c-7.51-63-7.83-120,8.61-207.14,22.75-35.8,96.17-30.43,131.13-30.43" transform="translate(0.96 0.51)"/><path class="cls-7" d="M457,420.63c-1.32,8.08-2.65,16.62-3.89,25.54-6.51,5.66-15,12-16.55,11.83s-37.37-1.5-37.37-1.5,30.28-17.07,29.63-33.61-3-45.22-3-45.22,26.42,25.36,27.28,28.58c.4,1.51,2.2,7.74,3.91,14.38" transform="translate(0.96 0.51)"/><path class="cls-7" d="M449.79,474.21c-.65,6.79-1.21,13.74-1.63,20.83a135.26,135.26,0,0,1-31.9,6.77c-24.69,1.93-45.35-4.48-45.3-5.59l62.7-22.54Z" transform="translate(0.96 0.51)"/><path class="cls-8" d="M340.86,316.08c-21,12.1-43,130.42-28.17,235.94h74.12c-23.1-124.87,11.79-211.52,21.36-237.57-21.94-1.45-40.46-2.55-67.31,1.63" transform="translate(0.96 0.51)"/><path class="cls-9" d="M380.1,499.3c-.14-3.14-.38-4.74-.47-7.84L371,496.22c0,.59.08,1.54,9.14,3.08" transform="translate(0.96 0.51)"/><path class="cls-4" d="M327.42,290.25c6.87,8.25,14.8,14.91,22.95,16.72v8.88L348.79,318c-5.81,10.09-2.65,30.37,7,35.32,15-5.4,35.39-18.7,39.47-37.39l-2.68-2.49-3.67-2.56-1.79-22.15c1.14-.33,8.39-7,10.7-8.38s4.86-7,3.92-12.12-8.38-1.66-8.38-1.66h0c6.46-15.19,14.73-28.29-1.92-36.73S341.18,222,341.18,222l-20.81-2.19c4,6.07,3.32,26.28,1.6,41.27-1.54,13.44-3.78,18.06,5.45,29.14" transform="translate(0.96 0.51)"/><path class="cls-10" d="M378.63,293.51c-4.94,16-10,26.63-28.26,28.66V307c6.4-.45,14.87-2.61,28.26-13.46" transform="translate(0.96 0.51)"/><path class="cls-5" d="M423.21,371.49c-7.93-16.31-6.41-30.93,8.8-41.06h0c15.2-10.14,28.17,2.23,36.09,18.54,15.57,32,27,103.4,10.49,123.72-10,12.37-58.59,21.19-87.15,23.89-9.77.92-21.24,1.11-24,.36-10-2.74-15.76-23.9-11.08-32.58C358.2,461,369,459.81,373.15,459c20.33-4,55.09-16.73,61-19.9,10.76-5.81-5.36-56.16-10.92-67.6" transform="translate(0.96 0.51)"/><path class="cls-8" d="M366,466.28c8.19,2.63,20.19,29,1.47,27.52-7.59-.61-9.92-.24-9.92-.24-9.51-6.81-11.42-17.24-11.08-24.74Z" transform="translate(0.96 0.51)"/><path class="cls-4" d="M350.52,471.16l-8.46,1.09-17.25-6.47c-1.82-1.27-14.24-6.73-11.59-1.8,1.86,3.46,8.4,9.81,8.15,10.11-3.2,3.9-28.59,5.9-28.9,6.25-4.39,4.87,11.8,4.54,14.55,4.61.72,0-11.1,2.71-10.68,3.26a5.49,5.49,0,0,0,4.78,2.47c3.72,0,10.09-1,10.71-.37s-10.84,3.2-10.19,3.78a4.8,4.8,0,0,0,3.82,1.35c3.85-.1,9.68-1.42,10.52-.89s-7.46,1.86-6.63,2.3c.66.34.6,1.62,1.31,1.66,19.13,1,20.62-8.61,42.49-6.84,12.17,1,1.13-17.9-2.63-20.51" transform="translate(0.96 0.51)"/><path class="cls-8" d="M334.76,276.51c-2.25,3.6,3.72,8.92,7,9.77,7.65,2,16.15-.77,17.07-8.92-3.87-1-10.12,1.36-16.57.4-4.95-.73-7.51-1.25-7.51-1.25" transform="translate(0.96 0.51)"/><path class="cls-11" d="M410.48,238.66c4.78,0,8.65,4.83,8.65,10.79s-3.87,10.79-8.65,10.79-8.65-4.83-8.65-10.79,3.87-10.79,8.65-10.79" transform="translate(0.96 0.51)"/><g class="cls-12"><rect class="cls-13" x="296.41" y="168.63" width="208.88" height="206.86"/></g><path class="cls-5" d="M409.36,232.74c9.67,5.27,13.34,19.83,8.21,32.51s-17.14,18.69-26.81,13.42-13.34-19.83-8.21-32.51,17.14-18.69,26.81-13.42" transform="translate(0.96 0.51)"/><path class="cls-14" d="M412.81,234.3c9.67,5.27,13.35,19.83,8.21,32.51s-17.13,18.69-26.8,13.42S380.87,260.4,386,247.72c3.38-8.35,9.73-13.81,16.44-15.06h0l-2.28-1.73c.91-28.28-21.63-56.29-55.31-55.13,19.16-12.15,62.93,6.5,64.51,56.94h-.74a15.7,15.7,0,0,1,4.19,1.57" transform="translate(0.96 0.51)"/><path class="cls-15" d="M363.56,292.67a44.36,44.36,0,0,0,24.85-15.82l-1.07-2.51c-6.23,7.37-13.23,13.87-24.41,15.71-.23-.17-1-.82-1.26-1a3.68,3.68,0,0,0-2.21-.54c-1.53.07-3.83,1.94-3.73,4.1a4,4,0,0,0,4.1,3.73,3.86,3.86,0,0,0,3.73-3.68" transform="translate(0.96 0.51)"/><path class="cls-16" d="M414.09,250.79c4.38,1.5,6.15,7.92,4,14.34s-7.52,10.42-11.9,8.92-6.14-7.91-3.95-14.34,7.53-10.41,11.9-8.92" transform="translate(0.96 0.51)"/><path class="cls-17" d="M782.83,553.38s-37.55-17.08-32-43.54,36.1-23.67,32-44.56-24.17-53.42-4.68-77.09,51.92-9.48,56-46.19c3.28-29.59,16.94-50.54,43.43-44.4,24.52,5.69,42.8,24.68,43.25,69.82.5,48.08,34.35,34.57,34.77,70,.42,35.67-28,35.67-39.09,59.6-5.24,11.31,8.43,51-32,56.38Z" transform="translate(0.96 0.51)"/><path class="cls-3" d="M828,553.38s-5.9-32.65,16.26-45.94S889,483.8,886.55,462.38s3.58-46.69,39.09-47.17c22-.29,13.71-23.43,36-28,13.55-2.81,22.49,11.34,24.22,25.24,2,15.82-7,31.38,3.29,44.26,13.34,16.7,18.75,47.84-9.91,56.7s-3.11,36-42.14,40H828Z" transform="translate(0.96 0.51)"/><path class="cls-18" d="M960.16,402.68c-.75,20.8-10,50.4-25.76,78.64s-38.09,55.21-64.74,71.09a2,2,0,0,0-.85,1h7c25.69-16.63,46.89-42.77,62.13-70.05,16-28.75,25.46-58.7,26.28-80.5a2.05,2.05,0,0,0-4.1-.15" transform="translate(0.96 0.51)"/><path class="cls-7" d="M543,542.49l27.42-.22,1.73,9.75H532.92c1.6-4,3.46-9.48,10-9.53" transform="translate(0.96 0.51)"/><path class="cls-19" d="M693,320.11c-23.07,9-15.89,145.66-40.14,157C630.07,505.61,679.3,502,693,496.47c20.95-8.43,32-93.17,32-93.17Z" transform="translate(0.96 0.51)"/><path class="cls-4" d="M659.16,450.72c-8.57,25.81-31.49,57.12-39.18,73.22-5-.78-12.29-1.12-17.72,1.83-3.41,1.85-26.2,19.13-21.19,23.29,5.79,4.82,6.56-5.8,16.34-6.25,1.74-.08,6.79-.91,8.57.45a1.17,1.17,0,0,1,.37.63l-.56.3.61.1c.22,3.52,4.06-1,5.53.62,1.73,1.88,11.53,5.41,15.65,3.84,9.7-3.68,24.1,4.57,24.1,4.57l-3.71-11c9.07,1.24,44.77-45.77,45-45.87,4.37-1.75,8.3-6.83,11.8-13.76V458.18Z" transform="translate(0.96 0.51)"/><g class="cls-20"><rect class="cls-21" x="693.03" y="302.26" width="218.15" height="250.27"/></g><path class="cls-4" d="M731,219.44a57.7,57.7,0,0,1-2.84,21.06c-6.07,17.42,7.22,47.38,30.48,45.39l-.08,15.86h.36c-10.3,12.09,2.4,40.79,14.09,40.88,10.08.08,28.54-21.68,29.83-40.88V269.22a9.07,9.07,0,0,0,3.53-1.55c2.34-1.43,14.1-13.05,13.15-18.47s-11.77-6-11.77-6l-2.5-2.2c6.54-16.07,11.5-16.36-5.33-25.3s-50.8-8.26-50.8-8.26l-17.58,5.27Z" transform="translate(0.96 0.51)"/><path class="cls-22" d="M758.63,285.92l-.08,15.67a59.81,59.81,0,0,0,16.09-5.06A29.7,29.7,0,0,0,790.05,280a79.65,79.65,0,0,1-28.18,5.8Z" transform="translate(0.96 0.51)"/><path class="cls-4" d="M834.78,356.18c8.27-18.37,27.58-39.68,36.59-21.65h0c10.66,10.66,12.91,12.13,13.16,26.28.63,35.22,24.42,90.86-3.19,127C870,502.7,795.21,552,779.07,551c-12.38-.8-12.3-8.2-7.73-31.79,14.86-9.69,52.9-42.94,63.49-60.28,9.17-15-5.85-89.85-.05-102.72" transform="translate(0.96 0.51)"/><g class="cls-23"><rect class="cls-24" x="709.22" y="152.9" width="140.92" height="118.82"/></g><path class="cls-25" d="M825.81,345c7.75-17.2,29.27-27.34,44.32-18.42,5.13,3,11.59,9.7,13.8,17.86,10.69,39.43,14.7,118.83,5.14,142.52-24.81-22.09-52.58-25.36-58.16-26.67-.33-47.29-9.78-104.9-5.1-115.29" transform="translate(0.96 0.51)"/><path class="cls-26" d="M883.05,342.36c21,37.33,18.75,113.06,6,144.61a136.81,136.81,0,0,0-13.85-10.81c18.55-40.69,6.58-100.89,7.83-133.8" transform="translate(0.96 0.51)"/><path class="cls-8" d="M758.55,303.72c-6.58,18.64,4.3,32.59,14.45,38.91,15.73-11.41,29.88-22.53,29.88-44,0,0,5.43-.11,9,9.52,5.81,15.59-3.93,50.6-3.93,50.6s-10.93-15.8-20-16.66-15,2.22-15,2.22c-11.63-9.53-19.55,2.82-27.33,11.87-2.45-23.09-2.46-39.3,13-57.17a38.28,38.28,0,0,1,0,4.71" transform="translate(0.96 0.51)"/><rect class="cls-27" x="682.11" y="403.66" width="34.98" height="8.5"/><path class="cls-7" d="M708.08,339.18H485.94c-7.87,0-15.37,6.51-14.31,14.31l18.12,133.39c1.06,7.8,6.44,14.31,14.31,14.31H726.2c7.87,0,15.37-6.51,14.31-14.31L722.39,353.49c-1.06-7.8-6.44-14.31-14.31-14.31" transform="translate(0.96 0.51)"/><g class="cls-28"><rect class="cls-29" x="459.09" y="339.69" width="270.99" height="162.01"/></g><g class="cls-30"><rect class="cls-31" x="483.08" y="480.83" width="244.17" height="20.87"/></g><path class="cls-7" d="M618.25,420.48H534.71c-3,0-5.83,2.46-5.38,5.38l7.74,50.4c.45,2.93,2.42,5.39,5.38,5.39H626c3,0,5.83-2.46,5.38-5.39l-7.74-50.4c-.45-2.93-2.43-5.38-5.38-5.38" transform="translate(0.96 0.51)"/><path class="cls-32" d="M622.69,420.48H539.15c-3,0-5.83,2.45-5.38,5.38l7.74,50.4c.45,2.93,2.42,5.39,5.38,5.39h83.54c3,0,5.83-2.46,5.38-5.39l-7.74-50.4c-.45-2.93-2.42-5.38-5.38-5.38" transform="translate(0.96 0.51)"/><path class="cls-32" d="M572.49,467h-5.33l-11,67.92c-.6,3.74-2.15,11.64-2.52,16.91-.05.74,6.41.2,8,.2h52.91l-.65-2.42c-1-3.73-2.7-7.11-6-7.11H595.64l6.84-75.5Z" transform="translate(0.96 0.51)"/><polygon class="cls-7" points="603.44 467.5 591.15 543.35 592.81 543.35 596.54 543.35 606.73 478.16 603.44 467.5"/><path class="cls-7" d="M608.31,542.49H741a4.78,4.78,0,0,1,4.76,4.76V552H608.31Z" transform="translate(0.96 0.51)"/><path class="cls-7" d="M617.71,542.49l-27.41-.22L588.57,552h39.19c-1.6-4-3.46-9.48-10-9.53" transform="translate(0.96 0.51)"/><g class="cls-33"><rect class="cls-34" x="708.31" y="525.09" width="71.71" height="27.44"/></g><path class="cls-32" d="M720.21,552V541.08c2.08-4.23,12.28-13.78,17.78-10.83,3,1.64-6.56,9.16-8.74,11.66L729.14,552h-8.93" transform="translate(0.96 0.51)"/><path class="cls-35" d="M939,552H22.55a2.24,2.24,0,0,0-2.24,2.24h0a2.25,2.25,0,0,0,2.24,2.24H939a2.25,2.25,0,0,0,2.24-2.24h0A2.24,2.24,0,0,0,939,552" transform="translate(0.96 0.51)"/><path class="cls-4" d="M759.93,512.66s-13.61-4.49-22.83.52c-3.41,1.85-24.2,16-19.19,20.14,5.8,4.82,6.57-5.81,16.34-6.25,1.75-.08,6.79-.91,8.57.45,2.28,1.74-5.2,14.26-3.53,16.08s11.53,5.41,15.65,3.84C764.64,543.76,779,552,779,552l5.83-25.62c-3.41-9.3-10.45-6.69-24.93-13.74" transform="translate(0.96 0.51)"/><path class="cls-36" d="M818,222.7c9.63,6.28,12.27,21.75,5.88,34.53S807,277.66,795.92,270.37s-13.35-23.11-7-35.9,19.38-18.06,29-11.77" transform="translate(0.96 0.51)"/><path class="cls-14" d="M821.44,224.61c9.64,6.28,12.28,21.74,5.89,34.53s-19.38,18.06-29,11.77-12.27-21.74-5.88-34.53c4.2-8.41,11.27-13.57,18.35-14.33h0l-2.24-2a51.18,51.18,0,0,0-1.75-33.91C801,172.44,794.34,164.93,781.13,160l-3.34-1.42,0-2.22c33-.62,55.82,34.24,40.16,66.3l-.77-.07a16.09,16.09,0,0,1,4.23,2" transform="translate(0.96 0.51)"/><path class="cls-16" d="M821,239.87c-4.2-1.28-9.58,3.1-12,9.8s-1,13.15,3.19,14.44,9.58-3.1,12-9.79,1-13.16-3.19-14.45" transform="translate(0.96 0.51)"/><rect class="cls-18" x="772.45" y="343.76" width="3.95" height="30.98"/><path class="cls-7" d="M83.87,542.49l27.42-.22L113,552H73.83c1.6-4,3.46-9.48,10-9.53" transform="translate(0.96 0.51)"/><rect class="cls-27" x="223.02" y="403.66" width="34.98" height="8.5"/><path class="cls-7" d="M249,339.18H26.85c-7.87,0-15.37,6.51-14.31,14.31L30.66,486.88c1.06,7.8,6.44,14.31,14.31,14.31H267.11c7.87,0,15.37-6.51,14.31-14.31L263.3,353.49c-1.06-7.8-6.44-14.31-14.31-14.31" transform="translate(0.96 0.51)"/><g class="cls-37"><rect class="cls-38" y="339.69" width="270.99" height="162.01"/></g><g class="cls-39"><rect class="cls-40" x="23.99" y="480.83" width="244.17" height="20.87"/></g><path class="cls-7" d="M159.16,420.48H75.62c-3,0-5.83,2.46-5.38,5.38L78,476.26c.45,2.93,2.42,5.39,5.38,5.39H166.9c3,0,5.83-2.46,5.38-5.39l-7.74-50.4c-.45-2.93-2.43-5.38-5.38-5.38" transform="translate(0.96 0.51)"/><path class="cls-32" d="M163.6,420.48H80.06c-3,0-5.83,2.45-5.38,5.38l7.74,50.4c.45,2.93,2.42,5.39,5.38,5.39h83.54c3,0,5.83-2.46,5.38-5.39L169,425.86c-.45-2.93-2.42-5.38-5.38-5.38" transform="translate(0.96 0.51)"/><path class="cls-32" d="M113.4,467h-5.33l-11,67.92c-.61,3.74-2.16,11.64-2.53,16.91,0,.74,6.41.2,8,.2h52.91l-.64-2.42c-1-3.73-2.71-7.11-6-7.11H136.55l6.84-75.5Z" transform="translate(0.96 0.51)"/><polygon class="cls-7" points="144.35 467.5 132.06 543.35 133.72 543.35 137.45 543.35 147.64 478.16 144.35 467.5"/><path class="cls-7" d="M149.22,542.49H281.86a4.77,4.77,0,0,1,4.76,4.76V552H149.22Z" transform="translate(0.96 0.51)"/><path class="cls-7" d="M158.63,542.49l-27.42-.22L129.48,552h39.19c-1.6-4-3.46-9.48-10-9.53" transform="translate(0.96 0.51)"/><path class="cls-32" d="M261.12,552V541.08c2.08-4.23,12.28-13.78,17.78-10.83,3.05,1.64-6.56,9.16-8.74,11.66L270.05,552h-8.93" transform="translate(0.96 0.51)"/><path class="cls-8" d="M740.26,258.68c-2.25,3.59,3.72,8.91,7,9.76,7.66,2,16.16-.77,17.08-8.92-3.87-1-10.12,1.37-16.57.41-4.95-.74-7.51-1.25-7.51-1.25" transform="translate(0.96 0.51)"/><path class="cls-15" d="M765.44,277.15a44.23,44.23,0,0,0,24.85-15.82l-1.07-2.5c-6.22,7.36-13.23,13.87-24.4,15.71-.24-.17-1-.82-1.26-1a3.65,3.65,0,0,0-2.21-.54c-1.53.07-3.84,1.93-3.74,4.09a4,4,0,0,0,4.1,3.74,3.87,3.87,0,0,0,3.73-3.69" transform="translate(0.96 0.51)"/><path class="cls-7" d="M507.5,42A78.48,78.48,0,1,0,586,120.51,78.48,78.48,0,0,0,507.5,42" transform="translate(0.96 0.51)"/><g class="cls-41"><rect class="cls-42" x="422.33" y="42.54" width="156.96" height="156.96"/></g><path class="cls-8" d="M499.7,58a62,62,0,1,0,62,62,62,62,0,0,0-62-62" transform="translate(0.96 0.51)"/><path class="cls-43" d="M499.43,170.64a4.07,4.07,0,1,0,4.06,4.08,4.08,4.08,0,0,0-4.06-4.08m-53.77-54.26a4.07,4.07,0,1,0,4.06,4.07A4.06,4.06,0,0,0,445.66,116.38ZM549.22,90.85h0a2.2,2.2,0,0,1-.78,3l-1.82,1.07a2.2,2.2,0,0,1-3-.78h0a2.2,2.2,0,0,1,.78-3l1.81-1.07A2.22,2.22,0,0,1,549.22,90.85Zm-75.28,71.82h0a2.19,2.19,0,0,1,.73,3l-1.09,1.8a2.19,2.19,0,0,1-3.74-2.28l1.09-1.8A2.19,2.19,0,0,1,473.94,162.67Zm55.84-91.58h0a2.19,2.19,0,0,1,.73,3l-1.1,1.8a2.21,2.21,0,0,1-3,.73h0a2.2,2.2,0,0,1-.72-3l1.09-1.8A2.19,2.19,0,0,1,529.78,71.09Zm-3.55,91.69h0a2.18,2.18,0,0,0-.74,3l1.08,1.8a2.19,2.19,0,1,0,3.75-2.26l-1.09-1.8A2.19,2.19,0,0,0,526.23,162.78ZM470.77,71h0a2.19,2.19,0,0,0-.74,3l1.08,1.8a2.2,2.2,0,0,0,3,.74h0a2.2,2.2,0,0,0,.74-3l-1.09-1.8A2.19,2.19,0,0,0,470.77,71Zm72.75,74.37h0a2.2,2.2,0,0,0,.77,3l1.81,1.07a2.2,2.2,0,0,0,3-.77h0a2.19,2.19,0,0,0-.77-3l-1.81-1.08A2.2,2.2,0,0,0,543.52,145.34ZM451.25,90.65h0a2.2,2.2,0,0,0,.77,3l1.81,1.07a2.19,2.19,0,0,0,3-.76h0a2.2,2.2,0,0,0-.77-3l-1.81-1.08A2.21,2.21,0,0,0,451.25,90.65Zm45.38,27a4.1,4.1,0,0,1,2.91-1.2v0a4.13,4.13,0,1,1-2.91,1.2Zm28,28.78c1.18,1.4-13.5-11.79-21.71-19.29a7.4,7.4,0,0,1-8.58-1.37,7.53,7.53,0,0,1-.92-1.11L456.9,145.54a2.2,2.2,0,0,1-1,2.62l-1.81,1.06a2.2,2.2,0,0,1-2.8-.49h0l-.17-.3h0l0-.05h0l-.14-.25h0a2.19,2.19,0,0,1,.93-2.68l1.82-1.07a2.2,2.2,0,0,1,2.84.55L493,124.05a7.17,7.17,0,0,1-.88-3.51,7.39,7.39,0,0,1,5.38-7.09c.53-12.81,1.82-39.57,2.2-44.08h-.1a4.14,4.14,0,1,1,.23,0l2,44.19a7.37,7.37,0,0,1,5.07,7,7.47,7.47,0,0,1-1,3.7Zm29.16-29.82a4.07,4.07,0,1,0,4.06,4.08A4.07,4.07,0,0,0,553.76,116.6Z" transform="translate(0.96 0.51)"/><g class="cls-44"><rect class="cls-45" x="527.27" y="146.48" width="149.13" height="156.9"/></g><path class="cls-18" d="M554.94,209.94v-2.65a8,8,0,0,1,1-4,7.36,7.36,0,0,1,2.44-2.65,17.07,17.07,0,0,1,3.31-1.66,34.48,34.48,0,0,1,3.62-1.16l3.32-.87a7,7,0,0,0,2.45-1.11,2.08,2.08,0,0,0,.94-1.72,3.19,3.19,0,0,0-1.05-2.79,6.44,6.44,0,0,0-3.56-.74h-1.29c-2.34,0-3.88.75-4.62,2.23a2.61,2.61,0,0,1-2.45,1.71h-2.16a2.29,2.29,0,0,1-.7-.12,1.86,1.86,0,0,1-.77-.64,2,2,0,0,1-.4-1.25,5.28,5.28,0,0,1,1.59-3.75,10.1,10.1,0,0,1,3.95-2.49,14.82,14.82,0,0,1,4.92-.83h2.46a20.42,20.42,0,0,1,4.29.41,11.11,11.11,0,0,1,3.43,1.34,6.22,6.22,0,0,1,2.38,2.68,9.85,9.85,0,0,1,.83,4.23,7.1,7.1,0,0,1-1,3.72,7.44,7.44,0,0,1-2.43,2.55,17.77,17.77,0,0,1-3.33,1.63,34.64,34.64,0,0,1-3.63,1.16l-3.3.86a8.56,8.56,0,0,0-2.46,1,1.77,1.77,0,0,0-1,1.46h15.09a1.72,1.72,0,0,1,1.74,1.73v1.71a1.61,1.61,0,0,1-.51,1.2,1.7,1.7,0,0,1-1.23.5H556.71a1.71,1.71,0,0,1-1.24-.5A1.59,1.59,0,0,1,554.94,209.94Z" transform="translate(0.96 0.51)"/><path class="cls-18" d="M579.19,205.36V203.2a4.11,4.11,0,0,1,1.13-2.84l12-13.64a3.68,3.68,0,0,1,2.83-1.13h5.69a1.71,1.71,0,0,1,1.25.51,1.67,1.67,0,0,1,.51,1.22v14.61h2a1.74,1.74,0,0,1,1.25.5,1.67,1.67,0,0,1,.51,1.22v1.71a1.63,1.63,0,0,1-.53,1.21,1.74,1.74,0,0,1-1.23.5h-2v2.87a1.59,1.59,0,0,1-.53,1.2,1.7,1.7,0,0,1-1.23.5h-3.38a1.68,1.68,0,0,1-1.21-.48,1.58,1.58,0,0,1-.5-1.19v-2.9H581a1.74,1.74,0,0,1-1.23-.5A1.63,1.63,0,0,1,579.19,205.36Zm7.3-3.43h9.27V191.41Z" transform="translate(0.96 0.51)"/><path class="cls-18" d="M606.79,211.12a1,1,0,0,1-.06-.33,1.73,1.73,0,0,1,.26-.85l11.81-22.62a3.24,3.24,0,0,1,3.16-1.73h3a.77.77,0,0,1,.83.53,1,1,0,0,1,.06.35,1.68,1.68,0,0,1-.27.85l-11.8,22.62a3.19,3.19,0,0,1-3.16,1.7h-3A.76.76,0,0,1,606.79,211.12Z" transform="translate(0.96 0.51)"/><path class="cls-18" d="M626.24,189v-1.71a1.65,1.65,0,0,1,.53-1.22,1.71,1.71,0,0,1,1.23-.51h19.46a1.71,1.71,0,0,1,1.23.51,1.67,1.67,0,0,1,.51,1.22V189a7.55,7.55,0,0,1-1.1,3.31l-9.54,17.64a2.71,2.71,0,0,1-2.38,1.7h-3.72a1.11,1.11,0,0,1-1-.48,1,1,0,0,1,0-1l10.5-19.38H628a1.74,1.74,0,0,1-1.25-.5A1.65,1.65,0,0,1,626.24,189Z" transform="translate(0.96 0.51)"/><path class="cls-8" d="M559.28,225.75H645.6a2.79,2.79,0,0,1,0,5.58H559.28a2.79,2.79,0,1,1,0-5.58" transform="translate(0.96 0.51)"/><path class="cls-8" d="M559.28,242.71h61a2.79,2.79,0,0,1,0,5.58h-61a2.79,2.79,0,1,1,0-5.58" transform="translate(0.96 0.51)"/><g class="cls-46"><rect class="cls-47" x="246.55" y="7.31" width="150.87" height="118.12"/></g><g class="cls-48"><rect class="cls-49" x="135.78" y="67.22" width="150.87" height="117.95"/></g><path class="cls-8" d="M177.82,109.27a7.65,7.65,0,1,1-7.64,7.65,7.65,7.65,0,0,1,7.64-7.65" transform="translate(0.96 0.51)"/><path class="cls-8" d="M211,109.27a7.65,7.65,0,1,1-7.65,7.65,7.65,7.65,0,0,1,7.65-7.65" transform="translate(0.96 0.51)"/><path class="cls-8" d="M244.11,109.27a7.65,7.65,0,1,1-7.65,7.65,7.65,7.65,0,0,1,7.65-7.65" transform="translate(0.96 0.51)"/><path class="cls-8" d="M287.89,49.64a7.65,7.65,0,1,1-7.65,7.65,7.64,7.64,0,0,1,7.65-7.65" transform="translate(0.96 0.51)"/><path class="cls-8" d="M321,49.64a7.65,7.65,0,1,1-7.65,7.65A7.64,7.64,0,0,1,321,49.64" transform="translate(0.96 0.51)"/><path class="cls-8" d="M354.17,49.64a7.65,7.65,0,1,1-7.64,7.65,7.64,7.64,0,0,1,7.64-7.65" transform="translate(0.96 0.51)"/><g class="cls-50"><rect class="cls-51" x="633.88" width="129.19" height="129.19"/></g><g class="cls-52"><rect class="cls-53" x="756.48" y="39.86" width="83.68" height="83.68"/></g></g></g></svg>