<svg xmlns="http://www.w3.org/2000/svg" xmlns:xlink="http://www.w3.org/1999/xlink" viewBox="0 0 670 726.41"><defs><style>.cls-1{fill:none;}.cls-2{isolation:isolate;}.cls-3{fill:#f4f7fa;}.cls-4{clip-path:url(#clip-path);}.cls-5{clip-path:url(#clip-path-2);}.cls-6{fill:#3380db;}.cls-7{opacity:0.9;}.cls-11,.cls-21,.cls-7{mix-blend-mode:soft-light;}.cls-8{fill:#beb8f2;}.cls-9{fill:#196acc;}.cls-10{clip-path:url(#clip-path-3);}.cls-11{opacity:0.5;}.cls-12{fill:#fcfdfe;}.cls-13{fill:#6786d8;}.cls-14{clip-path:url(#clip-path-4);}.cls-15{clip-path:url(#clip-path-5);}.cls-16{clip-path:url(#clip-path-6);}.cls-17{clip-path:url(#clip-path-7);}.cls-18{fill:#b7c0ce;}.cls-19{fill:#fff;}.cls-20{fill:#d8dee8;}.cls-21,.cls-38{opacity:0.3;}.cls-22{fill:url(#linear-gradient);}.cls-23{fill:url(#linear-gradient-2);}.cls-24{clip-path:url(#clip-path-8);}.cls-25{fill:url(#linear-gradient-3);}.cls-26{fill:#b8c5e6;}.cls-26,.cls-38{mix-blend-mode:multiply;}.cls-27{fill:#f7cccf;}.cls-28{fill:url(#linear-gradient-4);}.cls-29{fill:url(#linear-gradient-5);}.cls-30{fill:url(#linear-gradient-6);}.cls-31{fill:url(#linear-gradient-7);}.cls-32{clip-path:url(#clip-path-9);}.cls-33{fill:url(#linear-gradient-8);}.cls-34{fill:url(#linear-gradient-9);}.cls-35{fill:url(#linear-gradient-10);}.cls-36{fill:url(#linear-gradient-11);}.cls-37{fill:url(#linear-gradient-12);}.cls-39{fill:url(#linear-gradient-13);}.cls-40{fill:url(#linear-gradient-14);}.cls-41{fill:url(#linear-gradient-15);}.cls-42{clip-path:url(#clip-path-10);}.cls-43{fill:url(#linear-gradient-16);}.cls-44{fill:#f9f9f9;}.cls-45{fill:url(#linear-gradient-17);}.cls-46{fill:url(#linear-gradient-18);}.cls-47{fill:url(#linear-gradient-19);}.cls-48{fill:url(#linear-gradient-20);}.cls-49{fill:url(#linear-gradient-21);}.cls-50{fill:url(#linear-gradient-22);}.cls-51{fill:url(#linear-gradient-23);}.cls-52{fill:url(#linear-gradient-24);}.cls-53{fill:url(#linear-gradient-25);}.cls-54{clip-path:url(#clip-path-11);}.cls-55{fill:url(#linear-gradient-26);}.cls-56{fill:url(#linear-gradient-27);}.cls-57{fill:url(#linear-gradient-28);}.cls-58{fill:url(#linear-gradient-29);}.cls-59{fill:url(#linear-gradient-30);}.cls-60{fill:url(#linear-gradient-31);}.cls-61{fill:url(#linear-gradient-32);}</style><clipPath id="clip-path"><rect class="cls-1" x="8.35" y="236.12" width="211.46" height="328.58"/></clipPath><clipPath id="clip-path-2"><path class="cls-1" d="M369.4,690.71l-49.31,35.7s-27.59-18.58-28.43-45.18c-1.71-54.26-49.12-49-69.3-49.73-30.45-1.15-56.78-15.43-35.1-45.64s-39.09-53.71-88.52-48.47c-48.38,5.13-85.41-77.9,18.27-98.62,61.92-12.37,90.32,42.21,111.22,66.36s60.78-1.46,70.45,39.52c8.26,35,1.17,70,30.8,76.76S375.8,647.65,369.4,690.71Z"/></clipPath><clipPath id="clip-path-3"><path class="cls-1" d="M189.87,554.55l43.31-14.34s9.53-31.66-7.19-38.44-12.22-36.79-11.8-53c1.15-43.93-49.15-35.61-52.5-92-.89-15,2.79-44.08-11.47-54.85-16.24-12.28-26.74,2-37.34-8.49C96.32,277,70.75,272.78,56.8,292.38,43,311.73,63.15,346.15,109.6,371.2c31,21.59,31.9,28.77,30.59,46.57-.91,12.46-11.64,45.66,7.05,56.93s33.2,23.95,27.1,38.46C165.06,535.25,189.87,554.55,189.87,554.55Z"/></clipPath><clipPath id="clip-path-4"><path class="cls-1" d="M229.51,580.84,299.68,563c1.82-10.46,2.86-29.17-12.85-29.71-21.85-.75-30.28-34.82-27.46-48.3,3.48-16.69,10.76-55.68-23-57.35-28.08-1.39-46.72,3.22-56-28.39S148,352.15,117.83,361.63c-31.8,10-67.7-24.22-91-4.06C-13.69,392.68,44.42,453,105.18,459.66s33.07,33.72,37.64,60.33c6.25,36.33,55.53,16.06,72.28,26.8C228.23,555.21,229.8,570.92,229.51,580.84Z"/></clipPath><clipPath id="clip-path-5"><path class="cls-1" d="M469.53,541.11,530,548.05s14.94-29.72,2.63-53.31c-25.11-48.13,18.8-66.77,36-77.33,26-15.92,41.93-41.28,8.22-57s7.74-66,53.39-85.64c44.68-19.25,36.25-109.77-64.27-77-60,19.58-58,81.07-64.41,112.37s-53.69,28.52-42,69c10,34.56,33.31,61.61,10.78,82S442.84,506.72,469.53,541.11Z"/></clipPath><clipPath id="clip-path-6"><path class="cls-1" d="M501.79,350.18,457,358.91s-23.82-22.93-12.58-37-7.39-38.06-15.69-52c-22.54-37.73,25.38-55.14.65-105.94-6.58-13.51-24-37-16.9-53.43,8.14-18.66,24.31-11.32,28.39-25.69,6.37-22.46,26.59-38.67,48.36-28.42,21.48,10.11,20.83,50-7.38,94.58-16.45,34-13.69,40.71-3.83,55.58,6.9,10.42,32.53,34.09,21.77,53.08s-17.2,37.14-4.77,46.81C514,321.19,501.79,350.18,501.79,350.18Z"/></clipPath><clipPath id="clip-path-7"><path class="cls-1" d="M515,370.85l-69.93,18.81c-6.72-8.22-16.79-24-3.36-32.19,18.67-11.37,9.31-45.19.25-55.57-11.22-12.84-36.68-43.25-8.1-61.24,23.79-15,42.3-20.1,34.89-52.2s5.14-56.87,36.12-63.42c32.6-6.89,47.13-54.3,77.29-48.14,52.55,10.73,31.49,91.82-18.21,127.38s-12.29,45.6-3.23,71c12.37,34.73-40.52,41.22-49.86,58.8C503.54,347.88,509.87,362.34,515,370.85Z"/></clipPath><linearGradient id="linear-gradient" x1="457.61" y1="444.81" x2="600.28" y2="444.81" gradientUnits="userSpaceOnUse"><stop offset="0" stop-color="#444b8c"/><stop offset="1" stop-color="#26264f"/></linearGradient><linearGradient id="linear-gradient-2" x1="462.56" y1="446.33" x2="605.02" y2="446.33" gradientUnits="userSpaceOnUse"><stop offset="0" stop-color="#698ce0"/><stop offset="1" stop-color="#3380db"/></linearGradient><clipPath id="clip-path-8"><path class="cls-1" d="M595.73,441.13c0,34.23-26.39,64.91-59.79,68.61-34.38,3.81-63-22.25-63-58.31s28.61-66.92,63-68.87C569.34,380.66,595.73,406.9,595.73,441.13Z"/></clipPath><linearGradient id="linear-gradient-3" x1="557.82" y1="395.43" x2="537.36" y2="458.87" gradientUnits="userSpaceOnUse"><stop offset="0" stop-color="#ab316d"/><stop offset="1" stop-color="#792d3d"/></linearGradient><linearGradient id="linear-gradient-4" x1="533.29" y1="408.76" x2="533.57" y2="461.29" gradientUnits="userSpaceOnUse"><stop offset="0" stop-color="#f7cccf"/><stop offset="1" stop-color="#f7cca8"/></linearGradient><linearGradient id="linear-gradient-5" x1="543.54" y1="390.52" x2="522.33" y2="456.27" xlink:href="#linear-gradient-3"/><linearGradient id="linear-gradient-6" x1="277.63" y1="450.88" x2="428.07" y2="450.88" xlink:href="#linear-gradient"/><linearGradient id="linear-gradient-7" x1="282.85" y1="452.43" x2="433.06" y2="452.43" xlink:href="#linear-gradient-2"/><clipPath id="clip-path-9"><path class="cls-1" d="M423.28,447c0,35.14-27.82,66.66-63,70.5-36.26,4-66.44-22.77-66.44-59.81S324,389,360.25,386.94C395.46,385,423.28,411.9,423.28,447Z"/></clipPath><linearGradient id="linear-gradient-8" x1="330.84" y1="550.4" x2="402.1" y2="502.89" gradientUnits="userSpaceOnUse"><stop offset="0" stop-color="#e38ddd"/><stop offset="1" stop-color="#9571f6"/></linearGradient><linearGradient id="linear-gradient-9" x1="357.44" y1="488.74" x2="356.87" y2="454.17" gradientUnits="userSpaceOnUse"><stop offset="0" stop-color="#aa80f9"/><stop offset="1" stop-color="#6165d7"/></linearGradient><linearGradient id="linear-gradient-10" x1="357.74" y1="492.13" x2="357.55" y2="462.22" xlink:href="#linear-gradient-3"/><linearGradient id="linear-gradient-11" x1="353.29" y1="487.07" x2="369.86" y2="287.64" gradientUnits="userSpaceOnUse"><stop offset="0" stop-color="#f7cca8"/><stop offset="1" stop-color="#f7cccf"/></linearGradient><linearGradient id="linear-gradient-12" x1="353.88" y1="425.12" x2="367.07" y2="384.18" gradientUnits="userSpaceOnUse"><stop offset="0" stop-color="#311944"/><stop offset="1" stop-color="#6b3976"/></linearGradient><linearGradient id="linear-gradient-13" x1="353.91" y1="425.01" x2="367.2" y2="383.79" xlink:href="#linear-gradient-12"/><linearGradient id="linear-gradient-14" x1="264.7" y1="211.4" x2="438.98" y2="211.4" xlink:href="#linear-gradient"/><linearGradient id="linear-gradient-15" x1="270.97" y1="211.44" x2="444.93" y2="211.44" xlink:href="#linear-gradient-2"/><clipPath id="clip-path-10"><path class="cls-1" d="M433.63,210.93c0,41.32-32.15,75.95-72.9,77.37-42,1.47-77-32.7-77-76.36s35-78.31,77-77.4C401.48,135.41,433.63,169.6,433.63,210.93Z"/></clipPath><linearGradient id="linear-gradient-16" x1="422.91" y1="167.48" x2="331.57" y2="347.29" gradientUnits="userSpaceOnUse"><stop offset="0" stop-color="#444b8c"/><stop offset="1" stop-color="#3e4177"/></linearGradient><linearGradient id="linear-gradient-17" x1="354.49" y1="214.15" x2="365.56" y2="269.24" gradientUnits="userSpaceOnUse"><stop offset="0" stop-color="#ffc444"/><stop offset="1" stop-color="#f36f56"/></linearGradient><linearGradient id="linear-gradient-18" x1="353.63" y1="254.49" x2="363.8" y2="254.49" xlink:href="#linear-gradient-16"/><linearGradient id="linear-gradient-19" x1="349.56" y1="282.06" x2="368.69" y2="282.06" xlink:href="#linear-gradient-16"/><linearGradient id="linear-gradient-20" x1="366.98" y1="143.74" x2="353.49" y2="227.05" xlink:href="#linear-gradient-4"/><linearGradient id="linear-gradient-21" x1="359.88" y1="160.91" x2="353.29" y2="201.61" xlink:href="#linear-gradient"/><linearGradient id="linear-gradient-22" x1="387.97" y1="147.64" x2="374.59" y2="230.25" xlink:href="#linear-gradient-4"/><linearGradient id="linear-gradient-23" x1="347.32" y1="139.99" x2="333.71" y2="224.01" xlink:href="#linear-gradient-4"/><linearGradient id="linear-gradient-24" x1="96.8" y1="457.86" x2="255.2" y2="457.86" xlink:href="#linear-gradient"/><linearGradient id="linear-gradient-25" x1="102.27" y1="457.7" x2="260.42" y2="457.7" xlink:href="#linear-gradient-2"/><clipPath id="clip-path-11"><path class="cls-1" d="M250.13,457.47c0,35.95-29.28,65.95-66.34,67-38.18,1.12-70-28.67-70-66.58s31.79-67.92,70-67.05C220.85,391.72,250.13,421.53,250.13,457.47Z"/></clipPath><linearGradient id="linear-gradient-26" x1="279.97" y1="299.04" x2="92.89" y2="653.34" xlink:href="#linear-gradient-3"/><linearGradient id="linear-gradient-27" x1="181.75" y1="505.04" x2="174.66" y2="631.82" xlink:href="#linear-gradient"/><linearGradient id="linear-gradient-28" x1="181.44" y1="463.82" x2="181.72" y2="516.75" gradientUnits="userSpaceOnUse"><stop offset="0" stop-color="#f36f56"/><stop offset="1" stop-color="#ffc444"/></linearGradient><linearGradient id="linear-gradient-29" x1="189.19" y1="386.56" x2="176.88" y2="469.49" xlink:href="#linear-gradient-4"/><linearGradient id="linear-gradient-30" x1="219.58" y1="371.5" x2="148.18" y2="506.71" gradientUnits="userSpaceOnUse"><stop offset="0" stop-color="#ab316d"/><stop offset="1" stop-color="#5b2d3d"/></linearGradient><linearGradient id="linear-gradient-31" x1="175.08" y1="352.12" x2="535.38" y2="352.12" xlink:href="#linear-gradient"/><linearGradient id="linear-gradient-32" x1="358.08" y1="336.68" x2="361.33" y2="336.68" xlink:href="#linear-gradient"/></defs><g class="cls-2"><g id="Layer_2" data-name="Layer 2"><g id="Layer_1-2" data-name="Layer 1"><path class="cls-3" d="M663.93,291c-11.37-74.19-43.56-146.05-100.28-199.34A336.25,336.25,0,0,0,342.88.15a339.8,339.8,0,0,0-34.14.71C153.29,12,23.65,129.32,2.87,280.15c-24.36,176.86,109.72,336,274.7,361.46C482.77,673.31,710.26,593.35,663.93,291Z"/><g class="cls-4"><g class="cls-5"><path class="cls-6" d="M369.4,690.71l-49.31,35.7s-27.59-18.58-28.43-45.18c-1.71-54.26-49.12-49-69.3-49.73-30.45-1.15-53.24-14.6-39.09-44.26,16-33.57-35.1-55.09-84.53-49.85-48.38,5.13-85.41-77.9,18.27-98.62,61.92-12.37,90.32,42.21,111.22,66.36s60.78-1.46,70.45,39.52c8.26,35,1.17,70,30.8,76.76S375.8,647.65,369.4,690.71Z"/><g class="cls-7"><path class="cls-8" d="M351.37,710.74l-1.16.55c-.34-.72-34.92-72.51-90.66-133.34-51.35-56-131.69-114-222.82-71.75L36.19,505c40.56-18.81,82.4-19.66,124.34-2.55,33.51,13.66,67.15,38.77,100,74.61C316.38,638.08,351,710,351.37,710.74Z"/><path class="cls-8" d="M177.75,510.39l-1.13.62c-20.6-37.48-69.05-76.83-69.54-77.22l.81-1C108.38,433.18,157,472.7,177.75,510.39Z"/><path class="cls-8" d="M149.49,499.76c-50.84,3.53-76,37.71-76.25,38l-1-.75c.25-.35,25.74-35,77.2-38.58Z"/><path class="cls-8" d="M293.82,619.7c-47.16-40.65-122.62-4.37-123.33-4l-.72-1.06c.66-.48,77.31-37,124.89,4Z"/><path class="cls-8" d="M279.09,598.68l-1.17.52c-16.26-36.25,2.23-82.68,2.42-83.14l1.19.48C281.34,517,263.06,562.93,279.09,598.68Z"/><path class="cls-8" d="M344.52,700.11c-15.33-18-53.55-13.39-53.93-13.35l-.16-1.27c1.59-.2,39.29-4.76,55.07,13.79Z"/><path class="cls-8" d="M336.56,683l-1.15.57c-8.26-16.78,2.27-49.75,5.73-60.59.49-1.53.91-2.85.94-3.1l1.28.13a32.47,32.47,0,0,1-1,3.36C338.94,634.08,328.53,666.69,336.56,683Z"/></g></g><path class="cls-9" d="M174.34,513.16c-5.33,12.7,1.14,24.38,7.14,32.1a13.71,13.71,0,0,1,3.46.36c12.18,1.69,17.74-.19,30-.42,2.64,0,10.35-2.55,13.44-3.77l5.71-2.38s8.61-30.5-8.11-37.28-12.22-36.79-11.8-53c.26-9.94-2.8-14.57-3.29-18.24-5.2-38.83,5.7-51.26-3.75-62.85-10.43-12.8-26.7-1.31-38.78-14.63-13.64-15-2.06-39.79-18.15-51.13a25.89,25.89,0,0,0-10.05-4.82c-10.87-2.32-19,4.52-27.29-3.67C96.32,277,70.75,272.78,56.8,292.38,43,311.73,63.15,346.15,109.6,371.2c31,21.59,31.9,28.77,30.59,46.57-.91,12.46-11.64,45.66,7.05,56.93S180.44,498.65,174.34,513.16Z"/><g class="cls-10"><g class="cls-11"><path class="cls-12" d="M208.61,546.21l.89-.18c-.95-4.9-2-9.83-3.05-14.65a486.39,486.39,0,0,0-33.39-99.84A397.12,397.12,0,0,0,130.34,360,341.55,341.55,0,0,0,87.53,312.9a283.39,283.39,0,0,0-33-25.91c-1.94-1.29-4-2.51-6-3.69-2.66-1.57-5.41-3.19-7.88-5l-.57.67c2.5,1.84,5.27,3.47,7.94,5,2,1.17,4,2.39,6,3.67a281.43,281.43,0,0,1,32.87,25.83,340.51,340.51,0,0,1,42.71,47,396.71,396.71,0,0,1,42.63,71.39,485.64,485.64,0,0,1,33.34,99.68C206.64,536.39,207.66,541.32,208.61,546.21Z"/><path class="cls-12" d="M148.22,387.57l.79-.43c-18.3-31.18-7.42-92.63-7.3-93.25l-.89-.11C140.71,294.4,129.77,356.14,148.22,387.57Z"/><path class="cls-12" d="M191.05,479.28l.84-.34c-9.73-22.65-57.68-36.64-58.16-36.78l-.3.81C133.91,443.1,181.48,457,191.05,479.28Z"/><path class="cls-12" d="M195.37,492.61l.88-.19c-3.41-15.7,1-39.13,12.37-66,.57-1.35.57-1.35.54-1.51l-.89.19.45-.09-.44-.07c0,.09-.25.6-.5,1.19C196.33,453.15,191.92,476.76,195.37,492.61Z"/><path class="cls-12" d="M206.74,537.29l.79-.42c-8.93-15.37-36.63-19.36-36.91-19.4l-.17.84C170.73,518.34,198,522.27,206.74,537.29Z"/><path class="cls-12" d="M210,546.16c2.57-14.22,9.57-28.37,21.4-43.25l-.72-.48c-11.91,15-19,29.26-21.57,43.62Z"/><path class="cls-12" d="M95.76,321.85l.76-.47c-11.22-16.77-18.76-37-21.24-43.6a23.31,23.31,0,0,0-.93-2.36l-.78.44c.08.14.42,1.06.86,2.22C76.91,284.74,84.48,305,95.76,321.85Z"/><path class="cls-12" d="M118.43,346.43l.6-.65c-15.14-11.95-55.42-8-57.13-7.88l.06.83C62.38,338.69,103.58,334.7,118.43,346.43Z"/></g></g><path class="cls-13" d="M261.77,638.44c2.92-1.13-4.47-15.8-.61-37.86,1-5.52,4.12-36,26.25-42.25l12.88-3.67c1.33-10.65.6-20.93-13.46-21.42-21.85-.75-30.28-34.82-27.46-48.3,3.48-16.69,10.76-55.68-23-57.35-28.08-1.39-46.72,3.22-56-28.39S148,352.15,117.83,361.63c-31.8,10-67.7-24.22-91-4.06C-13.69,392.68,44.42,453,105.18,459.66s33.07,33.72,37.64,60.33a47,47,0,0,0,3.73,10.38c12.9,25.77,42.56,23.44,68.45,40.77C250.32,594.76,256.86,640.33,261.77,638.44Z"/><g class="cls-14"><g class="cls-11"><path class="cls-12" d="M260,562l1.43-.66c-46.37-97.95-143.07-172-252.37-193.36l-.37,1.46C117.56,390.62,213.85,464.41,260,562Z"/><path class="cls-12" d="M229.88,510.8l1.53-.38c-9.78-41.48,20-83.19,20.33-83.6l-1.27-.82C250.17,426.42,220,468.67,229.88,510.8Z"/><path class="cls-12" d="M251,544.17l1.18-1c-29.78-31.73-111.58-16.78-112.4-16.63L140,528C140.82,527.83,221.77,513.05,251,544.17Z"/><path class="cls-12" d="M154.64,434.5l1.26-.92c-21.21-27.1-11.25-79.46-11.15-80l-1.53-.22C143.11,353.9,133,406.9,154.64,434.5Z"/><path class="cls-12" d="M94.61,398l.5-1.43C56.28,385.18,6,409.43,5.48,409.67L6.15,411C6.65,410.75,56.38,386.79,94.61,398Z"/></g></g></g><g class="cls-15"><path class="cls-9" d="M469.53,541.11,530,548.05s14.94-29.72,2.63-53.31c-25.11-48.13,18.8-66.77,36-77.33,26-15.92,39.25-38.82,12.38-57.74-30.41-21.41,3.58-65.22,49.23-84.88,44.68-19.25,36.25-109.77-64.27-77-60,19.58-58,81.07-64.41,112.37s-53.69,28.52-42,69c10,34.56,33.31,61.61,10.78,82S442.84,506.72,469.53,541.11Z"/><g class="cls-7"><path class="cls-8" d="M495.06,549.73l1.28-.09c0-.79-5.11-80.32,13.65-160.66,17.28-74,58.89-163.91,159-171.78l-.1-1.28c-44.58,3.5-81.46,23.26-109.63,58.74-22.5,28.34-39.51,66.71-50.56,114C489.93,469.24,495,548.93,495.06,549.73Z"/><path class="cls-8" d="M548.16,290h1.28C549,247.21,572,189.16,572.19,188.58L571,188.1C570.77,188.69,547.74,247,548.16,290Z"/><path class="cls-8" d="M567.58,266.87c46-21.85,84.72-4.4,85.11-4.22l.54-1.16c-.39-.18-39.59-17.9-86.21,4.22Z"/><path class="cls-8" d="M500.59,442.17c21.17-58.55,104.73-63.93,105.55-63.91l.1-1.28c-.8-.09-85.5,5.68-106.86,64.75Z"/><path class="cls-8" d="M503.12,416.62l1.28-.12c-3.61-39.56-42.48-71-42.87-71.27l-.81,1C461.11,346.54,499.56,377.61,503.12,416.62Z"/><path class="cls-8" d="M495.82,537.11c4.53-23.22,40.1-37.93,40.46-38.08l-.48-1.19c-1.49.61-36.58,15.12-41.24,39Z"/><path class="cls-8" d="M494.37,518.29l1.28-.07c-1-18.67-26.37-42.25-34.7-50-1.18-1.09-2.19-2-2.34-2.24l-1.05.74a29.1,29.1,0,0,0,2.52,2.44C468.31,476.83,493.37,500.14,494.37,518.29Z"/></g></g><path class="cls-6" d="M495,306.49c10.88,8.45,11,21.8,9.51,31.47a13.92,13.92,0,0,0-2.83,2c-9.79,7.45-15.56,8.54-26.36,14.36-2.33,1.25-10.28,2.85-13.56,3.29l-6.15.73S433.19,336,444.43,321.88s-7.39-38.06-15.69-52c-5.11-8.54-4.7-14.08-6.07-17.52-14.51-36.4-30.11-41.89-27.55-56.62,2.81-16.27,22.62-14.23,26.62-31.76,4.52-19.8-17.71-35.69-9.25-53.47a25.94,25.94,0,0,1,6.4-9.12c8.34-7.35,18.82-5.4,22-16.57,6.37-22.46,26.59-38.67,48.36-28.42,21.48,10.11,20.83,50-7.38,94.58-16.45,34-13.69,40.71-3.83,55.58,6.9,10.42,32.53,34.09,21.77,53.08S482.6,296.82,495,306.49Z"/><g class="cls-16"><g class="cls-11"><path class="cls-12" d="M481.36,352.1l-.86.27c-1.57-4.74-3.09-9.54-4.52-14.26a486.68,486.68,0,0,1-19.85-103.39,397.11,397.11,0,0,1,2.17-83.29,342.55,342.55,0,0,1,14.21-62,283.76,283.76,0,0,1,16-38.75c1.05-2.07,2.25-4.15,3.41-6.15,1.55-2.67,3.15-5.44,4.42-8.23l.82.31c-1.28,2.83-2.89,5.61-4.45,8.3-1.15,2-2.35,4.05-3.39,6.11a283.27,283.27,0,0,0-16,38.63,340.91,340.91,0,0,0-14.18,61.89A396.89,396.89,0,0,0,457,234.62a486.28,486.28,0,0,0,19.81,103.23C478.27,342.57,479.79,347.36,481.36,352.1Z"/><path class="cls-12" d="M456.23,184.22h-.9c.66-36.14-39-84.37-39.36-84.85l.72-.54C417.1,99.33,456.89,147.78,456.23,184.22Z"/><path class="cls-12" d="M463.85,285.15l-.89.11c-2.63-24.5,32.31-60.21,32.66-60.57l.65.56C495.92,225.61,461.27,261,463.85,285.15Z"/><path class="cls-12" d="M466.63,298.89l-.86.26c-4.73-15.36-20-33.63-43.13-51.44-1.16-.9-1.16-.9-1.21-1.05l.86-.27-.43.14.35-.28c.07.07.51.41,1,.8C446.45,265,461.86,283.38,466.63,298.89Z"/><path class="cls-12" d="M478.63,343.4l-.9,0c.24-17.78,22.44-34.83,22.66-35l.55.65C500.72,309.23,478.87,326,478.63,343.4Z"/><path class="cls-12" d="M480.15,352.72c-9.22-11.13-22.25-20-39.86-27.2l.39-.78c17.74,7.23,30.88,16.21,40.19,27.45Z"/><path class="cls-12" d="M469.73,101.22l-.9,0c1.57-20.12-1.76-41.42-2.86-48.42-.26-1.7-.35-2.3-.35-2.51h.9c0,.17.15,1.14.34,2.36C468,59.64,471.3,81,469.73,101.22Z"/><path class="cls-12" d="M462,133.76l-.84-.28c7.33-17.83,44.35-34.19,45.93-34.87l.35.76C507.08,99.53,469.22,116.26,462,133.76Z"/></g></g><path class="cls-13" d="M515.11,436.87c-3.1.45-3.85-16-18-33.3-3.54-4.33-21.22-29.31-43.59-23.95l-13,3.12c-6.37-8.64-10.79-18,1.24-25.27,18.67-11.37,9.31-45.19.25-55.57-11.22-12.84-36.68-43.25-8.1-61.24,23.79-15,42.3-20.1,34.89-52.2s5.14-56.87,36.12-63.42c32.6-6.89,47.13-54.3,77.29-48.14,52.55,10.73,31.49,91.82-18.21,127.38s-12.29,45.6-3.23,71a46.26,46.26,0,0,1,1.84,10.88c1.39,28.79-25.6,41.3-39.68,69.09C503.67,393.18,520.32,436.11,515.11,436.87Z"/><g class="cls-17"><g class="cls-11"><path class="cls-12" d="M479.13,369.35l-1.57.13C470,261.37,517.91,149.38,602.72,77.22l1,1.1C519.3,150.18,471.55,261.69,479.13,369.35Z"/><path class="cls-12" d="M480.32,310l-1.51.41c-11.81-40.94-58.25-62.68-58.72-62.89l.71-1.34C421.27,246.39,468.32,268.4,480.32,310Z"/><path class="cls-12" d="M478.3,349.42l-1.53-.31c10.4-42.26,89-69.33,89.81-69.6l.5,1.39C566.3,281.17,488.5,308,478.3,349.42Z"/><path class="cls-12" d="M508.49,206.6l-1.55-.19c5.21-34-29.14-74.77-29.49-75.18l1.22-.94C479,130.7,513.8,172,508.49,206.6Z"/><path class="cls-12" d="M542.91,145.32l-1.15-1c28.29-28.93,84-32.45,84.57-32.49l.06,1.49C625.84,113.35,570.75,116.84,542.91,145.32Z"/></g></g><path class="cls-18" d="M575.54,174.55c0-16.05-9.38-29.46-21.13-30L121.66,126.52c-.48,0-1,0-1.43,0-9.09.18-16.91,5.6-21.71,13.93a37.11,37.11,0,0,0-4.66,18.64v24.21h0V563.11a39,39,0,0,0,.43,6.74c.09.54.12,1.07.24,1.6a34.74,34.74,0,0,0,1.85,6c3.36,8,9.5,13.91,17,16a22.72,22.72,0,0,0,8.35.79L455.84,563h0l98.57-9.3c11.75-1.1,21.13-15.05,21.13-31.11V195.4h0Z"/><path class="cls-19" d="M566.38,144.34l-434.32-18.1c-15.53-.65-28.23,14-28.23,32.62V563.57c0,18.66,12.7,32.61,28.23,31.15l434.32-40.58c11.79-1.11,21.28-15,21.28-31.11V174.34C587.66,158.26,578.17,144.83,566.38,144.34Z"/><path class="cls-3" d="M132.06,584c-10.54,1-19.17-8.56-19.17-21.21V159.15c0-12.65,8.63-22.61,19.17-22.2L566.38,153.7c8,.31,14.52,9.47,14.52,20.43V523.6c0,10.95-6.5,20.45-14.52,21.17Z"/><path class="cls-20" d="M566.38,144.34l-434.32-18.1c-15.53-.65-28.23,14-28.23,32.62V183.1l483.83,12.13V174.34C587.66,158.26,578.17,144.83,566.38,144.34Z"/><path class="cls-19" d="M153.86,156.22c0,5.48-4.05,9.81-9.07,9.68s-9.12-4.71-9.12-10.22,4.09-9.84,9.12-9.68S153.86,150.74,153.86,156.22Z"/><path class="cls-19" d="M185.35,157.17c0,5.43-4,9.72-8.9,9.58s-9-4.66-9-10.12,4-9.75,9-9.59S185.35,151.74,185.35,157.17Z"/><path class="cls-19" d="M216.27,158.09c0,5.38-3.91,9.64-8.74,9.51s-8.8-4.63-8.8-10,4-9.66,8.8-9.51S216.27,152.71,216.27,158.09Z"/><polygon class="cls-20" points="562.81 480.82 136.71 510.3 136.71 493.2 562.81 465.82 562.81 480.82"/><polygon class="cls-20" points="562.81 517.61 136.71 552.26 136.71 535.15 562.81 502.61 562.81 517.61"/><g class="cls-21"><path class="cls-19" d="M403.93,343c-50.35-89.33-139.25-58.69-196.67-159.95a245.38,245.38,0,0,1-22.44-54.64l-52.76-2.2c-15.53-.65-28.23,14-28.23,32.62V563.57c0,18.66,12.7,32.61,28.23,31.15l335.32-31.33a344,344,0,0,1-25.94-56.45C412.48,425.53,434,396.31,403.93,343Z"/></g><path class="cls-22" d="M531.1,518.45c-40,4.59-73.49-25.71-73.49-67.68s33.53-77.87,73.49-80c38.66-2,69.18,28.52,69.18,68S569.76,514,531.1,518.45Z"/><path class="cls-23" d="M535.94,519.92c-39.9,4.59-73.38-25.67-73.38-67.62s33.48-77.82,73.38-79.92c38.6-2,69.08,28.49,69.08,68S574.54,515.47,535.94,519.92Z"/><path class="cls-19" d="M600.39,440.74c0,36.9-28.42,70-64.45,74.09-37.17,4.2-68.17-23.94-68.17-63s31-72.37,68.17-74.4C572,375.5,600.39,403.85,600.39,440.74Z"/><g class="cls-24"><path class="cls-25" d="M528,399.14a34.88,34.88,0,0,0-28,18.32c-6,11.89,2,16.79-1.91,35.57-3.62,17.31-12.09,21.05-10.69,32.06,1.53,12.05,13.09,18.6,17.64,21.18,20.42,11.56,52.07,7.64,68-11.6,1.33-1.61,12.3-14.83,9.34-25.66-2.65-9.69-14-8.64-16.38-18.77-2-8.74,5.75-12.38,5-25.24-.15-2.52-.83-14.44-9.51-19.19-5.78-3.16-12.15-1.52-14.49-.79A29.49,29.49,0,0,0,528,399.14Z"/><path class="cls-26" d="M467.77,499.56s60-41.95,132.62-13.74c0,0-9.17,31.26-64.45,39.24C477.94,533.43,467.77,499.56,467.77,499.56Z"/><path class="cls-27" d="M525.42,447l-2.23,17.31A17.55,17.55,0,0,1,513.08,478l-18.24,8.17s34.83,13.69,78.3-7.92l-19.74-5.15a13.76,13.76,0,0,1-9.72-13l-.57-14.49Z"/><path class="cls-28" d="M552.35,429.75c0,14.37-8.38,30.56-18.79,31.5s-19.08-14-19.08-28.57,8.58-23.17,19.08-23.88S552.35,415.38,552.35,429.75Z"/><path class="cls-29" d="M541.89,417.54c-5.65.71-14.23,2.74-20.19,9.64-10,11.61-5.26,28.36-9.73,29.77-4,1.25-10.16-10.45-10.06-23.89.09-11.26,3.83-24.78,13.56-28.76,5.71-2.33,7.38.73,25.69,1.36,10.62.37,6.46,5.58,8.85,7.25,10.57,7.39,9.24,34.27,3.54,35.1C550.85,448.4,547.11,441.71,541.89,417.54Z"/></g><path class="cls-30" d="M355.14,526.49c-42.14,4.77-77.51-26.31-77.51-69.42s35.37-80,77.51-82.19c40.76-2.1,72.93,29.24,72.93,69.81S395.9,521.89,355.14,526.49Z"/><path class="cls-31" d="M360.25,528c-42.09,4.77-77.4-26.27-77.4-69.35s35.31-80,77.4-82.14c40.69-2.11,72.81,29.2,72.81,69.73S400.94,523.38,360.25,528Z"/><path class="cls-19" d="M428.18,446.63c0,37.88-29.95,71.91-67.93,76.14-39.2,4.36-71.91-24.5-71.91-64.59s32.71-74.35,71.91-76.46C398.23,379.67,428.18,408.76,428.18,446.63Z"/><g class="cls-32"><path class="cls-33" d="M286.15,562.9c-5.85-14.88,2.4-40,7.59-51.46,15.09-33.23,42.63-35.26,65-36.91,21.87-1.6,42.85-3.15,58.12,21,9.93,15.71,19.05,44.8,13,60.76-6.4,16.82-24.23,4.85-67,6.61C315.11,564.86,293.44,581.43,286.15,562.9Z"/><path class="cls-34" d="M379.43,477.25c0,4.06-9.87,9.29-22.09,9.72s-22.24-4.13-22.24-8.22,10-2.6,22.24-3S379.43,473.18,379.43,477.25Z"/><path class="cls-35" d="M349.18,449.77c-3.38.1,4.42,23.66-7.87,27.34a1.36,1.36,0,0,0-.3,2.51c3.3,1.69,9.48,3.74,19.58,3.39a25.49,25.49,0,0,0,13.82-4.63,1.35,1.35,0,0,0-.15-2.32c-3.76-1.82-9-7.86-7.42-26.21Z"/><path class="cls-36" d="M378.38,432.36a7.7,7.7,0,0,0-2.94,1.42c.46-7.57.2-13.62.2-13.62s-3.58-9-18.29-8.37-18.45,14-18.45,14,.21,4,.79,9.2a8,8,0,0,0-3.34-1.53c-2.93-.4-4.84,7.24-.84,12.06,2.12,2.56,4.41,2.56,6.09,2a52.36,52.36,0,0,0,3.34,11c1.42,3.07,8.47,2.48,13,2,4-.45,10.14.8,11.88-2,1.89-3,3.18-7.24,4.05-11.76,1.57.22,3.51-.19,5.32-2.5C383.14,439.28,381.26,431.8,378.38,432.36Z"/><path class="cls-37" d="M339.94,437.22c.39.71.84,1.36,1.14,1.28,1.25-.37-3.58-12.46.87-16.86,2.3-2.27,4.89-.32,14.28-1s11.84-3,14.69-1.33c2.59,1.52,4.9,6,3,19.38l1.6-.42c-.72-4.36.06-7.14,1-8.9.65-1.29,1.84-2.95,1.75-5.32-.06-1.46-.54-1.51-.62-2.71-.23-3.51,3.75-4.55,3.94-8,.15-2.68-2.14-3.23-1.72-6,.35-2.39,2.14-2.87,1.86-4.58s-2.7-3.17-4.38-3.62-2.34.11-3.35-.57c-1.62-1.09-.84-3.12-2-3.83-2.09-1.29-6.26,4.1-9,2.84-1.63-.76-1-3.16-2.45-3.71-2.8-1.06-7.75,6.93-9.74,5.93-1-.48,0-2.42-1.38-3.81-1.57-1.62-5.35-1.54-7.07.26s-.25,3.6-1.95,5.72c-1.53,1.9-3.3,1.17-5,2.71-2.94,2.61-1.92,8.34-1.55,10.38,1.25,7,5.16,8.37,4.28,13.21a11.07,11.07,0,0,0-.37,4.63A9.2,9.2,0,0,0,339.94,437.22Z"/><g class="cls-38"><path class="cls-39" d="M375.82,421.05c-.34-3.45,2.31-5.12,1.87-7.57-.36-2-2.58-3.7-4.68-4-4.46-.71-7.35,6-11.8,5.37-3.44-.47-3.06-4.66-6.95-6.25-6.17-2.52-12.66,5.77-16.78,3.61-1.24-.64-2.49-2.36-2.58-7.08-2.37,2.77-1.44,8-1.09,9.91,1.25,7,5.16,8.37,4.28,13.21a11.07,11.07,0,0,0-.37,4.63,9.2,9.2,0,0,0,2.22,4.37c.39.71.84,1.36,1.14,1.28,1.25-.37-3.58-12.46.87-16.86,2.3-2.27,4.89-.32,14.28-1s11.84-3,14.69-1.33c2.59,1.52,4.9,6,3,19.38l1.6-.42c-.72-4.36.06-7.14,1-8.9.27-.53.63-1.13.95-1.81a15.58,15.58,0,0,0-.67-3.72C376.28,422.3,375.93,422.16,375.82,421.05Z"/></g></g><path class="cls-40" d="M354.62,300.65c-48.86,1.93-89.92-37.81-89.92-88.66s41.06-91.14,89.92-89.87c47.17,1.23,84.36,41,84.36,88.7S401.79,298.79,354.62,300.65Z"/><path class="cls-41" d="M360.73,300.6C312,302.53,271,262.82,271,212s41-91.06,89.76-89.79c47.08,1.22,84.2,41,84.2,88.61S407.81,298.74,360.73,300.6Z"/><path class="cls-19" d="M439.29,210.89c0,44.53-34.6,81.93-78.56,83.56-45.43,1.7-83.38-35.2-83.38-82.47s37.95-84.67,83.38-83.59C404.69,129.43,439.29,166.36,439.29,210.89Z"/><g class="cls-42"><path class="cls-43" d="M437.42,316c-7.86,11-24.73,4.29-75.55,5.22-54.07,1-73.23,8.37-81.94-3.35-8-10.82-1.38-49.95,8.19-60.93C299,244.48,314.45,240.56,334.44,239c7.82-.6,16.32-.83,25.49-1.08,8.75-.22,16.52-.43,23.5-.29,17.29.34,29.74,2.78,40.16,12.15C437.2,262,445.86,304.15,437.42,316Z"/><path class="cls-44" d="M383.43,237.65a12.37,12.37,0,0,1-.32,2.22c-2.68,10.68-8.55,33-14.42,48.52-4.05,10.69-8.11,18.1-11.1,16.11-2.35-1.55-5.16-7-8-14.27-5.83-14.65-11.88-36.48-14.77-47.35a12.76,12.76,0,0,1-.35-3.86c7.82-.6,16.32-.83,25.49-1.08C368.68,237.72,376.45,237.51,383.43,237.65Z"/><path class="cls-45" d="M346.64,213.31s3.46,25-1.33,27.39l13.62,14.9L372.68,238s-5.19-3.94-3.82-24.57Z"/><polygon class="cls-46" points="353.63 250.26 363.8 249.88 360.61 259.09 355.38 259.1 353.63 250.26"/><path class="cls-47" d="M368.69,288.75c-4.05,10.7-8.11,17.93-11.1,15.94-2.35-1.56-5.16-6.77-8-14l5.82-31.59h5.23Z"/><path class="cls-48" d="M379.18,195.07c0,15.44-9.08,32.15-20.38,32.29s-20.71-16.58-20.71-32.28S347.4,170.9,358.8,171,379.18,179.63,379.18,195.07Z"/><path class="cls-49" d="M337.47,199.05l3.43-.56c-.52-1.29-2.69-7,0-11.94,2.59-4.77,8.66-7.06,13.28-6.72,5.25.38,8.4,2.87,11,1,1.48-1.07,2-3,2.13-4.53a14.37,14.37,0,0,0,1.06,4c1.95,4.57,5.24,5.54,7,8.56,1.2,2,2,5.43,0,11.41l3-.19a84.14,84.14,0,0,0,3.08-13.94c1.16-8.65,2-14.6-1.33-17.53-.66-.58-3.56-2.91-10.52-.82a24.26,24.26,0,0,0-10.39-6.66c-1.84-.58-11-3.46-19.1,2.42-5.53,4-9.88,11.55-8.48,17.84.74,3.32,2.76,4.82,4.53,11.25A43.17,43.17,0,0,1,337.47,199.05Z"/><path class="cls-50" d="M376.36,200.78s1.3-6.77,5.26-6.1-1.71,11.75-5.26,13.1Z"/><path class="cls-51" d="M340.66,200.87s-1.34-6.87-5.44-6.18S337,206.64,340.66,208Z"/></g><path class="cls-52" d="M178.44,535.41c-44.38,1.49-81.64-33.16-81.64-77.29s37.26-79,81.64-77.84c42.9,1.16,76.76,35.83,76.76,77.32S221.34,534,178.44,535.41Z"/><path class="cls-53" d="M183.79,535.19c-44.32,1.49-81.52-33.14-81.52-77.23s37.2-79,81.52-77.78c42.83,1.16,76.63,35.8,76.63,77.26S226.62,533.76,183.79,535.19Z"/><path class="cls-19" d="M255.29,457.45c0,38.75-31.52,71.14-71.5,72.4-41.28,1.3-75.73-30.88-75.73-71.91s34.45-73.44,75.73-72.41C223.77,386.52,255.29,418.71,255.29,457.45Z"/><g class="cls-54"><path class="cls-55" d="M128.7,507.4c-4-11.2,11.07-15.6,13-42,.13-1.8,2.68-37.85,8.36-44.9a14.53,14.53,0,0,1,1.6-1.68c2.83-2.21,7.21-2.07,22.78-8.78,13.29-5.73,12.52-5.55,14.23-5.9,10-2,24.62,6.57,29.44,18.33,4.31,10.54-.87,19.78,6.86,38.26h0c9.55,26.58,14.32,39.84,10,48.44C221.82,535.36,137.73,532.49,128.7,507.4Z"/><path class="cls-56" d="M108.06,508.07s66.62-39,147.23-3.28c0,0-10.17,32.05-71.5,35.8C119.36,544.53,108.06,508.07,108.06,508.07Z"/><path class="cls-57" d="M172.1,457.73l-2.47,18a16.79,16.79,0,0,1-11.22,13.45l-20.27,7.06s38.69,17.31,86.93-1.74l-21.91-7.07a16,16,0,0,1-10.78-14.49l-.63-15.28Z"/><path class="cls-58" d="M202,441.85c0,15.09-9.29,31.4-20.85,31.5S160,457.07,160,441.72s9.53-23.62,21.19-23.48S202,426.75,202,441.85Z"/><path class="cls-59" d="M159.25,451.62c2-.11-.9-16,6.92-20.46,5.18-2.92,14.15-.25,19.19,4.94,7.92,8.17,3.49,19.93,9.48,22.41,3.81,1.57,8.87-1.82,11.3-4.28,7.56-7.7,6.53-23.94-2.41-33.15-7.15-7.35-16.87-7.68-19.19-7.69-13.29-.05-25.54,9.55-28.35,20.94C154,443.1,157.75,451.7,159.25,451.62Z"/></g><path class="cls-60" d="M533.76,364.94a1.61,1.61,0,0,1-1.63-1.59V336.18l-353.79,4.65v28.64a1.66,1.66,0,0,1-1.63,1.74,1.59,1.59,0,0,1-1.63-1.68V339c0-1,.22-1.46,1.18-1.48L534.14,333c.87,0,1.24.47,1.24,1.36v28.9A1.67,1.67,0,0,1,533.76,364.94Z"/><path class="cls-61" d="M359.71,368a1.6,1.6,0,0,1-1.63-1.64V307a1.65,1.65,0,0,1,1.63-1.68,1.61,1.61,0,0,1,1.62,1.65v59.35A1.66,1.66,0,0,1,359.71,368Z"/></g></g></g></svg>