<svg xmlns="http://www.w3.org/2000/svg" xmlns:xlink="http://www.w3.org/1999/xlink" viewBox="0 0 1741.65 1310.41"><defs><style>.cls-1{mask:url(#mask);filter:url(#luminosity-noclip-2);}.cls-2,.cls-95{mix-blend-mode:multiply;}.cls-2{fill:url(#linear-gradient);}.cls-3{isolation:isolate;}.cls-4{opacity:0.45;}.cls-5{fill:#abe9ff;}.cls-6{fill:#231f20;opacity:0.15;}.cls-7{fill:#66e8c4;}.cls-8{fill:#3fd2c5;}.cls-9{fill:#35bfe6;}.cls-10{fill:#0a88d2;}.cls-11{fill:#49d3d5;}.cls-12{fill:#0fa1b8;}.cls-13{fill:#66e8c7;}.cls-14{fill:#cadbf9;}.cls-15{fill:#a1b7eb;}.cls-16{fill:#3380db;}.cls-17{fill:#e7e4f9;}.cls-18{fill:#0053a5;}.cls-19{fill:#e1e3e2;}.cls-20{fill:#4764c7;}.cls-21{fill:#c5cfcc;}.cls-22{fill:#0a0b08;}.cls-23{fill:#d54b07;}.cls-24{fill:#ce5d4f;}.cls-25{fill:#af3600;}.cls-26{fill:#edf0ee;}.cls-27{fill:#dde0dd;}.cls-27,.cls-36{opacity:0.83;}.cls-28{fill:#f89e1b;}.cls-29{fill:#cf7a28;}.cls-30{fill:#a01d3b;}.cls-31{fill:#0ea954;}.cls-32{fill:#009748;}.cls-33{fill:#253d95;}.cls-34{fill:#ff6c3c;}.cls-35{fill:#edf0ef;}.cls-36{fill:#dee1de;}.cls-37{fill:#fab001;}.cls-38{fill:#ffc71f;}.cls-39{fill:#ea9d03;}.cls-40{fill:#60abef;}.cls-41{fill:#1d1d1b;}.cls-42{fill:#070707;}.cls-43{fill:#262625;}.cls-44{fill:#fbba13;}.cls-45{fill:#fff;opacity:0.1;}.cls-46{fill:#8e89c4;}.cls-47{fill:#56569b;}.cls-48{fill:#fba700;}.cls-49{fill:#ffd415;}.cls-50{fill:#fbfeff;}.cls-51{fill:#ffaf5d;}.cls-52{fill:#eb8511;}.cls-53{fill:#ffb017;}.cls-54{fill:#fdce14;}.cls-55{fill:#fe920c;}.cls-56{fill:#feb05b;}.cls-57{fill:#ffeb67;}.cls-58{fill:orange;}.cls-59{fill:#eb860d;}.cls-60{fill:#ffef04;}.cls-61{fill:#f9f7f7;}.cls-62{fill:#29478c;}.cls-63{fill:#d9dfe8;}.cls-64{fill:#bdc3db;}.cls-65{fill:#2f488b;}.cls-66{fill:#22313b;}.cls-67{fill:#3f4752;}.cls-68{fill:#2f3740;}.cls-69{fill:#2d313d;}.cls-70{fill:#fcc596;}.cls-71{fill:#f8e8d8;}.cls-72{fill:#330e00;}.cls-73{fill:#286bce;}.cls-74{fill:#68a9ea;}.cls-75{mask:url(#mask-2);}.cls-76{fill:url(#linear-gradient-2);}.cls-77{fill:#d38753;}.cls-78{fill:#de3d73;}.cls-79{fill:#3f3e3c;}.cls-80{fill:#f4be84;}.cls-81{fill:#171649;}.cls-82{fill:#fdc596;}.cls-83{fill:#e55daa;}.cls-84{fill:#e2a36a;}.cls-85{fill:#476291;}.cls-86{fill:#3e5c87;}.cls-87{fill:#5775aa;}.cls-88{fill:#ff77c4;}.cls-89{fill:#feb48c;}.cls-90{fill:#ba6549;}.cls-91{fill:#ed65b2;}.cls-92{fill:#db52a3;}.cls-93{fill:#8394b4;}.cls-94,.cls-95{fill:#a5c0d7;}.cls-95{opacity:0.2;}.cls-96{fill:#bad6f2;}.cls-97{fill:#f6f7f4;}.cls-98{fill:#6d3c12;}.cls-99{fill:#d6a183;}.cls-100{fill:#fbc0a4;}.cls-101{fill:#213267;}.cls-102{fill:#31467a;}.cls-103{fill:#c1dbf7;}.cls-104{fill:#f85a7d;}.cls-105{fill:#fdce99;}.cls-106{fill:#0e0e24;}.cls-107{fill:#314452;}.cls-108{fill:#22333d;}.cls-109{fill:#efb386;}.cls-110{fill:#221e52;}.cls-111{fill:#ea4477;}.cls-112{filter:url(#luminosity-noclip);}</style><filter id="luminosity-noclip" x="1165.88" y="-8699.54" width="40.13" height="32766" filterUnits="userSpaceOnUse" color-interpolation-filters="sRGB"><feFlood flood-color="#fff" result="bg"/><feBlend in="SourceGraphic" in2="bg"/></filter><mask id="mask" x="1165.88" y="-8699.54" width="40.13" height="32766" maskUnits="userSpaceOnUse"><g class="cls-112"/></mask><linearGradient id="linear-gradient" x1="-227.06" y1="846.92" x2="-196.44" y2="930.56" gradientTransform="matrix(-1, 0, 0, 1, 953.94, 0)" gradientUnits="userSpaceOnUse"><stop offset="0" stop-color="#fff"/><stop offset="0.06" stop-color="#ececec"/><stop offset="0.41" stop-color="#888"/><stop offset="0.7" stop-color="#3f3f3f"/><stop offset="0.9" stop-color="#111"/><stop offset="1"/></linearGradient><filter id="luminosity-noclip-2" x="1165.88" y="829.04" width="40.13" height="100.45" filterUnits="userSpaceOnUse" color-interpolation-filters="sRGB"><feFlood flood-color="#fff" result="bg"/><feBlend in="SourceGraphic" in2="bg"/></filter><mask id="mask-2" x="1165.88" y="829.04" width="40.13" height="100.45" maskUnits="userSpaceOnUse"><g class="cls-1"><path class="cls-2" d="M1168.84,848.67c-2.38-.56-2.49-8-2.49-8l-.47-11.24c0-.06,0-.12.07-.17.59,0,1.7-.19,2.24-.22l36.72,4.07c-.14.43,1.33,3.49,1.07,4.35-2.13,6.26-9,15.27-10.36,15.49-1.61.25-5.72-4.45-6.27-6-.84.76-2.29,3-3.13,3.8-.45,10.94,0,25.34.12,38.65l-14.85,38.32c-.46.62-.93,1.2-1.4,1.76L1168.72,897q6.21-23.49,12.43-47c-1.32-1.8-3-3.14-4.33-4.94A11.53,11.53,0,0,1,1168.84,848.67Z"/></g></mask><linearGradient id="linear-gradient-2" x1="-227.06" y1="846.92" x2="-196.44" y2="930.56" gradientTransform="matrix(-1, 0, 0, 1, 953.94, 0)" gradientUnits="userSpaceOnUse"><stop offset="0" stop-color="#cfd4d8"/><stop offset="1" stop-color="#cfd4d8"/></linearGradient></defs><g class="cls-3"><g id="Layer_2" data-name="Layer 2"><g id="Layer_1-2" data-name="Layer 1"><g class="cls-4"><path class="cls-5" d="M17,440.23h0c0-101.8,88.52-184.34,197.71-184.34H256c-19.29-15.57-31.52-38.55-31.52-64.2h0c0-46.89,40.78-84.91,91.07-84.91H452.76c-13.88-11.14-22.7-27.61-22.7-46C430.06,27.2,459.23,0,495.22,0H839.88C875.87,0,905,27.2,905,60.75s-29.17,60.76-65.16,60.76h-129c-24,15.28-39.81,41-39.81,70.18h0c0,25.65,12.22,48.63,31.51,64.2H914.77c109.2,0,197.71,82.54,197.71,184.34h0c0,101.81-88.51,184.34-197.71,184.34H1196c50.29,0,91.07,38,91.07,84.91s-40.78,84.91-91.07,84.91h114.57c125.17,0,229.07,84.61,249.7,195.82h40.11c78.05,0,141.32,59,141.32,131.76v13.35c0,72.77-63.27,131.76-141.32,131.76H270.48c-140,0-253.49-105.82-253.49-236.35h0C17,900.2,130.48,794.39,270.48,794.39H714.25c-50.29,0-91.07-38-91.07-84.91s40.78-84.91,91.07-84.91H214.7C105.51,624.57,17,542,17,440.23Z"/><ellipse class="cls-5" cx="1024.56" cy="60.75" rx="59.2" ry="60.75"/></g><ellipse class="cls-6" cx="879.32" cy="1269.76" rx="857.84" ry="40.65"/><path class="cls-7" d="M95.4,1203.88c2.69-2,8.14.39,25.86-7,25.84-10.76,35.93-66.37,35.93-66.37-39.32-4.93-36.83,51.73-52,61.42-6.86,4.37-10.09,8.6-11.58,11.94Z"/><path class="cls-8" d="M145,1147.08c-8.08,16.48-17.62,40.79-33.73,48.54a37.65,37.65,0,0,0-10.23,7c3.88-.48,10-1.5,20.23-5.75,25.84-10.76,35.93-66.37,35.93-66.37S153.08,1130.6,145,1147.08Z"/><path class="cls-9" d="M78.82,1203.88h4.26c2.77-5.89,3.66-17-5.6-37.28-17.14-37.62-25.79-86.4-13.85-100.74,0,0-40.89,29.15-31.59,59.47C40.76,1153.79,84.7,1172.74,78.82,1203.88Z"/><path class="cls-10" d="M80.55,1203.88h2.53c2.77-5.89,3.66-17-5.6-37.28-17.14-37.62-25.79-86.4-13.85-100.74,0,0-27,30-16.75,58.76C57,1153,88.15,1167.78,80.55,1203.88Z"/><path class="cls-11" d="M38.44,1188c15.56,6.34,22.22,10.56,26.56,15.9h5.46c-4.08-12.35-6.52-25.56-16.11-35.55-10.88-11.33-52.83-30-54.27-32.17S17.41,1179.41,38.44,1188Z"/><path class="cls-12" d="M65.66,1200.39c.32,1,.8,2.19,1.36,3.49h3.44c-4.08-12.35-6.52-25.56-16.11-35.55-10.88-11.33-52.83-30-54.27-32.17,0,0,20.36,25.54,43,37.21C59.3,1181.73,63.59,1194.08,65.66,1200.39Z"/><path class="cls-13" d="M90.63,1186.05a59,59,0,0,1-4,17.83h3c10.22-13.19,25.93-38.79,23-68.68-4.3-43.69-9-98.45-9-98.45s-57.5,43.6-29.2,92C88.52,1152.82,91.62,1172,90.63,1186.05Z"/><path class="cls-8" d="M93.54,1105.46c5.83,36.2,5.91,76.73-3.38,93.88,1.69-1.2,3.51-2.46,5.36-3.74,9.36-14.26,19.49-35.89,17.08-60.4-4.3-43.69-9-98.45-9-98.45S86,1058.35,93.54,1105.46Z"/><path class="cls-14" d="M124.43,1201.23H59a9.34,9.34,0,0,0-9.21,10.94l8.36,48.17a14.5,14.5,0,0,0,14.24,11.79H111a14.5,14.5,0,0,0,14.24-11.79l8.36-48.17A9.35,9.35,0,0,0,124.43,1201.23Z"/><path class="cls-15" d="M133.77,1210.89a9.35,9.35,0,0,0-9.34-9.66H59a9.34,9.34,0,0,0-9.34,9.66Z"/><path class="cls-15" d="M124.43,1201.23h-18.2a9.35,9.35,0,0,1,9.21,10.94l-8.36,48.17a14.5,14.5,0,0,1-14.24,11.79H111a14.5,14.5,0,0,0,14.24-11.79l8.36-48.17A9.35,9.35,0,0,0,124.43,1201.23Z"/><path class="cls-7" d="M1661.89,1203.88c2.69-2,8.14.39,25.86-7,25.84-10.76,35.93-66.37,35.93-66.37-39.32-4.93-36.84,51.73-52,61.42-6.87,4.37-10.1,8.6-11.58,11.94Z"/><path class="cls-8" d="M1711.48,1147.08c-8.08,16.48-17.63,40.79-33.73,48.54a37.49,37.49,0,0,0-10.23,7c3.88-.48,10-1.5,20.23-5.75,25.84-10.76,35.93-66.37,35.93-66.37S1719.56,1130.6,1711.48,1147.08Z"/><path class="cls-9" d="M1645.31,1203.88h4.26c2.77-5.89,3.66-17-5.61-37.28-17.13-37.62-25.78-86.4-13.84-100.74,0,0-40.9,29.15-31.6,59.47C1607.25,1153.79,1651.19,1172.74,1645.31,1203.88Z"/><path class="cls-10" d="M1647,1203.88h2.53c2.77-5.89,3.66-17-5.61-37.28-17.13-37.62-25.78-86.4-13.84-100.74,0,0-27,30-16.75,58.76C1623.48,1153,1654.64,1167.78,1647,1203.88Z"/><path class="cls-11" d="M1604.92,1188c15.57,6.34,22.22,10.56,26.56,15.9H1637c-4.09-12.35-6.52-25.56-16.11-35.55-10.88-11.33-52.84-30-54.28-32.17S1583.9,1179.41,1604.92,1188Z"/><path class="cls-12" d="M1632.15,1200.39c.32,1,.8,2.19,1.36,3.49H1637c-4.09-12.35-6.52-25.56-16.11-35.55-10.88-11.33-52.84-30-54.28-32.17,0,0,20.37,25.54,43,37.21C1625.79,1181.73,1630.08,1194.08,1632.15,1200.39Z"/><path class="cls-13" d="M1657.12,1186.05a58.67,58.67,0,0,1-4,17.83h3c10.22-13.19,25.93-38.79,23-68.68-4.3-43.69-9-98.45-9-98.45s-57.5,43.6-29.21,92C1655,1152.82,1658.1,1172,1657.12,1186.05Z"/><path class="cls-8" d="M1660,1105.46c5.83,36.2,5.91,76.73-3.38,93.88,1.69-1.2,3.5-2.46,5.36-3.74,9.36-14.26,19.49-35.89,17.08-60.4-4.3-43.69-9-98.45-9-98.45S1652.44,1058.35,1660,1105.46Z"/><path class="cls-14" d="M1690.92,1201.23h-65.45a9.35,9.35,0,0,0-9.21,10.94l8.37,48.17a14.49,14.49,0,0,0,14.24,11.79h38.65a14.5,14.5,0,0,0,14.24-11.79l8.37-48.17A9.35,9.35,0,0,0,1690.92,1201.23Z"/><path class="cls-15" d="M1700.25,1210.89a9.34,9.34,0,0,0-9.33-9.66h-65.45a9.34,9.34,0,0,0-9.33,9.66Z"/><path class="cls-15" d="M1690.92,1201.23h-18.2a9.35,9.35,0,0,1,9.21,10.94l-8.37,48.17a14.49,14.49,0,0,1-14.24,11.79h18.2a14.5,14.5,0,0,0,14.24-11.79l8.37-48.17A9.35,9.35,0,0,0,1690.92,1201.23Z"/><rect class="cls-16" x="323.19" y="576.9" width="160.58" height="677.48"/><rect class="cls-17" x="323.19" y="1209.76" width="160.58" height="22.31"/><rect class="cls-18" x="483.77" y="576.9" width="40.47" height="677.48" transform="translate(1008.01 1831.29) rotate(180)"/><rect class="cls-19" x="358.19" y="737.82" width="91.06" height="289.04" rx="45.53"/><path class="cls-20" d="M358.19,785v21.81h91.06V785a48,48,0,0,0-9.61-28.9H367.8A48,48,0,0,0,358.19,785Z"/><path class="cls-20" d="M358.19,968v11.67a48.66,48.66,0,0,0,2,13.69h87.13a48.66,48.66,0,0,0,2-13.69V968Z"/><circle class="cls-21" cx="403.72" cy="1119.84" r="30.82" transform="translate(-764.18 1350.13) rotate(-81.33)"/><path class="cls-22" d="M425.29,1119.84a21.57,21.57,0,1,1-21.57-21.57A21.57,21.57,0,0,1,425.29,1119.84Z"/><rect class="cls-23" x="517.4" y="576.9" width="160.58" height="677.48"/><rect class="cls-17" x="517.4" y="1209.76" width="160.58" height="22.31"/><rect class="cls-24" x="677.98" y="576.9" width="40.47" height="677.48" transform="translate(1396.42 1831.29) rotate(180)"/><rect class="cls-19" x="552.4" y="737.82" width="91.06" height="289.04" rx="45.53"/><path class="cls-24" d="M552.4,785v21.81h91.06V785a48,48,0,0,0-9.61-28.9H562A48,48,0,0,0,552.4,785Z"/><path class="cls-24" d="M552.4,968v11.67a49,49,0,0,0,2,13.69H641.5a49,49,0,0,0,2-13.69V968Z"/><circle class="cls-21" cx="597.93" cy="1119.84" r="30.82" transform="translate(-582.3 652.27) rotate(-40.29)"/><path class="cls-22" d="M619.5,1119.84a21.57,21.57,0,1,1-21.57-21.57A21.57,21.57,0,0,1,619.5,1119.84Z"/><path class="cls-23" d="M581.25,1157.12v-17.94H163.18c-21.48,0-38.9,25.71-38.9,57.42v.36c0,31.71,17.42,57.42,38.9,57.42H581.25v-17.93C568.25,1196,581.25,1157.12,581.25,1157.12Z"/><path class="cls-25" d="M254.64,1139.18h30.22c-12.47,10.78-21,32.42-21,57.4v.4c0,25,8.52,46.62,21,57.4H254.64c-21.49,0-38.9-25.71-38.9-57.42v-.36C215.74,1164.89,233.15,1139.18,254.64,1139.18Z"/><path class="cls-25" d="M581.25,1139.18h-205c-17.18,0-31.11,20.56-31.11,45.91v23.38c0,25.36,13.93,45.91,31.11,45.91h205v-17.93c-13-40.48,0-79.33,0-79.33Z"/><path class="cls-26" d="M378.43,1157.12c-11.83,0-21.42,14.15-21.42,31.61v16.1c0,17.46,9.59,31.62,21.42,31.62H581.25c-11.38-39.67,0-79.33,0-79.33Z"/><path class="cls-27" d="M581.25,1157.12H378.43c-11.83,0-21.42,14.15-21.42,31.61v8H576.2A165.93,165.93,0,0,1,581.25,1157.12Z"/><path class="cls-28" d="M134.3,1064.67v-13.74H571.89c22.49,0,40.72,19.7,40.72,44v.27c0,24.29-18.23,44-40.72,44H134.3v-13.74C147.92,1094.43,134.3,1064.67,134.3,1064.67Z"/><path class="cls-29" d="M134.3,1050.93H348.89c18,0,32.56,15.75,32.56,35.17V1104c0,19.42-14.58,35.17-32.56,35.17H134.3v-13.74c13.62-31,0-60.77,0-60.77Z"/><path class="cls-26" d="M346.6,1064.67c12.38,0,22.42,10.84,22.42,24.22v12.33c0,13.38-10,24.22-22.42,24.22H134.3c11.92-30.38,0-60.77,0-60.77Z"/><path class="cls-27" d="M134.3,1064.67H346.6c12.38,0,22.42,10.84,22.42,24.22v6.17H139.59A95.78,95.78,0,0,0,134.3,1064.67Z"/><path class="cls-30" d="M339.72,1086.1s-2.16,2.91-2.43,9.61-3.23,14.56-3.23,14.56l-7-7.57-7.55,7.57s2.42-9.32,2.42-14.27,3.78-9.9,3.78-9.9Z"/><path class="cls-31" d="M155,988.56V977H524.47c19,0,34.38,16.63,34.38,37.14v.23c0,20.51-15.39,37.14-34.38,37.14H155v-11.6C166.51,1013.69,155,988.56,155,988.56Z"/><path class="cls-32" d="M155,977H336.19c15.18,0,27.49,13.3,27.49,29.7v15.12c0,16.4-12.31,29.69-27.49,29.69H155v-11.6c11.5-26.18,0-51.31,0-51.31Z"/><path class="cls-26" d="M334.25,988.56c10.46,0,18.93,9.16,18.93,20.45v10.41c0,11.3-8.47,20.45-18.93,20.45H155c10.06-25.65,0-51.31,0-51.31Z"/><path class="cls-27" d="M155,988.56H334.25c10.46,0,18.93,9.16,18.93,20.45v5.21H159.48A81.12,81.12,0,0,0,155,988.56Z"/><path class="cls-33" d="M328.44,1006.66s-1.82,2.46-2.05,8.11a46.66,46.66,0,0,1-2.73,12.29l-5.92-6.39-6.37,6.39s2.05-7.86,2.05-12,3.19-8.36,3.19-8.36Z"/><path class="cls-23" d="M897.6,1116.46V1091H1568c34.45,0,62.38,36.45,62.38,81.42v.51c0,45-27.93,81.42-62.38,81.42H897.6V1229C918.46,1171.56,897.6,1116.46,897.6,1116.46Z"/><path class="cls-34" d="M1568,1091H1297.28a52.65,52.65,0,0,0-1.66,13v74.35c0,26.27,19.09,47.56,42.64,47.56h277c9.36-14.24,15-32.74,15-53v-.51C1630.33,1127.48,1602.4,1091,1568,1091Z"/><path class="cls-25" d="M897.6,1091h328.73c27.55,0,49.88,29.15,49.88,65.1v33.15c0,36-22.33,65.1-49.88,65.1H897.6V1229c20.86-57.39,0-112.49,0-112.49Z"/><path class="cls-35" d="M1222.82,1116.46c19,0,34.35,20.07,34.35,44.83v22.83c0,24.76-15.38,44.83-34.35,44.83H897.6c18.25-56.24,0-112.49,0-112.49Z"/><path class="cls-36" d="M897.6,1116.46h325.22c19,0,34.35,20.07,34.35,44.83v11.42H905.7C905.33,1140.45,897.6,1116.46,897.6,1116.46Z"/><path class="cls-37" d="M1570.85,879.48V863.39H1043.22c-27.12,0-49.1,23.07-49.1,51.53v.31c0,28.46,22,51.53,49.1,51.53h527.63V950.67C1554.44,914.35,1570.85,879.48,1570.85,879.48Z"/><path class="cls-38" d="M1043.22,863.39h213a27.4,27.4,0,0,1,1.3,8.22v47c0,16.62-15,30.1-33.56,30.1H1005.94a52.88,52.88,0,0,1-11.82-33.53v-.31C994.12,886.46,1016.1,863.39,1043.22,863.39Z"/><path class="cls-6" d="M1158.64,863.39h38.14c-15.73,9.68-26.49,29.09-26.49,51.51v.36c0,22.41,10.76,41.83,26.49,51.5h-38.14c-27.12,0-43-23.32-43-51.78v-.54C1115.66,886,1131.52,863.39,1158.64,863.39Z"/><path class="cls-39" d="M1570.85,863.39H1312.11c-21.68,0-39.26,18.44-39.26,41.2v21c0,22.76,17.58,41.2,39.26,41.2h258.74V950.67c-16.41-36.32,0-71.19,0-71.19Z"/><path class="cls-35" d="M1314.87,879.48c-14.93,0-27,12.7-27,28.37V922.3c0,15.67,12.1,28.37,27,28.37h256c-14.36-35.59,0-71.19,0-71.19Z"/><path class="cls-36" d="M1570.85,879.48h-256c-14.93,0-27,12.7-27,28.37v7.23h276.64A109.55,109.55,0,0,1,1570.85,879.48Z"/><path class="cls-16" d="M1622.28,986.06V966.77H984.41c-32.79,0-53.74,27.8-53.74,61.91v.38c0,34.11,21,61.61,53.74,61.61h637.87v-19.29C1602.43,1027.85,1622.28,986.06,1622.28,986.06Z"/><path class="cls-40" d="M930.67,1028.68v.38c0,14,3.56,26.79,10,37.1h270.72c17.74,0,32.12-16,32.12-35.77V966.77H984.4C951.62,966.77,930.67,994.57,930.67,1028.68Z"/><path class="cls-6" d="M1124,966.77h46.1c-19,11.6-32,34.87-32,61.74v.43c0,26.86,13,50.13,32,61.73H1124c-32.79,0-59.36-27.65-59.36-61.76v-.38C1064.59,994.42,1091.16,966.77,1124,966.77Z"/><path class="cls-18" d="M1622.28,966.77h-312.8c-26.22,0-47.46,22.11-47.46,49.38v25.14c0,27.27,21.24,49.38,47.46,49.38h312.8v-19.29c-19.85-43.53,0-85.32,0-85.32Z"/><path class="cls-35" d="M1312.82,986.06c-18,0-32.68,15.22-32.68,34v17.32c0,18.78,14.63,34,32.68,34h309.46c-17.36-42.66,0-85.32,0-85.32Z"/><path class="cls-36" d="M1622.28,986.06H1312.82c-18,0-32.68,15.22-32.68,34v8.66h334.44A130,130,0,0,1,1622.28,986.06Z"/><path class="cls-18" d="M1322.85,1016.15s3.15,4.09,3.54,13.49,4.71,20.45,4.71,20.45l10.22-10.63,11,10.63s-3.53-13.09-3.53-20-5.5-13.9-5.5-13.9Z"/><path class="cls-41" d="M1636.36,770.13l-115.89,35.16a1.61,1.61,0,0,1-.54.08l-211.16.4a1.84,1.84,0,0,1-.41,0l-114.9-25.6a1.86,1.86,0,0,1-.09-3.61l220.68-60.09a1.83,1.83,0,0,1,.9,0l221.28,50.13A1.86,1.86,0,0,1,1636.36,770.13Z"/><path class="cls-42" d="M1308.66,857.88a403.28,403.28,0,0,0,211.65-.4l-.15-76.83a237.64,237.64,0,0,0-211.65.4Z"/><path class="cls-43" d="M1308.66,861.35a405.77,405.77,0,0,0,211.65-.4q-.06-38.18-.14-76.35a239,239,0,0,0-211.65.4Q1308.59,823.18,1308.66,861.35Z"/><path class="cls-44" d="M1517.56,738.76a108.53,108.53,0,0,1,24.36-6.38c8.27-1.12,16.67-1.28,24.62.46a47.4,47.4,0,0,1,11.35,3.94,40.21,40.21,0,0,1,9.58,7,41.84,41.84,0,0,1,7.1,9.6,48.43,48.43,0,0,1,2.56,5.51c.36,1,.79,1.87,1.09,2.85l.9,3c.67,1.91,1,4.09,1.52,6.12L1602,777l1,6.28a63.47,63.47,0,0,1,.82,6.3l.59,6.32c.16,2.11.15,4.23.23,6.35l.1,3.16c0,1.06,0,2.12-.08,3.18-.07,2.11-.09,4.23-.21,6.33a147.46,147.46,0,0,1-3.81,25c-.46,2.05-1,4.07-1.64,6.08s-1.26,4-1.91,6-1.41,3.92-2.23,5.8c-.4.94-.8,1.89-1.23,2.79-.21.45-.42.93-.64,1.34s-.45.91-.6,1.18a6.18,6.18,0,0,0,2,8.39,5.94,5.94,0,0,0,8.17-2.31,3.65,3.65,0,0,0,.18-.34l0-.08c.35-.71.56-1.21.81-1.79s.47-1.1.69-1.66c.46-1.09.86-2.19,1.25-3.28.83-2.19,1.49-4.39,2.17-6.59s1.28-4.4,1.77-6.64,1-4.44,1.44-6.68a155.89,155.89,0,0,0,2.74-27c0-2.25-.07-4.5-.1-6.75,0-1.12,0-2.24-.1-3.36l-.27-3.36c-.2-2.23-.31-4.47-.59-6.69l-1-6.63c-.26-2.21-.73-4.39-1.2-6.56l-1.37-6.52-1.79-6.39c-.64-2.13-1.09-4.25-1.93-6.39l-1.14-3.19c-.39-1.06-.92-2.08-1.37-3.11a54.74,54.74,0,0,0-3.16-6,47,47,0,0,0-8.58-10.46A45,45,0,0,0,1580,732.3a52,52,0,0,0-12.63-3.71c-8.64-1.42-17.39-.78-25.84.79a110.88,110.88,0,0,0-24.64,7.75.93.93,0,0,0-.46,1.18.83.83,0,0,0,1.08.47Z"/><path class="cls-44" d="M1588.75,874.78c.68-6.5,2.5-10.16,5.2-11a8.92,8.92,0,0,1-.69-7.89A8.44,8.44,0,1,1,1609,862a8.85,8.85,0,0,1-5,5.07,9.93,9.93,0,0,1-2.42,8.82c-3.71,3.8-2.15,17.62-5.07,18.42s-15.81-3.48-16.42-7.21S1588,882.06,1588.75,874.78Z"/><path class="cls-45" d="M1496.41,866.67c-6.39,1.33-13.14,2.58-20.25,3.69L1476,768.11c7.38,2,14.17,4.12,20.27,6.33Z"/><path class="cls-45" d="M1472.48,870.91c-1.46.21-2.9.43-4.38.63l-.2-105.41c1.47.34,2.95.67,4.38,1Z"/><path class="cls-46" d="M814.06,1184.68c0,49-10.75,81.8-87.07,81.8-69.6,0-89.74-32.85-89.74-81.8a88.41,88.41,0,1,1,176.81,0Z"/><path class="cls-47" d="M773.92,1110.43a88.41,88.41,0,0,1,19.84,56c0,48.95-10.74,81.8-87.06,81.8-24.65,0-43.08-4.14-56.62-11.64,12.8,18.86,36.52,29.94,76.91,29.94,76.32,0,87.07-32.85,87.07-81.8A88.61,88.61,0,0,0,773.92,1110.43Z"/><path class="cls-46" d="M694.46,1090.88s-5.55-11.91-9.25-22.08-1.85-21.86,10.89-21.65,18.91-7.58,23-11.47,12.53-3,17.26,3.25,12.94,7.79,22.39,8.22,11.51,19.48,6,26-9.31,17.75-9.31,17.75Z"/><path class="cls-47" d="M689.71,1080.14c2.55,6,4.75,10.74,4.75,10.74h61s3.76-11.26,9.31-17.75c5.32-6.22,3.65-24-4.81-25.82C752.92,1078.06,704.06,1080.19,689.71,1080.14Z"/><rect class="cls-48" x="688.25" y="1089.11" width="72.22" height="13.72" rx="3.03"/><rect class="cls-49" x="741.37" y="1089.11" width="6.42" height="13.72"/><path class="cls-47" d="M706.47,1195.83A38.42,38.42,0,0,0,724.1,1200c7.26-.2,11-3.5,10.87-8.35-.13-4.62-3.52-7.18-12-10.14-11.73-4-19.48-10.61-19.78-21.4-.36-12.68,9.31-22.64,25.78-23.1a40.69,40.69,0,0,1,17.93,3.26l-3.14,13.65a31.67,31.67,0,0,0-14.71-3.13c-6.84.19-10.06,3.59-9.95,7.45.13,4.73,4.13,6.72,13.24,10.11,12.47,4.51,18.46,11.18,18.75,21.65.35,12.45-8.36,23.28-27.53,23.8-8,.22-15.91-1.77-19.92-4Z"/><rect class="cls-47" x="721.76" y="1204.93" width="11.91" height="17.3"/><rect class="cls-47" x="721.76" y="1128.97" width="11.91" height="16.08"/><path class="cls-50" d="M704.11,1198a38.42,38.42,0,0,0,17.63,4.14c7.26-.2,11-3.5,10.87-8.35-.13-4.62-3.52-7.18-12-10.14-11.73-4-19.48-10.61-19.78-21.4-.36-12.68,9.31-22.65,25.78-23.1a40.69,40.69,0,0,1,17.93,3.26l-3.14,13.65a31.62,31.62,0,0,0-14.7-3.13c-6.85.19-10.07,3.59-10,7.45.13,4.73,4.13,6.72,13.24,10.11,12.47,4.51,18.46,11.18,18.75,21.65.35,12.45-8.36,23.28-27.53,23.8-8,.22-15.91-1.77-19.92-4Z"/><rect class="cls-50" x="719.4" y="1207.14" width="11.91" height="17.3"/><rect class="cls-50" x="719.4" y="1131.17" width="11.91" height="16.08"/><path class="cls-51" d="M596.28,1260.15v-16.73a422.54,422.54,0,0,0,126.36,0v16.76a1.1,1.1,0,0,1,.08.4c0,4.49-28.26,8-63.18,8s-63.26-3.44-63.26-7.93Z"/><path class="cls-52" d="M596.28,1258.59v-16.72a422.54,422.54,0,0,0,126.36,0v16.75a1.19,1.19,0,0,1,.08.41c0,4.49-28.26,8-63.18,8s-63.26-3.44-63.26-7.94Z"/><path class="cls-53" d="M707.42,1264.26V1244c1.59-.22,3.17-.44,4.72-.68v20.16C710.69,1263.75,709.11,1264,707.42,1264.26Z"/><path class="cls-53" d="M694.15,1265.71v-20.16l3.3-.34v20.21C696.38,1265.53,695.27,1265.62,694.15,1265.71Z"/><path class="cls-53" d="M611.46,1264.26c-1.15-.17-2.26-.35-3.3-.53v-19.79h3.3Z"/><path class="cls-53" d="M703,1264.84v-20.27l1.59-.2v20.28Z"/><path class="cls-54" d="M596.16,1241.9c0-4.5,28.46-8,63.38-8s63.23,3.65,63.23,8.14-28.31,8.14-63.23,8.14S596.16,1246.4,596.16,1241.9Z"/><path class="cls-55" d="M604.05,1241.3c0-3.17,24.9-5.73,55.62-5.73s55.61,2.56,55.61,5.73-24.9,5.73-55.61,5.73S604.05,1244.46,604.05,1241.3Z"/><path class="cls-56" d="M642.08,1241.41c.24-.84,4-1.17,7.48-1.31a3.88,3.88,0,0,1,.68-1.78c-6.64.1-13.37,1-16,2.27H629l-1.18,1.34h5.51c.8,1.17,6.49,1.8,15,1.8,7.39,0,13.35-.43,17.48-2.48,2.6-1.28,4.7-1.67,9.22-1.75,4.06-.07,6.43.23,6.14,1.15s-2.94,1.5-8.55,1.71a5.07,5.07,0,0,1-1,1.65c7.76-.11,14.12-.78,17-2H694l1.18-1.34h-5c.61-2.16-5.65-2.59-15.74-2.54-7.84,0-14.38.59-18.77,2.68-2.44,1.16-4.07,1.45-7.91,1.49S641.92,1242,642.08,1241.41Z"/><path class="cls-51" d="M607.94,1241.51v-16.72a422.54,422.54,0,0,0,126.36,0v16.75a1.14,1.14,0,0,1,.08.4c0,4.5-28.26,8-63.19,8s-63.25-3.43-63.25-7.93C607.94,1241.83,607.93,1241.68,607.94,1241.51Z"/><path class="cls-52" d="M607.94,1240v-16.73a422.54,422.54,0,0,0,126.36,0V1240a1.1,1.1,0,0,1,.08.4c0,4.49-28.26,8-63.19,8s-63.25-3.44-63.25-7.93C607.94,1240.27,607.93,1240.13,607.94,1240Z"/><path class="cls-53" d="M719.07,1245.62v-20.26l4.72-.67v20.16C722.34,1245.12,720.77,1245.38,719.07,1245.62Z"/><path class="cls-53" d="M705.8,1247.08v-20.17l3.31-.34v20.22Z"/><path class="cls-53" d="M623.12,1245.62c-1.16-.17-2.26-.35-3.3-.53v-19.78h3.3Z"/><path class="cls-53" d="M714.63,1246.21v-20.27l1.59-.2V1246Z"/><path class="cls-51" d="M607.81,1223.26c0-4.49,28.46-8,63.38-8s63.24,3.64,63.24,8.14-28.31,8.13-63.24,8.13S607.81,1227.76,607.81,1223.26Z"/><path class="cls-55" d="M615.71,1222.66c0-3.16,24.9-5.73,55.61-5.73s55.61,2.57,55.61,5.73-24.9,5.73-55.61,5.73S615.71,1225.83,615.71,1222.66Z"/><path class="cls-56" d="M653.74,1222.77c.24-.83,4-1.16,7.48-1.3a3.9,3.9,0,0,1,.67-1.79c-6.64.11-13.36,1.06-15.95,2.28h-5.32l-1.18,1.34H645c.81,1.17,6.49,1.79,15,1.79,7.4,0,13.36-.43,17.49-2.47,2.59-1.29,4.69-1.67,9.21-1.76,4.06-.07,6.43.23,6.14,1.15s-2.94,1.51-8.55,1.71a5,5,0,0,1-1,1.66c7.76-.12,14.13-.79,17-2h5.44l1.18-1.34h-5c.62-2.15-5.65-2.58-15.74-2.53-7.84,0-14.37.59-18.77,2.68-2.44,1.15-4.07,1.45-7.91,1.48S653.58,1223.34,653.74,1222.77Z"/><path class="cls-51" d="M593.18,1222.87v-16.72a422.54,422.54,0,0,0,126.36,0v16.75a1.19,1.19,0,0,1,.08.41c0,4.49-28.26,8-63.19,8s-63.26-3.44-63.26-7.94C593.17,1223.19,593.17,1223,593.18,1222.87Z"/><path class="cls-52" d="M593.18,1221.32V1204.6a422.54,422.54,0,0,0,126.36,0v16.75a1.14,1.14,0,0,1,.08.4c0,4.5-28.26,8-63.19,8s-63.26-3.43-63.26-7.93C593.17,1221.64,593.17,1221.49,593.18,1221.32Z"/><path class="cls-53" d="M704.31,1227v-20.27c1.6-.21,3.17-.44,4.72-.67v20.16C707.58,1226.48,706,1226.74,704.31,1227Z"/><path class="cls-53" d="M691,1228.44v-20.16l3.3-.34v20.21Z"/><path class="cls-53" d="M608.36,1227c-1.16-.17-2.26-.34-3.3-.52v-19.79h3.3Z"/><path class="cls-53" d="M699.87,1227.57V1207.3l1.59-.2v20.28Z"/><path class="cls-51" d="M593.05,1204.63c0-4.5,28.46-8,63.38-8s63.24,3.64,63.24,8.14-28.31,8.14-63.24,8.14S593.05,1209.12,593.05,1204.63Z"/><path class="cls-55" d="M601,1204c0-3.16,24.9-5.73,55.61-5.73s55.61,2.57,55.61,5.73-24.9,5.74-55.61,5.74S601,1207.19,601,1204Z"/><path class="cls-56" d="M639,1204.14c.24-.84,4-1.17,7.48-1.31a3.9,3.9,0,0,1,.67-1.79c-6.64.11-13.36,1.06-16,2.28h-5.32l-1.18,1.33h5.51c.81,1.17,6.49,1.8,15,1.8,7.39,0,13.36-.44,17.49-2.48,2.59-1.28,4.69-1.67,9.21-1.75,4.06-.08,6.43.23,6.14,1.15s-2.94,1.5-8.55,1.71a5.07,5.07,0,0,1-1,1.65c7.76-.12,14.13-.78,17-2h5.44l1.19-1.34h-5c.62-2.16-5.65-2.59-15.74-2.54-7.84,0-14.37.59-18.77,2.68-2.44,1.16-4.07,1.45-7.91,1.48S638.81,1204.7,639,1204.14Z"/><path class="cls-51" d="M479,1260.15v-16.73a422.54,422.54,0,0,0,126.36,0v16.76a1.1,1.1,0,0,1,.08.4c0,4.49-28.27,8-63.19,8S479,1265.1,479,1260.61C479,1260.46,479,1260.32,479,1260.15Z"/><path class="cls-52" d="M479,1258.59v-16.72a422.54,422.54,0,0,0,126.36,0v16.75a1.19,1.19,0,0,1,.08.41c0,4.49-28.27,8-63.19,8s-63.26-3.44-63.26-7.94C479,1258.91,479,1258.76,479,1258.59Z"/><path class="cls-53" d="M590.11,1264.26V1244c1.6-.22,3.17-.44,4.72-.68v20.16C593.38,1263.75,591.81,1264,590.11,1264.26Z"/><path class="cls-53" d="M576.84,1265.71v-20.16l3.3-.34v20.21C579.07,1265.53,578,1265.62,576.84,1265.71Z"/><path class="cls-53" d="M494.16,1264.26c-1.16-.17-2.26-.35-3.31-.53v-19.79h3.31Z"/><path class="cls-53" d="M585.67,1264.84v-20.27l1.59-.2v20.28Z"/><path class="cls-54" d="M478.85,1241.9c0-4.5,28.46-8,63.38-8s63.23,3.65,63.23,8.14-28.31,8.14-63.23,8.14S478.85,1246.4,478.85,1241.9Z"/><path class="cls-55" d="M486.75,1241.3c0-3.17,24.9-5.73,55.61-5.73s55.61,2.56,55.61,5.73-24.9,5.73-55.61,5.73S486.75,1244.46,486.75,1241.3Z"/><path class="cls-56" d="M524.78,1241.41c.24-.84,4-1.17,7.48-1.31a3.75,3.75,0,0,1,.67-1.78c-6.64.1-13.36,1-15.95,2.27h-5.32l-1.18,1.34H516c.81,1.17,6.49,1.8,15,1.8,7.39,0,13.36-.43,17.49-2.48,2.59-1.28,4.69-1.67,9.21-1.75,4.06-.07,6.43.23,6.14,1.15s-2.94,1.5-8.55,1.71a5.07,5.07,0,0,1-1.05,1.65c7.76-.11,14.13-.78,17-2h5.44l1.19-1.34h-5c.62-2.16-5.65-2.59-15.74-2.54-7.84,0-14.37.59-18.77,2.68-2.44,1.16-4.07,1.45-7.91,1.49S524.61,1242,524.78,1241.41Z"/><path class="cls-51" d="M490.63,1241.51v-16.72a422.54,422.54,0,0,0,126.36,0v16.75a1.14,1.14,0,0,1,.08.4c0,4.5-28.26,8-63.18,8s-63.26-3.43-63.26-7.93C490.63,1241.83,490.62,1241.68,490.63,1241.51Z"/><path class="cls-52" d="M490.63,1240v-16.73a422.54,422.54,0,0,0,126.36,0V1240a1.1,1.1,0,0,1,.08.4c0,4.49-28.26,8-63.18,8s-63.26-3.44-63.26-7.93C490.63,1240.27,490.62,1240.13,490.63,1240Z"/><path class="cls-53" d="M601.77,1245.62v-20.26l4.71-.67v20.16C605,1245.12,603.46,1245.38,601.77,1245.62Z"/><path class="cls-53" d="M588.5,1247.08v-20.17l3.3-.34v20.22Z"/><path class="cls-53" d="M505.81,1245.62c-1.16-.17-2.26-.35-3.3-.53v-19.78h3.3Z"/><path class="cls-53" d="M597.32,1246.21v-20.27l1.59-.2V1246Z"/><path class="cls-51" d="M490.5,1223.26c0-4.49,28.46-8,63.39-8s63.23,3.64,63.23,8.14-28.31,8.13-63.23,8.13S490.5,1227.76,490.5,1223.26Z"/><path class="cls-55" d="M498.4,1222.66c0-3.16,24.9-5.73,55.61-5.73s55.61,2.57,55.61,5.73-24.89,5.73-55.61,5.73S498.4,1225.83,498.4,1222.66Z"/><path class="cls-56" d="M536.43,1222.77c.24-.83,4-1.16,7.48-1.3a4,4,0,0,1,.67-1.79c-6.63.11-13.36,1.06-15.94,2.28h-5.32l-1.19,1.34h5.52c.8,1.17,6.49,1.79,15,1.79,7.4,0,13.36-.43,17.49-2.47,2.59-1.29,4.7-1.67,9.21-1.76,4.07-.07,6.44.23,6.15,1.15s-2.95,1.51-8.55,1.71a5.17,5.17,0,0,1-1.05,1.66c7.75-.12,14.12-.79,17-2h5.44l1.18-1.34h-5c.61-2.15-5.66-2.58-15.75-2.53-7.83,0-14.37.59-18.76,2.68-2.44,1.15-4.08,1.45-7.91,1.48S536.27,1223.34,536.43,1222.77Z"/><path class="cls-51" d="M475.87,1222.87v-16.72a422.54,422.54,0,0,0,126.36,0v16.75a1.19,1.19,0,0,1,.08.41c0,4.49-28.26,8-63.18,8s-63.26-3.44-63.26-7.94C475.87,1223.19,475.86,1223,475.87,1222.87Z"/><path class="cls-52" d="M475.87,1221.32V1204.6a422.54,422.54,0,0,0,126.36,0v16.75a1.14,1.14,0,0,1,.08.4c0,4.5-28.26,8-63.18,8s-63.26-3.43-63.26-7.93C475.87,1221.64,475.86,1221.49,475.87,1221.32Z"/><path class="cls-53" d="M587,1227v-20.27c1.59-.21,3.16-.44,4.71-.67v20.16C590.28,1226.48,588.7,1226.74,587,1227Z"/><path class="cls-53" d="M573.74,1228.44v-20.16l3.3-.34v20.21Z"/><path class="cls-53" d="M491.05,1227c-1.16-.17-2.26-.34-3.3-.52v-19.79h3.3Z"/><path class="cls-53" d="M582.56,1227.57V1207.3l1.59-.2v20.28Z"/><path class="cls-51" d="M475.74,1204.63c0-4.5,28.46-8,63.39-8s63.23,3.64,63.23,8.14-28.31,8.14-63.23,8.14S475.74,1209.12,475.74,1204.63Z"/><path class="cls-55" d="M483.64,1204c0-3.16,24.9-5.73,55.61-5.73s55.61,2.57,55.61,5.73-24.89,5.74-55.61,5.74S483.64,1207.19,483.64,1204Z"/><path class="cls-56" d="M521.67,1204.14c.24-.84,4-1.17,7.48-1.31a4,4,0,0,1,.67-1.79c-6.63.11-13.36,1.06-15.94,2.28h-5.32l-1.19,1.33h5.51c.81,1.17,6.5,1.8,15,1.8,7.4,0,13.36-.44,17.49-2.48,2.59-1.28,4.7-1.67,9.21-1.75,4.06-.08,6.44.23,6.15,1.15s-2.95,1.5-8.55,1.71a5.24,5.24,0,0,1-1.05,1.65c7.75-.12,14.12-.78,17-2h5.44l1.18-1.34h-5c.62-2.16-5.65-2.59-15.74-2.54-7.83,0-14.37.59-18.77,2.68-2.43,1.16-4.07,1.45-7.91,1.48S521.51,1204.7,521.67,1204.14Z"/><path class="cls-51" d="M458.39,1204.24v-16.73a422.54,422.54,0,0,0,126.36,0v16.76a1.1,1.1,0,0,1,.08.4c0,4.49-28.26,8-63.19,8s-63.25-3.44-63.25-7.93C458.39,1204.55,458.38,1204.41,458.39,1204.24Z"/><path class="cls-52" d="M458.39,1202.69V1186a422.54,422.54,0,0,0,126.36,0v16.75a1.19,1.19,0,0,1,.08.41c0,4.49-28.26,8-63.19,8s-63.25-3.44-63.25-7.94C458.39,1203,458.38,1202.85,458.39,1202.69Z"/><path class="cls-53" d="M569.52,1208.35v-20.26c1.6-.22,3.17-.44,4.72-.68v20.16C572.79,1207.85,571.22,1208.11,569.52,1208.35Z"/><path class="cls-53" d="M556.25,1209.8v-20.16l3.31-.34v20.22Z"/><path class="cls-53" d="M473.57,1208.35c-1.16-.17-2.26-.35-3.3-.53V1188h3.3Z"/><path class="cls-53" d="M565.08,1208.93v-20.26l1.59-.2v20.27Z"/><path class="cls-54" d="M458.26,1186c0-4.49,28.46-8,63.38-8s63.24,3.65,63.24,8.14-28.31,8.14-63.24,8.14S458.26,1190.49,458.26,1186Z"/><path class="cls-55" d="M466.16,1185.39c0-3.17,24.9-5.73,55.61-5.73s55.61,2.56,55.61,5.73-24.9,5.73-55.61,5.73S466.16,1188.55,466.16,1185.39Z"/><path class="cls-56" d="M504.19,1185.5c.24-.84,4-1.17,7.48-1.31a3.86,3.86,0,0,1,.67-1.78c-6.64.1-13.36,1-16,2.27h-5.32l-1.18,1.34h5.51c.81,1.17,6.49,1.8,15,1.8,7.4,0,13.36-.43,17.49-2.48,2.59-1.28,4.69-1.67,9.21-1.75,4.06-.07,6.43.23,6.14,1.15s-2.94,1.51-8.55,1.71a5.21,5.21,0,0,1-1.05,1.66c7.76-.12,14.13-.79,17-2h5.45l1.18-1.34h-5c.62-2.16-5.65-2.59-15.74-2.54-7.84,0-14.37.59-18.77,2.68-2.44,1.16-4.07,1.45-7.91,1.49S504,1186.07,504.19,1185.5Z"/><path class="cls-51" d="M475.87,1185.6v-16.72a422.54,422.54,0,0,0,126.36,0v16.75a1.14,1.14,0,0,1,.08.4c0,4.5-28.26,8-63.18,8s-63.26-3.43-63.26-7.93C475.87,1185.92,475.86,1185.77,475.87,1185.6Z"/><path class="cls-52" d="M475.87,1184.05v-16.73a422.54,422.54,0,0,0,126.36,0v16.76a1.14,1.14,0,0,1,.08.4c0,4.49-28.26,8-63.18,8s-63.26-3.44-63.26-7.93C475.87,1184.36,475.86,1184.22,475.87,1184.05Z"/><path class="cls-53" d="M587,1189.72v-20.27c1.59-.21,3.16-.44,4.71-.67v20.16C590.28,1189.21,588.7,1189.47,587,1189.72Z"/><path class="cls-53" d="M573.74,1191.17V1171l3.3-.34v20.21Z"/><path class="cls-53" d="M491.05,1189.71c-1.16-.17-2.26-.34-3.3-.52V1169.4h3.3Z"/><path class="cls-53" d="M582.56,1190.3V1170l1.59-.2v20.27Z"/><path class="cls-54" d="M475.74,1167.35c0-4.49,28.46-7.95,63.39-7.95s63.23,3.64,63.23,8.14-28.31,8.14-63.23,8.14S475.74,1171.85,475.74,1167.35Z"/><path class="cls-55" d="M483.64,1166.75c0-3.16,24.9-5.73,55.61-5.73s55.61,2.57,55.61,5.73-24.89,5.73-55.61,5.73S483.64,1169.92,483.64,1166.75Z"/><path class="cls-56" d="M521.67,1166.86c.24-.83,4-1.16,7.48-1.3a4,4,0,0,1,.67-1.79c-6.63.11-13.36,1.06-15.94,2.28h-5.32l-1.19,1.34h5.51c.81,1.17,6.5,1.79,15,1.79,7.4,0,13.36-.43,17.49-2.47,2.59-1.29,4.7-1.67,9.21-1.76,4.06-.07,6.44.23,6.15,1.15s-2.95,1.51-8.55,1.71a5.17,5.17,0,0,1-1.05,1.66c7.75-.12,14.12-.79,17-2h5.44l1.18-1.34h-5c.62-2.15-5.65-2.58-15.74-2.53-7.83,0-14.37.59-18.77,2.68-2.43,1.16-4.07,1.45-7.91,1.48S521.51,1167.43,521.67,1166.86Z"/><path class="cls-51" d="M482.08,1167v-16.73a422.54,422.54,0,0,0,126.36,0V1167a1.19,1.19,0,0,1,.08.41c0,4.49-28.26,8-63.18,8s-63.26-3.44-63.26-7.94C482.08,1167.28,482.07,1167.13,482.08,1167Z"/><path class="cls-52" d="M482.08,1165.41v-16.72a422.54,422.54,0,0,0,126.36,0v16.75a1.14,1.14,0,0,1,.08.4c0,4.5-28.26,8-63.18,8s-63.26-3.43-63.26-7.93C482.08,1165.73,482.07,1165.58,482.08,1165.41Z"/><path class="cls-53" d="M593.22,1171.08v-20.26l4.71-.68v20.16C596.49,1170.57,594.91,1170.83,593.22,1171.08Z"/><path class="cls-53" d="M580,1172.53v-20.16l3.3-.34v20.21Z"/><path class="cls-53" d="M497.26,1171.07c-1.16-.17-2.26-.34-3.3-.52v-19.79h3.3Z"/><path class="cls-53" d="M588.77,1171.66v-20.27l1.59-.2v20.28Z"/><path class="cls-54" d="M482,1148.72c0-4.5,28.46-8,63.38-8s63.23,3.64,63.23,8.14-28.31,8.14-63.23,8.14S482,1153.21,482,1148.72Z"/><path class="cls-55" d="M489.85,1148.12c0-3.17,24.9-5.74,55.62-5.74s55.61,2.57,55.61,5.74-24.9,5.73-55.61,5.73S489.85,1151.28,489.85,1148.12Z"/><path class="cls-56" d="M527.88,1148.23c.24-.84,4-1.17,7.48-1.31a3.93,3.93,0,0,1,.67-1.78c-6.63.1-13.36,1-15.94,2.27h-5.32l-1.19,1.34h5.52c.8,1.17,6.49,1.8,15,1.8,7.4,0,13.36-.44,17.49-2.48,2.6-1.28,4.7-1.67,9.21-1.75,4.07-.08,6.44.23,6.15,1.15s-2.94,1.5-8.55,1.71a5.07,5.07,0,0,1-1,1.65c7.76-.11,14.12-.78,17-2h5.44l1.18-1.34h-5c.61-2.16-5.65-2.59-15.75-2.54-7.83,0-14.37.59-18.76,2.68-2.44,1.16-4.07,1.45-7.91,1.48S527.72,1148.79,527.88,1148.23Z"/><circle class="cls-54" cx="642.14" cy="1145.41" r="60.84"/><circle class="cls-57" cx="641.46" cy="1148.82" r="46.9"/><circle class="cls-58" cx="642.14" cy="1145.41" r="46.9" transform="translate(-465.64 440.33) rotate(-28.25)"/><path class="cls-59" d="M642.14,1104.65a46.89,46.89,0,0,1,46.79,43.83c.07-1,.11-2,.11-3.07a46.9,46.9,0,1,0-93.8,0c0,1,0,2.06.11,3.07A46.89,46.89,0,0,1,642.14,1104.65Z"/><path class="cls-59" d="M647.38,1141.55c-5.63-2.4-7.41-3.75-7.38-6.3,0-2.77,2-4.4,5.52-4.35a20.1,20.1,0,0,1,10,3.24l2.68-11.59a17.31,17.31,0,0,0-2.4-1.19l1.23-3.79-8.63-2.53-1.4,4.31c-.59,0-1.18-.07-1.78-.08-11.42-.16-18.86,7.38-19,17.45-.17,6.42,3.44,12.56,12.92,16.45,5.35,2.18,6.75,3.53,6.72,6.3s-1.84,4.51-6.18,4.45a25.19,25.19,0,0,1-12.31-4.26l-2.68,12a21.63,21.63,0,0,0,4.55,2.19l-1.29,4,8.64,2.54,1.55-4.8c.47,0,.93.05,1.4.05,13.21.18,20.08-7.14,20.2-17.21C659.73,1150.47,656.12,1145.21,647.38,1141.55Z"/><path class="cls-60" d="M646.35,1142.58c-5.63-2.4-7.41-3.75-7.38-6.3,0-2.76,2-4.4,5.52-4.35a20.19,20.19,0,0,1,10,3.24l2.68-11.59a16.62,16.62,0,0,0-2.39-1.19l1.23-3.79-8.63-2.53-1.4,4.31c-.59,0-1.18-.07-1.79-.08-11.41-.15-18.85,7.38-19,17.45-.17,6.42,3.44,12.56,12.92,16.46,5.35,2.17,6.75,3.52,6.72,6.29S643,1165,638.65,1165a25.15,25.15,0,0,1-12.31-4.26l-2.68,12a22.14,22.14,0,0,0,4.55,2.2l-1.29,4,8.64,2.53,1.55-4.8c.47,0,.93,0,1.4,0,13.21.18,20.08-7.14,20.19-17.21C658.7,1151.5,655.08,1146.25,646.35,1142.58Z"/><path class="cls-51" d="M375.44,1260.15v-16.73a422.54,422.54,0,0,0,126.36,0v16.76a1.1,1.1,0,0,1,.08.4c0,4.49-28.27,8-63.19,8s-63.26-3.44-63.26-7.93C375.43,1260.46,375.43,1260.32,375.44,1260.15Z"/><path class="cls-52" d="M375.44,1258.59v-16.72a422.54,422.54,0,0,0,126.36,0v16.75a1.19,1.19,0,0,1,.08.41c0,4.49-28.27,8-63.19,8s-63.26-3.44-63.26-7.94C375.43,1258.91,375.43,1258.76,375.44,1258.59Z"/><path class="cls-53" d="M486.57,1264.26V1244c1.6-.22,3.17-.44,4.72-.68v20.16C489.84,1263.75,488.27,1264,486.57,1264.26Z"/><path class="cls-53" d="M473.3,1265.71v-20.16l3.3-.34v20.21C475.53,1265.53,474.43,1265.62,473.3,1265.71Z"/><path class="cls-53" d="M390.62,1264.26c-1.16-.17-2.26-.35-3.31-.53v-19.79h3.31Z"/><path class="cls-53" d="M482.13,1264.84v-20.27l1.59-.2v20.28Z"/><path class="cls-54" d="M375.31,1241.9c0-4.5,28.46-8,63.38-8s63.24,3.65,63.24,8.14-28.32,8.14-63.24,8.14S375.31,1246.4,375.31,1241.9Z"/><path class="cls-55" d="M383.21,1241.3c0-3.17,24.9-5.73,55.61-5.73s55.61,2.56,55.61,5.73-24.9,5.73-55.61,5.73S383.21,1244.46,383.21,1241.3Z"/><path class="cls-56" d="M421.24,1241.41c.24-.84,4-1.17,7.48-1.31a3.86,3.86,0,0,1,.67-1.78c-6.64.1-13.36,1-15.95,2.27h-5.32l-1.18,1.34h5.51c.81,1.17,6.49,1.8,15,1.8,7.39,0,13.36-.43,17.49-2.48,2.59-1.28,4.69-1.67,9.21-1.75,4.06-.07,6.43.23,6.14,1.15s-2.94,1.5-8.55,1.71a5.07,5.07,0,0,1-1,1.65c7.76-.11,14.13-.78,17-2h5.44l1.19-1.34h-5c.62-2.16-5.65-2.59-15.74-2.54-7.84,0-14.37.59-18.77,2.68-2.44,1.16-4.07,1.45-7.91,1.49S421.07,1242,421.24,1241.41Z"/><path class="cls-51" d="M387.09,1241.51v-16.72a422.54,422.54,0,0,0,126.36,0v16.75a1.14,1.14,0,0,1,.08.4c0,4.5-28.26,8-63.18,8s-63.26-3.43-63.26-7.93C387.09,1241.83,387.08,1241.68,387.09,1241.51Z"/><path class="cls-52" d="M387.09,1240v-16.73a422.54,422.54,0,0,0,126.36,0V1240a1.1,1.1,0,0,1,.08.4c0,4.49-28.26,8-63.18,8s-63.26-3.44-63.26-7.93C387.09,1240.27,387.08,1240.13,387.09,1240Z"/><path class="cls-53" d="M498.23,1245.62v-20.26l4.71-.67v20.16C501.5,1245.12,499.92,1245.38,498.23,1245.62Z"/><path class="cls-53" d="M485,1247.08v-20.17l3.3-.34v20.22Z"/><path class="cls-53" d="M402.27,1245.62c-1.16-.17-2.26-.35-3.3-.53v-19.78h3.3Z"/><path class="cls-53" d="M493.78,1246.21v-20.27l1.59-.2V1246Z"/><path class="cls-51" d="M387,1223.26c0-4.49,28.46-8,63.39-8s63.23,3.64,63.23,8.14-28.31,8.13-63.23,8.13S387,1227.76,387,1223.26Z"/><path class="cls-55" d="M394.86,1222.66c0-3.16,24.9-5.73,55.61-5.73s55.61,2.57,55.61,5.73-24.89,5.73-55.61,5.73S394.86,1225.83,394.86,1222.66Z"/><path class="cls-56" d="M432.89,1222.77c.24-.83,4-1.16,7.48-1.3a4,4,0,0,1,.67-1.79c-6.63.11-13.36,1.06-15.94,2.28h-5.32l-1.19,1.34h5.52c.8,1.17,6.49,1.79,15,1.79,7.4,0,13.36-.43,17.49-2.47,2.59-1.29,4.7-1.67,9.21-1.76,4.07-.07,6.44.23,6.15,1.15s-2.95,1.51-8.55,1.71a5,5,0,0,1-1.05,1.66c7.75-.12,14.12-.79,17-2h5.44L486,1222h-5c.61-2.15-5.66-2.58-15.75-2.53-7.83,0-14.37.59-18.76,2.68-2.44,1.15-4.08,1.45-7.91,1.48S432.73,1223.34,432.89,1222.77Z"/><path class="cls-61" d="M472.29,182.83H1007c57.3,0,103.74,47,103.74,105v584c0,50.16-40.15,90.82-89.69,90.82H585c-38.68,0-70-31.74-70-70.91V310h-42.7Z"/><rect class="cls-16" x="586.09" y="714.53" width="103.99" height="14.86" rx="3"/><rect class="cls-16" x="705.83" y="714.53" width="68.07" height="14.86" rx="3"/><rect class="cls-16" x="586.09" y="745.39" width="133.68" height="14.86" rx="3"/><rect class="cls-16" x="734.8" y="745.39" width="94.22" height="14.86" rx="3.64"/><rect class="cls-62" x="927.69" y="765.56" width="90.95" height="27.15" rx="6.66"/><rect class="cls-16" x="672.53" y="503.32" width="366.35" height="15.22" rx="1.2"/><rect class="cls-16" x="594.32" y="490.01" width="45.28" height="41.85" rx="0.93"/><rect class="cls-16" x="672.53" y="564.2" width="366.35" height="15.22" rx="1.2"/><rect class="cls-16" x="594.32" y="550.88" width="45.28" height="41.85" rx="0.93"/><rect class="cls-16" x="672.53" y="625.07" width="366.35" height="15.22" rx="1.2"/><rect class="cls-16" x="594.32" y="611.75" width="45.28" height="41.85" rx="0.93"/><rect class="cls-16" x="586.09" y="439.6" width="448.68" height="7.61" rx="0.6"/><rect class="cls-16" x="586.09" y="349.46" width="276.21" height="12.97" rx="1.23"/><rect class="cls-16" x="586.09" y="381.89" width="332.47" height="12.97" rx="1.23"/><path class="cls-63" d="M660.09,869.06V842.8h509.5v25.51c0,52.12-48,94.37-107.13,94.37H578.74C625.6,951.55,660.09,913.86,660.09,869.06Z"/><path class="cls-64" d="M464.79,182.32h0a50.1,50.1,0,0,0-50.1,50.1v84.87H514.9V232.42A50.1,50.1,0,0,0,464.79,182.32Z"/><path class="cls-65" d="M610.33,268.49v38.32h-8.74l-5.18-17.42v17.42h-8.33V268.49h8.33L602,285.74V268.49Z"/><path class="cls-65" d="M637.24,268.49v38.32h-10v-16.1h-3v16.1h-10V268.49h10v13.7h3v-13.7Z"/><path class="cls-65" d="M651.21,268.49v38.32h-10V268.49Z"/><path class="cls-65" d="M655.21,268.49h16.61v7.67h-6.65v7.26h6.23v7.29h-6.23v8.43h7.32v7.67H655.21ZM664,264.2l-1.87,2.65h-4.5l4.12-5.73h4.52l3.86,5.73h-4.36Zm2.53,45.52v5.07h-5.3v-5.07Z"/><path class="cls-65" d="M706.1,268.49v38.32h-8.71V280.94l-3.48,25.87h-6.18l-3.67-25.28v25.28h-8.71V268.49h12.9q.57,3.45,1.21,8.14l1.37,9.75,2.27-17.89Z"/><path class="cls-65" d="M745.79,268.49l-5.06,38.32H725.6l-5.75-38.32h10.51q1.83,15.83,2.61,26.77.78-11.06,1.63-19.65l.69-7.12Z"/><path class="cls-65" d="M770.15,268.49V294.1a44.62,44.62,0,0,1-.28,6.12,8.35,8.35,0,0,1-1.68,3.62,8.63,8.63,0,0,1-3.68,2.81,13.88,13.88,0,0,1-5.39,1,15.27,15.27,0,0,1-6.06-1.13,9.21,9.21,0,0,1-3.93-3,8.23,8.23,0,0,1-1.54-3.85c-.15-1.35-.23-4.18-.23-8.51V268.49h10v28.73a11.43,11.43,0,0,0,.27,3.21,1.08,1.08,0,0,0,1.11.7,1.14,1.14,0,0,0,1.21-.77,13.79,13.79,0,0,0,.28-3.63V268.49Zm-8.73,41.23v5.07h-5.3v-5.07Z"/><path class="cls-65" d="M797.47,287.8v6.61H784.9V287.8Z"/><path class="cls-65" d="M835.6,285.2h-10v-6.68a12,12,0,0,0-.32-3.63,1.39,1.39,0,0,0-1.41-.72,1.47,1.47,0,0,0-1.56.87,12.94,12.94,0,0,0-.34,3.79v17.8a12.06,12.06,0,0,0,.34,3.65,1.7,1.7,0,0,0,2.94,0,13.78,13.78,0,0,0,.35-4v-4.81h10V293a29.43,29.43,0,0,1-.84,8.43,8.56,8.56,0,0,1-3.72,4.35,12.69,12.69,0,0,1-7.09,1.87,14.74,14.74,0,0,1-7.21-1.58,7.72,7.72,0,0,1-3.77-4.39,29.07,29.07,0,0,1-.92-8.44V282a49.77,49.77,0,0,1,.28-6.21,8.73,8.73,0,0,1,1.7-4,9.43,9.43,0,0,1,3.9-3,14.2,14.2,0,0,1,5.74-1.1,14,14,0,0,1,7.27,1.71,8.15,8.15,0,0,1,3.76,4.24,25.61,25.61,0,0,1,.9,7.92Z"/><path class="cls-65" d="M862.09,268.49v38.32h-10v-16.1h-3v16.1h-10V268.49h10v13.7h3v-13.7Z"/><path class="cls-65" d="M876.05,268.49v38.32h-10V268.49Z"/><path class="cls-65" d="M880.05,268.49h16.62v7.67H890v7.26h6.22v7.29H890v8.43h7.31v7.67H880.05Zm8.76-4.29-1.87,2.65h-4.49l4.11-5.73h4.52l3.86,5.73h-4.35Zm8.45-9.37-6,4.92h-3.69l3.19-4.92Z"/><path class="cls-65" d="M922.45,268.49v38.32h-8.74l-5.18-17.42v17.42H900.2V268.49h8.33l5.59,17.25V268.49Z"/><path class="cls-65" d="M948.44,268.49v30.65h6.06v7.67h-16V268.49Z"/><path class="cls-65" d="M979.57,272.34V294.1a44.17,44.17,0,0,1-.29,6.12,8.35,8.35,0,0,1-1.68,3.62,8.63,8.63,0,0,1-3.68,2.81,13.84,13.84,0,0,1-5.39,1,15.25,15.25,0,0,1-6-1.13,9.08,9.08,0,0,1-3.93-3,8.12,8.12,0,0,1-1.54-3.85c-.16-1.35-.24-4.18-.24-8.51V268.49h10v28.73a11.43,11.43,0,0,0,.27,3.21,1.06,1.06,0,0,0,1.1.7,1.16,1.16,0,0,0,1.22-.77,14.44,14.44,0,0,0,.27-3.63V268.49h10v.78a2.77,2.77,0,0,0,.9-1.66h-1.61v-5.25h5.63l0,1.18a17.86,17.86,0,0,1-.46,4.46,5.59,5.59,0,0,1-1.83,2.92A7,7,0,0,1,979.57,272.34Z"/><path class="cls-65" d="M1004.14,271.71a9.1,9.1,0,0,1,1.77,4.37,80.32,80.32,0,0,1,.29,8.29v6.56c0,3.85-.1,6.57-.28,8.17a9.16,9.16,0,0,1-5.57,7.45,14.11,14.11,0,0,1-5.68,1.06,14.46,14.46,0,0,1-5.53-1,9.24,9.24,0,0,1-5.72-7.4,81.05,81.05,0,0,1-.28-8.28v-6.56q0-5.78.27-8.18a9.17,9.17,0,0,1,5.58-7.44,14,14,0,0,1,5.68-1.07,14.58,14.58,0,0,1,5.54,1,11.82,11.82,0,0,1,1.82,1,2.87,2.87,0,0,0,1.44-2.06h-1.61v-5.25h5.64l0,1.18a17.86,17.86,0,0,1-.46,4.46,5.54,5.54,0,0,1-1.84,2.92A6.51,6.51,0,0,1,1004.14,271.71Zm-6.82,38v5.07H992v-5.07Zm-1.09-31.39a11.74,11.74,0,0,0-.3-3.42,1.17,1.17,0,0,0-1.22-.74,1.35,1.35,0,0,0-1.19.6c-.28.4-.41,1.59-.41,3.56v17.9a17.78,17.78,0,0,0,.27,4.12,1.18,1.18,0,0,0,1.26.78,1.23,1.23,0,0,0,1.31-.9,19.71,19.71,0,0,0,.28-4.29Z"/><path class="cls-65" d="M1033.18,285.2h-10v-6.68a11.71,11.71,0,0,0-.32-3.63,1.36,1.36,0,0,0-1.4-.72,1.48,1.48,0,0,0-1.57.87,13.44,13.44,0,0,0-.33,3.79v17.8a12.53,12.53,0,0,0,.33,3.65,1.43,1.43,0,0,0,1.49.85,1.41,1.41,0,0,0,1.46-.85,13.92,13.92,0,0,0,.34-4v-4.81h10V293a29.43,29.43,0,0,1-.84,8.43,8.56,8.56,0,0,1-3.72,4.35,12.72,12.72,0,0,1-7.09,1.87,14.79,14.79,0,0,1-7.22-1.58,7.74,7.74,0,0,1-3.76-4.39,28.72,28.72,0,0,1-.92-8.44V282a49.77,49.77,0,0,1,.28-6.21,8.71,8.71,0,0,1,1.69-4,9.46,9.46,0,0,1,3.91-3,14.16,14.16,0,0,1,5.74-1.1,14,14,0,0,1,7.27,1.71,8.15,8.15,0,0,1,3.76,4.24,25.61,25.61,0,0,1,.9,7.92Z"/><path class="cls-66" d="M1170.3,1229l1.47,14.8s-14.49,6.17-17.06,3.24-4.34-2.16-4.34-2.16l-1.22-18.73Z"/><polygon class="cls-66" points="1233.43 1224.43 1232.53 1238.63 1213.67 1237.68 1211.43 1221.87 1233.43 1224.43"/><path class="cls-67" d="M1227.28,1043.28c1.57-15.43,1.44-39.16,1.26-51.09h-94.25a6.77,6.77,0,0,0-2.21,2c-7.63,12.21-2,118.17,1.57,147.28s13.5,91.54,13.5,91.54c6.16,1.78,15.39,1.91,23,2.59a3.91,3.91,0,0,0,4.35-3.93l-2.66-93.88c-.46-15.93,1.71-37.24,1.71-37.24a153.48,153.48,0,0,1,9.13,29c3.21,15.85,24.86,96.83,27.78,102.06,2.27,4.06,15.57,2.69,23.89,2.66a3.58,3.58,0,0,0,3.65-3.82c-1.68-18.46-10.71-82.21-13.67-96.77C1221.09,1117.82,1225.12,1064.59,1227.28,1043.28Z"/><path class="cls-68" d="M1227,1149.3c-.15-1-.31-2-.45-2.87s-.34-2.07-.5-3c-.52-3.16-1-5.85-1.37-7.93,0-.2-.08-.38-.11-.57-.08-.43-.17-.84-.24-1.21-1.21-5.94-1.4-17.14-1-30,.21-7.46.6-15.48,1.07-23.31.88-14.55,2.07-28.48,3-37.13v-.06c.09-.84.17-1.7.24-2.59,0-.26,0-.52.07-.78.06-.77.12-1.55.17-2.35,0-.16,0-.32,0-.48.06-.93.12-1.88.17-2.84,0-.29,0-.59,0-.89l.12-2.28,0-.8c0-1,.09-2,.12-3l0-.84c0-.78,0-1.57.08-2.36,0-.32,0-.63,0-.94,0-1,.06-2,.08-3,0-.29,0-.58,0-.86,0-.77,0-1.54,0-2.31,0-.34,0-.68,0-1,0-1,0-2,0-3v-.38c0-.9,0-1.79,0-2.66,0-.32,0-.64,0-1v-6.36c0-.8,0-1.58,0-2.34,0-.14,0-.28,0-.42,0-.91,0-1.8,0-2.66v-.17c0-.85,0-1.66,0-2.44v-.09q0-1.23,0-2.34h-15c-4.12,34.93-10.49,94.14-8.15,108.82,2.91,18.25,18,103.35,22.3,133.17,2.53.07,4.84.08,6.65.08a3.58,3.58,0,0,0,3.65-3.82c-.42-4.61-1.3-12.06-2.43-20.86-.28-2.2-.58-4.49-.89-6.83-1.24-9.39-2.68-19.76-4.1-29.64l-.54-3.68C1229,1162.13,1227.92,1155.21,1227,1149.3Z"/><path class="cls-68" d="M1164.91,1041.06c3.07,10.54,9.9,62.58,9.9,62.58h0c-.78-1.94-1.28-3.06-1.28-3.06s-2.17,21.31-1.72,37.24l2.67,93.88a3.91,3.91,0,0,1-4.35,3.93c-6.34-.57-13.54-1-20.78-2.38,5.18-1,13.17-4.66,15.23-8.9,2.62-5.39-5.71-103.43-5.71-103.43C1163.88,1102.19,1164.91,1041.06,1164.91,1041.06Z"/><path class="cls-69" d="M1235.62,1239.28s-20.61-7-25.63-4.3c0,0,.14,5-2.34,7.61s-17.34,18.1-14.72,20.54,28.18,4.22,43.33-1.24Z"/><path class="cls-69" d="M1172,1240.61a1.51,1.51,0,0,1,1.66,1.44l.54,19s2.37,2.22-11.47,2.61-50.75,1.44-53.13-.78-.13-4.58,11.28-9.48,23.86-13.28,28.35-18c0,0,9.22-.26,7.11,6.67C1156.33,1242.08,1158.47,1242,1172,1240.61Z"/><path class="cls-70" d="M1048.34,838c-1.12-6.29,11.66-8.46,11.66-8.46s-2.61-6-4.87-10.7.83-3.11.83-3.11c8.69,7.72,16.88,20.52,15.65,26.63s3.26,11.93,3.26,11.93l-11.45,5.42s-6.68-9.52-8-11.64S1049.46,844.25,1048.34,838Z"/><path class="cls-71" d="M1075.66,850.09l-2.39-6s-11.54,4-15.87,11.54l4.6,4.52Z"/><path class="cls-16" d="M1133.86,843.9c-8.74,13.45-26.41,41-26.41,41s-4.42-7.08-5.07-.92l-25.22-37.33S1062,849,1058.61,861.32c0,0,28.91,59.8,42.6,63.75s33.43-33,33.43-33l3.2-46.81A2.17,2.17,0,0,0,1133.86,843.9Z"/><path class="cls-68" d="M1228.63,1001.73c0-3.61-.05-6.88-.09-9.54h-94.25a6.77,6.77,0,0,0-2.21,2,17.22,17.22,0,0,0-1.71,5.29C1150.33,1006,1193.16,1015.13,1228.63,1001.73Z"/><path class="cls-72" d="M1135.09,958.81c.75-2.72,1.35-4.44,1.35-4.44l84.71,3.48s.29,1.73.76,4.68c-.42.59-.76,1-.76,1C1183.35,979,1156,979,1135.09,958.81Z"/><path class="cls-16" d="M1142.51,838.89c-9,3.79-21.61,11.36-10.52,37.54l3.86,80.56s-4.31,12.42-1.59,15c20.88,20.25,48.28,20.25,86.13,4.81a17.67,17.67,0,0,0,2.25-3.56c1.38-5.48-3.24-20.76-3.24-20.76l21.15-65.75s20.85-28.38,7-38.67C1225.88,831.92,1178.08,823.92,1142.51,838.89Z"/><path class="cls-73" d="M1242.31,879.26c-14.31,16.79-36.84,62.1-51.14,78.88q8.26-22.11,16.54-44.22a161.21,161.21,0,0,1-56.56,49c-5.27-14.09-10.67-26.09-20.41-37.55l-3.28,67.42c42.08,27.47,105-.5,105-.5l-7.55-51Z"/><path class="cls-74" d="M1167.2,829.13s-8.34-.36-9.86.58-5.31,11.89-6.07,13.62,10.14,11.93,10.14,11.93-9,14.78-8.62,16S1169.12,937,1169.12,937s38.7-57.71,39.49-60.58-3.7-17.72-3.7-17.72,11.45-8.44,12.15-10.29,2.16-13.61,0-15.1c-1.33-.92-9-2.66-9-2.66Z"/><path class="cls-71" d="M1208,833.45h0s-11.86,30.61-22.31,57.56c-8.22,21.21-17.29-1-17.29-1l-2.56-60.78c.57,0,1.75-.19,2.32-.22Z"/><g class="cls-75"><path class="cls-76" d="M1168.84,848.67c-2.38-.56-2.49-8-2.49-8l-.47-11.24c0-.06,0-.12.07-.17.59,0,1.7-.19,2.24-.22l36.72,4.07c-.14.43,1.33,3.49,1.07,4.35-2.13,6.26-9,15.27-10.36,15.49-1.61.25-5.72-4.45-6.27-6-.84.76-2.29,3-3.13,3.8-.45,10.94,0,25.34.12,38.65l-14.85,38.32c-.46.62-.93,1.2-1.4,1.76L1168.72,897q6.21-23.49,12.43-47c-1.32-1.8-3-3.14-4.33-4.94A11.53,11.53,0,0,1,1168.84,848.67Z"/></g><path class="cls-77" d="M1177.33,835.23c3.56,2.06,10.92,3.13,14.92,3.23,5.94.16,3.55-3.31,5.53-3.84l10.25-25.8-25.84-3-.08,1.48Z"/><path class="cls-78" d="M1168.43,890l12.41-41.9-5.43-6.09,9.22-5.64,7,6.5-6.56,5.81a388.23,388.23,0,0,1,.6,42.29c-8.22,21.2-15.56,40.15-15.56,40.15Z"/><path class="cls-71" d="M1202.67,823.34s-14,13.42-17.61,12.84-5.48-14.12-5.48-14.12-12.14,5.41-13.71,7.2,1.61,17.58,3.29,18.44c3.55,1.78,14.23-10.14,16.17-8.62s7.45,11.71,9.26,11.5,16.26-14.44,15.44-19.68S1202.67,823.34,1202.67,823.34Z"/><path class="cls-79" d="M1171.48,924s6.55-26,3.75-27-9.62,30.42-9.62,30.42Z"/><polygon class="cls-71" points="1162.38 839.13 1107.44 855.16 1140.14 953.71 1195.01 939.07 1162.38 839.13"/><path class="cls-80" d="M1171.77,916.28c4.76-4.11,12.74-.21,29.34.58,1.66.08,3.5.22,5.47.4.05,4.82.25,9.69-.1,14.47-4.24-2.07-7.94-3-10.46-1.73a43.28,43.28,0,0,1-17.78,4.66s-.66,5.37-3.92,6.21-7.79-3.61-9.86-4.49S1167,920.39,1171.77,916.28Z"/><polygon class="cls-71" points="1203.53 914.98 1193.02 914.43 1193.02 933.6 1203.53 936.31 1203.53 914.98"/><path class="cls-16" d="M1250,850.58c6.52,5.5,26.27,82,24.75,89.16s-9.49,19.08-19.75,18.81S1199,940.31,1199,940.31l.29-28.15,40.12,8.9-7.54-37.28Z"/><path class="cls-80" d="M1208.13,799.5s10.56-1,10.27-10.68c-.28-9.39-12.24-7.28-14.66,2.48a.18.18,0,0,1-.36,0c-.57-2.79-2.47-11.3-5.1-13.47,0,0,4.14-14-5.64-18.19s-33.07-4.55-33.53,10.68,1.28,19.91,1.64,27,11.44,28,16.1,29.45,27.52-12.68,31.06-16.25S1208.13,799.5,1208.13,799.5Z"/><path class="cls-81" d="M1142.91,752.09s4.19.88,6.73-.65c0,0-5.21-12.64-1.74-17.93,0,0,7.67,9.17,30.5,4.8s43.57,2.89,49.34,22.36-8.64,46.09-18.61,47.8c1.29-3.79-1-9-1-9s10.56-1,10.27-10.68c-.28-9.39-12.24-7.28-14.66,2.48a.18.18,0,0,1-.36,0c-.57-2.79-2.47-11.3-5.1-13.47,0,0,4.14-14-5.64-18.19s-33.07-4.55-33.53,10.68c0,1.56-.07,3-.07,4.33h0S1141.52,768.81,1142.91,752.09Z"/><path class="cls-82" d="M353.33,862a1.68,1.68,0,0,0-2.82,1.08,7.27,7.27,0,0,0,.84,4.05c2,3.74,2.14,8,1.25,8s-3.39-8-6.42-7.4,3.21,10.08,2.32,11.33-4.28-6.6-5.89-5.17,3.75,9.63,3.21,10.7-4.1-3.39-4.46-1.79.52,4.82,5.88,8.21c0,0,8,5.71,12,1.43C362.92,888.35,364.56,872.27,353.33,862Z"/><path class="cls-83" d="M315.32,861.5c6.07,11.54,21,10.14,21,10.14h0L329,888.74c-18.72,5.26-36-12.39-36-12.39-13.91-13.59-17.67-85.62-17.67-85.62C297.49,796.8,309.26,850,315.32,861.5Z"/><path class="cls-84" d="M295.28,1116.48a41.54,41.54,0,0,0-1.28,10.4l-7.05-1.65.43-8.86Z"/><path class="cls-84" d="M309.19,1130.5c-.12,1.42-22.76.28-22.76.28l.52-5.55,7.15.1S309.31,1129.07,309.19,1130.5Z"/><path class="cls-69" d="M286.37,1130.75l.36-3.1s1.31,1.75,8.23,1.84c6.1.09,6.81-2.08,6.81-2.08,5.7,1.72,8.88,2,8.06,3.21C308.76,1132.11,286.37,1130.75,286.37,1130.75Z"/><path class="cls-77" d="M287.38,1116.37l-.33,7.42a7.24,7.24,0,0,1,7,.1,56.54,56.54,0,0,1,1.22-7.41Z"/><path class="cls-84" d="M328.32,1116.94a41.85,41.85,0,0,0-1.29,10.41l-7-1.66.43-8.86Z"/><path class="cls-84" d="M342.23,1131c-.12,1.43-22.76.29-22.76.29l.52-5.56,7.14.1S342.34,1129.54,342.23,1131Z"/><path class="cls-69" d="M319.4,1131.21l.36-3.1s1.31,1.75,8.23,1.85c6.1.08,6.82-2.09,6.82-2.09,5.69,1.72,8.88,2.05,8.05,3.21C341.8,1132.58,319.4,1131.21,319.4,1131.21Z"/><path class="cls-77" d="M320.42,1116.83l-.34,7.42a7.27,7.27,0,0,1,7,.1,56.54,56.54,0,0,1,1.22-7.41Z"/><path class="cls-85" d="M286.23,921.77s-44.38,12.58-38.44,53.37L362,976.75s3.57-17.52-3.58-25.52S286.23,921.77,286.23,921.77Z"/><path class="cls-85" d="M361.74,976.74s-15.68,44.75-32.53,144.17l-11.49-.16s-7.11-74.46-5.08-94.51,17.18-51.52,17.18-51.52S351.66,970.06,361.74,976.74Z"/><path class="cls-86" d="M286.23,975.68l43.13.35s-15.64,31.53-16.72,50.21,5.08,94.51,5.08,94.51l4.78.07s-2.66-80.39-1.17-93.32,18.95-55.27,18.11-58.13-54.61-18.77-54.61-18.77Z"/><polygon class="cls-86" points="286.23 921.77 195.99 920.51 260.02 953.95 286.23 921.77"/><path class="cls-87" d="M196,920.51s-13.2,21.37-3.62,53.86l133.74,1.87s3-17.83-4.53-25.53C311.15,940,233.66,930,196,920.51Z"/><path class="cls-87" d="M326.11,976.24s-14.59,32.14-29.16,144.22l-11.54-.16s-8.42-74.49-6.78-94.53,14.73-50,14.73-50S315.89,969.56,326.11,976.24Z"/><path class="cls-85" d="M192.37,974.37l101,1.41s-13.6,32.89-14.73,50c-1.44,21.64,6.78,94.53,6.78,94.53l4.28.06s-5.1-74.82-2.91-93.56S305.6,972,302.91,968.09s-73.22-8.7-113.74-23C189.17,945.1,187.61,962.12,192.37,974.37Z"/><path class="cls-88" d="M267.14,867.62c-.27,19.65,6,31.9,20.63,54.23-29.54,9.63-60.54,8.3-92.66-1.29,7.15-19,17.85-34.4,29.75-47.82a3.25,3.25,0,0,0,.26-.3c.15-.15.27-.29.36-.39l.25-.28c6.27-11-12.52-23.94-19.7-45.55-7.31-22-3.82-33.42-3.82-33.42,27.81-12,44-14.63,75.31-1.32l.92,19.07s8.31,15,7.26,21.65S267.29,857.14,267.14,867.62Z"/><path class="cls-89" d="M224,782.84c-.5,7.27,10.81,12.56,16.87,13s17-3.35,17.49-10.62-7.28-6.51-16.77-7.16S224.54,775.57,224,782.84Z"/><path class="cls-89" d="M241.1,794.19h0A12.12,12.12,0,0,0,254,783l1.45-21.09A12.12,12.12,0,0,0,244.2,749h0a12.12,12.12,0,0,0-12.88,11.23l-1.44,21.09A12.11,12.11,0,0,0,241.1,794.19Z"/><path class="cls-90" d="M254.43,776.46c.42-6.2,1-14.59,1-14.59a12.08,12.08,0,1,0-24.11-1.65s-.27,4-.66,9.59c0,0,4.42,6.07,10.45,7.66A21.68,21.68,0,0,0,254.43,776.46Z"/><path class="cls-91" d="M287.77,921.85c-2.66-9.36-21-23.88-20.63-54.23.17-12.16,17.5-26.28,18.57-35.59-6.54,2.69-33.51,10.7-76.14,2.41,7.93,21.78,18,27.74,16.16,37.33l-.25.28c-.09.1-.21.24-.36.39a3.25,3.25,0,0,1-.26.3c-11.9,13.42-22.6,28.86-29.75,47.82a179.52,179.52,0,0,0,46.33,7.8C256.42,928.54,273.44,926.52,287.77,921.85Z"/><path class="cls-92" d="M254.12,879.65c0-2.69,1.45-9.16,3-16,2.19-9.76,4.67-20.83,4.28-26.29-.66-9.28-9.61-35.72-10-36.84l-1.24.42c.1.27,9.28,27.4,9.93,36.51.38,5.27-2.08,16.24-4.25,25.92-1.63,7.22-3,13.46-3,16.29a112.72,112.72,0,0,0,10.59,47.6c.46,0,.92-.07,1.37-.13C257.58,911.31,254.14,896.1,254.12,879.65Z"/><path class="cls-80" d="M278,905.37c5.13,3.37,12,6.42,11.77,9.16-.4,6-9.23,6.93-12.91,4.37-3.5-2.79-5.28-9.86-5.28-9.86S272.93,902,278,905.37Z"/><path class="cls-80" d="M298.3,925.63c.84-.3-1.2-6.75-2.09-7.92-.71-.94-1.37-2.17-9.37-6.9l1.7,5.91a57,57,0,0,1,5.83,2.7C295,920,295.5,924.83,298.3,925.63Z"/><path class="cls-80" d="M289.33,934.08c1.23.24,1.31-6.19,1-7.68-.36-1.89.06-2.6-3-12.19l-2.36,5.51s2.67,6.46,2.8,7.36S287.72,932.59,289.33,934.08Z"/><path class="cls-80" d="M285,933.74c1.19.23,1.26-5.94,1-7.38-.33-1.81.06-2.49-2.84-11.7L280.89,920s2.56,6.2,2.69,7.07S283.45,932.31,285,933.74Z"/><path class="cls-80" d="M280.3,929.79c1,.19,1.07-5,.84-6.24-.28-1.54.06-2.11-2.4-9.9l-1.91,4.47s2.16,5.25,2.27,6S279,928.58,280.3,929.79Z"/><path class="cls-80" d="M272.33,909.67l-8.83-1.75,2.2-9.08A100,100,0,0,1,278,905.37Z"/><path class="cls-88" d="M202.76,793c-17.36.59-37.45,97.87-26.22,110.43,14.53,18.32,62.75,7,89.43,7.35,0,0,4.73-4.85,5.5-10.06-18.93-11-68.43-11.9-72.73-14S220.05,792.42,202.76,793Z"/><path class="cls-83" d="M178.88,899.19c-8.81-9.86,1.68-71.76,15-98.28-14.37,23.38-26.66,92.1-17.33,102.53,14.53,18.32,62.75,7,89.43,7.35a31,31,0,0,0,3.1-4.18C242.2,906.48,193.26,917.32,178.88,899.19Z"/><polygon class="cls-92" points="219.26 786.3 239.58 807.07 245.66 798.48 251.28 803.44 255.16 797.8 261.84 804.94 262.44 785.96 250.29 787.16 219.26 786.3"/><polygon class="cls-91" points="219.26 786.3 228.69 772.2 250.29 787.16 240.32 802.06 219.26 786.3"/><polygon class="cls-91" points="255.03 775.93 250.29 787.16 260.88 800.3 262.44 785.96 255.03 775.93"/><g id="laptop"><polygon class="cls-93" points="360.75 931.6 259.42 926.82 284.42 849.25 385.75 854.02 360.75 931.6"/><rect class="cls-94" x="282.38" y="857.6" width="6.1" height="149.31" transform="translate(-659.01 1174.37) rotate(-87.36)"/><polygon class="cls-94" points="360.82 931.5 261.82 926.93 286.33 850.88 385.34 855.45 360.82 931.5"/><path class="cls-93" d="M333.08,890.78c-1.42,3.69-5.93,6.53-10.07,6.34s-6.35-3.34-4.93-7,5.93-6.53,10.08-6.34S334.51,887.09,333.08,890.78Z"/><polygon class="cls-95" points="261.82 926.93 286.33 850.88 385.34 855.45 261.82 926.93"/><rect class="cls-93" x="231.84" y="905.86" width="6.1" height="48.13" transform="translate(-704.91 1121.52) rotate(-87.35)"/><rect class="cls-93" x="279.74" y="919.89" width="2.68" height="18.59" transform="translate(-660.07 1167.14) rotate(-87.36)"/><rect class="cls-93" x="344.66" y="924.22" width="2.68" height="15.91" transform="translate(-601.13 1234.85) rotate(-87.36)"/><polygon class="cls-96" points="286.94 851.89 385.02 856.41 385.34 855.45 286.33 850.88 261.82 926.93 262.74 926.98 286.94 851.89"/></g><path d="M248.39,688.68c-15.84-.74-26.6,10.65-29,16.09,0,0-8.53,7.79-8.38,15.68s-1.16,12.26-1.16,12.26A14.61,14.61,0,0,0,205.62,747s-.24-5.74,1.63-7.88c0,0-2.52,7.94.63,12.61a15.62,15.62,0,0,1,.72-8.82,50,50,0,0,0,.65,6.69c.57,3.28-.45,16.18,8.08,21.8a18.75,18.75,0,0,1-3.07-6.91s1.84,2.47,3.29,4.67-.3,10.79,2.25,17.06a59.44,59.44,0,0,1-.78-13.4s3.63,9.39,7.77,11.81c0,0-5.79-8.43-6.08-10.4a25.26,25.26,0,0,0,6.4,1.19s-5.76-.94-7.1-4.2-1.52-12.63-.87-14.55c.4,1.21,1.56,2.66,2.57,2.89a30.53,30.53,0,0,1-.4,6.24,4.06,4.06,0,0,0,1.61-2.27,15.37,15.37,0,0,1,0,5.53s1.35-2.4,1.2-3.84a37.71,37.71,0,0,1,4.9,4.21l35.5-67.3S264.24,689.42,248.39,688.68Z"/><path d="M261.61,769.86s11.08-15.72,10.29-25.25c0,0,1,9.24-.69,13.2,0,0,3.15-3.74,2.7-8.28,0,0,6,11.93-3.46,24.28,0,0,3.31-1.67,4.34-3.65,0,0-1.69,4.82-3.09,6.45,0,0,4.11-3.28,5.09-8a21.79,21.79,0,0,1-1.77,7.29s7.78-11,1.41-25.71c0,0,1.58-4.46,1.53-7a14.32,14.32,0,0,1-.59,6.4s4.32-4.88,2.11-14.05A12.6,12.6,0,0,0,280.7,731a62.42,62.42,0,0,1,.15,7.74,24.82,24.82,0,0,0,.74-5.18s.38,1,.1,5a14.87,14.87,0,0,0,0-8.11s1.28-5.31-1.42-9.31-10.17-13.82-10.17-13.82,5.93,4.19,6.7,7c0,0-1.27-3.66-2.48-4.87a6.1,6.1,0,0,1,2.3,2s.2-2.22-6.67-5.89a8.33,8.33,0,0,0-5.47-4.93s-1.84-8.57-16.65-9.26-24.85,10-27.14,15c0,0-8,7.29-7.83,14.66a40.7,40.7,0,0,1-1.08,11.45,13.64,13.64,0,0,0-3.92,13.31s-.22-5.37,1.53-7.37c0,0-2.36,7.42.59,11.79a14.61,14.61,0,0,1,.67-8.25,46.41,46.41,0,0,0,.6,6.26c.54,3.06-.42,15.12,7.56,20.38a17.32,17.32,0,0,1-2.87-6.46s1.71,2.3,3.07,4.36-.28,10.09,2.1,15.94a55.55,55.55,0,0,1-.72-12.52s3.39,8.78,7.25,11c0,0-5.4-7.89-5.68-9.72a23.51,23.51,0,0,0,6,1.11s-5.39-.88-6.64-3.93-1.44-12.38-.75-13.75a17.28,17.28,0,0,0,2.32,2.42,29.7,29.7,0,0,1-.36,6.27,3.81,3.81,0,0,0,1.51-2.12,14.24,14.24,0,0,1,0,5.16s1.27-2.23,1.13-3.58a6,6,0,0,0,2.2,5.21C230,770.39,240.13,751.23,261.61,769.86Z"/><path class="cls-97" d="M278.57,713.6c.11.28.17.46.17.46A2.85,2.85,0,0,0,278.57,713.6Z"/><path d="M283.74,729.57s1.33-5.27-1.45-9.24-10.44-13.69-10.44-13.69,5.47,3.73,6.71,6.49a15.23,15.23,0,0,0-2.38-4.38,6.19,6.19,0,0,1,2.37,2s.2-2.2-6.86-5.84a16.31,16.31,0,0,0-7.21-4.26h0l-31.88,66c2.58,2.32,5.49,4.69,5.49,4.69l-.41-1c2.56,3,12.58,4.57,17.65,3.41h0l.48-.12h0l.44-.14a17,17,0,0,0,5.32-3.42c.23-.2.45-.41.67-.62s.3-.28.44-.43h0c.56-.56,1.1-1.15,1.6-1.75l.1-.11a16.14,16.14,0,0,0,3.27-5.69c3.06-5.33,6.47-12.59,6-17.9,0,0,1,9.16-.73,13.1,0,0,3.24-3.72,2.78-8.22,0,0,6.12,11.82-3.57,24.08,0,0,3.4-1.65,4.47-3.62,0,0-1.75,4.78-3.19,6.4,0,0,4.23-3.26,5.24-7.91a21,21,0,0,1-1.82,7.23s8-10.88,1.46-25.5c0,0,1.63-4.42,1.58-7a13.63,13.63,0,0,1-.61,6.35s4.44-4.84,2.18-13.94a12.17,12.17,0,0,0,1.26-4.54,59.13,59.13,0,0,1,.15,7.68,23.69,23.69,0,0,0,.76-5.13s.39,1,.1,5A14.21,14.21,0,0,0,283.74,729.57Z"/><path class="cls-89" d="M260.64,714.3s4.06,5.59,6.94,7.46c0,0,1.32,9.45,2.22,16.39s-1.12,17.32-2.34,21.45S260,770.25,256,773.05c-5.74,4-15.4,1.16-19.07-1.47l-2.32-1.46a24,24,0,0,1-9.42-14.28l-.85-7.91a4.23,4.23,0,0,1-1.71-3.06,38.88,38.88,0,0,1,.51-6.32s20.07-20.75,26.45-24,10.22-.72,10.22-.72l3.25-1.74A11.59,11.59,0,0,0,260.64,714.3Z"/><path class="cls-98" d="M214,733.21s9.57,1.77,16.51-4.77,10.26-9.58,10.26-9.58a16.19,16.19,0,0,0-4.62,2.94s5.55-7.37,10.93-9.36,14.18-2.17,14.18-2.17-5.72-1-8.38-.45c0,0,8.47-2,12,.38,0,0-6.06-6.07-16.35-2.4s-17.51,13.85-23.67,16c0,0,5.31-.84,7.26-2.62,0,0-7.91,7.39-12.49,7.52,0,0,6.95.27,13.14-6.17C232.72,722.48,226.86,733.28,214,733.21Z"/><path class="cls-98" d="M220.63,719.13s16.34-15.94,33.05-15.77a30.92,30.92,0,0,0-8.84-.32s4.29-1.58,7.35-1.39a17.58,17.58,0,0,0-14.4,2.89s7.62-7,15.81-5.27c0,0-11.19-6.84-28.16,5.88,0,0,12-6.34,15.89-5,0,0-8.65,2.4-11.85,6.06,0,0,4.36-2.44,6-2.47,0,0-10,6.14-14.88,12.43,0,0,8.29-6.85,10.15-7C230.72,709.14,221.7,716.75,220.63,719.13Z"/><path class="cls-99" d="M221.64,746.87s-3.28-1.3-2.69.54,4,2.71,2.77,3.71-1.73,1.61-.42,2,0-.55-.78.54,1.62,4.59,3,3.91,1.06-3.14-.09-4.49C223.43,753.06,223.42,747.73,221.64,746.87Z"/><path class="cls-98" d="M265.63,714.92a18.55,18.55,0,0,1,5.39,6.9,17.42,17.42,0,0,0-.77-3.49s2.82,1,4.12,9.85a11.25,11.25,0,0,0,.29-5.5s3.72,2.76,4.62,9.25c0,0-.53-8.75-4.94-13.33a35.22,35.22,0,0,1-6.49-9.45s.67,4.19,1.75,5.81c0,0-2.26-2.41-2.28-3.23l.63,2.44-1.32-2a17.21,17.21,0,0,0,1.47,3.59A10,10,0,0,0,265.63,714.92Z"/><path class="cls-100" d="M368.44,571.55a7.09,7.09,0,0,0-1.61-3.45c-3.13-2.65-8.16-5.71-6.43-10.32a4.5,4.5,0,0,0,.38-2.66,6,6,0,0,0-2-2.49c-.8-.74-1.54-1.8-1.22-2.84s1.65-1.54,2.2-2.53a3.72,3.72,0,0,0,0-2.89,6.66,6.66,0,0,1-.52-2.89c.77-5,10.15-.12,12.2,1s3.9,2.19,5.78,3.39c.51.33,2.25,1.08,2.5,1.67l2.85,6.68-1.45,13.93A29.64,29.64,0,0,0,368.44,571.55Z"/><polygon class="cls-101" points="379.68 554.07 382.8 515.11 360.74 515.13 364.35 556.36 379.68 554.07"/><path class="cls-102" d="M374.56,551.49a1.86,1.86,0,1,1-1.78-1.94A1.86,1.86,0,0,1,374.56,551.49Z"/><polygon class="cls-103" points="377.45 517.79 376.94 519.68 368.37 519.79 367.73 518.12 363.47 518.21 367.3 549.32 378.9 547.45 380.15 517.85 377.45 517.79"/><polygon class="cls-102" points="369.51 517.87 375.99 517.67 375.94 518.74 369.49 518.46 369.51 517.87"/><path class="cls-100" d="M381.06,563.53s0,1.92,0,4.59a33.83,33.83,0,0,0-7.81,1.37c-1.7-10.06,6.4-15.42,6.4-15.42s-7.42-.46-7.61-4.37,14.27-2.24,15.57.66S381.06,563.53,381.06,563.53Z"/><path class="cls-104" d="M365.08,574c7.79-7.24,21.21-5.84,21.21-5.84l11.56,44.44s24.06-49.88,27.87-53.18c2.55-2.21,5.51-4.93,14.51-5.35l4.07,35.75s-36,64.5-47.86,64.66c-8.07.1-14.69-3.73-18.48-14.84C372.25,622.91,365.08,574,365.08,574Z"/><polygon class="cls-105" points="422.79 932.52 420.08 955.3 451.16 953.1 451.16 932.52 422.79 932.52"/><polygon class="cls-105" points="509.51 915.67 522.34 933.49 546.24 913.49 534.19 896.82 509.51 915.67"/><path class="cls-106" d="M545.42,907.74s-19.4,19.38-29,20.94c0,0-.82,10-10.54,27s-11.93,27.53,6.69,15.4,51-40.17,47.95-45.31S545.42,907.74,545.42,907.74Z"/><path class="cls-107" d="M433.15,698.09S416.49,884.54,417.6,935.23h39.32l.76-72s29.63,33.08,52.37,55.82c0,0,21.24-1.17,27.74-19.58,0,0-46.2-73.09-49.45-82.84s34-75.25,31.81-118.57Z"/><path class="cls-108" d="M533.64,892.9c-15.64-17.72-44.56-56.5-51.08-62.47-8.67-7.93,16.6-86.57,18-109.57,1.4-22.28-35.4-22.76-37.7-22.76h57.25c2.16,43.31-35.06,108.82-31.81,118.56C491,824.61,522.22,874.71,533.64,892.9Z"/><path class="cls-106" d="M453.86,948s-27.07,4.33-35.73,0c0,0-6.5,7.58-24.36,15.7s-30.86,15.16-8.67,16.24,68.22-2.17,68.76-8.12S453.86,948,453.86,948Z"/><path class="cls-104" d="M439.73,708.42a20.62,20.62,0,0,1-7.07-.66c-1.77-3-2.1-7.49-1.68-16.29.69-14.54-1.77-41.54-1.77-63.42,0-20.34-6.21-55.23,1.78-69.28s38.95-20.24,38.95-20.24c2.49-.4,27.44-1,35.18,12.3,10.81,18.66,7.64,32,5.82,52.75s4.82,54.88,7.82,72.47c1.79,10.47,1.87,19.57-.79,25.26C496.62,702.7,449.6,708,439.73,708.42Z"/><path class="cls-109" d="M472.9,529.1s2.33,9.2,8.46,8.89c-.53-.36,4.67,5.52-11.92,15.24s-27,1.66-23.82-10.59C445.62,542.64,466.66,529.08,472.9,529.1Z"/><path class="cls-70" d="M422.91,495.57s-.21,16.43.73,23.94,4.81,22.68,20.15,23.3,22.27-8.1,27.4-12c0,0,16.07-18,12.94-22.68s-7.53-19.41-22.55-17.52S422.91,495.57,422.91,495.57Z"/><path class="cls-110" d="M423.22,478.91c-5,.63-7.83-1.56-7.83-1.56,5.32,1.87,28.79-13.8,43.5-18.19S484,476.36,484,476.36l5.64,4.38q8.46,6.57,2.83,22.54c-3.75,10.64-21.89,28.19-21.89,28.19-2.51.31,4.06-8.14,6.25-11s6.25-11,1.25-10.34-8.76,11.28-8.76,11.28c-3.45-7.2-.65-25.36-.65-25.36s-14.71,4.4-35.37,1.91-24.74-14.7-24.74-14.7A55.34,55.34,0,0,0,423.22,478.91Z"/><path class="cls-111" d="M439.82,708.51a19.59,19.59,0,0,1-7.44-.79,9.59,9.59,0,0,1-1.31-3.51c16.79,2.14,57-6.76,69.54-13.28,14.16-7.36,9.81-34.78,1.26-56.42s-2.31-49-2.31-49c2.79-2.2,7.31-8.53,12.36-16.67a181.83,181.83,0,0,1,3.25,33.27c.29,19.35,5.66,52.38,5.89,72.81.13,10.87,2.92,20.37.5,26.29C502.38,702.15,450.27,708,439.82,708.51Z"/><path class="cls-108" d="M441.44,863.26c-.72-16.23,9.72-55.19,9.72-55.19-4,33.91,6.52,55.19,6.52,55.19l-.76,72H442.51C460.83,895,440.79,866.86,441.44,863.26Z"/><path class="cls-80" d="M509.19,682.75c-6.25,5.91-15.07,11.46-13.83,15.85,2.71,9.54,15.89,10.27,20.32,5.8,4.09-4.82,4.15-16.37,4.15-16.37S515.38,676.9,509.19,682.75Z"/><path class="cls-80" d="M487,717.26c-1.32-.41-.66-11,.21-12.93.69-1.58,1.22-3.63,11.15-12L498,702s-6.77,3.92-7.51,4.89S490.75,715.7,487,717.26Z"/><path class="cls-80" d="M503,730c-1.72.49-4.13-9.83-4.26-12.26-.17-3.08-1-4.17-.06-19.88l5.39,8.63s-1.56,10.65-1.43,12.11S504.83,727.45,503,730Z"/><path class="cls-80" d="M509.19,729c-1.64.47-4-9.44-4.08-11.77-.16-2.95-1-4-.06-19.09l5.18,8.29s-1.5,10.22-1.38,11.63S510.92,726.59,509.19,729Z"/><path class="cls-80" d="M514.6,722.24c-1.39.4-3.35-8-3.45-10-.14-2.5-.83-3.39,0-16.15l4.38,7s-1.27,8.65-1.16,9.84S516.07,720.17,514.6,722.24Z"/><path class="cls-104" d="M501.8,687.23s14.36-43.51,21.13-53.26c0,0-30.93-31-35.93-48.12-5.41-18.48,8.38-57.8,23.34-31.49s44.16,65.41,41.11,86.43-23.34,31.48-29.78,57.37Z"/><path class="cls-111" d="M539.81,642l.21.21c0-.41,0-.8.05-1.21a31.84,31.84,0,0,0,.15-15.2c-.19-.79-.48-1.73-.84-2.78a143.87,143.87,0,0,0-11.24-39.48c12.92,21,25.35,43.22,23.31,57.3-3.05,21-23.34,31.48-29.78,57.37l-6.31-3.47c3-7.42,8.8-21.5,13.89-30.3C533.52,657,537.76,649.65,539.81,642Z"/></g></g></g></svg>