<svg xmlns="http://www.w3.org/2000/svg" viewBox="0 0 420.06 435.17"><defs><style>.cls-1{fill:#ebebeb;}.cls-2{fill:#fff;}.cls-3{fill:#a6a6a6;}.cls-4{fill:#3380db;}.cls-5,.cls-6{fill:#263238;}.cls-6,.cls-7{opacity:0.1;}.cls-8{fill:#37474f;}.cls-9{fill:none;}.cls-10,.cls-12{opacity:0.2;}.cls-11{fill:#dbdbdb;}.cls-13{fill:#f7a9a0;}.cls-14{fill:#455a64;}.cls-15{fill:#ff9abb;}</style></defs><g id="Layer_2" data-name="Layer 2"><g id="Character"><path class="cls-1" d="M41.46,260.73a29,29,0,1,0-13.3-31.38A28.94,28.94,0,0,0,41.46,260.73Z"/><path class="cls-2" d="M47.55,232.68a8.82,8.82,0,1,0,8.72-8.93A8.82,8.82,0,0,0,47.55,232.68Z"/><path class="cls-2" d="M41.42,257.09l0,3.64A29,29,0,0,0,72,260.35l0-3.63a15.25,15.25,0,0,0-30.49.37Z"/><path class="cls-1" d="M363.87,143.2a19,19,0,0,0,28.29-12,19,19,0,1,0-28.29,12Z"/><path class="cls-2" d="M367.86,124.83a5.78,5.78,0,1,0,5.71-5.85A5.78,5.78,0,0,0,367.86,124.83Z"/><path class="cls-2" d="M363.84,140.82l0,2.38a19,19,0,0,0,20-.25l0-2.37a10,10,0,1,0-20,.24Z"/><path class="cls-1" d="M174.94,95.19H48.3V8.55H174.94Zm-125.64-1H173.94V9.55H49.3Z"/><path class="cls-3" d="M58.2,14.14a2.52,2.52,0,1,1-2.52-2.53A2.52,2.52,0,0,1,58.2,14.14Z"/><path class="cls-1" d="M68.49,14.14A2.52,2.52,0,1,1,66,11.61,2.52,2.52,0,0,1,68.49,14.14Z"/><path class="cls-4" d="M78.78,14.14a2.52,2.52,0,1,1-2.52-2.53A2.52,2.52,0,0,1,78.78,14.14Z"/><rect class="cls-1" x="48.8" y="18.57" width="125.64" height="1"/><rect class="cls-1" x="23.55" y="116.54" width="66.59" height="42.23" transform="translate(-18.08 8.94) rotate(-7.77)"/><path class="cls-2" d="M87,112.24c-2.32,2.91-4.7,5.72-7,8.6s-4.76,5.64-7.15,8.44-5,5.82-7.52,8.71l-.23.27q-3.33,3.83-6.7,7.63l-.33.37-.41-.26-8.49-5.58a2.49,2.49,0,0,1-.3-.19q-4.8-3.15-9.59-6.38-4.57-3.07-9.13-6.22c-3-2.14-6.08-4.21-9.09-6.39,3.13,1.79,6.23,3.71,9.34,5.56s6.21,3.8,9.3,5.74q5.16,3.21,10.32,6.53h0L57.72,144c2-2.28,4.07-4.58,6.12-6.84,0,0,0,0,0,0,2.73-3,5.45-6.06,8.21-9q3.69-4,7.41-8C82,117.48,84.45,114.81,87,112.24Z"/><path class="cls-2" d="M50.2,140a.5.5,0,0,1-.07.08c-.3.34-.61.69-.92,1-1.46,1.63-3,3.2-4.52,4.73-1.88,1.89-3.82,3.72-5.78,5.54s-3.94,3.58-6,5.31-4.1,3.43-6.25,5c1.76-2,3.62-3.95,5.5-5.83S36,152.17,38,150.35s4-3.59,6-5.32c1.62-1.38,3.27-2.75,5-4.05l1.19-.9Z"/><path class="cls-2" d="M92.35,152.76c-2.5-1-4.95-2-7.36-3.17s-4.81-2.31-7.19-3.51-4.73-2.48-7-3.8c-1.89-1.06-3.77-2.16-5.6-3.33L64,138.2s0,0-.08-.06l.1,0,1.39.56c2,.8,3.93,1.67,5.87,2.57,2.43,1.12,4.81,2.31,7.18,3.52s4.73,2.47,7,3.79S90.11,151.28,92.35,152.76Z"/><rect class="cls-1" x="306.57" y="201.86" width="66.9" height="105.49" transform="translate(13.94 526.84) rotate(-76.68)"/><path class="cls-2" d="M399.05,234.21c-5.08,3-10.21,5.78-15.31,8.69s-10.24,5.64-15.37,8.41q-8,4.35-16.08,8.58l-.49.29-14.25,7.46-.7.34-.46-.62q-4.71-6.53-9.38-13.07c-.11-.14-.22-.3-.33-.46q-5.3-7.4-10.54-14.9c-3.33-4.75-6.65-9.57-10-14.39s-6.57-9.68-9.78-14.63c3.6,4.44,7.09,9,10.63,13.55s7,9.15,10.48,13.78q5.79,7.68,11.54,15.53l0,0q4.31,5.85,8.6,11.72c4.3-2.21,8.62-4.45,12.93-6.62,0,0,0,0,0,0q8.64-4.41,17.29-8.72,7.74-3.84,15.52-7.6C388.66,239.1,393.84,236.56,399.05,234.21Z"/><path class="cls-2" d="M328.85,254.29c-.05,0-.09.06-.15.08-.65.34-1.29.67-1.94,1-3.09,1.57-6.22,3-9.38,4.41-3.86,1.72-7.77,3.32-11.69,4.9s-7.87,3-11.86,4.44-8,2.74-12.1,3.87c3.76-2,7.6-3.77,11.45-5.48s7.79-3.31,11.7-4.9,7.88-3.05,11.87-4.45c3.18-1.11,6.4-2.19,9.66-3.15.75-.23,1.5-.44,2.27-.65Z"/><path class="cls-2" d="M383.89,297.16c-3.15-2.84-6.15-5.85-9.08-8.89s-5.79-6.15-8.63-9.28-5.58-6.35-8.25-9.62c-2.19-2.66-4.34-5.35-6.38-8.12-.45-.6-.88-1.19-1.31-1.78a1.7,1.7,0,0,1-.1-.14.75.75,0,0,0,.14.12l1.73,1.61c2.48,2.32,4.86,4.72,7.22,7.15,2.94,3,5.78,6.15,8.6,9.3s5.58,6.35,8.26,9.62S381.42,293.7,383.89,297.16Z"/><rect class="cls-1" x="316" width="60.61" height="38.44"/><path class="cls-2" d="M376.61,0c-2.45,2.34-4.94,4.58-7.41,6.89s-5,4.51-7.48,6.73-5.24,4.64-7.86,6.93l-.23.22-7,6.06-.35.28-.34-.28-7-6.07-.24-.21q-4-3.43-7.87-6.94c-2.49-2.21-5-4.47-7.47-6.72S318.45,2.34,316,0c2.6,2,5.16,4.11,7.74,6.17s5.13,4.18,7.68,6.32q4.26,3.53,8.51,7.15l0,0c2.12,1.79,4.24,3.6,6.36,5.41,2.11-1.81,4.23-3.63,6.35-5.41,0,0,0,0,0,0q4.24-3.6,8.51-7.16,3.82-3.18,7.67-6.3C371.45,4.11,374,2,376.61,0Z"/><path class="cls-2" d="M340,20.52l-.07.06q-.48.42-1,.81c-1.52,1.29-3.08,2.52-4.66,3.71-1.93,1.47-3.9,2.88-5.89,4.29s-4,2.73-6,4-4.12,2.59-6.25,3.76c1.83-1.61,3.75-3.11,5.68-4.57s3.91-2.89,5.88-4.29,4-2.75,6.06-4.06c1.63-1.05,3.28-2.08,5-3l1.18-.67Z"/><path class="cls-2" d="M376.46,37.2c-2.14-1.17-4.21-2.45-6.25-3.76s-4-2.68-6-4-4-2.82-5.89-4.29c-1.58-1.19-3.13-2.41-4.64-3.7l-1-.82s0,0-.07-.06l.09.05,1.18.67c1.7,1,3.34,2,5,3,2.05,1.31,4.05,2.67,6,4.06s4,2.81,5.89,4.29S374.62,35.59,376.46,37.2Z"/><ellipse class="cls-1" cx="209.82" cy="393.31" rx="198.33" ry="41.86"/><polygon class="cls-5" points="0 331.94 52.51 331.69 105.02 331.61 210.03 331.44 315.04 331.61 367.55 331.69 420.06 331.94 367.55 332.18 315.04 332.27 210.03 332.44 105.02 332.27 52.51 332.18 0 331.94"/><path class="cls-4" d="M348.74,271s-16.6-3.76-25.69-12.14-14.17-23.39-14.17-23.39a142.69,142.69,0,0,1,18.6,4.89,31.06,31.06,0,0,1,5.63,8,38.65,38.65,0,0,0,.05-5.69,25.25,25.25,0,0,1,5.91,3.59C346.61,252.79,348.74,271,348.74,271Z"/><path class="cls-5" d="M319.24,242.75c-2.27-1.57-4.57-3.08-6.82-4.66a.13.13,0,0,1,.14-.22c4.27,2.56,8.49,5.29,12.56,8.14,1.43,1,2.82,2,4.2,3.1-.09-.17-.19-.33-.29-.5-.49-.83-1-1.65-1.54-2.46a35.27,35.27,0,0,0-3.53-4.71c0-.05,0-.13.09-.07,1.29,1.49,2.58,3,3.76,4.54.56.75,1.08,1.53,1.57,2.33.26.41.51.83.75,1.25.08.14.17.28.25.43,2.14,1.68,4.23,3.44,6.23,5.3,1.23,1.14,2.41,2.33,3.56,3.56-.64-2-1.2-4-1.95-6,0-.07.09-.09.11,0,.73,2.08,1.52,4.16,2.07,6.29,1.28,1.38,2.49,2.8,3.64,4.28L344,263q-.28-1.17-.6-2.34c-.4-1.5-.84-3-1.35-4.46a25.91,25.91,0,0,0-4.45-8.42.06.06,0,0,1,.08-.08A32.36,32.36,0,0,1,344,261q.27,1.06.51,2.13c.08.37.18.76.25,1.14.5.68,1,1.37,1.46,2.07a71.63,71.63,0,0,1,7,13.76,160.7,160.7,0,0,1,5.32,16.58c0,.11-.14.15-.17,0-3.25-9.7-6.56-19.55-12.12-28.23-1.17-1.83-2.44-3.6-3.78-5.3a31.24,31.24,0,0,1-8.07-1.61,35.71,35.71,0,0,1-8.09-3.9c-1.46-.95-2.79-2.05-4.14-3.13-.07-.05,0-.14.07-.09a33.07,33.07,0,0,0,7.6,4.6,42,42,0,0,0,8.37,2.81c1.23.27,2.47.46,3.71.63a69.72,69.72,0,0,0-4.89-5.42c-.56-.56-1.14-1.09-1.72-1.63a38.78,38.78,0,0,0-6.13-3.52c-2.72-1.31-5.39-2.7-8.08-4.07-1.52-.77-3-1.56-4.56-2.31-.07,0,0-.13.06-.1,2.73,1.32,5.5,2.55,8.25,3.81,2.59,1.19,5.21,2.38,7.7,3.78l.31.18q-3.37-2.92-7-5.62Q322.63,245.11,319.24,242.75Z"/><path class="cls-5" d="M320.18,251.3c1.35.59,2.72,1.12,4.06,1.74s2.67,1.4,4,2.17c.06,0,0,.11-.06.08-1.32-.63-2.66-1.22-4-1.88s-2.67-1.4-4-2C320.08,251.38,320.11,251.27,320.18,251.3Z"/><path class="cls-4" d="M402.64,187.37a23.68,23.68,0,0,0-5,13.78c-.06,1.49.18,3.56.35,6a39.3,39.3,0,0,0-10.83,9.25,19.68,19.68,0,0,1,10.94-2.62,33.66,33.66,0,0,1-.63,5,18.81,18.81,0,0,0-7,1.39,15.81,15.81,0,0,1,6.35,1.26c-3,9.41-11.75,19.08-36,23.18a51,51,0,0,1,4.3-34.16C372.37,196.1,402.64,187.37,402.64,187.37Z"/><path class="cls-5" d="M352.39,284.84q.63-6,1.57-12a237.77,237.77,0,0,1,4.9-23.76,96.28,96.28,0,0,1,3.5-10.83,18,18,0,0,1-.09-1.94c0-.78,0-1.56,0-2.33,0-1.56.09-3.11.22-4.66a54.85,54.85,0,0,1,1.5-9.1c.44-1.73.95-3.43,1.46-5.15,0-.07.13,0,.11,0a66.86,66.86,0,0,0-1.79,9.08,84.45,84.45,0,0,0-.82,9.11c0,.84,0,1.67,0,2.51,0,.35,0,.71,0,1.07a80.41,80.41,0,0,1,4.09-8.47A103.48,103.48,0,0,1,375.32,216a5.73,5.73,0,0,1,.2-1.36c.12-.54.23-1.08.36-1.62.24-1.11.52-2.21.82-3.31.61-2.2,1.4-4.33,2.09-6.5,0-.07.13,0,.11,0-.64,2.15-1.07,4.37-1.56,6.56l-.72,3.25c-.12.54-.23,1.09-.34,1.63l0,.12c1-1.24,2-2.46,3-3.66,4.64-5.44,9.72-10.45,14.83-15.43.63-.61,1.28-1.21,1.91-1.81a.06.06,0,0,1,.08.08c-4.89,5.1-9.7,10.26-14.26,15.66q-1.62,1.92-3.2,3.89l1.66-1.09c1.41-.93,2.84-1.83,4.32-2.65s2.95-1.63,4.47-2.38,3.22-1.4,4.72-2.28c.06,0,.12.08,0,.1a36.91,36.91,0,0,0-4.43,2.46c-1.47.87-3,1.76-4.4,2.68s-2.86,1.79-4.28,2.71c-1.18.77-2.34,1.61-3.57,2.32a112.25,112.25,0,0,0-7.77,11.32,81.54,81.54,0,0,0-4,7.62l.87-.38,2.22-1c1.43-.64,2.86-1.25,4.29-1.88,2.73-1.18,5.49-2.27,8.16-3.57a37.8,37.8,0,0,0,4.36-2.42c.06,0,.11.06.06.1-5,3.43-10.56,5.85-16.07,8.29l-2.39,1c-.66.29-1.31.62-2,.87a84.9,84.9,0,0,0-4.11,11.25,229.71,229.71,0,0,0-5.28,23.49c-1.39,7.93-2.33,15.91-3.06,23.92-.09,1-.18,2-.29,3a.32.32,0,0,1-.64,0C351.55,293,352,288.88,352.39,284.84Z"/><path class="cls-5" d="M367.16,217.8c.44-2.47,1.1-4.89,1.77-7.3a.05.05,0,1,1,.1,0c-.61,2.37-1,4.79-1.49,7.2s-.86,4.92-1.21,7.39a0,0,0,1,1-.06,0A64.25,64.25,0,0,1,367.16,217.8Z"/><path class="cls-5" d="M377.62,224.49a42.75,42.75,0,0,1,5.28-3c.89-.46,1.78-.89,2.68-1.33s1.88-.82,2.8-1.28c.06,0,.12.07.05.1-.88.44-1.73,1-2.6,1.46s-1.79,1-2.69,1.47c-1.78,1-3.52,2-5.39,2.79A.14.14,0,0,1,377.62,224.49Z"/><path class="cls-6" d="M348.43,242.24s-15.35-3.66-22.4-14c-6.73-9.84-8.91-26.61-9.08-28.08.28,1.35,3.45,16,13.9,22.83C338.85,228.26,346.58,232.56,348.43,242.24Z"/><path class="cls-5" d="M334.26,215.72a19.52,19.52,0,0,1,5.66,9.32s0,.05,0,0a23,23,0,0,0-5.69-9.26C334.14,215.75,334.21,215.67,334.26,215.72Z"/><path class="cls-4" d="M348.43,242.24s-15.35-3.66-22.4-14c-6.73-9.84-8.91-26.61-9.08-28.08,0-.07,0-.11,0-.11s7.37,10.47,15.11,13.14S350.65,225.13,348.43,242.24Z"/><path class="cls-5" d="M319.65,205.87A63.21,63.21,0,0,0,324.4,214a32.44,32.44,0,0,0,6.32,6.5c2.08,1.66,4.29,3.16,6.4,4.78l-.05-.07c-.4-.59-.82-1.16-1.26-1.72-.88-1.12-1.84-2.18-2.8-3.23-1.91-2.07-3.86-4.1-5.57-6.34a23.23,23.23,0,0,1-2.46-4c0-.06.08-.1.11,0,2.49,5.19,7.46,8.51,11,12.9a23,23,0,0,1,1.42,1.94,7.66,7.66,0,0,1,.88,1.56,32,32,0,0,1,5.24,5.29,21.29,21.29,0,0,0-.62-3,15.25,15.25,0,0,0-1.62-3.89.05.05,0,0,1,.09-.06,18.52,18.52,0,0,1,1.79,3.86,13.5,13.5,0,0,1,.56,3.32h0a32,32,0,0,1,2.07,3.22c-.06-.32-.12-.65-.19-1-.3-1.53-.64-3.06-1-4.56a27.19,27.19,0,0,0-3.69-8.65c0-.06.05-.13.09-.07a32.49,32.49,0,0,1,4.09,8.47c.49,1.5.89,3,1.23,4.58.17.76.32,1.51.47,2.27.07.4.16.8.22,1.2a55.32,55.32,0,0,1,3.54,10.41,151.81,151.81,0,0,1,3.27,19.41A161.48,161.48,0,0,1,355,287.76c0,.86-.06,1.72-.11,2.58a.18.18,0,0,1-.36,0c-.15-3.4-.23-6.81-.44-10.21s-.49-6.81-.86-10.21A180.1,180.1,0,0,0,350,250.1c-1.24-5.62-2.86-11.27-5.92-16.19a30.63,30.63,0,0,0-5.54-6.58c-2.16-1.93-4.51-3.63-6.78-5.42a37.41,37.41,0,0,1-6.22-6,49.23,49.23,0,0,1-4.88-7.93l-1.1-2.08C319.53,205.87,319.62,205.8,319.65,205.87Z"/><path class="cls-5" d="M322.3,208.12a51.35,51.35,0,0,0,3.43,6,0,0,0,0,1-.08.05,41.9,41.9,0,0,1-3.45-6A.05.05,0,1,1,322.3,208.12Z"/><path class="cls-4" d="M404.78,235.45S405,257.27,392,263.57s-20,1.05-28.9,3.16h0c.35-.52,6.67-9.61,16.74-12.12C390.17,252,401.64,244.54,404.78,235.45Z"/><path class="cls-7" d="M404.78,235.45S405,257.27,392,263.57s-20,1.05-28.9,3.16h0a49.32,49.32,0,0,1,14.84-4.38C386.14,261.35,401.86,256,404.78,235.45Z"/><path class="cls-5" d="M362.21,267.12a22,22,0,0,1,5.19-3.51c.28-.14.57-.25.85-.37s.28-.34.44-.5q.58-.62,1.23-1.17a18.74,18.74,0,0,1,2.62-1.89c2.16-1.27,4.53-2.16,6.74-3.34.06,0,.12.07.05.1-1.09.57-2.15,1.19-3.21,1.81s-2.09,1.18-3.09,1.83a22.41,22.41,0,0,0-2.59,1.94c-.23.2-.45.42-.67.64a35.36,35.36,0,0,1,4.41-1.17c2.39-.49,4.81-.83,7.19-1.34a33.91,33.91,0,0,0,3.46-.93c1.08-.87,2.16-1.74,3.19-2.68a26,26,0,0,0,3.37-3.74c0-.06.14,0,.1.06a39.89,39.89,0,0,1-5.35,5.9c.56-.21,1.12-.44,1.67-.69a27,27,0,0,0,11.11-9.25c0-.06.14,0,.1.06a30.44,30.44,0,0,1-9,8.63,27.41,27.41,0,0,1-5.69,2.69,53.25,53.25,0,0,1-7.06,1.67,51,51,0,0,0-6.91,1.64,20.94,20.94,0,0,0-5.8,3.06,27.11,27.11,0,0,0-7.82,9.69,48.48,48.48,0,0,0-4.3,15.95c0,.24-.39.24-.37,0C352.69,283,355.14,273.49,362.21,267.12Z"/><path class="cls-5" d="M377.35,260a7.54,7.54,0,0,1,2.68-2.43,9.81,9.81,0,0,0,3.19-2.64c0-.05.14,0,.1.06a10.79,10.79,0,0,1-2.82,2.53,9.67,9.67,0,0,0-3.07,2.54C377.4,260.11,377.32,260.06,377.35,260Z"/><polygon class="cls-8" points="370.43 283.22 369.83 295.22 368.01 331.88 340.65 331.88 338.83 295.22 338.23 283.22 370.43 283.22"/><polygon class="cls-5" points="370.43 283.22 369.83 295.22 338.83 295.22 338.23 283.22 370.43 283.22"/><rect class="cls-8" x="336.32" y="278.21" width="36.03" height="11.45"/><path class="cls-5" d="M291.4,15.59H128.22a16.65,16.65,0,0,0-16.5,16.81V368.29a16.67,16.67,0,0,0,16.5,16.81H291.4a16.68,16.68,0,0,0,16.52-16.81V32.4A16.67,16.67,0,0,0,291.4,15.59Zm6.19,342.31c0,8.84-6.62,16-14.78,16h-146c-8.18,0-14.8-7.16-14.8-16V45.13c0-18,6.62-18.89,14.8-18.89h29.25c1.7,0,3.09,1.93,3.09,4.32v1c0,5.61,3.07,5.62,6.83,5.62h67.62c3.8,0,6.85,0,6.85-5.62v-1c0-2.39,1.37-4.32,3.1-4.32h29.24c8.16,0,14.78,2.39,14.78,18.89Z"/><line class="cls-9" x1="122.03" y1="338.08" x2="121.48" y2="338.08"/><path class="cls-2" d="M297.6,45.4V358.18c0,8.84-6.62,16-14.78,16h-146c-8.18,0-14.8-7.15-14.8-16V45.4c0-18,6.62-18.88,14.8-18.88h29.25c1.7,0,3.09,1.93,3.09,4.32v1c0,5.61,3.07,5.63,6.83,5.63h67.62c3.8,0,6.85,0,6.85-5.63v-1c0-2.39,1.37-4.32,3.1-4.32h29.24C291,26.52,297.6,28.91,297.6,45.4Z"/><path class="cls-4" d="M297.6,45.41V73.78H122V45.41c0-18,6.62-18.89,14.8-18.89h29.25c1.7,0,3.09,1.93,3.09,4.32v1c0,5.6,3.07,5.62,6.83,5.62h67.62c3.8,0,6.85,0,6.85-5.62v-1c0-2.39,1.37-4.32,3.1-4.32h29.24C291,26.52,297.6,28.91,297.6,45.41Z"/><path class="cls-2" d="M219,30.22H200.59a1.14,1.14,0,0,1-1.14-1.14h0a1.14,1.14,0,0,1,1.14-1.14H219a1.14,1.14,0,0,1,1.14,1.14h0A1.14,1.14,0,0,1,219,30.22Z"/><g id="u5Zjqx"><path class="cls-2" d="M161,33.27l-.28.28a1.21,1.21,0,0,0-.16.16,3.85,3.85,0,0,0-5.45,0l-.15-.16c-.1-.09-.19-.19-.28-.28h0l0,0,.36-.31a4,4,0,0,1,.82-.53A4.32,4.32,0,0,1,157,32l.55-.07H158l.37,0a4.29,4.29,0,0,1,1,.24,3.51,3.51,0,0,1,.68.32,4.18,4.18,0,0,1,.65.45l.3.27Z"/><path class="cls-2" d="M156,34.6l-.45-.45a3.22,3.22,0,0,1,4.55,0l-.45.44a2.55,2.55,0,0,0-1.83-.75A2.49,2.49,0,0,0,156,34.6Z"/><path class="cls-2" d="M159.24,35l-.44.44a1.31,1.31,0,0,0-.94-.38,1.27,1.27,0,0,0-.93.39l-.45-.45A1.94,1.94,0,0,1,159.24,35Z"/><path class="cls-2" d="M158.27,35.89a.41.41,0,1,1-.41-.4A.4.4,0,0,1,158.27,35.89Z"/></g><path class="cls-2" d="M133.48,34.12a1.17,1.17,0,1,1,1.16,1.16A1.16,1.16,0,0,1,133.48,34.12Z"/><path class="cls-2" d="M137.14,34.12a1.17,1.17,0,1,1,1.17,1.16A1.17,1.17,0,0,1,137.14,34.12Z"/><path class="cls-2" d="M140.81,34.12A1.17,1.17,0,1,1,142,35.28,1.16,1.16,0,0,1,140.81,34.12Z"/><path class="cls-2" d="M144.47,34.12a1.17,1.17,0,1,1,1.17,1.16A1.17,1.17,0,0,1,144.47,34.12Z"/><path class="cls-2" d="M148.14,34.12a1.17,1.17,0,1,1,1.16,1.16A1.16,1.16,0,0,1,148.14,34.12Z"/><path class="cls-2" d="M284.43,36.66H275V32.27h9.48Zm-9-.48h8.5V32.75h-8.5Z"/><rect class="cls-2" x="275.74" y="33.02" width="6.11" height="2.9"/><rect class="cls-2" x="284.43" y="33.29" width="0.84" height="2.35"/><polygon class="cls-2" points="138.67 62.93 133.48 58.07 138.67 53.21 139.47 54.06 135.2 58.07 139.47 62.07 138.67 62.93"/><path class="cls-2" d="M281.68,63.28h-3.5V62.06a.27.27,0,0,0-.16-.24l-.38-.23a.29.29,0,0,0-.3,0l-1,.61-1.75-3,1.06-.61a.3.3,0,0,0,.13-.26,1.62,1.62,0,0,1,0-.22,1.55,1.55,0,0,1,0-.22.32.32,0,0,0-.13-.27l-1.06-.6,1.75-3,1,.61a.28.28,0,0,0,.29,0l.39-.22a.28.28,0,0,0,.16-.25V52.86h3.5v1.21a.28.28,0,0,0,.15.25,3.61,3.61,0,0,1,.39.22.3.3,0,0,0,.3,0l1.05-.61,1.75,3-1.06.61a.26.26,0,0,0-.13.26v.44a.26.26,0,0,0,.13.26l1.06.61-1.75,3-1.06-.61a.28.28,0,0,0-.29,0,3.64,3.64,0,0,1-.39.23.28.28,0,0,0-.15.24Zm-2.75-.75h2v-.47a1,1,0,0,1,.56-.91l.32-.18a1,1,0,0,1,1.08,0l.4.23,1-1.73-.41-.23a1,1,0,0,1-.5-1v-.37a1,1,0,0,1,.5-.94l.41-.24-1-1.73-.4.24a1,1,0,0,1-1.08,0,2,2,0,0,0-.32-.18,1,1,0,0,1-.56-.92v-.46h-2v.46a1,1,0,0,1-.57.92,2.58,2.58,0,0,0-.32.18,1,1,0,0,1-1.07,0l-.41-.24-1,1.73.4.23a1.05,1.05,0,0,1,.51,1v.37a1,1,0,0,1-.51.94l-.4.23,1,1.73.41-.23a1,1,0,0,1,1.08,0,3.37,3.37,0,0,0,.32.19,1,1,0,0,1,.56.91Zm1-1.84a2.63,2.63,0,1,1,2.62-2.62A2.63,2.63,0,0,1,279.93,60.69Zm0-4.5a1.88,1.88,0,1,0,1.87,1.88A1.88,1.88,0,0,0,279.93,56.19Z"/><polygon class="cls-4" points="272.46 262.72 147.18 262.72 147.18 156.74 209.81 116.96 272.46 156.74 272.46 262.72"/><polygon class="cls-10" points="272.46 262.72 147.18 262.72 147.18 156.74 209.81 116.96 272.46 156.74 272.46 262.72"/><polygon class="cls-1" points="265.4 254.61 154.24 254.61 154.24 111.92 236.78 111.92 265.4 139.11 265.4 254.61"/><polygon class="cls-11" points="236.78 111.92 265.4 139.11 236.78 139.11 236.78 111.92"/><rect class="cls-11" x="165.09" y="135.86" width="61.8" height="3.66" transform="translate(391.98 275.39) rotate(180)"/><rect class="cls-11" x="165.09" y="145.11" width="61.8" height="3.66" transform="translate(391.98 293.89) rotate(180)"/><rect class="cls-11" x="165.09" y="154.36" width="61.8" height="3.66" transform="translate(391.98 312.38) rotate(180)"/><rect class="cls-11" x="165.09" y="163.61" width="90.55" height="3.66" transform="translate(420.72 330.88) rotate(180)"/><rect class="cls-11" x="165.09" y="172.85" width="90.55" height="3.66" transform="translate(420.72 349.37) rotate(180)"/><rect class="cls-11" x="165.09" y="182.1" width="90.55" height="3.66" transform="translate(420.72 367.87) rotate(180)"/><rect class="cls-11" x="165.09" y="191.35" width="90.55" height="3.66" transform="translate(420.72 386.37) rotate(180)"/><rect class="cls-11" x="165.09" y="200.6" width="90.55" height="3.66" transform="translate(420.72 404.86) rotate(180)"/><rect class="cls-11" x="165.09" y="209.85" width="90.55" height="3.66" transform="translate(420.72 423.36) rotate(180)"/><rect class="cls-11" x="165.09" y="219.09" width="90.55" height="3.66" transform="translate(420.72 441.85) rotate(180)"/><rect class="cls-11" x="165.09" y="228.34" width="90.55" height="3.66" transform="translate(420.72 460.35) rotate(180)"/><rect class="cls-11" x="165.09" y="237.59" width="90.55" height="3.66" transform="translate(420.72 478.85) rotate(180)"/><path class="cls-4" d="M272.46,183.27v79.45H147.18V183.27c5.38,3,10.67,6.24,16,9.36s10.61,6.36,15.88,9.6c5.87,3.57,11.74,7.21,17.59,10.87l.19-.11c-.06,0-.09.1-.15.13q6.57,4.09,13.15,8.23c4.36-2.75,8.75-5.52,13.13-8.23-.05,0-.09-.09-.15-.13a.87.87,0,0,0,.19.1q8.77-5.47,17.59-10.88,7.91-4.83,15.86-9.58C261.8,189.51,267.08,186.31,272.46,183.27Z"/><g class="cls-12"><path d="M272.46,183.27c-5.06,3.55-10.21,7-15.31,10.46s-10.29,6.84-15.47,10.23q-8.1,5.31-16.23,10.52l-.49.34L210.53,224l-.72.43-.7-.43L194.7,214.8l-.5-.32q-8.16-5.22-16.26-10.54c-5.16-3.37-10.31-6.79-15.45-10.21s-10.25-6.91-15.31-10.46c5.38,3,10.67,6.24,16,9.36s10.61,6.36,15.88,9.6c5.87,3.57,11.74,7.21,17.59,10.87,0,0,0,0,0,0q6.57,4.09,13.15,8.23c4.36-2.75,8.75-5.52,13.13-8.23,0,0,0,0,0,0q8.77-5.47,17.59-10.88,7.91-4.83,15.86-9.58C261.8,189.51,267.08,186.31,272.46,183.27Z"/><path d="M196.83,213c-.06,0-.09.1-.15.13q-1,.85-2,1.68c-3.14,2.65-6.36,5.19-9.63,7.66-4,3-8.07,6-12.17,8.86s-8.26,5.66-12.5,8.37-8.5,5.36-12.92,7.79c3.8-3.33,7.75-6.44,11.74-9.47s8.09-6,12.17-8.86,8.28-5.68,12.51-8.39c3.37-2.16,6.8-4.29,10.3-6.28.8-.47,1.61-.92,2.44-1.38Z"/><path d="M272.16,247.48c-4.42-2.43-8.71-5.08-12.92-7.79s-8.38-5.53-12.52-8.37-8.18-5.82-12.17-8.86c-3.25-2.47-6.47-5-9.59-7.64l-2-1.7c-.05,0-.09-.09-.15-.13a.87.87,0,0,0,.19.1c.83.47,1.64.92,2.45,1.39,3.5,2,6.9,4.12,10.29,6.28,4.23,2.71,8.37,5.53,12.49,8.39S256.41,235,260.4,238,268.36,244.15,272.16,247.48Z"/></g><rect class="cls-1" x="147.18" y="291.68" width="18.26" height="18.26"/><rect class="cls-1" x="173.86" y="291.68" width="18.26" height="18.26"/><rect class="cls-1" x="200.54" y="291.68" width="18.26" height="18.26"/><rect class="cls-1" x="227.22" y="291.68" width="18.26" height="18.26"/><rect class="cls-1" x="253.91" y="291.68" width="18.26" height="18.26"/><rect class="cls-1" x="146.62" y="319.56" width="124.98" height="1.97"/><rect class="cls-1" x="146.62" y="324.76" width="124.98" height="1.97"/><rect class="cls-1" x="146.62" y="329.97" width="124.98" height="1.97"/><rect class="cls-1" x="146.62" y="335.17" width="58.02" height="1.97"/><path class="cls-5" d="M147.65,138h-1.42v-.75h4V138Zm-6.42-.07-4-.11,0-.75,4,.11Zm14,0,0-.75c1.32,0,2.65-.06,4-.11l0,.75C157.89,137.88,156.56,137.91,155.24,137.94Zm9-.31,0-.75,4-.2,0,.75Zm-32,0c-1.35-.08-2.69-.17-4-.27l.05-.75c1.31.1,2.63.19,4,.27Zm41-.49-.05-.75,4-.28.06.75Zm-50-.22c-1.36-.14-2.68-.29-4-.46l.09-.74c1.29.16,2.62.31,4,.45Zm59-.46-.07-.75,4-.35.07.75Zm-67.92-.69c-1.35-.21-2.67-.44-4-.68l.14-.73c1.28.23,2.59.46,3.93.67Zm76.88-.14-.07-.75,4-.41.08.75Zm9-1-.09-.75,1-.12c1-.11,1.95-.23,2.92-.36l.1.74-2.94.37Zm-94.71-.59c-1.32-.3-2.63-.62-3.89-.95l.19-.73c1.25.34,2.55.65,3.87,1Zm103.64-.63-.12-.74c1.32-.22,2.63-.44,3.94-.69l.14.74Zm8.88-1.66-.15-.73,3.9-.86.16.73C220.56,131.21,219.26,131.49,218,131.77Zm-121.23-.06c-1.29-.41-2.57-.85-3.8-1.3l.26-.7c1.22.44,2.48.88,3.77,1.29Zm130-2-.19-.72c1.29-.33,2.58-.67,3.86-1l.2.72Q228.67,129.23,226.73,129.72ZM88.27,128.53c-1.24-.55-2.46-1.13-3.63-1.73l.34-.67c1.16.59,2.37,1.17,3.59,1.71Zm147.14-1.2-.21-.72,3.81-1.16.22.71C238,126.56,236.69,127,235.41,127.33Zm8.59-2.71-.24-.71c1.26-.43,2.53-.86,3.78-1.3l.25.71Zm-163.74-.28c-1.15-.71-2.28-1.46-3.35-2.23l.44-.61c1.06.76,2.17,1.5,3.3,2.2Zm172.24-2.72-.26-.71c1.25-.46,2.5-.94,3.74-1.41l.27.7C255,120.68,253.76,121.15,252.5,121.62ZM73,119c-1-.88-2-1.81-2.93-2.76l.54-.52c.92.93,1.89,1.85,2.89,2.71Zm188-.64-.29-.69c1.25-.51,2.48-1,3.7-1.53l.29.69C263.38,117.34,262.15,117.85,260.91,118.35Zm8.3-3.5-.3-.69,3.65-1.62.31.68ZM66.68,112.48a22,22,0,0,1-2.24-3.39l.66-.35A20.58,20.58,0,0,0,67.27,112Zm210.74-1.36-.31-.68c1.21-.57,2.42-1.14,3.61-1.72l.32.68C279.85,110,278.65,110.55,277.42,111.12Zm8.12-3.93-.34-.67,3.57-1.81.34.67Zm-222.8-2.9a14.78,14.78,0,0,1-.25-2.74c0-.45,0-.89.06-1.34l.74.06c0,.43,0,.85,0,1.28a15.05,15.05,0,0,0,.23,2.6Zm230.81-1.23-.35-.66c1.2-.64,2.38-1.27,3.53-1.9l.36.66Zm7.92-4.32-.36-.65,3.48-2,.37.65C303.83,97.41,302.67,98.07,301.47,98.74Zm-237-3.19-.7-.28a24.06,24.06,0,0,1,1.81-3.63l.64.39A23,23,0,0,0,64.44,95.55Zm244.85-1.31-.38-.65c1.19-.7,2.34-1.39,3.43-2l.39.64ZM317,89.55l-.4-.64c1.22-.76,2.35-1.48,3.38-2.14l.41.63ZM69.09,88l-.57-.49c.83-1,1.75-2,2.74-3l.53.54C70.81,86.09,69.91,87.07,69.09,88Zm255.5-3.39-.42-.63c2.16-1.44,3.31-2.26,3.31-2.26l.44.61S326.76,83.2,324.59,84.65ZM75.48,81.8,75,81.22c1-.82,2-1.66,3.17-2.48l.44.6C77.51,80.16,76.46,81,75.48,81.8Zm7.22-5.3-.41-.63c1.1-.71,2.25-1.43,3.41-2.13l.39.65C84.93,75.08,83.79,75.79,82.7,76.5Zm7.72-4.58-.35-.66c1.16-.62,2.36-1.24,3.57-1.84l.33.67C92.77,70.69,91.58,71.3,90.42,71.92ZM98.49,68l-.3-.69c1.24-.55,2.48-1.07,3.7-1.56l.28.7C101,66.91,99.72,67.43,98.49,68Z"/><polygon class="cls-4" points="333.52 64.68 327.7 82.06 340.59 71.43 390.44 51.85 333.52 64.68"/><polygon class="cls-7" points="333.52 64.68 327.7 82.06 340.59 71.43 390.44 51.85 333.52 64.68"/><polygon class="cls-5" points="342.39 75.4 327.7 82.06 340.59 71.43 342.39 75.4"/><polygon class="cls-4" points="340.59 71.43 390.44 51.85 350.23 93.23 340.59 71.43"/><polygon class="cls-4" points="333.52 64.68 312.24 51.73 390.44 51.85 333.52 64.68"/><path class="cls-5" d="M313.64,273.58l-1.44-1.38.51-.54,1.45,1.38Z"/><path class="cls-5" d="M307.06,352.84l0-.75c1.34,0,2.68-.12,4-.25l.07.75C309.78,352.72,308.42,352.8,307.06,352.84Zm-5-.09c-1.32-.07-2.67-.19-4-.35l.08-.74c1.34.15,2.68.27,4,.35Zm14.07-.93-.16-.73c1.33-.28,2.62-.61,3.85-1l.22.72C318.75,351.2,317.43,351.54,316.09,351.82ZM293,351.65c-1.28-.24-2.61-.52-3.94-.83l.17-.73c1.32.31,2.63.58,3.91.82Zm-8.81-2.12c-1.27-.38-2.56-.79-3.84-1.22l.24-.71c1.27.43,2.55.84,3.81,1.21Zm40.52-.55-.32-.68a32.27,32.27,0,0,0,3.48-1.91l.4.64A35.66,35.66,0,0,1,324.72,349Zm-49.09-2.39c-1.23-.49-2.49-1-3.72-1.54l.3-.68c1.22.52,2.47,1,3.7,1.52ZM332.32,344l-.51-.56a26.18,26.18,0,0,0,2.72-2.86l.58.47A26.72,26.72,0,0,1,332.32,344Zm-65-1q-1.79-.86-3.6-1.8l.34-.66c1.21.62,2.4,1.21,3.59,1.78Zm-8-4.18c-1.18-.66-2.33-1.34-3.47-2l.38-.64c1.14.68,2.29,1.35,3.46,2Zm78.62-2-.66-.36a26.07,26.07,0,0,0,1.61-3.61l.7.26A26.83,26.83,0,0,1,337.93,336.79Zm-86.36-2.68c-1.13-.73-2.24-1.48-3.34-2.23l.43-.62c1.09.75,2.2,1.49,3.32,2.22ZM244.14,329c-1.08-.8-2.15-1.61-3.2-2.43l.46-.59c1,.82,2.11,1.62,3.19,2.41Zm96.72-.8-.73-.13a33.46,33.46,0,0,0,.41-3.94l.75,0A31.25,31.25,0,0,1,340.86,328.17ZM237,323.41c-1-.86-2.06-1.72-3.08-2.59l.49-.57c1,.87,2,1.73,3.07,2.58Zm103.4-4.26c-.13-1.29-.32-2.62-.58-3.94l.74-.14a40.35,40.35,0,0,1,.58,4ZM230.17,317.5c-1-.9-2-1.8-3-2.71l.51-.55c1,.91,2,1.81,2.95,2.7Zm-6.59-6.16c-1-.93-1.91-1.87-2.86-2.81l.53-.54c.94.95,1.9,1.88,2.86,2.81Zm115-.95c-.37-1.23-.81-2.5-1.3-3.77l.7-.27c.5,1.29.94,2.57,1.32,3.82ZM217.18,305c-.94-1-1.87-1.91-2.8-2.87l.53-.52,2.8,2.86Zm118.15-2.92c-.57-1.17-1.18-2.37-1.83-3.54l.65-.36c.66,1.18,1.28,2.39,1.86,3.58Zm-124.44-3.56-2.77-2.91.55-.51,2.77,2.9Zm120.05-4.27c-.69-1.1-1.44-2.21-2.22-3.32l.62-.43c.78,1.11,1.53,2.24,2.24,3.35ZM204.67,292l-2.77-2.9.55-.52,2.76,2.9Zm121.08-5.06c-.8-1-1.65-2.07-2.52-3.11l.57-.48c.88,1,1.74,2.1,2.54,3.13Zm-127.31-1.46c-.93-1-1.85-1.92-2.79-2.88l.54-.53,2.79,2.89ZM319.93,280c-.88-1-1.79-1.94-2.74-2.91l.54-.53c.95,1,1.87,2,2.76,2.93Zm-127.79-1-2.83-2.84.53-.53,2.83,2.84Zm-6.4-6.35-2.89-2.77.51-.55,2.9,2.78Zm-6.55-6.19c-1-.9-2-1.8-3-2.7l.5-.56c1,.9,2,1.81,3,2.71Zm-6.71-6c-1-.87-2-1.74-3-2.6l.48-.58c1,.87,2.05,1.75,3.05,2.62Zm-6.89-5.8c-1-.84-2.07-1.67-3.13-2.51l.47-.59c1.06.84,2.1,1.68,3.13,2.52ZM158.51,249c-1.06-.8-2.12-1.6-3.21-2.4l.45-.6c1.08.8,2.16,1.6,3.21,2.41Zm-7.26-5.33L148,241.41l.42-.62c1.12.77,2.22,1.53,3.3,2.3Zm-7.44-5.08c-1.11-.73-2.23-1.46-3.36-2.18l.4-.63c1.14.72,2.26,1.45,3.37,2.18Zm-7.61-4.83c-1.13-.69-2.27-1.38-3.43-2.07l.38-.64c1.17.69,2.31,1.38,3.44,2.07Zm-7.76-4.58c-1.15-.66-2.31-1.31-3.49-2l.36-.66c1.18.66,2.35,1.31,3.5,2Zm-7.9-4.34c-1.17-.62-2.35-1.23-3.55-1.85l.34-.66c1.2.61,2.39,1.23,3.56,1.85Zm-8-4.09c-1.18-.59-2.39-1.17-3.6-1.75l.32-.68c1.22.58,2.42,1.17,3.61,1.75Zm-8.14-3.87-3.65-1.65.3-.68q1.86.81,3.66,1.65Zm-8.24-3.65c-1.22-.52-2.45-1-3.7-1.55l.29-.7,3.7,1.56Z"/><path class="cls-5" d="M87.55,209.73,85.69,209l.27-.7,1.87.74Z"/><polygon class="cls-4" points="89.92 197.2 96.53 215.35 82.66 204.51 29.62 185.28 89.92 197.2"/><polygon class="cls-7" points="89.92 197.2 96.53 215.35 82.66 204.51 29.62 185.28 89.92 197.2"/><polygon class="cls-5" points="80.88 208.74 96.53 215.35 82.66 204.51 80.88 208.74"/><polygon class="cls-4" points="82.66 204.51 29.62 185.28 73.13 227.73 82.66 204.51"/><polygon class="cls-4" points="89.92 197.2 111.97 182.97 29.62 185.28 89.92 197.2"/><circle class="cls-3" cx="282.18" cy="72.54" r="35.4" transform="translate(147.66 330.98) rotate(-76.92)"/><rect class="cls-2" x="258.02" y="57.21" width="48.32" height="30.65"/><path class="cls-11" d="M306.34,57.21c-1.95,1.87-3.94,3.66-5.91,5.5s-4,3.59-6,5.37-4.17,3.69-6.26,5.52l-.19.18-5.57,4.83-.28.22-.26-.22-5.56-4.84-.2-.17q-3.15-2.75-6.27-5.53c-2-1.77-4-3.57-6-5.36s-3.95-3.63-5.9-5.5c2.07,1.6,4.11,3.28,6.16,4.92s4.1,3.34,6.13,5c2.26,1.88,4.53,3.78,6.78,5.71h0l5.07,4.31c1.69-1.44,3.38-2.89,5.07-4.31,0,0,0,0,0,0q3.39-2.88,6.79-5.71,3-2.53,6.11-5C302.23,60.49,304.26,58.81,306.34,57.21Z"/><path class="cls-11" d="M277.17,73.58l-.06,0-.76.64c-1.21,1-2.46,2-3.72,3-1.54,1.17-3.11,2.3-4.69,3.41s-3.19,2.19-4.82,3.23-3.28,2.07-5,3c1.47-1.29,3-2.48,4.53-3.65s3.12-2.3,4.7-3.42,3.19-2.19,4.82-3.24c1.3-.83,2.62-1.65,4-2.42l.94-.53Z"/><path class="cls-11" d="M306.22,86.88c-1.7-.94-3.36-2-5-3s-3.23-2.13-4.83-3.23-3.15-2.24-4.69-3.41c-1.26-1-2.5-1.93-3.7-3l-.77-.65-.06,0,.07,0,.95.54c1.35.77,2.66,1.59,4,2.42,1.64,1.05,3.23,2.14,4.82,3.24s3.16,2.24,4.7,3.42S304.76,85.59,306.22,86.88Z"/><circle class="cls-4" cx="301.05" cy="57.21" r="7.79" transform="translate(9.33 151.05) rotate(-28.59)"/><path class="cls-2" d="M300.2,58.93V52.58a.86.86,0,1,1,1.71,0v6.35a.86.86,0,1,1-1.71,0Zm.86,3.78a.86.86,0,0,1-.86-.87v-.31a.86.86,0,1,1,1.71,0v.31A.85.85,0,0,1,301.06,62.71Z"/><path class="cls-5" d="M95.68,263.26c15.18,7.17,24.67,36.59,17,60.5C104.43,349.6,78,354.54,62.76,349c-16.15-5.86-21-23.7-13.7-34.38,7.09-10.3,18.75-13.36,21.91-22.78,1.51-4.51,1.31-12.84,3.25-19.6C76.4,264.72,86.5,258.93,95.68,263.26Z"/><path class="cls-5" d="M101.54,267.36a64.66,64.66,0,0,1,13.55,22.14,52.22,52.22,0,0,1,2.85,12.78,51.44,51.44,0,0,1,.14,6.57,59.33,59.33,0,0,1-.71,6.52c-1.46,8.59-5,17.05-11,23.45a37.11,37.11,0,0,1-10.5,7.78,37.81,37.81,0,0,1-12.49,3.61,38,38,0,0,0,22.47-11.87c5.83-6.38,9.27-14.64,10.64-23.12a60.37,60.37,0,0,0,.74-6.42,51.43,51.43,0,0,0-.1-6.45,55,55,0,0,0-2.68-12.61A64.87,64.87,0,0,0,109,278,67.49,67.49,0,0,0,101.54,267.36Z"/><path class="cls-5" d="M72.66,280.87a39.6,39.6,0,0,1-1,7.16,23,23,0,0,1-2.84,6.7,19.6,19.6,0,0,1-5,5.3c-2,1.39-3.93,2.76-5.8,4.25a35.72,35.72,0,0,0-9.54,10.48,21.51,21.51,0,0,0-2.51,13.8,21,21,0,0,1-.34-7.21,19,19,0,0,1,.82-3.56,20.27,20.27,0,0,1,1.42-3.36c2.26-4.36,5.82-7.86,9.58-10.87,1.89-1.51,3.91-2.87,5.87-4.23a19.73,19.73,0,0,0,4.94-5C70.91,290.41,72,285.61,72.66,280.87Z"/><path class="cls-13" d="M311.56,406.91c-2.23.86-67,3.75-69.57,2.3-.28-.16-.2-3-1.16-10.42,0-.35-1.52-1.72-3.83-3.66-8.67-7.27-29-22.58-29-22.58l32.34-28.1,31.34,30.81,8.15,8s26.48,12.58,29.1,14.47S313.79,406.06,311.56,406.91Z"/><path class="cls-5" d="M311.57,406.92c-2.24.85-67,3.74-69.58,2.29-.28-.16-.2-3-1.16-10.42,9.27,1.4,58.69,4,60.4-1.85.68-2.29-6.67-6.47-8-7.2,7,3.39,14.36,7.05,15.68,8C311.5,399.64,313.79,406.06,311.57,406.92Z"/><path class="cls-8" d="M260.22,360.88l-5,5.69L230.34,395s-34.26-24.9-44.32-33.12c-.32-.26-39.88,27.72-68.8,33.12C95,399.12,80,390.76,71.27,370.08l36.65-16.22c30.72-15.14,65.33-39.24,86.26-36.71C216.91,319.91,260.22,360.88,260.22,360.88Z"/><path class="cls-5" d="M252.39,358.8c-5.11,5.53-3.71,3.88-8.76,9.46-2.47,2.73-14.93,16.44-16.81,19.37,0,.06.05.14.11.1,2.69-2.22,14.84-16.19,17.26-19,4.95-5.68,3.47-4.1,8.36-9.83C252.64,358.84,252.49,358.7,252.39,358.8Z"/><path class="cls-5" d="M251.27,371.09,230.35,395S196.08,370.08,186,361.87c-.32-.27-39.88,27.71-68.8,33.12C95,399.12,80,390.76,71.27,370.08l36.65-16.22c4.07-2,8.2-4.17,12.36-6.4C152.47,353.33,223,366,251.27,371.09Z"/><path class="cls-13" d="M306.23,419c-2.23.86-67,3.75-69.58,2.3-.27-.16-.2-3-1.15-10.42-.05-.35-1.52-1.73-3.83-3.66-8.67-7.27-29-22.58-29-22.58L235,356.49l31.34,30.81,8.15,8s26.48,12.58,29.1,14.47S308.46,418.09,306.23,419Z"/><path class="cls-5" d="M306.23,419c-2.23.85-67,3.74-69.58,2.29-.27-.16-.2-3-1.15-10.42,9.27,1.4,58.68,4,60.4-1.85.67-2.29-6.67-6.47-8-7.2,7,3.39,14.35,7.05,15.67,8C306.17,411.68,308.46,418.1,306.23,419Z"/><path class="cls-5" d="M286.2,401.11c-2.64-1.41-5.26-2.84-7.94-4.15a14.35,14.35,0,0,1-3.51-2.19c-1.1-1-2.13-2.06-3.2-3.09-4.35-4.15-8.68-8.31-13.06-12.43-2.37-2.22-4.72-4.47-7.07-6.72,0-.06-.15,0-.1.08.15.23,4.09,4.45,6,6.36,2.13,2.15,4.3,4.26,6.47,6.38l6.45,6.3,3.26,3.15a12.25,12.25,0,0,0,3.3,2.35c3.07,1.45,6.19,2.78,9.31,4.12C286.21,401.32,286.31,401.17,286.2,401.11Z"/><path class="cls-8" d="M65.3,363.65s-4.76,26,8.85,37.15c9.8,8,22.67,8.81,33.81,7.22,30.78-4.37,56.86-41.55,67.1-43.54,5.25-1,46.55,39.83,46.55,39.83l32.08-31.06c-8.16-7.08-56.82-56.28-81.38-56.28-16.81,0-59.44,34.92-60.46,34.51-1.68-.66-9.14-4.25-9.14-4.25Z"/><path class="cls-5" d="M247.19,370c-4,3.38-7.77,7.06-11.56,10.66s-7.53,7.19-11.23,10.85c-2.11,2.08-4.19,4.16-6.22,6.3a.06.06,0,0,0,.08.08c4-3.44,7.77-7.05,11.58-10.65s7.53-7.19,11.24-10.84c2.1-2.06,4.23-4.13,6.22-6.3C247.37,370,247.27,369.9,247.19,370Z"/><path class="cls-5" d="M90.81,359.63c-.06-.14-.27,0-.24.1a17.09,17.09,0,0,1-1.36,11.59c-2.08,4-5.86,6.82-9.22,9.65-.33.28.09.78.44.58a35,35,0,0,0,6.06-4.5,16.81,16.81,0,0,0,4.08-5.42A14.92,14.92,0,0,0,90.81,359.63Z"/><path class="cls-5" d="M112.44,354.1c-1-.7-2-1.34-2.92-2-2.29-1.58-4.59-3.17-7-4.66-.22-.14-.48.22-.27.38,1.66,1.26,3.37,2.45,5.07,3.66l2.62,1.84a15.73,15.73,0,0,1,2.47,1.82,1.21,1.21,0,0,1-.59,2,3.31,3.31,0,0,1-2.43-.21,30.06,30.06,0,0,1-4.84-3c-.95-.62-1.91-1.24-2.87-1.84s-2.08-1.23-3.1-1.87c-.06,0-.14.06-.08.11.94.75,1.85,1.56,2.79,2.31s1.89,1.49,2.86,2.22,1.83,1.35,2.78,2a8.92,8.92,0,0,0,2.62,1.3c1.53.41,3.85,0,4.08-1.93A2.48,2.48,0,0,0,112.44,354.1Z"/><path class="cls-5" d="M251.56,370.77c-2-2.08-4.15-4.06-6.27-6s-4.21-4-6.35-5.89c-4.28-3.9-8.62-7.76-13.05-11.5s-9-7.34-13.68-10.77-9.37-6.63-14.31-9.56c-2.47-1.47-5-2.9-7.57-4.18a79,79,0,0,0-7.71-3.56c-.72-.27-1.43-.53-2.14-.83-.1,0-.19.12-.09.17,1.32.58,2.59,1.29,3.88,1.93s2.52,1.3,3.77,2c2.53,1.33,5,2.74,7.48,4.19q7.41,4.41,14.43,9.42c4.69,3.35,9.23,6.89,13.67,10.57s8.87,7.47,13.19,11.34,8.56,7.75,12.86,11.59c.55.48,1.09,1,1.65,1.43A.18.18,0,0,0,251.56,370.77Z"/><path class="cls-5" d="M219.94,393.63c-9.89-9.41-36.66-33.37-42.72-37.37a5.31,5.31,0,0,0-4.19-.69,11.29,11.29,0,0,0-4,2.51l-4.4,3.49-9.05,7.17c-5.65,4.48-11.26,9-17,13.43A127.61,127.61,0,0,1,122.62,393c-10.74,6-24.32,9.79-36.16,4.64a24.27,24.27,0,0,1-12.15-12c-2.56-5.33-3.63-11.26-4.29-17.09-.16-1.41-.28-2.83-.4-4.25,0-.07-.11-.07-.11,0,.55,11,2.3,23.77,11.61,31,9.9,7.69,23.83,6.35,34.77,1.86,12.26-5,22.54-13.84,32.81-22l18-14.26c1.45-1.16,2.87-2.36,4.37-3.46s3.25-1.92,4.95-.93c5.68,3.3,42.45,36.22,43.75,37.36A.16.16,0,0,0,219.94,393.63Z"/><path class="cls-13" d="M95.45,306.34c6.6,4,34.89,20.53,46.15,15.84,6.74-2.81,18.92-22.33,23.61-30.08,2.63-4.34-23.21-12.37-25.23-8.24-3.45,7.06-7.92,16.69-9,17.61s-18.63-2.48-31.49-3.36C87.93,297.32,90.8,303.52,95.45,306.34Z"/><path class="cls-13" d="M168.61,283c-.78,5.34-6.64,15.62-9,17.56s-20.19-7.46-20.73-10.55,3.48-20.85,7.51-24.6S169.42,277.5,168.61,283Z"/><path class="cls-13" d="M139,286.89a44.92,44.92,0,0,0-4.84-12.07c-2.77-4.39-7.39-10.6-5.08-12.18,4.74-3.25,16.23,12.25,16.23,12.25s4,7.65-.43,11.28A5.68,5.68,0,0,1,139,286.89Z"/><polygon class="cls-4" points="154.71 288.24 162.07 284.55 151.38 263.23 142.07 267.9 154.71 288.24"/><polygon class="cls-14" points="142.07 267.9 146.89 275.66 154.71 288.24 162.07 284.55 151.39 263.23 142.07 267.9"/><polygon class="cls-5" points="142.07 267.9 146.89 275.66 155.46 271.37 151.39 263.23 142.07 267.9"/><rect class="cls-14" x="139.89" y="259.25" width="12.96" height="9.85" transform="translate(395.6 434.76) rotate(153.38)"/><polygon class="cls-14" points="128.99 263.35 138.45 259.74 131.31 245.49 122.75 250.91 128.99 263.35"/><polygon class="cls-14" points="134.52 240.35 145.06 261.38 161.07 255.61 202.68 250.93 177.37 200.44 148.72 230.97 134.52 240.35"/><path class="cls-14" d="M182.68,229.36c7,14,16.37,23.55,20.88,21.29S206,235.2,199,221.19s-16.36-23.54-20.87-21.28S175.66,215.35,182.68,229.36Z"/><path class="cls-5" d="M184.37,228c6.23,12.43,14.27,21,18,19.17s1.62-13.43-4.61-25.87-14.28-21-18-19.17S178.13,215.54,184.37,228Z"/><path class="cls-14" d="M185.45,227.43c.83,1.66,1.7,3.24,2.58,4.75a5.64,5.64,0,0,0,6.25-8l-1.19-2.39a5.63,5.63,0,0,0-7.56-2.51,5.54,5.54,0,0,0-2.59,2.67C183.68,223.72,184.52,225.57,185.45,227.43Z"/><polygon class="cls-4" points="137.5 266.63 155.78 259.64 141.97 232.09 125.43 242.55 137.5 266.63"/><polygon class="cls-5" points="137.5 266.63 155.78 259.64 141.97 232.09 125.43 242.55 137.5 266.63"/><path class="cls-5" d="M176.74,205.08a17.37,17.37,0,0,0-.16,6.35,39.18,39.18,0,0,0,1.34,6.24c.27,1,.64,2,1,3.05s.74,2,1.15,3,.82,2,1.28,2.93.9,1.93,1.38,2.87a70,70,0,0,0,6.7,10.86,35.64,35.64,0,0,0,4.3,4.72,15,15,0,0,0,5.4,3.32,15.77,15.77,0,0,1-5.2-3.53,36.23,36.23,0,0,1-4.13-4.79,74,74,0,0,1-6.53-10.85,76.48,76.48,0,0,1-4.89-11.68,40.82,40.82,0,0,1-1.49-6.15A18.32,18.32,0,0,1,176.74,205.08Z"/><path class="cls-5" d="M194.8,194.65c-.85,1.21-1.63,2.45-2.41,3.7s-1.51,2.51-2.25,3.79S188.7,204.69,188,206l-1,2c-.31.66-.65,1.32-.95,2,.43-.6.82-1.22,1.24-1.83l1.17-1.87c.78-1.24,1.51-2.51,2.25-3.78s1.44-2.56,2.11-3.87S194.19,196,194.8,194.65Z"/><path class="cls-5" d="M199.24,238.18c1.66-.06,3.31-.19,5-.33s3.29-.33,4.94-.51,3.28-.41,4.92-.67l2.46-.38c.81-.16,1.63-.29,2.44-.46-.83,0-1.65.09-2.48.13l-2.48.2c-1.65.14-3.3.33-4.94.51s-3.29.41-4.93.67S200.87,237.85,199.24,238.18Z"/><path class="cls-5" d="M226.82,223.92c-2.38.51-4.75,1.09-7.11,1.68s-4.71,1.23-7.06,1.86-4.69,1.31-7,2l-3.5,1.06c-1.16.37-2.33.73-3.48,1.12,1.19-.25,2.38-.54,3.56-.81l3.55-.88c2.36-.58,4.71-1.22,7.06-1.86s4.69-1.3,7-2S224.51,224.69,226.82,223.92Z"/><path class="cls-5" d="M208,191.22c-1.61,1.88-3.16,3.8-4.71,5.73s-3.06,3.87-4.57,5.83-3,3.92-4.44,5.92l-2.18,3c-.71,1-1.44,2-2.13,3,.81-.93,1.59-1.89,2.39-2.84l2.32-2.88c1.55-1.92,3.06-3.87,4.57-5.83s3-3.93,4.45-5.92S206.57,193.27,208,191.22Z"/><path class="cls-5" d="M195,222.93c2.6-1.18,5.16-2.43,7.72-3.68s5.1-2.57,7.64-3.84,5.06-2.63,7.57-4l3.77-2c1.24-.7,2.49-1.38,3.72-2.1-1.3.58-2.58,1.2-3.87,1.81L217.73,211c-2.56,1.26-5.09,2.56-7.64,3.84s-5.06,2.63-7.57,4S197.5,221.51,195,222.93Z"/><path class="cls-13" d="M141.34,272.44c1.11,2.64,3.58-.18,3.58-.18s-2.58,4.91-.38,7.18,5-1.32,5.18-1.57c-.13.27-2.38,4.83.06,6.89s4.8-1.87,4.95-2.13c0,.28-.64,4.07,1.57,5.22,3.79,2,5.56-7.7,8.49-9.54,0,0,3.69,4.6,3.82,4.71s1.88-9.15-.83-12.95A3,3,0,0,0,164.2,269s.93-2.88-.93-4.56c-1-.86-3.2-.09-3.2-.09a3.74,3.74,0,0,0-1.1-3.73c-1.4-1.11-3.42-.16-3.42-.16s-.42-2.54-2.22-3.21C149.71,255.87,139,266.8,141.34,272.44Z"/><path class="cls-5" d="M155.21,260.55s0-.1-.05-.07a26.61,26.61,0,0,0-10.39,11.92c-.06.16.17.33.27.17A54.2,54.2,0,0,1,155.21,260.55Z"/><path class="cls-5" d="M160.11,264.27s0-.12-.08-.08a24.89,24.89,0,0,0-10.52,13.7c-.06.2.09.44.17.21C151.06,274.31,156.35,267.49,160.11,264.27Z"/><path class="cls-5" d="M154.76,283.07c1.77-5.53,5.14-9.94,9.25-14,.05-.05,0-.12-.08-.09-2.55,1.42-4.9,4.26-6.55,6.63a15.38,15.38,0,0,0-2.82,7.37C154.55,283.12,154.72,283.19,154.76,283.07Z"/><path class="cls-5" d="M144.83,272.29c-.08.19.28.09.21.28-.3.81-1.7,5.84-.13,6.85,1.26.81,3.21-.33,3.79-1.05l1.46-1.84-.73,2.23a9.72,9.72,0,0,0-.51,3.06,3.43,3.43,0,0,0,1,2.62,1.94,1.94,0,0,0,2.45.23,5.81,5.81,0,0,0,1.94-2.24l1.31-2.45-.43,2.73a8.78,8.78,0,0,0-.08,2.29,3.66,3.66,0,0,0,.74,2,1.76,1.76,0,0,0,1.75.6,4,4,0,0,0,1.73-1.33,30.13,30.13,0,0,0,2.59-4.06c.41-.7.81-1.41,1.25-2.1a5.89,5.89,0,0,1,1.62-1.82,6.08,6.08,0,0,0-1.42,1.94c-.39.71-.74,1.44-1.09,2.17a25.93,25.93,0,0,1-2.42,4.28,4.63,4.63,0,0,1-2,1.67,2.51,2.51,0,0,1-2.62-.79,4.51,4.51,0,0,1-1-2.47,10,10,0,0,1,0-2.56l.88.28a6.8,6.8,0,0,1-2.27,2.68A2.83,2.83,0,0,1,151,286a3.28,3.28,0,0,1-1.72-.81,4.35,4.35,0,0,1-1.27-3.32,10.72,10.72,0,0,1,.61-3.36l.73.4c-.77.9-2.82,2.4-4.92,1.4C141.9,278.55,144.31,273.23,144.83,272.29Z"/><path class="cls-5" d="M144.92,272.26a5.76,5.76,0,0,1-1.54.85,1.33,1.33,0,0,1-1.32-.21,2.72,2.72,0,0,1-.68-1.38c-.12-.56-.22-1.16-.31-1.78a4.72,4.72,0,0,0-.31,1.87,2.7,2.7,0,0,0,.77,1.89,1.81,1.81,0,0,0,2.1.18A3,3,0,0,0,144.92,272.26Z"/><path class="cls-4" d="M124.7,298.78l-14.83,16.81s-10-5.22-15.1-8.89c-6.78-4.85-6.56-8.5,3.61-9.49C105.18,296.55,124.7,298.78,124.7,298.78Z"/><path class="cls-10" d="M113.13,311.82a1.3,1.3,0,0,0-1.3,1.3.83.83,0,0,0,0,.22l.43-.49a.79.79,0,0,1,.46-.53h0l.41-.47Zm7.06-7.92a1.27,1.27,0,0,0-1.24-1,1.3,1.3,0,0,0-1.3,1.3,1.27,1.27,0,0,0,1.17,1.26l.37-.42a.67.67,0,0,1-.24,0,.89.89,0,1,1,.88-.88.57.57,0,0,1,0,.13Zm-12.89-1a1.29,1.29,0,1,0,1.3,1.3A1.29,1.29,0,0,0,107.3,302.89Zm0,2.18a.89.89,0,1,1,.88-.88A.89.89,0,0,1,107.3,305.07Zm-11.64-2.18a1.29,1.29,0,1,0,1.29,1.3A1.3,1.3,0,0,0,95.66,302.89Zm0,2.18a.89.89,0,1,1,.89-.88A.89.89,0,0,1,95.66,305.07Z"/><path class="cls-5" d="M121.6,299.08c-2.33,2.3-4.61,4.63-6.8,7.06-1.1,1.21-2.17,2.43-3.22,3.68s-2,2.6-3.06,3.82c0,.07.06.16.11.09,1-1.28,2.19-2.43,3.26-3.66s2.16-2.45,3.25-3.66c2.17-2.43,4.34-4.86,6.57-7.24C121.77,299.1,121.66,299,121.6,299.08Z"/><path class="cls-7" d="M116.84,307.69l-7,7.91a169.32,169.32,0,0,1-15.1-8.89c-4.85-3.48-6.11-6.34-2.71-8Z"/><path class="cls-4" d="M115.65,341.34l2,7.5S63.28,390.4,60.81,389.07c0,0,8.06-72.61,22-87,7-7.21,14.93-6.46,19.89-1.18,1.25,1.34,14.88,18.4,16.31,26.19C120.26,333.92,115.65,341.34,115.65,341.34Z"/><path class="cls-5" d="M114.65,317.25c-.84-1.53-1.72-3-2.66-4.48a14.58,14.58,0,0,0-.76-1.6c-.39-.77-.77-1.53-1.11-2.32,0-.07-.13,0-.1,0,.36.78.68,1.56,1,2.36a.69.69,0,0,1,0,.13c-.35-.5-.7-1-1.06-1.48-.57-.76-1.11-1.56-1.75-2.26,0,0-.08,0-.06.05.45.82,1,1.59,1.53,2.38s1,1.64,1.59,2.46c1.07,1.6,2.16,3.18,3.24,4.77A.06.06,0,0,0,114.65,317.25Z"/><path class="cls-10" d="M84,302.89a1.29,1.29,0,1,0,1.3,1.3A1.29,1.29,0,0,0,84,302.89Zm0,2.18a.89.89,0,0,1,0-1.77.89.89,0,0,1,0,1.77Zm11.65-2.18a1.29,1.29,0,1,0,1.29,1.3A1.3,1.3,0,0,0,95.66,302.89Zm0,2.18a.89.89,0,1,1,.89-.88A.89.89,0,0,1,95.66,305.07ZM73.59,321.45c-.15.47-.29.94-.43,1.42a1.23,1.23,0,0,0,.5-1A1.16,1.16,0,0,0,73.59,321.45ZM84,320.57a1.29,1.29,0,1,0,1.3,1.3A1.29,1.29,0,0,0,84,320.57Zm0,2.18a.89.89,0,0,1-.88-.88A.87.87,0,0,1,84,321a.86.86,0,0,1,.88.88A.87.87,0,0,1,84,322.75Zm11.65-2.18a1.29,1.29,0,1,0,1.29,1.3A1.3,1.3,0,0,0,95.66,320.57Zm0,2.18a.89.89,0,0,1-.88-.88.89.89,0,0,1,1.77,0A.89.89,0,0,1,95.66,322.75Zm11.64-2.18a1.29,1.29,0,1,0,1.3,1.3A1.29,1.29,0,0,0,107.3,320.57Zm0,2.18a.89.89,0,0,1-.88-.88.88.88,0,0,1,1.76,0A.89.89,0,0,1,107.3,322.75ZM78.2,311.82a1.29,1.29,0,1,0,1.28,1.3A1.3,1.3,0,0,0,78.2,311.82Zm0,2.18a.89.89,0,1,1,.87-.88A.87.87,0,0,1,78.2,314Zm11.64-2.18a1.29,1.29,0,1,0,1.29,1.3A1.3,1.3,0,0,0,89.84,311.82Zm0,2.18a.89.89,0,1,1,.88-.88A.89.89,0,0,1,89.84,314Zm11.63-2.18a1.29,1.29,0,1,0,1.3,1.3A1.29,1.29,0,0,0,101.47,311.82Zm0,2.18a.89.89,0,1,1,.89-.88A.88.88,0,0,1,101.47,314Zm10.37-.94a.13.13,0,0,0,0,.06,1.3,1.3,0,0,0,.84,1.2C112.4,313.9,112.12,313.48,111.84,313.06Zm-39.47,25.2a1.29,1.29,0,1,0,1.29,1.29A1.29,1.29,0,0,0,72.37,338.26Zm0,2.18a.89.89,0,1,1,.89-.89A.89.89,0,0,1,72.37,340.44ZM84,338.26a1.29,1.29,0,1,0,1.3,1.29A1.29,1.29,0,0,0,84,338.26Zm0,2.18a.89.89,0,0,1,0-1.77.89.89,0,0,1,0,1.77Zm11.65-2.18A1.29,1.29,0,1,0,97,339.55,1.3,1.3,0,0,0,95.66,338.26Zm0,2.18a.89.89,0,1,1,.89-.89A.89.89,0,0,1,95.66,340.44Zm11.64-2.18a1.29,1.29,0,1,0,1.3,1.29A1.29,1.29,0,0,0,107.3,338.26Zm0,2.18a.89.89,0,1,1,.88-.89A.89.89,0,0,1,107.3,340.44ZM78.2,329.5a1.3,1.3,0,1,0,1.28,1.3A1.3,1.3,0,0,0,78.2,329.5Zm0,2.19a.89.89,0,1,1,.87-.89A.88.88,0,0,1,78.2,331.69Zm11.64-2.19a1.3,1.3,0,1,0,1.29,1.3A1.3,1.3,0,0,0,89.84,329.5Zm0,2.19a.89.89,0,1,1,0-1.77.89.89,0,0,1,0,1.77Zm11.63-2.19a1.3,1.3,0,1,0,1.3,1.3A1.29,1.29,0,0,0,101.47,329.5Zm0,2.19a.89.89,0,1,1,.89-.89A.88.88,0,0,1,101.47,331.69Zm11.66-2.19a1.3,1.3,0,1,0,1.29,1.3A1.3,1.3,0,0,0,113.13,329.5Zm0,2.19a.89.89,0,1,1,0-1.77.89.89,0,0,1,0,1.77ZM72.37,355.94a1.29,1.29,0,1,0,1.29,1.3A1.3,1.3,0,0,0,72.37,355.94Zm0,2.18a.89.89,0,0,1-.88-.88.89.89,0,0,1,1.77,0A.89.89,0,0,1,72.37,358.12ZM84,355.94a1.29,1.29,0,1,0,1.3,1.3A1.29,1.29,0,0,0,84,355.94Zm0,2.18a.89.89,0,0,1-.88-.88.87.87,0,0,1,.88-.88.86.86,0,0,1,.88.88A.87.87,0,0,1,84,358.12Zm11.65-2.18a1.29,1.29,0,1,0,1.29,1.3A1.3,1.3,0,0,0,95.66,355.94Zm0,2.18a.89.89,0,0,1-.88-.88.89.89,0,0,1,1.77,0A.89.89,0,0,1,95.66,358.12Zm11.64-2.18a1.29,1.29,0,0,0-1.28,1.3,1,1,0,0,0,.07.38c.12-.08.23-.17.34-.26a.49.49,0,0,1,0-.12.87.87,0,0,1,.88-.88.86.86,0,0,1,.36.08l.37-.28A1.31,1.31,0,0,0,107.3,355.94Zm-40-8.52c0,.16-.07.31-.1.46a.85.85,0,0,1,.25.61.9.9,0,0,1-.52.8l-.09.45a1.29,1.29,0,0,0,.46-2.32Zm10.92-.23a1.29,1.29,0,1,0,1.28,1.3A1.3,1.3,0,0,0,78.2,347.19Zm0,2.18a.89.89,0,1,1,.87-.88A.87.87,0,0,1,78.2,349.37Zm11.64-2.18a1.29,1.29,0,1,0,1.29,1.3A1.3,1.3,0,0,0,89.84,347.19Zm0,2.18a.89.89,0,1,1,.88-.88A.89.89,0,0,1,89.84,349.37Zm11.63-2.18a1.29,1.29,0,1,0,1.3,1.3A1.29,1.29,0,0,0,101.47,347.19Zm0,2.18a.89.89,0,1,1,.89-.88A.88.88,0,0,1,101.47,349.37Zm11.66-2.18a1.29,1.29,0,1,0,1.29,1.3A1.3,1.3,0,0,0,113.13,347.19Zm0,2.18a.89.89,0,1,1,.88-.88A.89.89,0,0,1,113.13,349.37ZM72.37,373.63a1.29,1.29,0,1,0,1.29,1.29A1.29,1.29,0,0,0,72.37,373.63Zm0,2.18a.89.89,0,1,1,.89-.89A.89.89,0,0,1,72.37,375.81ZM84,373.63a1.29,1.29,0,0,0-1.28,1.25l.5-.35h0a.86.86,0,0,1,.65-.47h0l.49-.36A1.15,1.15,0,0,0,84,373.63Zm-17.46-8.76a1.29,1.29,0,1,0,0,2.58,1.29,1.29,0,0,0,0-2.58Zm0,2.18a.88.88,0,1,1,.88-.88A.89.89,0,0,1,66.55,367.05Zm11.65-2.18a1.29,1.29,0,1,0,1.28,1.3A1.3,1.3,0,0,0,78.2,364.87Zm0,2.18a.88.88,0,1,1,.87-.88A.87.87,0,0,1,78.2,367.05Zm11.64-2.18a1.29,1.29,0,1,0,1.29,1.3A1.3,1.3,0,0,0,89.84,364.87Zm0,2.18a.88.88,0,1,1,.88-.88A.89.89,0,0,1,89.84,367.05ZM66.55,382.56a1.29,1.29,0,1,0,0,2.58,1.29,1.29,0,0,0,0-2.58Zm0,2.18a.89.89,0,1,1,.88-.88A.89.89,0,0,1,66.55,384.74Z"/><path class="cls-13" d="M82.5,302.8c-19.19,20-47.18,70.57-50.64,77.83-2.35,4.93,23.4,17.91,24.5,14.33,1.39-4.59,23.82-61.22,29.78-82.58C89.43,300.6,86.47,298.67,82.5,302.8Z"/><path class="cls-13" d="M57.57,391.57c-.9,2.45-4,12.87-6.1,14.17s-13.36,1-19,1-6.77-1.57-6.68-3.52,12-2.32,12-2.32-15.85,4.54-19.83,5.29S4.73,409.27,3.41,406c-.6-1.49,1.91-3,1.91-3s-3.85,1.13-4.47-.79c-.69-2.18,2.37-3.38,2.37-3.38s-2.41.48-2.46-1.29c-.13-4,15-5.93,15-5.93S4.16,397.19,3.79,394c-.51-4.49,23.15-9.41,25.61-11.36a16.81,16.81,0,0,0,3.94-4.87Z"/><path class="cls-5" d="M25.87,404.23a1.76,1.76,0,0,1,.53-1.52,4.74,4.74,0,0,1,1.38-.89A17.78,17.78,0,0,1,31,400.77c2.23-.57,4.52-1,6.79-1.56a27.85,27.85,0,0,0-7,.79,12.72,12.72,0,0,0-3.33,1.27,4.59,4.59,0,0,0-1.4,1.2A1.81,1.81,0,0,0,25.87,404.23Z"/><path class="cls-5" d="M5.32,403c1.63-.4,3.24-.86,4.84-1.32s3.2-1,4.8-1.44l4.78-1.5c1.59-.49,3.18-1,4.79-1.47a37.9,37.9,0,0,0-5,.89c-1.63.37-3.24.84-4.84,1.32s-3.19,1-4.76,1.62S6.84,402.25,5.32,403Z"/><path class="cls-5" d="M20.7,393.27a32,32,0,0,0-4.57.63,42.67,42.67,0,0,0-4.48,1.16,39.5,39.5,0,0,0-4.33,1.61,33.12,33.12,0,0,0-4.1,2.12c1.46-.5,2.88-1.06,4.33-1.55s2.88-1,4.34-1.43,2.92-.88,4.38-1.31S19.21,393.68,20.7,393.27Z"/><path class="cls-5" d="M18.37,389.49A28.3,28.3,0,0,0,11.09,391a27.83,27.83,0,0,0-6.7,3.24c2.35-.84,4.63-1.72,7-2.49S16,390.25,18.37,389.49Z"/><path class="cls-4" d="M62.33,324.35l22.4.79a168.45,168.45,0,0,0,3.94-17.08c1.13-8.26-1.67-10.61-9.38-3.91C74.14,308.64,62.33,324.35,62.33,324.35Z"/><path class="cls-10" d="M78.2,311.82a1.29,1.29,0,1,0,1.28,1.3A1.3,1.3,0,0,0,78.2,311.82Zm0,2.18a.89.89,0,1,1,.87-.88A.87.87,0,0,1,78.2,314ZM84,320.57a1.29,1.29,0,1,0,1.3,1.3A1.29,1.29,0,0,0,84,320.57Zm0,2.18a.89.89,0,0,1-.88-.88A.87.87,0,0,1,84,321a.86.86,0,0,1,.88.88A.87.87,0,0,1,84,322.75Zm-11.64-2.18a1.29,1.29,0,1,0,1.29,1.3A1.3,1.3,0,0,0,72.37,320.57Zm0,2.18a.89.89,0,0,1-.88-.88.89.89,0,0,1,1.77,0A.89.89,0,0,1,72.37,322.75ZM84,302.89a1.29,1.29,0,1,0,1.3,1.3A1.29,1.29,0,0,0,84,302.89Zm0,2.18a.89.89,0,0,1,0-1.77.89.89,0,0,1,0,1.77Z"/><path class="cls-5" d="M82,325.05c.24,0,2.55,0,2.71,0,.33-1.28.65-2.57,1-3.85.17-.64.36-1.28.55-1.91s.41-1.5.6-2.12a.07.07,0,1,1,.14,0c-.17.83-.32,1.44-.46,2.15s-.28,1.28-.44,1.91c-.33,1.34-.63,2.78-1,4.1a23.27,23.27,0,0,1-3-.24S82,325.05,82,325.05Z"/><path class="cls-5" d="M64.68,322.3c3.27-.11,6.53-.17,9.8-.09,1.63,0,3.26.1,4.89.2s3.25.34,4.87.41c.09,0,.08.15,0,.14-1.62-.15-3.27-.09-4.89-.15s-3.27-.12-4.9-.16c-3.25-.09-6.51-.19-9.77-.21C64.58,322.44,64.59,322.31,64.68,322.3Z"/><path class="cls-2" d="M92.41,297c-6.72.67-4.93,7.44-2,10.55,2,2.07,6,4.16,8.28,3.34s.48-6,.48-6,3.79,3.67,5.19,2.08S99.37,296.32,92.41,297Z"/><path class="cls-13" d="M88.92,300.57c.38,1,5.51,4.83,10,4,1.46-.29.79-6.48.79-6.48l.05-.61.65-8.61L89.7,284l-1.54-.63s0,2.37,0,5.32v.42c0,.17,0,.32,0,.48,0,.44,0,.89,0,1.34s0,.67,0,1l0,1.06A55.63,55.63,0,0,0,88.92,300.57Z"/><path class="cls-5" d="M88.14,288.66a17.32,17.32,0,0,0,11.62,8.78l.65-8.61L89.7,284l-1.54-.63S88.14,285.71,88.14,288.66Z"/><path class="cls-13" d="M109.12,271.41c6.24,13.81-1.33,19.11-4.31,20.45-2.7,1.22-12.06,5-19.69-8.07S81.93,263.43,88,260.32,102.89,257.6,109.12,271.41Z"/><path class="cls-5" d="M103.59,269.14a9,9,0,0,1-1,.16,1.67,1.67,0,0,1-1.08,0,.53.53,0,0,1-.24-.61,1.35,1.35,0,0,1,1.12-.77,2,2,0,0,1,1.4.21A.58.58,0,0,1,103.59,269.14Z"/><path class="cls-5" d="M94.08,273.34c.31-.17.58-.37.88-.57s.62-.36.78-.75a.52.52,0,0,0-.24-.61,1.33,1.33,0,0,0-1.34.18,1.94,1.94,0,0,0-.9,1.09A.58.58,0,0,0,94.08,273.34Z"/><path class="cls-5" d="M97.66,276.16s0,.08,0,.11c.42,1,.74,2.1,0,2.77a0,0,0,0,0,0,0C98.66,278.51,98.22,277,97.66,276.16Z"/><path class="cls-5" d="M96.4,275.51c-1.58.52-.43,3.65,1,3.17S97.73,275.08,96.4,275.51Z"/><path class="cls-5" d="M95.85,275.9c-.21.28-.36.69-.68.85s-.77-.05-1.14-.27c0,0,0,0,0,0,.21.61.67,1.14,1.34,1s.84-.82.77-1.48C96.09,275.92,95.93,275.79,95.85,275.9Z"/><path class="cls-5" d="M103.13,273.59s.09,0,.1.06c.32,1,.85,2.05,1.84,2.06,0,0,.05.05,0,.06C104,276,103.27,274.57,103.13,273.59Z"/><path class="cls-5" d="M103.63,272.26c1.52-.68,2.77,2.41,1.36,3S102.36,272.83,103.63,272.26Z"/><path class="cls-5" d="M104.36,272.21c.31.06.67.26,1,.16s.46-.55.55-.95c0-.05,0,0,.06,0,.25.59.31,1.28-.21,1.62s-1.06,0-1.44-.57C104.22,272.38,104.23,272.18,104.36,272.21Z"/><path class="cls-5" d="M100.72,283.48c.31.15.64.4,1,.31a2.8,2.8,0,0,0,1-.58,0,0,0,0,1,.05,0,1.38,1.38,0,0,1-1.07.93,1.11,1.11,0,0,1-1-.63C100.6,283.5,100.67,283.45,100.72,283.48Z"/><path class="cls-5" d="M103.42,278.46s.75,1.36,1,2c0,.07-.13.16-.36.26h0a3.47,3.47,0,0,1-3.6,0c-.07-.05,0-.15.07-.14a5.23,5.23,0,0,0,3.27-.27c0-.21-1.36-2.3-1.25-2.35a6.48,6.48,0,0,1,1.67-.23c-1.47-2.89-3.4-5.52-4.82-8.42a.1.1,0,0,1,.16-.11,52.77,52.77,0,0,1,5.58,8.84C105.33,278.45,103.74,278.47,103.42,278.46Z"/><path class="cls-5" d="M103.89,280.3a4.22,4.22,0,0,1-.91,1.93,1.89,1.89,0,0,1-1,.59c-.85.18-1.21-.49-1.37-1.14a4.73,4.73,0,0,1-.12-1.06A5.45,5.45,0,0,0,103.89,280.3Z"/><path class="cls-15" d="M103,282.23a1.89,1.89,0,0,1-1,.59c-.85.18-1.21-.49-1.37-1.14A2,2,0,0,1,103,282.23Z"/><path class="cls-5" d="M85.24,284c1.54-.72,3.94-6.68,1.06-14.36,0,0,2.11,7.07,2,8.28s1.34-3.36-.9-9.58a26.84,26.84,0,0,0,7.6.78c3.23-.33,5-1.06,5.12-1.35s-4.68.05-6.37-.83c0,0,9.15.54,12.82-.59.42-.13-2.43-8.8-9.36-10.22s-14.11,5.9-15.56,9.09c0,0-2.6,1.48-4,6.74S83.58,284.8,85.24,284Z"/><path class="cls-13" d="M87.79,283.86s-4.69-3.37-6.32-1.55,3,7.47,5.67,7.52a2.55,2.55,0,0,0,2.78-2.43Z"/><path class="cls-5" d="M82.83,283.9a0,0,0,0,0,0,.07,6.46,6.46,0,0,1,4.5,2.71,1.41,1.41,0,0,0-2.12.34s0,.1.07.07a1.58,1.58,0,0,1,1.82,0,7.35,7.35,0,0,1,1.25,1c.13.13.37-.05.26-.2l0,0C87.88,285.71,85.19,283.31,82.83,283.9Z"/><path class="cls-5" d="M81.82,264.54c-1.78,1.85-8,2-10.82-.89-3.85-3.95.68-12.21,6.62-10.43S83.19,263.11,81.82,264.54Z"/><path class="cls-5" d="M71.07,255.64a11,11,0,0,0-1.81,5,4.1,4.1,0,0,0,2.34,4.12,9.67,9.67,0,0,0,2.47.88,11.69,11.69,0,0,0,2.63.33,9.16,9.16,0,0,0,5.12-1.46,7.88,7.88,0,0,1-5.09,2.16,10.82,10.82,0,0,1-2.84-.2,10.19,10.19,0,0,1-2.72-.93,5.13,5.13,0,0,1-2.12-2.06,4.82,4.82,0,0,1-.48-2.9A9.22,9.22,0,0,1,71.07,255.64Z"/></g></g></svg>