<svg xmlns="http://www.w3.org/2000/svg" viewBox="0 0 420.81 372.61"><defs><style>.cls-1{fill:#ebebeb;}.cls-2{fill:#e0e0e0;}.cls-3{fill:#f5f5f5;}.cls-4{fill:#e6e6e6;}.cls-5{fill:#f0f0f0;}.cls-6,.cls-7{fill:#263238;}.cls-7{font-size:18.88px;font-family:SVN-Aguda;}.cls-8{letter-spacing:-0.08em;}.cls-9{fill:#407bff;}.cls-10,.cls-11,.cls-15,.cls-18,.cls-20{fill:#fff;}.cls-10{opacity:0.6;}.cls-10,.cls-11,.cls-13,.cls-18,.cls-19,.cls-20{isolation:isolate;}.cls-11{opacity:0.4;}.cls-12{fill:#eec1bb;}.cls-13,.cls-18{opacity:0.2;}.cls-14{fill:#d4827d;}.cls-16{fill:#de5753;}.cls-17{fill:#e4897b;}.cls-19{opacity:0.1;}.cls-20{opacity:0.7;}</style></defs><g id="Layer_2" data-name="Layer 2"><g id="Character_2" data-name="Character 2"><rect class="cls-1" x="378.57" y="343.54" width="33.12" height="0.25"/><rect class="cls-1" x="284.32" y="346.26" width="8.69" height="0.25"/><rect class="cls-1" x="358.38" y="334.26" width="19.19" height="0.25"/><rect class="cls-1" x="14.25" y="335.94" width="43.19" height="0.25"/><rect class="cls-1" x="66.35" y="335.94" width="6.33" height="0.25"/><rect class="cls-1" x="93.26" y="340.16" width="93.68" height="0.25"/><path class="cls-1" d="M198.81,282.85H5.71A5.71,5.71,0,0,1,0,277.14V5.71A5.71,5.71,0,0,1,5.71,0h193.1a5.71,5.71,0,0,1,5.7,5.71V277.14A5.71,5.71,0,0,1,198.81,282.85ZM5.71.25A5.47,5.47,0,0,0,.25,5.71V277.14a5.47,5.47,0,0,0,5.46,5.46h193.1a5.46,5.46,0,0,0,5.45-5.46V5.71A5.46,5.46,0,0,0,198.81.25Z"/><path class="cls-1" d="M415.1,282.85H222a5.71,5.71,0,0,1-5.7-5.71V5.71A5.71,5.71,0,0,1,222,0H415.1a5.71,5.71,0,0,1,5.71,5.71V277.14A5.71,5.71,0,0,1,415.1,282.85ZM222,.25a5.46,5.46,0,0,0-5.45,5.46V277.14A5.46,5.46,0,0,0,222,282.6H415.1a5.47,5.47,0,0,0,5.46-5.46V5.71A5.47,5.47,0,0,0,415.1.25Z"/><path class="cls-2" d="M365.75,317.86c0-.15-1.33-14.67-1.33-26.59,0-2.19,0-9.49.11-20.55.3-49.91,1-166.8-.11-181.06-1.36-17.25-1.53-42.89-1.53-43.15h.5c0,.26.17,25.88,1.53,43.11,1.12,14.29.41,131.19.11,181.1-.07,11.06-.11,18.37-.11,20.55,0,11.89,1.31,26.4,1.32,26.54Z"/><path class="cls-2" d="M362.27,317.13c-.63-3.58.23-37.11,1.23-75.93,1.32-51.62,3-115.87,1.52-129.07-2.5-22.7-14.2-78.69-14.32-79.25l.49-.11c.12.57,11.82,56.58,14.32,79.31,1.46,13.23-.19,77.5-1.51,129.14-1,38.79-1.86,72.29-1.23,75.82Z"/><path class="cls-2" d="M357.31,311.53l-.32-.39c1.61-1.33,4.25-40.82,6.28-93.91C365,173.09,366,122.58,364.43,116c-3.23-13.2-7.13-24.54-11-31.93-4-7.58-9.11-31.77-9.16-32l.49-.11c.05.25,5.18,24.37,9.12,31.88s7.81,18.81,11,32.05S361.18,308.32,357.31,311.53Z"/><path class="cls-2" d="M369.18,308.83c-4-9.67-3.79-181.6-3.65-189.59.07-4.48.76-12.86,1.49-21.72.89-10.77,1.89-23,2-30.37.15-14.07,1.16-36.8,2.59-41.1l.48.16c-1.42,4.25-2.42,26.91-2.57,40.94-.08,7.42-1.08,19.63-2,30.41-.73,8.86-1.42,17.22-1.49,21.69-.14,8-.4,179.78,3.61,189.39Z"/><path class="cls-2" d="M372.68,315l-.5,0c.27-3.54-1.22-7.88-2.94-12.91S365.6,291.4,365,285.34c-.24-2.43-.42-4.2-.55-5.52a34.53,34.53,0,0,1-.35-6.09c0-1.33.1-3.57.08-8.32-.06-18.32.09-36.8.43-54.94.2-10.51.46-20.77.79-30.49,0-1.33,0-2.66,0-3.94a47.26,47.26,0,0,1,.54-8.89A57.17,57.17,0,0,0,367.15,152c-.13-1.53-.36-3.07-.59-4.57-.28-1.84-.57-3.73-.68-5.62a58.46,58.46,0,0,1,.66-10.35l3.9-31.54c.82-6.69,1.67-13.59,2.9-20.34a38.37,38.37,0,0,1,2.84-8.24c.73-1.66,1.47-3.38,2.05-5.14,1.28-3.89,2.45-8.1,3.79-13.66,1.38-5.74,2.59-11.45,3.59-17l.49.08c-1,5.53-2.21,11.24-3.6,17-1.34,5.57-2.51,9.79-3.79,13.69-.59,1.79-1.34,3.52-2.07,5.18a38,38,0,0,0-2.81,8.14c-1.22,6.73-2.08,13.63-2.9,20.31L367,131.48a57.63,57.63,0,0,0-.66,10.26c.1,1.87.39,3.75.67,5.57.23,1.51.47,3.06.6,4.61a57.66,57.66,0,0,1-1.16,15.32A47.09,47.09,0,0,0,366,176c0,1.29,0,2.62,0,4-.33,9.72-.59,20-.79,30.48-.34,18.13-.49,36.61-.43,54.92,0,4.77,0,7-.08,8.34a33.92,33.92,0,0,0,.35,6c.13,1.32.31,3.09.54,5.52.58,6,2.51,11.64,4.21,16.61S373,311.37,372.68,315Z"/><path class="cls-2" d="M368.28,317.13l-.49-.1c.78-4.13-.18-54.44-1.1-103.09-.83-43.5-1.61-84.59-1.11-90.37A140.91,140.91,0,0,1,368,108.33c1.23-6.34,2.4-12.33,2.4-18.69,0-11.26,13.26-37.5,13.4-37.77l.44.23c-.13.26-13.34,26.4-13.34,37.54,0,6.41-1.17,12.42-2.41,18.79a142.7,142.7,0,0,0-2.38,15.18c-.5,5.76.28,46.83,1.11,90.32C368.12,262.61,369.07,312.94,368.28,317.13Z"/><path class="cls-1" d="M386,26.32c16.09,2.76,7.93,27.42-3.91,26.65l-.34,0a8.86,8.86,0,0,1,0,1.31,4,4,0,0,1-2-.64,9.32,9.32,0,0,1,.72-.92C370.21,49.62,370.41,23.65,386,26.32Z"/><path class="cls-3" d="M350,18.39c16.23-1.76,15.14,24.19,3.55,26.7-.11,0-.23,0-.34.06a9.17,9.17,0,0,1,.42,1.25,4,4,0,0,1-2.11-.06,10.06,10.06,0,0,1,.44-1.08C341.19,45.12,334.25,20.09,350,18.39Z"/><path class="cls-2" d="M373,13.89C389.18,16,382,41,370.13,40.68l-.33,0a9.39,9.39,0,0,1,.1,1.31,4,4,0,0,1-2-.56,8.8,8.8,0,0,1,.68-.95C358.16,37.79,357.34,11.83,373,13.89Z"/><path class="cls-4" d="M361.84,30.38c16.27-1.37,14.56,24.55,2.91,26.78l-.34.05a10,10,0,0,1,.39,1.26,4.1,4.1,0,0,1-2.11-.11,9.1,9.1,0,0,1,.47-1.08C352.43,56.89,346.1,31.71,361.84,30.38Z"/><path class="cls-1" d="M341.14,45.58c11.62-4.29,15.61,15,7.54,19l-.23.1a7,7,0,0,1,.53.85,3.12,3.12,0,0,1-1.56.34,7.31,7.31,0,0,1,.12-.88C339.62,66.86,329.9,49.73,341.14,45.58Z"/><path class="cls-2" d="M387.72,46.92c11.26,5.16.47,21.64-8.06,18.77a2.34,2.34,0,0,1-.24-.09,7.82,7.82,0,0,1-.21,1,3,3,0,0,1-1.35-.86,7,7,0,0,1,.71-.54C371.63,60.93,376.83,41.93,387.72,46.92Z"/><path class="cls-2" d="M46.75,317.86l-.5-.05c0-.14,1.32-14.65,1.32-26.54,0-2.18,0-9.49-.11-20.55-.3-49.91-1-166.81.12-181.1,1.35-17.23,1.52-42.85,1.52-43.11h.5c0,.26-.17,25.9-1.53,43.15C47,103.92,47.66,220.81,48,270.72c.07,11.06.11,18.36.11,20.55C48.07,303.19,46.76,317.71,46.75,317.86Z"/><path class="cls-2" d="M50.22,317.13l-.49-.09c.62-3.53-.24-37-1.23-75.82-1.33-51.64-3-115.91-1.52-129.14,2.5-22.73,14.21-78.74,14.33-79.31l.48.11c-.11.56-11.81,56.55-14.31,79.25C46,125.33,47.67,189.58,49,241.2,50,280,50.85,313.55,50.22,317.13Z"/><path class="cls-2" d="M55.19,311.53c-3.88-3.21-10.84-182.42-7.61-195.67s7.16-24.62,11.05-32,9.06-31.63,9.11-31.88l.49.11c0,.24-5.19,24.43-9.16,32-3.87,7.39-7.78,18.73-11,31.93-1.61,6.6-.53,57.11,1.16,101.25,2,53.09,4.67,92.58,6.27,93.91Z"/><path class="cls-2" d="M43.31,308.83l-.46-.19c4-9.61,3.75-181.41,3.62-189.39-.08-4.47-.77-12.83-1.5-21.69-.88-10.78-1.88-23-2-30.41-.15-14-1.16-36.69-2.57-40.94l.47-.16c1.44,4.3,2.45,27,2.6,41.1.07,7.4,1.08,19.6,2,30.37.73,8.86,1.42,17.24,1.5,21.72C47.1,127.23,47.35,299.16,43.31,308.83Z"/><path class="cls-2" d="M39.81,315c-.27-3.63,1.23-8,3-13.1s3.62-10.6,4.2-16.61c.23-2.43.41-4.2.54-5.52a33.92,33.92,0,0,0,.35-6c0-1.34-.09-3.57-.08-8.34.06-18.31-.08-36.79-.42-54.92-.2-10.5-.47-20.76-.79-30.48,0-1.34,0-2.67,0-4a47.09,47.09,0,0,0-.54-8.8,58.08,58.08,0,0,1-1.16-15.32c.14-1.55.37-3.1.6-4.61.28-1.82.57-3.7.67-5.57a58.58,58.58,0,0,0-.65-10.26l-3.9-31.54c-.82-6.68-1.67-13.58-2.9-20.31a37,37,0,0,0-2.81-8.14c-.72-1.66-1.47-3.39-2.06-5.18-1.28-3.9-2.45-8.12-3.8-13.69-1.39-5.76-2.6-11.47-3.6-17l.49-.08c1,5.51,2.21,11.22,3.6,17,1.34,5.56,2.51,9.77,3.78,13.66.58,1.76,1.33,3.48,2.05,5.14a37.83,37.83,0,0,1,2.84,8.24c1.23,6.75,2.08,13.65,2.91,20.34L46,131.42a58.46,58.46,0,0,1,.66,10.35c-.1,1.89-.39,3.78-.67,5.62-.23,1.5-.47,3-.6,4.57a57.59,57.59,0,0,0,1.15,15.19A47.26,47.26,0,0,1,47,176c0,1.28,0,2.61,0,3.94.32,9.72.59,20,.79,30.49.34,18.14.48,36.62.42,54.94,0,4.75.05,7,.08,8.32a34.53,34.53,0,0,1-.35,6.09c-.13,1.32-.31,3.09-.54,5.52-.59,6.06-2.52,11.73-4.23,16.72s-3.2,9.37-2.94,12.91Z"/><path class="cls-2" d="M44.21,317.13c-.79-4.19.17-54.52,1.1-103.2.82-43.49,1.6-84.56,1.11-90.32A145.3,145.3,0,0,0,44,108.43c-1.25-6.37-2.42-12.38-2.42-18.79,0-11.14-13.21-37.28-13.34-37.54l.45-.23c.13.27,13.39,26.51,13.39,37.77,0,6.36,1.17,12.35,2.41,18.69a143.47,143.47,0,0,1,2.38,15.24c.5,5.78-.28,46.87-1.1,90.37-.93,48.65-1.89,99-1.11,103.09Z"/><path class="cls-1" d="M26.52,26.32C10.43,29.08,18.59,53.74,30.43,53l.33,0a10.74,10.74,0,0,0-.05,1.31,4,4,0,0,0,2-.64,11.5,11.5,0,0,0-.72-.92C42.28,49.62,42.09,23.65,26.52,26.32Z"/><path class="cls-3" d="M62.54,18.39C46.31,16.63,47.39,42.58,59,45.09l.33.06a10,10,0,0,0-.41,1.25,4,4,0,0,0,2.1-.06,8.12,8.12,0,0,0-.44-1.08C71.31,45.12,78.24,20.09,62.54,18.39Z"/><path class="cls-2" d="M39.49,13.89C23.31,16,30.5,41,42.36,40.68l.34,0A10.27,10.27,0,0,0,42.59,42a4,4,0,0,0,2-.56,8.8,8.8,0,0,0-.68-.95C54.34,37.79,55.16,11.83,39.49,13.89Z"/><path class="cls-4" d="M50.65,30.38C34.39,29,36.09,54.93,47.75,57.16l.33.05a9.13,9.13,0,0,0-.38,1.26,4.06,4.06,0,0,0,2.1-.11,10.13,10.13,0,0,0-.46-1.08C60.06,56.89,66.4,31.71,50.65,30.38Z"/><path class="cls-1" d="M71.35,45.58c-11.62-4.29-15.6,15-7.54,19l.24.1a7,7,0,0,0-.53.85,3.09,3.09,0,0,0,1.56.34A8.7,8.7,0,0,0,65,65C72.87,66.86,82.59,49.73,71.35,45.58Z"/><path class="cls-2" d="M24.77,46.92c-11.25,5.16-.47,21.64,8.06,18.77a2.34,2.34,0,0,0,.24-.09,7,7,0,0,0,.22,1,3,3,0,0,0,1.34-.86,7.56,7.56,0,0,0-.7-.54C40.87,60.93,35.66,41.93,24.77,46.92Z"/><rect class="cls-1" x="154.07" y="-2.83" width="106.25" height="239.61" transform="translate(324.17 -90.21) rotate(90)"/><rect class="cls-3" x="92.38" y="68.85" width="229.61" height="96.25"/><path class="cls-2" d="M374.66,290.09c0-.4,1.34-39.68,7.73-45.89,6.22-6,13.35-.22,13.65,0l.64-.77c-.08-.07-8.13-6.64-15,0-6.68,6.5-8,44.94-8,46.58Z"/><path class="cls-2" d="M374.11,297.81c.05-.47,4.37-47.16-12.68-66.72l-.76.65c16.77,19.25,12.49,65.51,12.45,66Z"/><path class="cls-2" d="M374.74,292.87l1-.07c0-.52-3.34-53.07,9.17-64.57l-.68-.74C371.38,239.32,374.6,290.69,374.74,292.87Z"/><path class="cls-2" d="M373.11,292.84h1c0-1.44-.41-35.49-10.08-41a6.85,6.85,0,0,0-6.26-.61c-5.84,2.42-8.74,12.82-8.86,13.27l1,.26c0-.1,2.89-10.38,8.29-12.61a5.89,5.89,0,0,1,5.37.56C372.71,257.92,373.11,292.49,373.11,292.84Z"/><path class="cls-2" d="M376.88,292.87l1-.06c0-.27-1.46-26.9,5.73-36.29,1.74-2.27,3.63-3.36,5.63-3.22,4.71.33,8.66,7.22,8.7,7.29l.87-.49c-.17-.3-4.25-7.43-9.5-7.79-2.35-.17-4.54,1-6.5,3.6C375.4,265.59,376.82,291.76,376.88,292.87Z"/><path class="cls-2" d="M375.3,296.49c.2-2.58,4.7-63.4-3.22-74.12l-.8.59c7.7,10.42,3.07,72.82,3,73.45Z"/><path class="cls-1" d="M355.62,257.35s4.75,1.75,3.34,5.89-16.45,10.95-16.45,10.95-6.29-5.77-.51-15.16S355.49,254.39,355.62,257.35Z"/><path class="cls-1" d="M376.28,249.48s-5.06-.22-5.35,4.15,11,16.43,11,16.43,8-2.9,6.31-13.79S377.54,246.79,376.28,249.48Z"/><path class="cls-1" d="M380.57,228.59s-3.38-.36-3.1-2.41,13.11-7.35,20.69,1.21c0,0-4.85,8.33-11.87,8.44S380.57,228.59,380.57,228.59Z"/><path class="cls-1" d="M374.28,223.6s3.06,1.48,3.91-.41S370.94,210,360,213.27c0,0-.29,9.64,5.6,13.45S374.28,223.6,374.28,223.6Z"/><path class="cls-1" d="M390.26,255.69s-2.33-1.88.18-2.8,14.85-.66,15,11.56c0,0-14.37,2.39-16.14-2.27S390.26,255.69,390.26,255.69Z"/><path class="cls-1" d="M361,228.29s2.33-1.88-.19-2.8-14.85-.66-15,11.56c0,0,14.36,2.39,16.14-2.27S361,228.29,361,228.29Z"/><path class="cls-1" d="M368.56,238.13s.21-2.29-1.64-1.39-8.28,7.83-1.61,14.41c0,0,9-6.64,7.35-10.1S368.56,238.13,368.56,238.13Z"/><path class="cls-1" d="M392.34,241.39s-1.39-1.83.65-2,11.17,2.21,9.05,11.33c0,0-11.14-.83-11.61-4.62S392.34,241.39,392.34,241.39Z"/><polygon class="cls-5" points="354.73 326.7 392.93 326.7 397.05 284.88 350.61 284.88 354.73 326.7"/><rect class="cls-4" x="348.57" y="280.27" width="50.52" height="9.23" transform="translate(747.66 569.77) rotate(180)"/><path class="cls-1" d="M50.05,284l12.72-36.66S45.13,260.46,45.25,246s8-3.24,10.78-8.6-7.82-5.29-4.11-13.42S66.17,228.3,68,221.1s4.83-10.85,12.51-10.2c0,0,4.15,9.46-.94,16.3s12.59,1.36,10.79,8.24-7.7,12.89-10.29,8-5.9,4.44-1.46,6.83-5.81,12.75-8.06,7.32a56.6,56.6,0,0,0-5.77-10.27L53.1,286.58Z"/><path class="cls-4" d="M36.94,284.36,22.6,260.92s14.19,6.38,11.91-3.63-6-1-8.76-4.32,4.62-4.85.82-9.91-9.2,5.17-11.58.47-5-6.78-10.2-5.17c0,0-1.44,7.18,3.11,11.14s-8.5,2.84-6.22,7.33,7.27,7.76,8.34,4,4.75,2.18,2,4.51,5.94,7.94,6.68,3.84a40.12,40.12,0,0,1,2.44-8l14,25.36Z"/><path class="cls-3" d="M46.6,284.59,40,246.82s15.12,15.56,17.31,1.41-7.31-4.44-9.14-10.1,8.47-3.92,6.14-12.43-14.59,2-15.26-5.33-3-11.35-10.57-12c0,0-5.56,8.57-1.69,16.05s-12.48-.68-11.83,6.32,5.46,13.78,8.76,9.47,5.05,5.27.33,6.89,3.64,13.36,6.69,8.42A56.11,56.11,0,0,1,38,246.48l5.18,40.1Z"/><path class="cls-1" d="M54.19,326.7H28.5a3.39,3.39,0,0,1-3.39-3.19L22.38,279.2a3.4,3.4,0,0,1,3.4-3.61H56.92a3.4,3.4,0,0,1,3.39,3.61l-2.72,44.31A3.4,3.4,0,0,1,54.19,326.7Z"/><rect class="cls-3" x="19.01" y="273.79" width="44.35" height="6.8" rx="3.38"/><ellipse id="_Path_" data-name="&lt;Path&gt;" class="cls-3" cx="211.79" cy="361.29" rx="193.89" ry="11.32"/><path class="cls-6" d="M154.34,93l0,4.65H143.47v5h10v4.66h-10v8.06h-5.84V93Z"/><path class="cls-6" d="M170.75,111.38H161.1l-1.57,4h-6L163.14,93h6l9.37,22.34h-6.22ZM169,106.92,166,99l-3.12,8Z"/><path class="cls-6" d="M186.89,93l5.93,13,5.92-13h6.38v22.34H200l0-14.15-5.19,11.92H190.9l-5.19-11.92v14.15h-5.2V93Z"/><path class="cls-6" d="M215.29,93v22.34h-5.83V93Z"/><path class="cls-6" d="M225.46,93v17.37h9.47v5h-15.3V93Z"/><path class="cls-6" d="M243.41,93v22.34h-5.84V93Z"/><path class="cls-6" d="M265.37,93v4.65H253.58v4.18h10.64v4.62l-10.64,0v4.21h12.11v4.65H247.74V93Z"/><path class="cls-6" d="M277.45,97.48c-1.4,0-2.32.51-2.32,1.53,0,3.7,11.76,1.6,11.76,9.63,0,4.56-4,6.88-9,6.88A16.8,16.8,0,0,1,267.6,112l2.27-4.56a14.23,14.23,0,0,0,8.09,3.38c1.73,0,2.81-.63,2.81-1.81,0-3.8-11.76-1.5-11.76-9.41,0-4.17,3.53-6.82,8.92-6.82a17.13,17.13,0,0,1,8.93,2.52l-2.2,4.62A17.38,17.38,0,0,0,277.45,97.48Z"/><text class="cls-7" transform="translate(136.7 134.78)">REL<tspan class="cls-8" x="37.85" y="0">A</tspan><tspan x="49.24" y="0">TIONSHIPS</tspan></text><path class="cls-9" d="M207.26,50.24C91.48,50.24,42.81,24.32,42.34,24.06l.48-.88c.47.26,49,26.06,164.44,26.06s169.44-26.13,170-26.39l.44.89C377.14,24,323,50.24,207.26,50.24Z"/><polygon class="cls-9" points="56.17 29.31 58.41 42.66 69.49 33.59 56.17 29.31"/><polygon class="cls-9" points="69.49 33.59 74.78 47.14 86.8 38.04 69.49 33.59"/><polygon class="cls-9" points="86.8 38.04 93.47 51.89 104.69 41.65 86.8 38.04"/><polygon class="cls-9" points="104.69 41.65 110.83 54.26 121.43 44.97 104.69 41.65"/><polygon class="cls-9" points="121.43 44.97 130.14 58.48 143.06 46.82 121.43 44.97"/><polygon class="cls-9" points="143.06 46.82 151.76 61.12 165.24 48.54 143.06 46.82"/><polygon class="cls-9" points="165.24 48.54 174.18 62.17 185.52 49.43 165.24 48.54"/><polygon class="cls-9" points="185.52 49.43 196.6 64.55 205.61 49.74 185.52 49.43"/><polygon class="cls-9" points="205.61 49.74 214.79 64.55 225.08 49.74 205.61 49.74"/><polygon class="cls-9" points="225.08 49.74 235.89 61.12 242.75 49.43 225.08 49.74"/><polygon class="cls-9" points="242.75 49.43 252.77 61.12 260.95 47.95 242.75 49.43"/><polygon class="cls-9" points="260.95 47.95 274.14 59.8 282.33 45.71 260.95 47.95"/><polygon class="cls-9" points="282.33 45.71 293.8 56.99 300.97 43.25 282.33 45.71"/><polygon class="cls-9" points="300.97 43.25 314.68 54.54 321.35 40.37 300.97 43.25"/><polygon class="cls-9" points="321.35 40.37 335.65 49.43 338.88 35.88 321.35 40.37"/><polygon class="cls-9" points="338.88 35.88 350.95 47.45 356.18 31.14 338.88 35.88"/><polygon class="cls-9" points="356.18 31.14 364.07 41.65 367.86 27.23 356.18 31.14"/><polygon class="cls-10" points="56.17 29.31 58.41 42.66 69.49 33.59 56.17 29.31"/><polygon class="cls-11" points="69.49 33.59 74.78 47.14 86.8 38.04 69.49 33.59"/><polygon class="cls-10" points="86.8 38.04 93.47 51.89 104.69 41.65 86.8 38.04"/><polygon class="cls-11" points="104.69 41.65 110.83 54.26 121.43 44.97 104.69 41.65"/><polygon class="cls-10" points="121.43 44.97 130.14 58.48 143.06 46.82 121.43 44.97"/><polygon class="cls-11" points="143.06 46.82 151.76 61.12 165.24 48.54 143.06 46.82"/><polygon class="cls-10" points="165.24 48.54 174.18 62.17 185.52 49.43 165.24 48.54"/><polygon class="cls-11" points="185.52 49.43 196.6 64.55 205.61 49.74 185.52 49.43"/><polygon class="cls-10" points="205.61 49.74 214.79 64.55 225.08 49.74 205.61 49.74"/><polygon class="cls-11" points="225.08 49.74 235.89 61.12 242.75 49.43 225.08 49.74"/><polygon class="cls-10" points="242.75 49.43 252.77 61.12 260.95 47.95 242.75 49.43"/><polygon class="cls-11" points="260.95 47.95 274.14 59.8 282.33 45.71 260.95 47.95"/><polygon class="cls-10" points="282.33 45.71 293.8 56.99 300.97 43.25 282.33 45.71"/><polygon class="cls-11" points="300.97 43.25 314.68 54.54 321.35 40.37 300.97 43.25"/><polygon class="cls-10" points="321.35 40.37 335.65 49.43 338.88 35.88 321.35 40.37"/><polygon class="cls-11" points="338.88 35.88 350.95 47.45 356.18 31.14 338.88 35.88"/><polygon class="cls-10" points="356.18 31.14 364.07 41.65 367.86 27.23 356.18 31.14"/><g id="_Group_" data-name="&lt;Group&gt;"><path class="cls-12" d="M386.93,265.48s-25.35,27.53-32.76,26.3c-2.85-.47-7.1-4.14-11.26-8.48a188.48,188.48,0,0,1-13-15.57l8.06-8.3,1.61-1.66.57.94c1.76,2.88,7.21,11.69,11,16.58a22.16,22.16,0,0,0,2.41,2.78c3.76,3.39,28.2-18.64,28.2-18.64Z"/><path class="cls-13" d="M351.08,275.29a45.7,45.7,0,0,1-8.17,8,188.48,188.48,0,0,1-13-15.57l8.06-8.3,2.18-.72C341.88,261.59,347.33,270.4,351.08,275.29Z"/><path class="cls-9" d="M276.8,193.26c-6.38,2.74-16.5,20.59-16.5,20.59l2.61,4.21,4.74,2.21s7.67-12.47,12.73-14.71S276.8,193.26,276.8,193.26Z"/><path class="cls-11" d="M281.94,203.52a2.47,2.47,0,0,1-1.56,2c-3.79,1.67-9,9.06-11.43,12.68-.82,1.22-1.31,2-1.31,2l-4.73-2.21-2.62-4.2s10.13-17.85,16.51-20.6c0,0,.56.65,1.31,1.66.31.42.66.9,1,1.43C280.61,198.55,282.21,201.47,281.94,203.52Z"/><path class="cls-13" d="M281.94,203.52a2.47,2.47,0,0,1-1.56,2c-3.79,1.67-9,9.06-11.43,12.68a12.17,12.17,0,0,1-.37-2.05c-1.28-12.55,7.63-19.87,9.53-21.28.22-.17.35-.25.35-.25l.66,1.68Z"/><path class="cls-9" d="M276.8,193.26s17-8.5,35.85-4.28c0,0,8.13,23.72,18.13,37.29a5.27,5.27,0,0,1-2.32,8c-10,4-28.92,10.53-39.73,7.61C288.73,241.87,277.48,215,276.8,193.26Z"/><path class="cls-11" d="M328.46,234.26c-10,4-28.92,10.53-39.74,7.62,0,0-3.26-7.79-6.38-18.38a162.44,162.44,0,0,1-4-16.67,94.61,94.61,0,0,1-1.53-13.57s17-8.49,35.84-4.27c0,0,.19.56.56,1.56.67,1.86,1.93,5.23,3.63,9.32,3.32,8,8.31,18.71,13.88,26.31A5.29,5.29,0,0,1,328.46,234.26Z"/><path class="cls-12" d="M307.5,292.83c3.23,29.34,13.44,49.82,13.44,49.82l-7.46,1.73s-10.88-20-17.25-51.56a228.81,228.81,0,0,1-3.43-22.93l14-3.27A156.08,156.08,0,0,0,307.5,292.83Z"/><path class="cls-13" d="M292.8,269.89l14-3.27a156.08,156.08,0,0,0,.7,26.21c-4.17.14-8,.11-11.27,0A228.81,228.81,0,0,1,292.8,269.89Z"/><path class="cls-6" d="M310.74,339.16l9.41-.54a.6.6,0,0,1,.66.53h0l.89,7.42a1.49,1.49,0,0,1-1.38,1.57c-3.29.14-4.86,0-9,.25-2.55.14-7.56.66-11.06.31s-3.06-3.81-1.55-4c3.59-.4,8.36-3,10.62-5A2.36,2.36,0,0,1,310.74,339.16Z"/><path class="cls-9" d="M306.25,340.44a1,1,0,0,1-.3-1.07.72.72,0,0,1,.42-.58c1-.46,3.47,1,3.75,1.19a.22.22,0,0,1,.09.2.17.17,0,0,1-.14.15,9.91,9.91,0,0,1-2.22.43A2.19,2.19,0,0,1,306.25,340.44Zm.28-1.26a.35.35,0,0,0-.2.28.7.7,0,0,0,.18.69c.42.36,1.52.35,3,0-1-.56-2.44-1.18-3-.93Z"/><path class="cls-9" d="M309.92,340.35c-.86-.44-2.21-2.13-2.08-3.05a.75.75,0,0,1,.68-.63,1,1,0,0,1,.85.22c.88.77.83,3.22.84,3.3a.23.23,0,0,1-.1.16H310A.14.14,0,0,1,309.92,340.35Zm-1.33-3.27c-.28.05-.35.19-.36.31a4.14,4.14,0,0,0,1.58,2.46c0-.79-.17-2.17-.7-2.63a.61.61,0,0,0-.43-.15Z"/><path class="cls-6" d="M384.56,267.94l-6.11-7.19a.6.6,0,0,1,0-.84h0l5.39-5.19a1.48,1.48,0,0,1,2.08.16c2.09,2.54,3,3.86,5.62,7,1.65,1.94,5.08,5.63,6.91,8.64s-1.2,4.74-2.24,3.63c-2.48-2.63-7.44-4.86-10.39-5.46A2.32,2.32,0,0,1,384.56,267.94Z"/><path class="cls-9" d="M388.28,270.75a1,1,0,0,1-.67.89.74.74,0,0,1-.72,0c-1-.53-1.28-3.39-1.31-3.72a.21.21,0,0,1,.11-.19.17.17,0,0,1,.2,0,10.55,10.55,0,0,1,1.69,1.51A2.25,2.25,0,0,1,388.28,270.75Zm-1.18.54a.36.36,0,0,0,.36,0,.73.73,0,0,0,.44-.56c0-.55-.65-1.42-1.84-2.37.16,1.14.52,2.66,1,2.94Z"/><path class="cls-9" d="M386,267.88c.16.95-.37,3.05-1.18,3.5a.78.78,0,0,1-.92-.16,1.09,1.09,0,0,1-.33-.82c.08-1.17,2.07-2.61,2.13-2.65a.19.19,0,0,1,.18,0,.18.18,0,0,1,.05.07A.11.11,0,0,1,386,267.88Zm-1.81,3c.21.19.36.16.46.1a4.14,4.14,0,0,0,1-2.74c-.61.5-1.63,1.44-1.67,2.14a.53.53,0,0,0,.14.43Z"/><path class="cls-12" d="M300,189s-5.62,6.47-11.33,7.23c-4.45.6-4.23-3.26-4.23-3.26a8,8,0,0,0,1-2.16c1.56-5-3.54-8.62-3.54-8.62l4.56-2.38,10-5.23C293.67,184.17,300,189,300,189Z"/><path class="cls-13" d="M295.54,178.66s-3,10.41-10.08,12.11c1.56-5-3.54-8.62-3.54-8.62l4.56-2.38Z"/><path class="cls-6" d="M269,151.74c-8.93,3.9-8.28,10.19-5.21,15.1s.66,5.07-3,8.63,1,4.61,3.07,7.13-6,3.67-.75,8.57c0,0,2.17-3.2,4.71-2.21s8.41,2.53,13.34-3.17,10.35-4.3,10.35-4.3S278.41,147.63,269,151.74Z"/><path class="cls-6" d="M270.73,151.74s-9.73,12,5.39,19.76C293.21,180.27,270.73,151.74,270.73,151.74Z"/><path class="cls-12" d="M302.32,161.87c1.19,9.16-1.85,20.19-9.06,23.07-13.22,5.28-19.13,3.75-22.72-6.13-3.28-8.88-3-24.05,7.81-29S300.66,149.17,302.32,161.87Z"/><path class="cls-6" d="M270.58,158a25.44,25.44,0,0,0,13.48-1.91s10.58,1.93,10.65,8.36,3,6.17,5,14.29c0,0,8.33-2.77,6-21-1.7-13.26-14.09-16-25.69-13.4C270.27,146.57,264.82,155,270.58,158Z"/><path class="cls-6" d="M282.24,168.68c.19,1.15-.27,2.2-1,2.32s-1.52-.72-1.71-1.88.28-2.19,1-2.32S282.05,167.53,282.24,168.68Z"/><path class="cls-6" d="M272.92,169.74c.18,1.1-.26,2.1-1,2.21s-1.45-.69-1.63-1.79.26-2.09,1-2.22S272.74,168.63,272.92,169.74Z"/><path class="cls-6" d="M278,163.42a.59.59,0,0,1-.23-.24.55.55,0,0,1,.32-.68,5.23,5.23,0,0,1,4.79.51.53.53,0,0,1,.1.74h0a.55.55,0,0,1-.73.11h0a4.13,4.13,0,0,0-3.83-.33A.57.57,0,0,1,278,163.42Z"/><path class="cls-6" d="M269.07,165.35a.56.56,0,0,1-.31-.09.54.54,0,0,1,0-.75,5.15,5.15,0,0,1,4.45-1.84.53.53,0,0,1,.45.6h0a.56.56,0,0,1-.6.44h0a4.15,4.15,0,0,0-3.52,1.54A.55.55,0,0,1,269.07,165.35Z"/><path class="cls-14" d="M275,170.78l2,4.71a6.37,6.37,0,0,1-3.71.41A15,15,0,0,0,275,170.78Z"/><path class="cls-12" d="M293.27,169.42s1.36-6,4.55-4.79,4.36,10.61.09,11.4S291.89,172.77,293.27,169.42Z"/><path class="cls-6" d="M277.48,179.48a29.08,29.08,0,0,1,2.93,3.07c.22-.12.44-.24.65-.38,2.91-1.74,3.69-3.51,3.67-4.94a4.49,4.49,0,0,0-.57-2,4.24,4.24,0,0,0-.69-1c-1,1.84-3.58,3.68-5,4.6C277.87,179.26,277.48,179.48,277.48,179.48Z"/><path class="cls-15" d="M278.46,178.87l.89.88c2.74-1.64,4.45-3.17,4.81-4.52a4.24,4.24,0,0,0-.69-1C282.48,176.11,279.89,178,278.46,178.87Z"/><path class="cls-16" d="M281.06,182.17c2.91-1.74,3.69-3.51,3.67-4.94a11.08,11.08,0,0,0-2.86,2.57A4.1,4.1,0,0,0,281.06,182.17Z"/><path class="cls-6" d="M276.9,158c.86,2.31,5.35,4.61,8.72,4.08s8.35,1.22,6.1,6.75-1.12,7.34,3.58,8.19-.78,6.84,1.12,9.69c0,0,2.31-2.3,5.16-1.31a5.43,5.43,0,0,0,7.1-3.35c1.26-3.21,4-2.44,4-2.44s-1.2-10.72-10.87-16.67-7.8-10.17-17.13-10.38S276.9,158,276.9,158Z"/><path class="cls-15" d="M292.26,210.36s5.53-6.83,8.85-1.85c4.11,6.14-8.95,15.72-8.95,15.72s-9.4-7.69-6.9-13.51C288.42,203.37,292.26,210.36,292.26,210.36Z"/><path class="cls-9" d="M286.26,237.82c-3.08,7.72-1.58,33.95,4.53,51.4,0,0,8.08,2.5,30.72-3.9,18.62-5.27,29.77-12.57,29.77-12.57-6.59-13.64-17.87-45.9-20.55-46.91Z"/><path class="cls-13" d="M351.28,272.75s-1.64,1.07-4.72,2.7c-1.45.76-3.24,1.66-5.32,2.61-1.85.86-3.95,1.77-6.28,2.69-1.59.65-3.3,1.29-5.1,1.93-2.58.9-5.38,1.8-8.35,2.64l-2.36.65c-1.43.38-2.8.73-4.1,1-3.19.76-6,1.32-8.5,1.72-1.95.32-3.71.55-5.26.69a50.89,50.89,0,0,1-5.7.27c-.82,0-1.51,0-2.11-.09a13,13,0,0,1-2.69-.39c-6.11-17.44-7.61-43.67-4.53-51.39l44.47-12C333.41,226.85,344.69,259.1,351.28,272.75Z"/><path class="cls-13" d="M290.07,262.69l5.52,27c-.82,0-1.51,0-2.11-.09Z"/><path class="cls-13" d="M301.29,289.42l-4-40.72,9.22,40C304.6,289.05,302.84,289.28,301.29,289.42Z"/><path class="cls-13" d="M315.05,287l-7.63-41.11L319.15,286C317.72,286.35,316.35,286.7,315.05,287Z"/><path class="cls-13" d="M329.86,282.68l-10-40.77L335,280.75C333.37,281.4,331.66,282,329.86,282.68Z"/><path class="cls-13" d="M346.56,275.45c-1.45.76-3.24,1.66-5.32,2.61l-11.85-38.71Z"/><path class="cls-13" d="M316.83,199.87a54.17,54.17,0,0,1-34.49,23.63,162.44,162.44,0,0,1-4-16.67c12.34,1.5,22.11-7.16,28.68-13.18,2.57-2.35,4.6-3.16,6.19-3.1C313.87,192.41,315.13,195.78,316.83,199.87Z"/></g><g id="_Group_2" data-name="&lt;Group&gt;"><path class="cls-17" d="M219.53,225.17s-14.6,3.39-16.93,3.33S169.17,207,169.17,207l-9.57,7s22.55,28.29,33.73,32.29,33.7,0,33.7,0Z"/><path class="cls-13" d="M227,246.33s-1.44.26-3.78.57c-2.52.35-6.07.76-10,1-6.79.43-14.65.33-19.95-1.57-11.18-4-33.73-32.29-33.73-32.29l9.57-7s31.09,21.43,33.42,21.48c1.37,0,7-1.13,11.42-2.09l1.25-.28c2.46-.54,4.27-1,4.27-1Z"/><path class="cls-13" d="M223.25,246.9c-2.52.35-6.07.76-10,1-1.06-8.94.73-21.49.73-21.49l.34-1.24c.31.32.62.64.91,1C221.89,233.37,223.71,241.07,223.25,246.9Z"/><path class="cls-9" d="M250.29,216c-9.63-3.79-39.17,10-39.17,10l9,24.73,19.64-4.37Z"/><path class="cls-13" d="M250.29,216l-9.74,28.07-.79,2.27L227.7,249l-7.57,1.68-9-24.73S240.65,212.19,250.29,216Z"/><path class="cls-13" d="M240.55,244.06l-.79,2.27L227.7,249c2.53-6.78,8.63-13.17,8.63-13.17S238.25,239.56,240.55,244.06Z"/><path class="cls-17" d="M167.2,214l3.59-5.9s0-6.57-.33-8.65-15-14.95-15-14.95-13.64,2.15-13.84,6.65,8.07,18.55,9.46,19.35S157.35,218.61,167.2,214Z"/><path class="cls-13" d="M167.2,214l3.59-5.9s0-6.57-.33-8.65-15-14.95-15-14.95-13.64,2.15-13.84,6.65,8.07,18.55,9.46,19.35S157.35,218.61,167.2,214Z"/><polygon class="cls-17" points="330.29 341.87 307.12 348.99 303.15 334.19 320.07 330.19 330.29 341.87"/><path class="cls-6" d="M326.74,344.2l-12.89-11.56a1.24,1.24,0,0,1-.25-1.54L320,319.77a2.11,2.11,0,0,1,2.87-.77,2.6,2.6,0,0,1,.38.27c4.11,3.81,6.92,6.79,12.15,11.49,3.23,2.9,13.27,11.29,17.72,15.28s1.09,8.92-1.09,7.69c-9.78-5.55-18.16-8.6-22.88-8.6A3.42,3.42,0,0,1,326.74,344.2Z"/><polygon class="cls-17" points="355.52 352.06 332.35 359.17 328.38 344.37 345.3 340.38 355.52 352.06"/><path class="cls-6" d="M352,354.39l-12.89-11.57a1.24,1.24,0,0,1-.25-1.54L345.21,330a2.1,2.1,0,0,1,2.87-.78,2.07,2.07,0,0,1,.38.28c4.11,3.81,6.92,6.79,12.16,11.49,3.22,2.89,13.26,11.28,17.71,15.28s1.09,8.92-1.09,7.69c-9.78-5.56-18.16-8.61-22.88-8.61A3.46,3.46,0,0,1,352,354.39Z"/><path class="cls-6" d="M330,335.48l-13.81-1.12c7.59-15.1,10.53-33.35,6.33-49.48-9.23-35.44-80.67,6.9-80.67,6.9s-68.49,6.92-74.07,39.52S219.46,366,219.46,366s53,3.88,83.46,0,42.18-7.81,42.18-7.81Z"/><path class="cls-18" d="M345.1,358.23s-11.72,3.93-42.18,7.81c-22.19,2.83-56.35,1.53-73.26.62-6.3-.33-10.2-.62-10.2-.62s-19.43-.72-34.56-7.77c-10.84-5-19.47-13.36-17.14-27,5.58-32.6,74.07-39.52,74.07-39.52s71.44-42.34,80.67-6.89a65.91,65.91,0,0,1,.81,27.92,78.2,78.2,0,0,1-7.14,21.56L330,335.48Z"/><path class="cls-9" d="M322.73,287l-80.9,4.79-7.62-64.24a12.58,12.58,0,0,1,9.7-13.78c32.5-7.22,51.88-.07,51.88-.07a208.71,208.71,0,0,1,11,20.44,197.75,197.75,0,0,1,8.46,21C321.75,274.22,322.73,287,322.73,287Z"/><path class="cls-13" d="M240.16,227.49s8.7-15.56,33-15C273.12,212.47,260.73,233.26,240.16,227.49Z"/><path class="cls-17" d="M271.71,213.63c-9.2-.35-20.9-12.7-23.63-20.89l-9.72,23.12a23.38,23.38,0,0,1,2.37,2.17,11.14,11.14,0,0,1,2.94,4.88c.39,1.57-1.88,5.43-1.88,5.43s7.74,2.75,19.2-3.17C267.75,221.67,271.71,213.63,271.71,213.63Z"/><path class="cls-13" d="M248.89,202c5.44,8.44-1.39,17.22-5.22,20.88a11.14,11.14,0,0,0-2.94-4.88Z"/><path class="cls-6" d="M215.19,180.28s-1.28,14.28,7.17,20,5.59-29,5.59-29Z"/><path class="cls-17" d="M248.12,187.67c-.3-2.39,1-7.74-.37-9.73-4.72-7-16.05-8.17-23.05-3.45-8.24,5.46-9.33,16.94-6.64,26.62a11.58,11.58,0,0,0,4.87,14.83c4.54,2.54,9.39,3.8,14.34,2.32a13.92,13.92,0,0,0,8.62-5.18,10.28,10.28,0,0,0,2.26-3.74C250.78,203.48,249.5,197.33,248.12,187.67Z"/><path class="cls-6" d="M232.09,194.11c.24.88-.14,1.71-.73,1.83s-1.21-.52-1.39-1.4.15-1.72.73-1.83S231.9,193.21,232.09,194.11Z"/><path class="cls-6" d="M222,196.16c.24.87-.15,1.71-.73,1.83s-1.2-.52-1.39-1.41.15-1.71.73-1.82S221.82,195.31,222,196.16Z"/><path class="cls-16" d="M225.29,196a32.26,32.26,0,0,1-2.72,8.51,5.31,5.31,0,0,0,4.46-.07Z"/><path class="cls-6" d="M234.56,190.21a.57.57,0,0,1-.55-.1A4.29,4.29,0,0,0,230.3,189a.54.54,0,0,1-.66-.37A.53.53,0,0,1,230,188h0a5.29,5.29,0,0,1,4.7,1.29.53.53,0,0,1,.07.75h0A.8.8,0,0,1,234.56,190.21Z"/><path class="cls-6" d="M217,193.56a.48.48,0,0,1-.31.08.53.53,0,0,1-.39-.64h0a5.33,5.33,0,0,1,3.18-3.71.53.53,0,0,1,.68.33h0a.56.56,0,0,1-.34.68h0a4.32,4.32,0,0,0-2.47,3A.56.56,0,0,1,217,193.56Z"/><path class="cls-6" d="M228.74,208.44a34.73,34.73,0,0,1,4.3,2.48c.21-.21.41-.41.6-.63,2.7-2.91,3-5.16,2.49-6.76a5.09,5.09,0,0,0-1.29-2.05,5,5,0,0,0-1.09-.85c-.51,2.39-2.81,5.3-4.11,6.8C229.11,208.07,228.74,208.44,228.74,208.44Z"/><path class="cls-15" d="M229.64,207.43l1.29.7c2.53-2.75,3.95-5,3.91-6.65a5,5,0,0,0-1.09-.85C233.24,203,230.94,205.93,229.64,207.43Z"/><path class="cls-16" d="M233.64,210.29c2.7-2.91,3-5.16,2.49-6.76a12.75,12.75,0,0,0-2.35,3.83A4.82,4.82,0,0,0,233.64,210.29Z"/><path class="cls-6" d="M245.44,194s-7.23-7.66-5.61-15c0,0-8-4.76-16.21,4.46-6.92,7.82-14.62.06-12.71-8.62,1.29-5.84,7.18-1.36,7.18-1.36s3.22-6.3,14.95-6.67,19,6.86,20.22,11.25c3.56,12.95.61,22.64-4.23,28.81Z"/><path class="cls-17" d="M254.73,195.69a10.64,10.64,0,0,1-4.91,6.49c-3.23,1.87-5.78-.8-5.66-4.34.13-3.15,1.93-8,5.56-8.39S255.56,192.33,254.73,195.69Z"/><path class="cls-9" d="M241.79,225.17s0,2.42,4.7,2.19,20.53-5.43,23.2-14.89h3.43s.55,10.9-15.22,16.34-17.74-1.32-17.74-1.32Z"/><path class="cls-13" d="M241.79,225.17s0,2.42,4.7,2.19,20.53-5.43,23.2-14.89h3.43s.55,10.9-15.22,16.34-17.74-1.32-17.74-1.32Z"/><path class="cls-13" d="M230.26,366.16s-.21.19-.6.5c-6.3-.33-10.2-.62-10.2-.62s-19.43-.72-34.56-7.77c-7.92-12.75-7.57-30.41,9.52-40.43,23.64-13.86,57.2-15,57.2-15s-50,16.62-50.47,33.25S213.05,365.5,230.26,366.16Z"/><path class="cls-13" d="M323.31,312.81a78.2,78.2,0,0,1-7.14,21.56l-57.51.14S308.4,327.15,323.31,312.81Z"/><path class="cls-17" d="M353.24,252.15h0a74.15,74.15,0,0,1-6.68,9.82l-3.88-5.84-31-12.77-9.75-4,2.35-23.15s7.44,1.28,13.67,3c1.45.4,2.83.83,4,1.27,6.4,2.34,28.76,14.67,33.29,20C357.38,243,355.68,247.73,353.24,252.15Z"/><path class="cls-13" d="M318,219.21l-6.27,24.16-9.75-4,2.35-23.15S311.73,217.48,318,219.21Z"/><path class="cls-13" d="M353.24,252.16a74.15,74.15,0,0,1-6.68,9.82l-3.88-5.84S348.85,255.79,353.24,252.16Z"/><path class="cls-19" d="M315.28,255.11c-14.89,3.32-29.65-22.24-29.65-22.24a52.58,52.58,0,0,1,21.19,1.26A197.75,197.75,0,0,1,315.28,255.11Z"/><path class="cls-9" d="M278,215.51c-2.95,9.75,6,23.63,30.76,32.09l7.38-30.75S281,205.38,278,215.51Z"/><path class="cls-13" d="M278,215.51c-2.95,9.75,6,23.63,30.76,32.09l7.38-30.75S281,205.38,278,215.51Z"/></g><path class="cls-12" d="M267.52,217l-6.33,1.53s-3.1-.8-4.4-.52-8.13,8.92-7.38,9.84,5.41,4.1,7.11,3.12,6.77-8.7,6.77-8.7l6.11-1.57Z"/><path class="cls-9" d="M312.82,189c-4.3-2.73-19.47,20.07-22.76,20.91s-25.71,6.31-25.71,6.31l3.11,6.17s24.3-1.67,29.08-4.31,16.76-15.42,19-20.06S312.82,189,312.82,189Z"/><path class="cls-11" d="M312.82,189c-4.3-2.73-19.47,20.07-22.76,20.91s-25.71,6.31-25.71,6.31l3.11,6.17s24.3-1.67,29.08-4.31,16.76-15.42,19-20.06S312.82,189,312.82,189Z"/><path class="cls-12" d="M162.17,242.38s-5.87,7.21-11.09,10.63a12.9,12.9,0,0,1-2.91,1.48c-5.63,1.84-10.94-26.77-10.94-26.77l.19-1.38,2-15.17c4.1.86,10.56,32.13,11.09,33.31s7.37-6.34,7.37-6.34Z"/><path class="cls-13" d="M151.08,253a12.9,12.9,0,0,1-2.91,1.48c-5.63,1.84-10.94-26.77-10.94-26.77l.19-1.38,4.42-2.31S144.76,244.53,151.08,253Z"/><path class="cls-12" d="M154.49,239.12s2.21-5.6,4.68-6.81,9.87-1.79,11.42-1.12,2.79,4.24,2.79,4.24-7.69,7.78-9.55,8.23S154.2,244.23,154.49,239.12Z"/><polygon class="cls-17" points="70.89 345.34 71.7 336.17 84.75 335.8 96.66 335.48 97.5 346.53 83.42 345.9 70.89 345.34"/><path class="cls-6" d="M78.91,335.65c.79.56-6.41,10-6.41,10s-10.19,1.92-15.5,6.86-6.63-.69-2.24-7.25S62.51,333.66,65.63,329,70.76,329.91,78.91,335.65Z"/><path class="cls-9" d="M66.53,349.08a14.68,14.68,0,0,1,4-3.23.26.26,0,0,1,.12-.05h.08a.34.34,0,0,1,.2.13c.08.1,1.82,2.46,1.48,4.16a1.8,1.8,0,0,1-.89,1.24,1.07,1.07,0,0,1-1.25.1c-.5-.38-.55-1.43-.44-2.51a4.83,4.83,0,0,1-1.72,2,1.24,1.24,0,0,1-1,.08c-.68-.24-.86-.64-.89-.94A1.65,1.65,0,0,1,66.53,349.08Zm3.53-2.23c-1.58,1-3.33,2.47-3.26,3.19,0,.06,0,.25.48.41a.63.63,0,0,0,.53-.05C68.69,350,69.56,348.12,70.06,346.85Zm1.52,3.57a1.3,1.3,0,0,0,.19-.45,5.25,5.25,0,0,0-1-3.1c-.43,1.82-.6,3.74-.18,4.06.13.1.41,0,.56-.13A1.26,1.26,0,0,0,71.58,350.42Z"/><polygon class="cls-17" points="54.07 353.11 56.72 344.29 69.57 346.56 81.3 348.65 79.9 359.64 66.23 356.19 54.07 353.11"/><polygon class="cls-13" points="66.12 356.15 69.47 346.53 81.25 348.63 79.88 359.63 66.12 356.15"/><path class="cls-6" d="M63.88,345.24c.66.7-8.28,8.45-8.28,8.45s-10.37-.17-16.56,3.6-6.36-2-.73-7.56S48.22,340,52.21,336,57.06,338,63.88,345.24Z"/><path class="cls-9" d="M49.05,355.89a14.55,14.55,0,0,1,4.54-2.36.19.19,0,0,1,.13,0h0l.07,0a.28.28,0,0,1,.18.16c.05.11,1.28,2.77.61,4.37a1.83,1.83,0,0,1-1.12,1c-.57.2-1,.14-1.25-.16-.41-.47-.25-1.5.07-2.54a4.78,4.78,0,0,1-2.09,1.65,1.26,1.26,0,0,1-1-.13,1.14,1.14,0,0,1-.68-1.09A1.66,1.66,0,0,1,49.05,355.89Zm3.9-1.47c-1.75.7-3.75,1.75-3.83,2.47,0,.06,0,.25.39.5a.68.68,0,0,0,.53.06C51,357.2,52.22,355.56,53,354.42Zm.78,3.8a1.28,1.28,0,0,0,.27-.4,5.14,5.14,0,0,0-.34-3.23c-.78,1.7-1.34,3.54-1,3.94.11.12.41,0,.58,0A1.17,1.17,0,0,0,53.73,358.22Z"/><path class="cls-9" d="M87.75,234.74c1.73,5.55,3.08,10.36,4.16,14.66,3.36,13.31,4.07,21.83,4.77,33l44.94-3.87c1.79-31.65,1-49,.17-57.74-.9-9.27-2.33-9.61-2.33-9.61s-10-1-18.78-.92a143.57,143.57,0,0,0-20.17,2.13,130.23,130.23,0,0,0-14.34,3.21A4.24,4.24,0,0,0,83.29,221c.48,1.42.94,2.8,1.38,4.13C85.81,228.59,86.83,231.77,87.75,234.74Z"/><path class="cls-20" d="M141.61,278.52,96.68,282.4c-.71-11.12-1.41-19.62-4.75-32.87l0-.13c-1-4.14-2.32-8.74-4-14-.06-.21-.13-.41-.19-.62-.92-3-1.94-6.15-3.09-9.58L83.29,221a4.25,4.25,0,0,1,2.88-5.45,132.56,132.56,0,0,1,14.34-3.21,143.4,143.4,0,0,1,20.17-2.12c8.74-.07,18.78.91,18.78.91s1.43.34,2.33,9.61C142.61,229.48,143.41,246.87,141.61,278.52Z"/><path class="cls-6" d="M93,163.2s3.45-5.12,12.57-5.78,19.37,2,24.3,14.53l-4,1A93.26,93.26,0,0,1,129.27,202s-22.65-.66-43.31,4.93c0,0-3.13-15-.86-29.76S93,163.2,93,163.2Z"/><path class="cls-12" d="M115.25,219.85c-10.49-1.34-13.64-5.82-13.64-5.82,6.65-6.28,1.13-17.15,1.13-17.15l12.62,2.35a37.58,37.58,0,0,0-.5,5.32c-.09,7.66,3.37,7.73,3.37,7.73C120.45,216.43,115.25,219.85,115.25,219.85Z"/><path class="cls-13" d="M115.36,199.23a37.58,37.58,0,0,0-.5,5.32c-8.52,0-12.12-7.67-12.12-7.67Z"/><path class="cls-12" d="M124.38,194.21c-.1.37-.2.73-.31,1.07-1.47,4.46-4.6,7.21-10.12,7.32a16.78,16.78,0,0,1-2.42-.09c-.5,0-1-.13-1.59-.21-18.86-3.08-19.78-37.36-1.55-38.37,11-.6,14.82,5.09,16.24,16.35C125.3,185.64,125.35,190.44,124.38,194.21Z"/><path class="cls-14" d="M117.5,180.06a23.34,23.34,0,0,0,3.44,4.37,3,3,0,0,1-2.82,1.4Z"/><path class="cls-6" d="M110.74,179.53c.07.9-.36,1.67-1,1.71s-1.15-.64-1.22-1.54.36-1.67,1-1.72S110.67,178.63,110.74,179.53Z"/><path class="cls-6" d="M109.28,178.05l1.89-.92S110.33,178.85,109.28,178.05Z"/><path class="cls-6" d="M121.91,178.46c.07.91-.36,1.67-1,1.72s-1.14-.64-1.21-1.54.36-1.67,1-1.72S121.84,177.56,121.91,178.46Z"/><path class="cls-6" d="M120.45,177l1.9-.92S121.5,177.79,120.45,177Z"/><path class="cls-6" d="M105.54,174.38a.46.46,0,0,1-.29-.1.51.51,0,0,1-.11-.7c1.71-2.35,5-2.13,5.11-2.12a.5.5,0,0,1,.46.53.52.52,0,0,1-.53.47s-2.86-.18-4.23,1.71A.49.49,0,0,1,105.54,174.38Z"/><path class="cls-6" d="M122.58,172.22a.47.47,0,0,1-.25-.07,4.6,4.6,0,0,0-4-.63.52.52,0,0,1-.66-.27.5.5,0,0,1,.26-.65,5.59,5.59,0,0,1,4.88.69.49.49,0,0,1,.18.68A.51.51,0,0,1,122.58,172.22Z"/><path class="cls-6" d="M97.4,183.09s4.64-9.3,3.48-16.21c0,0,21.26-10.08,23.54,11.93,0,0,1-19.71-17.84-19.11s-17.29,28.18-7.1,35.87C99.48,195.57,94.54,188.9,97.4,183.09Z"/><path class="cls-12" d="M99.32,185.31a4.82,4.82,0,0,0-5.42-4.12c-3.38.56-4.62,7.63,3.93,8.84C99.06,190.21,99.68,189,99.32,185.31Z"/><path class="cls-6" d="M117.6,189.94a29.92,29.92,0,0,0-2.43,3.7c-.25-.08-.49-.17-.74-.27-3.31-1.24-4.43-2.91-4.68-4.38a4.62,4.62,0,0,1,.21-2.15,4.56,4.56,0,0,1,.53-1.12c1.36,1.71,4.36,3.11,6,3.78C117.16,189.79,117.6,189.94,117.6,189.94Z"/><path class="cls-15" d="M116.48,189.5l-.75,1.08c-3.11-1.18-5.15-2.43-5.77-3.74a4.56,4.56,0,0,1,.53-1.12C111.85,187.43,114.85,188.83,116.48,189.5Z"/><path class="cls-16" d="M114.43,193.37c-3.31-1.24-4.43-2.91-4.68-4.38a11.5,11.5,0,0,1,3.41,2.11A4.17,4.17,0,0,1,114.43,193.37Z"/><path class="cls-9" d="M207.12,345.85c-1.39,12.65-23.71,19.24-56.06,20.19h0c-22.86.67-50.71-1.47-79.74-6.3l1.38-15.45L86.33,341h0c-.12-.25-2.45-5.33-1.4-16.07.79-8.15,3.54-19.57,10.7-34.62l46-4.07,6.7,14.06S198.24,314,206.5,340.36A13.33,13.33,0,0,1,207.12,345.85Z"/><path class="cls-13" d="M207.12,345.85c-1.39,12.65-23.71,19.24-56.06,20.19,22.26-3,30.14-11.12,25.2-25s-40.53-33.63-41.89-34.4c41.11,15.85,50.8,39.72,50.8,39.72C192.83,348.21,201.5,347.05,207.12,345.85Z"/><path class="cls-13" d="M130.9,338.7C113,336,86.33,341,86.33,341h0c-.12-.25-2.45-5.33-1.4-16.07C105,326.45,130.9,338.7,130.9,338.7Z"/><polygon class="cls-6" points="96.68 282.39 141.62 278.51 141.62 286.21 95.62 290.28 96.68 282.39"/><path class="cls-15" d="M128.18,279.86a2.79,2.79,0,0,0-2.12-.72l-5.61.48a2.77,2.77,0,0,0-2.55,2.78V286a2.78,2.78,0,0,0,2.79,2.79h.24l5.61-.5a2.76,2.76,0,0,0,2.54-2.77v-3.57A2.79,2.79,0,0,0,128.18,279.86Zm-1.76,7-5.61.5a1.37,1.37,0,0,1-1-.35,1.34,1.34,0,0,1-.43-1V282.4a1.35,1.35,0,0,1,1.23-1.35l5.61-.48h.12a1.36,1.36,0,0,1,1.35,1.36v.54l-.22,0-1.57.12a1,1,0,1,0,.14,1.9l1.57-.12.08,0v1.18A1.34,1.34,0,0,1,126.42,286.83Z"/><path class="cls-12" d="M126.29,244s1.29-5.88,3.55-7.46,9.45-3.34,11.08-2.92,3.43,3.74,3.43,3.74-6.36,8.91-8.12,9.65S126.81,249.12,126.29,244Z"/><path class="cls-13" d="M101.61,253.22c-1.88,1.82-6.09-.79-9.68-3.69l0-.13c-1-4.14-2.32-8.74-4-14l2.08-9S105.19,249.75,101.61,253.22Z"/><path class="cls-12" d="M83.9,217.16c-6.27,6,10,33.52,17.71,40.37s27-11.21,27-11.21v-6.14s-17.41,8.64-20.76,8.11c-1.53-.24-7.29-9.21-11.13-17.43C92.16,221,89.19,212.07,83.9,217.16Z"/><g id="_Group_3" data-name="&lt;Group&gt;"><path class="cls-17" d="M176,240.77s11.62,6.31,15.45,6.19,15.7-12.29,15.7-12.29l4.67,2s-12.58,15.84-16.34,16.46-17.94-3-17.94-3Z"/><path class="cls-6" d="M167.21,235.05c9.25.51,17,7.62,17,7.62l-3,11.09-11.5-5.18Z"/><path class="cls-11" d="M184.17,242.67l-3,11.09-1.36-.61-10.14-4.57-.54-2.93-2-10.6C176.46,235.57,184.17,242.67,184.17,242.67Z"/><path class="cls-13" d="M179.85,253.15l-10.14-4.57-.54-2.93,1.58-4.88S179.29,242.6,179.85,253.15Z"/><path class="cls-17" d="M209.82,293.22s21,12.3,28.68,42.29l-5.8,4.42s-7.72-23.76-30.1-34.84Z"/><path class="cls-6" d="M239,332.94l-9.16,2.22a.6.6,0,0,0-.47.7h0l1.31,7.36a1.48,1.48,0,0,0,1.77,1.1c3.19-.82,4.67-1.38,8.69-2.38,2.48-.61,7.42-1.57,10.67-2.93s1.82-4.54.32-4.25c-3.55.67-8.87-.45-11.61-1.7A2.4,2.4,0,0,0,239,332.94Z"/><path class="cls-9" d="M242.2,333.63a10.71,10.71,0,0,1-2.26.24.18.18,0,0,1-.17-.11.25.25,0,0,1,0-.22c.22-.24,2.15-2.38,3.25-2.23a.76.76,0,0,1,.57.43,1.05,1.05,0,0,1,0,1.12A2.24,2.24,0,0,1,242.2,333.63Zm.79-1.9c-.58-.08-1.77.93-2.58,1.77,1.53-.07,2.59-.37,2.89-.84a.69.69,0,0,0,0-.71.35.35,0,0,0-.28-.22Z"/><path class="cls-9" d="M240,333.86a.11.11,0,0,1-.08,0,.24.24,0,0,1-.14-.12c0-.07-.78-2.4-.16-3.4a1,1,0,0,1,.75-.46.75.75,0,0,1,.83.41c.4.84-.4,2.84-1.1,3.52A.12.12,0,0,1,240,333.86Zm.33-3.52a.61.61,0,0,0-.36.27c-.38.6-.11,1.95.09,2.72a4.07,4.07,0,0,0,.79-2.82c0-.1-.14-.22-.42-.18Z"/><path class="cls-17" d="M187.07,307.27s14.22,19.78,9,50.28l-7.1,1.68s2.6-24.84-13.35-44.05Z"/><path class="cls-6" d="M197.57,355.4l-9.28-1.7a.6.6,0,0,0-.71.45h0l-1.8,7.26a1.49,1.49,0,0,0,1.18,1.73c3.24.54,4.82.63,8.9,1.35,2.51.45,7.42,1.58,10.94,1.65s3.51-3.4,2-3.74c-3.52-.84-7.93-4-9.92-6.27A2.34,2.34,0,0,0,197.57,355.4Z"/><path class="cls-9" d="M200.24,357.34a10.2,10.2,0,0,1-2.15-.7.17.17,0,0,1-.12-.17.19.19,0,0,1,.11-.18c.3-.14,2.93-1.31,3.87-.73a.74.74,0,0,1,.35.63,1,1,0,0,1-.43,1A2.24,2.24,0,0,1,200.24,357.34Zm1.5-1.41c-.5-.31-2,.13-3.07.56,1.42.57,2.52.72,3,.41a.75.75,0,0,0,.26-.66.36.36,0,0,0-.17-.31Z"/><path class="cls-9" d="M198.13,356.65a.11.11,0,0,1-.08,0,.21.21,0,0,1-.08-.17c0-.07.26-2.51,1.24-3.17a1,1,0,0,1,.87-.11.74.74,0,0,1,.59.71c0,.93-1.53,2.43-2.44,2.77A.1.1,0,0,1,198.13,356.65Zm1.74-3.07a.56.56,0,0,0-.45.1c-.58.38-.89,1.73-1,2.51a4.08,4.08,0,0,0,1.86-2.25c0-.11,0-.26-.31-.34Z"/><path class="cls-6" d="M186.89,286.35s-11.18-27.59-12.57-43.74a8.34,8.34,0,0,0-7.11-7.56,51.86,51.86,0,0,0-13.38.1c-15.05,1.84-21.52,6.45-21.52,6.45s-.37,27.32,5.29,52.42Z"/><path class="cls-11" d="M186.89,286.35,137.59,294a206.14,206.14,0,0,1-3.68-22.87c-.57-5.26-.94-10.18-1.18-14.44-.51-9-.43-15.11-.43-15.11s6.48-4.61,21.53-6.44a51.42,51.42,0,0,1,13.37-.11,8.35,8.35,0,0,1,7.12,7.56C175.71,258.76,186.89,286.35,186.89,286.35Z"/><path class="cls-17" d="M160.8,232.68a6.82,6.82,0,0,0,.13,5.29,7.84,7.84,0,0,0,.45.86,11.17,11.17,0,0,0,.9,1.22s1.18,4.67-4.44,4.32c-8.61-.55-12.06-6.36-12.06-6.36a12.73,12.73,0,0,0,3.12-10,17.2,17.2,0,0,0-1.43-5.3l11,4.06,5,1.85A11.35,11.35,0,0,0,160.8,232.68Z"/><path class="cls-13" d="M160.8,232.68a6.82,6.82,0,0,0,.13,5.29,7.84,7.84,0,0,0,.45.86c-6.2-1.09-10.39-7-12.48-10.78a17.2,17.2,0,0,0-1.43-5.3l11,4.06,5,1.85A11.35,11.35,0,0,0,160.8,232.68Z"/><path class="cls-6" d="M166.68,194.28s13.2,8,1.57,20.43C155.11,228.71,166.68,194.28,166.68,194.28Z"/><path class="cls-17" d="M140.34,214.45c1.95,9,8.53,18.39,16.29,18.67,14.23.53,19.27-2.9,19.34-13.41.1-9.47-5.27-23.65-17.13-24.72S137.63,201.93,140.34,214.45Z"/><path class="cls-6" d="M168.93,200.15a25.54,25.54,0,0,1-13.33,2.73s-5.42,1.69-3.32,7.77-4.68,10.51-3.78,18.82c0,0-8.78.18-12.69-17.75-2.86-13.07,7.88-19.81,19.68-21.26C165.37,189.25,173.34,195.36,168.93,200.15Z"/><path class="cls-6" d="M161.54,214.11c.21,1.15,1,2,1.75,1.83s1.19-1.19,1-2.34-1-2-1.75-1.84S161.33,213,161.54,214.11Z"/><path class="cls-6" d="M170.67,212c.2,1.1,1,1.89,1.67,1.75s1.14-1.14.94-2.24-.95-1.88-1.68-1.75S170.47,210.87,170.67,212Z"/><path class="cls-6" d="M163.79,207.71a.64.64,0,0,0,.14-.3.55.55,0,0,0-.53-.53,5.21,5.21,0,0,0-4.34,2.09.53.53,0,0,0,.15.73h0a.55.55,0,0,0,.73-.14h0a4.13,4.13,0,0,1,3.49-1.6A.55.55,0,0,0,163.79,207.71Z"/><path class="cls-6" d="M172.82,206.54a.61.61,0,0,0,.26-.19.54.54,0,0,0-.21-.72,5.18,5.18,0,0,0-4.81-.24.53.53,0,0,0-.22.72h0a.55.55,0,0,0,.71.21h0a4.15,4.15,0,0,1,3.83.27A.56.56,0,0,0,172.82,206.54Z"/><path class="cls-16" d="M169.11,213.63l-.31,5.11a6.32,6.32,0,0,0,3.64-.86A14.73,14.73,0,0,1,169.11,213.63Z"/><path class="cls-17" d="M151.4,218.51s-3.3-5.2-5.9-3S145,227,149.25,226.3,153.83,221.21,151.4,218.51Z"/><path class="cls-6" d="M169.71,222.1a29.42,29.42,0,0,0-1.41,4l-.74-.07c-3.38-.39-4.81-1.68-5.38-3a4.43,4.43,0,0,1-.31-2,4,4,0,0,1,.23-1.16c1.67,1.27,4.78,1.87,6.46,2.12C169.26,222.07,169.71,222.1,169.71,222.1Z"/><path class="cls-15" d="M168.56,222l-.44,1.18c-3.18-.38-5.37-1.06-6.25-2.14a4,4,0,0,1,.23-1.16C163.77,221.1,166.88,221.7,168.56,222Z"/><path class="cls-16" d="M167.56,226c-3.38-.39-4.81-1.68-5.38-3a10.76,10.76,0,0,1,3.66,1.17A4.13,4.13,0,0,1,167.56,226Z"/><path class="cls-6" d="M158.63,190.32c8.8.51,12.87-2.43,12.87-2.43,5.31,5.19.12,17.51-15.9,15S155.81,190.16,158.63,190.32Z"/><path class="cls-6" d="M218.79,295.17,210,311.38l-2.82,5.2-17.63-6.93L178.9,326.11S132.32,312,136.49,288.7l46-14.23S203.58,279.78,218.79,295.17Z"/><path class="cls-13" d="M210,311.38l-2.82,5.2-17.63-6.93,1.1-3.12-17.83-19.8S198.14,294.84,210,311.38Z"/><polygon class="cls-15" points="159.6 256.65 160.75 248.22 166.17 256.06 172.83 254.95 169.15 261.67 172.83 269.39 165.68 266.02 158.11 272.85 158.52 263.45 152.34 258.51 159.6 256.65"/><path class="cls-17" d="M207.19,236.69s-1.06-1.41-.07-3.94S219,228.34,219,228.34s1.2,6.32,0,8.35S208.25,241.19,207.19,236.69Z"/><path class="cls-13" d="M133.91,271.15c-.57-5.26-.94-10.18-1.18-14.44a9.44,9.44,0,0,1,6.51-2.27S140.39,265.93,133.91,271.15Z"/><path class="cls-17" d="M136.23,257.46s-5.64,16.84-6.39,21,0,24.36,0,24.36h-4.72s-2.66-21.32-2.46-25.49,5-23.56,5-23.56Z"/><path class="cls-6" d="M132.45,241.62c-6,4.6-9.42,19.55-9.42,19.55l11.91,1.33,4.32-10.66Z"/><path class="cls-11" d="M132.45,241.62c-6,4.6-9.42,19.55-9.42,19.55l11.91,1.33,4.32-10.66Z"/><path class="cls-17" d="M125.83,300.2s-7.52,1.22-8.91,2.61a59.61,59.61,0,0,0-4,5.15s8.74,2.67,10.15,3,7.21-5.05,7.87-6.51S125.83,300.2,125.83,300.2Z"/></g></g></g></svg>