<svg xmlns="http://www.w3.org/2000/svg" xmlns:xlink="http://www.w3.org/1999/xlink" viewBox="0 0 958.94 860"><defs><style>.cls-1{mask:url(#mask);filter:url(#luminosity-noclip-2);}.cls-2{mix-blend-mode:multiply;fill:url(#Áåçûìÿííûé_ãðàäèåíò_2);}.cls-3{fill:#ebf2ff;}.cls-29,.cls-33,.cls-4{fill:#3380db;}.cls-30,.cls-5{fill:#628cd2;}.cls-6,.cls-8{fill:#fff;}.cls-7{fill:#e0eaff;}.cls-8{opacity:0;}.cls-9{fill:#fcfdff;opacity:0.06;}.cls-10{fill:#f9fbfe;opacity:0.11;}.cls-11{fill:#f5f8fe;opacity:0.17;}.cls-12{fill:#f2f6fd;opacity:0.22;}.cls-13{fill:#eff4fd;opacity:0.28;}.cls-14{fill:#ecf2fc;opacity:0.33;}.cls-15{fill:#e9f0fc;opacity:0.39;}.cls-16{fill:#e6eefb;opacity:0.44;}.cls-17{fill:#e3ecfb;}.cls-17,.cls-39{opacity:0.5;}.cls-18{fill:#dfe9fb;opacity:0.56;}.cls-19{fill:#dce7fa;opacity:0.61;}.cls-20{fill:#d9e5fa;opacity:0.67;}.cls-21{fill:#d6e3f9;opacity:0.72;}.cls-22{fill:#d3e1f9;opacity:0.78;}.cls-23{fill:#d0dff8;opacity:0.83;}.cls-24{fill:#ccdcf8;opacity:0.89;}.cls-25{fill:#c9daf7;opacity:0.94;}.cls-26{fill:#c6d8f7;}.cls-27{fill:#1a317a;}.cls-28{fill:#c7d9f8;}.cls-29,.cls-31{opacity:0.3;}.cls-30,.cls-33{opacity:0.75;}.cls-32,.cls-60{fill:#ff5f18;}.cls-34{fill:url(#linear-gradient);}.cls-35{fill:#2c49a2;}.cls-36{fill:#fac4b6;}.cls-37{fill:#f5b3a6;}.cls-38{fill:url(#Áåçûìÿííûé_ãðàäèåíò_11);}.cls-39,.cls-49{fill:#a7c1ff;}.cls-40{fill:url(#Áåçûìÿííûé_ãðàäèåíò_18);}.cls-41{fill:url(#Áåçûìÿííûé_ãðàäèåíò_15);}.cls-42{fill:url(#Áåçûìÿííûé_ãðàäèåíò_18-2);}.cls-43{mask:url(#mask-2);}.cls-44{fill:url(#Áåçûìÿííûé_ãðàäèåíò_34);}.cls-45{fill:url(#Áåçûìÿííûé_ãðàäèåíò_105);}.cls-46{fill:url(#Áåçûìÿííûé_ãðàäèåíò_105-2);}.cls-47{fill:url(#Áåçûìÿííûé_ãðàäèåíò_74);}.cls-48{fill:url(#Áåçûìÿííûé_ãðàäèåíò_11-2);}.cls-50{fill:#d54b07;}.cls-51{fill:url(#linear-gradient-2);}.cls-52{fill:#e4eeff;}.cls-53{fill:#fffefe;}.cls-54{fill:#fa8b17;}.cls-55{fill:url(#Áåçûìÿííûé_ãðàäèåíò_105-3);}.cls-56{fill:url(#Áåçûìÿííûé_ãðàäèåíò_6);}.cls-57{fill:url(#Áåçûìÿííûé_ãðàäèåíò_105-4);}.cls-58{fill:url(#Áåçûìÿííûé_ãðàäèåíò_18-3);}.cls-59{fill:url(#Áåçûìÿííûé_ãðàäèåíò_5);}.cls-60{opacity:0.55;}.cls-61{fill:#ffac31;}.cls-62{fill:url(#Áåçûìÿííûé_ãðàäèåíò_91);}.cls-63{fill:url(#linear-gradient-3);}.cls-64{fill:url(#linear-gradient-4);}.cls-65{filter:url(#luminosity-noclip);}</style><filter id="luminosity-noclip" x="199.15" y="-8572.6" width="95.53" height="32766" filterUnits="userSpaceOnUse" color-interpolation-filters="sRGB"><feFlood flood-color="#fff" result="bg"/><feBlend in="SourceGraphic" in2="bg"/></filter><mask id="mask" x="199.15" y="-8572.6" width="95.53" height="32766" maskUnits="userSpaceOnUse"><g class="cls-65"/></mask><linearGradient id="Áåçûìÿííûé_ãðàäèåíò_2" x1="160.98" y1="675.38" x2="317.89" y2="584.79" gradientUnits="userSpaceOnUse"><stop offset="0" stop-color="#999"/><stop offset="0.1" stop-color="#b5b5b5"/><stop offset="0.23" stop-color="#d0d0d0"/><stop offset="0.37" stop-color="#e5e5e5"/><stop offset="0.53" stop-color="#f4f4f4"/><stop offset="0.71" stop-color="#fcfcfc"/><stop offset="1" stop-color="#fff"/></linearGradient><linearGradient id="linear-gradient" x1="193.71" y1="695.2" x2="193.71" y2="491.04" gradientUnits="userSpaceOnUse"><stop offset="0" stop-color="#d54b07"/><stop offset="0.18" stop-color="#e26914"/><stop offset="0.39" stop-color="#ef8621"/><stop offset="0.6" stop-color="#f89b2a"/><stop offset="0.8" stop-color="#fda82f"/><stop offset="1" stop-color="#ffac31"/></linearGradient><linearGradient id="Áåçûìÿííûé_ãðàäèåíò_11" x1="1972.55" y1="335.41" x2="1915.86" y2="433.6" gradientTransform="matrix(-1, 0, 0, 1, 2292.66, 0)" gradientUnits="userSpaceOnUse"><stop offset="0" stop-color="#a7c1ff"/><stop offset="0.03" stop-color="#adc5ff"/><stop offset="0.19" stop-color="#cadaff"/><stop offset="0.36" stop-color="#e2eaff"/><stop offset="0.54" stop-color="#f2f6ff"/><stop offset="0.74" stop-color="#fcfdff"/><stop offset="1" stop-color="#fff"/></linearGradient><linearGradient id="Áåçûìÿííûé_ãðàäèåíò_18" x1="2029.04" y1="333.31" x2="2080.68" y2="333.31" gradientTransform="matrix(-1, 0, 0, 1, 2292.66, 0)" gradientUnits="userSpaceOnUse"><stop offset="0" stop-color="#2c49a2"/><stop offset="1"/></linearGradient><linearGradient id="Áåçûìÿííûé_ãðàäèåíò_15" x1="283.87" y1="520.16" x2="338.71" y2="520.16" gradientUnits="userSpaceOnUse"><stop offset="0" stop-color="#a7c1ff"/><stop offset="1" stop-color="#fff"/></linearGradient><linearGradient id="Áåçûìÿííûé_ãðàäèåíò_18-2" x1="1995.33" y1="314.76" x2="2050.97" y2="314.76" xlink:href="#Áåçûìÿííûé_ãðàäèåíò_18"/><filter id="luminosity-noclip-2" x="199.15" y="519.7" width="95.53" height="226.62" filterUnits="userSpaceOnUse" color-interpolation-filters="sRGB"><feFlood flood-color="#fff" result="bg"/><feBlend in="SourceGraphic" in2="bg"/></filter><mask id="mask-2" x="199.15" y="519.7" width="95.53" height="226.62" maskUnits="userSpaceOnUse"><g class="cls-1"><path class="cls-2" d="M244.53,671.45c-12,16.67-40.92,62.22-45.16,68.91a1.41,1.41,0,0,0-.22.72h0a1.39,1.39,0,0,0,.29.9l3.33,4.33a0,0,0,0,0,0,0c10.42-16.2,38.73-59.52,52.9-74.34,5.57-5.83,11.37-12.47,16.69-18.81a95.15,95.15,0,0,0,22.27-60.58c.15-24.8-1.9-55.91-12.11-68.34-4.78-5.82-12.42-5.54-21.06-2,0,0,0,0,0,0,.17,19.64,7.84,51.56,14.29,75.05a55.36,55.36,0,0,1-12.69,52.16A260.63,260.63,0,0,0,244.53,671.45Z"/></g></mask><linearGradient id="Áåçûìÿííûé_ãðàäèåíò_34" x1="160.98" y1="675.38" x2="317.89" y2="584.79" gradientUnits="userSpaceOnUse"><stop offset="0"/><stop offset="0.01" stop-color="#010102"/><stop offset="0.1" stop-color="#0c1329"/><stop offset="0.21" stop-color="#15224a"/><stop offset="0.32" stop-color="#1d2f65"/><stop offset="0.45" stop-color="#23397a"/><stop offset="0.58" stop-color="#284089"/><stop offset="0.75" stop-color="#2a4491"/><stop offset="1" stop-color="#2b4594"/></linearGradient><linearGradient id="Áåçûìÿííûé_ãðàäèåíò_105" x1="-810.75" y1="-548.26" x2="-810.75" y2="-524.49" gradientTransform="matrix(0.64, 0.77, -0.77, 0.64, 317.04, 1727.17)" gradientUnits="userSpaceOnUse"><stop offset="0"/><stop offset="0.2" stop-color="#0a1124"/><stop offset="0.58" stop-color="#1c2d60"/><stop offset="0.85" stop-color="#273e86"/><stop offset="1" stop-color="#2b4594"/></linearGradient><linearGradient id="Áåçûìÿííûé_ãðàäèåíò_105-2" x1="296.9" y1="776.08" x2="296.9" y2="802.24" gradientTransform="matrix(1, 0, 0, 1, 0, 0)" xlink:href="#Áåçûìÿííûé_ãðàäèåíò_105"/><linearGradient id="Áåçûìÿííûé_ãðàäèåíò_74" x1="294.68" y1="497.14" x2="209.09" y2="497.14" gradientUnits="userSpaceOnUse"><stop offset="0" stop-color="#fff"/><stop offset="0.17" stop-color="#ebf1ff"/><stop offset="0.53" stop-color="#c6d7ff"/><stop offset="0.82" stop-color="#afc7ff"/><stop offset="1" stop-color="#a7c1ff"/></linearGradient><linearGradient id="Áåçûìÿííûé_ãðàäèåíò_11-2" x1="187.74" y1="439.2" x2="263.35" y2="439.2" gradientTransform="matrix(1, 0, 0, 1, 0, 0)" xlink:href="#Áåçûìÿííûé_ãðàäèåíò_11"/><linearGradient id="linear-gradient-2" x1="661.87" y1="413.91" x2="661.87" y2="363.32" gradientTransform="matrix(1, 0, -0.28, 1, 216.55, 0)" gradientUnits="userSpaceOnUse"><stop offset="0" stop-color="#d54b07"/><stop offset="0.32" stop-color="#e16713"/><stop offset="1" stop-color="#ffac31"/></linearGradient><linearGradient id="Áåçûìÿííûé_ãðàäèåíò_105-3" x1="62.43" y1="772.18" x2="131.78" y2="772.18" gradientTransform="matrix(-1, 0, 0, 1, 638.9, 0)" xlink:href="#Áåçûìÿííûé_ãðàäèåíò_105"/><linearGradient id="Áåçûìÿííûé_ãðàäèåíò_6" x1="78.93" y1="639.61" x2="124.24" y2="639.61" gradientTransform="matrix(-1, 0, 0, 1, 638.9, 0)" gradientUnits="userSpaceOnUse"><stop offset="0" stop-color="#2c49a2"/><stop offset="0.06" stop-color="#2b479c"/><stop offset="0.46" stop-color="#273c7a"/><stop offset="0.79" stop-color="#253565"/><stop offset="1" stop-color="#24325d"/></linearGradient><linearGradient id="Áåçûìÿííûé_ãðàäèåíò_105-4" x1="126.82" y1="785.49" x2="196.17" y2="785.49" gradientTransform="matrix(-1, 0, 0, 1, 638.9, 0)" xlink:href="#Áåçûìÿííûé_ãðàäèåíò_105"/><linearGradient id="Áåçûìÿííûé_ãðàäèåíò_18-3" x1="110.48" y1="293.36" x2="110.48" y2="359.27" gradientTransform="matrix(-1, 0, 0, 1, 638.9, 0)" xlink:href="#Áåçûìÿííûé_ãðàäèåíò_18"/><linearGradient id="Áåçûìÿííûé_ãðàäèåíò_5" x1="108.65" y1="533.61" x2="108.65" y2="374.04" gradientTransform="matrix(-1, 0, 0, 1, 638.9, 0)" gradientUnits="userSpaceOnUse"><stop offset="0" stop-color="#ff5f18"/><stop offset="0.15" stop-color="#ff701d"/><stop offset="0.51" stop-color="#ff9028"/><stop offset="0.8" stop-color="#ffa52f"/><stop offset="1" stop-color="#ffac31"/></linearGradient><linearGradient id="Áåçûìÿííûé_ãðàäèåíò_91" x1="224.74" y1="229.03" x2="224.74" y2="184.13" gradientTransform="matrix(1, 0, -0.14, 1, 81.54, 0)" gradientUnits="userSpaceOnUse"><stop offset="0" stop-color="#ff5f18"/><stop offset="0.48" stop-color="#ff8625"/><stop offset="1" stop-color="#ffac31"/></linearGradient><linearGradient id="linear-gradient-3" x1="613.77" y1="205.98" x2="640.35" y2="205.98" gradientTransform="matrix(1, 0, 0, 1, 0, 0)" xlink:href="#linear-gradient-2"/><linearGradient id="linear-gradient-4" x1="601.3" y1="205.98" x2="652.82" y2="205.98" gradientTransform="matrix(1, 0, 0, 1, 0, 0)" xlink:href="#linear-gradient-2"/></defs><g id="Layer_2" data-name="Layer 2"><g id="Layer_2-2" data-name="Layer 2"><path class="cls-3" d="M330.37,679.09c-104-6.76-319.55,20-330.23-263.23C-6.4,242.16,212.26,151.08,263.25,123.62S385.93-27.48,568.1,5.57C730.25,35,754,140.52,796,317.11c25.5,107.09,173.11,118.65,162.38,235.7C948.4,661.71,775.8,708.07,330.37,679.09Z"/><path class="cls-4" d="M376.93,669.16H80.07a19.45,19.45,0,0,1-19.51-19.87l2.1-117.83a20.3,20.3,0,0,1,20.22-19.87H379.74a19.44,19.44,0,0,1,19.51,19.87l-2.1,117.83A20.3,20.3,0,0,1,376.93,669.16Z"/><path class="cls-5" d="M132.15,539.28a23.2,23.2,0,0,0-17.38-6.35,24.14,24.14,0,0,0-22.68,24.94,23.1,23.1,0,0,0,5.17,13.76Z"/><path class="cls-5" d="M139.31,555.17a23.17,23.17,0,0,0-4.11-12.34l-34.63,32.11a23.18,23.18,0,0,0,16.06,5.17A24.13,24.13,0,0,0,139.31,555.17Z"/><path class="cls-6" d="M130.22,537.76a22.56,22.56,0,0,0-16.91-6.18,23.49,23.49,0,0,0-22.07,24.27,22.47,22.47,0,0,0,5,13.38Z"/><path class="cls-6" d="M137.18,553.22a22.44,22.44,0,0,0-4-12L99.49,572.45a22.58,22.58,0,0,0,15.63,5A23.49,23.49,0,0,0,137.18,553.22Z"/><path class="cls-5" d="M130.92,608.33A23.15,23.15,0,0,0,113.54,602a24.13,24.13,0,0,0-22.68,24.94A23,23,0,0,0,96,640.68Z"/><path class="cls-5" d="M138.08,624.22A23.11,23.11,0,0,0,134,611.89L99.34,644a23.17,23.17,0,0,0,16.06,5.17A24.14,24.14,0,0,0,138.08,624.22Z"/><path class="cls-6" d="M129,606.81a22.57,22.57,0,0,0-16.92-6.18A23.49,23.49,0,0,0,90,624.9a22.5,22.5,0,0,0,5,13.38Z"/><path class="cls-6" d="M136,622.27a22.46,22.46,0,0,0-4-12L98.26,641.5a22.55,22.55,0,0,0,15.62,5A23.48,23.48,0,0,0,136,622.27Z"/><path class="cls-5" d="M209,539.28a23.22,23.22,0,0,0-17.39-6.35,24.15,24.15,0,0,0-22.68,24.94,23.11,23.11,0,0,0,5.18,13.76Z"/><path class="cls-5" d="M216.15,555.17A23.1,23.1,0,0,0,212,542.83l-34.62,32.11a23.14,23.14,0,0,0,16.05,5.17A24.14,24.14,0,0,0,216.15,555.17Z"/><path class="cls-6" d="M207.05,537.76a22.55,22.55,0,0,0-16.91-6.18,23.49,23.49,0,0,0-22.07,24.27,22.47,22.47,0,0,0,5,13.38Z"/><path class="cls-6" d="M214,553.22a22.53,22.53,0,0,0-4-12l-33.68,31.24a22.55,22.55,0,0,0,15.62,5A23.49,23.49,0,0,0,214,553.22Z"/><path class="cls-5" d="M207.75,608.33A23.14,23.14,0,0,0,190.37,602a24.14,24.14,0,0,0-22.68,24.94,23.11,23.11,0,0,0,5.18,13.75Z"/><path class="cls-5" d="M214.92,624.22a23.21,23.21,0,0,0-4.12-12.33L176.17,644a23.18,23.18,0,0,0,16.06,5.17A24.15,24.15,0,0,0,214.92,624.22Z"/><path class="cls-6" d="M205.82,606.81a22.56,22.56,0,0,0-16.91-6.18,23.49,23.49,0,0,0-22.07,24.27,22.44,22.44,0,0,0,5,13.38Z"/><path class="cls-6" d="M212.78,622.27a22.38,22.38,0,0,0-4-12L175.1,641.5a22.54,22.54,0,0,0,15.62,5A23.48,23.48,0,0,0,212.78,622.27Z"/><path class="cls-5" d="M285.82,539.28a23.2,23.2,0,0,0-17.38-6.35,24.14,24.14,0,0,0-22.68,24.94,23,23,0,0,0,5.17,13.76Z"/><path class="cls-5" d="M293,555.17a23.17,23.17,0,0,0-4.11-12.34l-34.63,32.11a23.17,23.17,0,0,0,16.06,5.17A24.14,24.14,0,0,0,293,555.17Z"/><path class="cls-6" d="M283.88,537.76A22.54,22.54,0,0,0,267,531.58a23.49,23.49,0,0,0-22.06,24.27,22.52,22.52,0,0,0,5,13.38Z"/><path class="cls-6" d="M290.85,553.22a22.53,22.53,0,0,0-4-12l-33.69,31.24a22.55,22.55,0,0,0,15.62,5A23.49,23.49,0,0,0,290.85,553.22Z"/><path class="cls-5" d="M284.59,608.33A23.17,23.17,0,0,0,267.21,602a24.15,24.15,0,0,0-22.69,24.94,23.11,23.11,0,0,0,5.18,13.75Z"/><path class="cls-5" d="M291.75,624.22a23,23,0,0,0-4.12-12.33L253,644a23.15,23.15,0,0,0,16.06,5.17A24.14,24.14,0,0,0,291.75,624.22Z"/><path class="cls-6" d="M282.65,606.81a22.54,22.54,0,0,0-16.91-6.18,23.5,23.5,0,0,0-22.07,24.27,22.57,22.57,0,0,0,5,13.38Z"/><path class="cls-6" d="M289.62,622.27a22.55,22.55,0,0,0-4-12L251.93,641.5a22.55,22.55,0,0,0,15.62,5A23.48,23.48,0,0,0,289.62,622.27Z"/><path class="cls-5" d="M362.65,539.28a23.18,23.18,0,0,0-17.38-6.35,24.15,24.15,0,0,0-22.68,24.94,23.11,23.11,0,0,0,5.18,13.76Z"/><path class="cls-5" d="M369.82,555.17a23.27,23.27,0,0,0-4.12-12.34l-34.63,32.11a23.18,23.18,0,0,0,16.06,5.17A24.15,24.15,0,0,0,369.82,555.17Z"/><path class="cls-6" d="M360.72,537.76a22.56,22.56,0,0,0-16.91-6.18,23.49,23.49,0,0,0-22.07,24.27,22.47,22.47,0,0,0,5,13.38Z"/><path class="cls-6" d="M367.68,553.22a22.44,22.44,0,0,0-4-12L330,572.45a22.54,22.54,0,0,0,15.62,5A23.49,23.49,0,0,0,367.68,553.22Z"/><path class="cls-5" d="M361.42,608.33A23.15,23.15,0,0,0,344,602a24.13,24.13,0,0,0-22.68,24.94,23.1,23.1,0,0,0,5.17,13.75Z"/><path class="cls-5" d="M368.58,624.22a23.11,23.11,0,0,0-4.11-12.33L329.84,644a23.18,23.18,0,0,0,16.06,5.17A24.13,24.13,0,0,0,368.58,624.22Z"/><path class="cls-6" d="M359.49,606.81a22.56,22.56,0,0,0-16.91-6.18,23.49,23.49,0,0,0-22.07,24.27,22.44,22.44,0,0,0,5,13.38Z"/><path class="cls-6" d="M366.45,622.27a22.38,22.38,0,0,0-4-12L328.76,641.5a22.58,22.58,0,0,0,15.63,5A23.48,23.48,0,0,0,366.45,622.27Z"/><path class="cls-7" d="M375.39,594.21H84.29a3.77,3.77,0,0,1-3.77-3.84h0a3.93,3.93,0,0,1,3.91-3.83H375.52a3.76,3.76,0,0,1,3.77,3.83h0A3.93,3.93,0,0,1,375.39,594.21Z"/><ellipse class="cls-8" cx="380.06" cy="709.21" rx="212.91" ry="29.72"/><ellipse class="cls-9" cx="380.06" cy="709.21" rx="202.95" ry="28.33"/><ellipse class="cls-10" cx="380.06" cy="709.21" rx="192.98" ry="26.94"/><ellipse class="cls-11" cx="380.06" cy="709.21" rx="183.02" ry="25.55"/><ellipse class="cls-12" cx="380.06" cy="709.21" rx="173.05" ry="24.16"/><ellipse class="cls-13" cx="380.06" cy="709.21" rx="163.08" ry="22.76"/><ellipse class="cls-14" cx="380.06" cy="709.21" rx="153.12" ry="21.37"/><ellipse class="cls-15" cx="380.06" cy="709.21" rx="143.15" ry="19.98"/><ellipse class="cls-16" cx="380.06" cy="709.21" rx="133.19" ry="18.59"/><ellipse class="cls-17" cx="380.06" cy="709.21" rx="123.22" ry="17.2"/><ellipse class="cls-18" cx="380.06" cy="709.21" rx="113.25" ry="15.81"/><ellipse class="cls-19" cx="380.06" cy="709.21" rx="103.29" ry="14.42"/><ellipse class="cls-20" cx="380.06" cy="709.21" rx="93.32" ry="13.03"/><ellipse class="cls-21" cx="380.06" cy="709.21" rx="83.36" ry="11.64"/><ellipse class="cls-22" cx="380.06" cy="709.21" rx="73.39" ry="10.24"/><ellipse class="cls-23" cx="380.06" cy="709.21" rx="63.43" ry="8.85"/><path class="cls-24" d="M433.51,709.21c0,4.12-23.93,7.46-53.45,7.46s-53.46-3.34-53.46-7.46,23.93-7.46,53.46-7.46S433.51,705.09,433.51,709.21Z"/><path class="cls-25" d="M423.55,709.21c0,3.35-19.47,6.07-43.49,6.07s-43.5-2.72-43.5-6.07,19.47-6.07,43.5-6.07S423.55,705.86,423.55,709.21Z"/><path class="cls-26" d="M413.58,709.21c0,2.59-15,4.68-33.52,4.68s-33.53-2.09-33.53-4.68,15-4.68,33.53-4.68S413.58,706.63,413.58,709.21Z"/><path class="cls-27" d="M630.74,697.16l-362,1.12c-16.2.05-27.52-13-25.3-29.23l69.18-503.28c2.22-16.19,17.16-29.36,33.35-29.41l362-1.11c16.19-.05,27.52,13,25.3,29.22L664.1,667.75C661.87,683.94,646.94,697.11,630.74,697.16Z"/><path class="cls-4" d="M616.53,677.29l-362,1.12c-16.19.05-27.52-13-25.3-29.23L298.37,145.9c2.23-16.19,17.16-29.36,33.36-29.41l362-1.12c16.2-.05,27.52,13,25.3,29.23L649.88,647.88C647.66,664.07,632.72,677.24,616.53,677.29Z"/><polygon class="cls-6" points="616.71 645.56 263.03 646.66 330.39 156.64 684.06 155.55 616.71 645.56"/><path class="cls-28" d="M584.89,625.73H511.81a9.57,9.57,0,0,1-9.7-11.28l2.28-16.22A13.41,13.41,0,0,1,517.26,587h73.09A9.57,9.57,0,0,1,600,598.23l-2.28,16.22A13.41,13.41,0,0,1,584.89,625.73Z"/><path class="cls-28" d="M316,625.73H286.19a6.58,6.58,0,0,1-6.67-7.76l3.26-23.26a9.25,9.25,0,0,1,8.86-7.76h29.78a6.58,6.58,0,0,1,6.67,7.76L324.83,618A9.24,9.24,0,0,1,316,625.73Z"/><path class="cls-27" d="M577.58,115.73l-26.23.08c2.64-21.1-12.19-38.08-33.36-38S477.29,95,474.14,116.05l-26.24.08c-14,.05-27,11.47-28.93,25.51l-2.73,19.85c-1.93,14,7.89,25.39,21.94,25.35l129.69-.4c14-.05,27-11.47,28.93-25.51l2.73-19.85C601.46,127,591.63,115.69,577.58,115.73Zm-67.07,16.48c-9,0-15.29-7.23-14.05-16.23S506,99.68,515,99.65s15.29,7.24,14,16.23S519.5,132.19,510.51,132.21Z"/><path class="cls-29" d="M596.1,287H430.64a5.2,5.2,0,0,1-5.26-6h0a7,7,0,0,1,6.73-6H597.57a5.2,5.2,0,0,1,5.27,6h0A7,7,0,0,1,596.1,287Z"/><path class="cls-29" d="M576.66,261.15H433.81a5.2,5.2,0,0,1-5.26-6h0a7,7,0,0,1,6.73-6H578.14a5.2,5.2,0,0,1,5.26,6h0A7,7,0,0,1,576.66,261.15Z"/><path class="cls-29" d="M547.14,236.34H436.85a5.2,5.2,0,0,1-5.26-6h0a7,7,0,0,1,6.74-6H548.61a5.2,5.2,0,0,1,5.27,6h0A7,7,0,0,1,547.14,236.34Z"/><path class="cls-30" d="M387.51,287H342A9.79,9.79,0,0,1,332,275.68l4.91-40a13.15,13.15,0,0,1,12.7-11.31h45.55a9.8,9.8,0,0,1,9.93,11.31l-4.91,40A13.17,13.17,0,0,1,387.51,287Z"/><path class="cls-29" d="M576,315.29H426a3,3,0,0,1-3.08-3.52h0a4.09,4.09,0,0,1,3.95-3.51h150a3,3,0,0,1,3.08,3.51h0A4.09,4.09,0,0,1,576,315.29Z"/><path class="cls-29" d="M512.83,328.46H424.39a3,3,0,0,1-3.08-3.52h0a4.08,4.08,0,0,1,3.94-3.51h88.44a3,3,0,0,1,3.08,3.51h0A4.09,4.09,0,0,1,512.83,328.46Z"/><g class="cls-31"><path class="cls-4" d="M478.41,358H420.76a3,3,0,0,1-3.08-3.51h0a4.08,4.08,0,0,1,3.94-3.51h57.65a3.05,3.05,0,0,1,3.09,3.51h0A4.09,4.09,0,0,1,478.41,358Z"/><path class="cls-4" d="M507.58,371.18H419.15a3.05,3.05,0,0,1-3.09-3.51h0a4.09,4.09,0,0,1,3.95-3.51h88.44a3,3,0,0,1,3.08,3.51h0A4.08,4.08,0,0,1,507.58,371.18Z"/></g><path class="cls-4" d="M370,333.75H349.45a5.71,5.71,0,0,1-4.35-1.91,5.79,5.79,0,0,1-1.37-4.6L346,309.17a7.23,7.23,0,0,1,7-6.2h20.56a5.65,5.65,0,0,1,5.72,6.51L377,327.54A7.24,7.24,0,0,1,370,333.75Zm-17.1-28.28a4.67,4.67,0,0,0-4.49,4l-2.22,18.06a3.35,3.35,0,0,0,.76,2.65,3.27,3.27,0,0,0,2.48,1.06H370a4.68,4.68,0,0,0,4.49-4l2.21-18.07a3.17,3.17,0,0,0-3.24-3.7Z"/><path class="cls-32" d="M361.69,326.54l-10.82-13.09a2.58,2.58,0,0,1,.53-3.57A2.51,2.51,0,0,1,355,310l7,8.43,14.43-18.81a2.67,2.67,0,0,1,3.58-.75,2.41,2.41,0,0,1,.33,3.49Z"/><path class="cls-27" d="M363.7,277.86l-17.48-21.15a4.19,4.19,0,0,1,.86-5.77,4,4,0,0,1,5.75.15l11.25,13.61,23.31-30.39a4.34,4.34,0,0,1,5.79-1.22,3.9,3.9,0,0,1,.53,5.64Z"/><path class="cls-4" d="M363.79,376.46H344.05a5.57,5.57,0,0,1-4.25-1.86,5.64,5.64,0,0,1-1.34-4.5l2.21-18a7.06,7.06,0,0,1,6.81-6.06h19.74a5.57,5.57,0,0,1,4.25,1.86,5.64,5.64,0,0,1,1.34,4.5l-2.2,18A7.08,7.08,0,0,1,363.79,376.46Zm-16.31-28a4.56,4.56,0,0,0-4.39,3.92l-2.2,18a3.2,3.2,0,0,0,.74,2.58,3.16,3.16,0,0,0,2.42,1h19.74a4.55,4.55,0,0,0,4.39-3.92l2.21-18a3.24,3.24,0,0,0-.75-2.58,3.16,3.16,0,0,0-2.42-1Z"/><path class="cls-32" d="M355.78,368.55,345,355.47a2.58,2.58,0,0,1,.53-3.57,2.49,2.49,0,0,1,3.55.09l7,8.42,14.42-18.8a2.69,2.69,0,0,1,3.58-.76,2.41,2.41,0,0,1,.33,3.49Z"/><path class="cls-29" d="M600.71,464.55H408a5.2,5.2,0,0,1-5.27-6h0a7,7,0,0,1,6.74-6h192.7a5.2,5.2,0,0,1,5.27,6h0A7,7,0,0,1,600.71,464.55Z"/><path class="cls-29" d="M569.46,438.71H410.65a4.74,4.74,0,0,1-4.8-5.47l.13-1.06a6.36,6.36,0,0,1,6.14-5.47H570.93a4.74,4.74,0,0,1,4.8,5.47l-.13,1.06A6.35,6.35,0,0,1,569.46,438.71Z"/><path class="cls-29" d="M629.33,413.9H414.22a5.19,5.19,0,0,1-5.26-6h0a7,7,0,0,1,6.74-6H630.8a5.2,5.2,0,0,1,5.26,6h0A7,7,0,0,1,629.33,413.9Z"/><path class="cls-33" d="M364.88,464.55H319.32a9.79,9.79,0,0,1-9.92-11.31l4.91-40A13.16,13.16,0,0,1,327,401.9h45.55a9.81,9.81,0,0,1,9.93,11.31l-4.92,40A13.15,13.15,0,0,1,364.88,464.55Z"/><path class="cls-29" d="M478.86,492.85H403.37a3,3,0,0,1-3.08-3.51h0a4.09,4.09,0,0,1,3.95-3.51h75.48a3,3,0,0,1,3.08,3.51h0A4.08,4.08,0,0,1,478.86,492.85Z"/><path class="cls-29" d="M477.49,506h-76a2.82,2.82,0,0,1-2.86-3.26l.06-.5a3.79,3.79,0,0,1,3.66-3.26h76a2.82,2.82,0,0,1,2.86,3.26l-.06.5A3.79,3.79,0,0,1,477.49,506Z"/><path class="cls-29" d="M440,535.58H397.66a2.64,2.64,0,0,1-2.67-3l.12-.95a3.53,3.53,0,0,1,3.41-3h42.33a2.63,2.63,0,0,1,2.67,3l-.12.95A3.53,3.53,0,0,1,440,535.58Z"/><path class="cls-29" d="M526.4,548.75H396.52a3.06,3.06,0,0,1-3.09-3.52h0a4.09,4.09,0,0,1,3.95-3.51H527.26a3.05,3.05,0,0,1,3.09,3.51h0A4.1,4.1,0,0,1,526.4,548.75Z"/><path class="cls-4" d="M347.38,511.31H326.82a5.7,5.7,0,0,1-4.35-1.9,5.8,5.8,0,0,1-1.37-4.6l2.22-18.07a7.23,7.23,0,0,1,7-6.2h20.56a5.67,5.67,0,0,1,5.72,6.5l-2.21,18.07A7.23,7.23,0,0,1,347.38,511.31ZM330.29,483a4.67,4.67,0,0,0-4.49,4l-2.22,18.07a3.33,3.33,0,0,0,.76,2.64,3.24,3.24,0,0,0,2.48,1.06h20.56a4.68,4.68,0,0,0,4.5-4l2.21-18.07a3.26,3.26,0,0,0-.76-2.64,3.22,3.22,0,0,0-2.48-1.07Z"/><path class="cls-32" d="M339.06,504.1,328.24,491a2.58,2.58,0,0,1,.53-3.57,2.51,2.51,0,0,1,3.56.09l7,8.42,14.43-18.8a2.68,2.68,0,0,1,3.58-.76,2.42,2.42,0,0,1,.33,3.49Z"/><path class="cls-4" d="M342.14,554H321.58a5.67,5.67,0,0,1-5.72-6.51l2.22-18.07a7.22,7.22,0,0,1,7-6.2h20.56a5.72,5.72,0,0,1,4.35,1.9,5.79,5.79,0,0,1,1.37,4.61l-2.22,18.07A7.22,7.22,0,0,1,342.14,554Zm-17.09-28.28a4.66,4.66,0,0,0-4.49,4l-2.22,18.07a3.34,3.34,0,0,0,.76,2.64,3.27,3.27,0,0,0,2.48,1.06h20.56a4.66,4.66,0,0,0,4.49-4l2.22-18.07a3.33,3.33,0,0,0-.76-2.64,3.27,3.27,0,0,0-2.48-1.06Z"/><path class="cls-32" d="M333.81,546.83,323,533.74a2.58,2.58,0,0,1,.53-3.57,2.5,2.5,0,0,1,3.56.1l7,8.42,14.42-18.81a2.69,2.69,0,0,1,3.59-.75,2.41,2.41,0,0,1,.32,3.49Z"/><rect class="cls-27" x="175.5" y="405.27" width="36.43" height="54.65" rx="11.64"/><path class="cls-34" d="M191.31,491h4.8a55.28,55.28,0,0,1,55.28,55.28V673.38a21.82,21.82,0,0,1-21.82,21.82H157.85A21.82,21.82,0,0,1,136,673.38V546.31A55.28,55.28,0,0,1,191.31,491Z"/><rect class="cls-35" x="157.28" y="448.53" width="72.86" height="54.65" rx="8.36"/><rect class="cls-7" x="157.28" y="555" width="72.86" height="22.78" rx="5.81"/><rect class="cls-7" x="157.28" y="585.09" width="72.86" height="77.23" rx="10.7"/><ellipse class="cls-8" cx="263.03" cy="797.32" rx="183.95" ry="25.68"/><ellipse class="cls-9" cx="263.03" cy="797.32" rx="175.34" ry="24.48"/><ellipse class="cls-10" cx="263.03" cy="797.32" rx="166.73" ry="23.27"/><ellipse class="cls-11" cx="263.03" cy="797.32" rx="158.12" ry="22.07"/><ellipse class="cls-12" cx="263.03" cy="797.32" rx="149.51" ry="20.87"/><ellipse class="cls-13" cx="263.03" cy="797.32" rx="140.9" ry="19.67"/><ellipse class="cls-14" cx="263.03" cy="797.32" rx="132.29" ry="18.47"/><ellipse class="cls-15" cx="263.03" cy="797.32" rx="123.68" ry="17.26"/><ellipse class="cls-16" cx="263.03" cy="797.32" rx="115.07" ry="16.06"/><ellipse class="cls-17" cx="263.03" cy="797.32" rx="106.46" ry="14.86"/><ellipse class="cls-18" cx="263.03" cy="797.32" rx="97.85" ry="13.66"/><ellipse class="cls-19" cx="263.03" cy="797.32" rx="89.24" ry="12.46"/><ellipse class="cls-20" cx="263.03" cy="797.32" rx="80.63" ry="11.25"/><ellipse class="cls-21" cx="263.03" cy="797.32" rx="72.02" ry="10.05"/><ellipse class="cls-22" cx="263.03" cy="797.32" rx="63.41" ry="8.85"/><ellipse class="cls-23" cx="263.03" cy="797.32" rx="54.8" ry="7.65"/><path class="cls-24" d="M309.22,797.32c0,3.56-20.68,6.44-46.19,6.44s-46.18-2.88-46.18-6.44,20.68-6.45,46.18-6.45S309.22,793.76,309.22,797.32Z"/><path class="cls-25" d="M300.61,797.32c0,2.89-16.82,5.24-37.58,5.24s-37.57-2.35-37.57-5.24,16.82-5.25,37.57-5.25S300.61,794.42,300.61,797.32Z"/><path class="cls-26" d="M292,797.32c0,2.23-13,4-29,4s-29-1.81-29-4,13-4.05,29-4.05S292,795.08,292,797.32Z"/><path class="cls-36" d="M416.57,388.25l4.4-3.9a14.38,14.38,0,0,1,14.25-5.23l5.74,1.19a17,17,0,0,0,7.5-.14l10.3-2.52a1,1,0,0,1,1.17,1.07L457,385.85a9,9,0,0,1-7.66,5.61l-11.64.9a9.72,9.72,0,0,0-3.63,1,14.9,14.9,0,0,1-2.8,1.09l-6.9,1.88-.38,1.27Z"/><path class="cls-37" d="M435.24,388.41c4.77-1,11.08,1.33,16.59,0,1.84-.44,5-6.3,6.15-9.17a3,3,0,0,1,1.22-1.58.94.94,0,0,1,.73,1.07L457,385.85a9,9,0,0,1-7.66,5.61l-11.64.9a9.72,9.72,0,0,0-3.63,1,14.9,14.9,0,0,1-2.8,1.09l-6.9,1.88-.38,1.27-2.12-2.65C423.29,394.05,430.9,389.27,435.24,388.41Z"/><path class="cls-38" d="M269,364.89s8.42-4.37,17.45-.68S351.24,414,351.24,414l67.95-28L426,396s-55.15,49.87-72.65,45.73-63.62-36.13-63.62-36.13Z"/><path class="cls-7" d="M297.33,399.52c5.86,3.79,39.11,34.36,58.41,34.74,8.6.17,64.89-38.72,68.54-40.78L426,396s-55.15,49.87-72.65,45.73c-14-3.31-46.34-24.46-58.69-32.78C294.15,403,294.41,397.63,297.33,399.52Z"/><path class="cls-39" d="M296.27,410c-6.36-18.3-14.3-35.91-23.33-46.51a22.63,22.63,0,0,1,2.75-.55l1.72.42c1.85.29,4.74,1.29,8.7,4.23,7.58,5.6,11.06,8.33,11.06,8.33l-3.33,4.89,8.48,4.6s5.61,17.82,7,31.9c0,.4.07.82.11,1.27C304.29,415.33,299.72,412.32,296.27,410Z"/><path class="cls-6" d="M295.34,376.65l-3.11,4.8,7.91,4.52s5.22,17.51,6.49,31.34c1,10.59,2.42,40.36,3,53.74h-.48c-2.55-20.2-11.74-80.85-32.13-104.1l-.13-2.63c1.73.28,4.41,1.27,8.1,4.15C292.09,374,295.34,376.65,295.34,376.65Z"/><path class="cls-40" d="M239.25,303.16s17.69-5.27,2.9-19.19c-4.91-4.63-17.2-4.15-22.29,6.87s-.18,20-.94,26.25-3.95,4.33-5.64,12.42,1.88,6.78,1.69,14.5-4.87,9.41-2.15,20.51,8.17,21.27,16.83,20.89,42-10.35,32.19-23.9-13-11.86-16.75-17.13-.38-13-5.27-18.63S227.77,301.28,239.25,303.16Z"/><path class="cls-35" d="M246.17,306.6l5.15-7.88a5.37,5.37,0,0,0-1.56-7.43h0a5.37,5.37,0,0,0-7.43,1.56l-5.14,7.88a5.37,5.37,0,0,0,1.56,7.43h0A5.36,5.36,0,0,0,246.17,306.6Z"/><path class="cls-41" d="M308.47,446.87l4,50.19a385.85,385.85,0,0,0,11.93,69.07l14.29,53.26-45.41,3-9.43-172.54,16.89-32Z"/><path class="cls-36" d="M276.34,352.21l1.07,22.17-24.8-.64,1.63-14.16a78.46,78.46,0,0,0,.14-16.43l-.32-3.36Z"/><path class="cls-37" d="M276.68,359.28c-7.09-1.19-15.23-5.62-22-11.7-.06-1.48-.15-3-.3-4.43l-.32-3.36,22.28,12.42Z"/><path class="cls-36" d="M297.31,315.35c-.66,16.65-5.62,40.33-16.74,39.63-14.39-.91-34.65-17.1-38.12-33.39-5.08-23.9,16.31-33.64,27.43-33.2S298,298.71,297.31,315.35Z"/><path class="cls-42" d="M269.88,288.39c11.13.44,28.09,10.32,27.43,27,0,.15,0,.31,0,.46a19,19,0,0,0-5.06-7c-12.82-10.09-23.45-.28-30.27,11.93-2.53-3.85-6.47-5.72-8.82-4.19s-2.23,5.93.3,9.81a12,12,0,0,0,4.07,3.92,70.21,70.21,0,0,0-3.27,10.87c-5.8-5.72-10.32-12.63-11.79-19.56C237.37,297.69,258.76,288,269.88,288.39Z"/><path class="cls-35" d="M303.6,416.69c-.79-11.49-17.86-42.05-17.86-42.05l-8.81-10.13s.41,8-2.69,9.09c-6.57,2.26-18.07-2.89-20.4-9.45-1.67-4.71-10.17,24.42-10.17,24.42l1,82.67h10l1.11,38s40.32,4.16,41.62-4.37C303.6,463.6,303.6,416.69,303.6,416.69Z"/><path class="cls-35" d="M297.58,503.22c23.08,60,20.68,107.38,19.06,122.88-.65,6.29-5.45,26.49-105.55,126.16-2.32,2.31-12.25-11.07-12.25-11.07s32.76-51.73,45.69-69.74a260.63,260.63,0,0,1,18.56-22,55.36,55.36,0,0,0,12.69-52.16c-8.24-30-18.47-73.78-12.53-88.12C266.88,500.43,297.58,503.22,297.58,503.22Z"/><g class="cls-43"><path class="cls-44" d="M244.53,671.45c-12,16.67-40.92,62.22-45.16,68.91a1.41,1.41,0,0,0-.22.72h0a1.39,1.39,0,0,0,.29.9l3.33,4.33a0,0,0,0,0,0,0c10.42-16.2,38.73-59.52,52.9-74.34,5.57-5.83,11.37-12.47,16.69-18.81a95.15,95.15,0,0,0,22.27-60.58c.15-24.8-1.9-55.91-12.11-68.34-4.78-5.82-12.42-5.54-21.06-2,0,0,0,0,0,0,.17,19.64,7.84,51.56,14.29,75.05a55.36,55.36,0,0,1-12.69,52.16A260.63,260.63,0,0,0,244.53,671.45Z"/></g><path class="cls-45" d="M202.17,734.89s1.84,5.8,5.48,8.89a24.14,24.14,0,0,0,7.63,4.29,31.72,31.72,0,0,0,.47,16.42c2.53,8.52,9.91,18.5,10.12,19.17.43,1.39-4.1,4.58-4.1,4.58s-33.29-33.5-36.39-39.37S202.17,734.89,202.17,734.89Z"/><path class="cls-35" d="M231.74,506.8s-11.18,21.07-9.73,39.72,27.7,95.11,28.91,101.55-5.83,25.31-1.7,48.88,21.57,86.5,21.57,86.5l16.86-1.61s5.51-93-2.32-139.35c-1.58-9.32,5.89-97.08-9.71-112.19S253,492.3,231.74,506.8Z"/><path class="cls-5" d="M287.65,781.84s5.51-93-2.32-139.35c-1.58-9.32,5.89-97.08-9.71-112.19-10.41-10.08-17-23.64-26.55-27.22a29.81,29.81,0,0,0-7.22,3.72s-11.19,21.07-9.74,39.72S259.82,641.63,261,648.07s-5.83,25.31-1.7,48.88c3.84,21.88,19.13,77.67,21.3,85.56Z"/><path class="cls-46" d="M269,777.89s6.2,2.53,11.38,1.62a26.33,26.33,0,0,0,9-3.43,35.08,35.08,0,0,0,14.22,11.17c9,3.86,22.62,4.65,23.35,4.94,1.48.61,1,6.7,1,6.7s-51.77,4.56-58.92,3S269,777.89,269,777.89Z"/><path class="cls-47" d="M278.78,443.39l-5.46-43.67-19.1-38.19a7.86,7.86,0,0,1-3.49,4c-1.82,1.09-4.71,1.68-8.28,1.79a16,16,0,0,0-14.68,10.54c-1.13,3.57-2.82,24.09,0,32.37s5.83,16.75,7.9,34.82a94.08,94.08,0,0,1,.15,17.82c-.83,7.72-5.17,24.91-8.39,34.24-4.61,13.33-12.13,29.65-15.46,54-3.5,25.69-2.83,81.61-2.83,81.61l85.54-4.68L276.56,471.24l-.62-1.35Z"/><path class="cls-6" d="M254.1,361.73l.12-.2a44.54,44.54,0,0,1,8.46,7.42,118.78,118.78,0,0,1,9.23,12.7L269,390l9.36,3.81s4.52,11,2.82,33.46c-1.1,14.59-3.27,32.94-4.66,44h-1.75c1.19-13.53,2.36-38.52-2.62-58.25-7.2-28.52-21.46-47.43-21.46-47.43A15.23,15.23,0,0,0,254.1,361.73Z"/><path class="cls-39" d="M242.45,367.35q1.35,0,2.55-.18h0s16.5,6.52,6.7,32c-4.53,11.78-15,32.2-15,32.2a100.14,100.14,0,0,1,2.67,21,115.5,115.5,0,0,1-1.57,18.82h-2.87c1-7.4,1.78-17.09.74-26.16-2.07-18.07-5.08-26.54-7.9-34.82s-1.13-28.8,0-32.37A16,16,0,0,1,242.45,367.35Z"/><path class="cls-6" d="M211.46,466.45s5.67-10,12.34-21.82a78.14,78.14,0,0,1,4.35-6.6c2.9-3.57,18.2-31.08,23.52-49.49,2.24-7.77-.17-15.06-5.94-18.37s-13.3-2-16.85,2.65c-8.7,11.51-25.55,48.85-30.9,61.77-4.34,10.46-10.19,36.65-10.19,36.65a9.3,9.3,0,0,0,.56,3.53c2.43,5.65,16.1,14.25,29.1,19.45,19.24,7.68,44.87,15.87,44.87,15.87s0-8.52,7.19-11.91Z"/><path class="cls-48" d="M188.35,474.77c2.07,7.72,16.1,14.25,29.1,19.45,19.24,7.68,44.87,15.87,44.87,15.87a15.84,15.84,0,0,1,1-5c-7.79-2.74-61.89-22-67.5-30.71a7.7,7.7,0,0,1-1.09-3.82c2.67-20.5,22.9-65.19,31.46-84.06,9-19.88,19.51-16.33,19.51-16.33a14,14,0,0,0-3.39-1.39,14.83,14.83,0,0,0-2.35-.41c-.4,0-.79-.05-1.19-.05a13.12,13.12,0,0,0-7.54,2.23,10.69,10.69,0,0,0-2.38,2.27c-.54.72-1.12,1.54-1.72,2.45s-1.23,1.91-1.88,3c-.33.54-.66,1.09-1,1.67-1,1.72-2.06,3.6-3.15,5.59q-1.08,2-2.19,4.13T216.69,394c-1.13,2.23-2.27,4.52-3.39,6.84-.76,1.54-1.5,3.09-2.24,4.64s-1.47,3.09-2.19,4.62c-1.07,2.29-2.11,4.55-3.11,6.73-3.32,7.28-6.11,13.7-7.78,17.74-3.19,7.67-6.83,19.09-9.55,28.09C187.62,467.15,187.44,471.35,188.35,474.77Z"/><path class="cls-49" d="M259.13,518.1A3,3,0,0,1,257,513c4.95-5,8.23-17.68,9.08-22.17a3,3,0,1,1,5.91,1.12c-.14.73-3.47,18-10.73,25.31A3,3,0,0,1,259.13,518.1Z"/><rect class="cls-6" x="76.85" y="708.36" width="21.54" height="57.18" rx="9.04" transform="translate(-652.05 797.44) rotate(-87.89)"/><path class="cls-4" d="M106.72,749.38h-.38L68.05,748a10.39,10.39,0,0,1-10-10.75l.09-2.67a10.42,10.42,0,0,1,10.76-10L107.2,726a10.4,10.4,0,0,1,10,10.75l-.1,2.67a10.41,10.41,0,0,1-10.37,10Zm-38.19-23a8.52,8.52,0,0,0-8.48,8.17l-.1,2.67a8.5,8.5,0,0,0,8.17,8.8l38.28,1.41a8.52,8.52,0,0,0,8.8-8.17l.1-2.68a8.52,8.52,0,0,0-8.17-8.79l-38.29-1.41Z"/><path class="cls-4" d="M84.08,747.6l7.15.27,15.14.55a9.47,9.47,0,0,0,9.78-9.08l.09-2.67a9.47,9.47,0,0,0-9.08-9.78l-14.86-.54-7.42-.27Z"/><rect class="cls-6" x="32.76" y="712.26" width="22.39" height="59.44" rx="9.4" transform="translate(-669.97 535.15) rotate(-70.45)"/><path class="cls-50" d="M62.25,760.75a10.78,10.78,0,0,1-3.6-.62L21.11,746.8A10.83,10.83,0,0,1,14.55,733l.93-2.62a10.84,10.84,0,0,1,13.79-6.56L66.8,737.17A10.8,10.8,0,0,1,73.36,751h0l-.93,2.62A10.81,10.81,0,0,1,62.25,760.75ZM25.67,725.19a8.9,8.9,0,0,0-8.33,5.87l-.93,2.62A8.86,8.86,0,0,0,21.77,745l37.54,13.32a8.83,8.83,0,0,0,11.26-5.36l.93-2.62h0A8.84,8.84,0,0,0,66.14,739L28.61,725.7A8.79,8.79,0,0,0,25.67,725.19Z"/><path class="cls-50" d="M37.13,751.44l7,2.49L59,759.2a9.84,9.84,0,0,0,12.52-6l.93-2.62a9.84,9.84,0,0,0-6-12.52L51.9,732.92l-7.28-2.58Z"/><rect class="cls-6" x="144.35" y="745.72" width="22.39" height="50.78" rx="8.74" transform="translate(-356.82 1368.01) rotate(-127.95)"/><path class="cls-50" d="M144,792.78a10,10,0,0,1-7.92-3.86l-2.56-3.27a10,10,0,0,1,1.74-14.08l25.66-20A10,10,0,0,1,175,753.29l2.56,3.28a10,10,0,0,1-1.74,14.08l-25.66,20A10,10,0,0,1,144,792.78Zm23.08-41.52a8.17,8.17,0,0,0-5,1.73l-25.66,20A8.21,8.21,0,0,0,135,784.52l2.56,3.28a8.22,8.22,0,0,0,11.52,1.43l25.66-20a8.23,8.23,0,0,0,1.42-11.52l-2.56-3.27A8.16,8.16,0,0,0,167.09,751.26Z"/><path class="cls-50" d="M160.23,781.66l5-3.91,10.61-8.27c3.63-2.84,3.89-8.64.57-12.89l-1.71-2.19c-3.31-4.25-9-5.42-12.63-2.58l-10.41,8.12L146.46,764Z"/><ellipse class="cls-8" cx="640.31" cy="734.89" rx="183.95" ry="25.68"/><ellipse class="cls-9" cx="640.31" cy="734.89" rx="175.34" ry="24.48"/><ellipse class="cls-10" cx="640.31" cy="734.89" rx="166.73" ry="23.27"/><ellipse class="cls-11" cx="640.31" cy="734.89" rx="158.12" ry="22.07"/><ellipse class="cls-12" cx="640.31" cy="734.89" rx="149.51" ry="20.87"/><ellipse class="cls-13" cx="640.31" cy="734.89" rx="140.9" ry="19.67"/><ellipse class="cls-14" cx="640.31" cy="734.89" rx="132.29" ry="18.47"/><ellipse class="cls-15" cx="640.31" cy="734.89" rx="123.68" ry="17.26"/><ellipse class="cls-16" cx="640.31" cy="734.89" rx="115.07" ry="16.06"/><ellipse class="cls-17" cx="640.31" cy="734.89" rx="106.46" ry="14.86"/><ellipse class="cls-18" cx="640.31" cy="734.89" rx="97.85" ry="13.66"/><ellipse class="cls-19" cx="640.31" cy="734.89" rx="89.24" ry="12.46"/><ellipse class="cls-20" cx="640.31" cy="734.89" rx="80.63" ry="11.25"/><ellipse class="cls-21" cx="640.31" cy="734.89" rx="72.02" ry="10.05"/><ellipse class="cls-22" cx="640.31" cy="734.89" rx="63.41" ry="8.85"/><ellipse class="cls-23" cx="640.31" cy="734.89" rx="54.8" ry="7.65"/><path class="cls-24" d="M686.5,734.89c0,3.56-20.68,6.45-46.19,6.45s-46.19-2.89-46.19-6.45,20.68-6.45,46.19-6.45S686.5,731.33,686.5,734.89Z"/><path class="cls-25" d="M677.89,734.89c0,2.9-16.83,5.24-37.58,5.24s-37.58-2.34-37.58-5.24,16.83-5.25,37.58-5.25S677.89,732,677.89,734.89Z"/><path class="cls-26" d="M669.28,734.89c0,2.23-13,4-29,4s-29-1.81-29-4,13-4,29-4S669.28,732.66,669.28,734.89Z"/><path class="cls-4" d="M779.87,721.23H582.23c-8.83,0-14.63-9.32-13-20.82l51.11-350.56c1.67-11.5,10.19-20.82,19-20.82H837.05c8.83,0,14.63,9.32,13,20.82L798.89,700.41C797.21,711.91,788.7,721.23,779.87,721.23Z"/><path class="cls-6" d="M761.55,706.17H563.91c-8.83,0-14.63-9.33-12.95-20.82l51.11-350.56c1.67-11.5,10.19-20.82,19-20.82H818.73c8.83,0,14.63,9.32,12.95,20.82L780.57,685.35C778.89,696.84,770.38,706.17,761.55,706.17Z"/><path class="cls-4" d="M761.55,707.77H563.91A13.44,13.44,0,0,1,553.65,703c-3.74-4.33-5.3-10.85-4.28-17.88l51.11-350.55c1.78-12.24,11-22.2,20.61-22.2H818.73A13.43,13.43,0,0,1,829,317.15c3.74,4.33,5.3,10.84,4.28,17.87L782.16,685.58C780.37,697.82,771.13,707.77,761.55,707.77ZM621.09,315.57c-8.05,0-15.87,8.73-17.43,19.45L552.55,685.58c-.88,6,.44,11.73,3.53,15.3a10.12,10.12,0,0,0,7.83,3.68H761.55c8.05,0,15.87-8.72,17.43-19.45l51.11-350.55c.88-6-.44-11.74-3.53-15.31a10.12,10.12,0,0,0-7.83-3.68Z"/><polygon class="cls-7" points="767.14 667.5 569.59 667.5 616.71 344.28 814.26 344.28 767.14 667.5"/><path class="cls-27" d="M719.85,332.39c-.28,1.89-1.68,3.42-3.13,3.42s-2.4-1.53-2.13-3.42,1.68-3.42,3.13-3.42S720.13,330.5,719.85,332.39Z"/><path class="cls-27" d="M671.94,695.64H656.58c-2.78,0-4.62-3-4.09-6.58h0c.53-3.62,3.23-6.58,6-6.58h15.36c2.78,0,4.62,3,4.1,6.58h0C677.43,692.68,674.72,695.64,671.94,695.64Z"/><path class="cls-49" d="M763.86,654.21l-128.73-1.14a6.32,6.32,0,0,1-6.33-7.51l.39-2.61a8.87,8.87,0,0,1,8.55-7.38l128.73,1.14a6.32,6.32,0,0,1,6.33,7.51l-.39,2.61A8.87,8.87,0,0,1,763.86,654.21Z"/><path class="cls-51" d="M873.71,413.91H657.54c-8.11,0-13.76-6.57-12.62-14.69l3-21.21a17.48,17.48,0,0,1,16.75-14.69H880.82c8.11,0,13.77,6.58,12.63,14.69l-3,21.21A17.48,17.48,0,0,1,873.71,413.91Z"/><path class="cls-35" d="M681,402H661.67l.6-4.29c1.82-1.29,3.46-2.52,4.92-3.67s2.77-2.25,3.9-3.29a23.37,23.37,0,0,0,3.3-3.57,7.31,7.31,0,0,0,1.31-3.16,3.23,3.23,0,0,0-.7-2.82,3.93,3.93,0,0,0-2.92-1,7.32,7.32,0,0,0-1.94.25,18.34,18.34,0,0,0-1.9.63,14.84,14.84,0,0,0-1.65.83l-1,.64H665l.81-5.74a24.39,24.39,0,0,1,8.27-1.64q4.68,0,6.8,2.08t1.59,5.87a11.56,11.56,0,0,1-1.74,4.56,23.42,23.42,0,0,1-4.31,4.8q-1.82,1.58-3.49,2.8c-1.11.82-1.92,1.4-2.42,1.74h11.15Z"/><path class="cls-35" d="M705.19,395.9h-3.55l-.87,6.2h-6.38l.87-6.2H683.69l.69-4.91,13.51-15.26h6.59l-2.17,15.44h3.55Zm-9.26-4.73,1.26-9-7.92,9Z"/><path class="cls-35" d="M725.35,394h-4.14l.92-6.55c.08-.53.13-1.06.16-1.59a3.53,3.53,0,0,0-.07-1.17,1.07,1.07,0,0,0-.53-.64,2.23,2.23,0,0,0-1-.2,3.38,3.38,0,0,0-1,.19,6.32,6.32,0,0,0-1.19.6L717.1,394H713l2.57-18.29h4.12l-.92,6.55a11.38,11.38,0,0,1,2.16-1.34,5,5,0,0,1,2.19-.49,3.32,3.32,0,0,1,2.91,1.28,5.14,5.14,0,0,1,.55,3.7Z"/><path class="cls-52" d="M827.68,387.05H745a3.39,3.39,0,0,1-3.43-4h0a4.76,4.76,0,0,1,4.56-4h82.71a3.39,3.39,0,0,1,3.43,4h0A4.75,4.75,0,0,1,827.68,387.05Z"/><path class="cls-52" d="M868.75,402H742.87a3.39,3.39,0,0,1-3.44-4h0a4.75,4.75,0,0,1,4.56-4H869.88a3.39,3.39,0,0,1,3.43,4h0A4.76,4.76,0,0,1,868.75,402Z"/><path class="cls-5" d="M631.32,477.44h135c8.77,0,15.12,5.34,14.19,11.94l-10.79,76.85c-.93,6.6-8.78,11.94-17.55,11.94H652.78l-40.71,20.21c-1.84.91-4-.29-3.21-1.82L618,578.17h-.81c-8.76,0-15.12-5.34-14.19-11.94l10.79-76.85C614.7,482.78,622.56,477.44,631.32,477.44Z"/><path class="cls-49" d="M625,471.62H760c8.76,0,15.12,5.35,14.19,11.95l-10.79,76.84c-.93,6.6-8.79,12-17.55,12H646.47l-40.71,20.2c-1.85.91-4-.29-3.22-1.82l9.13-18.38h-.81c-8.77,0-15.12-5.35-14.2-12l10.8-76.84C608.38,477,616.24,471.62,625,471.62Z"/><path class="cls-6" d="M618,491.46H761.46a3.83,3.83,0,0,0,3.67-3.22l.15-1.13a2.72,2.72,0,0,0-2.76-3.21H619.08a3.83,3.83,0,0,0-3.67,3.21l-.16,1.13A2.73,2.73,0,0,0,618,491.46Z"/><path class="cls-5" d="M613.46,512.41h79.76a1.9,1.9,0,0,0,1.83-1.61l.08-.57a1.36,1.36,0,0,0-1.38-1.6H614a1.92,1.92,0,0,0-1.83,1.6l-.08.57A1.37,1.37,0,0,0,613.46,512.41Z"/><path class="cls-5" d="M610.41,534.14h79.76a1.91,1.91,0,0,0,1.83-1.61l.08-.56a1.37,1.37,0,0,0-1.38-1.61H610.94a1.9,1.9,0,0,0-1.83,1.61l-.08.56A1.36,1.36,0,0,0,610.41,534.14Z"/><path class="cls-5" d="M609.17,545H724.9a2.25,2.25,0,0,0,2.15-1.9h0a1.6,1.6,0,0,0-1.62-1.89H609.7a2.25,2.25,0,0,0-2.16,1.89h0A1.61,1.61,0,0,0,609.17,545Z"/><path class="cls-5" d="M654.92,523.27h36.77a1.92,1.92,0,0,0,1.84-1.6l.08-.57a1.37,1.37,0,0,0-1.39-1.61H655.45a1.9,1.9,0,0,0-1.83,1.61l-.08.57A1.36,1.36,0,0,0,654.92,523.27Z"/><path class="cls-5" d="M636.91,523.27h12.8a1.92,1.92,0,0,0,1.84-1.6l.08-.57a1.37,1.37,0,0,0-1.39-1.61h-12.8a1.91,1.91,0,0,0-1.83,1.61l-.08.57A1.36,1.36,0,0,0,636.91,523.27Z"/><path class="cls-5" d="M611.94,523.27h17.68a1.9,1.9,0,0,0,1.83-1.6l.08-.57a1.36,1.36,0,0,0-1.38-1.61H612.47a1.92,1.92,0,0,0-1.84,1.61l-.07.57A1.36,1.36,0,0,0,611.94,523.27Z"/><polygon class="cls-53" points="723.09 530.36 735.06 530.36 739.92 499.61 727.95 499.61 723.09 530.36"/><polygon class="cls-53" points="717.08 509 715.18 520.97 745.93 520.97 747.82 509 717.08 509"/><ellipse class="cls-8" cx="669.62" cy="835.38" rx="176.39" ry="24.62"/><ellipse class="cls-9" cx="669.62" cy="835.38" rx="168.13" ry="23.47"/><ellipse class="cls-10" cx="669.62" cy="835.38" rx="159.88" ry="22.32"/><ellipse class="cls-11" cx="669.62" cy="835.38" rx="151.62" ry="21.16"/><ellipse class="cls-12" cx="669.62" cy="835.38" rx="143.36" ry="20.01"/><ellipse class="cls-13" cx="669.62" cy="835.38" rx="135.11" ry="18.86"/><ellipse class="cls-14" cx="669.62" cy="835.38" rx="126.85" ry="17.71"/><ellipse class="cls-15" cx="669.62" cy="835.38" rx="118.59" ry="16.55"/><ellipse class="cls-16" cx="669.62" cy="835.38" rx="110.34" ry="15.4"/><ellipse class="cls-17" cx="669.62" cy="835.38" rx="102.08" ry="14.25"/><ellipse class="cls-18" cx="669.62" cy="835.38" rx="93.83" ry="13.1"/><ellipse class="cls-19" cx="669.62" cy="835.38" rx="85.57" ry="11.94"/><ellipse class="cls-20" cx="669.62" cy="835.38" rx="77.31" ry="10.79"/><ellipse class="cls-21" cx="669.62" cy="835.38" rx="69.06" ry="9.64"/><ellipse class="cls-22" cx="669.62" cy="835.38" rx="60.8" ry="8.49"/><ellipse class="cls-23" cx="669.62" cy="835.38" rx="52.54" ry="7.33"/><path class="cls-24" d="M713.91,835.38c0,3.41-19.83,6.18-44.29,6.18s-44.29-2.77-44.29-6.18,19.83-6.18,44.29-6.18S713.91,832,713.91,835.38Z"/><path class="cls-25" d="M705.65,835.38c0,2.78-16.13,5-36,5s-36-2.25-36-5,16.13-5,36-5S705.65,832.6,705.65,835.38Z"/><path class="cls-26" d="M697.4,835.38c0,2.14-12.44,3.88-27.78,3.88s-27.78-1.74-27.78-3.88,12.44-3.88,27.78-3.88S697.4,833.24,697.4,835.38Z"/><path class="cls-35" d="M594.87,831.17a5.7,5.7,0,0,1,0-11.4L761.51,819a13.14,13.14,0,0,0,11.19-7.09c.9-1.68,2.71-6,.11-10-21.87-33.33-31.23-75.08-26.37-117.57L749,661.74a5.7,5.7,0,0,1,11.33,1.3l-2.59,22.67c-4.56,39.84,4.17,78.91,24.57,110,4.14,6.3,4.29,14.38.4,21.61a24.29,24.29,0,0,1-21.18,13.1l-166.66.74Z"/><path class="cls-35" d="M747.14,668.14c-19.07,0-36.06-7.38-47.89-20.81C687.2,633.64,682,615.4,684.59,596l9.82-73.25c3.14-23.44,17.59-45.42,38.66-58.8a5.7,5.7,0,0,1,6.11,9.63c-18.26,11.59-30.77,30.54-33.47,50.69l-9.81,73.24c-2.16,16.11,2.07,31.13,11.91,42.3,9.63,10.94,23.59,17,39.33,17h.41l7.11,0c33.77-.22,64.92-27.87,69.45-61.63l9.81-73.24c2.32-17.38-2.95-33.78-14.47-45a5.7,5.7,0,1,1,7.95-8.17c14.14,13.75,20.63,33.68,17.82,54.67l-9.81,73.24c-5.25,39.18-41.44,71.26-80.68,71.52l-7.11,0Z"/><path class="cls-27" d="M747.13,672.81c-20.42,0-38.65-7.94-51.38-22.4-13-14.71-18.57-34.27-15.78-55a10.37,10.37,0,0,1,20.55,2.75c-2,14.75,1.86,28.45,10.79,38.6,8.74,9.91,21.45,15.36,35.83,15.36h.38l7.11-.05c31.53-.2,60.63-26,64.85-57.58A10.37,10.37,0,0,1,840,597.19c-2.69,20.13-13,39-29,53.28s-36,22.16-56.21,22.29l-7.12,0Z"/><path class="cls-27" d="M734.09,482.45h0a5.65,5.65,0,0,1-5.7-6.63l1.46-10.43a7.93,7.93,0,0,1,7.57-6.63h0a5.65,5.65,0,0,1,5.7,6.63l-1.47,10.43A7.91,7.91,0,0,1,734.09,482.45Z"/><path class="cls-27" d="M820,484.53h0a5.65,5.65,0,0,1-5.7-6.64l1.46-10.42a7.92,7.92,0,0,1,7.57-6.63h0a5.64,5.64,0,0,1,5.7,6.63l-1.46,10.42A7.93,7.93,0,0,1,820,484.53Z"/><path class="cls-5" d="M544.91,818l-1.22,8.71.14.07c1,4.83,17.09,8.63,37.24,8.63,12.16,0,23.2-1.39,30.59-3.54h0c5.54-1.62,9-3.67,9.33-5.9l1.07-7.61-16.17-.07a128.46,128.46,0,0,0-22.18-1.77,140,140,0,0,0-21.5,1.57Zm52.57.24-26.82-.12c4-.39,8.39-.61,12.93-.61A126.4,126.4,0,0,1,597.48,818.21Z"/><ellipse class="cls-7" cx="583.44" cy="818.56" rx="36.59" ry="8.94" transform="translate(-7.3 5.25) rotate(-0.51)"/><path class="cls-7" d="M544.86,818.32c.73-5.21,18.65-9.45,39.94-9.45s38,4.24,37.28,9.45-18.65,9.45-39.94,9.45S544.13,823.53,544.86,818.32Zm4.09,0c-.66,4.66,14.3,8.45,33.33,8.45S617.34,823,618,818.32s-14.3-8.45-33.33-8.45S549.6,813.66,549,818.32Z"/><path class="cls-27" d="M759.35,681.91H742.07a6.16,6.16,0,0,1-6.24-7.26l2.42-17.28a8.64,8.64,0,0,1,8.29-7.26h17.28a6.16,6.16,0,0,1,6.24,7.26l-2.43,17.28A8.64,8.64,0,0,1,759.35,681.91Z"/><path class="cls-36" d="M602.71,477c.45-5.06-10.85-68.45-19.85-82.55S562.11,376,561.17,383.33c-4.39,34.45,12.49,80,17.77,93.14a13.46,13.46,0,0,1,.75,7.53,360.65,360.65,0,0,0-4.92,42,2.75,2.75,0,0,1-.66,1.62l-4.88,5.58a1.11,1.11,0,0,0,.08,1.81c.93.55,1.81.79,1.83,3.68,0,4.7-4.41,17.33-6.09,21.5a.8.8,0,0,0,1,1.07c3.34-1,10.86-3.25,12.73-4.94,2.43-2.18,10.09-16.08,9.43-22.66a8.61,8.61,0,0,0-.9-3.1C588.34,528.57,600.38,503,602.71,477Z"/><path class="cls-37" d="M570.54,542.92a21.46,21.46,0,0,0,.6-4.22c0-2.89-.9-3.13-1.83-3.68a1.11,1.11,0,0,1-.08-1.81l4.88-5.58a2.75,2.75,0,0,0,.66-1.62,360.65,360.65,0,0,1,4.92-42,13.46,13.46,0,0,0-.75-7.53c-4.81-12-19.24-50.84-18.45-83.71.38.55.78,1.14,1.19,1.81,13.85,22.42,27.25,72.19,26.85,83.07s-8.54,49.75-13,55.4C573.81,535.28,572.05,539.11,570.54,542.92Z"/><path class="cls-54" d="M600.56,437.61c-.3-5.07-6.82-31.54-16.42-45.24S565.06,377.89,556,381.56c-6.84,2.76,13.35,68.41,13.35,68.41S600.86,442.67,600.56,437.61Z"/><path class="cls-55" d="M554.23,757.37s-8.85,10.3-17.38,11.71c-5.49.9-13.76,1.44-19,1.71a12,12,0,0,0-9.92,6c-1.06,1.91-1.37,3.88.52,5.14,4.79,3.21,25.47,2.57,33.1,3.86,5.57.93,19.52,1.15,26.65,1.2a7.38,7.38,0,0,0,6.91-4.63c1.61-4,2.59-10-2.12-15.71A25.07,25.07,0,0,0,554.23,757.37Z"/><path class="cls-35" d="M519.94,519l47.17-12a115.94,115.94,0,0,1,3.78,24.3c1.79,50-6.21,130.39-6.21,130.39s9.42,25.4,9.42,106.83c0,10.26-10.62,8.64-17.23,6.63a9.34,9.34,0,0,1-6.33-6.81c-4.21-17.9-24.82-129.26-41-232.32C508.57,529.82,519.94,519,519.94,519Z"/><path class="cls-56" d="M528.77,516.74l6.47-13.5c-1.48,2.86,5.33,35.24,2.07,55.48-7.06,43.86-5.15,58.68,4,100.49,1,4.58,3.39,45.77,18.67,116.76-1.09-.24-2.13-.52-3.1-.81a9.34,9.34,0,0,1-6.33-6.81C546.76,752.3,529.79,661,514.65,568Z"/><path class="cls-57" d="M489.84,770.68S481,781,472.46,782.38c-5.49.9-13.76,1.44-19,1.71a12,12,0,0,0-9.92,6c-1.06,1.91-1.37,3.87.52,5.14,4.79,3.21,25.47,2.57,33.1,3.85,5.69,1,20.15,1.17,27.12,1.21a6.69,6.69,0,0,0,6.16-4c1.76-4,3.14-10.38-1.84-16.39A25,25,0,0,0,489.84,770.68Z"/><path class="cls-5" d="M486.17,777.16l-7.4-117.55s-9-75.13-3.18-106c2.68-14.1,10.78-47.43,10.78-47.43s39.59,2.27,41.6,5.64,11.06,17.36,0,65.56c-9.22,40.23-14.09,67-15.44,74.79a12.54,12.54,0,0,0,0,4.57c1.36,7,6.73,33.47,5.64,44.65-2.92,29.86-10.35,80-10.35,80l-.19,0a23.6,23.6,0,0,1-21.5-4.25Z"/><path class="cls-35" d="M484.19,573.24c-2.92,45.48,5.07,101.31,5.77,133.13.54,24.55-1.2,58-2,72.07-.6-.4-1.2-.82-1.77-1.28l-7.4-117.55s-9-75.13-3.18-106c2.68-14.1,10.78-47.43,10.78-47.43s4,.23,9.52.65l6.31,7.34S487.11,527.77,484.19,573.24Z"/><path class="cls-36" d="M519.11,339.48l-.77,47.69s-.29,8.5,16.11,13.39c20.93,6.24,15.69-19.91,13.21-22.78-5.46-6.32-1-40.75-1-40.75Z"/><path class="cls-37" d="M519.11,339.48,546.67,337s-1,7.9-1.49,16.82c-8.51,8.55-19.33,14.84-26.55,15.38Z"/><path class="cls-36" d="M555.49,327.76c-2.81,19.53-32.16,40.71-43.1,37.08-6.94-2.3-11.95-16.83-12.23-36.56-.28-19.53,7.62-30.12,28.33-32C541.41,295,558.3,308.23,555.49,327.76Z"/><path class="cls-58" d="M504.52,302.15c9.38-11.11,20.69-8.89,24.07-7.89a3.46,3.46,0,0,0,2,0,21.31,21.31,0,0,1,7.26-.86c4.75.26,14.08,7.58,18.28,19.19s-3.92,38.95-11.12,45.7c-2.15,2-10.62.12-14.56.76-8.4,1.35-7.74-3.22-11.59-10.77l-2.07-4.07a1.23,1.23,0,0,1,.49-1.65,6.76,6.76,0,0,0,2.73-2.66c1.66-2.89,1.08-6.34-1.3-7.72a5.06,5.06,0,0,0-5.81.91,1.25,1.25,0,0,1-1.94-.36l-6.23-12.25a1.23,1.23,0,0,0-.54-.54C502.4,319,494.55,314,504.52,302.15Z"/><path class="cls-59" d="M481,396.94a7.73,7.73,0,0,1,3.54-6.52c8-5.23,28.63-17.05,49.4-16.35,19.15.64,32.85,5,39,7.44a7.83,7.83,0,0,1,4.76,5.43,83.24,83.24,0,0,1,2,27.56c-1.75,17.57-9.48,49.24-10.36,55.49s-2.56,38.26,1.53,53.45-88,10-90,5.81,6.75-25.12,2.83-47.34C481.24,468.5,481,412.62,481,396.94Z"/><path class="cls-60" d="M480.78,529.25c-2-4.17,6.75-25.12,2.83-47.34-2.76-15.65-2.66-89.07-2.66-89.07a115.58,115.58,0,0,1,27.59-14.37c4.21,4.68,8.82,14.89,4.26,36.36C505.42,449.62,498,472.92,494,493c-3.79,19-12.53,31.69,10.83,36.15,22.24,4.24,53.63,4.46,66-5.56C574.27,538.59,482.82,533.41,480.78,529.25Z"/><path class="cls-36" d="M495.79,387.11c-5.66-2.68-18.33,2.88-22.71,21.12-9.18,38.19-3.35,55.37-5.14,60.74s-6,29-5.69,44.15c.18,9.17.14,16.47.08,20.84-5-.61-5.95,23.76-4.83,26.82.87,2.37,6.43,7.9,8.92,10.3a.81.81,0,0,0,1.37-.49c.49-4.47,2.52-17.68,4.75-21.83,1.38-2.55,2.27-2.35,3.35-2.4a1.11,1.11,0,0,0,.92-1.56s-.65-8.06-4.36-9.15c3.37-7.95,9.09-25.85,11.79-34.12,3.6-11,4.86-25.35,4.86-25.35s6.11-18.17,12.7-48S501.45,389.79,495.79,387.11Z"/><path class="cls-37" d="M468.23,567.22c-.2,1.35-.34,2.52-.44,3.37a.81.81,0,0,1-1.37.49c-2.49-2.4-8.05-7.93-8.92-10.3-1.12-3.06-.15-27.43,4.83-26.82.06-4.37.1-11.67-.08-20.84-.3-15.19,3.89-38.79,5.69-44.15s-4-22.55,5.14-60.74c4.16-17.32,15.79-23.2,21.8-21.46-2.51,1.27-4.94,3.84-7,8.46-8.73,19.76-13.42,57.34-12.9,74s-9.39,69-9.39,69-8.54,10.79-5.06,19.4A19.38,19.38,0,0,0,468.23,567.22Z"/><path class="cls-61" d="M498.42,383.09C471.2,379.15,467.94,437,467.94,437h0a39,39,0,0,0,26.41,8.39l5.21-.29s2.54-7.35,4.7-16.89C511,398.46,504.62,384,498.42,383.09Z"/><path class="cls-27" d="M303.7,243.26H250.22a4.55,4.55,0,0,1-4.61-5.37l7.51-53.48a6.4,6.4,0,0,1,6.13-5.37h53.48a4.57,4.57,0,0,1,4.62,5.37l-7.52,53.48A6.39,6.39,0,0,1,303.7,243.26Z"/><path class="cls-35" d="M299.48,238.69H246a4.55,4.55,0,0,1-4.61-5.37l7.51-53.48a6.4,6.4,0,0,1,6.13-5.37h53.48a4.56,4.56,0,0,1,4.61,5.37l-7.51,53.48A6.39,6.39,0,0,1,299.48,238.69Z"/><path class="cls-62" d="M297.45,185.9c-5.31-4.09-13.5-.84-18.31,7.26-2.54-8.1-9.81-11.35-16.27-7.26s-9.67,14-7.15,22.15c2.31,7.42,18.83,21,19,21,2.66-1.22,19.23-13.52,23.64-21C303.18,199.91,302.77,190,297.45,185.9Z"/><path class="cls-6" d="M272.08,215.7H272a1.63,1.63,0,0,1-1.59-1.33l-3-13.73c0-.11-.07-.12-.11-.12a.47.47,0,0,0-.44.3l-3.52,7a2,2,0,0,1-1.78,1.15h-7.7a.77.77,0,1,1,0-1.54h7.7a.52.52,0,0,0,.41-.31l3.52-7a2,2,0,0,1,2-1.13,1.63,1.63,0,0,1,1.42,1.32l3,13.73c0,.11.07.12.13.12a.48.48,0,0,0,.46-.41l1.33-4.94a2.06,2.06,0,0,1,1.93-1.55h14.1a.77.77,0,0,1,0,1.54h-14.1a.54.54,0,0,0-.45.41L274,214.15A2,2,0,0,1,272.08,215.7Z"/><polygon class="cls-63" points="613.77 230.24 632.67 230.24 640.35 181.72 621.46 181.72 613.77 230.24"/><polygon class="cls-64" points="604.29 196.53 601.3 215.42 649.83 215.42 652.82 196.53 604.29 196.53"/></g></g></svg>