<?xml version="1.0" encoding="UTF-8"?>
<svg xmlns="http://www.w3.org/2000/svg" xmlns:xlink="http://www.w3.org/1999/xlink" viewBox="0 0 288.26 286.28">
  <defs>
    <style>
      .cls-1 {
        fill: #3a3d51;
      }

      .cls-1, .cls-2, .cls-3, .cls-4, .cls-5, .cls-6, .cls-7, .cls-8, .cls-9, .cls-10, .cls-11, .cls-12, .cls-13, .cls-14, .cls-15, .cls-16, .cls-17, .cls-18, .cls-19, .cls-20, .cls-21, .cls-22, .cls-23, .cls-24, .cls-25, .cls-26, .cls-27, .cls-28, .cls-29, .cls-30, .cls-31, .cls-32, .cls-33, .cls-34, .cls-35, .cls-36, .cls-37, .cls-38, .cls-39, .cls-40, .cls-41, .cls-42, .cls-43, .cls-44, .cls-45, .cls-46, .cls-47, .cls-48, .cls-49, .cls-50, .cls-51, .cls-52, .cls-53, .cls-54, .cls-55, .cls-56, .cls-57, .cls-58, .cls-59, .cls-60, .cls-61, .cls-62, .cls-63, .cls-64, .cls-65, .cls-66, .cls-67, .cls-68, .cls-69, .cls-70, .cls-71, .cls-72, .cls-73, .cls-74, .cls-75, .cls-76, .cls-77, .cls-78, .cls-79, .cls-80, .cls-81, .cls-82, .cls-83, .cls-84, .cls-85, .cls-86, .cls-87, .cls-88, .cls-89, .cls-90, .cls-91, .cls-92, .cls-93, .cls-94, .cls-95, .cls-96, .cls-97, .cls-98, .cls-99, .cls-100, .cls-101 {
        stroke-width: 0px;
      }

      .cls-2 {
        fill: #ef770a;
      }

      .cls-3 {
        fill: url(#linear-gradient-12);
      }

      .cls-4 {
        fill: #ffd357;
      }

      .cls-5 {
        fill: #ffd04d;
      }

      .cls-6 {
        fill: #fd9220;
      }

      .cls-7 {
        fill: #f9a208;
      }

      .cls-8 {
        fill: url(#linear-gradient-17);
      }

      .cls-9 {
        fill: #242733;
      }

      .cls-10 {
        fill: #3081e2;
      }

      .cls-11 {
        fill: #9a98ed;
      }

      .cls-12 {
        fill: #4588ff;
      }

      .cls-13 {
        fill: #eda38c;
        opacity: .25;
      }

      .cls-13, .cls-33 {
        mix-blend-mode: multiply;
      }

      .cls-14 {
        fill: url(#linear-gradient-19);
      }

      .cls-15 {
        fill: url(#linear-gradient);
      }

      .cls-16 {
        fill: #1c2235;
      }

      .cls-17 {
        fill: #2eed89;
      }

      .cls-18 {
        fill: #874c12;
      }

      .cls-19 {
        fill: #27e076;
      }

      .cls-20 {
        fill: #d0dcfe;
      }

      .cls-21 {
        opacity: .6;
      }

      .cls-21, .cls-81, .cls-91, .cls-95 {
        fill: #fff;
      }

      .cls-102, .cls-31 {
        opacity: .5;
      }

      .cls-22 {
        fill: #347ee7;
      }

      .cls-23 {
        fill: url(#linear-gradient-21);
      }

      .cls-24 {
        fill: url(#linear-gradient-6);
      }

      .cls-25 {
        fill: #333647;
      }

      .cls-103 {
        stroke: #fff;
        stroke-linecap: round;
        stroke-linejoin: round;
        stroke-width: 3.16px;
      }

      .cls-103, .cls-42 {
        fill: none;
      }

      .cls-26 {
        fill: #5aafd1;
      }

      .cls-27 {
        fill: #474747;
      }

      .cls-28 {
        fill: #75bcfc;
      }

      .cls-29 {
        fill: #fcc106;
      }

      .cls-104 {
        isolation: isolate;
      }

      .cls-30 {
        fill: #81c5e8;
      }

      .cls-31 {
        fill: #898989;
      }

      .cls-32 {
        fill: #347ee8;
      }

      .cls-33 {
        opacity: .55;
      }

      .cls-33, .cls-50 {
        fill: #b4bbe1;
      }

      .cls-34 {
        fill: #f5f5f5;
      }

      .cls-35 {
        fill: #ff9906;
      }

      .cls-36 {
        fill: url(#linear-gradient-15);
      }

      .cls-37 {
        fill: url(#linear-gradient-11);
      }

      .cls-38 {
        fill: #f7a500;
      }

      .cls-39 {
        fill: #22293f;
      }

      .cls-40 {
        fill: url(#linear-gradient-5);
      }

      .cls-41 {
        fill: #206fce;
      }

      .cls-43 {
        fill: #b3e8f4;
      }

      .cls-44 {
        fill: #85eeff;
      }

      .cls-45 {
        fill: #0a2982;
      }

      .cls-46 {
        fill: #4b9cb5;
      }

      .cls-47 {
        fill: #ffd96e;
      }

      .cls-48 {
        fill: url(#linear-gradient-13);
      }

      .cls-49 {
        fill: #41f28d;
      }

      .cls-51 {
        mix-blend-mode: luminosity;
      }

      .cls-51, .cls-101 {
        fill: #48c8ef;
      }

      .cls-52 {
        opacity: .75;
      }

      .cls-52, .cls-72 {
        fill: #205ce2;
      }

      .cls-53 {
        fill: #945915;
      }

      .cls-54 {
        fill: #205ce1;
      }

      .cls-55 {
        fill: #6ce3ff;
      }

      .cls-56 {
        fill: url(#linear-gradient-16);
      }

      .cls-57 {
        fill: #dae3f2;
      }

      .cls-58 {
        fill: #c5a600;
      }

      .cls-59 {
        fill: #ffe1bd;
      }

      .cls-60 {
        fill: #2268bc;
      }

      .cls-61 {
        fill: url(#linear-gradient-20);
      }

      .cls-62 {
        fill: url(#linear-gradient-14);
      }

      .cls-63 {
        fill: url(#linear-gradient-2);
      }

      .cls-64 {
        fill: #2a3049;
      }

      .cls-65 {
        fill: url(#linear-gradient-22);
        mix-blend-mode: screen;
      }

      .cls-65, .cls-81 {
        opacity: .2;
      }

      .cls-66 {
        fill: #4c96ed;
      }

      .cls-67 {
        fill: url(#linear-gradient-7);
      }

      .cls-68 {
        fill: #e2e2e2;
      }

      .cls-69 {
        fill: #fbc006;
      }

      .cls-70 {
        fill: url(#linear-gradient-3);
      }

      .cls-71 {
        fill: #272c91;
      }

      .cls-73 {
        fill: #266fc6;
      }

      .cls-105 {
        clip-path: url(#clippath);
      }

      .cls-74 {
        fill: #ed8406;
      }

      .cls-75 {
        fill: #c5c8e8;
      }

      .cls-76 {
        fill: #cdd5f7;
      }

      .cls-77 {
        fill: url(#linear-gradient-9);
      }

      .cls-78 {
        fill: #ffcb24;
      }

      .cls-79 {
        fill: #80b4ff;
      }

      .cls-80 {
        fill: #97a2ce;
      }

      .cls-82 {
        fill: #ffd1a4;
      }

      .cls-83 {
        fill: #2d2d2d;
      }

      .cls-84 {
        fill: #3a3a3a;
      }

      .cls-85 {
        fill: url(#linear-gradient-8);
      }

      .cls-86 {
        fill: url(#linear-gradient-18);
      }

      .cls-87 {
        fill: #8792b2;
      }

      .cls-88 {
        fill: #f2ba88;
      }

      .cls-89 {
        fill: #ced2ef;
      }

      .cls-90 {
        fill: #165bd6;
      }

      .cls-92 {
        fill: #595959;
      }

      .cls-93 {
        fill: #4594f4;
      }

      .cls-94 {
        fill: #f9b800;
      }

      .cls-95 {
        opacity: .17;
      }

      .cls-96 {
        fill: url(#linear-gradient-10);
      }

      .cls-97 {
        fill: #713e23;
      }

      .cls-98 {
        fill: #442312;
      }

      .cls-99 {
        fill: url(#linear-gradient-4);
      }

      .cls-100 {
        fill: #2875df;
      }
    </style>
    <linearGradient id="linear-gradient" x1="75.53" y1="125.98" x2="108.95" y2="125.98" gradientUnits="userSpaceOnUse">
      <stop offset="0" stop-color="#b4bbe1" stop-opacity=".1"/>
      <stop offset=".63" stop-color="rgba(180, 187, 225, .24)" stop-opacity=".24"/>
      <stop offset="1" stop-color="#b4bbe1" stop-opacity=".3"/>
    </linearGradient>
    <clipPath id="clippath">
      <path class="cls-42" d="M92.24,82.25c-11.82,0-20.05-5.32-20.05-10.09S66.85-2.34,102.57.06c11.79.79,9.72,67.34,9.72,72.11s-8.23,10.09-20.05,10.09Z"/>
    </clipPath>
    <linearGradient id="linear-gradient-2" x1="50.51" y1="150.82" x2="4.04" y2="177.65" xlink:href="#linear-gradient"/>
    <linearGradient id="linear-gradient-3" x1="79.4" y1="156" x2="32.93" y2="182.83" xlink:href="#linear-gradient"/>
    <linearGradient id="linear-gradient-4" x1="35.99" y1="212.98" x2="255.75" y2="212.98" xlink:href="#linear-gradient"/>
    <linearGradient id="linear-gradient-5" x1="183.61" y1="183.98" x2="236.05" y2="183.98" gradientUnits="userSpaceOnUse">
      <stop offset="0" stop-color="#ced5ef"/>
      <stop offset=".37" stop-color="#d5ddf0"/>
      <stop offset=".87" stop-color="#dae3f2"/>
    </linearGradient>
    <linearGradient id="linear-gradient-6" x1="175.08" y1="188.87" x2="227.51" y2="188.87" xlink:href="#linear-gradient-5"/>
    <linearGradient id="linear-gradient-7" x1="166.56" y1="193.76" x2="218.99" y2="193.76" xlink:href="#linear-gradient-5"/>
    <linearGradient id="linear-gradient-8" x1="158.13" y1="198.61" x2="210.55" y2="198.61" xlink:href="#linear-gradient-5"/>
    <linearGradient id="linear-gradient-9" x1="149.59" y1="203.52" x2="202" y2="203.52" xlink:href="#linear-gradient-5"/>
    <linearGradient id="linear-gradient-10" x1="140.56" y1="208.7" x2="192.97" y2="208.7" xlink:href="#linear-gradient-5"/>
    <linearGradient id="linear-gradient-11" x1="131.96" y1="213.65" x2="184.35" y2="213.65" xlink:href="#linear-gradient-5"/>
    <linearGradient id="linear-gradient-12" x1="123.35" y1="218.58" x2="175.76" y2="218.58" xlink:href="#linear-gradient-5"/>
    <linearGradient id="linear-gradient-13" x1="117.77" y1="156.96" x2="177.31" y2="156.96" xlink:href="#linear-gradient-5"/>
    <linearGradient id="linear-gradient-14" x1="109.33" y1="161.81" x2="168.84" y2="161.81" xlink:href="#linear-gradient-5"/>
    <linearGradient id="linear-gradient-15" x1="100.72" y1="166.75" x2="160.26" y2="166.75" xlink:href="#linear-gradient-5"/>
    <linearGradient id="linear-gradient-16" x1="92.22" y1="171.64" x2="151.74" y2="171.64" xlink:href="#linear-gradient-5"/>
    <linearGradient id="linear-gradient-17" x1="83.65" y1="176.56" x2="143.17" y2="176.56" xlink:href="#linear-gradient-5"/>
    <linearGradient id="linear-gradient-18" x1="75.15" y1="181.44" x2="134.66" y2="181.44" xlink:href="#linear-gradient-5"/>
    <linearGradient id="linear-gradient-19" x1="66.6" y1="186.35" x2="126.13" y2="186.35" xlink:href="#linear-gradient-5"/>
    <linearGradient id="linear-gradient-20" x1="58.04" y1="191.26" x2="117.55" y2="191.26" xlink:href="#linear-gradient-5"/>
    <linearGradient id="linear-gradient-21" x1="186.84" y1="259.15" x2="261.53" y2="259.15" xlink:href="#linear-gradient"/>
    <linearGradient id="linear-gradient-22" x1="169.81" y1="182.94" x2="207.15" y2="182.94" xlink:href="#linear-gradient"/>
  </defs>
  <g class="cls-104">
    <g id="Layer_2" data-name="Layer 2">
      <g id="OBJECTS">
        <g>
          <g>
            <path class="cls-53" d="M217.12,148.06v20.43c0,2.49-2.07,4.72-5.46,6.4-3.61,1.78-8.72,2.89-14.39,2.89-10.96,0-19.83-4.16-19.83-9.28v-20.43h39.67Z"/>
            <path class="cls-18" d="M217.12,148.06v20.43c0,2.49-2.07,4.72-5.46,6.4v-20.43l1.08-5.42.94-.97h3.44Z"/>
            <path class="cls-78" d="M217.12,148.06c0,2.49-2.07,4.72-5.46,6.4-3.61,1.78-8.72,2.89-14.39,2.89-10.96,0-19.83-4.16-19.83-9.28,0-.48.08-.96.23-1.43l2.24-7.1,4.44,1.49c3.47-1.4,7.99-2.25,12.93-2.25,4.1,0,7.92.58,11.08,1.59.64.19,1.26.41,1.85.65l4.54-1.19,2.13,6.8c.16.47.24.94.24,1.43Z"/>
            <path class="cls-94" d="M217.12,148.06c0,2.49-2.07,4.72-5.46,6.4l-3.2-12.8s-.06-.54-.1-1.28c.64.19,1.26.41,1.85.65l4.54-1.19,2.13,6.8c.16.47.24.94.24,1.43Z"/>
            <ellipse class="cls-4" cx="197.28" cy="141.03" rx="17.65" ry="8.26"/>
            <path class="cls-69" d="M197.21,140.28h0c-2.76,0-5.01-2.24-5.01-5.01v-20.94h10.01v20.94c0,2.77-2.24,5.01-5.01,5.01Z"/>
            <path class="cls-38" d="M202.22,114.33v20.94c0,2.62-2.03,4.78-4.6,4.99,1.02-.89,1.65-2.22,1.65-3.69v-20.94h-7.07v-1.3h10.02Z"/>
            <path class="cls-78" d="M227.01,63.68v34.09c0,16.41-13.31,29.73-29.73,29.73-1.66,0-3.3-.14-4.88-.41-5.31-.86-10.14-3.14-14.1-6.43-6.57-5.47-10.75-13.69-10.75-22.89v-34.09h59.47Z"/>
            <path class="cls-47" d="M192.39,127.09c-5.31-.86-10.14-3.14-14.1-6.43-4.11-5.09-6.57-11.58-6.57-18.64v-34.09h6.9v34.09c0,10.55,5.49,19.81,13.77,25.07Z"/>
            <path class="cls-94" d="M227.01,63.68v34.09c0,14.37-10.19,26.36-23.74,29.13,7.57-5.38,12.49-14.22,12.49-24.22v-34.09h-48.22v-4.91h59.47Z"/>
            <ellipse class="cls-47" cx="197.28" cy="63.68" rx="29.74" ry="9.34"/>
            <ellipse class="cls-58" cx="197.24" cy="63.68" rx="27.55" ry="8.26"/>
            <path class="cls-78" d="M197.28,160.16c.25,0,.5,0,.76-.01v9.62c-.25.01-.5.01-.76.01-7.66,0-14.31-2.03-17.61-5.01v-9.62c3.3,2.98,9.95,5.01,17.61,5.01Z"/>
            <g>
              <g>
                <g>
                  <path class="cls-74" d="M150.32,101.06c0,.69-1.23,1.25-2.76,1.26-1.53.01-2.77-.53-2.78-1.22,0-.69,1.23-1.25,2.76-1.26,1.53-.01,2.77.53,2.78,1.22Z"/>
                  <rect class="cls-74" x="144.73" y="89.68" width="5.54" height="11.41" transform="translate(-.84 1.31) rotate(-.51)"/>
                </g>
                <path class="cls-69" d="M150.22,89.66c0,.68-1.23,1.25-2.76,1.26-1.53.01-2.77-.53-2.78-1.22,0-.69,1.23-1.25,2.76-1.26,1.53-.01,2.78.53,2.78,1.22Z"/>
              </g>
              <g>
                <path class="cls-54" d="M159.15,68.77s5.4,9.6,6.97,12.38c1.57,2.79,16.84,9.27,36.08-5.44,8.74-6.56,12.1-17.6,10.18-21.02-1.92-3.41-8.2-14.56-8.2-14.56l-45.04,28.63Z"/>
                <polygon class="cls-45" points="142.96 71.76 194.9 73.57 219.42 29.4 167.32 27.58 142.96 71.76"/>
                <polygon class="cls-45" points="218.14 27.12 219.42 29.4 216.56 31.02 214.67 30.24 218.14 27.12"/>
                <polygon class="cls-45" points="141.67 69.47 142.96 71.76 146.88 68.04 141.67 69.47"/>
                <polygon class="cls-54" points="141.67 69.47 193.61 71.29 218.14 27.12 166.03 25.29 141.67 69.47"/>
              </g>
              <path class="cls-69" d="M147.51,90.15c-.28,0-.52-.23-.52-.52v-20.2c0-.17.07-.32.21-.42l31.88-22.66c.23-.16.55-.11.72.12.16.23.11.55-.12.72l-31.66,22.51v19.93c0,.28-.22.52-.51.52Z"/>
              <path class="cls-45" d="M182.28,46.89c-.17,1.64-1.63,2.82-3.27,2.66-1.64-.17-2.82-1.63-2.65-3.27.17-1.64,1.63-2.82,3.27-2.66,1.64.17,2.82,1.63,2.65,3.27Z"/>
            </g>
          </g>
          <g>
            <g>
              <path class="cls-15" d="M108.95,125.98c0,5.24-7.48,9.49-16.71,9.49s-16.71-4.25-16.71-9.49,7.48-9.48,16.71-9.48,16.71,4.25,16.71,9.48Z"/>
              <path class="cls-22" d="M69.2,72.17l6.33,50.29h.07c.67,4.89,7.86,8.74,16.65,8.74,9.23,0,16.71-4.25,16.71-9.48l6.33-49.54h-46.07Z"/>
              <path class="cls-41" d="M115.28,72.17l-6.33,49.54c0,3.84-4.01,7.14-9.79,8.63.89-1.16,1.39-2.44,1.39-3.78l6.32-49.54h-37.05l-.61-4.85h46.07Z"/>
              <g>
                <ellipse class="cls-20" cx="92.24" cy="72.17" rx="23.04" ry="13.08"/>
                <path class="cls-71" d="M92.24,82.25c-11.82,0-20.05-5.32-20.05-10.09s8.23-10.09,20.05-10.09,20.05,5.32,20.05,10.09-8.23,10.09-20.05,10.09Z"/>
                <path class="cls-71" d="M92.24,82.25c-11.82,0-20.05-5.32-20.05-10.09s8.23-10.09,20.05-10.09,20.05,5.32,20.05,10.09-8.23,10.09-20.05,10.09Z"/>
              </g>
            </g>
            <g class="cls-105">
              <g>
                <path class="cls-6" d="M101.11,58.83h.52c.28,0,.5.22.5.5v7.83c0,.28-.22.5-.5.5h-.52c-.28,0-.5-.22-.5-.5v-7.83c0-.28.22-.5.5-.5Z" transform="translate(13.9 -18.15) rotate(10.98)"/>
                <g>
                  <path class="cls-11" d="M98.69,105.42c-.13.69-1.35.8-2.72.23-1.37-.57-2.38-1.59-2.25-2.28.13-.69,1.35-.8,2.72-.23,1.37.57,2.38,1.59,2.25,2.28Z"/>
                  <polygon class="cls-69" points="104.05 48.9 93.72 103.37 98.69 105.42 109.02 50.95 104.05 48.9"/>
                  <path class="cls-54" d="M109.02,50.95c-.13.69-1.35.8-2.72.23-1.37-.57-2.38-1.59-2.25-2.28.13-.69,1.35-.8,2.72-.23,1.37.57,2.38,1.59,2.25,2.28Z"/>
                </g>
              </g>
              <g>
                <path class="cls-54" d="M96.38,37.1l-.04,1.73-.02.71-.06,2.39v.71s-.07,2.39-.07,2.39l-.02.71-.05,2.32-.02.71-.06,2.34-.02.71-.05,2.39-.02.69-.06,2.39-.02.71-.05,2.34-.02.69-.06,2.36v.71s-.07,2.36-.07,2.36l-.02.69-.05,2.4-.02.71-.06,2.39-.02.69-.05,2.37-.02.69-.06,2.4-.02.69-.05,2.36-.02.71-.06,2.39v.69s-.25,9.75-.25,9.75c-.05,2.23-1.65,3.79-3.22,3.12l-5.17-2.22c-1.06-.47-1.77-1.85-1.72-3.37l1.75-57.18c.06-2.03,1.41-3.52,2.87-3.19l4.85,1.1c1.23.28,2.11,1.75,2.07,3.45Z"/>
                <path class="cls-91" d="M96.34,38.83l-.02.71s-.02,0-.04-.01l-2.2-.57c-.13-.04-.22-.22-.2-.42.03-.18.16-.32.3-.26l2.16.56Z"/>
                <path class="cls-91" d="M96.26,41.93v.71s-.04,0-.06-.01l-2.2-.58c-.14-.03-.23-.21-.2-.4.03-.18.16-.32.29-.28l2.17.57Z"/>
                <path class="cls-91" d="M96.19,45.02l-.02.71s-.03-.01-.05-.01l-2.2-.58c-.14-.03-.23-.22-.2-.4.03-.19.15-.32.29-.28l2.18.57Z"/>
                <path class="cls-91" d="M96.12,48.05l-.02.71s-.03,0-.04-.01l-2.2-.58c-.14-.03-.23-.21-.2-.4.03-.19.15-.32.29-.28l2.17.57Z"/>
                <path class="cls-91" d="M96.04,51.1l-.02.71s-.02,0-.04-.01l-2.2-.58c-.13-.03-.22-.21-.2-.4.03-.18.16-.32.3-.28l2.16.57Z"/>
                <path class="cls-91" d="M95.97,54.19l-.02.69h-.05l-2.2-.58c-.13-.04-.22-.22-.2-.42.03-.18.16-.32.3-.26l2.17.57Z"/>
                <path class="cls-91" d="M95.89,57.27l-.02.71s-.02,0-.03-.01l-2.2-.58c-.13-.03-.22-.21-.2-.4.03-.18.16-.32.3-.28l2.15.57Z"/>
                <path class="cls-91" d="M95.81,60.33l-.02.69h-.05l-2.2-.58c-.14-.04-.23-.22-.2-.4.03-.19.16-.33.29-.28l2.18.57Z"/>
                <path class="cls-91" d="M95.73,63.38v.71s-.03,0-.05-.01l-2.2-.58c-.14-.03-.23-.21-.2-.4.03-.19.15-.32.29-.28l2.16.57Z"/>
                <path class="cls-91" d="M95.66,66.44l-.02.69h-.04l-2.2-.58c-.14-.04-.23-.22-.2-.4.03-.19.16-.33.29-.28l2.17.57Z"/>
                <path class="cls-91" d="M95.59,69.54l-.02.71s-.03,0-.05-.01l-2.2-.58c-.13-.03-.22-.21-.2-.4.03-.18.15-.32.3-.28l2.17.57Z"/>
                <path class="cls-91" d="M95.51,72.63l-.02.69h-.01s-.03-.01-.04-.01l-2.2-.58c-.14-.03-.23-.22-.2-.4.02-.19.15-.32.29-.28l2.18.58Z"/>
                <path class="cls-91" d="M95.44,75.7l-.02.69h-.02s-.03,0-.05-.01l-2.2-.58c-.14-.03-.22-.21-.2-.4.03-.18.16-.32.29-.28l2.2.58Z"/>
                <path class="cls-91" d="M95.36,78.79l-.02.69h-.03l-2.2-.58c-.13-.04-.22-.22-.2-.4.03-.19.15-.32.3-.28l2.15.57Z"/>
                <path class="cls-91" d="M95.29,81.84l-.02.71s-.02,0-.03-.01l-2.2-.58c-.14-.03-.23-.21-.2-.4.02-.18.15-.32.29-.28l2.16.57Z"/>
                <path class="cls-91" d="M95.21,84.94v.69h-.06l-2.2-.58c-.14-.04-.23-.22-.2-.4.02-.19.16-.32.29-.28l2.17.57Z"/>
              </g>
            </g>
          </g>
          <g>
            <polygon class="cls-63" points="0 170.64 16.13 179.94 54.56 157.82 38.55 148.47 0 170.64"/>
            <path class="cls-100" d="M39.85,82.53L3.96,103.21l12.18,7.01,25.74-20.97v-5.55c0-1.04-1.12-1.69-2.02-1.17Z"/>
            <polygon class="cls-28" points="3.95 105.13 39.65 84.57 52.5 91.99 16.81 112.54 3.95 105.13"/>
            <path class="cls-93" d="M53.47,89.76c-.46-.29-1.02-.46-1.55-.15l-35.78,20.61-12.18-7.01,35.9-20.68c.38-.22.8-.22,1.17-.08h0s-1.25-.62-1.74-.91c-.45-.26-.99-.4-1.51-.11L0,103.19v63.46l14.15-8.15v16.32l38.62-22.25c.72-.42,1.17-1.19,1.17-2.02l1.21-59.86s-1.12-.59-1.67-.94Z"/>
            <polygon class="cls-32" points="16.13 112.5 0 103.21 0 166.66 16.13 175.96 16.13 112.5"/>
            <polygon class="cls-29" points="13.94 115.93 1.5 108.76 1.5 113.62 13.94 120.78 13.94 115.93"/>
            <polygon class="cls-29" points="13.94 122.33 1.5 115.17 1.5 116.85 13.94 124.01 13.94 122.33"/>
            <polygon class="cls-29" points="13.94 125.46 1.5 118.3 1.5 119.98 13.94 127.14 13.94 125.46"/>
            <polygon class="cls-29" points="13.94 167.7 1.5 160.54 1.5 162.22 13.94 169.38 13.94 167.7"/>
            <path class="cls-72" d="M53.9,90.74l-37.77,21.76v63.46l38.62-22.25c.72-.42,1.17-1.19,1.17-2.02v-59.78c0-1.04-1.12-1.69-2.02-1.17Z"/>
          </g>
          <g>
            <polygon class="cls-70" points="28.89 175.82 45.02 185.12 83.44 163 67.44 153.65 28.89 175.82"/>
            <path class="cls-50" d="M68.74,87.19l-35.9,20.68,12.18,7.01,25.74-20.97v-5.55c0-1.04-1.12-1.69-2.02-1.17Z"/>
            <polygon class="cls-57" points="32.84 109.8 68.53 89.23 81.39 96.65 45.7 117.2 32.84 109.8"/>
            <path class="cls-89" d="M82.36,94.42c-.46-.29-1.02-.46-1.55-.15l-35.78,20.61-12.18-7.01,35.9-20.68c.38-.22.81-.22,1.17-.08h0s-1.25-.62-1.74-.91c-.45-.26-.99-.4-1.51-.11l-37.77,21.76v63.46l14.15-8.15v16.32l38.62-22.25c.72-.42,1.17-1.19,1.17-2.02l1.21-59.86s-1.12-.59-1.67-.94Z"/>
            <polygon class="cls-75" points="45.02 117.16 28.89 107.87 28.89 171.33 45.02 180.62 45.02 117.16"/>
            <polygon class="cls-91" points="42.83 120.59 30.39 113.43 30.39 118.28 42.83 125.44 42.83 120.59"/>
            <polygon class="cls-91" points="42.83 127 30.39 119.83 30.39 121.51 42.83 128.68 42.83 127"/>
            <polygon class="cls-91" points="42.83 130.12 30.39 122.96 30.39 124.64 42.83 131.8 42.83 130.12"/>
            <polygon class="cls-91" points="42.83 172.37 30.39 165.2 30.39 166.88 42.83 174.05 42.83 172.37"/>
            <path class="cls-50" d="M82.79,95.41l-37.77,21.76v63.46l38.62-22.25c.72-.42,1.17-1.19,1.17-2.02v-59.78c0-1.04-1.12-1.69-2.02-1.17Z"/>
          </g>
          <g>
            <polygon class="cls-35" points="276.38 93.92 276.38 122.41 274.46 123.45 247.91 103.49 243.77 77.29 245.7 76.24 276.38 93.92"/>
            <polygon class="cls-2" points="276.38 93.92 276.38 122.41 274.46 123.45 247.91 103.49 274.46 94.96 276.38 93.92"/>
            <polygon class="cls-29" points="274.46 94.96 274.46 123.45 243.77 105.78 243.77 77.29 274.46 94.96"/>
            <g>
              <polygon class="cls-91" points="247.58 86.67 247.58 89.05 258.67 101.48 269.79 101.74 269.79 99.38 247.58 86.67"/>
              <polygon class="cls-91" points="258.67 102.86 247.58 90.43 247.58 102.57 269.79 115.28 269.79 103.12 258.67 102.86"/>
            </g>
          </g>
          <g>
            <polygon class="cls-35" points="153.54 116.35 153.54 136.42 151.41 137.6 132.71 123.54 129.8 105.09 131.93 103.9 153.54 116.35"/>
            <polygon class="cls-2" points="153.54 116.35 153.54 136.42 151.41 137.6 132.71 123.54 151.41 117.54 153.54 116.35"/>
            <polygon class="cls-29" points="151.41 117.54 151.41 137.6 129.8 125.15 129.8 105.09 151.41 117.54"/>
            <polyline class="cls-103" points="135.23 119.2 138.15 124.99 146.58 118.82"/>
          </g>
          <g>
            <g>
              <polygon class="cls-32" points="288.26 164.46 288.26 184.52 286.12 185.71 267.43 171.65 264.51 153.2 266.65 152.01 288.26 164.46"/>
              <polygon class="cls-73" points="288.26 164.46 288.26 184.52 286.12 185.71 267.43 171.65 286.12 165.64 288.26 164.46"/>
              <polygon class="cls-66" points="286.12 165.64 286.12 185.71 264.51 173.26 264.51 153.2 286.12 165.64"/>
            </g>
            <path class="cls-91" d="M274.83,163.41l-1.63,2.34c-.1.14-.28.19-.44.11l-3.53-1.57c-.34-.15-.64.21-.44.53l2.81,4.4c.05.08.07.18.06.28l-.73,3.81c-.04.23.13.45.36.46l3.78.24c.1,0,.2.05.27.13l3.45,3.84c.25.28.69.09.64-.28l-.61-3.89c-.03-.17.06-.33.22-.38l2.67-1.03c.27-.1.3-.47.06-.64l-4.25-3.12c-.06-.05-.11-.11-.14-.18l-1.89-4.94c-.11-.29-.49-.35-.65-.11Z"/>
          </g>
          <g>
            <g>
              <polygon class="cls-99" points="35.99 198.25 171.8 276.22 255.75 227.71 119.93 149.75 35.99 198.25"/>
              <polygon class="cls-79" points="119.93 142.29 255.75 220.26 255.75 223.29 171.8 271.79 35.99 193.83 35.99 190.8 119.93 142.29"/>
              <polygon class="cls-12" points="35.99 190.8 171.8 268.76 255.75 220.26 119.93 142.29 35.99 190.8"/>
              <path class="cls-91" d="M120.97,133.66s24.75,2.92,66.2,39.51c0,0,35.83,6.86,63.76,35.11v10.35h0s-79.21,45.48-79.21,45.48L41.76,189.49v-10.36l79.21-45.48Z"/>
              <path class="cls-34" d="M41.76,179.14s24.75,2.92,66.2,39.51c0,0,35.83,6.86,63.76,35.11v10.35L41.76,189.49v-10.36Z"/>
              <polygon class="cls-68" points="250.94 208.28 171.72 253.76 171.72 264.11 250.94 218.63 250.94 208.28"/>
            </g>
            <path class="cls-34" d="M245.43,188.49l-79.22,45.47c-4.07-2.61-8.15-4.79-12.17-6.6-3.2-1.44-6.35-2.66-9.42-3.68-20.2-6.72-36.66-5.03-36.66-5.03l79.22-45.48s29.69-3.04,58.25,15.33Z"/>
            <g>
              <path class="cls-40" d="M236.05,190.48l-1.88,1.08c-21.03-12.28-42.17-13.42-50.57-13.31l3.22-1.85c10.22.27,29.87,2.48,49.23,14.08Z"/>
              <path class="cls-24" d="M227.51,195.38l-1.87,1.07c-21.02-12.28-42.16-13.42-50.56-13.31l3.21-1.85c10.21.27,29.86,2.48,49.22,14.09Z"/>
              <path class="cls-67" d="M218.99,200.28l-1.87,1.07c-21-12.27-42.15-13.43-50.56-13.31l3.23-1.86c10.22.27,29.86,2.5,49.2,14.1Z"/>
              <path class="cls-85" d="M210.55,205.12l-1.88,1.08c-20.99-12.27-42.12-13.43-50.54-13.32l3.21-1.85c10.23.27,29.87,2.49,49.21,14.09Z"/>
              <path class="cls-77" d="M202,210.02l-1.87,1.08c-21-12.27-42.11-13.43-50.54-13.32l3.21-1.85c10.22.27,29.85,2.49,49.2,14.09Z"/>
              <path class="cls-96" d="M192.97,215.21l-1.87,1.08c-20.99-12.28-42.13-13.44-50.54-13.32l3.23-1.86c10.24.28,29.86,2.51,49.18,14.1Z"/>
              <path class="cls-37" d="M184.35,220.16l-1.87,1.08c-20.98-12.26-42.08-13.44-50.52-13.33l3.21-1.85c10.24.28,29.86,2.51,49.18,14.1Z"/>
              <path class="cls-3" d="M175.76,225.09l-1.87,1.07c-20.99-12.26-42.12-13.42-50.54-13.31l3.23-1.86c10.24.28,29.86,2.51,49.18,14.1Z"/>
              <path class="cls-48" d="M117.77,140.01c8.53,2.48,28.89,10.48,57.78,35.23l1.76-1.01c-27.78-23.92-47.57-32.53-57.2-35.57l-2.34,1.35Z"/>
              <path class="cls-62" d="M109.33,144.86c8.57,2.5,28.91,10.54,57.75,35.25l1.76-1.01c-27.73-23.89-47.51-32.52-57.17-35.58h0l-2.34,1.35Z"/>
              <path class="cls-36" d="M100.72,149.81c8.52,2.47,28.88,10.47,57.79,35.23l1.76-1.01c-27.79-23.93-47.59-32.53-57.21-35.57l-2.34,1.35Z"/>
              <path class="cls-56" d="M92.22,154.69c8.55,2.49,28.9,10.51,57.76,35.24l1.76-1.01c-27.75-23.91-47.54-32.52-57.18-35.57l-2.34,1.34Z"/>
              <path class="cls-8" d="M83.65,159.61c8.55,2.48,28.9,10.5,57.77,35.24l1.76-1.01c-27.76-23.91-47.54-32.52-57.18-35.57l-2.34,1.35Z"/>
              <path class="cls-86" d="M75.15,164.49c8.56,2.5,28.9,10.52,57.75,35.25l1.77-1.02c-27.74-23.9-47.53-32.52-57.18-35.58l-2.34,1.34Z"/>
              <path class="cls-14" d="M66.6,169.39c8.54,2.49,28.9,10.5,57.76,35.24l1.77-1.02c-27.76-23.91-47.55-32.52-57.19-35.57l-2.34,1.34Z"/>
              <path class="cls-61" d="M58.04,174.31c8.56,2.49,28.9,10.52,57.75,35.24l1.76-1.01c-27.74-23.9-47.53-32.52-57.18-35.58l-2.34,1.35Z"/>
            </g>
            <polygon class="cls-55" points="119.97 184.64 123.15 184.96 123.51 187.66 171.73 159.97 167.85 157.15 119.97 184.64"/>
          </g>
          <g>
            <path class="cls-31" d="M91.03,187.54c-1.2,1.35-9.89,5.54-14.78,7.01-.57-.34-1.13-.67-1.68-.99l15.59-8.27s2.08.91.87,2.25Z"/>
            <path class="cls-64" d="M75.02,129.21s-1.8,2.17-.67,5.74c.7,2.21,1.33,2.42,1.5,3.58s-1.5,3.35-.07,6.66c.73,1.69,5.23-.28,5.23-.28l2.29-3.03-2.29-6.28-5.99-6.4Z"/>
            <path class="cls-39" d="M80.91,140.24l.26,3.07s-5.55,2.16-5.67,1.15c-.12-1.01,1.16-1.61,1.4-2.3.24-.69,0-1.28,0-1.28,0,0-.71-1.36-.59-2.99"/>
            <path class="cls-1" d="M52.22,220.93s.17.17.14.38c-.03.21-.33.57-.95.9s-1.09.47-1.74,1c-.64.53-1.85,1.66-2.53,2.22-.69.56-1.64.86-2.17.94s-1.89.32-2.93.26c-.93-.06-1.58-.57-1.68-.96-.1-.38-.06-1.03-.06-1.03"/>
            <polygon class="cls-59" points="47.7 214.39 47.7 218.17 47.7 219.81 50.88 219.81 51.91 214.39 47.7 214.39"/>
            <path class="cls-1" d="M77.53,179.23s-3.35,9.19-10.11,11.55c-1.1.39-2.17.69-3.19.94-5.23,1.26-9.12.89-9.12.89.61,6.79-2.43,19.52-3.18,22.52-.11.45-.47.78-.91.88-.08.02-.17.03-.25.04-.85.13-1.64.02-2.22-.13-.56-.15-.96-.64-.98-1.22-.18-4.6-1.02-26.46,1.48-28.19,6.17-4.29,21.3-9.39,24.38-10.55.36-.13.64-.41.79-.77l1.01-2.46,2.3,6.5Z"/>
            <path class="cls-25" d="M66.03,186.51l-1.81,5.22c-5.23,1.26-9.12.89-9.12.89.61,6.79-2.43,19.52-3.18,22.52-.11.45-.47.78-.91.88-.08.02-.17.03-.25.04h0c2.9-10.13,2.42-25.92,2.42-25.92,6.21.39,12.66-3.51,12.85-3.62Z"/>
            <path class="cls-59" d="M69.2,217.1l1.44,3.07s4.35,3.93,3.39-.91l-1.78-5.58"/>
            <path class="cls-1" d="M92.2,180.63c-.26,2.84-1.13,6.01-4.97,8.17-3.38,1.91-10.52,5.36-19.12,7.56.32.75.67,1.6,1.05,2.56,1.52,3.77,3.28,13.44,3.91,16.62.1.5-.03,1.01-.33,1.41-.07.09-.14.17-.22.24-.54.47-1.32.98-2.17.98-.58,0-1.09-.36-1.35-.87-1.75-3.46-10.18-19.95-10.9-23.47-.08-.41-.19-1.08-.02-1.56.05-.19.11-.33.18-.42,3.82-4.03,16.76-9.84,16.76-9.84l.2-9.26,14.2,1.58,2.21.24s.78,3.7.56,6.07Z"/>
            <path class="cls-25" d="M92.2,180.63c-.26,2.84-1.13,6.01-4.97,8.17-3.38,1.91-10.52,5.36-19.12,7.56.32.75.67,1.6,1.05,2.56,1.52,3.77,3.28,13.44,3.91,16.62.1.5-.03,1.01-.33,1.41-.89-3.12-2.86-9.6-3.54-13.16-.79-4.14-4.2-9.06-4.2-9.06,0,0,4.17-1.11,10.12-3.08,5.95-1.97,12.37-4.92,14.24-8.47,1.87-3.55,0-8.76,0-8.76,0,0,.03-.03.07-.09l2.21.24s.78,3.7.56,6.07Z"/>
            <path class="cls-69" d="M52.13,221.31c-.54.5-.9.57-2.34,1.39-1.44.81-2.88,2.75-4.05,3.11-1.17.36-3.49.8-4.62.26-.61-.29-.84-.76-.87-1.23-.02-.39.09-.78.24-1.07.31-.63,1.28-1.11,2.45-1.65,1.17-.54,2.41-1.96,3.22-2.72.81-.77,1.06-1.62,1.34-2.04.14-.21,1.33.05,1.72.68.19.32.14.45.06.57-.07.12-.06.26.02.37.06.08.16.13.27.14,1.56.06,1.74-1.56,1.74-1.56,1.11.48,1.36,3.27.82,3.76Z"/>
            <path class="cls-1" d="M75.82,221.52s.39.4.39.76c0,.28-.63,1.59-1.11,1.97,0,0-.13.2-.29.51-.16.31-.95,2.01-1.65,2.9-.7.89-2.31,1.41-3.03,1.62s-1.52.36-2.72-.08-1.27-1.33-1.27-1.33l3.25-1.8"/>
            <path class="cls-69" d="M76.03,221.97c.03.28-.39,1.27-1.19,2.16-.92,1.82-1.83,3.34-2.34,3.71-.6.44-1.73.9-2.92,1.25-1.46.43-3.46-.38-3.55-1.6,0-.06,0-.12,0-.18.1-1.31,1.93-2.31,2.68-2.68.84-.42,1.2-3.04,1.36-4.11.03-.23.22-.66.69-.64.47.02.96.17,1.24.42.29.25.21.38.21.63,0,.18.13.28.3.29.07,0,.14,0,.21-.04.26-.11,1.45-1.16,1.3-1.92,0,0,.3-.11.54.21.23.32,1.38,1.67,1.47,2.51Z"/>
            <path class="cls-17" d="M79.52,151.46s-1.77,5.36-3.24,8.98c-.4,1-.78,1.87-1.1,2.45-.1.19-.22.39-.34.59-2.42,3.96-8.78,9.77-11.24,12.12,0,0,0,0,0,.01-.22.21-.5.32-.79.35-.52.06-1.08-.17-1.38-.65-.1-.16-.15-.31-.16-.44-.03-.25.06-.45.1-.54,0,0,0-.01,0-.02l.02-.04c.86-1.3,5.68-8.58,7.58-11.39.91-1.33,1.58-2.21,2.05-2.78.19-2.06.81-8.39,1.76-12.08.01-.05.03-.1.04-.15h0c.4-1.46,1.03-2.52,1.69-3.29.3-.35.6-.64.89-.87.06-.04.11-.07.18-.11.59-.34,1.37-.59,2.25-.76.52.02,1.03.17,1.48.47.75.5,1.27,1.32,1.43,2.56.15,1.13-.53,3.34-1.24,5.58Z"/>
            <path class="cls-49" d="M72.84,147.88c-.07.52-1.13,8.47-1.19,12.43,0,0-9.49,12.98-10.38,14.56-.03-.25.06-.45.1-.54,0,0,0-.01,0-.02l.02-.04c.86-1.3,5.68-8.58,7.58-11.39.91-1.33,1.58-2.21,2.05-2.78.19-2.06.81-8.39,1.76-12.08.01-.05.03-.1.04-.15Z"/>
            <path class="cls-19" d="M76.28,160.43c-.4,1-.78,1.87-1.1,2.45-2.11,3.95-8.99,10.25-11.59,12.71,0,0,0,0,0,.01-.22.21-.5.32-.79.35,1.28-1.35,8.64-9.08,9.58-10.34,1.04-1.38,1.58-2.41,1.43-3.27-.15-.86-.37-1.16-1.09-2.71-1.07-2.28-.98-3.25-.98-3.25,0,0,2.78.89,3.03.91.13.01.85,1.62,1.51,3.13Z"/>
            <path class="cls-19" d="M74.18,146.81s.17,2.34-.62,3.91c-.79,1.58-1.53,3.08-1.82,5.39l3.27-3.84-.83-5.47Z"/>
            <path class="cls-69" d="M79.52,151.46s-1.77,5.36-3.24,8.98c-.4,1-.78,1.87-1.1,2.45-.1.19-.22.39-.34.59-2.42,3.96-8.78,9.77-11.24,12.12,0,0,0,0,0,.01-.22.21-.5.32-.79.35-.52.06-1.08-.17-1.38-.65-.1-.16-.15-.31-.16-.44-.03-.25.06-.45.1-.54,0,0,0-.01,0-.02l.02-.04c.86-1.3,5.68-8.58,7.58-11.39.91-1.33,1.58-2.21,2.05-2.78.19-2.06.81-8.39,1.76-12.08.01-.05.03-.1.04-.15h0c.4-1.46,1.03-2.52,1.69-3.29.3-.35.6-.64.89-.87.06-.04.11-.07.18-.11.59-.34,1.37-.59,2.25-.76.52.02,1.03.17,1.48.47.75.5,1.27,1.32,1.43,2.56.15,1.13-.53,3.34-1.24,5.58Z"/>
            <path class="cls-69" d="M91.69,173.52c.19.42.31.71-.06,1.04,0,0-1.27,1.58-5.25,1.73-.06,0-.11,0-.17,0-.31,0-.67-.03-1.06-.08-2.91-.39-7.74-2.08-9.44-3.1,0,0-.02-.01-.05-.03,0,0-.01,0-.02-.01-.21-.13-.83-.54-.76-.8.29-1.02.34-2.3.34-2.31-.02-2.14-.09-4.98-.4-6.48-.02-.09-.04-.19-.06-.27-.03-.13-.07-.26-.11-.38-.43-1.38-1.35-2.8-2.04-4.01v-.02c-.46-.78-.81-1.48-.87-2.01-.3-2.76,2.43-4.66,2.29-7.07-.11-1.88-.41-3.79.47-5.12.21-.33.5-.63.89-.87.06-.04.11-.07.18-.11.59-.34,1.37-.59,2.25-.76,2.37-.46,5.5-.33,7.96.38,0,0,8.07,3.31,8.88,6.3.81,2.99-1.75,8.57-2.82,11.36-.12.32-.24.67-.35,1.04-.86,2.93-1.3,7.36-.81,9.17,0,0,.71,1.79,1,2.43Z"/>
            <path class="cls-7" d="M91.64,174.56s-1.27,1.58-5.25,1.73c-.06,0-.11,0-.17,0-.31,0-.67-.03-1.06-.08.69-.09,1.42-.3,1.84-.71.92-.92.1-5.55-.13-6.89-.21-1.26.19-3.88-.7-4.18l-.21-1.41s-.72.89-2.38.57c-2-.39-2.87-.78-3.59-.98-.93-.27-2.01-.4-3.92-.86-2.08-.51-2.33-.98-2.33-.98-.37-.68-.77-1.34-1.11-1.94v-.02s.97,1.21,2.38,1.51c1.41.3,7.49,1.87,8.8,1.67,1.32-.2,2.73-2.07,2.73-2.07l4.96,2.02c-.86,2.93-1.3,7.36-.81,9.17,0,0,.71,1.79,1,2.43.19.42.31.71-.06,1.04Z"/>
            <path class="cls-59" d="M88.06,146.17c-.13,1.18-4.6,4.01-8.08,5.19,0,0-1.47-3.95-1.12-6.26.06-.41.31-.79.68-.98.19-.1.35-.22.5-.36.39-.38.63-.92.63-1.5,0-.28-.02-.56-.03-.81-.06-.73-.17-1.26-.17-1.26l6.47-3.55s-.86,6.03-.12,6.96c0,0,1.36,1.47,1.23,2.58Z"/>
            <path class="cls-13" d="M86.43,142.76l-1.46-1.65-.49-.28c.55-.46,1.04-1.02,1.34-1.7l-5.18,2.32c.02.25.03.52.03.81,0,.58-.23,1.11-.63,1.5,0,0,.61-.06,1.03-.73.26-.41,1.68-1.2,2.87-1.78.02.62.32,1.97,1.32,2.62,1.57,1.02,3.34.8,3.34.8l-2.17-1.9Z"/>
            <path class="cls-59" d="M75.4,129.65s-.64,4.14.44,7.78,2.56,4.68,3.4,4.73c.84.05,5.81-.69,7.24-4.19s1.13-7.48.49-9.55c-.64-2.07-4.23-3.84-6.75-3.4-2.51.44-4.58,2.22-4.83,4.63Z"/>
            <g>
              <path class="cls-46" d="M84.25,183.59v.89l-19.4-7.71-12.07,5.02.13-.25h-1.67v.72c0,.1.06.19.15.22l20.41,8.11c.14.06.3.05.44,0l12.84-5.34c.11-.04.18-.15.18-.26v-.86l-1.01-.55Z"/>
              <g>
                <path class="cls-51" d="M84.74,185.04c0,.12-.07.22-.15.22s-.15-.1-.15-.22.07-.22.15-.22.15.1.15.22Z"/>
                <ellipse class="cls-51" cx="83.98" cy="185.27" rx=".15" ry=".22"/>
                <path class="cls-51" d="M83.49,185.51c0,.12-.07.22-.15.22s-.15-.1-.15-.22.07-.22.15-.22.15.1.15.22Z"/>
              </g>
              <path class="cls-101" d="M64.85,175.88l-13.61,5.66,20.78,8.26,13.09-5.45c.19-.08.19-.34,0-.42l-20.26-8.06Z"/>
              <path class="cls-55" d="M64.76,176.89l-11.75,4.89c-.09.04-.09.17,0,.21l18.09,7.19s.06.01.08,0l11.75-4.89c.09-.04.09-.17,0-.21l-18.09-7.19s-.06-.01-.08,0Z"/>
              <path class="cls-44" d="M69.79,178.47l-3.53,1.47c-.05.02-.05.1,0,.12l5.58,2.22c.13.05.29.05.42,0l3.51-1.46c.06-.03.06-.11,0-.14l-5.56-2.21c-.13-.05-.29-.05-.42,0Z"/>
              <path class="cls-43" d="M71.63,190.14c.05,0,.11-.04.17-.1.01-.02.03-.03.04-.04l.19-.2-5.63-14.09c-.07-.18-.21-.31-.38-.38l-20.27-8.06c-.06-.02-.12,0-.16.04l-.35.36s0,0,0,.01l.69.51,5.33,13.34,19.99,7.95-.07.06.44.6h.02Z"/>
              <path class="cls-26" d="M71.63,190.14l-5.55-13.89c-.11-.27-.32-.49-.59-.59l-20.16-8.01s-.07,0-.1.02c0,0,0,0,0,.01-.02.02-.02.05,0,.08l5.6,14.03c.04.09.11.16.19.19l20.44,8.13h0l.05.02s.06.01.12,0h.02Z"/>
              <path class="cls-95" d="M58.73,179.44c-.2.61-1.1.85-2.01.55-.91-.3-1.48-1.04-1.28-1.65.2-.61,1.1-.85,2.01-.55s1.48,1.04,1.28,1.65Z"/>
            </g>
            <path class="cls-59" d="M76.06,178.69l-.77.97c-.38.48-1.05.62-1.65.74l-1.14.26s-.07.01-.1.03h0s0,0,0,0c-.03.02-.07.05-.1.08l-1.26,1.08h0s0,0,0,0h0c-.05.05-.1.1-.13.16,0,0-.67,1.11-.81,1.49-.04.09.2.19.4.06.2-.13.95-1.19.95-1.19,0,0-.61,1.33-.76,1.78-.04.11.19.18.45-.01.26-.19.94-1.57.94-1.57,0,0-.37,1.07-.44,1.41-.02.1.11.17.39.06.28-.11.78-1.3.78-1.3l.39-.32-.34.45s-.34.74-.42.96c-.04.13.25.15.52-.14.27-.29.74-.94.95-.97.21-.03.34.2,1.24.13.79-.06,1.35-1.45,1.35-1.45l1.94-1.94-2.38-.77Z"/>
            <path class="cls-17" d="M93.76,156.14s-2.89,8.74-4.33,11.43c-2.11,3.95-8.99,10.25-11.59,12.71,0,0,0,0-.01,0-.26.24-.6.36-.93.37-.48,0-.96-.23-1.23-.66-.09-.14-.13-.27-.15-.39h0c-.05-.28.05-.5.1-.59,0,0,0-.01,0-.02l.02-.04c.86-1.3,5.68-8.58,7.58-11.39.91-1.33,1.58-2.21,2.05-2.78.17-1.91.72-7.49,1.56-11.23,0-.02,0-.03,0-.03.06-.29.13-.56.2-.82.61-2.4,1.86-3.76,2.87-4.51,1.08-.8,2.55-.95,3.67-.21.21.14.4.3.57.5h0c.44.5.74,1.17.86,2.07.15,1.13-.53,3.34-1.24,5.58Z"/>
            <path class="cls-19" d="M93.76,156.14s-2.89,8.74-4.33,11.43c-2.11,3.95-8.99,10.25-11.59,12.71,0,0,0,0-.01,0-.26.24-.6.36-.93.37,1.32-1.31,6.18-6.16,7.31-7.35,1.32-1.38,4.04-4.73,5.06-6.99,1.02-2.27,3.51-9.98,4.46-13.1.92-3.02.45-4.61.41-4.71.44.49.74,1.17.86,2.06.15,1.13-.53,3.34-1.24,5.58Z"/>
            <path class="cls-49" d="M86.84,153.56c-.05.54-.89,9.36-.87,11.36,0,0-9.53,13.13-10.45,14.67-.05-.28.05-.5.1-.59,0,0,0-.01,0-.02l.02-.04c.86-1.3,5.68-8.58,7.58-11.39.91-1.33,1.58-2.21,2.05-2.78.17-1.91.72-7.49,1.56-11.23Z"/>
            <path class="cls-69" d="M93.76,156.14s-2.89,8.74-4.33,11.43c-2.11,3.95-8.99,10.25-11.59,12.71,0,0,0,0-.01,0-.26.24-.6.36-.93.37-.48,0-.96-.23-1.23-.66-.09-.14-.13-.27-.15-.39h0c-.05-.28.05-.5.1-.59,0,0,0-.01,0-.02l.02-.04c.86-1.3,5.68-8.58,7.58-11.39.91-1.33,1.58-2.21,2.05-2.78.17-1.91.72-7.49,1.56-11.23,0-.02,0-.03,0-.03.06-.29.13-.56.2-.82.61-2.4,1.86-3.76,2.87-4.51,1.08-.8,2.55-.95,3.67-.21.21.14.4.3.57.5h0c.44.5.74,1.17.86,2.07.15,1.13-.53,3.34-1.24,5.58Z"/>
            <path class="cls-64" d="M90.02,145.3c-1.28-.7-2.76-.6-4.09-1.47,0,0,0,0,0,0-.09-.06-.19-.13-.28-.2s-.19-.15-.28-.24c-1.69-1.56-.85-5.14-.85-6.97v-.11c-.05-2.56.06-4.48-3.15-3.79-1.41.3-2.69.2-3.68,0-2.09-.43-3.31-2.72-2.32-4.61.05-.09.1-.17.15-.26,2.2-3.52,7.21-3.11,9.87-1.52,2.25,1.35,3.07,3.24,3.03,6.64-.04,2.91,1.09,2.78,1.61,5.4.04.19.08.39.1.61.03.24.06.49.08.73.28,3.1-.18,5.8-.18,5.8Z"/>
            <path class="cls-39" d="M90.02,145.3c-1.28-.7-2.76-.6-4.09-1.47,0,0,0,0,0,0-.09-.06-.19-.13-.28-.2s-.19-.15-.28-.24c-1.69-1.56-.85-5.14-.85-6.97l1.46-.95s.16.99,0,1.85c-.16.87-.45.91-.74,1.91-.29,1-.19,2.88.81,3.61,1,.73,2.56.56,3.03.83,0,0,1.04-2.01.95-5.52.04.19.08.39.1.61.03.24.06.49.08.73.28,3.1-.18,5.8-.18,5.8Z"/>
            <path class="cls-59" d="M84.11,135.05s.51-.84,1.31-.71c.8.13.7,1.31.48,2.29-.3,1.27-1.64,1.13-1.64,1.13"/>
            <path class="cls-7" d="M52.13,221.31c-.54.5-.9.57-2.34,1.39-1.44.81-2.88,2.75-4.05,3.11-1.17.36-3.49.8-4.62.26-.61-.29-.84-.76-.87-1.23.51.57.97.88,2.65.83,1.68-.06,3.36-.6,4.39-1.88,1.04-1.28,1.7-1.92,2.82-2.36,1.12-.44,1.64-1,1.49-1.52-.16-.52-.56-.85-1.37-.66-.81.19-.92-.26-.92-.26.06.08.16.13.27.14,1.56.06,1.74-1.56,1.74-1.56,1.11.48,1.36,3.27.82,3.76Z"/>
            <path class="cls-7" d="M76.03,221.97c.03.28-.39,1.27-1.19,2.16-.92,1.82-1.83,3.34-2.34,3.71-.6.44-1.73.9-2.92,1.25-1.46.43-3.46-.38-3.55-1.6,1.6,1.41,5.13.08,5.73-.52s.75-1.49,1.64-2.41c.89-.93,1.9-2.02,1.41-2.89-.35-.61-1.46-.49-1.77-.37-.31.12-.52-.09-.52-.09.07,0,.14,0,.21-.04.26-.11,1.45-1.16,1.3-1.92,0,0,.3-.11.54.21.23.32,1.38,1.67,1.47,2.51Z"/>
          </g>
          <g>
            <path class="cls-23" d="M256.62,243.44l-64.42,37.17-5.36-3.07,64.42-37.19,10.05-2.66c.17-.05.3.16.18.29l-4.87,5.45Z"/>
            <g>
              <path class="cls-50" d="M251.36,234.26l8.69-2.07c.3-.07.52.29.31.52l-5.91,6.5-3.1-4.96Z"/>
              <path class="cls-12" d="M260.37,232.71l-2.32,2.56c-.04-.36-.14-.73-.32-1.09-.15-.33-.36-.62-.58-.87-.11-.12-.23-.23-.36-.33l3.28-.77c.3-.08.51.29.3.51Z"/>
              <g>
                <path class="cls-12" d="M190.96,269.51l.82,1.45,2.12,3.73,59.89-34.96s0,0,0,0h0c.13-.06.25-.14.36-.22.31-.24.54-.56.69-.95.28-.74.25-1.69-.17-2.57-.16-.33-.36-.63-.58-.87,0,0,0,0,0,0-.62-.69-1.45-1.05-2.23-.97-.22.02-.44.08-.64.18-.04.01-.07.03-.11.05l-.13.08s-.03.02-.05.03c-.01,0-.02.02-.04.03l-59.93,34.99Z"/>
                <path class="cls-79" d="M190.96,269.51l.82,1.45,2.08-.62,60.23-35.21s0,0,0,0c0,0,0,0,0,0-.62-.69-1.45-1.05-2.23-.97-.22.02-.44.08-.64.18-.04.01-.07.03-.11.05l-.13.08s-.03.02-.05.03c-.01,0-.02.02-.04.03l-59.93,34.99Z"/>
                <path class="cls-10" d="M190.09,273.25c.72,1.49,2.26,2.24,3.45,1.67h0c.13-.06.25-.14.36-.22.31-.24.54-.57.68-.95.28-.74.25-1.69-.17-2.57-.59-1.24-1.76-1.96-2.82-1.85-.22.02-.44.08-.64.18-.04.02-.07.04-.11.05l-.13.09s-.03.02-.05.03c-.97.69-1.24,2.2-.59,3.57Z"/>
              </g>
            </g>
          </g>
          <g>
            <g>
              <path class="cls-92" d="M234.05,281.74c-1.6.98-2.32.58-4.25,1.31-1.94.72-5.64,3.04-7.19,3.2-1.55.17-3.48-.68-4.03-2-.55-1.33.99-2.34,2.7-3.22,1.72-.89,5.76-3.87,5.76-3.87l5.58-.52c-.34.35-.58.62-.58.62l-.54,2.99,2.59.52s.38.46-.03.98Z"/>
              <path class="cls-32" d="M227.03,276.64s-4.04,2.99-5.76,3.87c-1.71.88-3.25,1.89-2.7,3.22.55,1.33,2.48,2.17,4.03,2,1.55-.17,5.25-2.49,7.19-3.21,1.94-.72,2.65-.33,4.26-1.3.59-.36.82-3.11-.35-5.21"/>
              <path class="cls-92" d="M252.4,262.48c0,.1-.02.18-.05.25-.27.67-.72,1.05-2.1,1.88-1.39.83-2.34,3.07-3.5,4.11-1.16,1.05-2.63,2.02-4.02,2.08-1.38.05-3.09-.89-3.26-1.94-.17-1.05.5-1.38,1.16-1.82.66-.44,2.71-2.32,3.09-2.82.39-.5,1.27-1.99,1.27-1.99l4.64-3.81c.67.34,1.21.83,1.63,1.35-.21-.03-.4-.04-.44,0-.09.09-.52,1.23-.52,1.23,0,0,.36.59.48.64.13.04,1.14.11,1.14.11,0,0,.4.3.45.74Z"/>
              <path class="cls-32" d="M244.83,261.8s-.88,1.49-1.27,1.99c-.39.5-2.43,2.38-3.1,2.82-.66.44-1.33.77-1.16,1.82.17,1.05,1.88,1.99,3.26,1.94,1.38-.06,2.86-1.02,4.02-2.07s2.11-3.29,3.5-4.12c1.38-.83,1.82-1.2,2.1-1.87.28-.67-.55-3.21-2.71-4.32"/>
              <path class="cls-1" d="M249.98,257.84c-1.15,4.31-5.75,4.09-5.75,4.09,0,0-3.9-4.09-7.95-8.82-2.85-3.31-5.77-6.94-7.47-9.68-.38-.62-.7-1.19-.95-1.7-.34-.73-.66-1.71-.95-2.87-2.12-8.46-2.81-26.47-2.81-26.47l12.05,5.97-.11,18.94s1.15,1.07,2.57,2.71c.86,1,1.82,2.2,2.68,3.5,2.31,3.5,8.68,14.32,8.68,14.32Z"/>
              <path class="cls-9" d="M249.98,257.84c-1.15,4.31-5.75,4.09-5.75,4.09,0,0-3.9-4.09-7.95-8.82l.71-7.79,1.17-5.31h.45c.86,1,1.82,2.2,2.68,3.5,2.31,3.5,8.68,14.32,8.68,14.32Z"/>
              <path class="cls-25" d="M233.37,224.15s-1.68,8.54-1.93,8.59c-.19.03-1.84,7.18-2.63,10.68-.38-.62-.7-1.19-.95-1.7-.34-.73-.66-1.71-.95-2.87.76-5.81,3.12-18.69,3.12-18.69h2.17l1.17,3.98Z"/>
              <path class="cls-1" d="M246.33,220.88c-.52,2.61-4.07,12.13-6.66,19.18-1.63,4.45-2.61,9.08-2.95,13.8-.59,8.25-1.83,20.69-2.25,23.1,0,0-.41.33-1.09.66-1.45.69-4.13,1.35-6.75-1.21,0,0-.09-26.43.03-31.07.11-4.64,4.53-23.55,4.53-23.55,0,0-6.85-2.21-7.07-9.39l18.97,2.45,3.26.42s.77,1.71,0,5.61Z"/>
              <path class="cls-25" d="M246.33,220.88c-.52,2.61-4.07,12.13-6.66,19.18-1.63,4.45-2.61,9.08-2.95,13.8-.59,8.25-1.83,20.69-2.25,23.1,0,0-.41.33-1.09.66.43-6.49,1.76-26.63,2.02-30.38.29-4.49,3.38-11.84,5.26-18.36,1.88-6.52,1.55-13.16,1.55-13.16l.88-.88,3.26.42s.77,1.71,0,5.61Z"/>
            </g>
            <g>
              <path class="cls-60" d="M247.32,215.3s.13.44.21,1.05c.03.2-.05.39-.22.5-.38.25-1.24.75-2.91,1.39-1.89.72-4.4.83-6.21.66-.76-.07-8.22-1.72-12.68-4.54-1.13-.72-1.71-2.05-1.49-3.37v-.03c.15-.88,23.29,4.34,23.29,4.34Z"/>
              <path class="cls-32" d="M250.8,186.93c-.57,2.34-1.26,4.66-1.97,6.97-.33,1.09-.73,2.17-1.13,3.24-1.43,3.86-2.93,7.73-2.07,11.94.34,1.65,1.19,3.72,1,5.41-.12,1.01-.26,1.87-2.04,3.01-.36.24-.77.42-1.18.55l-.24.07-.11.03c-.38.11-.76.19-1.14.25-.93.16-1.87.19-2.81.11-.44-.03-.88-.09-1.31-.17-2.71-.51-7.77-1.75-12.14-4.46,0,0-.03-.01-.03-.01-1.36-.82-2.1-2.8-1.67-5.53.21-1.37.54-3.28.82-4.83.32-1.82.46-3.68.4-5.53-.03-.83-.05-1.67-.07-2.49-.8-5.13-3.68-15.53-2.28-18.33.9-1.77,2.51-4.78,2.51-4.78,0,0,3.52-.98,5.35-1.1.26-.01.51-.02.77-.02,1.48.29,3.03.53,4.56.86.99.21,1.97.44,2.93.74.29.09.56.18.84.28.23.09.46.17.68.26,1.4.54,2.38,1,3.16,1.38.96.48,1.61.88,2.3,1.33.04.02.07.04.11.07.78.5,1.95,1.34,3,2.28,1.02.91,1.92,1.9,2.22,2.75.08.23.17.58.25,1.06,0,.03.01.06.01.09.15,1.49-.36,3.14-.71,4.57Z"/>
              <path class="cls-73" d="M251.5,182.27l-1.61.2c-.43-3.28-9.93-8.25-9.93-8.25l-.17-1.08c.23.09.46.17.68.26,1.4.54,2.38,1,3.16,1.38.96.48,1.61.88,2.3,1.33.04.02.07.04.11.07.78.5,1.95,1.34,3,2.28,1.02.91,1.92,1.9,2.22,2.75.08.23.17.58.25,1.06Z"/>
              <path class="cls-88" d="M239.72,167.89v4.11s-4.21,3.04-6.44,2.6c-.96-.19-1.47-1.42-1.26-3.16l2.03-.41,5.67-3.14Z"/>
              <path class="cls-91" d="M232.77,174.36l-2.39,2.81s-.09-3.37,1.51-5.09c1.56-1.68,1.62-.23,1.62-.23,0,0-1.47,1.7-.74,2.51Z"/>
              <path class="cls-82" d="M228.1,162.42s-.34,3.44.37,6.59c.71,3.15.93,3.86,2.2,4.42,1.27.56,2.41.62,4.54-.75,2.13-1.37,3.3-3.6,3.3-3.6,0,0,.3.2,1.07-.66,1.19-1.35,1.42-2.02,1.42-3.85s-.46-4.13-1.88-6.51c-1.42-2.39-5.79-1.62-7.77-.61-1.98,1.02-2.87,2.93-3.25,4.98Z"/>
              <path class="cls-64" d="M226.38,162.58c2.18,3.85,7.61,1.32,7.61,1.32.4,1.67,1.57,1.83,2.14,2.14.56.31.68,1.93.68,1.93h.51s.02-1.62.28-2.44c.26-.81,1.78-1.44,2.54-.25.69,1.07-.1,2.26-.56,3.14-.15,1.4.14,1.99.14,1.99,0,0,.83-.82,1.38-2.49.56-1.67.97-5.18,0-8.94-.1-.39-.25-.75-.45-1.08-1.67-2.82-6.42-3.36-8.29-2.73-1.61.55-5.59,2.36-6.34,4.94-.22.76-.15,1.59.35,2.48Z"/>
              <path class="cls-84" d="M226.22,239.42c.03.2.06.4.09.59-.03-.23-.06-.43-.09-.59Z"/>
              <path class="cls-91" d="M239.72,171.59s.26.34.46.85c.17.42.29.95.29.95,0,0-1.72,3.54-6.45,5.06l-.54-3.83s4.14-.56,6.24-3.05Z"/>
              <path class="cls-16" d="M226.38,162.58c2.18,3.85,7.61,1.32,7.61,1.32.4,1.67,1.57,1.83,2.14,2.14.56.31.68,1.93.68,1.93h.51s.02-1.62.28-2.44c.26-.81,1.78-1.44,2.54-.25.69,1.07-.1,2.26-.56,3.14-.15,1.4.14,1.99.14,1.99,0,0,.83-.82,1.38-2.49.56-1.67.97-5.18,0-8.94-.1-.39-.25-.75-.45-1.08-.91.78-3.54,2.91-6.29,4.07-3.42,1.43-6.34,1.2-7.22.49-1.27-1.03-1.12-2.35-1.12-2.35-.22.76-.15,1.59.35,2.48Z"/>
            </g>
            <path class="cls-82" d="M244.98,221.06s-.13,2.06-.32,2.52c-.08.26-.27.5-.41.73-.24.41-1.32,2.34-1.48,3.47-.1.71.35,2.8.57,3.21.02.05.05.09.1.12.05.03.11.03.17.02.68-.1.72-.94.66-1.47-.03-.3-.04-1.22.16-1.2.78.48.87,2.51,1,3.31.18,1.08-.43,3.24.1,3.21.21,0,1.87-.72,2.22-1.43.58-.71.91-1.52,1.02-2.45.14-1.12-.14-2.12-.31-3.15-.11-.72-.29-1.46-.38-2.43-.06-.6.17-2.98.17-2.98l-3.28-1.5Z"/>
            <path class="cls-73" d="M245.63,209.09c.34,1.65,1.19,3.72,1,5.41-.12,1.01-.26,1.87-2.04,3.01-.36.24-.77.42-1.18.55l-.24.07c-.23-6.22.58-16.45.58-16.45-1.33-4.64-.98-15.09-.98-15.09,0,0,4.46,5.2,4.46,5.64,0,.25.25,2.8.47,4.92-1.43,3.86-2.93,7.73-2.07,11.94Z"/>
            <path class="cls-32" d="M253.29,202.35l-4.51,21.05s-.2.12-.6.21c-.71.17-2.05.23-4.01-.72,0,0,.43-16.45.98-21.28,0,0-3.01-11.8-2.26-17.11.48-3.42,3.4-4.6,5.75-4.21,1.29.22,2.42.91,2.86,1.97,0,0,2.67,17.04,1.79,20.08Z"/>
            <path class="cls-32" d="M222.19,194.36s-.02-.01-.03-.02c0,0,2.98-6,3.75-8.38l-.69-13.52s-2.67.49-5.04,5.46c-2.38,4.98-7.46,17.25-6.86,19.3,0,0,3.56-2.87,8.84-2.84.01,0,.02,0,.03,0Z"/>
            <g>
              <g>
                <path class="cls-80" d="M238.67,191.17v16.1c0,.07,0,.33-.14.41,0,0,0,.01-.01.01-.02.01-.03.02-.04.03l-.25.17-.03-.07-11.88-6.93v-17.13l-.26-.52.26-.15,11.59,6.75c.47.28.76.78.76,1.33Z"/>
                <path class="cls-50" d="M226.06,183.24l11.59,6.76c.47.28.76.78.76,1.33v16.23c0,.31-.34.5-.6.35l-11.75-6.85v-17.81Z"/>
              </g>
              <polygon class="cls-80" points="222.41 185.35 226.06 183.24 226.38 183.42 226.23 187.57 222.41 185.35"/>
              <polygon class="cls-87" points="226.38 183.42 222.75 185.55 222.75 188.43 226.38 185.82 226.38 183.42"/>
              <path class="cls-91" d="M226.38,183.92l-3.19,1.88-.43,17.19,11.12,6.63,3.6-2.17c.32-.19.51-.54.51-.91v-15.23c0-.39-.21-.76-.55-.95l-11.07-6.45Z"/>
              <g>
                <path class="cls-80" d="M234.76,193.43v16.1c0,.07,0,.33-.14.41,0,0,0,.01-.01.01-.02.01-.03.02-.04.03l-.25.17-.03-.07-11.88-6.93v-17.13l-.26-.52.26-.15,11.59,6.75c.47.28.76.78.76,1.33Z"/>
                <path class="cls-50" d="M222.16,185.5l11.59,6.76c.47.28.76.78.76,1.33v16.23c0,.31-.34.5-.6.35l-11.75-6.85v-17.81Z"/>
              </g>
            </g>
            <path class="cls-82" d="M239.22,201.35c-.07-.49-.47-.65-.47-.65l-1.85.85c.13-.15.52-.45.67-.6.4-.4.19-.81,0-.85-.19-.04-1.87.72-2.33.99-.18.11-.43.41-.57.61,0,0,0,0,0,0-.36.37-.72.42-.93.41l-1.64-.59-1.74,1.33.42,1.99s3.12,1.74,4.06,1.5c3.16-.79,4.07-2.35,4.07-2.35.26-.42.38-2.16.3-2.65Z"/>
            <path class="cls-32" d="M231.27,205.34s-.14-.26-.19-.6c-.15-1.16.42-3.14,2.02-3.07,0,0-5.96-4.48-10.93-7.32-.3-.12-3.16-.08-5.34.67-2.11.73-3.53,2.17-3.53,2.17.61,2.05,17.96,8.14,17.96,8.14Z"/>
            <path class="cls-73" d="M253.29,202.35l-4.51,21.05s-.2.12-.6.21c.29-1.51,3.76-19.82,3.91-22.93.17-3.24-3.46-20.38-3.46-20.38,1.29.22,2.42.91,2.86,1.97,0,0,2.67,17.04,1.79,20.08Z"/>
          </g>
          <g>
            <path class="cls-33" d="M210.54,199.78h0s-.11-3.56-.11-3.56v-.18.02c-.32-6.57-9.58-11.59-20.8-11.26-11.29.32-20.29,5.97-20.09,12.59l.1,3.59c.08,2.52,1.46,4.8,3.76,6.66l-4.32,2.69c-.55-.26-1.13-.39-1.71-.33-.3.03-.58.11-.87.24-.05.02-.09.05-.14.08l-.17.1s-.05.03-.07.05c-.03.02-.03.03-.06.05l-21.43,13.17c3.07,1.02,6.22,2.24,9.42,3.68l15.96-9.79c.18-.09.34-.19.48-.32.42-.31.73-.76.94-1.27.21-.54.26-1.15.22-1.79l5.72-3.56c.1-.05.19-.11.29-.17.08-.07.16-.16.22-.24,3.51,1.48,7.86,2.3,12.57,2.17,10.98-.33,19.78-5.66,20.11-12.05h.01s-.01-.55-.01-.55Z"/>
            <path class="cls-12" d="M167.24,187.31c.02.63.12,1.26.29,1.86,1.71,5.97,10.7,10.32,21.39,10.01,10.69-.31,19.4-5.19,20.76-11.25.14-.61.18-5.69.18-5.69,0,0-5.6-11.14-21.68-10.92-9.73.14-20.94,12.17-20.94,12.17,0,0-.04,2.62,0,3.82ZM170.63,187.21c-.04-1.51.46-2.96,1.4-4.29,2.67-3.77,8.89-6.53,16.22-6.75,7.32-.22,13.69,2.17,16.58,5.78,1.02,1.27,1.6,2.69,1.65,4.2.17,5.8-7.71,8.06-17.61,8.35-9.9.29-18.06-1.49-18.23-7.29Z"/>
            <g>
              <path class="cls-65" d="M169.81,183.49c.17,5.92,8.67,10.48,18.99,10.18,10.31-.3,18.53-5.35,18.35-11.28-.17-5.92-8.67-10.48-18.99-10.18-10.31.3-18.53,5.35-18.35,11.28Z"/>
              <path class="cls-81" d="M177.74,174.29c18.6.41,24.19,9.56,25.74,14.74,2.37-1.88,3.74-4.18,3.67-6.64-.18-5.92-8.62-10.27-18.94-9.97-3.79.11-7.57.67-10.48,1.87Z"/>
              <path class="cls-21" d="M171.65,183.72c.15,5.24,7.68,9.28,16.81,9.01,9.13-.27,16.4-4.73,16.24-9.98,0-.15-.01-.3-.03-.45-.51,4.92-7.51,8.98-16.21,9.24-8.85.27-16.2-3.52-16.77-8.53-.03.23-.04.48-.03.72Z"/>
            </g>
            <path class="cls-12" d="M169.13,179.8l4.84-5.03,13.95-3.45,14.13,2.62,5.12,4.73,1.33,2.95-2.02.71s-2.38-9.6-18.51-9.12c-16.12.47-17.94,10.2-17.94,10.2l-2.06-.59,1.16-3.02Z"/>
            <path class="cls-30" d="M167.24,183.49c.02.63.12,1.26.29,1.86,1.71,5.97,10.7,10.32,21.39,10.01,10.69-.31,19.4-5.19,20.76-11.25.14-.61.2-1.24.18-1.87-.2-6.9-9.91-12.22-21.68-11.87-11.77.35-21.14,6.22-20.94,13.13ZM170.63,183.39c-.04-1.51.46-2.96,1.4-4.29,2.67-3.77,8.89-6.53,16.22-6.75,7.32-.22,13.69,2.17,16.58,5.78,1.02,1.27,1.6,2.69,1.65,4.2.17,5.8-7.71,10.75-17.61,11.04-9.9.29-18.06-4.18-18.23-9.98Z"/>
            <path class="cls-79" d="M167.24,183.49c.02.63.12,1.26.29,1.86,1.71,5.97,10.7,10.32,21.39,10.01,10.69-.31,19.4-5.19,20.76-11.25.14-.61.2-1.24.18-1.87-.2-6.9-9.91-12.22-21.68-11.87-11.77.35-21.14,6.22-20.94,13.13ZM170.63,183.39c-.04-1.51.46-2.96,1.4-4.29,2.67-3.77,8.89-6.53,16.22-6.75,7.32-.22,13.69,2.17,16.58,5.78,1.02,1.27,1.6,2.69,1.65,4.2.17,5.8-7.71,10.75-17.61,11.04-9.9.29-18.06-4.18-18.23-9.98Z"/>
            <path class="cls-76" d="M164.69,198.27l.41.6s0,0,0,0l1.83,2.7.47.69,8.01-5h0c.11-.05.2-.11.29-.18.25-.19.44-.46.55-.77.06-.15.1-.32.12-.49h0c.07-.5-.01-1.06-.26-1.59-.31-.65-.82-1.13-1.37-1.36-.3-.12-.61-.17-.91-.14-.18.02-.35.06-.52.14-.03.01-.06.03-.09.04l-.11.07s-.03.02-.04.03l-8.39,5.23Z"/>
            <path class="cls-91" d="M164.69,198.27l.41.6s0,0,0,0l9.64-5.98c-.3-.12-.61-.17-.91-.14-.18.02-.35.06-.52.14-.03.01-.06.03-.09.04l-.11.07s-.03.02-.04.03l-8.39,5.23Z"/>
            <path class="cls-50" d="M166.93,201.58l.47.69,8.01-5h0c.11-.05.2-.11.29-.18.25-.19.44-.46.55-.77.06-.15.1-.32.12-.49l-9.45,5.74Z"/>
            <path class="cls-12" d="M139.2,212.26l1.16,2.05,2.99,5.27,24.37-15.06s0,0,0,0h0c.19-.09.35-.19.5-.32.44-.34.77-.8.97-1.33.4-1.05.35-2.38-.24-3.63-.22-.47-.5-.88-.82-1.23,0,0,0,0,0,0-.88-.97-2.05-1.49-3.15-1.37-.31.03-.62.11-.9.25-.05.02-.1.05-.15.08l-.19.12s-.05.03-.07.04c-.02.01-.03.03-.05.04l-24.43,15.1Z"/>
            <path class="cls-79" d="M139.2,212.26l1.16,2.05,2.93-.88,24.85-15.42s0,0,0,0c0,0,0,0,0,0-.88-.97-2.05-1.49-3.15-1.37-.31.03-.62.11-.9.25-.05.02-.1.05-.15.08l-.19.12s-.05.03-.07.04c-.02.01-.03.03-.05.04l-24.43,15.1Z"/>
            <path class="cls-10" d="M137.97,217.53c1.01,2.11,3.19,3.16,4.87,2.36h0c.18-.09.35-.19.51-.32.43-.34.76-.8.97-1.34.4-1.05.35-2.38-.24-3.62-.84-1.75-2.48-2.77-3.97-2.61-.31.03-.62.11-.9.25-.05.02-.1.05-.15.08l-.19.12s-.05.03-.07.04c-1.36.97-1.75,3.11-.83,5.04Z"/>
          </g>
          <g>
            <path class="cls-84" d="M112.42,274.39v1.05c0,.21-.03.41-.09.61h0c-.01.06-.03.09-.05.14-.02.03-.03.07-.06.13-.02.03-.05.07-.07.13-.06.07-.11.16-.18.25-.03.05-.06.09-.09.14-.03.03-.07.07-.1.09-.05.05-.1.1-.15.16-.26.24-.63.52-1.13.76-1.6.8-3.29,1.39-4.47,2.09-.38.23-1.43.93-1.43.93,0,0-.85.69-1.52,1.1-.69.41-2.17,1.12-3.63.97-1.44-.16-2.13-1.08-2.2-1.64l.02-.88,5.35-1.99,9.81-4.02Z"/>
            <path class="cls-32" d="M103.06,274.14s1.64-.07,4.32-.53c2.68-.46,4.52-.59,4.87.25.34.81.41,1.68-1.98,3.31-2.39,1.64-4.24,1.81-6.16,3.35-1.42,1.14-2.7,1.41-4.12,1.51-1.43.1-2.39-.45-2.7-1.03-.72-1.35.03-3.91.03-3.91l5.74-2.94Z"/>
            <path class="cls-84" d="M122.1,280.83v.97c.01.45-.24.85-.63,1.07-.92.49-2.79,1.31-5.55,1.65-2.68.33-3.59.44-3.59.44,0,0-1.17.09-2.01.19-.85.11-2.24.07-2.85-.46-.15-.14-.25-.24-.34-.33,0,0,0-.01-.01-.02,0,0-.01-.02-.02-.03-.05-.05-.08-.1-.11-.16-.09-.18-.11-.41-.13-.5v-.45s.01-.18.01-.18l1.97-.14h.01l.97-.07.91-.06.84-.06,10.53-1.86Z"/>
            <path class="cls-32" d="M114.26,278.35s1.17,1.1,2.55,1.1,4.07-.03,4.76.45c.34.24.52.53.54.86.02.33-.11.69-.37,1.07-.52.76-4,1.9-6.62,2.1s-2.76.17-4,.38c-1.24.21-2.53.3-3.31-.08-1.35-.67-1.44-2.71-.62-4.06s7.07-1.83,7.07-1.83Z"/>
            <path class="cls-82" d="M99.95,180.8l-.21.5.33,1.64,5.24,2.64.31-.04.84-.1,1.32-.17v-1.82c0-.93.51-1.84,1.36-2.21.03-.02.06-.03.06-.03.29-.11.59-.3.89-.6l.08-.08c1.01-1.07,1.91-3.48,1.65-8.74-.05-.92-.26-2.51-.68-3.32-.76-1.46-2.38-2.43-5.72-1.52-5.57,1.54-8,4.07-8.28,6.25-.28,2.18,2.82,7.6,2.82,7.6Z"/>
            <path class="cls-88" d="M107.77,185.26v-1.82c0-.93.51-1.84,1.36-2.21-.27.12-1.12.53-2.24,1.13-.45.24-.44,1.69-.44,3.07l1.32-.17Z"/>
            <polygon class="cls-82" points="112.15 192.14 120.13 187.45 119.61 191.61 114.91 196.64 112.15 192.14"/>
            <g>
              <g>
                <path class="cls-45" d="M116.71,194.89l10,5.14c.32.17.72,0,.82-.35l4.86-15.56c.17-.57-.08-1.18-.59-1.44l-9.29-4.77c-.49-.25-1.08.01-1.25.56l-4.89,15.64c-.09.3.04.63.32.78Z"/>
                <path class="cls-54" d="M117.27,194.46l9.11,4.71c.24.13.54,0,.62-.26l4.56-14.56c.18-.69.15-.99-.54-1.33l-8.67-4.48c-.22-.11-.48,0-.55.25l-4.74,15.16c-.06.2.03.42.22.52Z"/>
              </g>
              <g class="cls-102">
                <path class="cls-55" d="M130.54,183.9l-.18.56-8.02-4.14.16-.53s.01-.02.01-.03l8.04,4.14Z"/>
                <polygon class="cls-55" points="129.95 185.73 129.78 186.28 121.76 182.15 121.93 181.6 129.95 185.73"/>
                <polygon class="cls-55" points="129.38 187.55 129.21 188.12 121.17 183.99 121.36 183.43 129.38 187.55"/>
                <polygon class="cls-55" points="128.81 189.39 128.64 189.95 120.6 185.81 120.78 185.26 128.81 189.39"/>
                <polygon class="cls-55" points="128.24 191.23 128.06 191.78 120.03 187.65 120.2 187.09 128.24 191.23"/>
                <polygon class="cls-55" points="127.66 193.06 127.49 193.61 119.46 189.49 119.63 188.93 127.66 193.06"/>
                <polygon class="cls-55" points="127.09 194.9 126.92 195.45 118.88 191.31 119.05 190.76 127.09 194.9"/>
                <polygon class="cls-55" points="126.52 196.72 126.34 197.29 118.31 193.15 118.48 192.59 126.52 196.72"/>
              </g>
              <path class="cls-82" d="M124.95,197.07l1.79,1.49.34.28s.41-1.72,1.14-2.37c.25-.22.98-.52,1.39-.63.24-.07.45-.2.6-.4.35-.48.87-1.53.6-3.35-.05-.35-.13-.59-.23-.76,0,0,0-.01,0-.01-.22-.38-.5-.37-.5-.37,0,0-1.21.86-1.56,1.12-.29.21-.66.63-.94.32-.15-.16.73-1.28.98-1.79.24-.51-.23-1.06-.44-.87-.2.2-1.44,1.76-1.95,3.08-.5,1.31-1.2,4.24-1.2,4.24Z"/>
              <path class="cls-88" d="M126.33,197.28l.41,1.28.34.28s.41-1.72,1.14-2.37c.25-.22.98-.52,1.39-.63.24-.07.45-.2.6-.4.35-.48.87-1.53.6-3.35-.05-.35-.13-.59-.23-.76,0,0,0-.01,0-.01,0,0-.01.31-.51.76-.5.44-1.23.84-1.58,1.06-.34.22-.88,1.03-1.22,1.83-.34.81-.92,2.31-.92,2.31Z"/>
            </g>
            <path class="cls-84" d="M94.58,230.61c1.24,6.78,2.13,15.19,2.13,15.19,0,0-2.07,16.84.26,31.51.1.69.34,2.16,1.23,2.73.51.31,1.84.53,2.88-.02.04-.03.09-.04.13-.07,3.48-1.9,3.11-4.37,3.61-5.99,0-6.53-.69-22.58.69-26.11l1.24-14.23-.45-10.17h-12.45v.03l-.06-.03s-1.06,2.73.79,7.15Z"/>
            <path class="cls-83" d="M98.38,230.88c1.17,3.85,2.68,13.92,3,16.37,0,0-1.16,19.38-.17,32.7,3.48-1.9,3.11-4.37,3.61-5.99,0-6.53-.69-22.58.69-26.11l1.24-14.23-.45-10.17h-8.56s-.53,3.57.64,7.42Z"/>
            <path class="cls-84" d="M99.18,226.81c.39,1.75,1.16,4.19,2.69,6.51.24.36.45.73.66,1.1.04.17.65,2.45,1.4,5.51.76,3.06,1.67,6.89,2.32,10.16-.36,4.09-1.37,18.43.56,30.85.14.88.77,1.61,1.64,1.85.4.11.86.18,1.37.15.37-.03.75-.1,1.15-.27,2.04-.86,3.51-4.12,3.51-4.12,0,0,.05-20.62,1.12-26.03.21-1.04.31-2.08.38-3.13.2-3.31.56-9.36.67-11.89.21-4.92.25-9.04.08-10.88l-10.2.13-7.34.09Z"/>
            <path class="cls-83" d="M106.52,226.73c.05.61.09,1.01.09,1.01,0,0,.1,2.57,1.4,6.42,1.3,3.85,2.59,12.99,2.73,16.42.14,3.15-1.54,18.17-.91,32.34.37-.03.75-.1,1.15-.27,2.04-.86,3.51-4.12,3.51-4.12,0,0,.05-20.62,1.12-26.03.21-1.04.31-2.08.38-3.13.2-3.31.56-9.36.67-11.89.21-4.92.25-9.04.08-10.88l-10.2.13Z"/>
            <path class="cls-32" d="M92.59,198.05c1.64,4.99,2.57,13.2,1.58,16.62-1,3.43-1.58,8.28-1.58,8.28.93,2.57,9.63,8.14,14.49,8.56.59.05,1.19.03,1.78-.07,4.27-.63,8.28-4.43,8.28-4.43,0,0-.92-14.06-1.5-23.05-.39-5.98-1.27-9.7-1.82-11.53-.27-.92-.46-1.35-.46-1.35-.51-.68-2.05-1.82-4-3.11,0,0-.03,0-.04-.02-1.31-.87-2.8-1.8-4.3-2.68h0c-2-1.18-4.01-2.29-5.62-3.09-.19-.09-.37-.18-.54-.26-1.14-.56-2.02-.92-2.47-1.01-2.29-.43-5.35.78-6.28,4.92-.93,4.14.86,7.2,2.49,12.2Z"/>
            <path class="cls-52" d="M109.37,214.61c.29,3.84-.29,13.41-.51,16.84,4.27-.63,8.28-4.43,8.28-4.43,0,0-.92-14.06-1.5-23.05-.39-5.98-1.27-9.7-1.82-11.53-.46-.53-.76-.86-.76-.86h-5.63s-2.93.6-1.87,7.27c1.08,6.67,3.47,11.06,3.82,15.77Z"/>
            <path class="cls-90" d="M98.81,184.04c.86,1.17,3.93,2.87,5.34,3.17,1.42.29,2.55.15,3.22.14.94-.01,1.67.51,1.94.62.02,0,.03.02.04.02,0,0,.02,0,.02,0l-.84-1.28-.98-.62s-1.43-.52-1.75-.67c-.1-.05-.41-.09-.8-.14h0c-.85-.1-2.06-.19-2.25-.21-.27-.03-2.47-1.55-2.57-1.61-.05-.03-.49-.75-.8-1.27-.19-.09-.37-.18-.54-.26-.31.39-.71,1.17-.03,2.11Z"/>
            <path class="cls-97" d="M95.67,173.4c.48,2.86,2.9,7.36,4.13,7.77.74.26,1.44.36,2.02.39.96.05,1.82-.63,1.99-1.58.15-.8.4-1.81.83-2.59.86-1.58,1.98-2.41,2.54-2.12.57.29.51,1.31.51,1.31h.37s.03-.33.09-.77c.04-.43.09-.98.11-1.4,0-1.07.33-2.12.98-2.96.39-.52.86-1.32,1.37-2.53.33-.8.41-1.57.34-2.26h0c-.23-2.21-1.13-3.11-1.98-3.73-2.77-2.03-8.56,1.74-10.7,3.54-1.17.98-1.99,2.12-2.4,3.41h0c-.34,1.07-.41,2.24-.2,3.52Z"/>
            <path class="cls-91" d="M99.21,181.8l.53-.49c3.46,3.82,8.03,3.96,8.03,3.96,0,0,1.25,1.26,1.61,2.73l-.73-.47c-.38-.25-.81-.42-1.26-.49-.29-.04-.92-.08-.92-.08-2.86-.04-5.71-2.04-7.19-3.27-.59-.48-.61-1.37-.06-1.89Z"/>
            <path class="cls-27" d="M112.16,276.71c-.05.1-.12.18-.18.26.07-.09.13-.18.18-.26Z"/>
            <path class="cls-27" d="M111.88,277.1s.06-.09.09-.13c-.05.07-.11.15-.19.23.03-.03.06-.06.09-.09Z"/>
            <path class="cls-82" d="M127.38,197.9h0c-.08.24-.89,2.87-1.38,4.5-.47,1.58-2.02,7.31-3.27,10.04-.01.05-.03.09-.06.14-.07.13-.13.24-.17.34-.01.05-.03.08-.06.13,0,.01-.01.01-.01.02-.06.1-.1.21-.14.3-.47.87-1.33,1.59-2.43,1.73h-.13c-1.72,0-5.83-7.39-7.05-9.65.5-.31,1.11-.7,1.77-1.18,1.19-.87,2.51-2.03,3.5-3.5.61,1.36,1.86,3.38,2.41,4.68,0,0,.07-.17.17-.47.39-.97,1.52-3.31,2.44-4.58,1.34-1.85,2.18-4.33,2.29-4.6,0,.08.06.31.68.39.21.03.42.21.63.45.21.24.4.54.57.81.03.03.05.07.07.1.06.11.11.22.16.34Z"/>
            <path class="cls-88" d="M127.38,197.9h0c-.08.24-.89,2.87-1.38,4.5-.47,1.58-2.02,7.31-3.27,10.04-.01.05-.03.09-.06.14-.07.13-.13.24-.17.34-.01.05-.03.08-.06.13,0,.01-.01.01-.01.02-.06.1-.1.21-.14.3-.47.87-1.33,1.59-2.43,1.73h-.13c-1.72,0-5.83-7.39-7.05-9.65.5-.31,1.11-.7,1.77-1.18,1.21,2.24,4.74,8.66,6.06,8.65.63,0,1.94-4.15,2.9-6.63.96-2.48,3.15-9.66,3.15-9.66.21.24.4.54.57.81.03.03.05.07.07.1.06.11.11.22.16.34Z"/>
            <path class="cls-32" d="M118.8,201.09c-1.49,2.22-4.2,4.09-5.64,4.99-.44.28-.79.47-1.01.58-.3-.47-4.77-7.5-5.24-9.95-.06-.17-.09-.33-.11-.47-.59-3.25.41-4.41.54-4.56.03-.03.06-.07.08-.1,2.02-2.42,5.28-2.5,7.18,1.07.88,1.65,2.66,4.95,4.2,8.45Z"/>
            <path class="cls-98" d="M95.67,173.4c.48,2.86,2.9,7.36,4.13,7.77.74.26,1.44.36,2.02.39.96.05,1.82-.63,1.99-1.58.15-.8.4-1.81.83-2.59.86-1.58,1.98-2.41,2.54-2.12.57.29.51,1.31.51,1.31h.37s.03-.33.09-.77c.04-.43.09-.98.11-1.4,0-1.07.33-2.12.98-2.96.39-.52.86-1.32,1.37-2.53.33-.8.41-1.57.34-2.26-.27.69-2.58,6.07-9.03,7.42-6.73,1.41-6.1-3.93-6.05-4.2-.34,1.06-.41,2.23-.2,3.51Z"/>
            <g>
              <path class="cls-69" d="M113.49,224.1c-.55,1.01-2.49,2.45-4.78,2.13-.41-.06-.84-.14-1.27-.24-.05-.01-.09-.02-.13-.02-4.8-1.11-11.12-4.46-12.77-6.82-2.12-3.03-.03-19.46,3.23-25.73h0c.86-1.65,2.5-2.2,3.46-2.05,0,0,6.38,2.4,8.4,4.88,2.02,2.48,5.56,24.7,3.85,27.85Z"/>
              <path class="cls-5" d="M113.49,224.1c-.55,1.01-2.49,2.45-4.78,2.13-.41-.06-.84-.14-1.27-.24,1.5.4,2.65-1.33,2.65-2.53s-1.51-19.5-3.23-24.61c-.51-1.51-7.03-4.49-9.08-5.44.86-1.64,2.5-2.19,3.46-2.04,0,0,6.38,2.4,8.4,4.88,2.02,2.48,5.56,24.7,3.85,27.85Z"/>
              <path class="cls-5" d="M103.82,192.63s1.34-2.56,2.93-3.58,3.15-.78,3.15-.78l2.37,1.69s-1.36-.05-2.87,1.06c-.9.66-2.38,3.24-2.38,3.24l-3.2-1.63Z"/>
              <path class="cls-5" d="M116.23,212.16s-.41,2.87-3.16,4.78l.45,3.63s1.5-.89,3-4.08l-.29-4.33Z"/>
            </g>
          </g>
        </g>
      </g>
    </g>
  </g>
</svg>