<svg width="33" height="33" viewBox="0 0 33 33" fill="none" xmlns="http://www.w3.org/2000/svg">
<path d="M28.2143 0.5H10.1147C7.75387 0.5 5.82227 2.43148 5.82227 4.79214V6.2526H22.1949C24.5557 6.2526 26.4873 8.18409 26.4873 10.5447V21.2454H28.2143C30.5751 21.2454 32.5067 19.3139 32.5067 16.9532V4.79214C32.5067 2.43142 30.5751 0.5 28.2143 0.5Z" fill="#DF322B"/>
<path d="M25.171 6.05859H7.07133C6.6373 6.05859 6.21794 6.12437 5.82227 6.24563V6.25483H22.1949C24.5557 6.25483 26.4873 8.18632 26.4873 10.547V21.2476H28.2142C28.6483 21.2476 29.0676 21.1818 29.4633 21.0606V10.3507C29.4634 7.99007 27.5318 6.05859 25.171 6.05859Z" fill="#CE130C"/>
<path d="M22.392 6.05859H4.2924C1.9316 6.05859 0 7.99008 0 10.3507V22.5118C0 24.8724 1.9316 26.8039 4.2924 26.8039H15.1555C15.6212 26.8039 15.9689 27.2373 15.8624 27.6906C15.5743 28.917 15.1335 30.2139 14.4818 31.5434C14.1892 32.1405 14.8549 32.7475 15.4204 32.3975C17.0553 31.3857 19.3815 29.6923 21.3405 27.2984C21.5981 26.9837 21.9854 26.8038 22.392 26.8038C24.7528 26.8038 26.6844 24.8724 26.6844 22.5117V10.3507C26.6844 7.99007 24.7528 6.05859 22.392 6.05859Z" fill="#1A71E8"/>
<path d="M18.64 27.6894C18.7464 27.236 18.3988 26.8027 17.9331 26.8027H15.1533C15.619 26.8027 15.9666 27.236 15.8601 27.6894C15.5721 28.9158 15.1312 30.2127 14.4796 31.5422C14.1869 32.1393 14.8526 32.7463 15.4181 32.3964C16.0454 32.0081 16.7746 31.5192 17.5456 30.9293C18.0429 29.8143 18.3964 28.7265 18.64 27.6894Z" fill="#0757C3"/>
<path d="M2.77985 22.5118V10.3507C2.77985 7.99008 4.71145 6.05859 7.07225 6.05859H4.2924C1.9316 6.05859 0 7.99008 0 10.3507V22.5118C0 24.8724 1.9316 26.8039 4.2924 26.8039H7.07225C4.71138 26.8039 2.77985 24.8725 2.77985 22.5118Z" fill="#0757C3"/>
<path d="M5.94976 18.204C6.73641 18.204 7.37412 17.5664 7.37412 16.7797C7.37412 15.9931 6.73641 15.3555 5.94976 15.3555C5.1631 15.3555 4.52539 15.9931 4.52539 16.7797C4.52539 17.5664 5.1631 18.204 5.94976 18.204Z" fill="#DFEBFA"/>
<path d="M10.5494 18.204C11.336 18.204 11.9737 17.5664 11.9737 16.7797C11.9737 15.9931 11.336 15.3555 10.5494 15.3555C9.76271 15.3555 9.125 15.9931 9.125 16.7797C9.125 17.5664 9.76271 18.204 10.5494 18.204Z" fill="#DFEBFA"/>
<path d="M15.1509 18.204C15.9376 18.204 16.5753 17.5664 16.5753 16.7797C16.5753 15.9931 15.9376 15.3555 15.1509 15.3555C14.3643 15.3555 13.7266 15.9931 13.7266 16.7797C13.7266 17.5664 14.3643 18.204 15.1509 18.204Z" fill="#DFEBFA"/>
<path d="M19.7525 18.204C20.5391 18.204 21.1769 17.5664 21.1769 16.7797C21.1769 15.9931 20.5391 15.3555 19.7525 15.3555C18.9658 15.3555 18.3281 15.9931 18.3281 16.7797C18.3281 17.5664 18.9658 18.204 19.7525 18.204Z" fill="#DFEBFA"/>
<path d="M5.94976 16.7797C5.94976 16.2527 6.23636 15.7928 6.66194 15.5465C6.45236 15.4252 6.20931 15.3555 5.94976 15.3555C5.1631 15.3555 4.52539 15.9931 4.52539 16.7797C4.52539 17.5664 5.1631 18.204 5.94976 18.204C6.20931 18.204 6.45242 18.1343 6.66194 18.013C6.23629 17.7667 5.94976 17.3068 5.94976 16.7797Z" fill="#B1DBFC"/>
<path d="M10.5494 16.7797C10.5494 16.2527 10.836 15.7928 11.2616 15.5465C11.052 15.4252 10.8089 15.3555 10.5494 15.3555C9.76271 15.3555 9.125 15.9931 9.125 16.7797C9.125 17.5664 9.76271 18.204 10.5494 18.204C10.8089 18.204 11.052 18.1343 11.2616 18.013C10.8359 17.7667 10.5494 17.3068 10.5494 16.7797Z" fill="#B1DBFC"/>
<path d="M15.1509 16.7797C15.1509 16.2527 15.4375 15.7928 15.8631 15.5465C15.6535 15.4252 15.4104 15.3555 15.1509 15.3555C14.3643 15.3555 13.7266 15.9931 13.7266 16.7797C13.7266 17.5664 14.3643 18.204 15.1509 18.204C15.4105 18.204 15.6536 18.1343 15.8631 18.013C15.4375 17.7667 15.1509 17.3068 15.1509 16.7797Z" fill="#B1DBFC"/>
<path d="M19.7505 16.7797C19.7505 16.2527 20.0371 15.7928 20.4627 15.5465C20.2531 15.4252 20.01 15.3555 19.7505 15.3555C18.9639 15.3555 18.3262 15.9931 18.3262 16.7797C18.3262 17.5664 18.9639 18.204 19.7505 18.204C20.0101 18.204 20.2532 18.1343 20.4627 18.013C20.0371 17.7667 19.7505 17.3068 19.7505 16.7797Z" fill="#B1DBFC"/>
</svg>
